<?xml version="1.0" encoding="UTF-8" standalone="no"?>
<!DOCTYPE svg PUBLIC "-//W3C//DTD SVG 1.1//EN"
 "http://www.w3.org/Graphics/SVG/1.1/DTD/svg11.dtd">
<!-- Generated by graphviz version 2.40.1 (0)
 -->
<!-- Title: leitse/aggregator.h Pages: 1 -->
<svg width="387pt" height="140pt"
 viewBox="0.00 0.00 387.00 140.00" xmlns="http://www.w3.org/2000/svg" xmlns:xlink="http://www.w3.org/1999/xlink">
<g id="graph0" class="graph" transform="scale(1 1) rotate(0) translate(4 136)">
<title>leitse/aggregator.h</title>
<!-- Node9 -->
<g id="node1" class="node">
<title>Node9</title>
<g id="a_node1"><a xlink:title=" ">
<polygon fill="#bfbfbf" stroke="#000000" points="86.5,-112.5 86.5,-131.5 245.5,-131.5 245.5,-112.5 86.5,-112.5"/>
<text text-anchor="middle" x="166" y="-119.5" font-family="Helvetica,sans-Serif" font-size="10.00" fill="#000000">leitse/aggregator.h</text>
</a>
</g>
</g>
<!-- Node10 -->
<g id="node2" class="node">
<title>Node10</title>
<g id="a_node2"><a xlink:href="aggregator_8cpp.html" target="_top" xlink:title=" ">
<polygon fill="none" stroke="#000000" points="0,-56.5 0,-75.5 174,-75.5 174,-56.5 0,-56.5"/>
<text text-anchor="middle" x="87" y="-63.5" font-family="Helvetica,sans-Serif" font-size="10.00" fill="#000000">leitse/aggregator.cpp</text>
</a>
</g>
</g>
<!-- Node9&#45;&gt;Node10 -->
<g id="edge1" class="edge">
<title>Node9&#45;&gt;Node10</title>
<path fill="none" stroke="#191970" d="M143.7244,-106.2097C129.8495,-96.3743 112.4485,-84.0394 100.6031,-75.6427"/>
<polygon fill="#191970" stroke="#191970" points="142.0569,-109.3178 152.2393,-112.2455 146.1051,-103.6071 142.0569,-109.3178"/>
</g>
<!-- Node11 -->
<g id="node3" class="node">
<title>Node11</title>
<g id="a_node3"><a xlink:href="ugg_8h.html" target="_top" xlink:title=" ">
<polygon fill="none" stroke="#000000" points="192.5,-56.5 192.5,-75.5 299.5,-75.5 299.5,-56.5 192.5,-56.5"/>
<text text-anchor="middle" x="246" y="-63.5" font-family="Helvetica,sans-Serif" font-size="10.00" fill="#000000">leitse/ugg.h</text>
</a>
</g>
</g>
<!-- Node9&#45;&gt;Node11 -->
<g id="edge2" class="edge">
<title>Node9&#45;&gt;Node11</title>
<path fill="none" stroke="#191970" d="M188.1571,-106.49C202.272,-96.6096 220.1151,-84.1194 232.2248,-75.6427"/>
<polygon fill="#191970" stroke="#191970" points="186.1201,-103.6436 179.9349,-112.2455 190.1344,-109.3782 186.1201,-103.6436"/>
</g>
<!-- Node12 -->
<g id="node4" class="node">
<title>Node12</title>
<g id="a_node4"><a xlink:href="main_8cpp.html" target="_top" xlink:title=" ">
<polygon fill="none" stroke="#000000" points="109.5,-.5 109.5,-19.5 238.5,-19.5 238.5,-.5 109.5,-.5"/>
<text text-anchor="middle" x="174" y="-7.5" font-family="Helvetica,sans-Serif" font-size="10.00" fill="#000000">leitse/main.cpp</text>
</a>
</g>
</g>
<!-- Node11&#45;&gt;Node12 -->
<g id="edge3" class="edge">
<title>Node11&#45;&gt;Node12</title>
<path fill="none" stroke="#191970" d="M225.336,-49.928C212.7511,-40.1397 197.0908,-27.9595 186.3977,-19.6427"/>
<polygon fill="#191970" stroke="#191970" points="223.4162,-52.8688 233.4586,-56.2455 227.7138,-47.3434 223.4162,-52.8688"/>
</g>
<!-- Node13 -->
<g id="node5" class="node">
<title>Node13</title>
<g id="a_node5"><a xlink:href="ugg_8cpp.html" target="_top" xlink:title=" ">
<polygon fill="none" stroke="#000000" points="257,-.5 257,-19.5 379,-19.5 379,-.5 257,-.5"/>
<text text-anchor="middle" x="318" y="-7.5" font-family="Helvetica,sans-Serif" font-size="10.00" fill="#000000">leitse/ugg.cpp</text>
</a>
</g>
</g>
<!-- Node11&#45;&gt;Node13 -->
<g id="edge4" class="edge">
<title>Node11&#45;&gt;Node13</title>
<path fill="none" stroke="#191970" d="M266.664,-49.928C279.2489,-40.1397 294.9092,-27.9595 305.6023,-19.6427"/>
<polygon fill="#191970" stroke="#191970" points="264.2862,-47.3434 258.5414,-56.2455 268.5838,-52.8688 264.2862,-47.3434"/>
</g>
</g>
</svg>
