<?xml version="1.0" encoding="UTF-8" standalone="no"?>
<!DOCTYPE svg PUBLIC "-//W3C//DTD SVG 1.1//EN"
 "http://www.w3.org/Graphics/SVG/1.1/DTD/svg11.dtd">
<!-- Generated by graphviz version 2.40.1 (0)
 -->
<!-- Title: leitse/aggregator.h Pages: 1 -->
<svg width="576pt" height="140pt"
 viewBox="0.00 0.00 575.50 140.00" xmlns="http://www.w3.org/2000/svg" xmlns:xlink="http://www.w3.org/1999/xlink">
<g id="graph0" class="graph" transform="scale(1 1) rotate(0) translate(4 136)">
<title>leitse/aggregator.h</title>
<!-- Node0 -->
<g id="node1" class="node">
<title>Node0</title>
<g id="a_node1"><a xlink:title=" ">
<polygon fill="#bfbfbf" stroke="#000000" points="261.5,-112.5 261.5,-131.5 420.5,-131.5 420.5,-112.5 261.5,-112.5"/>
<text text-anchor="middle" x="341" y="-119.5" font-family="Helvetica,sans-Serif" font-size="10.00" fill="#000000">leitse/aggregator.h</text>
</a>
</g>
</g>
<!-- Node1 -->
<g id="node2" class="node">
<title>Node1</title>
<g id="a_node2"><a xlink:href="data__dragon_8h.html" target="_top" xlink:title=" ">
<polygon fill="none" stroke="#000000" points="180,-56.5 180,-75.5 294,-75.5 294,-56.5 180,-56.5"/>
<text text-anchor="middle" x="237" y="-63.5" font-family="Helvetica,sans-Serif" font-size="10.00" fill="#000000">data_dragon.h</text>
</a>
</g>
</g>
<!-- Node0&#45;&gt;Node1 -->
<g id="edge1" class="edge">
<title>Node0&#45;&gt;Node1</title>
<path fill="none" stroke="#191970" d="M322.8846,-112.2455C306.555,-103.4527 282.329,-90.4079 263.7661,-80.4125"/>
<polygon fill="#191970" stroke="#191970" points="265.3719,-77.3021 254.9078,-75.6427 262.0532,-83.4654 265.3719,-77.3021"/>
</g>
<!-- Node3 -->
<g id="node4" class="node">
<title>Node3</title>
<g id="a_node4"><a xlink:title=" ">
<polygon fill="none" stroke="#bfbfbf" points="0,-.5 0,-19.5 62,-19.5 62,-.5 0,-.5"/>
<text text-anchor="middle" x="31" y="-7.5" font-family="Helvetica,sans-Serif" font-size="10.00" fill="#000000">string</text>
</a>
</g>
</g>
<!-- Node0&#45;&gt;Node3 -->
<g id="edge8" class="edge">
<title>Node0&#45;&gt;Node3</title>
<path fill="none" stroke="#191970" d="M297.374,-112.4372C262.637,-104.2901 213.0402,-91.4601 171,-76 130.3922,-61.0667 85.4824,-38.8089 57.7466,-24.348"/>
<polygon fill="#191970" stroke="#191970" points="59.1673,-21.1406 48.6876,-19.5829 55.9086,-27.3359 59.1673,-21.1406"/>
</g>
<!-- Node4 -->
<g id="node5" class="node">
<title>Node4</title>
<g id="a_node5"><a xlink:title=" ">
<polygon fill="none" stroke="#bfbfbf" points="242.5,-.5 242.5,-19.5 341.5,-19.5 341.5,-.5 242.5,-.5"/>
<text text-anchor="middle" x="292" y="-7.5" font-family="Helvetica,sans-Serif" font-size="10.00" fill="#000000">string_view</text>
</a>
</g>
</g>
<!-- Node0&#45;&gt;Node4 -->
<g id="edge9" class="edge">
<title>Node0&#45;&gt;Node4</title>
<path fill="none" stroke="#191970" d="M336.8223,-112.4509C328.722,-93.936 310.7508,-52.8591 300.1894,-28.7187"/>
<polygon fill="#191970" stroke="#191970" points="303.3819,-27.2836 296.1671,-19.5249 296.9688,-30.0894 303.3819,-27.2836"/>
</g>
<!-- Node5 -->
<g id="node6" class="node">
<title>Node5</title>
<g id="a_node6"><a xlink:title=" ">
<polygon fill="none" stroke="#bfbfbf" points="360,-.5 360,-19.5 422,-19.5 422,-.5 360,-.5"/>
<text text-anchor="middle" x="391" y="-7.5" font-family="Helvetica,sans-Serif" font-size="10.00" fill="#000000">vector</text>
</a>
</g>
</g>
<!-- Node0&#45;&gt;Node5 -->
<g id="edge11" class="edge">
<title>Node0&#45;&gt;Node5</title>
<path fill="none" stroke="#191970" d="M345.263,-112.4509C353.5286,-93.936 371.8665,-52.8591 382.6434,-28.7187"/>
<polygon fill="#191970" stroke="#191970" points="385.8672,-30.0831 386.7478,-19.5249 379.4753,-27.2295 385.8672,-30.0831"/>
</g>
<!-- Node6 -->
<g id="node7" class="node">
<title>Node6</title>
<g id="a_node7"><a xlink:href="item__set_8h.html" target="_top" xlink:title=" ">
<polygon fill="none" stroke="#000000" points="388,-56.5 388,-75.5 480,-75.5 480,-56.5 388,-56.5"/>
<text text-anchor="middle" x="434" y="-63.5" font-family="Helvetica,sans-Serif" font-size="10.00" fill="#000000">item_set.h</text>
</a>
</g>
</g>
<!-- Node0&#45;&gt;Node6 -->
<g id="edge6" class="edge">
<title>Node0&#45;&gt;Node6</title>
<path fill="none" stroke="#191970" d="M357.1994,-112.2455C371.6018,-103.5731 392.8732,-90.7645 409.3799,-80.825"/>
<polygon fill="#191970" stroke="#191970" points="411.225,-83.7996 417.9863,-75.6427 407.614,-77.8028 411.225,-83.7996"/>
</g>
<!-- Node8 -->
<g id="node9" class="node">
<title>Node8</title>
<g id="a_node9"><a xlink:title=" ">
<polygon fill="none" stroke="#bfbfbf" points="498.5,-56.5 498.5,-75.5 567.5,-75.5 567.5,-56.5 498.5,-56.5"/>
<text text-anchor="middle" x="533" y="-63.5" font-family="Helvetica,sans-Serif" font-size="10.00" fill="#000000">utility</text>
</a>
</g>
</g>
<!-- Node0&#45;&gt;Node8 -->
<g id="edge10" class="edge">
<title>Node0&#45;&gt;Node8</title>
<path fill="none" stroke="#191970" d="M374.006,-112.3733C406.2091,-102.9807 455.3442,-88.6496 490.4639,-78.4064"/>
<polygon fill="#191970" stroke="#191970" points="491.8047,-81.6612 500.4247,-75.5011 489.8447,-74.9412 491.8047,-81.6612"/>
</g>
<!-- Node2 -->
<g id="node3" class="node">
<title>Node2</title>
<g id="a_node3"><a xlink:title=" ">
<polygon fill="none" stroke="#bfbfbf" points="80,-.5 80,-19.5 224,-19.5 224,-.5 80,-.5"/>
<text text-anchor="middle" x="152" y="-7.5" font-family="Helvetica,sans-Serif" font-size="10.00" fill="#000000">nlohmann/json.hpp</text>
</a>
</g>
</g>
<!-- Node1&#45;&gt;Node2 -->
<g id="edge2" class="edge">
<title>Node1&#45;&gt;Node2</title>
<path fill="none" stroke="#191970" d="M222.1941,-56.2455C209.2744,-47.7337 190.3069,-35.2375 175.3448,-25.3801"/>
<polygon fill="#191970" stroke="#191970" points="176.9124,-22.2216 166.6362,-19.6427 173.0613,-28.067 176.9124,-22.2216"/>
</g>
<!-- Node1&#45;&gt;Node3 -->
<g id="edge3" class="edge">
<title>Node1&#45;&gt;Node3</title>
<path fill="none" stroke="#191970" d="M201.5873,-56.3733C165.5779,-46.5843 109.8361,-31.4312 71.9498,-21.132"/>
<polygon fill="#191970" stroke="#191970" points="72.8156,-17.7404 62.2476,-18.4945 70.9792,-24.4952 72.8156,-17.7404"/>
</g>
<!-- Node1&#45;&gt;Node4 -->
<g id="edge4" class="edge">
<title>Node1&#45;&gt;Node4</title>
<path fill="none" stroke="#191970" d="M246.5803,-56.2455C254.5458,-48.1352 266.0641,-36.4075 275.5079,-26.7919"/>
<polygon fill="#191970" stroke="#191970" points="278.0195,-29.2297 282.5295,-19.6427 273.0253,-24.3247 278.0195,-29.2297"/>
</g>
<!-- Node1&#45;&gt;Node5 -->
<g id="edge5" class="edge">
<title>Node1&#45;&gt;Node5</title>
<path fill="none" stroke="#191970" d="M263.4735,-56.3733C288.8597,-47.1419 327.3645,-33.1402 355.422,-22.9375"/>
<polygon fill="#191970" stroke="#191970" points="356.6701,-26.2079 364.8719,-19.5011 354.2778,-19.6293 356.6701,-26.2079"/>
</g>
<!-- Node7 -->
<g id="node8" class="node">
<title>Node7</title>
<g id="a_node8"><a xlink:title=" ">
<polygon fill="none" stroke="#bfbfbf" points="440,-.5 440,-19.5 532,-19.5 532,-.5 440,-.5"/>
<text text-anchor="middle" x="486" y="-7.5" font-family="Helvetica,sans-Serif" font-size="10.00" fill="#000000">filesystem</text>
</a>
</g>
</g>
<!-- Node6&#45;&gt;Node7 -->
<g id="edge7" class="edge">
<title>Node6&#45;&gt;Node7</title>
<path fill="none" stroke="#191970" d="M443.0577,-56.2455C450.5142,-48.2155 461.2634,-36.6394 470.1417,-27.0781"/>
<polygon fill="#191970" stroke="#191970" points="472.8063,-29.3522 477.0461,-19.6427 467.6768,-24.589 472.8063,-29.3522"/>
</g>
</g>
</svg>
