<?xml version="1.0" encoding="UTF-8" standalone="no"?>
<!DOCTYPE svg PUBLIC "-//W3C//DTD SVG 1.1//EN"
 "http://www.w3.org/Graphics/SVG/1.1/DTD/svg11.dtd">
<!-- Generated by graphviz version 2.40.1 (0)
 -->
<!-- Title: leitse/aggregator.h Pages: 1 -->
<svg width="603pt" height="140pt"
 viewBox="0.00 0.00 602.50 140.00" xmlns="http://www.w3.org/2000/svg" xmlns:xlink="http://www.w3.org/1999/xlink">
<g id="graph0" class="graph" transform="scale(1 1) rotate(0) translate(4 136)">
<title>leitse/aggregator.h</title>
<!-- Node0 -->
<g id="node1" class="node">
<title>Node0</title>
<g id="a_node1"><a xlink:title=" ">
<polygon fill="#bfbfbf" stroke="#000000" points="301.5,-112.5 301.5,-131.5 460.5,-131.5 460.5,-112.5 301.5,-112.5"/>
<text text-anchor="middle" x="381" y="-119.5" font-family="Helvetica,sans-Serif" font-size="10.00" fill="#000000">leitse/aggregator.h</text>
</a>
</g>
</g>
<!-- Node1 -->
<g id="node2" class="node">
<title>Node1</title>
<g id="a_node2"><a xlink:href="data__dragon_8h.html" target="_top" xlink:title=" ">
<polygon fill="none" stroke="#000000" points="162,-56.5 162,-75.5 276,-75.5 276,-56.5 162,-56.5"/>
<text text-anchor="middle" x="219" y="-63.5" font-family="Helvetica,sans-Serif" font-size="10.00" fill="#000000">data_dragon.h</text>
</a>
</g>
</g>
<!-- Node0&#45;&gt;Node1 -->
<g id="edge1" class="edge">
<title>Node0&#45;&gt;Node1</title>
<path fill="none" stroke="#191970" d="M353.1512,-112.3733C326.3297,-103.1016 285.5873,-89.0178 256.0402,-78.804"/>
<polygon fill="#191970" stroke="#191970" points="257.0802,-75.4603 246.4854,-75.5011 254.7931,-82.0762 257.0802,-75.4603"/>
</g>
<!-- Node4 -->
<g id="node5" class="node">
<title>Node4</title>
<g id="a_node5"><a xlink:title=" ">
<polygon fill="none" stroke="#bfbfbf" points="280,-.5 280,-19.5 342,-19.5 342,-.5 280,-.5"/>
<text text-anchor="middle" x="311" y="-7.5" font-family="Helvetica,sans-Serif" font-size="10.00" fill="#000000">vector</text>
</a>
</g>
</g>
<!-- Node0&#45;&gt;Node4 -->
<g id="edge8" class="edge">
<title>Node0&#45;&gt;Node4</title>
<path fill="none" stroke="#191970" d="M364.5145,-112.4075C352.0377,-104.2861 335.482,-91.5046 326,-76 317.4747,-62.0596 313.7853,-43.7892 312.1936,-30.0064"/>
<polygon fill="#191970" stroke="#191970" points="315.6483,-29.3348 311.2898,-19.678 308.6749,-29.9451 315.6483,-29.3348"/>
</g>
<!-- Node5 -->
<g id="node6" class="node">
<title>Node5</title>
<g id="a_node6"><a xlink:href="item__set_8h.html" target="_top" xlink:title=" ">
<polygon fill="none" stroke="#000000" points="335,-56.5 335,-75.5 427,-75.5 427,-56.5 335,-56.5"/>
<text text-anchor="middle" x="381" y="-63.5" font-family="Helvetica,sans-Serif" font-size="10.00" fill="#000000">item_set.h</text>
</a>
</g>
</g>
<!-- Node0&#45;&gt;Node5 -->
<g id="edge5" class="edge">
<title>Node0&#45;&gt;Node5</title>
<path fill="none" stroke="#191970" d="M381,-112.2455C381,-104.9382 381,-94.6944 381,-85.7046"/>
<polygon fill="#191970" stroke="#191970" points="384.5001,-85.6426 381,-75.6427 377.5001,-85.6427 384.5001,-85.6426"/>
</g>
<!-- Node6 -->
<g id="node7" class="node">
<title>Node6</title>
<g id="a_node7"><a xlink:title=" ">
<polygon fill="none" stroke="#bfbfbf" points="445,-56.5 445,-75.5 507,-75.5 507,-56.5 445,-56.5"/>
<text text-anchor="middle" x="476" y="-63.5" font-family="Helvetica,sans-Serif" font-size="10.00" fill="#000000">string</text>
</a>
</g>
</g>
<!-- Node0&#45;&gt;Node6 -->
<g id="edge6" class="edge">
<title>Node0&#45;&gt;Node6</title>
<path fill="none" stroke="#191970" d="M397.5477,-112.2455C412.2599,-103.5731 433.9888,-90.7645 450.8505,-80.825"/>
<polygon fill="#191970" stroke="#191970" points="452.8046,-83.736 459.6419,-75.6427 449.2498,-77.7057 452.8046,-83.736"/>
</g>
<!-- Node7 -->
<g id="node8" class="node">
<title>Node7</title>
<g id="a_node8"><a xlink:title=" ">
<polygon fill="none" stroke="#bfbfbf" points="525.5,-56.5 525.5,-75.5 594.5,-75.5 594.5,-56.5 525.5,-56.5"/>
<text text-anchor="middle" x="560" y="-63.5" font-family="Helvetica,sans-Serif" font-size="10.00" fill="#000000">utility</text>
</a>
</g>
</g>
<!-- Node0&#45;&gt;Node7 -->
<g id="edge7" class="edge">
<title>Node0&#45;&gt;Node7</title>
<path fill="none" stroke="#191970" d="M411.7712,-112.3733C441.665,-103.021 487.2093,-88.7725 519.9217,-78.5385"/>
<polygon fill="#191970" stroke="#191970" points="521.1315,-81.8273 529.6303,-75.5011 519.0414,-75.1466 521.1315,-81.8273"/>
</g>
<!-- Node2 -->
<g id="node3" class="node">
<title>Node2</title>
<g id="a_node3"><a xlink:title=" ">
<polygon fill="none" stroke="#bfbfbf" points="0,-.5 0,-19.5 144,-19.5 144,-.5 0,-.5"/>
<text text-anchor="middle" x="72" y="-7.5" font-family="Helvetica,sans-Serif" font-size="10.00" fill="#000000">nlohmann/json.hpp</text>
</a>
</g>
</g>
<!-- Node1&#45;&gt;Node2 -->
<g id="edge2" class="edge">
<title>Node1&#45;&gt;Node2</title>
<path fill="none" stroke="#191970" d="M193.7298,-56.3733C169.6034,-47.1822 133.0638,-33.2624 106.3123,-23.0713"/>
<polygon fill="#191970" stroke="#191970" points="107.5313,-19.7904 96.9404,-19.5011 105.0393,-26.3318 107.5313,-19.7904"/>
</g>
<!-- Node3 -->
<g id="node4" class="node">
<title>Node3</title>
<g id="a_node4"><a xlink:title=" ">
<polygon fill="none" stroke="#bfbfbf" points="162.5,-.5 162.5,-19.5 261.5,-19.5 261.5,-.5 162.5,-.5"/>
<text text-anchor="middle" x="212" y="-7.5" font-family="Helvetica,sans-Serif" font-size="10.00" fill="#000000">string_view</text>
</a>
</g>
</g>
<!-- Node1&#45;&gt;Node3 -->
<g id="edge3" class="edge">
<title>Node1&#45;&gt;Node3</title>
<path fill="none" stroke="#191970" d="M217.7807,-56.2455C216.8673,-48.9382 215.5868,-38.6944 214.4631,-29.7046"/>
<polygon fill="#191970" stroke="#191970" points="217.9187,-29.1313 213.2053,-19.6427 210.9728,-29.9996 217.9187,-29.1313"/>
</g>
<!-- Node1&#45;&gt;Node4 -->
<g id="edge4" class="edge">
<title>Node1&#45;&gt;Node4</title>
<path fill="none" stroke="#191970" d="M235.0252,-56.2455C249.1408,-47.6534 269.9263,-35.0014 286.1899,-25.1018"/>
<polygon fill="#191970" stroke="#191970" points="288.4363,-27.8319 295.1585,-19.6427 284.7966,-21.8525 288.4363,-27.8319"/>
</g>
</g>
</svg>
