<?xml version="1.0" encoding="UTF-8" standalone="no"?>
<!DOCTYPE svg PUBLIC "-//W3C//DTD SVG 1.1//EN"
 "http://www.w3.org/Graphics/SVG/1.1/DTD/svg11.dtd">
<!-- Generated by graphviz version 2.40.1 (0)
 -->
<!-- Title: config/config.cpp Pages: 1 -->
<svg width="430pt" height="140pt"
 viewBox="0.00 0.00 429.50 140.00" xmlns="http://www.w3.org/2000/svg" xmlns:xlink="http://www.w3.org/1999/xlink">
<g id="graph0" class="graph" transform="scale(1 1) rotate(0) translate(4 136)">
<title>config/config.cpp</title>
<!-- Node0 -->
<g id="node1" class="node">
<title>Node0</title>
<g id="a_node1"><a xlink:title=" ">
<polygon fill="#bfbfbf" stroke="#000000" points="112.5,-112.5 112.5,-131.5 256.5,-131.5 256.5,-112.5 112.5,-112.5"/>
<text text-anchor="middle" x="184.5" y="-119.5" font-family="Helvetica,sans-Serif" font-size="10.00" fill="#000000">config/config.cpp</text>
</a>
</g>
</g>
<!-- Node1 -->
<g id="node2" class="node">
<title>Node1</title>
<g id="a_node2"><a xlink:href="config_8h.html" target="_top" xlink:title=" ">
<polygon fill="none" stroke="#000000" points="120,-56.5 120,-75.5 249,-75.5 249,-56.5 120,-56.5"/>
<text text-anchor="middle" x="184.5" y="-63.5" font-family="Helvetica,sans-Serif" font-size="10.00" fill="#000000">config/config.h</text>
</a>
</g>
</g>
<!-- Node0&#45;&gt;Node1 -->
<g id="edge1" class="edge">
<title>Node0&#45;&gt;Node1</title>
<path fill="none" stroke="#191970" d="M184.5,-112.2455C184.5,-104.9382 184.5,-94.6944 184.5,-85.7046"/>
<polygon fill="#191970" stroke="#191970" points="188.0001,-85.6426 184.5,-75.6427 181.0001,-85.6427 188.0001,-85.6426"/>
</g>
<!-- Node2 -->
<g id="node3" class="node">
<title>Node2</title>
<g id="a_node3"><a xlink:title=" ">
<polygon fill="none" stroke="#bfbfbf" points="0,-.5 0,-19.5 69,-19.5 69,-.5 0,-.5"/>
<text text-anchor="middle" x="34.5" y="-7.5" font-family="Helvetica,sans-Serif" font-size="10.00" fill="#000000">cstdlib</text>
</a>
</g>
</g>
<!-- Node1&#45;&gt;Node2 -->
<g id="edge2" class="edge">
<title>Node1&#45;&gt;Node2</title>
<path fill="none" stroke="#191970" d="M158.7141,-56.3733C134.0953,-47.1822 96.81,-33.2624 69.5125,-23.0713"/>
<polygon fill="#191970" stroke="#191970" points="70.542,-19.7198 59.9494,-19.5011 68.0937,-26.2777 70.542,-19.7198"/>
</g>
<!-- Node3 -->
<g id="node4" class="node">
<title>Node3</title>
<g id="a_node4"><a xlink:title=" ">
<polygon fill="none" stroke="#bfbfbf" points="87.5,-.5 87.5,-19.5 171.5,-19.5 171.5,-.5 87.5,-.5"/>
<text text-anchor="middle" x="129.5" y="-7.5" font-family="Helvetica,sans-Serif" font-size="10.00" fill="#000000">stdexcept</text>
</a>
</g>
</g>
<!-- Node1&#45;&gt;Node3 -->
<g id="edge3" class="edge">
<title>Node1&#45;&gt;Node3</title>
<path fill="none" stroke="#191970" d="M174.9197,-56.2455C166.9542,-48.1352 155.4359,-36.4075 145.9921,-26.7919"/>
<polygon fill="#191970" stroke="#191970" points="148.4747,-24.3247 138.9705,-19.6427 143.4805,-29.2297 148.4747,-24.3247"/>
</g>
<!-- Node4 -->
<g id="node5" class="node">
<title>Node4</title>
<g id="a_node5"><a xlink:title=" ">
<polygon fill="none" stroke="#bfbfbf" points="190,-.5 190,-19.5 289,-19.5 289,-.5 190,-.5"/>
<text text-anchor="middle" x="239.5" y="-7.5" font-family="Helvetica,sans-Serif" font-size="10.00" fill="#000000">type_traits</text>
</a>
</g>
</g>
<!-- Node1&#45;&gt;Node4 -->
<g id="edge4" class="edge">
<title>Node1&#45;&gt;Node4</title>
<path fill="none" stroke="#191970" d="M194.0803,-56.2455C202.0458,-48.1352 213.5641,-36.4075 223.0079,-26.7919"/>
<polygon fill="#191970" stroke="#191970" points="225.5195,-29.2297 230.0295,-19.6427 220.5253,-24.3247 225.5195,-29.2297"/>
</g>
<!-- Node5 -->
<g id="node6" class="node">
<title>Node5</title>
<g id="a_node6"><a xlink:title=" ">
<polygon fill="none" stroke="#bfbfbf" points="307.5,-.5 307.5,-19.5 421.5,-19.5 421.5,-.5 307.5,-.5"/>
<text text-anchor="middle" x="364.5" y="-7.5" font-family="Helvetica,sans-Serif" font-size="10.00" fill="#000000">unordered_map</text>
</a>
</g>
</g>
<!-- Node1&#45;&gt;Node5 -->
<g id="edge5" class="edge">
<title>Node1&#45;&gt;Node5</title>
<path fill="none" stroke="#191970" d="M215.4431,-56.3733C245.5039,-47.021 291.3026,-32.7725 324.1978,-22.5385"/>
<polygon fill="#191970" stroke="#191970" points="325.4519,-25.8139 333.9607,-19.5011 323.3723,-19.1299 325.4519,-25.8139"/>
</g>
</g>
</svg>
