<?xml version="1.0" encoding="UTF-8" standalone="no"?>
<!DOCTYPE svg PUBLIC "-//W3C//DTD SVG 1.1//EN"
 "http://www.w3.org/Graphics/SVG/1.1/DTD/svg11.dtd">
<!-- Generated by graphviz version 2.40.1 (0)
 -->
<!-- Title: config/config.cpp Pages: 1 -->
<svg width="657pt" height="140pt"
 viewBox="0.00 0.00 657.00 140.00" xmlns="http://www.w3.org/2000/svg" xmlns:xlink="http://www.w3.org/1999/xlink">
<g id="graph0" class="graph" transform="scale(1 1) rotate(0) translate(4 136)">
<title>config/config.cpp</title>
<!-- Node0 -->
<g id="node1" class="node">
<title>Node0</title>
<g id="a_node1"><a xlink:title=" ">
<polygon fill="#bfbfbf" stroke="#000000" points="290.5,-112.5 290.5,-131.5 434.5,-131.5 434.5,-112.5 290.5,-112.5"/>
<text text-anchor="middle" x="362.5" y="-119.5" font-family="Helvetica,sans-Serif" font-size="10.00" fill="#000000">config/config.cpp</text>
</a>
</g>
</g>
<!-- Node1 -->
<g id="node2" class="node">
<title>Node1</title>
<g id="a_node2"><a xlink:href="config_8h.html" target="_top" xlink:title=" ">
<polygon fill="none" stroke="#000000" points="175,-56.5 175,-75.5 304,-75.5 304,-56.5 175,-56.5"/>
<text text-anchor="middle" x="239.5" y="-63.5" font-family="Helvetica,sans-Serif" font-size="10.00" fill="#000000">config/config.h</text>
</a>
</g>
</g>
<!-- Node0&#45;&gt;Node1 -->
<g id="edge1" class="edge">
<title>Node0&#45;&gt;Node1</title>
<path fill="none" stroke="#191970" d="M341.3555,-112.3733C321.6108,-103.3838 291.9302,-89.8706 269.6945,-79.7471"/>
<polygon fill="#191970" stroke="#191970" points="270.92,-76.4594 260.3685,-75.5011 268.0194,-82.8302 270.92,-76.4594"/>
</g>
<!-- Node6 -->
<g id="node7" class="node">
<title>Node6</title>
<g id="a_node7"><a xlink:href="paths_8h.html" target="_top" xlink:title=" ">
<polygon fill="none" stroke="#000000" points="428.5,-56.5 428.5,-75.5 542.5,-75.5 542.5,-56.5 428.5,-56.5"/>
<text text-anchor="middle" x="485.5" y="-63.5" font-family="Helvetica,sans-Serif" font-size="10.00" fill="#000000">utils/paths.h</text>
</a>
</g>
</g>
<!-- Node0&#45;&gt;Node6 -->
<g id="edge6" class="edge">
<title>Node0&#45;&gt;Node6</title>
<path fill="none" stroke="#191970" d="M383.6445,-112.3733C403.3892,-103.3838 433.0698,-89.8706 455.3055,-79.7471"/>
<polygon fill="#191970" stroke="#191970" points="456.9806,-82.8302 464.6315,-75.5011 454.08,-76.4594 456.9806,-82.8302"/>
</g>
<!-- Node2 -->
<g id="node3" class="node">
<title>Node2</title>
<g id="a_node3"><a xlink:title=" ">
<polygon fill="none" stroke="#bfbfbf" points="0,-.5 0,-19.5 69,-19.5 69,-.5 0,-.5"/>
<text text-anchor="middle" x="34.5" y="-7.5" font-family="Helvetica,sans-Serif" font-size="10.00" fill="#000000">cstdlib</text>
</a>
</g>
</g>
<!-- Node1&#45;&gt;Node2 -->
<g id="edge2" class="edge">
<title>Node1&#45;&gt;Node2</title>
<path fill="none" stroke="#191970" d="M204.2592,-56.3733C169.5806,-46.9001 116.5117,-32.4032 78.9538,-22.1435"/>
<polygon fill="#191970" stroke="#191970" points="79.8498,-18.7601 69.2809,-19.5011 78.0051,-25.5126 79.8498,-18.7601"/>
</g>
<!-- Node3 -->
<g id="node4" class="node">
<title>Node3</title>
<g id="a_node4"><a xlink:title=" ">
<polygon fill="none" stroke="#bfbfbf" points="87.5,-.5 87.5,-19.5 171.5,-19.5 171.5,-.5 87.5,-.5"/>
<text text-anchor="middle" x="129.5" y="-7.5" font-family="Helvetica,sans-Serif" font-size="10.00" fill="#000000">stdexcept</text>
</a>
</g>
</g>
<!-- Node1&#45;&gt;Node3 -->
<g id="edge3" class="edge">
<title>Node1&#45;&gt;Node3</title>
<path fill="none" stroke="#191970" d="M220.3395,-56.2455C202.9889,-47.4125 177.2099,-34.2887 157.5417,-24.2758"/>
<polygon fill="#191970" stroke="#191970" points="158.9405,-21.0605 148.441,-19.6427 155.7647,-27.2986 158.9405,-21.0605"/>
</g>
<!-- Node4 -->
<g id="node5" class="node">
<title>Node4</title>
<g id="a_node5"><a xlink:title=" ">
<polygon fill="none" stroke="#bfbfbf" points="190,-.5 190,-19.5 289,-19.5 289,-.5 190,-.5"/>
<text text-anchor="middle" x="239.5" y="-7.5" font-family="Helvetica,sans-Serif" font-size="10.00" fill="#000000">type_traits</text>
</a>
</g>
</g>
<!-- Node1&#45;&gt;Node4 -->
<g id="edge4" class="edge">
<title>Node1&#45;&gt;Node4</title>
<path fill="none" stroke="#191970" d="M239.5,-56.2455C239.5,-48.9382 239.5,-38.6944 239.5,-29.7046"/>
<polygon fill="#191970" stroke="#191970" points="243.0001,-29.6426 239.5,-19.6427 236.0001,-29.6427 243.0001,-29.6426"/>
</g>
<!-- Node5 -->
<g id="node6" class="node">
<title>Node5</title>
<g id="a_node6"><a xlink:title=" ">
<polygon fill="none" stroke="#bfbfbf" points="307.5,-.5 307.5,-19.5 421.5,-19.5 421.5,-.5 307.5,-.5"/>
<text text-anchor="middle" x="364.5" y="-7.5" font-family="Helvetica,sans-Serif" font-size="10.00" fill="#000000">unordered_map</text>
</a>
</g>
</g>
<!-- Node1&#45;&gt;Node5 -->
<g id="edge5" class="edge">
<title>Node1&#45;&gt;Node5</title>
<path fill="none" stroke="#191970" d="M260.9883,-56.3733C281.144,-47.3435 311.488,-33.7494 334.118,-23.6111"/>
<polygon fill="#191970" stroke="#191970" points="335.5971,-26.7838 343.2921,-19.5011 332.7351,-20.3955 335.5971,-26.7838"/>
</g>
<!-- Node7 -->
<g id="node8" class="node">
<title>Node7</title>
<g id="a_node8"><a xlink:title=" ">
<polygon fill="none" stroke="#bfbfbf" points="439.5,-.5 439.5,-19.5 531.5,-19.5 531.5,-.5 439.5,-.5"/>
<text text-anchor="middle" x="485.5" y="-7.5" font-family="Helvetica,sans-Serif" font-size="10.00" fill="#000000">filesystem</text>
</a>
</g>
</g>
<!-- Node6&#45;&gt;Node7 -->
<g id="edge7" class="edge">
<title>Node6&#45;&gt;Node7</title>
<path fill="none" stroke="#191970" d="M485.5,-56.2455C485.5,-48.9382 485.5,-38.6944 485.5,-29.7046"/>
<polygon fill="#191970" stroke="#191970" points="489.0001,-29.6426 485.5,-19.6427 482.0001,-29.6427 489.0001,-29.6426"/>
</g>
<!-- Node8 -->
<g id="node9" class="node">
<title>Node8</title>
<g id="a_node9"><a xlink:title=" ">
<polygon fill="none" stroke="#bfbfbf" points="550,-.5 550,-19.5 649,-19.5 649,-.5 550,-.5"/>
<text text-anchor="middle" x="599.5" y="-7.5" font-family="Helvetica,sans-Serif" font-size="10.00" fill="#000000">string_view</text>
</a>
</g>
</g>
<!-- Node6&#45;&gt;Node8 -->
<g id="edge8" class="edge">
<title>Node6&#45;&gt;Node8</title>
<path fill="none" stroke="#191970" d="M505.0973,-56.3733C523.2331,-47.4644 550.4135,-34.1127 570.9587,-24.0203"/>
<polygon fill="#191970" stroke="#191970" points="572.7261,-27.0517 580.1584,-19.5011 569.6397,-20.7688 572.7261,-27.0517"/>
</g>
</g>
</svg>
