<?xml version="1.0" encoding="UTF-8" standalone="no"?>
<!DOCTYPE svg PUBLIC "-//W3C//DTD SVG 1.1//EN"
 "http://www.w3.org/Graphics/SVG/1.1/DTD/svg11.dtd">
<!-- Generated by graphviz version 2.40.1 (0)
 -->
<!-- Title: config/config.cpp Pages: 1 -->
<svg width="946pt" height="140pt"
 viewBox="0.00 0.00 945.50 140.00" xmlns="http://www.w3.org/2000/svg" xmlns:xlink="http://www.w3.org/1999/xlink">
<g id="graph0" class="graph" transform="scale(1 1) rotate(0) translate(4 136)">
<title>config/config.cpp</title>
<!-- Node0 -->
<g id="node1" class="node">
<title>Node0</title>
<g id="a_node1"><a xlink:title=" ">
<polygon fill="#bfbfbf" stroke="#000000" points="596.5,-112.5 596.5,-131.5 740.5,-131.5 740.5,-112.5 596.5,-112.5"/>
<text text-anchor="middle" x="668.5" y="-119.5" font-family="Helvetica,sans-Serif" font-size="10.00" fill="#000000">config/config.cpp</text>
</a>
</g>
</g>
<!-- Node1 -->
<g id="node2" class="node">
<title>Node1</title>
<g id="a_node2"><a xlink:href="config_8h.html" target="_top" xlink:title=" ">
<polygon fill="none" stroke="#000000" points="236,-56.5 236,-75.5 365,-75.5 365,-56.5 236,-56.5"/>
<text text-anchor="middle" x="300.5" y="-63.5" font-family="Helvetica,sans-Serif" font-size="10.00" fill="#000000">config/config.h</text>
</a>
</g>
</g>
<!-- Node0&#45;&gt;Node1 -->
<g id="edge1" class="edge">
<title>Node0&#45;&gt;Node1</title>
<path fill="none" stroke="#191970" d="M605.6567,-112.4369C541.2209,-102.6314 441.1002,-87.3957 373.2664,-77.0731"/>
<polygon fill="#191970" stroke="#191970" points="373.4969,-73.568 363.0841,-75.5237 372.4437,-80.4883 373.4969,-73.568"/>
</g>
<!-- Node7 -->
<g id="node8" class="node">
<title>Node7</title>
<g id="a_node8"><a xlink:title=" ">
<polygon fill="none" stroke="#bfbfbf" points="428,-56.5 428,-75.5 535,-75.5 535,-56.5 428,-56.5"/>
<text text-anchor="middle" x="481.5" y="-63.5" font-family="Helvetica,sans-Serif" font-size="10.00" fill="#000000">fmt/printf.h</text>
</a>
</g>
</g>
<!-- Node0&#45;&gt;Node7 -->
<g id="edge7" class="edge">
<title>Node0&#45;&gt;Node7</title>
<path fill="none" stroke="#191970" d="M636.3536,-112.3733C604.9891,-102.9807 557.1335,-88.6496 522.9284,-78.4064"/>
<polygon fill="#191970" stroke="#191970" points="523.8107,-75.0171 513.227,-75.5011 521.8025,-81.7229 523.8107,-75.0171"/>
</g>
<!-- Node8 -->
<g id="node9" class="node">
<title>Node8</title>
<g id="a_node9"><a xlink:href="paths_8h.html" target="_top" xlink:title=" ">
<polygon fill="none" stroke="#000000" points="553.5,-56.5 553.5,-75.5 667.5,-75.5 667.5,-56.5 553.5,-56.5"/>
<text text-anchor="middle" x="610.5" y="-63.5" font-family="Helvetica,sans-Serif" font-size="10.00" fill="#000000">utils/paths.h</text>
</a>
</g>
</g>
<!-- Node0&#45;&gt;Node8 -->
<g id="edge8" class="edge">
<title>Node0&#45;&gt;Node8</title>
<path fill="none" stroke="#191970" d="M658.3972,-112.2455C649.9972,-104.1352 637.8506,-92.4075 627.8916,-82.7919"/>
<polygon fill="#191970" stroke="#191970" points="630.1122,-80.0707 620.4871,-75.6427 625.25,-85.1066 630.1122,-80.0707"/>
</g>
<!-- Node11 -->
<g id="node12" class="node">
<title>Node11</title>
<g id="a_node12"><a xlink:title=" ">
<polygon fill="none" stroke="#bfbfbf" points="685.5,-56.5 685.5,-75.5 769.5,-75.5 769.5,-56.5 685.5,-56.5"/>
<text text-anchor="middle" x="727.5" y="-63.5" font-family="Helvetica,sans-Serif" font-size="10.00" fill="#000000">algorithm</text>
</a>
</g>
</g>
<!-- Node0&#45;&gt;Node11 -->
<g id="edge11" class="edge">
<title>Node0&#45;&gt;Node11</title>
<path fill="none" stroke="#191970" d="M678.777,-112.2455C687.3218,-104.1352 699.6778,-92.4075 709.8085,-82.7919"/>
<polygon fill="#191970" stroke="#191970" points="712.4972,-85.0655 717.3408,-75.6427 707.6782,-79.9884 712.4972,-85.0655"/>
</g>
<!-- Node12 -->
<g id="node13" class="node">
<title>Node12</title>
<g id="a_node13"><a xlink:title=" ">
<polygon fill="none" stroke="#bfbfbf" points="788,-56.5 788,-75.5 857,-75.5 857,-56.5 788,-56.5"/>
<text text-anchor="middle" x="822.5" y="-63.5" font-family="Helvetica,sans-Serif" font-size="10.00" fill="#000000">fstream</text>
</a>
</g>
</g>
<!-- Node0&#45;&gt;Node12 -->
<g id="edge12" class="edge">
<title>Node0&#45;&gt;Node12</title>
<path fill="none" stroke="#191970" d="M694.9735,-112.3733C720.3597,-103.1419 758.8645,-89.1402 786.922,-78.9375"/>
<polygon fill="#191970" stroke="#191970" points="788.1701,-82.2079 796.3719,-75.5011 785.7778,-75.6293 788.1701,-82.2079"/>
</g>
<!-- Node13 -->
<g id="node14" class="node">
<title>Node13</title>
<g id="a_node14"><a xlink:title=" ">
<polygon fill="none" stroke="#bfbfbf" points="875.5,-56.5 875.5,-75.5 937.5,-75.5 937.5,-56.5 875.5,-56.5"/>
<text text-anchor="middle" x="906.5" y="-63.5" font-family="Helvetica,sans-Serif" font-size="10.00" fill="#000000">vector</text>
</a>
</g>
</g>
<!-- Node0&#45;&gt;Node13 -->
<g id="edge13" class="edge">
<title>Node0&#45;&gt;Node13</title>
<path fill="none" stroke="#191970" d="M710.6495,-112.4223C748.6514,-103.739 806.3268,-90.442 865.2246,-76.2825"/>
<polygon fill="#191970" stroke="#191970" points="866.1675,-79.6555 875.0693,-73.9103 864.5276,-72.8503 866.1675,-79.6555"/>
</g>
<!-- Node2 -->
<g id="node3" class="node">
<title>Node2</title>
<g id="a_node3"><a xlink:title=" ">
<polygon fill="none" stroke="#bfbfbf" points="0,-.5 0,-19.5 107,-19.5 107,-.5 0,-.5"/>
<text text-anchor="middle" x="53.5" y="-7.5" font-family="Helvetica,sans-Serif" font-size="10.00" fill="#000000">fmt/format.h</text>
</a>
</g>
</g>
<!-- Node1&#45;&gt;Node2 -->
<g id="edge2" class="edge">
<title>Node1&#45;&gt;Node2</title>
<path fill="none" stroke="#191970" d="M258.3198,-56.4369C216.0477,-46.8529 150.8938,-32.0812 105.4583,-21.78"/>
<polygon fill="#191970" stroke="#191970" points="106.0326,-18.3215 95.5062,-19.5237 104.4848,-25.1482 106.0326,-18.3215"/>
</g>
<!-- Node3 -->
<g id="node4" class="node">
<title>Node3</title>
<g id="a_node4"><a xlink:title=" ">
<polygon fill="none" stroke="#bfbfbf" points="125,-.5 125,-19.5 194,-19.5 194,-.5 125,-.5"/>
<text text-anchor="middle" x="159.5" y="-7.5" font-family="Helvetica,sans-Serif" font-size="10.00" fill="#000000">cstdlib</text>
</a>
</g>
</g>
<!-- Node1&#45;&gt;Node3 -->
<g id="edge3" class="edge">
<title>Node1&#45;&gt;Node3</title>
<path fill="none" stroke="#191970" d="M276.2612,-56.3733C253.2211,-47.2226 218.3786,-33.3844 192.7499,-23.2057"/>
<polygon fill="#191970" stroke="#191970" points="194.0082,-19.9395 183.4225,-19.5011 191.4244,-26.4452 194.0082,-19.9395"/>
</g>
<!-- Node4 -->
<g id="node5" class="node">
<title>Node4</title>
<g id="a_node5"><a xlink:title=" ">
<polygon fill="none" stroke="#bfbfbf" points="212.5,-.5 212.5,-19.5 296.5,-19.5 296.5,-.5 212.5,-.5"/>
<text text-anchor="middle" x="254.5" y="-7.5" font-family="Helvetica,sans-Serif" font-size="10.00" fill="#000000">stdexcept</text>
</a>
</g>
</g>
<!-- Node1&#45;&gt;Node4 -->
<g id="edge4" class="edge">
<title>Node1&#45;&gt;Node4</title>
<path fill="none" stroke="#191970" d="M292.4874,-56.2455C286.0232,-48.3761 276.7615,-37.101 269.0017,-27.6542"/>
<polygon fill="#191970" stroke="#191970" points="271.4727,-25.1484 262.4208,-19.6427 266.0636,-29.5916 271.4727,-25.1484"/>
</g>
<!-- Node5 -->
<g id="node6" class="node">
<title>Node5</title>
<g id="a_node6"><a xlink:title=" ">
<polygon fill="none" stroke="#bfbfbf" points="315,-.5 315,-19.5 414,-19.5 414,-.5 315,-.5"/>
<text text-anchor="middle" x="364.5" y="-7.5" font-family="Helvetica,sans-Serif" font-size="10.00" fill="#000000">type_traits</text>
</a>
</g>
</g>
<!-- Node1&#45;&gt;Node5 -->
<g id="edge5" class="edge">
<title>Node1&#45;&gt;Node5</title>
<path fill="none" stroke="#191970" d="M311.6479,-56.2455C321.0087,-48.0549 334.5858,-36.1749 345.6349,-26.5069"/>
<polygon fill="#191970" stroke="#191970" points="348.2588,-28.8618 353.4798,-19.6427 343.6492,-23.5937 348.2588,-28.8618"/>
</g>
<!-- Node6 -->
<g id="node7" class="node">
<title>Node6</title>
<g id="a_node7"><a xlink:title=" ">
<polygon fill="none" stroke="#bfbfbf" points="432.5,-.5 432.5,-19.5 546.5,-19.5 546.5,-.5 432.5,-.5"/>
<text text-anchor="middle" x="489.5" y="-7.5" font-family="Helvetica,sans-Serif" font-size="10.00" fill="#000000">unordered_map</text>
</a>
</g>
</g>
<!-- Node1&#45;&gt;Node6 -->
<g id="edge6" class="edge">
<title>Node1&#45;&gt;Node6</title>
<path fill="none" stroke="#191970" d="M332.9903,-56.3733C364.6902,-46.9807 413.0576,-32.6496 447.6286,-22.4064"/>
<polygon fill="#191970" stroke="#191970" points="448.8401,-25.6979 457.4337,-19.5011 446.8514,-18.9863 448.8401,-25.6979"/>
</g>
<!-- Node9 -->
<g id="node10" class="node">
<title>Node9</title>
<g id="a_node10"><a xlink:title=" ">
<polygon fill="none" stroke="#bfbfbf" points="564.5,-.5 564.5,-19.5 656.5,-19.5 656.5,-.5 564.5,-.5"/>
<text text-anchor="middle" x="610.5" y="-7.5" font-family="Helvetica,sans-Serif" font-size="10.00" fill="#000000">filesystem</text>
</a>
</g>
</g>
<!-- Node8&#45;&gt;Node9 -->
<g id="edge9" class="edge">
<title>Node8&#45;&gt;Node9</title>
<path fill="none" stroke="#191970" d="M610.5,-56.2455C610.5,-48.9382 610.5,-38.6944 610.5,-29.7046"/>
<polygon fill="#191970" stroke="#191970" points="614.0001,-29.6426 610.5,-19.6427 607.0001,-29.6427 614.0001,-29.6426"/>
</g>
<!-- Node10 -->
<g id="node11" class="node">
<title>Node10</title>
<g id="a_node11"><a xlink:title=" ">
<polygon fill="none" stroke="#bfbfbf" points="675,-.5 675,-19.5 774,-19.5 774,-.5 675,-.5"/>
<text text-anchor="middle" x="724.5" y="-7.5" font-family="Helvetica,sans-Serif" font-size="10.00" fill="#000000">string_view</text>
</a>
</g>
</g>
<!-- Node8&#45;&gt;Node10 -->
<g id="edge10" class="edge">
<title>Node8&#45;&gt;Node10</title>
<path fill="none" stroke="#191970" d="M630.0973,-56.3733C648.2331,-47.4644 675.4135,-34.1127 695.9587,-24.0203"/>
<polygon fill="#191970" stroke="#191970" points="697.7261,-27.0517 705.1584,-19.5011 694.6397,-20.7688 697.7261,-27.0517"/>
</g>
</g>
</svg>
