<?xml version="1.0" encoding="UTF-8" standalone="no"?>
<!DOCTYPE svg PUBLIC "-//W3C//DTD SVG 1.1//EN"
 "http://www.w3.org/Graphics/SVG/1.1/DTD/svg11.dtd">
<!-- Generated by graphviz version 2.40.1 (0)
 -->
<!-- Title: config/include/config/config.h Pages: 1 -->
<svg width="430pt" height="95pt"
 viewBox="0.00 0.00 429.50 95.00" xmlns="http://www.w3.org/2000/svg" xmlns:xlink="http://www.w3.org/1999/xlink">
<g id="graph0" class="graph" transform="scale(1 1) rotate(0) translate(4 91)">
<title>config/include/config/config.h</title>
<!-- Node0 -->
<g id="node1" class="node">
<title>Node0</title>
<g id="a_node1"><a xlink:title=" ">
<polygon fill="#bfbfbf" stroke="#000000" points="97.5,-56.5 97.5,-86.5 271.5,-86.5 271.5,-56.5 97.5,-56.5"/>
<text text-anchor="start" x="105.5" y="-74.5" font-family="Helvetica,sans-Serif" font-size="10.00" fill="#000000">config/include/config</text>
<text text-anchor="middle" x="184.5" y="-63.5" font-family="Helvetica,sans-Serif" font-size="10.00" fill="#000000">/config.h</text>
</a>
</g>
</g>
<!-- Node1 -->
<g id="node2" class="node">
<title>Node1</title>
<g id="a_node2"><a xlink:title=" ">
<polygon fill="none" stroke="#bfbfbf" points="0,-.5 0,-19.5 69,-19.5 69,-.5 0,-.5"/>
<text text-anchor="middle" x="34.5" y="-7.5" font-family="Helvetica,sans-Serif" font-size="10.00" fill="#000000">cstdlib</text>
</a>
</g>
</g>
<!-- Node0&#45;&gt;Node1 -->
<g id="edge1" class="edge">
<title>Node0&#45;&gt;Node1</title>
<path fill="none" stroke="#191970" d="M147.8059,-56.4554C123.1073,-46.329 90.8326,-33.0964 67.0494,-23.3453"/>
<polygon fill="#191970" stroke="#191970" points="68.325,-20.0855 57.7447,-19.5303 65.6694,-26.5623 68.325,-20.0855"/>
</g>
<!-- Node2 -->
<g id="node3" class="node">
<title>Node2</title>
<g id="a_node3"><a xlink:title=" ">
<polygon fill="none" stroke="#bfbfbf" points="87.5,-.5 87.5,-19.5 171.5,-19.5 171.5,-.5 87.5,-.5"/>
<text text-anchor="middle" x="129.5" y="-7.5" font-family="Helvetica,sans-Serif" font-size="10.00" fill="#000000">stdexcept</text>
</a>
</g>
</g>
<!-- Node0&#45;&gt;Node2 -->
<g id="edge2" class="edge">
<title>Node0&#45;&gt;Node2</title>
<path fill="none" stroke="#191970" d="M170.9045,-56.2977C163.1109,-47.5831 153.2953,-36.6075 145.1774,-27.5302"/>
<polygon fill="#191970" stroke="#191970" points="147.5813,-24.9678 138.3062,-19.8469 142.3635,-29.6341 147.5813,-24.9678"/>
</g>
<!-- Node3 -->
<g id="node4" class="node">
<title>Node3</title>
<g id="a_node4"><a xlink:title=" ">
<polygon fill="none" stroke="#bfbfbf" points="190,-.5 190,-19.5 289,-19.5 289,-.5 190,-.5"/>
<text text-anchor="middle" x="239.5" y="-7.5" font-family="Helvetica,sans-Serif" font-size="10.00" fill="#000000">type_traits</text>
</a>
</g>
</g>
<!-- Node0&#45;&gt;Node3 -->
<g id="edge3" class="edge">
<title>Node0&#45;&gt;Node3</title>
<path fill="none" stroke="#191970" d="M198.0955,-56.2977C205.8891,-47.5831 215.7047,-36.6075 223.8226,-27.5302"/>
<polygon fill="#191970" stroke="#191970" points="226.6365,-29.6341 230.6938,-19.8469 221.4187,-24.9678 226.6365,-29.6341"/>
</g>
<!-- Node4 -->
<g id="node5" class="node">
<title>Node4</title>
<g id="a_node5"><a xlink:title=" ">
<polygon fill="none" stroke="#bfbfbf" points="307.5,-.5 307.5,-19.5 421.5,-19.5 421.5,-.5 307.5,-.5"/>
<text text-anchor="middle" x="364.5" y="-7.5" font-family="Helvetica,sans-Serif" font-size="10.00" fill="#000000">unordered_map</text>
</a>
</g>
</g>
<!-- Node0&#45;&gt;Node4 -->
<g id="edge4" class="edge">
<title>Node0&#45;&gt;Node4</title>
<path fill="none" stroke="#191970" d="M228.533,-56.4554C258.6981,-46.149 298.2808,-32.6249 326.953,-22.8286"/>
<polygon fill="#191970" stroke="#191970" points="328.2751,-26.0756 336.6064,-19.5303 326.0118,-19.4515 328.2751,-26.0756"/>
</g>
</g>
</svg>
