<?xml version="1.0" encoding="UTF-8" standalone="no"?>
<!DOCTYPE svg PUBLIC "-//W3C//DTD SVG 1.1//EN"
 "http://www.w3.org/Graphics/SVG/1.1/DTD/svg11.dtd">
<!-- Generated by graphviz version 2.40.1 (0)
 -->
<!-- Title: config/config.cpp Pages: 1 -->
<svg width="828pt" height="140pt"
 viewBox="0.00 0.00 827.50 140.00" xmlns="http://www.w3.org/2000/svg" xmlns:xlink="http://www.w3.org/1999/xlink">
<g id="graph0" class="graph" transform="scale(1 1) rotate(0) translate(4 136)">
<title>config/config.cpp</title>
<!-- Node0 -->
<g id="node1" class="node">
<title>Node0</title>
<g id="a_node1"><a xlink:title=" ">
<polygon fill="#bfbfbf" stroke="#000000" points="538.5,-112.5 538.5,-131.5 682.5,-131.5 682.5,-112.5 538.5,-112.5"/>
<text text-anchor="middle" x="610.5" y="-119.5" font-family="Helvetica,sans-Serif" font-size="10.00" fill="#000000">config/config.cpp</text>
</a>
</g>
</g>
<!-- Node1 -->
<g id="node2" class="node">
<title>Node1</title>
<g id="a_node2"><a xlink:href="config_8h.html" target="_top" xlink:title=" ">
<polygon fill="none" stroke="#000000" points="236,-56.5 236,-75.5 365,-75.5 365,-56.5 236,-56.5"/>
<text text-anchor="middle" x="300.5" y="-63.5" font-family="Helvetica,sans-Serif" font-size="10.00" fill="#000000">config/config.h</text>
</a>
</g>
</g>
<!-- Node0&#45;&gt;Node1 -->
<g id="edge1" class="edge">
<title>Node0&#45;&gt;Node1</title>
<path fill="none" stroke="#191970" d="M557.5613,-112.4369C503.727,-102.712 420.3239,-87.6456 363.2113,-77.3285"/>
<polygon fill="#191970" stroke="#191970" points="363.6833,-73.8572 353.2203,-75.5237 362.4388,-80.7457 363.6833,-73.8572"/>
</g>
<!-- Node7 -->
<g id="node8" class="node">
<title>Node7</title>
<g id="a_node8"><a xlink:title=" ">
<polygon fill="none" stroke="#bfbfbf" points="428,-56.5 428,-75.5 535,-75.5 535,-56.5 428,-56.5"/>
<text text-anchor="middle" x="481.5" y="-63.5" font-family="Helvetica,sans-Serif" font-size="10.00" fill="#000000">fmt/printf.h</text>
</a>
</g>
</g>
<!-- Node0&#45;&gt;Node7 -->
<g id="edge7" class="edge">
<title>Node0&#45;&gt;Node7</title>
<path fill="none" stroke="#191970" d="M588.3241,-112.3733C567.5234,-103.3435 536.2083,-89.7494 512.8542,-79.6111"/>
<polygon fill="#191970" stroke="#191970" points="513.9532,-76.2727 503.3865,-75.5011 511.1657,-82.6938 513.9532,-76.2727"/>
</g>
<!-- Node8 -->
<g id="node9" class="node">
<title>Node8</title>
<g id="a_node9"><a xlink:href="paths_8h.html" target="_top" xlink:title=" ">
<polygon fill="none" stroke="#000000" points="553.5,-56.5 553.5,-75.5 667.5,-75.5 667.5,-56.5 553.5,-56.5"/>
<text text-anchor="middle" x="610.5" y="-63.5" font-family="Helvetica,sans-Serif" font-size="10.00" fill="#000000">utils/paths.h</text>
</a>
</g>
</g>
<!-- Node0&#45;&gt;Node8 -->
<g id="edge8" class="edge">
<title>Node0&#45;&gt;Node8</title>
<path fill="none" stroke="#191970" d="M610.5,-112.2455C610.5,-104.9382 610.5,-94.6944 610.5,-85.7046"/>
<polygon fill="#191970" stroke="#191970" points="614.0001,-85.6426 610.5,-75.6427 607.0001,-85.6427 614.0001,-85.6426"/>
</g>
<!-- Node11 -->
<g id="node12" class="node">
<title>Node11</title>
<g id="a_node12"><a xlink:title=" ">
<polygon fill="none" stroke="#bfbfbf" points="685.5,-56.5 685.5,-75.5 739.5,-75.5 739.5,-56.5 685.5,-56.5"/>
<text text-anchor="middle" x="712.5" y="-63.5" font-family="Helvetica,sans-Serif" font-size="10.00" fill="#000000">stack</text>
</a>
</g>
</g>
<!-- Node0&#45;&gt;Node11 -->
<g id="edge11" class="edge">
<title>Node0&#45;&gt;Node11</title>
<path fill="none" stroke="#191970" d="M628.267,-112.2455C644.2095,-103.4928 667.8259,-90.527 685.9989,-80.5496"/>
<polygon fill="#191970" stroke="#191970" points="687.8552,-83.5233 694.9366,-75.6427 684.4863,-77.3873 687.8552,-83.5233"/>
</g>
<!-- Node12 -->
<g id="node13" class="node">
<title>Node12</title>
<g id="a_node13"><a xlink:title=" ">
<polygon fill="none" stroke="#bfbfbf" points="757.5,-56.5 757.5,-75.5 819.5,-75.5 819.5,-56.5 757.5,-56.5"/>
<text text-anchor="middle" x="788.5" y="-63.5" font-family="Helvetica,sans-Serif" font-size="10.00" fill="#000000">vector</text>
</a>
</g>
</g>
<!-- Node0&#45;&gt;Node12 -->
<g id="edge12" class="edge">
<title>Node0&#45;&gt;Node12</title>
<path fill="none" stroke="#191970" d="M641.0993,-112.3733C670.8261,-103.021 716.1159,-88.7725 748.6456,-78.5385"/>
<polygon fill="#191970" stroke="#191970" points="749.8113,-81.8409 758.3,-75.5011 747.7105,-75.1636 749.8113,-81.8409"/>
</g>
<!-- Node2 -->
<g id="node3" class="node">
<title>Node2</title>
<g id="a_node3"><a xlink:title=" ">
<polygon fill="none" stroke="#bfbfbf" points="0,-.5 0,-19.5 107,-19.5 107,-.5 0,-.5"/>
<text text-anchor="middle" x="53.5" y="-7.5" font-family="Helvetica,sans-Serif" font-size="10.00" fill="#000000">fmt/format.h</text>
</a>
</g>
</g>
<!-- Node1&#45;&gt;Node2 -->
<g id="edge2" class="edge">
<title>Node1&#45;&gt;Node2</title>
<path fill="none" stroke="#191970" d="M258.3198,-56.4369C216.0477,-46.8529 150.8938,-32.0812 105.4583,-21.78"/>
<polygon fill="#191970" stroke="#191970" points="106.0326,-18.3215 95.5062,-19.5237 104.4848,-25.1482 106.0326,-18.3215"/>
</g>
<!-- Node3 -->
<g id="node4" class="node">
<title>Node3</title>
<g id="a_node4"><a xlink:title=" ">
<polygon fill="none" stroke="#bfbfbf" points="125,-.5 125,-19.5 194,-19.5 194,-.5 125,-.5"/>
<text text-anchor="middle" x="159.5" y="-7.5" font-family="Helvetica,sans-Serif" font-size="10.00" fill="#000000">cstdlib</text>
</a>
</g>
</g>
<!-- Node1&#45;&gt;Node3 -->
<g id="edge3" class="edge">
<title>Node1&#45;&gt;Node3</title>
<path fill="none" stroke="#191970" d="M276.2612,-56.3733C253.2211,-47.2226 218.3786,-33.3844 192.7499,-23.2057"/>
<polygon fill="#191970" stroke="#191970" points="194.0082,-19.9395 183.4225,-19.5011 191.4244,-26.4452 194.0082,-19.9395"/>
</g>
<!-- Node4 -->
<g id="node5" class="node">
<title>Node4</title>
<g id="a_node5"><a xlink:title=" ">
<polygon fill="none" stroke="#bfbfbf" points="212.5,-.5 212.5,-19.5 296.5,-19.5 296.5,-.5 212.5,-.5"/>
<text text-anchor="middle" x="254.5" y="-7.5" font-family="Helvetica,sans-Serif" font-size="10.00" fill="#000000">stdexcept</text>
</a>
</g>
</g>
<!-- Node1&#45;&gt;Node4 -->
<g id="edge4" class="edge">
<title>Node1&#45;&gt;Node4</title>
<path fill="none" stroke="#191970" d="M292.4874,-56.2455C286.0232,-48.3761 276.7615,-37.101 269.0017,-27.6542"/>
<polygon fill="#191970" stroke="#191970" points="271.4727,-25.1484 262.4208,-19.6427 266.0636,-29.5916 271.4727,-25.1484"/>
</g>
<!-- Node5 -->
<g id="node6" class="node">
<title>Node5</title>
<g id="a_node6"><a xlink:title=" ">
<polygon fill="none" stroke="#bfbfbf" points="315,-.5 315,-19.5 414,-19.5 414,-.5 315,-.5"/>
<text text-anchor="middle" x="364.5" y="-7.5" font-family="Helvetica,sans-Serif" font-size="10.00" fill="#000000">type_traits</text>
</a>
</g>
</g>
<!-- Node1&#45;&gt;Node5 -->
<g id="edge5" class="edge">
<title>Node1&#45;&gt;Node5</title>
<path fill="none" stroke="#191970" d="M311.6479,-56.2455C321.0087,-48.0549 334.5858,-36.1749 345.6349,-26.5069"/>
<polygon fill="#191970" stroke="#191970" points="348.2588,-28.8618 353.4798,-19.6427 343.6492,-23.5937 348.2588,-28.8618"/>
</g>
<!-- Node6 -->
<g id="node7" class="node">
<title>Node6</title>
<g id="a_node7"><a xlink:title=" ">
<polygon fill="none" stroke="#bfbfbf" points="432.5,-.5 432.5,-19.5 546.5,-19.5 546.5,-.5 432.5,-.5"/>
<text text-anchor="middle" x="489.5" y="-7.5" font-family="Helvetica,sans-Serif" font-size="10.00" fill="#000000">unordered_map</text>
</a>
</g>
</g>
<!-- Node1&#45;&gt;Node6 -->
<g id="edge6" class="edge">
<title>Node1&#45;&gt;Node6</title>
<path fill="none" stroke="#191970" d="M332.9903,-56.3733C364.6902,-46.9807 413.0576,-32.6496 447.6286,-22.4064"/>
<polygon fill="#191970" stroke="#191970" points="448.8401,-25.6979 457.4337,-19.5011 446.8514,-18.9863 448.8401,-25.6979"/>
</g>
<!-- Node9 -->
<g id="node10" class="node">
<title>Node9</title>
<g id="a_node10"><a xlink:title=" ">
<polygon fill="none" stroke="#bfbfbf" points="564.5,-.5 564.5,-19.5 656.5,-19.5 656.5,-.5 564.5,-.5"/>
<text text-anchor="middle" x="610.5" y="-7.5" font-family="Helvetica,sans-Serif" font-size="10.00" fill="#000000">filesystem</text>
</a>
</g>
</g>
<!-- Node8&#45;&gt;Node9 -->
<g id="edge9" class="edge">
<title>Node8&#45;&gt;Node9</title>
<path fill="none" stroke="#191970" d="M610.5,-56.2455C610.5,-48.9382 610.5,-38.6944 610.5,-29.7046"/>
<polygon fill="#191970" stroke="#191970" points="614.0001,-29.6426 610.5,-19.6427 607.0001,-29.6427 614.0001,-29.6426"/>
</g>
<!-- Node10 -->
<g id="node11" class="node">
<title>Node10</title>
<g id="a_node11"><a xlink:title=" ">
<polygon fill="none" stroke="#bfbfbf" points="675,-.5 675,-19.5 774,-19.5 774,-.5 675,-.5"/>
<text text-anchor="middle" x="724.5" y="-7.5" font-family="Helvetica,sans-Serif" font-size="10.00" fill="#000000">string_view</text>
</a>
</g>
</g>
<!-- Node8&#45;&gt;Node10 -->
<g id="edge10" class="edge">
<title>Node8&#45;&gt;Node10</title>
<path fill="none" stroke="#191970" d="M630.0973,-56.3733C648.2331,-47.4644 675.4135,-34.1127 695.9587,-24.0203"/>
<polygon fill="#191970" stroke="#191970" points="697.7261,-27.0517 705.1584,-19.5011 694.6397,-20.7688 697.7261,-27.0517"/>
</g>
</g>
</svg>
