<?xml version="1.0" encoding="UTF-8" standalone="no"?>
<!DOCTYPE svg PUBLIC "-//W3C//DTD SVG 1.1//EN"
 "http://www.w3.org/Graphics/SVG/1.1/DTD/svg11.dtd">
<!-- Generated by graphviz version 2.40.1 (0)
 -->
<!-- Title: config/config.cpp Pages: 1 -->
<svg width="717pt" height="140pt"
 viewBox="0.00 0.00 716.50 140.00" xmlns="http://www.w3.org/2000/svg" xmlns:xlink="http://www.w3.org/1999/xlink">
<g id="graph0" class="graph" transform="scale(1 1) rotate(0) translate(4 136)">
<title>config/config.cpp</title>
<!-- Node0 -->
<g id="node1" class="node">
<title>Node0</title>
<g id="a_node1"><a xlink:title=" ">
<polygon fill="#bfbfbf" stroke="#000000" points="427.5,-112.5 427.5,-131.5 571.5,-131.5 571.5,-112.5 427.5,-112.5"/>
<text text-anchor="middle" x="499.5" y="-119.5" font-family="Helvetica,sans-Serif" font-size="10.00" fill="#000000">config/config.cpp</text>
</a>
</g>
</g>
<!-- Node1 -->
<g id="node2" class="node">
<title>Node1</title>
<g id="a_node2"><a xlink:href="config_8h.html" target="_top" xlink:title=" ">
<polygon fill="none" stroke="#000000" points="170,-56.5 170,-75.5 299,-75.5 299,-56.5 170,-56.5"/>
<text text-anchor="middle" x="234.5" y="-63.5" font-family="Helvetica,sans-Serif" font-size="10.00" fill="#000000">config/config.h</text>
</a>
</g>
</g>
<!-- Node0&#45;&gt;Node1 -->
<g id="edge1" class="edge">
<title>Node0&#45;&gt;Node1</title>
<path fill="none" stroke="#191970" d="M454.246,-112.4369C408.7027,-102.8127 338.4035,-87.957 289.6314,-77.6504"/>
<polygon fill="#191970" stroke="#191970" points="290.075,-74.1669 279.5674,-75.5237 288.6276,-81.0157 290.075,-74.1669"/>
</g>
<!-- Node6 -->
<g id="node7" class="node">
<title>Node6</title>
<g id="a_node7"><a xlink:title=" ">
<polygon fill="none" stroke="#bfbfbf" points="317,-56.5 317,-75.5 424,-75.5 424,-56.5 317,-56.5"/>
<text text-anchor="middle" x="370.5" y="-63.5" font-family="Helvetica,sans-Serif" font-size="10.00" fill="#000000">fmt/printf.h</text>
</a>
</g>
</g>
<!-- Node0&#45;&gt;Node6 -->
<g id="edge6" class="edge">
<title>Node0&#45;&gt;Node6</title>
<path fill="none" stroke="#191970" d="M477.3241,-112.3733C456.5234,-103.3435 425.2083,-89.7494 401.8542,-79.6111"/>
<polygon fill="#191970" stroke="#191970" points="402.9532,-76.2727 392.3865,-75.5011 400.1657,-82.6938 402.9532,-76.2727"/>
</g>
<!-- Node7 -->
<g id="node8" class="node">
<title>Node7</title>
<g id="a_node8"><a xlink:href="paths_8h.html" target="_top" xlink:title=" ">
<polygon fill="none" stroke="#000000" points="442.5,-56.5 442.5,-75.5 556.5,-75.5 556.5,-56.5 442.5,-56.5"/>
<text text-anchor="middle" x="499.5" y="-63.5" font-family="Helvetica,sans-Serif" font-size="10.00" fill="#000000">utils/paths.h</text>
</a>
</g>
</g>
<!-- Node0&#45;&gt;Node7 -->
<g id="edge7" class="edge">
<title>Node0&#45;&gt;Node7</title>
<path fill="none" stroke="#191970" d="M499.5,-112.2455C499.5,-104.9382 499.5,-94.6944 499.5,-85.7046"/>
<polygon fill="#191970" stroke="#191970" points="503.0001,-85.6426 499.5,-75.6427 496.0001,-85.6427 503.0001,-85.6426"/>
</g>
<!-- Node10 -->
<g id="node11" class="node">
<title>Node10</title>
<g id="a_node11"><a xlink:title=" ">
<polygon fill="none" stroke="#bfbfbf" points="574.5,-56.5 574.5,-75.5 628.5,-75.5 628.5,-56.5 574.5,-56.5"/>
<text text-anchor="middle" x="601.5" y="-63.5" font-family="Helvetica,sans-Serif" font-size="10.00" fill="#000000">stack</text>
</a>
</g>
</g>
<!-- Node0&#45;&gt;Node10 -->
<g id="edge10" class="edge">
<title>Node0&#45;&gt;Node10</title>
<path fill="none" stroke="#191970" d="M517.267,-112.2455C533.2095,-103.4928 556.8259,-90.527 574.9989,-80.5496"/>
<polygon fill="#191970" stroke="#191970" points="576.8552,-83.5233 583.9366,-75.6427 573.4863,-77.3873 576.8552,-83.5233"/>
</g>
<!-- Node11 -->
<g id="node12" class="node">
<title>Node11</title>
<g id="a_node12"><a xlink:title=" ">
<polygon fill="none" stroke="#bfbfbf" points="646.5,-56.5 646.5,-75.5 708.5,-75.5 708.5,-56.5 646.5,-56.5"/>
<text text-anchor="middle" x="677.5" y="-63.5" font-family="Helvetica,sans-Serif" font-size="10.00" fill="#000000">vector</text>
</a>
</g>
</g>
<!-- Node0&#45;&gt;Node11 -->
<g id="edge11" class="edge">
<title>Node0&#45;&gt;Node11</title>
<path fill="none" stroke="#191970" d="M530.0993,-112.3733C559.8261,-103.021 605.1159,-88.7725 637.6456,-78.5385"/>
<polygon fill="#191970" stroke="#191970" points="638.8113,-81.8409 647.3,-75.5011 636.7105,-75.1636 638.8113,-81.8409"/>
</g>
<!-- Node2 -->
<g id="node3" class="node">
<title>Node2</title>
<g id="a_node3"><a xlink:title=" ">
<polygon fill="none" stroke="#bfbfbf" points="0,-.5 0,-19.5 69,-19.5 69,-.5 0,-.5"/>
<text text-anchor="middle" x="34.5" y="-7.5" font-family="Helvetica,sans-Serif" font-size="10.00" fill="#000000">cstdlib</text>
</a>
</g>
</g>
<!-- Node1&#45;&gt;Node2 -->
<g id="edge2" class="edge">
<title>Node1&#45;&gt;Node2</title>
<path fill="none" stroke="#191970" d="M200.1188,-56.3733C166.4299,-46.9404 114.9518,-32.5265 78.3382,-22.2747"/>
<polygon fill="#191970" stroke="#191970" points="79.006,-18.8271 68.4326,-19.5011 77.1185,-25.5679 79.006,-18.8271"/>
</g>
<!-- Node3 -->
<g id="node4" class="node">
<title>Node3</title>
<g id="a_node4"><a xlink:title=" ">
<polygon fill="none" stroke="#bfbfbf" points="87.5,-.5 87.5,-19.5 171.5,-19.5 171.5,-.5 87.5,-.5"/>
<text text-anchor="middle" x="129.5" y="-7.5" font-family="Helvetica,sans-Serif" font-size="10.00" fill="#000000">stdexcept</text>
</a>
</g>
</g>
<!-- Node1&#45;&gt;Node3 -->
<g id="edge3" class="edge">
<title>Node1&#45;&gt;Node3</title>
<path fill="none" stroke="#191970" d="M216.2104,-56.2455C199.7238,-47.4527 175.2648,-34.4079 156.5235,-24.4125"/>
<polygon fill="#191970" stroke="#191970" points="158.0506,-21.2604 147.58,-19.6427 154.7565,-27.4368 158.0506,-21.2604"/>
</g>
<!-- Node4 -->
<g id="node5" class="node">
<title>Node4</title>
<g id="a_node5"><a xlink:title=" ">
<polygon fill="none" stroke="#bfbfbf" points="190,-.5 190,-19.5 289,-19.5 289,-.5 190,-.5"/>
<text text-anchor="middle" x="239.5" y="-7.5" font-family="Helvetica,sans-Serif" font-size="10.00" fill="#000000">type_traits</text>
</a>
</g>
</g>
<!-- Node1&#45;&gt;Node4 -->
<g id="edge4" class="edge">
<title>Node1&#45;&gt;Node4</title>
<path fill="none" stroke="#191970" d="M235.3709,-56.2455C236.0234,-48.9382 236.938,-38.6944 237.7407,-29.7046"/>
<polygon fill="#191970" stroke="#191970" points="241.2358,-29.9143 238.639,-19.6427 234.2635,-29.2918 241.2358,-29.9143"/>
</g>
<!-- Node5 -->
<g id="node6" class="node">
<title>Node5</title>
<g id="a_node6"><a xlink:title=" ">
<polygon fill="none" stroke="#bfbfbf" points="307.5,-.5 307.5,-19.5 421.5,-19.5 421.5,-.5 307.5,-.5"/>
<text text-anchor="middle" x="364.5" y="-7.5" font-family="Helvetica,sans-Serif" font-size="10.00" fill="#000000">unordered_map</text>
</a>
</g>
</g>
<!-- Node1&#45;&gt;Node5 -->
<g id="edge5" class="edge">
<title>Node1&#45;&gt;Node5</title>
<path fill="none" stroke="#191970" d="M256.8478,-56.3733C277.9033,-47.3032 309.6495,-33.6279 333.2175,-23.4755"/>
<polygon fill="#191970" stroke="#191970" points="334.6444,-26.6719 342.4438,-19.5011 331.875,-20.243 334.6444,-26.6719"/>
</g>
<!-- Node8 -->
<g id="node9" class="node">
<title>Node8</title>
<g id="a_node9"><a xlink:title=" ">
<polygon fill="none" stroke="#bfbfbf" points="448.5,-.5 448.5,-19.5 540.5,-19.5 540.5,-.5 448.5,-.5"/>
<text text-anchor="middle" x="494.5" y="-7.5" font-family="Helvetica,sans-Serif" font-size="10.00" fill="#000000">filesystem</text>
</a>
</g>
</g>
<!-- Node7&#45;&gt;Node8 -->
<g id="edge8" class="edge">
<title>Node7&#45;&gt;Node8</title>
<path fill="none" stroke="#191970" d="M498.6291,-56.2455C497.9766,-48.9382 497.062,-38.6944 496.2593,-29.7046"/>
<polygon fill="#191970" stroke="#191970" points="499.7365,-29.2918 495.361,-19.6427 492.7642,-29.9143 499.7365,-29.2918"/>
</g>
<!-- Node9 -->
<g id="node10" class="node">
<title>Node9</title>
<g id="a_node10"><a xlink:title=" ">
<polygon fill="none" stroke="#bfbfbf" points="559,-.5 559,-19.5 658,-19.5 658,-.5 559,-.5"/>
<text text-anchor="middle" x="608.5" y="-7.5" font-family="Helvetica,sans-Serif" font-size="10.00" fill="#000000">string_view</text>
</a>
</g>
</g>
<!-- Node7&#45;&gt;Node9 -->
<g id="edge9" class="edge">
<title>Node7&#45;&gt;Node9</title>
<path fill="none" stroke="#191970" d="M518.4864,-56.2455C535.6792,-47.4125 561.2238,-34.2887 580.7132,-24.2758"/>
<polygon fill="#191970" stroke="#191970" points="582.4359,-27.3257 589.7312,-19.6427 579.237,-21.0993 582.4359,-27.3257"/>
</g>
</g>
</svg>
