<?xml version="1.0" encoding="UTF-8" standalone="no"?>
<!DOCTYPE svg PUBLIC "-//W3C//DTD SVG 1.1//EN"
 "http://www.w3.org/Graphics/SVG/1.1/DTD/svg11.dtd">
<!-- Generated by graphviz version 2.40.1 (0)
 -->
<!-- Title: config/include/config/config.h Pages: 1 -->
<svg width="555pt" height="95pt"
 viewBox="0.00 0.00 554.50 95.00" xmlns="http://www.w3.org/2000/svg" xmlns:xlink="http://www.w3.org/1999/xlink">
<g id="graph0" class="graph" transform="scale(1 1) rotate(0) translate(4 91)">
<title>config/include/config/config.h</title>
<!-- Node0 -->
<g id="node1" class="node">
<title>Node0</title>
<g id="a_node1"><a xlink:title=" ">
<polygon fill="#bfbfbf" stroke="#000000" points="167.5,-56.5 167.5,-86.5 341.5,-86.5 341.5,-56.5 167.5,-56.5"/>
<text text-anchor="start" x="175.5" y="-74.5" font-family="Helvetica,sans-Serif" font-size="10.00" fill="#000000">config/include/config</text>
<text text-anchor="middle" x="254.5" y="-63.5" font-family="Helvetica,sans-Serif" font-size="10.00" fill="#000000">/config.h</text>
</a>
</g>
</g>
<!-- Node1 -->
<g id="node2" class="node">
<title>Node1</title>
<g id="a_node2"><a xlink:title=" ">
<polygon fill="none" stroke="#bfbfbf" points="0,-.5 0,-19.5 107,-19.5 107,-.5 0,-.5"/>
<text text-anchor="middle" x="53.5" y="-7.5" font-family="Helvetica,sans-Serif" font-size="10.00" fill="#000000">fmt/format.h</text>
</a>
</g>
</g>
<!-- Node0&#45;&gt;Node1 -->
<g id="edge1" class="edge">
<title>Node0&#45;&gt;Node1</title>
<path fill="none" stroke="#191970" d="M205.3299,-56.4554C171.3512,-46.059 126.6719,-32.3884 94.5914,-22.5727"/>
<polygon fill="#191970" stroke="#191970" points="95.2343,-19.1094 84.6479,-19.5303 93.1862,-25.803 95.2343,-19.1094"/>
</g>
<!-- Node2 -->
<g id="node3" class="node">
<title>Node2</title>
<g id="a_node3"><a xlink:title=" ">
<polygon fill="none" stroke="#bfbfbf" points="125,-.5 125,-19.5 194,-19.5 194,-.5 125,-.5"/>
<text text-anchor="middle" x="159.5" y="-7.5" font-family="Helvetica,sans-Serif" font-size="10.00" fill="#000000">cstdlib</text>
</a>
</g>
</g>
<!-- Node0&#45;&gt;Node2 -->
<g id="edge2" class="edge">
<title>Node0&#45;&gt;Node2</title>
<path fill="none" stroke="#191970" d="M231.0168,-56.2977C216.3652,-46.8127 197.5764,-34.6495 182.9341,-25.1705"/>
<polygon fill="#191970" stroke="#191970" points="184.7236,-22.1596 174.427,-19.6633 180.9195,-28.0357 184.7236,-22.1596"/>
</g>
<!-- Node3 -->
<g id="node4" class="node">
<title>Node3</title>
<g id="a_node4"><a xlink:title=" ">
<polygon fill="none" stroke="#bfbfbf" points="212.5,-.5 212.5,-19.5 296.5,-19.5 296.5,-.5 212.5,-.5"/>
<text text-anchor="middle" x="254.5" y="-7.5" font-family="Helvetica,sans-Serif" font-size="10.00" fill="#000000">stdexcept</text>
</a>
</g>
</g>
<!-- Node0&#45;&gt;Node3 -->
<g id="edge3" class="edge">
<title>Node0&#45;&gt;Node3</title>
<path fill="none" stroke="#191970" d="M254.5,-56.2977C254.5,-48.3834 254.5,-38.6043 254.5,-30.0759"/>
<polygon fill="#191970" stroke="#191970" points="258.0001,-29.8469 254.5,-19.8469 251.0001,-29.847 258.0001,-29.8469"/>
</g>
<!-- Node4 -->
<g id="node5" class="node">
<title>Node4</title>
<g id="a_node5"><a xlink:title=" ">
<polygon fill="none" stroke="#bfbfbf" points="315,-.5 315,-19.5 414,-19.5 414,-.5 315,-.5"/>
<text text-anchor="middle" x="364.5" y="-7.5" font-family="Helvetica,sans-Serif" font-size="10.00" fill="#000000">type_traits</text>
</a>
</g>
</g>
<!-- Node0&#45;&gt;Node4 -->
<g id="edge4" class="edge">
<title>Node0&#45;&gt;Node4</title>
<path fill="none" stroke="#191970" d="M281.409,-56.4554C298.7968,-46.734 321.3049,-34.15 338.5084,-24.5317"/>
<polygon fill="#191970" stroke="#191970" points="340.4335,-27.4653 347.4539,-19.5303 337.0174,-21.3554 340.4335,-27.4653"/>
</g>
<!-- Node5 -->
<g id="node6" class="node">
<title>Node5</title>
<g id="a_node6"><a xlink:title=" ">
<polygon fill="none" stroke="#bfbfbf" points="432.5,-.5 432.5,-19.5 546.5,-19.5 546.5,-.5 432.5,-.5"/>
<text text-anchor="middle" x="489.5" y="-7.5" font-family="Helvetica,sans-Serif" font-size="10.00" fill="#000000">unordered_map</text>
</a>
</g>
</g>
<!-- Node0&#45;&gt;Node5 -->
<g id="edge5" class="edge">
<title>Node0&#45;&gt;Node5</title>
<path fill="none" stroke="#191970" d="M311.9875,-56.4554C352.4017,-45.8789 405.7636,-31.914 443.3929,-22.0663"/>
<polygon fill="#191970" stroke="#191970" points="444.2953,-25.4481 453.0833,-19.5303 442.523,-18.6762 444.2953,-25.4481"/>
</g>
</g>
</svg>
