<?xml version="1.0" encoding="UTF-8" standalone="no"?>
<!DOCTYPE svg PUBLIC "-//W3C//DTD SVG 1.1//EN"
 "http://www.w3.org/Graphics/SVG/1.1/DTD/svg11.dtd">
<!-- Generated by graphviz version 2.40.1 (0)
 -->
<!-- Title: leitse/curl_handle.h Pages: 1 -->
<svg width="300pt" height="140pt"
 viewBox="0.00 0.00 299.50 140.00" xmlns="http://www.w3.org/2000/svg" xmlns:xlink="http://www.w3.org/1999/xlink">
<g id="graph0" class="graph" transform="scale(1 1) rotate(0) translate(4 136)">
<title>leitse/curl_handle.h</title>
<!-- Node0 -->
<g id="node1" class="node">
<title>Node0</title>
<g id="a_node1"><a xlink:title=" ">
<polygon fill="#bfbfbf" stroke="#000000" points="43,-112.5 43,-131.5 210,-131.5 210,-112.5 43,-112.5"/>
<text text-anchor="middle" x="126.5" y="-119.5" font-family="Helvetica,sans-Serif" font-size="10.00" fill="#000000">leitse/curl_handle.h</text>
</a>
</g>
</g>
<!-- Node1 -->
<g id="node2" class="node">
<title>Node1</title>
<g id="a_node2"><a xlink:title=" ">
<polygon fill="none" stroke="#bfbfbf" points="0,-56.5 0,-75.5 99,-75.5 99,-56.5 0,-56.5"/>
<text text-anchor="middle" x="49.5" y="-63.5" font-family="Helvetica,sans-Serif" font-size="10.00" fill="#000000">curl/curl.h</text>
</a>
</g>
</g>
<!-- Node0&#45;&gt;Node1 -->
<g id="edge1" class="edge">
<title>Node0&#45;&gt;Node1</title>
<path fill="none" stroke="#191970" d="M113.0876,-112.2455C101.4943,-103.814 84.5252,-91.4729 71.0322,-81.6598"/>
<polygon fill="#191970" stroke="#191970" points="72.9047,-78.6938 62.7587,-75.6427 68.7874,-84.355 72.9047,-78.6938"/>
</g>
<!-- Node2 -->
<g id="node3" class="node">
<title>Node2</title>
<g id="a_node3"><a xlink:href="shared__handle_8h.html" target="_top" xlink:title=" ">
<polygon fill="none" stroke="#000000" points="117.5,-56.5 117.5,-75.5 291.5,-75.5 291.5,-56.5 117.5,-56.5"/>
<text text-anchor="middle" x="204.5" y="-63.5" font-family="Helvetica,sans-Serif" font-size="10.00" fill="#000000">utils/shared_handle.h</text>
</a>
</g>
</g>
<!-- Node0&#45;&gt;Node2 -->
<g id="edge2" class="edge">
<title>Node0&#45;&gt;Node2</title>
<path fill="none" stroke="#191970" d="M140.0866,-112.2455C151.8305,-103.814 169.0199,-91.4729 182.6882,-81.6598"/>
<polygon fill="#191970" stroke="#191970" points="184.9871,-84.3179 191.0691,-75.6427 180.9046,-78.6316 184.9871,-84.3179"/>
</g>
<!-- Node3 -->
<g id="node4" class="node">
<title>Node3</title>
<g id="a_node4"><a xlink:title=" ">
<polygon fill="none" stroke="#bfbfbf" points="173.5,-.5 173.5,-19.5 235.5,-19.5 235.5,-.5 173.5,-.5"/>
<text text-anchor="middle" x="204.5" y="-7.5" font-family="Helvetica,sans-Serif" font-size="10.00" fill="#000000">memory</text>
</a>
</g>
</g>
<!-- Node2&#45;&gt;Node3 -->
<g id="edge3" class="edge">
<title>Node2&#45;&gt;Node3</title>
<path fill="none" stroke="#191970" d="M204.5,-56.2455C204.5,-48.9382 204.5,-38.6944 204.5,-29.7046"/>
<polygon fill="#191970" stroke="#191970" points="208.0001,-29.6426 204.5,-19.6427 201.0001,-29.6427 208.0001,-29.6426"/>
</g>
</g>
</svg>
