<?xml version="1.0" encoding="UTF-8" standalone="no"?>
<!DOCTYPE svg PUBLIC "-//W3C//DTD SVG 1.1//EN"
 "http://www.w3.org/Graphics/SVG/1.1/DTD/svg11.dtd">
<!-- Generated by graphviz version 2.40.1 (0)
 -->
<!-- Title: leitse/curl_handle.h Pages: 1 -->
<svg width="523pt" height="140pt"
 viewBox="0.00 0.00 522.50 140.00" xmlns="http://www.w3.org/2000/svg" xmlns:xlink="http://www.w3.org/1999/xlink">
<g id="graph0" class="graph" transform="scale(1 1) rotate(0) translate(4 136)">
<title>leitse/curl_handle.h</title>
<!-- Node4 -->
<g id="node1" class="node">
<title>Node4</title>
<g id="a_node1"><a xlink:title=" ">
<polygon fill="#bfbfbf" stroke="#000000" points="200.5,-112.5 200.5,-131.5 367.5,-131.5 367.5,-112.5 200.5,-112.5"/>
<text text-anchor="middle" x="284" y="-119.5" font-family="Helvetica,sans-Serif" font-size="10.00" fill="#000000">leitse/curl_handle.h</text>
</a>
</g>
</g>
<!-- Node5 -->
<g id="node2" class="node">
<title>Node5</title>
<g id="a_node2"><a xlink:href="curl__handle_8cpp.html" target="_top" xlink:title=" ">
<polygon fill="none" stroke="#000000" points="0,-56.5 0,-75.5 182,-75.5 182,-56.5 0,-56.5"/>
<text text-anchor="middle" x="91" y="-63.5" font-family="Helvetica,sans-Serif" font-size="10.00" fill="#000000">leitse/curl_handle.cpp</text>
</a>
</g>
</g>
<!-- Node4&#45;&gt;Node5 -->
<g id="edge1" class="edge">
<title>Node4&#45;&gt;Node5</title>
<path fill="none" stroke="#191970" d="M240.7683,-109.4561C205.3404,-99.1765 155.963,-84.8494 123.7449,-75.5011"/>
<polygon fill="#191970" stroke="#191970" points="240.2429,-112.9479 250.8221,-112.3733 242.1936,-106.2252 240.2429,-112.9479"/>
</g>
<!-- Node6 -->
<g id="node3" class="node">
<title>Node6</title>
<g id="a_node3"><a xlink:href="simple__curl_8h.html" target="_top" xlink:title=" ">
<polygon fill="none" stroke="#000000" points="200.5,-56.5 200.5,-75.5 367.5,-75.5 367.5,-56.5 200.5,-56.5"/>
<text text-anchor="middle" x="284" y="-63.5" font-family="Helvetica,sans-Serif" font-size="10.00" fill="#000000">leitse/simple_curl.h</text>
</a>
</g>
</g>
<!-- Node4&#45;&gt;Node6 -->
<g id="edge2" class="edge">
<title>Node4&#45;&gt;Node6</title>
<path fill="none" stroke="#191970" d="M284,-102.1575C284,-93.155 284,-82.9199 284,-75.6427"/>
<polygon fill="#191970" stroke="#191970" points="280.5001,-102.2455 284,-112.2455 287.5001,-102.2456 280.5001,-102.2455"/>
</g>
<!-- Node9 -->
<g id="node6" class="node">
<title>Node9</title>
<g id="a_node6"><a xlink:href="main_8cpp.html" target="_top" xlink:title=" ">
<polygon fill="none" stroke="#000000" points="385.5,-56.5 385.5,-75.5 514.5,-75.5 514.5,-56.5 385.5,-56.5"/>
<text text-anchor="middle" x="450" y="-63.5" font-family="Helvetica,sans-Serif" font-size="10.00" fill="#000000">leitse/main.cpp</text>
</a>
</g>
</g>
<!-- Node4&#45;&gt;Node9 -->
<g id="edge5" class="edge">
<title>Node4&#45;&gt;Node9</title>
<path fill="none" stroke="#191970" d="M322.3667,-109.057C352.7466,-98.8084 394.4819,-84.729 421.836,-75.5011"/>
<polygon fill="#191970" stroke="#191970" points="320.893,-105.8603 312.5364,-112.3733 323.1306,-112.4931 320.893,-105.8603"/>
</g>
<!-- Node7 -->
<g id="node4" class="node">
<title>Node7</title>
<g id="a_node4"><a xlink:href="download_8cpp.html" target="_top" xlink:title=" ">
<polygon fill="none" stroke="#000000" points="109.5,-.5 109.5,-19.5 268.5,-19.5 268.5,-.5 109.5,-.5"/>
<text text-anchor="middle" x="189" y="-7.5" font-family="Helvetica,sans-Serif" font-size="10.00" fill="#000000">leitse/download.cpp</text>
</a>
</g>
</g>
<!-- Node6&#45;&gt;Node7 -->
<g id="edge3" class="edge">
<title>Node6&#45;&gt;Node7</title>
<path fill="none" stroke="#191970" d="M258.6324,-51.0465C241.729,-41.0824 220.0096,-28.2794 205.3581,-19.6427"/>
<polygon fill="#191970" stroke="#191970" points="257.0602,-54.1825 267.4523,-56.2455 260.6149,-48.1522 257.0602,-54.1825"/>
</g>
<!-- Node8 -->
<g id="node5" class="node">
<title>Node8</title>
<g id="a_node5"><a xlink:href="simple__curl_8cpp.html" target="_top" xlink:title=" ">
<polygon fill="none" stroke="#000000" points="287,-.5 287,-19.5 469,-19.5 469,-.5 287,-.5"/>
<text text-anchor="middle" x="378" y="-7.5" font-family="Helvetica,sans-Serif" font-size="10.00" fill="#000000">leitse/simple_curl.cpp</text>
</a>
</g>
</g>
<!-- Node6&#45;&gt;Node8 -->
<g id="edge4" class="edge">
<title>Node6&#45;&gt;Node8</title>
<path fill="none" stroke="#191970" d="M309.1005,-51.0465C325.826,-41.0824 347.3168,-28.2794 361.8141,-19.6427"/>
<polygon fill="#191970" stroke="#191970" points="307.1732,-48.1206 300.3736,-56.2455 310.7559,-54.1343 307.1732,-48.1206"/>
</g>
</g>
</svg>
