<?xml version="1.0" encoding="UTF-8" standalone="no"?>
<!DOCTYPE svg PUBLIC "-//W3C//DTD SVG 1.1//EN"
 "http://www.w3.org/Graphics/SVG/1.1/DTD/svg11.dtd">
<!-- Generated by graphviz version 2.40.1 (0)
 -->
<!-- Title: leitse/data_dragon.cpp Pages: 1 -->
<svg width="585pt" height="140pt"
 viewBox="0.00 0.00 584.50 140.00" xmlns="http://www.w3.org/2000/svg" xmlns:xlink="http://www.w3.org/1999/xlink">
<g id="graph0" class="graph" transform="scale(1 1) rotate(0) translate(4 136)">
<title>leitse/data_dragon.cpp</title>
<!-- Node0 -->
<g id="node1" class="node">
<title>Node0</title>
<g id="a_node1"><a xlink:title=" ">
<polygon fill="#bfbfbf" stroke="#000000" points="292,-112.5 292,-131.5 474,-131.5 474,-112.5 292,-112.5"/>
<text text-anchor="middle" x="383" y="-119.5" font-family="Helvetica,sans-Serif" font-size="10.00" fill="#000000">leitse/data_dragon.cpp</text>
</a>
</g>
</g>
<!-- Node1 -->
<g id="node2" class="node">
<title>Node1</title>
<g id="a_node2"><a xlink:href="data__dragon_8h.html" target="_top" xlink:title=" ">
<polygon fill="none" stroke="#000000" points="205,-56.5 205,-75.5 319,-75.5 319,-56.5 205,-56.5"/>
<text text-anchor="middle" x="262" y="-63.5" font-family="Helvetica,sans-Serif" font-size="10.00" fill="#000000">data_dragon.h</text>
</a>
</g>
</g>
<!-- Node0&#45;&gt;Node1 -->
<g id="edge1" class="edge">
<title>Node0&#45;&gt;Node1</title>
<path fill="none" stroke="#191970" d="M362.1994,-112.3733C342.7757,-103.3838 313.5776,-89.8706 291.7036,-79.7471"/>
<polygon fill="#191970" stroke="#191970" points="293.0745,-76.5249 282.5292,-75.5011 290.1344,-82.8776 293.0745,-76.5249"/>
</g>
<!-- Node6 -->
<g id="node7" class="node">
<title>Node6</title>
<g id="a_node7"><a xlink:href="download_8h.html" target="_top" xlink:title=" ">
<polygon fill="none" stroke="#000000" points="337,-56.5 337,-75.5 429,-75.5 429,-56.5 337,-56.5"/>
<text text-anchor="middle" x="383" y="-63.5" font-family="Helvetica,sans-Serif" font-size="10.00" fill="#000000">download.h</text>
</a>
</g>
</g>
<!-- Node0&#45;&gt;Node6 -->
<g id="edge6" class="edge">
<title>Node0&#45;&gt;Node6</title>
<path fill="none" stroke="#191970" d="M383,-112.2455C383,-104.9382 383,-94.6944 383,-85.7046"/>
<polygon fill="#191970" stroke="#191970" points="386.5001,-85.6426 383,-75.6427 379.5001,-85.6427 386.5001,-85.6426"/>
</g>
<!-- Node8 -->
<g id="node9" class="node">
<title>Node8</title>
<g id="a_node9"><a xlink:title=" ">
<polygon fill="none" stroke="#bfbfbf" points="447.5,-56.5 447.5,-75.5 576.5,-75.5 576.5,-56.5 447.5,-56.5"/>
<text text-anchor="middle" x="512" y="-63.5" font-family="Helvetica,sans-Serif" font-size="10.00" fill="#000000">spdlog/spdlog.h</text>
</a>
</g>
</g>
<!-- Node0&#45;&gt;Node8 -->
<g id="edge9" class="edge">
<title>Node0&#45;&gt;Node8</title>
<path fill="none" stroke="#191970" d="M405.1759,-112.3733C425.9766,-103.3435 457.2917,-89.7494 480.6458,-79.6111"/>
<polygon fill="#191970" stroke="#191970" points="482.3343,-82.6938 490.1135,-75.5011 479.5468,-76.2727 482.3343,-82.6938"/>
</g>
<!-- Node2 -->
<g id="node3" class="node">
<title>Node2</title>
<g id="a_node3"><a xlink:title=" ">
<polygon fill="none" stroke="#bfbfbf" points="0,-.5 0,-19.5 144,-19.5 144,-.5 0,-.5"/>
<text text-anchor="middle" x="72" y="-7.5" font-family="Helvetica,sans-Serif" font-size="10.00" fill="#000000">nlohmann/json.hpp</text>
</a>
</g>
</g>
<!-- Node1&#45;&gt;Node2 -->
<g id="edge2" class="edge">
<title>Node1&#45;&gt;Node2</title>
<path fill="none" stroke="#191970" d="M229.3378,-56.3733C197.4702,-46.9807 148.8469,-32.6496 114.093,-22.4064"/>
<polygon fill="#191970" stroke="#191970" points="114.8175,-18.9711 104.236,-19.5011 112.8385,-25.6855 114.8175,-18.9711"/>
</g>
<!-- Node3 -->
<g id="node4" class="node">
<title>Node3</title>
<g id="a_node4"><a xlink:title=" ">
<polygon fill="none" stroke="#bfbfbf" points="162,-.5 162,-19.5 224,-19.5 224,-.5 162,-.5"/>
<text text-anchor="middle" x="193" y="-7.5" font-family="Helvetica,sans-Serif" font-size="10.00" fill="#000000">string</text>
</a>
</g>
</g>
<!-- Node1&#45;&gt;Node3 -->
<g id="edge3" class="edge">
<title>Node1&#45;&gt;Node3</title>
<path fill="none" stroke="#191970" d="M249.9811,-56.2455C239.7902,-47.9746 224.9638,-35.9416 212.9893,-26.2232"/>
<polygon fill="#191970" stroke="#191970" points="214.8514,-23.2268 204.8812,-19.6427 210.4402,-28.662 214.8514,-23.2268"/>
</g>
<!-- Node4 -->
<g id="node5" class="node">
<title>Node4</title>
<g id="a_node5"><a xlink:title=" ">
<polygon fill="none" stroke="#bfbfbf" points="322.5,-.5 322.5,-19.5 421.5,-19.5 421.5,-.5 322.5,-.5"/>
<text text-anchor="middle" x="372" y="-7.5" font-family="Helvetica,sans-Serif" font-size="10.00" fill="#000000">string_view</text>
</a>
</g>
</g>
<!-- Node1&#45;&gt;Node4 -->
<g id="edge4" class="edge">
<title>Node1&#45;&gt;Node4</title>
<path fill="none" stroke="#191970" d="M281.1605,-56.2455C298.5111,-47.4125 324.2901,-34.2887 343.9583,-24.2758"/>
<polygon fill="#191970" stroke="#191970" points="345.7353,-27.2986 353.059,-19.6427 342.5595,-21.0605 345.7353,-27.2986"/>
</g>
<!-- Node5 -->
<g id="node6" class="node">
<title>Node5</title>
<g id="a_node6"><a xlink:title=" ">
<polygon fill="none" stroke="#bfbfbf" points="242,-.5 242,-19.5 304,-19.5 304,-.5 242,-.5"/>
<text text-anchor="middle" x="273" y="-7.5" font-family="Helvetica,sans-Serif" font-size="10.00" fill="#000000">vector</text>
</a>
</g>
</g>
<!-- Node1&#45;&gt;Node5 -->
<g id="edge5" class="edge">
<title>Node1&#45;&gt;Node5</title>
<path fill="none" stroke="#191970" d="M263.9161,-56.2455C265.3514,-48.9382 267.3636,-38.6944 269.1295,-29.7046"/>
<polygon fill="#191970" stroke="#191970" points="272.6127,-30.1298 271.1059,-19.6427 265.744,-28.7805 272.6127,-30.1298"/>
</g>
<!-- Node6&#45;&gt;Node4 -->
<g id="edge8" class="edge">
<title>Node6&#45;&gt;Node4</title>
<path fill="none" stroke="#191970" d="M381.0839,-56.2455C379.6486,-48.9382 377.6364,-38.6944 375.8705,-29.7046"/>
<polygon fill="#191970" stroke="#191970" points="379.256,-28.7805 373.8941,-19.6427 372.3873,-30.1298 379.256,-28.7805"/>
</g>
<!-- Node7 -->
<g id="node8" class="node">
<title>Node7</title>
<g id="a_node8"><a xlink:title=" ">
<polygon fill="none" stroke="#bfbfbf" points="440,-.5 440,-19.5 562,-19.5 562,-.5 440,-.5"/>
<text text-anchor="middle" x="501" y="-7.5" font-family="Helvetica,sans-Serif" font-size="10.00" fill="#000000">cpr/response.h</text>
</a>
</g>
</g>
<!-- Node6&#45;&gt;Node7 -->
<g id="edge7" class="edge">
<title>Node6&#45;&gt;Node7</title>
<path fill="none" stroke="#191970" d="M403.2849,-56.3733C422.1421,-47.4241 450.446,-33.9917 471.7455,-23.8835"/>
<polygon fill="#191970" stroke="#191970" points="473.4461,-26.9506 480.9798,-19.5011 470.4449,-20.6266 473.4461,-26.9506"/>
</g>
</g>
</svg>
