<?xml version="1.0" encoding="UTF-8" standalone="no"?>
<!DOCTYPE svg PUBLIC "-//W3C//DTD SVG 1.1//EN"
 "http://www.w3.org/Graphics/SVG/1.1/DTD/svg11.dtd">
<!-- Generated by graphviz version 2.40.1 (0)
 -->
<!-- Title: leitse/data_dragon.cpp Pages: 1 -->
<svg width="545pt" height="140pt"
 viewBox="0.00 0.00 544.50 140.00" xmlns="http://www.w3.org/2000/svg" xmlns:xlink="http://www.w3.org/1999/xlink">
<g id="graph0" class="graph" transform="scale(1 1) rotate(0) translate(4 136)">
<title>leitse/data_dragon.cpp</title>
<!-- Node0 -->
<g id="node1" class="node">
<title>Node0</title>
<g id="a_node1"><a xlink:title=" ">
<polygon fill="#bfbfbf" stroke="#000000" points="252,-112.5 252,-131.5 434,-131.5 434,-112.5 252,-112.5"/>
<text text-anchor="middle" x="343" y="-119.5" font-family="Helvetica,sans-Serif" font-size="10.00" fill="#000000">leitse/data_dragon.cpp</text>
</a>
</g>
</g>
<!-- Node1 -->
<g id="node2" class="node">
<title>Node1</title>
<g id="a_node2"><a xlink:href="data__dragon_8h.html" target="_top" xlink:title=" ">
<polygon fill="none" stroke="#000000" points="165,-56.5 165,-75.5 279,-75.5 279,-56.5 165,-56.5"/>
<text text-anchor="middle" x="222" y="-63.5" font-family="Helvetica,sans-Serif" font-size="10.00" fill="#000000">data_dragon.h</text>
</a>
</g>
</g>
<!-- Node0&#45;&gt;Node1 -->
<g id="edge1" class="edge">
<title>Node0&#45;&gt;Node1</title>
<path fill="none" stroke="#191970" d="M322.1994,-112.3733C302.7757,-103.3838 273.5776,-89.8706 251.7036,-79.7471"/>
<polygon fill="#191970" stroke="#191970" points="253.0745,-76.5249 242.5292,-75.5011 250.1344,-82.8776 253.0745,-76.5249"/>
</g>
<!-- Node6 -->
<g id="node7" class="node">
<title>Node6</title>
<g id="a_node7"><a xlink:href="download_8h.html" target="_top" xlink:title=" ">
<polygon fill="none" stroke="#000000" points="297,-56.5 297,-75.5 389,-75.5 389,-56.5 297,-56.5"/>
<text text-anchor="middle" x="343" y="-63.5" font-family="Helvetica,sans-Serif" font-size="10.00" fill="#000000">download.h</text>
</a>
</g>
</g>
<!-- Node0&#45;&gt;Node6 -->
<g id="edge6" class="edge">
<title>Node0&#45;&gt;Node6</title>
<path fill="none" stroke="#191970" d="M343,-112.2455C343,-104.9382 343,-94.6944 343,-85.7046"/>
<polygon fill="#191970" stroke="#191970" points="346.5001,-85.6426 343,-75.6427 339.5001,-85.6427 346.5001,-85.6426"/>
</g>
<!-- Node7 -->
<g id="node8" class="node">
<title>Node7</title>
<g id="a_node8"><a xlink:title=" ">
<polygon fill="none" stroke="#bfbfbf" points="407.5,-56.5 407.5,-75.5 536.5,-75.5 536.5,-56.5 407.5,-56.5"/>
<text text-anchor="middle" x="472" y="-63.5" font-family="Helvetica,sans-Serif" font-size="10.00" fill="#000000">spdlog/spdlog.h</text>
</a>
</g>
</g>
<!-- Node0&#45;&gt;Node7 -->
<g id="edge9" class="edge">
<title>Node0&#45;&gt;Node7</title>
<path fill="none" stroke="#191970" d="M365.1759,-112.3733C385.9766,-103.3435 417.2917,-89.7494 440.6458,-79.6111"/>
<polygon fill="#191970" stroke="#191970" points="442.3343,-82.6938 450.1135,-75.5011 439.5468,-76.2727 442.3343,-82.6938"/>
</g>
<!-- Node2 -->
<g id="node3" class="node">
<title>Node2</title>
<g id="a_node3"><a xlink:title=" ">
<polygon fill="none" stroke="#bfbfbf" points="0,-.5 0,-19.5 144,-19.5 144,-.5 0,-.5"/>
<text text-anchor="middle" x="72" y="-7.5" font-family="Helvetica,sans-Serif" font-size="10.00" fill="#000000">nlohmann/json.hpp</text>
</a>
</g>
</g>
<!-- Node1&#45;&gt;Node2 -->
<g id="edge2" class="edge">
<title>Node1&#45;&gt;Node2</title>
<path fill="none" stroke="#191970" d="M196.2141,-56.3733C171.5953,-47.1822 134.31,-33.2624 107.0125,-23.0713"/>
<polygon fill="#191970" stroke="#191970" points="108.042,-19.7198 97.4494,-19.5011 105.5937,-26.2777 108.042,-19.7198"/>
</g>
<!-- Node3 -->
<g id="node4" class="node">
<title>Node3</title>
<g id="a_node4"><a xlink:title=" ">
<polygon fill="none" stroke="#bfbfbf" points="242,-.5 242,-19.5 304,-19.5 304,-.5 242,-.5"/>
<text text-anchor="middle" x="273" y="-7.5" font-family="Helvetica,sans-Serif" font-size="10.00" fill="#000000">string</text>
</a>
</g>
</g>
<!-- Node1&#45;&gt;Node3 -->
<g id="edge3" class="edge">
<title>Node1&#45;&gt;Node3</title>
<path fill="none" stroke="#191970" d="M230.8835,-56.2455C238.1966,-48.2155 248.7391,-36.6394 257.4467,-27.0781"/>
<polygon fill="#191970" stroke="#191970" points="260.0727,-29.3928 264.2183,-19.6427 254.8972,-24.6795 260.0727,-29.3928"/>
</g>
<!-- Node4 -->
<g id="node5" class="node">
<title>Node4</title>
<g id="a_node5"><a xlink:title=" ">
<polygon fill="none" stroke="#bfbfbf" points="322.5,-.5 322.5,-19.5 421.5,-19.5 421.5,-.5 322.5,-.5"/>
<text text-anchor="middle" x="372" y="-7.5" font-family="Helvetica,sans-Serif" font-size="10.00" fill="#000000">string_view</text>
</a>
</g>
</g>
<!-- Node1&#45;&gt;Node4 -->
<g id="edge4" class="edge">
<title>Node1&#45;&gt;Node4</title>
<path fill="none" stroke="#191970" d="M247.7859,-56.3733C272.4047,-47.1822 309.69,-33.2624 336.9875,-23.0713"/>
<polygon fill="#191970" stroke="#191970" points="338.4063,-26.2777 346.5506,-19.5011 335.958,-19.7198 338.4063,-26.2777"/>
</g>
<!-- Node5 -->
<g id="node6" class="node">
<title>Node5</title>
<g id="a_node6"><a xlink:title=" ">
<polygon fill="none" stroke="#bfbfbf" points="162,-.5 162,-19.5 224,-19.5 224,-.5 162,-.5"/>
<text text-anchor="middle" x="193" y="-7.5" font-family="Helvetica,sans-Serif" font-size="10.00" fill="#000000">vector</text>
</a>
</g>
</g>
<!-- Node1&#45;&gt;Node5 -->
<g id="edge5" class="edge">
<title>Node1&#45;&gt;Node5</title>
<path fill="none" stroke="#191970" d="M216.9486,-56.2455C212.9981,-48.617 207.3903,-37.7881 202.5942,-28.5267"/>
<polygon fill="#191970" stroke="#191970" points="205.7001,-26.9131 197.9935,-19.6427 199.4841,-30.1321 205.7001,-26.9131"/>
</g>
<!-- Node6&#45;&gt;Node3 -->
<g id="edge7" class="edge">
<title>Node6&#45;&gt;Node3</title>
<path fill="none" stroke="#191970" d="M330.8069,-56.2455C320.3679,-47.8943 305.1345,-35.7076 292.926,-25.9408"/>
<polygon fill="#191970" stroke="#191970" points="295.0485,-23.1566 285.0533,-19.6427 290.6756,-28.6227 295.0485,-23.1566"/>
</g>
<!-- Node6&#45;&gt;Node4 -->
<g id="edge8" class="edge">
<title>Node6&#45;&gt;Node4</title>
<path fill="none" stroke="#191970" d="M348.0514,-56.2455C352.0019,-48.617 357.6097,-37.7881 362.4058,-28.5267"/>
<polygon fill="#191970" stroke="#191970" points="365.5159,-30.1321 367.0065,-19.6427 359.2999,-26.9131 365.5159,-30.1321"/>
</g>
</g>
</svg>
