<?xml version="1.0" encoding="UTF-8" standalone="no"?>
<!DOCTYPE svg PUBLIC "-//W3C//DTD SVG 1.1//EN"
 "http://www.w3.org/Graphics/SVG/1.1/DTD/svg11.dtd">
<!-- Generated by graphviz version 2.40.1 (0)
 -->
<!-- Title: leitse/data_dragon.cpp Pages: 1 -->
<svg width="379pt" height="140pt"
 viewBox="0.00 0.00 379.00 140.00" xmlns="http://www.w3.org/2000/svg" xmlns:xlink="http://www.w3.org/1999/xlink">
<g id="graph0" class="graph" transform="scale(1 1) rotate(0) translate(4 136)">
<title>leitse/data_dragon.cpp</title>
<!-- Node0 -->
<g id="node1" class="node">
<title>Node0</title>
<g id="a_node1"><a xlink:title=" ">
<polygon fill="#bfbfbf" stroke="#000000" points="179,-112.5 179,-131.5 361,-131.5 361,-112.5 179,-112.5"/>
<text text-anchor="middle" x="270" y="-119.5" font-family="Helvetica,sans-Serif" font-size="10.00" fill="#000000">leitse/data_dragon.cpp</text>
</a>
</g>
</g>
<!-- Node1 -->
<g id="node2" class="node">
<title>Node1</title>
<g id="a_node2"><a xlink:href="data__dragon_8h.html" target="_top" xlink:title=" ">
<polygon fill="none" stroke="#000000" points="155,-56.5 155,-75.5 269,-75.5 269,-56.5 155,-56.5"/>
<text text-anchor="middle" x="212" y="-63.5" font-family="Helvetica,sans-Serif" font-size="10.00" fill="#000000">data_dragon.h</text>
</a>
</g>
</g>
<!-- Node0&#45;&gt;Node1 -->
<g id="edge1" class="edge">
<title>Node0&#45;&gt;Node1</title>
<path fill="none" stroke="#191970" d="M259.8972,-112.2455C251.4972,-104.1352 239.3506,-92.4075 229.3916,-82.7919"/>
<polygon fill="#191970" stroke="#191970" points="231.6122,-80.0707 221.9871,-75.6427 226.75,-85.1066 231.6122,-80.0707"/>
</g>
<!-- Node5 -->
<g id="node6" class="node">
<title>Node5</title>
<g id="a_node6"><a xlink:title=" ">
<polygon fill="none" stroke="#bfbfbf" points="287,-56.5 287,-75.5 371,-75.5 371,-56.5 287,-56.5"/>
<text text-anchor="middle" x="329" y="-63.5" font-family="Helvetica,sans-Serif" font-size="10.00" fill="#000000">cpr/cpr.h</text>
</a>
</g>
</g>
<!-- Node0&#45;&gt;Node5 -->
<g id="edge5" class="edge">
<title>Node0&#45;&gt;Node5</title>
<path fill="none" stroke="#191970" d="M280.277,-112.2455C288.8218,-104.1352 301.1778,-92.4075 311.3085,-82.7919"/>
<polygon fill="#191970" stroke="#191970" points="313.9972,-85.0655 318.8408,-75.6427 309.1782,-79.9884 313.9972,-85.0655"/>
</g>
<!-- Node2 -->
<g id="node3" class="node">
<title>Node2</title>
<g id="a_node3"><a xlink:title=" ">
<polygon fill="none" stroke="#bfbfbf" points="0,-.5 0,-19.5 144,-19.5 144,-.5 0,-.5"/>
<text text-anchor="middle" x="72" y="-7.5" font-family="Helvetica,sans-Serif" font-size="10.00" fill="#000000">nlohmann/json.hpp</text>
</a>
</g>
</g>
<!-- Node1&#45;&gt;Node2 -->
<g id="edge2" class="edge">
<title>Node1&#45;&gt;Node2</title>
<path fill="none" stroke="#191970" d="M187.9331,-56.3733C165.1572,-47.2629 130.7656,-33.5062 105.351,-23.3404"/>
<polygon fill="#191970" stroke="#191970" points="106.3375,-19.9654 95.7528,-19.5011 103.7377,-26.4648 106.3375,-19.9654"/>
</g>
<!-- Node3 -->
<g id="node4" class="node">
<title>Node3</title>
<g id="a_node4"><a xlink:title=" ">
<polygon fill="none" stroke="#bfbfbf" points="162.5,-.5 162.5,-19.5 261.5,-19.5 261.5,-.5 162.5,-.5"/>
<text text-anchor="middle" x="212" y="-7.5" font-family="Helvetica,sans-Serif" font-size="10.00" fill="#000000">string_view</text>
</a>
</g>
</g>
<!-- Node1&#45;&gt;Node3 -->
<g id="edge3" class="edge">
<title>Node1&#45;&gt;Node3</title>
<path fill="none" stroke="#191970" d="M212,-56.2455C212,-48.9382 212,-38.6944 212,-29.7046"/>
<polygon fill="#191970" stroke="#191970" points="215.5001,-29.6426 212,-19.6427 208.5001,-29.6427 215.5001,-29.6426"/>
</g>
<!-- Node4 -->
<g id="node5" class="node">
<title>Node4</title>
<g id="a_node5"><a xlink:title=" ">
<polygon fill="none" stroke="#bfbfbf" points="280,-.5 280,-19.5 342,-19.5 342,-.5 280,-.5"/>
<text text-anchor="middle" x="311" y="-7.5" font-family="Helvetica,sans-Serif" font-size="10.00" fill="#000000">vector</text>
</a>
</g>
</g>
<!-- Node1&#45;&gt;Node4 -->
<g id="edge4" class="edge">
<title>Node1&#45;&gt;Node4</title>
<path fill="none" stroke="#191970" d="M229.2445,-56.2455C244.5761,-47.5731 267.2199,-34.7645 284.7916,-24.825"/>
<polygon fill="#191970" stroke="#191970" points="286.9724,-27.6126 293.9531,-19.6427 283.5259,-21.5198 286.9724,-27.6126"/>
</g>
</g>
</svg>
