<?xml version="1.0" encoding="UTF-8" standalone="no"?>
<!DOCTYPE svg PUBLIC "-//W3C//DTD SVG 1.1//EN"
 "http://www.w3.org/Graphics/SVG/1.1/DTD/svg11.dtd">
<!-- Generated by graphviz version 2.40.1 (0)
 -->
<!-- Title: leitse/data_dragon.h Pages: 1 -->
<svg width="430pt" height="84pt"
 viewBox="0.00 0.00 430.00 84.00" xmlns="http://www.w3.org/2000/svg" xmlns:xlink="http://www.w3.org/1999/xlink">
<g id="graph0" class="graph" transform="scale(1 1) rotate(0) translate(4 80)">
<title>leitse/data_dragon.h</title>
<!-- Node0 -->
<g id="node1" class="node">
<title>Node0</title>
<g id="a_node1"><a xlink:title=" ">
<polygon fill="#bfbfbf" stroke="#000000" points="158.5,-56.5 158.5,-75.5 325.5,-75.5 325.5,-56.5 158.5,-56.5"/>
<text text-anchor="middle" x="242" y="-63.5" font-family="Helvetica,sans-Serif" font-size="10.00" fill="#000000">leitse/data_dragon.h</text>
</a>
</g>
</g>
<!-- Node1 -->
<g id="node2" class="node">
<title>Node1</title>
<g id="a_node2"><a xlink:title=" ">
<polygon fill="none" stroke="#bfbfbf" points="0,-.5 0,-19.5 144,-19.5 144,-.5 0,-.5"/>
<text text-anchor="middle" x="72" y="-7.5" font-family="Helvetica,sans-Serif" font-size="10.00" fill="#000000">nlohmann/json.hpp</text>
</a>
</g>
</g>
<!-- Node0&#45;&gt;Node1 -->
<g id="edge1" class="edge">
<title>Node0&#45;&gt;Node1</title>
<path fill="none" stroke="#191970" d="M212.776,-56.3733C184.5075,-47.0613 141.5035,-32.8953 110.4656,-22.671"/>
<polygon fill="#191970" stroke="#191970" points="111.4357,-19.3056 100.8427,-19.5011 109.2456,-25.9542 111.4357,-19.3056"/>
</g>
<!-- Node2 -->
<g id="node3" class="node">
<title>Node2</title>
<g id="a_node3"><a xlink:title=" ">
<polygon fill="none" stroke="#bfbfbf" points="162,-.5 162,-19.5 224,-19.5 224,-.5 162,-.5"/>
<text text-anchor="middle" x="193" y="-7.5" font-family="Helvetica,sans-Serif" font-size="10.00" fill="#000000">string</text>
</a>
</g>
</g>
<!-- Node0&#45;&gt;Node2 -->
<g id="edge2" class="edge">
<title>Node0&#45;&gt;Node2</title>
<path fill="none" stroke="#191970" d="M233.4649,-56.2455C226.5088,-48.2958 216.5117,-36.8706 208.1949,-27.3656"/>
<polygon fill="#191970" stroke="#191970" points="210.6564,-24.8637 201.4373,-19.6427 205.3884,-29.4732 210.6564,-24.8637"/>
</g>
<!-- Node3 -->
<g id="node4" class="node">
<title>Node3</title>
<g id="a_node4"><a xlink:title=" ">
<polygon fill="none" stroke="#bfbfbf" points="242.5,-.5 242.5,-19.5 341.5,-19.5 341.5,-.5 242.5,-.5"/>
<text text-anchor="middle" x="292" y="-7.5" font-family="Helvetica,sans-Serif" font-size="10.00" fill="#000000">string_view</text>
</a>
</g>
</g>
<!-- Node0&#45;&gt;Node3 -->
<g id="edge3" class="edge">
<title>Node0&#45;&gt;Node3</title>
<path fill="none" stroke="#191970" d="M250.7093,-56.2455C257.8073,-48.2958 268.0084,-36.8706 276.495,-27.3656"/>
<polygon fill="#191970" stroke="#191970" points="279.3411,-29.4331 283.3905,-19.6427 274.1195,-24.771 279.3411,-29.4331"/>
</g>
<!-- Node4 -->
<g id="node5" class="node">
<title>Node4</title>
<g id="a_node5"><a xlink:title=" ">
<polygon fill="none" stroke="#bfbfbf" points="360,-.5 360,-19.5 422,-19.5 422,-.5 360,-.5"/>
<text text-anchor="middle" x="391" y="-7.5" font-family="Helvetica,sans-Serif" font-size="10.00" fill="#000000">vector</text>
</a>
</g>
</g>
<!-- Node0&#45;&gt;Node4 -->
<g id="edge4" class="edge">
<title>Node0&#45;&gt;Node4</title>
<path fill="none" stroke="#191970" d="M267.614,-56.3733C292.0687,-47.1822 329.1054,-33.2624 356.2209,-23.0713"/>
<polygon fill="#191970" stroke="#191970" points="357.5909,-26.2956 365.7202,-19.5011 355.1281,-19.7431 357.5909,-26.2956"/>
</g>
</g>
</svg>
