<?xml version="1.0" encoding="UTF-8" standalone="no"?>
<!DOCTYPE svg PUBLIC "-//W3C//DTD SVG 1.1//EN"
 "http://www.w3.org/Graphics/SVG/1.1/DTD/svg11.dtd">
<!-- Generated by graphviz version 2.40.1 (0)
 -->
<!-- Title: leitse Pages: 1 -->
<svg width="100pt" height="188pt"
 viewBox="0.00 0.00 100.00 188.00" xmlns="http://www.w3.org/2000/svg" xmlns:xlink="http://www.w3.org/1999/xlink">
<g id="graph0" class="graph" transform="scale(1 1) rotate(0) translate(4 184)">
<title>leitse</title>
<!-- dir_8ec199b483af31ea1aaf21c4f18b9c0b -->
<g id="node1" class="node">
<title>dir_8ec199b483af31ea1aaf21c4f18b9c0b</title>
<g id="a_node1"><a xlink:href="dir_8ec199b483af31ea1aaf21c4f18b9c0b.html" target="_top" xlink:title="leitse">
<polygon fill="#eeeeff" stroke="#000000" points="62,-180 0,-180 0,-144 62,-144 62,-180"/>
<text text-anchor="middle" x="31" y="-159.5" font-family="Helvetica,sans-Serif" font-size="10.00" fill="#000000">leitse</text>
</a>
</g>
</g>
<!-- dir_cbdb8362360e11eafe2fa3bc74cf0ffd -->
<g id="node2" class="node">
<title>dir_cbdb8362360e11eafe2fa3bc74cf0ffd</title>
<g id="a_node2"><a xlink:href="dir_cbdb8362360e11eafe2fa3bc74cf0ffd.html" target="_top" xlink:title="utils">
<polygon fill="none" stroke="#ff0000" points="58,-36 4,-36 4,0 58,0 58,-36"/>
<text text-anchor="middle" x="31" y="-15.5" font-family="Helvetica,sans-Serif" font-size="10.00" fill="#000000">utils</text>
</a>
</g>
</g>
<!-- dir_8ec199b483af31ea1aaf21c4f18b9c0b&#45;&gt;dir_cbdb8362360e11eafe2fa3bc74cf0ffd -->
<g id="edge2" class="edge">
<title>dir_8ec199b483af31ea1aaf21c4f18b9c0b&#45;&gt;dir_cbdb8362360e11eafe2fa3bc74cf0ffd</title>
<path fill="none" stroke="#000000" d="M26.7325,-143.6221C24.538,-133.2314 22.0984,-119.963 21,-108 19.5372,-92.067 19.5372,-87.933 21,-72 21.7723,-63.5885 23.2077,-54.5317 24.7547,-46.2836"/>
<polygon fill="#000000" stroke="#000000" points="28.2067,-46.8697 26.7325,-36.3779 21.3422,-45.499 28.2067,-46.8697"/>
<g id="a_edge2&#45;headlabel"><a xlink:href="dir_000003_000004.html" target="_top" xlink:title="1">
<text text-anchor="middle" x="30.2873" y="-48.4506" font-family="Helvetica,sans-Serif" font-size="10.00" fill="#000000">1</text>
</a>
</g>
</g>
<!-- dir_9f351d46ce3cc29445a41dc3a31e6919 -->
<g id="node3" class="node">
<title>dir_9f351d46ce3cc29445a41dc3a31e6919</title>
<g id="a_node3"><a xlink:href="dir_9f351d46ce3cc29445a41dc3a31e6919.html" target="_top" xlink:title="config">
<polygon fill="none" stroke="#ff0000" points="92,-108 30,-108 30,-72 92,-72 92,-108"/>
<text text-anchor="middle" x="61" y="-87.5" font-family="Helvetica,sans-Serif" font-size="10.00" fill="#000000">config</text>
</a>
</g>
</g>
<!-- dir_8ec199b483af31ea1aaf21c4f18b9c0b&#45;&gt;dir_9f351d46ce3cc29445a41dc3a31e6919 -->
<g id="edge3" class="edge">
<title>dir_8ec199b483af31ea1aaf21c4f18b9c0b&#45;&gt;dir_9f351d46ce3cc29445a41dc3a31e6919</title>
<path fill="none" stroke="#000000" d="M38.5703,-143.8314C41.8493,-135.9617 45.762,-126.5712 49.3945,-117.8533"/>
<polygon fill="#000000" stroke="#000000" points="52.7124,-118.9902 53.3278,-108.4133 46.2508,-116.2979 52.7124,-118.9902"/>
<g id="a_edge3&#45;headlabel"><a xlink:href="dir_000003_000000.html" target="_top" xlink:title="1">
<text text-anchor="middle" x="53.9507" y="-120.9003" font-family="Helvetica,sans-Serif" font-size="10.00" fill="#000000">1</text>
</a>
</g>
</g>
<!-- dir_9f351d46ce3cc29445a41dc3a31e6919&#45;&gt;dir_cbdb8362360e11eafe2fa3bc74cf0ffd -->
<g id="edge1" class="edge">
<title>dir_9f351d46ce3cc29445a41dc3a31e6919&#45;&gt;dir_cbdb8362360e11eafe2fa3bc74cf0ffd</title>
<path fill="none" stroke="#000000" d="M53.4297,-71.8314C50.1507,-63.9617 46.238,-54.5712 42.6055,-45.8533"/>
<polygon fill="#000000" stroke="#000000" points="45.7492,-44.2979 38.6722,-36.4133 39.2876,-46.9902 45.7492,-44.2979"/>
<g id="a_edge1&#45;headlabel"><a xlink:href="dir_000000_000004.html" target="_top" xlink:title="1">
<text text-anchor="middle" x="49.7525" y="-44.024" font-family="Helvetica,sans-Serif" font-size="10.00" fill="#000000">1</text>
</a>
</g>
</g>
</g>
</svg>
