<?xml version="1.0" encoding="UTF-8" standalone="no"?>
<!DOCTYPE svg PUBLIC "-//W3C//DTD SVG 1.1//EN"
 "http://www.w3.org/Graphics/SVG/1.1/DTD/svg11.dtd">
<!-- Generated by graphviz version 2.40.1 (0)
 -->
<!-- Title: leitse/download.cpp Pages: 1 -->
<svg width="406pt" height="140pt"
 viewBox="0.00 0.00 405.50 140.00" xmlns="http://www.w3.org/2000/svg" xmlns:xlink="http://www.w3.org/1999/xlink">
<g id="graph0" class="graph" transform="scale(1 1) rotate(0) translate(4 136)">
<title>leitse/download.cpp</title>
<!-- Node0 -->
<g id="node1" class="node">
<title>Node0</title>
<g id="a_node1"><a xlink:title=" ">
<polygon fill="#bfbfbf" stroke="#000000" points="151.5,-112.5 151.5,-131.5 310.5,-131.5 310.5,-112.5 151.5,-112.5"/>
<text text-anchor="middle" x="231" y="-119.5" font-family="Helvetica,sans-Serif" font-size="10.00" fill="#000000">leitse/download.cpp</text>
</a>
</g>
</g>
<!-- Node1 -->
<g id="node2" class="node">
<title>Node1</title>
<g id="a_node2"><a xlink:href="download_8h.html" target="_top" xlink:title=" ">
<polygon fill="none" stroke="#000000" points="79,-56.5 79,-75.5 171,-75.5 171,-56.5 79,-56.5"/>
<text text-anchor="middle" x="125" y="-63.5" font-family="Helvetica,sans-Serif" font-size="10.00" fill="#000000">download.h</text>
</a>
</g>
</g>
<!-- Node0&#45;&gt;Node1 -->
<g id="edge1" class="edge">
<title>Node0&#45;&gt;Node1</title>
<path fill="none" stroke="#191970" d="M212.5362,-112.2455C195.8926,-103.4527 171.2007,-90.4079 152.2808,-80.4125"/>
<polygon fill="#191970" stroke="#191970" points="153.7291,-77.2193 143.2522,-75.6427 150.4592,-83.4086 153.7291,-77.2193"/>
</g>
<!-- Node4 -->
<g id="node5" class="node">
<title>Node4</title>
<g id="a_node5"><a xlink:title=" ">
<polygon fill="none" stroke="#bfbfbf" points="189,-56.5 189,-75.5 273,-75.5 273,-56.5 189,-56.5"/>
<text text-anchor="middle" x="231" y="-63.5" font-family="Helvetica,sans-Serif" font-size="10.00" fill="#000000">cpr/api.h</text>
</a>
</g>
</g>
<!-- Node0&#45;&gt;Node4 -->
<g id="edge4" class="edge">
<title>Node0&#45;&gt;Node4</title>
<path fill="none" stroke="#191970" d="M231,-112.2455C231,-104.9382 231,-94.6944 231,-85.7046"/>
<polygon fill="#191970" stroke="#191970" points="234.5001,-85.6426 231,-75.6427 227.5001,-85.6427 234.5001,-85.6426"/>
</g>
<!-- Node5 -->
<g id="node6" class="node">
<title>Node5</title>
<g id="a_node6"><a xlink:title=" ">
<polygon fill="none" stroke="#bfbfbf" points="290.5,-56.5 290.5,-75.5 397.5,-75.5 397.5,-56.5 290.5,-56.5"/>
<text text-anchor="middle" x="344" y="-63.5" font-family="Helvetica,sans-Serif" font-size="10.00" fill="#000000">fmt/format.h</text>
</a>
</g>
</g>
<!-- Node0&#45;&gt;Node5 -->
<g id="edge5" class="edge">
<title>Node0&#45;&gt;Node5</title>
<path fill="none" stroke="#191970" d="M250.4254,-112.3733C268.4021,-103.4644 295.3441,-90.1127 315.709,-80.0203"/>
<polygon fill="#191970" stroke="#191970" points="317.4222,-83.0776 324.8281,-75.5011 314.3139,-76.8055 317.4222,-83.0776"/>
</g>
<!-- Node2 -->
<g id="node3" class="node">
<title>Node2</title>
<g id="a_node3"><a xlink:title=" ">
<polygon fill="none" stroke="#bfbfbf" points="0,-.5 0,-19.5 122,-19.5 122,-.5 0,-.5"/>
<text text-anchor="middle" x="61" y="-7.5" font-family="Helvetica,sans-Serif" font-size="10.00" fill="#000000">cpr/response.h</text>
</a>
</g>
</g>
<!-- Node1&#45;&gt;Node2 -->
<g id="edge2" class="edge">
<title>Node1&#45;&gt;Node2</title>
<path fill="none" stroke="#191970" d="M113.8521,-56.2455C104.4913,-48.0549 90.9142,-36.1749 79.8651,-26.5069"/>
<polygon fill="#191970" stroke="#191970" points="81.8508,-23.5937 72.0202,-19.6427 77.2412,-28.8618 81.8508,-23.5937"/>
</g>
<!-- Node3 -->
<g id="node4" class="node">
<title>Node3</title>
<g id="a_node4"><a xlink:title=" ">
<polygon fill="none" stroke="#bfbfbf" points="140.5,-.5 140.5,-19.5 239.5,-19.5 239.5,-.5 140.5,-.5"/>
<text text-anchor="middle" x="190" y="-7.5" font-family="Helvetica,sans-Serif" font-size="10.00" fill="#000000">string_view</text>
</a>
</g>
</g>
<!-- Node1&#45;&gt;Node3 -->
<g id="edge3" class="edge">
<title>Node1&#45;&gt;Node3</title>
<path fill="none" stroke="#191970" d="M136.3221,-56.2455C145.9223,-47.9746 159.8892,-35.9416 171.1695,-26.2232"/>
<polygon fill="#191970" stroke="#191970" points="173.516,-28.8214 178.8076,-19.6427 168.947,-23.5182 173.516,-28.8214"/>
</g>
</g>
</svg>
