<?xml version="1.0" encoding="UTF-8" standalone="no"?>
<!DOCTYPE svg PUBLIC "-//W3C//DTD SVG 1.1//EN"
 "http://www.w3.org/Graphics/SVG/1.1/DTD/svg11.dtd">
<!-- Generated by graphviz version 2.40.1 (0)
 -->
<!-- Title: leitse/download.h Pages: 1 -->
<svg width="188pt" height="84pt"
 viewBox="0.00 0.00 187.50 84.00" xmlns="http://www.w3.org/2000/svg" xmlns:xlink="http://www.w3.org/1999/xlink">
<g id="graph0" class="graph" transform="scale(1 1) rotate(0) translate(4 80)">
<title>leitse/download.h</title>
<!-- Node0 -->
<g id="node1" class="node">
<title>Node0</title>
<g id="a_node1"><a xlink:title=" ">
<polygon fill="#bfbfbf" stroke="#000000" points="8,-56.5 8,-75.5 152,-75.5 152,-56.5 8,-56.5"/>
<text text-anchor="middle" x="80" y="-63.5" font-family="Helvetica,sans-Serif" font-size="10.00" fill="#000000">leitse/download.h</text>
</a>
</g>
</g>
<!-- Node1 -->
<g id="node2" class="node">
<title>Node1</title>
<g id="a_node2"><a xlink:title=" ">
<polygon fill="none" stroke="#bfbfbf" points="0,-.5 0,-19.5 62,-19.5 62,-.5 0,-.5"/>
<text text-anchor="middle" x="31" y="-7.5" font-family="Helvetica,sans-Serif" font-size="10.00" fill="#000000">string</text>
</a>
</g>
</g>
<!-- Node0&#45;&gt;Node1 -->
<g id="edge1" class="edge">
<title>Node0&#45;&gt;Node1</title>
<path fill="none" stroke="#191970" d="M71.4649,-56.2455C64.5088,-48.2958 54.5117,-36.8706 46.1949,-27.3656"/>
<polygon fill="#191970" stroke="#191970" points="48.6564,-24.8637 39.4373,-19.6427 43.3884,-29.4732 48.6564,-24.8637"/>
</g>
<!-- Node2 -->
<g id="node3" class="node">
<title>Node2</title>
<g id="a_node3"><a xlink:title=" ">
<polygon fill="none" stroke="#bfbfbf" points="80.5,-.5 80.5,-19.5 179.5,-19.5 179.5,-.5 80.5,-.5"/>
<text text-anchor="middle" x="130" y="-7.5" font-family="Helvetica,sans-Serif" font-size="10.00" fill="#000000">string_view</text>
</a>
</g>
</g>
<!-- Node0&#45;&gt;Node2 -->
<g id="edge2" class="edge">
<title>Node0&#45;&gt;Node2</title>
<path fill="none" stroke="#191970" d="M88.7093,-56.2455C95.8073,-48.2958 106.0084,-36.8706 114.495,-27.3656"/>
<polygon fill="#191970" stroke="#191970" points="117.3411,-29.4331 121.3905,-19.6427 112.1195,-24.771 117.3411,-29.4331"/>
</g>
</g>
</svg>
