<?xml version="1.0" encoding="UTF-8" standalone="no"?>
<!DOCTYPE svg PUBLIC "-//W3C//DTD SVG 1.1//EN"
 "http://www.w3.org/Graphics/SVG/1.1/DTD/svg11.dtd">
<!-- Generated by graphviz version 2.40.1 (0)
 -->
<!-- Title: leitse/download.cpp Pages: 1 -->
<svg width="428pt" height="252pt"
 viewBox="0.00 0.00 427.50 252.00" xmlns="http://www.w3.org/2000/svg" xmlns:xlink="http://www.w3.org/1999/xlink">
<g id="graph0" class="graph" transform="scale(1 1) rotate(0) translate(4 248)">
<title>leitse/download.cpp</title>
<!-- Node0 -->
<g id="node1" class="node">
<title>Node0</title>
<g id="a_node1"><a xlink:title=" ">
<polygon fill="#bfbfbf" stroke="#000000" points="30,-224.5 30,-243.5 189,-243.5 189,-224.5 30,-224.5"/>
<text text-anchor="middle" x="109.5" y="-231.5" font-family="Helvetica,sans-Serif" font-size="10.00" fill="#000000">leitse/download.cpp</text>
</a>
</g>
</g>
<!-- Node1 -->
<g id="node2" class="node">
<title>Node1</title>
<g id="a_node2"><a xlink:href="download_8h.html" target="_top" xlink:title=" ">
<polygon fill="none" stroke="#000000" points="3.5,-168.5 3.5,-187.5 95.5,-187.5 95.5,-168.5 3.5,-168.5"/>
<text text-anchor="middle" x="49.5" y="-175.5" font-family="Helvetica,sans-Serif" font-size="10.00" fill="#000000">download.h</text>
</a>
</g>
</g>
<!-- Node0&#45;&gt;Node1 -->
<g id="edge1" class="edge">
<title>Node0&#45;&gt;Node1</title>
<path fill="none" stroke="#191970" d="M99.0488,-224.2455C90.2731,-216.0549 77.5446,-204.1749 67.186,-194.5069"/>
<polygon fill="#191970" stroke="#191970" points="69.5301,-191.9072 59.8314,-187.6427 64.7539,-197.0246 69.5301,-191.9072"/>
</g>
<!-- Node4 -->
<g id="node5" class="node">
<title>Node4</title>
<g id="a_node5"><a xlink:href="simple__curl_8h.html" target="_top" xlink:title=" ">
<polygon fill="none" stroke="#000000" points="113.5,-168.5 113.5,-187.5 227.5,-187.5 227.5,-168.5 113.5,-168.5"/>
<text text-anchor="middle" x="170.5" y="-175.5" font-family="Helvetica,sans-Serif" font-size="10.00" fill="#000000">simple_curl.h</text>
</a>
</g>
</g>
<!-- Node0&#45;&gt;Node4 -->
<g id="edge4" class="edge">
<title>Node0&#45;&gt;Node4</title>
<path fill="none" stroke="#191970" d="M120.1254,-224.2455C129.0473,-216.0549 141.988,-204.1749 152.5192,-194.5069"/>
<polygon fill="#191970" stroke="#191970" points="154.9968,-196.9837 159.9964,-187.6427 150.2629,-191.8271 154.9968,-196.9837"/>
</g>
<!-- Node2 -->
<g id="node3" class="node">
<title>Node2</title>
<g id="a_node3"><a xlink:title=" ">
<polygon fill="none" stroke="#bfbfbf" points="117.5,-112.5 117.5,-131.5 179.5,-131.5 179.5,-112.5 117.5,-112.5"/>
<text text-anchor="middle" x="148.5" y="-119.5" font-family="Helvetica,sans-Serif" font-size="10.00" fill="#000000">string</text>
</a>
</g>
</g>
<!-- Node1&#45;&gt;Node2 -->
<g id="edge2" class="edge">
<title>Node1&#45;&gt;Node2</title>
<path fill="none" stroke="#191970" d="M66.7445,-168.2455C82.0761,-159.5731 104.7199,-146.7645 122.2916,-136.825"/>
<polygon fill="#191970" stroke="#191970" points="124.4724,-139.6126 131.4531,-131.6427 121.0259,-133.5198 124.4724,-139.6126"/>
</g>
<!-- Node3 -->
<g id="node4" class="node">
<title>Node3</title>
<g id="a_node4"><a xlink:title=" ">
<polygon fill="none" stroke="#bfbfbf" points="0,-112.5 0,-131.5 99,-131.5 99,-112.5 0,-112.5"/>
<text text-anchor="middle" x="49.5" y="-119.5" font-family="Helvetica,sans-Serif" font-size="10.00" fill="#000000">string_view</text>
</a>
</g>
</g>
<!-- Node1&#45;&gt;Node3 -->
<g id="edge3" class="edge">
<title>Node1&#45;&gt;Node3</title>
<path fill="none" stroke="#191970" d="M49.5,-168.2455C49.5,-160.9382 49.5,-150.6944 49.5,-141.7046"/>
<polygon fill="#191970" stroke="#191970" points="53.0001,-141.6426 49.5,-131.6427 46.0001,-141.6427 53.0001,-141.6426"/>
</g>
<!-- Node4&#45;&gt;Node2 -->
<g id="edge9" class="edge">
<title>Node4&#45;&gt;Node2</title>
<path fill="none" stroke="#191970" d="M166.6679,-168.2455C163.7341,-160.7776 159.5953,-150.2427 156.009,-141.1137"/>
<polygon fill="#191970" stroke="#191970" points="159.2024,-139.6704 152.2882,-131.6427 152.6871,-142.23 159.2024,-139.6704"/>
</g>
<!-- Node4&#45;&gt;Node3 -->
<g id="edge10" class="edge">
<title>Node4&#45;&gt;Node3</title>
<path fill="none" stroke="#191970" d="M149.6994,-168.3733C130.2757,-159.3838 101.0776,-145.8706 79.2036,-135.7471"/>
<polygon fill="#191970" stroke="#191970" points="80.5745,-132.5249 70.0292,-131.5011 77.6344,-138.8776 80.5745,-132.5249"/>
</g>
<!-- Node5 -->
<g id="node6" class="node">
<title>Node5</title>
<g id="a_node6"><a xlink:href="curl__handle_8h.html" target="_top" xlink:title=" ">
<polygon fill="none" stroke="#000000" points="197.5,-112.5 197.5,-131.5 311.5,-131.5 311.5,-112.5 197.5,-112.5"/>
<text text-anchor="middle" x="254.5" y="-119.5" font-family="Helvetica,sans-Serif" font-size="10.00" fill="#000000">curl_handle.h</text>
</a>
</g>
</g>
<!-- Node4&#45;&gt;Node5 -->
<g id="edge5" class="edge">
<title>Node4&#45;&gt;Node5</title>
<path fill="none" stroke="#191970" d="M185.1317,-168.2455C197.8994,-159.7337 216.6438,-147.2375 231.4299,-137.3801"/>
<polygon fill="#191970" stroke="#191970" points="233.6569,-140.1019 240.036,-131.6427 229.774,-134.2775 233.6569,-140.1019"/>
</g>
<!-- Node6 -->
<g id="node7" class="node">
<title>Node6</title>
<g id="a_node7"><a xlink:title=" ">
<polygon fill="none" stroke="#bfbfbf" points="128,-56.5 128,-75.5 227,-75.5 227,-56.5 128,-56.5"/>
<text text-anchor="middle" x="177.5" y="-63.5" font-family="Helvetica,sans-Serif" font-size="10.00" fill="#000000">curl/curl.h</text>
</a>
</g>
</g>
<!-- Node5&#45;&gt;Node6 -->
<g id="edge6" class="edge">
<title>Node5&#45;&gt;Node6</title>
<path fill="none" stroke="#191970" d="M241.0876,-112.2455C229.4943,-103.814 212.5252,-91.4729 199.0322,-81.6598"/>
<polygon fill="#191970" stroke="#191970" points="200.9047,-78.6938 190.7587,-75.6427 196.7874,-84.355 200.9047,-78.6938"/>
</g>
<!-- Node7 -->
<g id="node8" class="node">
<title>Node7</title>
<g id="a_node8"><a xlink:href="shared__handle_8h.html" target="_top" xlink:title=" ">
<polygon fill="none" stroke="#000000" points="245.5,-56.5 245.5,-75.5 419.5,-75.5 419.5,-56.5 245.5,-56.5"/>
<text text-anchor="middle" x="332.5" y="-63.5" font-family="Helvetica,sans-Serif" font-size="10.00" fill="#000000">utils/shared_handle.h</text>
</a>
</g>
</g>
<!-- Node5&#45;&gt;Node7 -->
<g id="edge7" class="edge">
<title>Node5&#45;&gt;Node7</title>
<path fill="none" stroke="#191970" d="M268.0866,-112.2455C279.8305,-103.814 297.0199,-91.4729 310.6882,-81.6598"/>
<polygon fill="#191970" stroke="#191970" points="312.9871,-84.3179 319.0691,-75.6427 308.9046,-78.6316 312.9871,-84.3179"/>
</g>
<!-- Node8 -->
<g id="node9" class="node">
<title>Node8</title>
<g id="a_node9"><a xlink:title=" ">
<polygon fill="none" stroke="#bfbfbf" points="301.5,-.5 301.5,-19.5 363.5,-19.5 363.5,-.5 301.5,-.5"/>
<text text-anchor="middle" x="332.5" y="-7.5" font-family="Helvetica,sans-Serif" font-size="10.00" fill="#000000">memory</text>
</a>
</g>
</g>
<!-- Node7&#45;&gt;Node8 -->
<g id="edge8" class="edge">
<title>Node7&#45;&gt;Node8</title>
<path fill="none" stroke="#191970" d="M332.5,-56.2455C332.5,-48.9382 332.5,-38.6944 332.5,-29.7046"/>
<polygon fill="#191970" stroke="#191970" points="336.0001,-29.6426 332.5,-19.6427 329.0001,-29.6427 336.0001,-29.6426"/>
</g>
</g>
</svg>
