<?xml version="1.0" encoding="UTF-8" standalone="no"?>
<!DOCTYPE svg PUBLIC "-//W3C//DTD SVG 1.1//EN"
 "http://www.w3.org/Graphics/SVG/1.1/DTD/svg11.dtd">
<!-- Generated by graphviz version 2.40.1 (0)
 -->
<!-- Title: leitse/download.h Pages: 1 -->
<svg width="508pt" height="84pt"
 viewBox="0.00 0.00 508.00 84.00" xmlns="http://www.w3.org/2000/svg" xmlns:xlink="http://www.w3.org/1999/xlink">
<g id="graph0" class="graph" transform="scale(1 1) rotate(0) translate(4 80)">
<title>leitse/download.h</title>
<!-- Node3 -->
<g id="node1" class="node">
<title>Node3</title>
<g id="a_node1"><a xlink:title=" ">
<polygon fill="#bfbfbf" stroke="#000000" points="208,-56.5 208,-75.5 352,-75.5 352,-56.5 208,-56.5"/>
<text text-anchor="middle" x="280" y="-63.5" font-family="Helvetica,sans-Serif" font-size="10.00" fill="#000000">leitse/download.h</text>
</a>
</g>
</g>
<!-- Node4 -->
<g id="node2" class="node">
<title>Node4</title>
<g id="a_node2"><a xlink:href="data__dragon_8cpp.html" target="_top" xlink:title=" ">
<polygon fill="none" stroke="#000000" points="0,-.5 0,-19.5 182,-19.5 182,-.5 0,-.5"/>
<text text-anchor="middle" x="91" y="-7.5" font-family="Helvetica,sans-Serif" font-size="10.00" fill="#000000">leitse/data_dragon.cpp</text>
</a>
</g>
</g>
<!-- Node3&#45;&gt;Node4 -->
<g id="edge1" class="edge">
<title>Node3&#45;&gt;Node4</title>
<path fill="none" stroke="#191970" d="M237.6643,-53.4561C202.9706,-43.1765 154.6166,-28.8494 123.0663,-19.5011"/>
<polygon fill="#191970" stroke="#191970" points="236.9274,-56.8881 247.5097,-56.3733 238.9161,-50.1765 236.9274,-56.8881"/>
</g>
<!-- Node5 -->
<g id="node3" class="node">
<title>Node5</title>
<g id="a_node3"><a xlink:href="download_8cpp.html" target="_top" xlink:title=" ">
<polygon fill="none" stroke="#000000" points="200.5,-.5 200.5,-19.5 359.5,-19.5 359.5,-.5 200.5,-.5"/>
<text text-anchor="middle" x="280" y="-7.5" font-family="Helvetica,sans-Serif" font-size="10.00" fill="#000000">leitse/download.cpp</text>
</a>
</g>
</g>
<!-- Node3&#45;&gt;Node5 -->
<g id="edge2" class="edge">
<title>Node3&#45;&gt;Node5</title>
<path fill="none" stroke="#191970" d="M280,-46.1575C280,-37.155 280,-26.9199 280,-19.6427"/>
<polygon fill="#191970" stroke="#191970" points="276.5001,-46.2455 280,-56.2455 283.5001,-46.2456 276.5001,-46.2455"/>
</g>
<!-- Node6 -->
<g id="node4" class="node">
<title>Node6</title>
<g id="a_node4"><a xlink:href="ugg_8cpp.html" target="_top" xlink:title=" ">
<polygon fill="none" stroke="#000000" points="378,-.5 378,-19.5 500,-19.5 500,-.5 378,-.5"/>
<text text-anchor="middle" x="439" y="-7.5" font-family="Helvetica,sans-Serif" font-size="10.00" fill="#000000">leitse/ugg.cpp</text>
</a>
</g>
</g>
<!-- Node3&#45;&gt;Node6 -->
<g id="edge3" class="edge">
<title>Node3&#45;&gt;Node6</title>
<path fill="none" stroke="#191970" d="M317.129,-52.9231C346.195,-42.686 385.9369,-28.6889 412.0236,-19.5011"/>
<polygon fill="#191970" stroke="#191970" points="315.6025,-49.75 307.3331,-56.3733 317.9279,-56.3524 315.6025,-49.75"/>
</g>
</g>
</svg>
