<?xml version="1.0" encoding="UTF-8" standalone="no"?>
<!DOCTYPE svg PUBLIC "-//W3C//DTD SVG 1.1//EN"
 "http://www.w3.org/Graphics/SVG/1.1/DTD/svg11.dtd">
<!-- Generated by graphviz version 2.40.1 (0)
 -->
<!-- Title: leitse/item_set.h Pages: 1 -->
<svg width="278pt" height="196pt"
 viewBox="0.00 0.00 277.50 196.00" xmlns="http://www.w3.org/2000/svg" xmlns:xlink="http://www.w3.org/1999/xlink">
<g id="graph0" class="graph" transform="scale(1 1) rotate(0) translate(4 192)">
<title>leitse/item_set.h</title>
<!-- Node1 -->
<g id="node1" class="node">
<title>Node1</title>
<g id="a_node1"><a xlink:title=" ">
<polygon fill="#bfbfbf" stroke="#000000" points="64.5,-168.5 64.5,-187.5 208.5,-187.5 208.5,-168.5 64.5,-168.5"/>
<text text-anchor="middle" x="136.5" y="-175.5" font-family="Helvetica,sans-Serif" font-size="10.00" fill="#000000">leitse/item_set.h</text>
</a>
</g>
</g>
<!-- Node2 -->
<g id="node2" class="node">
<title>Node2</title>
<g id="a_node2"><a xlink:href="aggregator_8h.html" target="_top" xlink:title=" ">
<polygon fill="none" stroke="#000000" points="57,-112.5 57,-131.5 216,-131.5 216,-112.5 57,-112.5"/>
<text text-anchor="middle" x="136.5" y="-119.5" font-family="Helvetica,sans-Serif" font-size="10.00" fill="#000000">leitse/aggregator.h</text>
</a>
</g>
</g>
<!-- Node1&#45;&gt;Node2 -->
<g id="edge1" class="edge">
<title>Node1&#45;&gt;Node2</title>
<path fill="none" stroke="#191970" d="M136.5,-158.1575C136.5,-149.155 136.5,-138.9199 136.5,-131.6427"/>
<polygon fill="#191970" stroke="#191970" points="133.0001,-158.2455 136.5,-168.2455 140.0001,-158.2456 133.0001,-158.2455"/>
</g>
<!-- Node3 -->
<g id="node3" class="node">
<title>Node3</title>
<g id="a_node3"><a xlink:href="ugg_8h.html" target="_top" xlink:title=" ">
<polygon fill="none" stroke="#000000" points="83,-56.5 83,-75.5 190,-75.5 190,-56.5 83,-56.5"/>
<text text-anchor="middle" x="136.5" y="-63.5" font-family="Helvetica,sans-Serif" font-size="10.00" fill="#000000">leitse/ugg.h</text>
</a>
</g>
</g>
<!-- Node2&#45;&gt;Node3 -->
<g id="edge2" class="edge">
<title>Node2&#45;&gt;Node3</title>
<path fill="none" stroke="#191970" d="M136.5,-102.1575C136.5,-93.155 136.5,-82.9199 136.5,-75.6427"/>
<polygon fill="#191970" stroke="#191970" points="133.0001,-102.2455 136.5,-112.2455 140.0001,-102.2456 133.0001,-102.2455"/>
</g>
<!-- Node4 -->
<g id="node4" class="node">
<title>Node4</title>
<g id="a_node4"><a xlink:href="main_8cpp.html" target="_top" xlink:title=" ">
<polygon fill="none" stroke="#000000" points="0,-.5 0,-19.5 129,-19.5 129,-.5 0,-.5"/>
<text text-anchor="middle" x="64.5" y="-7.5" font-family="Helvetica,sans-Serif" font-size="10.00" fill="#000000">leitse/main.cpp</text>
</a>
</g>
</g>
<!-- Node3&#45;&gt;Node4 -->
<g id="edge3" class="edge">
<title>Node3&#45;&gt;Node4</title>
<path fill="none" stroke="#191970" d="M115.836,-49.928C103.2511,-40.1397 87.5908,-27.9595 76.8977,-19.6427"/>
<polygon fill="#191970" stroke="#191970" points="113.9162,-52.8688 123.9586,-56.2455 118.2138,-47.3434 113.9162,-52.8688"/>
</g>
<!-- Node5 -->
<g id="node5" class="node">
<title>Node5</title>
<g id="a_node5"><a xlink:href="ugg_8cpp.html" target="_top" xlink:title=" ">
<polygon fill="none" stroke="#000000" points="147.5,-.5 147.5,-19.5 269.5,-19.5 269.5,-.5 147.5,-.5"/>
<text text-anchor="middle" x="208.5" y="-7.5" font-family="Helvetica,sans-Serif" font-size="10.00" fill="#000000">leitse/ugg.cpp</text>
</a>
</g>
</g>
<!-- Node3&#45;&gt;Node5 -->
<g id="edge4" class="edge">
<title>Node3&#45;&gt;Node5</title>
<path fill="none" stroke="#191970" d="M157.164,-49.928C169.7489,-40.1397 185.4092,-27.9595 196.1023,-19.6427"/>
<polygon fill="#191970" stroke="#191970" points="154.7862,-47.3434 149.0414,-56.2455 159.0838,-52.8688 154.7862,-47.3434"/>
</g>
</g>
</svg>
