<?xml version="1.0" encoding="UTF-8" standalone="no"?>
<!DOCTYPE svg PUBLIC "-//W3C//DTD SVG 1.1//EN"
 "http://www.w3.org/Graphics/SVG/1.1/DTD/svg11.dtd">
<!-- Generated by graphviz version 2.40.1 (0)
 -->
<!-- Title: leitse/main.cpp Pages: 1 -->
<svg width="2085pt" height="263pt"
 viewBox="0.00 0.00 2085.00 263.00" xmlns="http://www.w3.org/2000/svg" xmlns:xlink="http://www.w3.org/1999/xlink">
<g id="graph0" class="graph" transform="scale(1 1) rotate(0) translate(4 259)">
<title>leitse/main.cpp</title>
<!-- Node0 -->
<g id="node1" class="node">
<title>Node0</title>
<g id="a_node1"><a xlink:title=" ">
<polygon fill="#bfbfbf" stroke="#000000" points="1384,-235.5 1384,-254.5 1513,-254.5 1513,-235.5 1384,-235.5"/>
<text text-anchor="middle" x="1448.5" y="-242.5" font-family="Helvetica,sans-Serif" font-size="10.00" fill="#000000">leitse/main.cpp</text>
</a>
</g>
</g>
<!-- Node1 -->
<g id="node2" class="node">
<title>Node1</title>
<g id="a_node2"><a xlink:href="curl__handle_8h.html" target="_top" xlink:title=" ">
<polygon fill="none" stroke="#000000" points="147.5,-174 147.5,-193 261.5,-193 261.5,-174 147.5,-174"/>
<text text-anchor="middle" x="204.5" y="-181" font-family="Helvetica,sans-Serif" font-size="10.00" fill="#000000">curl_handle.h</text>
</a>
</g>
</g>
<!-- Node0&#45;&gt;Node1 -->
<g id="edge1" class="edge">
<title>Node0&#45;&gt;Node1</title>
<path fill="none" stroke="#191970" d="M1383.8119,-241.8144C1232.2481,-234.3491 842.3333,-215.1346 516.5,-199 432.2223,-194.8267 335.1402,-190.0008 271.9485,-186.8571"/>
<polygon fill="#191970" stroke="#191970" points="271.8795,-183.3494 261.7179,-186.3481 271.5316,-190.3408 271.8795,-183.3494"/>
</g>
<!-- Node5 -->
<g id="node6" class="node">
<title>Node5</title>
<g id="a_node6"><a xlink:href="ugg_8h.html" target="_top" xlink:title=" ">
<polygon fill="none" stroke="#000000" points="525.5,-174 525.5,-193 579.5,-193 579.5,-174 525.5,-174"/>
<text text-anchor="middle" x="552.5" y="-181" font-family="Helvetica,sans-Serif" font-size="10.00" fill="#000000">ugg.h</text>
</a>
</g>
</g>
<!-- Node0&#45;&gt;Node5 -->
<g id="edge5" class="edge">
<title>Node0&#45;&gt;Node5</title>
<path fill="none" stroke="#191970" d="M1383.7614,-242.3436C1251.9708,-236.6621 943.0962,-221.9491 684.5,-199 652.3398,-196.1459 615.9004,-191.7812 589.4678,-188.4098"/>
<polygon fill="#191970" stroke="#191970" points="589.8694,-184.9327 579.504,-187.1256 588.9745,-191.8752 589.8694,-184.9327"/>
</g>
<!-- Node11 -->
<g id="node12" class="node">
<title>Node11</title>
<g id="a_node12"><a xlink:title=" ">
<polygon fill="none" stroke="#bfbfbf" points="694.5,-.5 694.5,-19.5 756.5,-19.5 756.5,-.5 694.5,-.5"/>
<text text-anchor="middle" x="725.5" y="-7.5" font-family="Helvetica,sans-Serif" font-size="10.00" fill="#000000">vector</text>
</a>
</g>
</g>
<!-- Node0&#45;&gt;Node11 -->
<g id="edge38" class="edge">
<title>Node0&#45;&gt;Node11</title>
<path fill="none" stroke="#191970" d="M1383.9587,-239.8989C1213.1785,-225.7368 759.6183,-183.5601 717.5,-132 711.8766,-125.116 716.4139,-120.8223 717.5,-112 719.5151,-95.6311 724.4849,-92.3689 726.5,-76 727.5861,-67.1777 726.5966,-64.8884 726.5,-56 726.4057,-47.3235 726.2114,-37.7282 726.0189,-29.5559"/>
<polygon fill="#191970" stroke="#191970" points="729.5168,-29.4229 725.7671,-19.5138 722.519,-29.5984 729.5168,-29.4229"/>
</g>
<!-- Node13 -->
<g id="node14" class="node">
<title>Node13</title>
<g id="a_node14"><a xlink:title=" ">
<polygon fill="none" stroke="#bfbfbf" points="1137.5,-.5 1137.5,-19.5 1229.5,-19.5 1229.5,-.5 1137.5,-.5"/>
<text text-anchor="middle" x="1183.5" y="-7.5" font-family="Helvetica,sans-Serif" font-size="10.00" fill="#000000">filesystem</text>
</a>
</g>
</g>
<!-- Node0&#45;&gt;Node13 -->
<g id="edge36" class="edge">
<title>Node0&#45;&gt;Node13</title>
<path fill="none" stroke="#191970" d="M1513.0674,-235.6525C1605.3494,-219.6407 1757.8285,-181.744 1700.5,-112 1642.6401,-41.6095 1361.8075,-19.0058 1240.0246,-12.4403"/>
<polygon fill="#191970" stroke="#191970" points="1239.9598,-8.9323 1229.791,-11.9063 1239.595,-15.9228 1239.9598,-8.9323"/>
</g>
<!-- Node15 -->
<g id="node16" class="node">
<title>Node15</title>
<g id="a_node16"><a xlink:href="config_8h.html" target="_top" xlink:title=" ">
<polygon fill="none" stroke="#000000" points="1056,-174 1056,-193 1185,-193 1185,-174 1056,-174"/>
<text text-anchor="middle" x="1120.5" y="-181" font-family="Helvetica,sans-Serif" font-size="10.00" fill="#000000">config/config.h</text>
</a>
</g>
</g>
<!-- Node0&#45;&gt;Node15 -->
<g id="edge20" class="edge">
<title>Node0&#45;&gt;Node15</title>
<path fill="none" stroke="#191970" d="M1397.6099,-235.4581C1339.2305,-224.512 1243.5679,-206.5752 1181.3139,-194.9026"/>
<polygon fill="#191970" stroke="#191970" points="1181.7134,-191.4166 1171.2396,-193.0137 1180.4233,-198.2967 1181.7134,-191.4166"/>
</g>
<!-- Node21 -->
<g id="node22" class="node">
<title>Node21</title>
<g id="a_node22"><a xlink:title=" ">
<polygon fill="none" stroke="#bfbfbf" points="1747.5,-168.5 1747.5,-198.5 1899.5,-198.5 1899.5,-168.5 1747.5,-168.5"/>
<text text-anchor="start" x="1755.5" y="-186.5" font-family="Helvetica,sans-Serif" font-size="10.00" fill="#000000">spdlog/sinks/basic</text>
<text text-anchor="middle" x="1823.5" y="-175.5" font-family="Helvetica,sans-Serif" font-size="10.00" fill="#000000">_file_sink.h</text>
</a>
</g>
</g>
<!-- Node0&#45;&gt;Node21 -->
<g id="edge27" class="edge">
<title>Node0&#45;&gt;Node21</title>
<path fill="none" stroke="#191970" d="M1508.5785,-235.4913C1566.277,-226.3148 1655.8848,-211.9469 1733.5,-199 1734.7756,-198.7872 1736.0612,-198.5723 1737.355,-198.3555"/>
<polygon fill="#191970" stroke="#191970" points="1738.1211,-201.7759 1747.401,-196.6639 1736.9587,-194.873 1738.1211,-201.7759"/>
</g>
<!-- Node22 -->
<g id="node23" class="node">
<title>Node22</title>
<g id="a_node23"><a xlink:title=" ">
<polygon fill="none" stroke="#bfbfbf" points="1918,-168.5 1918,-198.5 2077,-198.5 2077,-168.5 1918,-168.5"/>
<text text-anchor="start" x="1926" y="-186.5" font-family="Helvetica,sans-Serif" font-size="10.00" fill="#000000">spdlog/sinks/stdout</text>
<text text-anchor="middle" x="1997.5" y="-175.5" font-family="Helvetica,sans-Serif" font-size="10.00" fill="#000000">_color_sinks.h</text>
</a>
</g>
</g>
<!-- Node0&#45;&gt;Node22 -->
<g id="edge28" class="edge">
<title>Node0&#45;&gt;Node22</title>
<path fill="none" stroke="#191970" d="M1513.049,-240.0359C1600.1999,-233.0019 1760.5451,-218.8923 1907.837,-199.0249"/>
<polygon fill="#191970" stroke="#191970" points="1908.5316,-202.4627 1917.9683,-197.6463 1907.5877,-195.5266 1908.5316,-202.4627"/>
</g>
<!-- Node23 -->
<g id="node24" class="node">
<title>Node23</title>
<g id="a_node24"><a xlink:href="thread__pool_8h.html" target="_top" xlink:title=" ">
<polygon fill="none" stroke="#000000" points="1369,-174 1369,-193 1528,-193 1528,-174 1369,-174"/>
<text text-anchor="middle" x="1448.5" y="-181" font-family="Helvetica,sans-Serif" font-size="10.00" fill="#000000">utils/thread_pool.h</text>
</a>
</g>
</g>
<!-- Node0&#45;&gt;Node23 -->
<g id="edge29" class="edge">
<title>Node0&#45;&gt;Node23</title>
<path fill="none" stroke="#191970" d="M1448.5,-235.3906C1448.5,-226.8657 1448.5,-214.1392 1448.5,-203.4235"/>
<polygon fill="#191970" stroke="#191970" points="1452.0001,-203.2448 1448.5,-193.2449 1445.0001,-203.2449 1452.0001,-203.2448"/>
</g>
<!-- Node27 -->
<g id="node28" class="node">
<title>Node27</title>
<g id="a_node28"><a xlink:title=" ">
<polygon fill="none" stroke="#bfbfbf" points="1629.5,-112.5 1629.5,-131.5 1691.5,-131.5 1691.5,-112.5 1629.5,-112.5"/>
<text text-anchor="middle" x="1660.5" y="-119.5" font-family="Helvetica,sans-Serif" font-size="10.00" fill="#000000">thread</text>
</a>
</g>
</g>
<!-- Node0&#45;&gt;Node27 -->
<g id="edge37" class="edge">
<title>Node0&#45;&gt;Node27</title>
<path fill="none" stroke="#191970" d="M1467.9481,-235.355C1485.9287,-226.3154 1513.2938,-212.2463 1536.5,-199 1572.2119,-178.6153 1612.4721,-153.1355 1637.1661,-137.21"/>
<polygon fill="#191970" stroke="#191970" points="1639.333,-139.9767 1645.8262,-131.6048 1635.5294,-134.1002 1639.333,-139.9767"/>
</g>
<!-- Node2 -->
<g id="node3" class="node">
<title>Node2</title>
<g id="a_node3"><a xlink:title=" ">
<polygon fill="none" stroke="#bfbfbf" points="0,-112.5 0,-131.5 99,-131.5 99,-112.5 0,-112.5"/>
<text text-anchor="middle" x="49.5" y="-119.5" font-family="Helvetica,sans-Serif" font-size="10.00" fill="#000000">curl/curl.h</text>
</a>
</g>
</g>
<!-- Node1&#45;&gt;Node2 -->
<g id="edge2" class="edge">
<title>Node1&#45;&gt;Node2</title>
<path fill="none" stroke="#191970" d="M180.2813,-173.8906C154.1194,-163.5103 112.2571,-146.9004 82.9612,-135.2766"/>
<polygon fill="#191970" stroke="#191970" points="84.1346,-131.9767 73.5487,-131.5419 81.5529,-138.4833 84.1346,-131.9767"/>
</g>
<!-- Node3 -->
<g id="node4" class="node">
<title>Node3</title>
<g id="a_node4"><a xlink:href="shared__handle_8h.html" target="_top" xlink:title=" ">
<polygon fill="none" stroke="#000000" points="117.5,-112.5 117.5,-131.5 291.5,-131.5 291.5,-112.5 117.5,-112.5"/>
<text text-anchor="middle" x="204.5" y="-119.5" font-family="Helvetica,sans-Serif" font-size="10.00" fill="#000000">utils/shared_handle.h</text>
</a>
</g>
</g>
<!-- Node1&#45;&gt;Node3 -->
<g id="edge3" class="edge">
<title>Node1&#45;&gt;Node3</title>
<path fill="none" stroke="#191970" d="M204.5,-173.8906C204.5,-165.3657 204.5,-152.6392 204.5,-141.9235"/>
<polygon fill="#191970" stroke="#191970" points="208.0001,-141.7448 204.5,-131.7449 201.0001,-141.7449 208.0001,-141.7448"/>
</g>
<!-- Node4 -->
<g id="node5" class="node">
<title>Node4</title>
<g id="a_node5"><a xlink:title=" ">
<polygon fill="none" stroke="#bfbfbf" points="173.5,-56.5 173.5,-75.5 235.5,-75.5 235.5,-56.5 173.5,-56.5"/>
<text text-anchor="middle" x="204.5" y="-63.5" font-family="Helvetica,sans-Serif" font-size="10.00" fill="#000000">memory</text>
</a>
</g>
</g>
<!-- Node3&#45;&gt;Node4 -->
<g id="edge4" class="edge">
<title>Node3&#45;&gt;Node4</title>
<path fill="none" stroke="#191970" d="M204.5,-112.2455C204.5,-104.9382 204.5,-94.6944 204.5,-85.7046"/>
<polygon fill="#191970" stroke="#191970" points="208.0001,-85.6426 204.5,-75.6427 201.0001,-85.6427 208.0001,-85.6426"/>
</g>
<!-- Node6 -->
<g id="node7" class="node">
<title>Node6</title>
<g id="a_node7"><a xlink:href="aggregator_8h.html" target="_top" xlink:title=" ">
<polygon fill="none" stroke="#000000" points="499,-112.5 499,-131.5 606,-131.5 606,-112.5 499,-112.5"/>
<text text-anchor="middle" x="552.5" y="-119.5" font-family="Helvetica,sans-Serif" font-size="10.00" fill="#000000">aggregator.h</text>
</a>
</g>
</g>
<!-- Node5&#45;&gt;Node6 -->
<g id="edge6" class="edge">
<title>Node5&#45;&gt;Node6</title>
<path fill="none" stroke="#191970" d="M552.5,-173.8906C552.5,-165.3657 552.5,-152.6392 552.5,-141.9235"/>
<polygon fill="#191970" stroke="#191970" points="556.0001,-141.7448 552.5,-131.7449 549.0001,-141.7449 556.0001,-141.7448"/>
</g>
<!-- Node8 -->
<g id="node9" class="node">
<title>Node8</title>
<g id="a_node9"><a xlink:title=" ">
<polygon fill="none" stroke="#bfbfbf" points="219.5,-.5 219.5,-19.5 363.5,-19.5 363.5,-.5 219.5,-.5"/>
<text text-anchor="middle" x="291.5" y="-7.5" font-family="Helvetica,sans-Serif" font-size="10.00" fill="#000000">nlohmann/json.hpp</text>
</a>
</g>
</g>
<!-- Node5&#45;&gt;Node8 -->
<g id="edge19" class="edge">
<title>Node5&#45;&gt;Node8</title>
<path fill="none" stroke="#191970" d="M525.3729,-174.7114C482.1847,-159.7269 396.7361,-125.929 338.5,-76 322.8817,-62.6096 309.7691,-42.9783 301.3966,-28.607"/>
<polygon fill="#191970" stroke="#191970" points="304.3187,-26.6612 296.385,-19.6394 298.2082,-30.0762 304.3187,-26.6612"/>
</g>
<!-- Node7 -->
<g id="node8" class="node">
<title>Node7</title>
<g id="a_node8"><a xlink:href="data__dragon_8h.html" target="_top" xlink:title=" ">
<polygon fill="none" stroke="#000000" points="347.5,-56.5 347.5,-75.5 461.5,-75.5 461.5,-56.5 347.5,-56.5"/>
<text text-anchor="middle" x="404.5" y="-63.5" font-family="Helvetica,sans-Serif" font-size="10.00" fill="#000000">data_dragon.h</text>
</a>
</g>
</g>
<!-- Node6&#45;&gt;Node7 -->
<g id="edge7" class="edge">
<title>Node6&#45;&gt;Node7</title>
<path fill="none" stroke="#191970" d="M527.0579,-112.3733C502.7674,-103.1822 465.9792,-89.2624 439.0457,-79.0713"/>
<polygon fill="#191970" stroke="#191970" points="440.2016,-75.7666 429.6101,-75.5011 437.7243,-82.3136 440.2016,-75.7666"/>
</g>
<!-- Node9 -->
<g id="node10" class="node">
<title>Node9</title>
<g id="a_node10"><a xlink:title=" ">
<polygon fill="none" stroke="#bfbfbf" points="499.5,-.5 499.5,-19.5 561.5,-19.5 561.5,-.5 499.5,-.5"/>
<text text-anchor="middle" x="530.5" y="-7.5" font-family="Helvetica,sans-Serif" font-size="10.00" fill="#000000">string</text>
</a>
</g>
</g>
<!-- Node6&#45;&gt;Node9 -->
<g id="edge16" class="edge">
<title>Node6&#45;&gt;Node9</title>
<path fill="none" stroke="#191970" d="M538.8664,-112.4516C528.3452,-104.1822 514.5909,-91.1795 508.5,-76 502.1299,-60.1247 509.5412,-41.6149 517.4351,-28.2442"/>
<polygon fill="#191970" stroke="#191970" points="520.5816,-29.8243 523.0783,-19.5278 514.7056,-26.02 520.5816,-29.8243"/>
</g>
<!-- Node6&#45;&gt;Node11 -->
<g id="edge18" class="edge">
<title>Node6&#45;&gt;Node11</title>
<path fill="none" stroke="#191970" d="M602.6627,-112.4361C641.7701,-104.0201 691.825,-90.822 706.5,-76 718.5333,-63.8462 723.0468,-44.592 724.6896,-30.0098"/>
<polygon fill="#191970" stroke="#191970" points="728.185,-30.2035 725.4632,-19.9643 721.2056,-29.666 728.185,-30.2035"/>
</g>
<!-- Node12 -->
<g id="node13" class="node">
<title>Node12</title>
<g id="a_node13"><a xlink:href="item__set_8h.html" target="_top" xlink:title=" ">
<polygon fill="none" stroke="#000000" points="605.5,-56.5 605.5,-75.5 697.5,-75.5 697.5,-56.5 605.5,-56.5"/>
<text text-anchor="middle" x="651.5" y="-63.5" font-family="Helvetica,sans-Serif" font-size="10.00" fill="#000000">item_set.h</text>
</a>
</g>
</g>
<!-- Node6&#45;&gt;Node12 -->
<g id="edge12" class="edge">
<title>Node6&#45;&gt;Node12</title>
<path fill="none" stroke="#191970" d="M569.7445,-112.2455C585.0761,-103.5731 607.7199,-90.7645 625.2916,-80.825"/>
<polygon fill="#191970" stroke="#191970" points="627.4724,-83.6126 634.4531,-75.6427 624.0259,-77.5198 627.4724,-83.6126"/>
</g>
<!-- Node14 -->
<g id="node15" class="node">
<title>Node14</title>
<g id="a_node15"><a xlink:title=" ">
<polygon fill="none" stroke="#bfbfbf" points="518,-56.5 518,-75.5 587,-75.5 587,-56.5 518,-56.5"/>
<text text-anchor="middle" x="552.5" y="-63.5" font-family="Helvetica,sans-Serif" font-size="10.00" fill="#000000">utility</text>
</a>
</g>
</g>
<!-- Node6&#45;&gt;Node14 -->
<g id="edge17" class="edge">
<title>Node6&#45;&gt;Node14</title>
<path fill="none" stroke="#191970" d="M552.5,-112.2455C552.5,-104.9382 552.5,-94.6944 552.5,-85.7046"/>
<polygon fill="#191970" stroke="#191970" points="556.0001,-85.6426 552.5,-75.6427 549.0001,-85.6427 556.0001,-85.6426"/>
</g>
<!-- Node7&#45;&gt;Node8 -->
<g id="edge8" class="edge">
<title>Node7&#45;&gt;Node8</title>
<path fill="none" stroke="#191970" d="M385.0746,-56.3733C367.0979,-47.4644 340.1559,-34.1127 319.791,-24.0203"/>
<polygon fill="#191970" stroke="#191970" points="321.1861,-20.8055 310.6719,-19.5011 318.0778,-27.0776 321.1861,-20.8055"/>
</g>
<!-- Node7&#45;&gt;Node9 -->
<g id="edge9" class="edge">
<title>Node7&#45;&gt;Node9</title>
<path fill="none" stroke="#191970" d="M426.1602,-56.3733C446.4772,-47.3435 477.064,-33.7494 499.875,-23.6111"/>
<polygon fill="#191970" stroke="#191970" points="501.4059,-26.7609 509.1225,-19.5011 498.5628,-20.3642 501.4059,-26.7609"/>
</g>
<!-- Node10 -->
<g id="node11" class="node">
<title>Node10</title>
<g id="a_node11"><a xlink:title=" ">
<polygon fill="none" stroke="#bfbfbf" points="382,-.5 382,-19.5 481,-19.5 481,-.5 382,-.5"/>
<text text-anchor="middle" x="431.5" y="-7.5" font-family="Helvetica,sans-Serif" font-size="10.00" fill="#000000">string_view</text>
</a>
</g>
</g>
<!-- Node7&#45;&gt;Node10 -->
<g id="edge10" class="edge">
<title>Node7&#45;&gt;Node10</title>
<path fill="none" stroke="#191970" d="M409.203,-56.2455C412.8424,-48.6973 417.9924,-38.0158 422.4262,-28.8197"/>
<polygon fill="#191970" stroke="#191970" points="425.6605,-30.1704 426.8509,-19.6427 419.3551,-27.1303 425.6605,-30.1704"/>
</g>
<!-- Node7&#45;&gt;Node11 -->
<g id="edge11" class="edge">
<title>Node7&#45;&gt;Node11</title>
<path fill="none" stroke="#191970" d="M459.3171,-56.4369C523.0378,-45.3205 626.7652,-27.2248 684.1075,-17.2211"/>
<polygon fill="#191970" stroke="#191970" points="685.005,-20.6175 694.2546,-15.4509 683.8019,-13.7216 685.005,-20.6175"/>
</g>
<!-- Node12&#45;&gt;Node9 -->
<g id="edge14" class="edge">
<title>Node12&#45;&gt;Node9</title>
<path fill="none" stroke="#191970" d="M630.6994,-56.3733C611.2757,-47.3838 582.0776,-33.8706 560.2036,-23.7471"/>
<polygon fill="#191970" stroke="#191970" points="561.5745,-20.5249 551.0292,-19.5011 558.6344,-26.8776 561.5745,-20.5249"/>
</g>
<!-- Node12&#45;&gt;Node11 -->
<g id="edge15" class="edge">
<title>Node12&#45;&gt;Node11</title>
<path fill="none" stroke="#191970" d="M664.3898,-56.2455C675.4254,-47.8943 691.5292,-35.7076 704.4353,-25.9408"/>
<polygon fill="#191970" stroke="#191970" points="706.8959,-28.4681 712.7579,-19.6427 702.6717,-22.8862 706.8959,-28.4681"/>
</g>
<!-- Node12&#45;&gt;Node13 -->
<g id="edge13" class="edge">
<title>Node12&#45;&gt;Node13</title>
<path fill="none" stroke="#191970" d="M697.7809,-61.1283C795.2742,-50.8659 1021.4772,-27.055 1127.1775,-15.9287"/>
<polygon fill="#191970" stroke="#191970" points="1127.7482,-19.388 1137.3268,-14.8603 1127.0153,-12.4265 1127.7482,-19.388"/>
</g>
<!-- Node15&#45;&gt;Node13 -->
<g id="edge23" class="edge">
<title>Node15&#45;&gt;Node13</title>
<path fill="none" stroke="#191970" d="M1131.2137,-173.9944C1141.2583,-164.4302 1155.8433,-148.7351 1163.5,-132 1178.91,-98.3186 1182.6324,-54.6081 1183.422,-29.6951"/>
<polygon fill="#191970" stroke="#191970" points="1186.9217,-29.7387 1183.6099,-19.6748 1179.9229,-29.6074 1186.9217,-29.7387"/>
</g>
<!-- Node16 -->
<g id="node17" class="node">
<title>Node16</title>
<g id="a_node17"><a xlink:title=" ">
<polygon fill="none" stroke="#bfbfbf" points="961,-112.5 961,-131.5 1068,-131.5 1068,-112.5 961,-112.5"/>
<text text-anchor="middle" x="1014.5" y="-119.5" font-family="Helvetica,sans-Serif" font-size="10.00" fill="#000000">fmt/format.h</text>
</a>
</g>
</g>
<!-- Node15&#45;&gt;Node16 -->
<g id="edge21" class="edge">
<title>Node15&#45;&gt;Node16</title>
<path fill="none" stroke="#191970" d="M1103.9375,-173.8906C1086.7463,-163.9165 1059.6418,-148.1908 1039.7734,-136.6633"/>
<polygon fill="#191970" stroke="#191970" points="1041.3523,-133.533 1030.9462,-131.5419 1037.8394,-139.5877 1041.3523,-133.533"/>
</g>
<!-- Node17 -->
<g id="node18" class="node">
<title>Node17</title>
<g id="a_node18"><a xlink:title=" ">
<polygon fill="none" stroke="#bfbfbf" points="1086,-112.5 1086,-131.5 1155,-131.5 1155,-112.5 1086,-112.5"/>
<text text-anchor="middle" x="1120.5" y="-119.5" font-family="Helvetica,sans-Serif" font-size="10.00" fill="#000000">cstdlib</text>
</a>
</g>
</g>
<!-- Node15&#45;&gt;Node17 -->
<g id="edge22" class="edge">
<title>Node15&#45;&gt;Node17</title>
<path fill="none" stroke="#191970" d="M1120.5,-173.8906C1120.5,-165.3657 1120.5,-152.6392 1120.5,-141.9235"/>
<polygon fill="#191970" stroke="#191970" points="1124.0001,-141.7448 1120.5,-131.7449 1117.0001,-141.7449 1124.0001,-141.7448"/>
</g>
<!-- Node18 -->
<g id="node19" class="node">
<title>Node18</title>
<g id="a_node19"><a xlink:title=" ">
<polygon fill="none" stroke="#bfbfbf" points="726.5,-112.5 726.5,-131.5 810.5,-131.5 810.5,-112.5 726.5,-112.5"/>
<text text-anchor="middle" x="768.5" y="-119.5" font-family="Helvetica,sans-Serif" font-size="10.00" fill="#000000">stdexcept</text>
</a>
</g>
</g>
<!-- Node15&#45;&gt;Node18 -->
<g id="edge24" class="edge">
<title>Node15&#45;&gt;Node18</title>
<path fill="none" stroke="#191970" d="M1062.4419,-173.9939C1003.9026,-164.3125 910.684,-148.6329 820.3686,-132.1278"/>
<polygon fill="#191970" stroke="#191970" points="820.9766,-128.6811 810.5094,-130.3206 819.7145,-135.5663 820.9766,-128.6811"/>
</g>
<!-- Node19 -->
<g id="node20" class="node">
<title>Node19</title>
<g id="a_node20"><a xlink:title=" ">
<polygon fill="none" stroke="#bfbfbf" points="1212,-112.5 1212,-131.5 1311,-131.5 1311,-112.5 1212,-112.5"/>
<text text-anchor="middle" x="1261.5" y="-119.5" font-family="Helvetica,sans-Serif" font-size="10.00" fill="#000000">type_traits</text>
</a>
</g>
</g>
<!-- Node15&#45;&gt;Node19 -->
<g id="edge25" class="edge">
<title>Node15&#45;&gt;Node19</title>
<path fill="none" stroke="#191970" d="M1142.5313,-173.8906C1166.1231,-163.6005 1203.7501,-147.1888 1230.3633,-135.5809"/>
<polygon fill="#191970" stroke="#191970" points="1231.8567,-138.748 1239.6235,-131.5419 1229.0581,-132.3318 1231.8567,-138.748"/>
</g>
<!-- Node20 -->
<g id="node21" class="node">
<title>Node20</title>
<g id="a_node21"><a xlink:title=" ">
<polygon fill="none" stroke="#bfbfbf" points="828.5,-112.5 828.5,-131.5 942.5,-131.5 942.5,-112.5 828.5,-112.5"/>
<text text-anchor="middle" x="885.5" y="-119.5" font-family="Helvetica,sans-Serif" font-size="10.00" fill="#000000">unordered_map</text>
</a>
</g>
</g>
<!-- Node15&#45;&gt;Node20 -->
<g id="edge26" class="edge">
<title>Node15&#45;&gt;Node20</title>
<path fill="none" stroke="#191970" d="M1084.0391,-173.9581C1043.0485,-163.2308 976.4031,-145.7895 931.774,-134.11"/>
<polygon fill="#191970" stroke="#191970" points="932.6068,-130.7101 922.0464,-131.5643 930.8345,-137.4821 932.6068,-130.7101"/>
</g>
<!-- Node23&#45;&gt;Node11 -->
<g id="edge35" class="edge">
<title>Node23&#45;&gt;Node11</title>
<path fill="none" stroke="#191970" d="M1432.0233,-173.961C1399.9599,-155.4585 1331.2762,-116.1403 1319.5,-112 1119.9704,-41.8487 865.2038,-18.8868 766.8261,-12.3297"/>
<polygon fill="#191970" stroke="#191970" points="766.9101,-8.828 756.7054,-11.6768 766.4593,-15.8134 766.9101,-8.828"/>
</g>
<!-- Node23&#45;&gt;Node19 -->
<g id="edge34" class="edge">
<title>Node23&#45;&gt;Node19</title>
<path fill="none" stroke="#191970" d="M1419.2813,-173.8906C1387.1693,-163.3298 1335.451,-146.3208 1300.0392,-134.6747"/>
<polygon fill="#191970" stroke="#191970" points="1301.1065,-131.3413 1290.5136,-131.5419 1298.9196,-137.9909 1301.1065,-131.3413"/>
</g>
<!-- Node24 -->
<g id="node25" class="node">
<title>Node24</title>
<g id="a_node25"><a xlink:title=" ">
<polygon fill="none" stroke="#bfbfbf" points="1367.5,-112.5 1367.5,-131.5 1459.5,-131.5 1459.5,-112.5 1367.5,-112.5"/>
<text text-anchor="middle" x="1413.5" y="-119.5" font-family="Helvetica,sans-Serif" font-size="10.00" fill="#000000">functional</text>
</a>
</g>
</g>
<!-- Node23&#45;&gt;Node24 -->
<g id="edge30" class="edge">
<title>Node23&#45;&gt;Node24</title>
<path fill="none" stroke="#191970" d="M1443.0313,-173.8906C1437.9754,-165.0068 1430.3228,-151.5601 1424.0746,-140.5811"/>
<polygon fill="#191970" stroke="#191970" points="1427.034,-138.7048 1419.0459,-131.7449 1420.9502,-142.1672 1427.034,-138.7048"/>
</g>
<!-- Node25 -->
<g id="node26" class="node">
<title>Node25</title>
<g id="a_node26"><a xlink:title=" ">
<polygon fill="none" stroke="#bfbfbf" points="1477.5,-112.5 1477.5,-131.5 1539.5,-131.5 1539.5,-112.5 1477.5,-112.5"/>
<text text-anchor="middle" x="1508.5" y="-119.5" font-family="Helvetica,sans-Serif" font-size="10.00" fill="#000000">future</text>
</a>
</g>
</g>
<!-- Node23&#45;&gt;Node25 -->
<g id="edge31" class="edge">
<title>Node23&#45;&gt;Node25</title>
<path fill="none" stroke="#191970" d="M1457.875,-173.8906C1466.9799,-164.5581 1480.9974,-150.1902 1491.9757,-138.9374"/>
<polygon fill="#191970" stroke="#191970" points="1494.5148,-141.3468 1498.9928,-131.7449 1489.5043,-136.4586 1494.5148,-141.3468"/>
</g>
<!-- Node26 -->
<g id="node27" class="node">
<title>Node26</title>
<g id="a_node27"><a xlink:title=" ">
<polygon fill="none" stroke="#bfbfbf" points="1557.5,-112.5 1557.5,-131.5 1611.5,-131.5 1611.5,-112.5 1557.5,-112.5"/>
<text text-anchor="middle" x="1584.5" y="-119.5" font-family="Helvetica,sans-Serif" font-size="10.00" fill="#000000">queue</text>
</a>
</g>
</g>
<!-- Node23&#45;&gt;Node26 -->
<g id="edge32" class="edge">
<title>Node23&#45;&gt;Node26</title>
<path fill="none" stroke="#191970" d="M1469.75,-173.8906C1492.4055,-163.6457 1528.4798,-147.3326 1554.1291,-135.7339"/>
<polygon fill="#191970" stroke="#191970" points="1555.7297,-138.8514 1563.3992,-131.5419 1552.8454,-132.4732 1555.7297,-138.8514"/>
</g>
<!-- Node23&#45;&gt;Node27 -->
<g id="edge33" class="edge">
<title>Node23&#45;&gt;Node27</title>
<path fill="none" stroke="#191970" d="M1481.625,-173.8906C1518.8779,-163.0838 1579.4059,-145.5249 1619.5831,-133.8698"/>
<polygon fill="#191970" stroke="#191970" points="1620.7037,-137.1891 1629.3326,-131.0415 1618.7534,-130.4662 1620.7037,-137.1891"/>
</g>
</g>
</svg>
