<?xml version="1.0" encoding="UTF-8" standalone="no"?>
<!DOCTYPE svg PUBLIC "-//W3C//DTD SVG 1.1//EN"
 "http://www.w3.org/Graphics/SVG/1.1/DTD/svg11.dtd">
<!-- Generated by graphviz version 2.40.1 (0)
 -->
<!-- Title: leitse/main.cpp Pages: 1 -->
<svg width="1513pt" height="263pt"
 viewBox="0.00 0.00 1513.00 263.00" xmlns="http://www.w3.org/2000/svg" xmlns:xlink="http://www.w3.org/1999/xlink">
<g id="graph0" class="graph" transform="scale(1 1) rotate(0) translate(4 259)">
<title>leitse/main.cpp</title>
<!-- Node0 -->
<g id="node1" class="node">
<title>Node0</title>
<g id="a_node1"><a xlink:title=" ">
<polygon fill="#bfbfbf" stroke="#000000" points="949.5,-235.5 949.5,-254.5 1078.5,-254.5 1078.5,-235.5 949.5,-235.5"/>
<text text-anchor="middle" x="1014" y="-242.5" font-family="Helvetica,sans-Serif" font-size="10.00" fill="#000000">leitse/main.cpp</text>
</a>
</g>
</g>
<!-- Node1 -->
<g id="node2" class="node">
<title>Node1</title>
<g id="a_node2"><a xlink:href="ugg_8h.html" target="_top" xlink:title=" ">
<polygon fill="none" stroke="#000000" points="415,-174 415,-193 469,-193 469,-174 415,-174"/>
<text text-anchor="middle" x="442" y="-181" font-family="Helvetica,sans-Serif" font-size="10.00" fill="#000000">ugg.h</text>
</a>
</g>
</g>
<!-- Node0&#45;&gt;Node1 -->
<g id="edge1" class="edge">
<title>Node0&#45;&gt;Node1</title>
<path fill="none" stroke="#191970" d="M949.4763,-240.5668C856.3605,-233.7869 679.0105,-219.4421 529,-199 512.6964,-196.7783 494.7836,-193.6976 479.4715,-190.8677"/>
<polygon fill="#191970" stroke="#191970" points="479.8126,-187.3706 469.338,-188.9622 478.5189,-194.25 479.8126,-187.3706"/>
</g>
<!-- Node6 -->
<g id="node7" class="node">
<title>Node6</title>
<g id="a_node7"><a xlink:title=" ">
<polygon fill="none" stroke="#bfbfbf" points="396,-.5 396,-19.5 458,-19.5 458,-.5 396,-.5"/>
<text text-anchor="middle" x="427" y="-7.5" font-family="Helvetica,sans-Serif" font-size="10.00" fill="#000000">vector</text>
</a>
</g>
</g>
<!-- Node0&#45;&gt;Node6 -->
<g id="edge28" class="edge">
<title>Node0&#45;&gt;Node6</title>
<path fill="none" stroke="#191970" d="M949.4873,-241.9094C883.8661,-237.343 779.8923,-226.1571 694,-199 631.2695,-179.1661 608.6244,-178.4183 562,-132 535.0949,-105.2138 550.2093,-82.4771 523,-56 507.5476,-40.9634 486.2419,-30.0785 467.6269,-22.684"/>
<polygon fill="#191970" stroke="#191970" points="468.775,-19.3765 458.1829,-19.1319 466.3105,-25.9284 468.775,-19.3765"/>
</g>
<!-- Node10 -->
<g id="node11" class="node">
<title>Node10</title>
<g id="a_node11"><a xlink:href="config_8h.html" target="_top" xlink:title=" ">
<polygon fill="none" stroke="#000000" points="703.5,-174 703.5,-193 832.5,-193 832.5,-174 703.5,-174"/>
<text text-anchor="middle" x="768" y="-181" font-family="Helvetica,sans-Serif" font-size="10.00" fill="#000000">config/config.h</text>
</a>
</g>
</g>
<!-- Node0&#45;&gt;Node10 -->
<g id="edge11" class="edge">
<title>Node0&#45;&gt;Node10</title>
<path fill="none" stroke="#191970" d="M975.8324,-235.4581C932.833,-224.7082 862.8649,-207.2162 816.1458,-195.5365"/>
<polygon fill="#191970" stroke="#191970" points="816.8075,-192.0942 806.2571,-193.0643 815.1097,-198.8852 816.8075,-192.0942"/>
</g>
<!-- Node16 -->
<g id="node17" class="node">
<title>Node16</title>
<g id="a_node17"><a xlink:title=" ">
<polygon fill="none" stroke="#bfbfbf" points="851,-168.5 851,-198.5 1003,-198.5 1003,-168.5 851,-168.5"/>
<text text-anchor="start" x="859" y="-186.5" font-family="Helvetica,sans-Serif" font-size="10.00" fill="#000000">spdlog/sinks/basic</text>
<text text-anchor="middle" x="927" y="-175.5" font-family="Helvetica,sans-Serif" font-size="10.00" fill="#000000">_file_sink.h</text>
</a>
</g>
</g>
<!-- Node0&#45;&gt;Node16 -->
<g id="edge17" class="edge">
<title>Node0&#45;&gt;Node16</title>
<path fill="none" stroke="#191970" d="M1000.4063,-235.3906C988.7409,-227.1444 971.5141,-214.9669 956.68,-204.4807"/>
<polygon fill="#191970" stroke="#191970" points="958.4687,-201.459 948.2826,-198.5446 954.428,-207.175 958.4687,-201.459"/>
</g>
<!-- Node17 -->
<g id="node18" class="node">
<title>Node17</title>
<g id="a_node18"><a xlink:title=" ">
<polygon fill="none" stroke="#bfbfbf" points="1021.5,-168.5 1021.5,-198.5 1180.5,-198.5 1180.5,-168.5 1021.5,-168.5"/>
<text text-anchor="start" x="1029.5" y="-186.5" font-family="Helvetica,sans-Serif" font-size="10.00" fill="#000000">spdlog/sinks/stdout</text>
<text text-anchor="middle" x="1101" y="-175.5" font-family="Helvetica,sans-Serif" font-size="10.00" fill="#000000">_color_sinks.h</text>
</a>
</g>
</g>
<!-- Node0&#45;&gt;Node17 -->
<g id="edge18" class="edge">
<title>Node0&#45;&gt;Node17</title>
<path fill="none" stroke="#191970" d="M1027.5938,-235.3906C1039.2591,-227.1444 1056.4859,-214.9669 1071.32,-204.4807"/>
<polygon fill="#191970" stroke="#191970" points="1073.572,-207.175 1079.7174,-198.5446 1069.5313,-201.459 1073.572,-207.175"/>
</g>
<!-- Node18 -->
<g id="node19" class="node">
<title>Node18</title>
<g id="a_node19"><a xlink:href="thread__pool_8h.html" target="_top" xlink:title=" ">
<polygon fill="none" stroke="#000000" points="1198.5,-174 1198.5,-193 1357.5,-193 1357.5,-174 1198.5,-174"/>
<text text-anchor="middle" x="1278" y="-181" font-family="Helvetica,sans-Serif" font-size="10.00" fill="#000000">utils/thread_pool.h</text>
</a>
</g>
</g>
<!-- Node0&#45;&gt;Node18 -->
<g id="edge19" class="edge">
<title>Node0&#45;&gt;Node18</title>
<path fill="none" stroke="#191970" d="M1054.9603,-235.4581C1101.2995,-224.6632 1176.824,-207.0694 1226.9606,-195.3899"/>
<polygon fill="#191970" stroke="#191970" points="1227.9984,-198.7419 1236.9436,-193.0643 1226.4102,-191.9244 1227.9984,-198.7419"/>
</g>
<!-- Node22 -->
<g id="node23" class="node">
<title>Node22</title>
<g id="a_node23"><a xlink:title=" ">
<polygon fill="none" stroke="#bfbfbf" points="1436,-112.5 1436,-131.5 1498,-131.5 1498,-112.5 1436,-112.5"/>
<text text-anchor="middle" x="1467" y="-119.5" font-family="Helvetica,sans-Serif" font-size="10.00" fill="#000000">thread</text>
</a>
</g>
</g>
<!-- Node0&#45;&gt;Node22 -->
<g id="edge27" class="edge">
<title>Node0&#45;&gt;Node22</title>
<path fill="none" stroke="#191970" d="M1078.6825,-240.92C1166.0691,-234.6687 1316.7017,-221.07 1367,-199 1386.6454,-190.3799 1387.1052,-181.2217 1404,-168 1417.388,-157.5226 1432.7946,-146.2599 1445.0209,-137.5013"/>
<polygon fill="#191970" stroke="#191970" points="1447.1727,-140.2657 1453.2871,-131.6132 1443.1115,-134.5642 1447.1727,-140.2657"/>
</g>
<!-- Node23 -->
<g id="node24" class="node">
<title>Node23</title>
<g id="a_node24"><a xlink:title=" ">
<polygon fill="none" stroke="#bfbfbf" points="1413,-174 1413,-193 1505,-193 1505,-174 1413,-174"/>
<text text-anchor="middle" x="1459" y="-181" font-family="Helvetica,sans-Serif" font-size="10.00" fill="#000000">filesystem</text>
</a>
</g>
</g>
<!-- Node0&#45;&gt;Node23 -->
<g id="edge26" class="edge">
<title>Node0&#45;&gt;Node23</title>
<path fill="none" stroke="#191970" d="M1078.776,-239.9274C1155.6131,-233.2966 1287.3612,-219.9916 1399,-199 1404.3528,-197.9935 1409.9349,-196.7789 1415.4463,-195.478"/>
<polygon fill="#191970" stroke="#191970" points="1416.353,-198.8593 1425.2256,-193.0691 1414.6787,-192.0625 1416.353,-198.8593"/>
</g>
<!-- Node2 -->
<g id="node3" class="node">
<title>Node2</title>
<g id="a_node3"><a xlink:href="aggregator_8h.html" target="_top" xlink:title=" ">
<polygon fill="none" stroke="#000000" points="295.5,-112.5 295.5,-131.5 402.5,-131.5 402.5,-112.5 295.5,-112.5"/>
<text text-anchor="middle" x="349" y="-119.5" font-family="Helvetica,sans-Serif" font-size="10.00" fill="#000000">aggregator.h</text>
</a>
</g>
</g>
<!-- Node1&#45;&gt;Node2 -->
<g id="edge2" class="edge">
<title>Node1&#45;&gt;Node2</title>
<path fill="none" stroke="#191970" d="M427.4688,-173.8906C412.5906,-164.0519 389.2496,-148.6167 371.8872,-137.1351"/>
<polygon fill="#191970" stroke="#191970" points="373.701,-134.1385 363.4292,-131.5419 369.8398,-139.9773 373.701,-134.1385"/>
</g>
<!-- Node3 -->
<g id="node4" class="node">
<title>Node3</title>
<g id="a_node4"><a xlink:href="data__dragon_8h.html" target="_top" xlink:title=" ">
<polygon fill="none" stroke="#000000" points="85,-56.5 85,-75.5 199,-75.5 199,-56.5 85,-56.5"/>
<text text-anchor="middle" x="142" y="-63.5" font-family="Helvetica,sans-Serif" font-size="10.00" fill="#000000">data_dragon.h</text>
</a>
</g>
</g>
<!-- Node2&#45;&gt;Node3 -->
<g id="edge3" class="edge">
<title>Node2&#45;&gt;Node3</title>
<path fill="none" stroke="#191970" d="M313.4154,-112.3733C278.3984,-102.9001 224.8119,-88.4032 186.8875,-78.1435"/>
<polygon fill="#191970" stroke="#191970" points="187.6873,-74.7341 177.1202,-75.5011 185.8592,-81.4912 187.6873,-74.7341"/>
</g>
<!-- Node2&#45;&gt;Node6 -->
<g id="edge10" class="edge">
<title>Node2&#45;&gt;Node6</title>
<path fill="none" stroke="#191970" d="M307.6098,-112.4338C270.5893,-101.8998 225.1399,-82.8247 246,-56 262.9667,-34.182 337.6127,-21.0224 385.5866,-14.6654"/>
<polygon fill="#191970" stroke="#191970" points="386.2072,-18.1147 395.6828,-13.3753 385.3198,-11.1712 386.2072,-18.1147"/>
</g>
<!-- Node7 -->
<g id="node8" class="node">
<title>Node7</title>
<g id="a_node8"><a xlink:href="item__set_8h.html" target="_top" xlink:title=" ">
<polygon fill="none" stroke="#000000" points="255,-56.5 255,-75.5 347,-75.5 347,-56.5 255,-56.5"/>
<text text-anchor="middle" x="301" y="-63.5" font-family="Helvetica,sans-Serif" font-size="10.00" fill="#000000">item_set.h</text>
</a>
</g>
</g>
<!-- Node2&#45;&gt;Node7 -->
<g id="edge7" class="edge">
<title>Node2&#45;&gt;Node7</title>
<path fill="none" stroke="#191970" d="M340.639,-112.2455C333.825,-104.2958 324.0319,-92.8706 315.8848,-83.3656"/>
<polygon fill="#191970" stroke="#191970" points="318.4305,-80.9575 309.2651,-75.6427 313.1157,-85.513 318.4305,-80.9575"/>
</g>
<!-- Node8 -->
<g id="node9" class="node">
<title>Node8</title>
<g id="a_node9"><a xlink:title=" ">
<polygon fill="none" stroke="#bfbfbf" points="365,-56.5 365,-75.5 427,-75.5 427,-56.5 365,-56.5"/>
<text text-anchor="middle" x="396" y="-63.5" font-family="Helvetica,sans-Serif" font-size="10.00" fill="#000000">string</text>
</a>
</g>
</g>
<!-- Node2&#45;&gt;Node8 -->
<g id="edge8" class="edge">
<title>Node2&#45;&gt;Node8</title>
<path fill="none" stroke="#191970" d="M357.1868,-112.2455C363.8589,-104.2958 373.4479,-92.8706 381.4253,-83.3656"/>
<polygon fill="#191970" stroke="#191970" points="384.1592,-85.5525 387.907,-75.6427 378.7974,-81.0524 384.1592,-85.5525"/>
</g>
<!-- Node9 -->
<g id="node10" class="node">
<title>Node9</title>
<g id="a_node10"><a xlink:title=" ">
<polygon fill="none" stroke="#bfbfbf" points="445.5,-56.5 445.5,-75.5 514.5,-75.5 514.5,-56.5 445.5,-56.5"/>
<text text-anchor="middle" x="480" y="-63.5" font-family="Helvetica,sans-Serif" font-size="10.00" fill="#000000">utility</text>
</a>
</g>
</g>
<!-- Node2&#45;&gt;Node9 -->
<g id="edge9" class="edge">
<title>Node2&#45;&gt;Node9</title>
<path fill="none" stroke="#191970" d="M371.5197,-112.3733C392.7372,-103.3032 424.7276,-89.6279 448.4769,-79.4755"/>
<polygon fill="#191970" stroke="#191970" points="449.9548,-82.6502 457.7742,-75.5011 447.2033,-76.2136 449.9548,-82.6502"/>
</g>
<!-- Node4 -->
<g id="node5" class="node">
<title>Node4</title>
<g id="a_node5"><a xlink:title=" ">
<polygon fill="none" stroke="#bfbfbf" points="0,-.5 0,-19.5 144,-19.5 144,-.5 0,-.5"/>
<text text-anchor="middle" x="72" y="-7.5" font-family="Helvetica,sans-Serif" font-size="10.00" fill="#000000">nlohmann/json.hpp</text>
</a>
</g>
</g>
<!-- Node3&#45;&gt;Node4 -->
<g id="edge4" class="edge">
<title>Node3&#45;&gt;Node4</title>
<path fill="none" stroke="#191970" d="M129.8069,-56.2455C119.3679,-47.8943 104.1345,-35.7076 91.926,-25.9408"/>
<polygon fill="#191970" stroke="#191970" points="94.0485,-23.1566 84.0533,-19.6427 89.6756,-28.6227 94.0485,-23.1566"/>
</g>
<!-- Node5 -->
<g id="node6" class="node">
<title>Node5</title>
<g id="a_node6"><a xlink:title=" ">
<polygon fill="none" stroke="#bfbfbf" points="162.5,-.5 162.5,-19.5 261.5,-19.5 261.5,-.5 162.5,-.5"/>
<text text-anchor="middle" x="212" y="-7.5" font-family="Helvetica,sans-Serif" font-size="10.00" fill="#000000">string_view</text>
</a>
</g>
</g>
<!-- Node3&#45;&gt;Node5 -->
<g id="edge5" class="edge">
<title>Node3&#45;&gt;Node5</title>
<path fill="none" stroke="#191970" d="M154.1931,-56.2455C164.6321,-47.8943 179.8655,-35.7076 192.074,-25.9408"/>
<polygon fill="#191970" stroke="#191970" points="194.3244,-28.6227 199.9467,-19.6427 189.9515,-23.1566 194.3244,-28.6227"/>
</g>
<!-- Node3&#45;&gt;Node6 -->
<g id="edge6" class="edge">
<title>Node3&#45;&gt;Node6</title>
<path fill="none" stroke="#191970" d="M190.6694,-56.4369C245.6677,-45.6302 334.2343,-28.2276 385.9002,-18.0757"/>
<polygon fill="#191970" stroke="#191970" points="386.583,-21.5086 395.7205,-16.1461 385.2333,-14.6399 386.583,-21.5086"/>
</g>
<!-- Node11 -->
<g id="node12" class="node">
<title>Node11</title>
<g id="a_node12"><a xlink:title=" ">
<polygon fill="none" stroke="#bfbfbf" points="571.5,-112.5 571.5,-131.5 678.5,-131.5 678.5,-112.5 571.5,-112.5"/>
<text text-anchor="middle" x="625" y="-119.5" font-family="Helvetica,sans-Serif" font-size="10.00" fill="#000000">fmt/format.h</text>
</a>
</g>
</g>
<!-- Node10&#45;&gt;Node11 -->
<g id="edge12" class="edge">
<title>Node10&#45;&gt;Node11</title>
<path fill="none" stroke="#191970" d="M745.6563,-173.8906C721.7297,-163.6005 683.5691,-147.1888 656.5784,-135.5809"/>
<polygon fill="#191970" stroke="#191970" points="657.7561,-132.2775 647.1869,-131.5419 654.9905,-138.708 657.7561,-132.2775"/>
</g>
<!-- Node12 -->
<g id="node13" class="node">
<title>Node12</title>
<g id="a_node13"><a xlink:title=" ">
<polygon fill="none" stroke="#bfbfbf" points="696.5,-112.5 696.5,-131.5 765.5,-131.5 765.5,-112.5 696.5,-112.5"/>
<text text-anchor="middle" x="731" y="-119.5" font-family="Helvetica,sans-Serif" font-size="10.00" fill="#000000">cstdlib</text>
</a>
</g>
</g>
<!-- Node10&#45;&gt;Node12 -->
<g id="edge13" class="edge">
<title>Node10&#45;&gt;Node12</title>
<path fill="none" stroke="#191970" d="M762.2188,-173.8906C756.874,-165.0068 748.7841,-151.5601 742.1789,-140.5811"/>
<polygon fill="#191970" stroke="#191970" points="745.0171,-138.5093 736.8628,-131.7449 739.0189,-142.118 745.0171,-138.5093"/>
</g>
<!-- Node13 -->
<g id="node14" class="node">
<title>Node13</title>
<g id="a_node14"><a xlink:title=" ">
<polygon fill="none" stroke="#bfbfbf" points="784,-112.5 784,-131.5 868,-131.5 868,-112.5 784,-112.5"/>
<text text-anchor="middle" x="826" y="-119.5" font-family="Helvetica,sans-Serif" font-size="10.00" fill="#000000">stdexcept</text>
</a>
</g>
</g>
<!-- Node10&#45;&gt;Node13 -->
<g id="edge14" class="edge">
<title>Node10&#45;&gt;Node13</title>
<path fill="none" stroke="#191970" d="M777.0625,-173.8906C785.7793,-164.6478 799.154,-150.466 809.7196,-139.2628"/>
<polygon fill="#191970" stroke="#191970" points="812.495,-141.4213 816.8097,-131.7449 807.4024,-136.6186 812.495,-141.4213"/>
</g>
<!-- Node14 -->
<g id="node15" class="node">
<title>Node14</title>
<g id="a_node15"><a xlink:title=" ">
<polygon fill="none" stroke="#bfbfbf" points="1018.5,-112.5 1018.5,-131.5 1117.5,-131.5 1117.5,-112.5 1018.5,-112.5"/>
<text text-anchor="middle" x="1068" y="-119.5" font-family="Helvetica,sans-Serif" font-size="10.00" fill="#000000">type_traits</text>
</a>
</g>
</g>
<!-- Node10&#45;&gt;Node14 -->
<g id="edge15" class="edge">
<title>Node10&#45;&gt;Node14</title>
<path fill="none" stroke="#191970" d="M813.3879,-173.9506C822.8418,-171.9735 832.7445,-169.9112 842,-168 899.4184,-156.1432 965.0902,-142.8008 1010.7892,-133.5513"/>
<polygon fill="#191970" stroke="#191970" points="1011.6956,-136.9389 1020.8029,-131.5253 1010.3074,-130.078 1011.6956,-136.9389"/>
</g>
<!-- Node15 -->
<g id="node16" class="node">
<title>Node15</title>
<g id="a_node16"><a xlink:title=" ">
<polygon fill="none" stroke="#bfbfbf" points="886,-112.5 886,-131.5 1000,-131.5 1000,-112.5 886,-112.5"/>
<text text-anchor="middle" x="943" y="-119.5" font-family="Helvetica,sans-Serif" font-size="10.00" fill="#000000">unordered_map</text>
</a>
</g>
</g>
<!-- Node10&#45;&gt;Node15 -->
<g id="edge16" class="edge">
<title>Node10&#45;&gt;Node15</title>
<path fill="none" stroke="#191970" d="M795.3438,-173.8906C825.1382,-163.42 872.9685,-146.6111 906.0808,-134.9745"/>
<polygon fill="#191970" stroke="#191970" points="907.5743,-138.1595 915.8483,-131.5419 905.2534,-131.5554 907.5743,-138.1595"/>
</g>
<!-- Node18&#45;&gt;Node6 -->
<g id="edge25" class="edge">
<title>Node18&#45;&gt;Node6</title>
<path fill="none" stroke="#191970" d="M1256.1654,-173.9901C1233.2786,-163.9193 1196.3567,-147.3818 1165,-132 1147.8653,-123.5947 1145.1486,-117.9054 1127,-112 885.7404,-33.4959 578.0148,-15.2702 468.2071,-11.1591"/>
<polygon fill="#191970" stroke="#191970" points="468.3252,-7.6612 458.2072,-10.8038 468.0766,-14.6568 468.3252,-7.6612"/>
</g>
<!-- Node18&#45;&gt;Node14 -->
<g id="edge24" class="edge">
<title>Node18&#45;&gt;Node14</title>
<path fill="none" stroke="#191970" d="M1245.1875,-173.8906C1208.8178,-163.2395 1150.0522,-146.0296 1110.2637,-134.3772"/>
<polygon fill="#191970" stroke="#191970" points="1111.1627,-130.9936 1100.5821,-131.5419 1109.1953,-137.7114 1111.1627,-130.9936"/>
</g>
<!-- Node19 -->
<g id="node20" class="node">
<title>Node19</title>
<g id="a_node20"><a xlink:title=" ">
<polygon fill="none" stroke="#bfbfbf" points="1174,-112.5 1174,-131.5 1266,-131.5 1266,-112.5 1174,-112.5"/>
<text text-anchor="middle" x="1220" y="-119.5" font-family="Helvetica,sans-Serif" font-size="10.00" fill="#000000">functional</text>
</a>
</g>
</g>
<!-- Node18&#45;&gt;Node19 -->
<g id="edge20" class="edge">
<title>Node18&#45;&gt;Node19</title>
<path fill="none" stroke="#191970" d="M1268.9375,-173.8906C1260.2207,-164.6478 1246.846,-150.466 1236.2804,-139.2628"/>
<polygon fill="#191970" stroke="#191970" points="1238.5976,-136.6186 1229.1903,-131.7449 1233.505,-141.4213 1238.5976,-136.6186"/>
</g>
<!-- Node20 -->
<g id="node21" class="node">
<title>Node20</title>
<g id="a_node21"><a xlink:title=" ">
<polygon fill="none" stroke="#bfbfbf" points="1284,-112.5 1284,-131.5 1346,-131.5 1346,-112.5 1284,-112.5"/>
<text text-anchor="middle" x="1315" y="-119.5" font-family="Helvetica,sans-Serif" font-size="10.00" fill="#000000">future</text>
</a>
</g>
</g>
<!-- Node18&#45;&gt;Node20 -->
<g id="edge21" class="edge">
<title>Node18&#45;&gt;Node20</title>
<path fill="none" stroke="#191970" d="M1283.7813,-173.8906C1289.126,-165.0068 1297.2159,-151.5601 1303.8211,-140.5811"/>
<polygon fill="#191970" stroke="#191970" points="1306.9811,-142.118 1309.1372,-131.7449 1300.9829,-138.5093 1306.9811,-142.118"/>
</g>
<!-- Node21 -->
<g id="node22" class="node">
<title>Node21</title>
<g id="a_node22"><a xlink:title=" ">
<polygon fill="none" stroke="#bfbfbf" points="1364,-112.5 1364,-131.5 1418,-131.5 1418,-112.5 1364,-112.5"/>
<text text-anchor="middle" x="1391" y="-119.5" font-family="Helvetica,sans-Serif" font-size="10.00" fill="#000000">queue</text>
</a>
</g>
</g>
<!-- Node18&#45;&gt;Node21 -->
<g id="edge22" class="edge">
<title>Node18&#45;&gt;Node21</title>
<path fill="none" stroke="#191970" d="M1295.6563,-173.8906C1314.1486,-163.8262 1343.401,-147.9057 1364.6308,-136.3514"/>
<polygon fill="#191970" stroke="#191970" points="1366.3575,-139.3965 1373.4677,-131.5419 1363.0112,-133.2481 1366.3575,-139.3965"/>
</g>
<!-- Node18&#45;&gt;Node22 -->
<g id="edge23" class="edge">
<title>Node18&#45;&gt;Node22</title>
<path fill="none" stroke="#191970" d="M1307.5313,-173.8906C1339.9866,-163.3298 1392.2581,-146.3208 1428.0486,-134.6747"/>
<polygon fill="#191970" stroke="#191970" points="1429.2499,-137.9645 1437.6761,-131.5419 1427.0839,-131.308 1429.2499,-137.9645"/>
</g>
</g>
</svg>
