<?xml version="1.0" encoding="UTF-8" standalone="no"?>
<!DOCTYPE svg PUBLIC "-//W3C//DTD SVG 1.1//EN"
 "http://www.w3.org/Graphics/SVG/1.1/DTD/svg11.dtd">
<!-- Generated by graphviz version 2.40.1 (0)
 -->
<!-- Title: leitse/main.cpp Pages: 1 -->
<svg width="1434pt" height="263pt"
 viewBox="0.00 0.00 1434.00 263.00" xmlns="http://www.w3.org/2000/svg" xmlns:xlink="http://www.w3.org/1999/xlink">
<g id="graph0" class="graph" transform="scale(1 1) rotate(0) translate(4 259)">
<title>leitse/main.cpp</title>
<!-- Node0 -->
<g id="node1" class="node">
<title>Node0</title>
<g id="a_node1"><a xlink:title=" ">
<polygon fill="#bfbfbf" stroke="#000000" points="870.5,-235.5 870.5,-254.5 999.5,-254.5 999.5,-235.5 870.5,-235.5"/>
<text text-anchor="middle" x="935" y="-242.5" font-family="Helvetica,sans-Serif" font-size="10.00" fill="#000000">leitse/main.cpp</text>
</a>
</g>
</g>
<!-- Node1 -->
<g id="node2" class="node">
<title>Node1</title>
<g id="a_node2"><a xlink:href="ugg_8h.html" target="_top" xlink:title=" ">
<polygon fill="none" stroke="#000000" points="329,-174 329,-193 383,-193 383,-174 329,-174"/>
<text text-anchor="middle" x="356" y="-181" font-family="Helvetica,sans-Serif" font-size="10.00" fill="#000000">ugg.h</text>
</a>
</g>
</g>
<!-- Node0&#45;&gt;Node1 -->
<g id="edge1" class="edge">
<title>Node0&#45;&gt;Node1</title>
<path fill="none" stroke="#191970" d="M870.1207,-240.2746C776.9427,-233.164 599.9294,-218.4478 450,-199 431.2551,-196.5685 410.5135,-193.2191 393.2934,-190.2557"/>
<polygon fill="#191970" stroke="#191970" points="393.5288,-186.744 383.0759,-188.4722 392.325,-193.6397 393.5288,-186.744"/>
</g>
<!-- Node7 -->
<g id="node8" class="node">
<title>Node7</title>
<g id="a_node8"><a xlink:title=" ">
<polygon fill="none" stroke="#bfbfbf" points="396,-.5 396,-19.5 458,-19.5 458,-.5 396,-.5"/>
<text text-anchor="middle" x="427" y="-7.5" font-family="Helvetica,sans-Serif" font-size="10.00" fill="#000000">vector</text>
</a>
</g>
</g>
<!-- Node0&#45;&gt;Node7 -->
<g id="edge29" class="edge">
<title>Node0&#45;&gt;Node7</title>
<path fill="none" stroke="#191970" d="M870.4873,-241.9094C804.8661,-237.343 700.8923,-226.1571 615,-199 552.2695,-179.1661 528.5969,-179.428 483,-132 468.046,-116.4455 445.4267,-59.5644 434.0546,-29.2787"/>
<polygon fill="#191970" stroke="#191970" points="437.2927,-27.9443 430.5321,-19.7867 430.73,-30.3797 437.2927,-27.9443"/>
</g>
<!-- Node10 -->
<g id="node11" class="node">
<title>Node10</title>
<g id="a_node11"><a xlink:href="config_8h.html" target="_top" xlink:title=" ">
<polygon fill="none" stroke="#000000" points="624.5,-174 624.5,-193 753.5,-193 753.5,-174 624.5,-174"/>
<text text-anchor="middle" x="689" y="-181" font-family="Helvetica,sans-Serif" font-size="10.00" fill="#000000">config/config.h</text>
</a>
</g>
</g>
<!-- Node0&#45;&gt;Node10 -->
<g id="edge12" class="edge">
<title>Node0&#45;&gt;Node10</title>
<path fill="none" stroke="#191970" d="M896.8324,-235.4581C853.833,-224.7082 783.8649,-207.2162 737.1458,-195.5365"/>
<polygon fill="#191970" stroke="#191970" points="737.8075,-192.0942 727.2571,-193.0643 736.1097,-198.8852 737.8075,-192.0942"/>
</g>
<!-- Node16 -->
<g id="node17" class="node">
<title>Node16</title>
<g id="a_node17"><a xlink:title=" ">
<polygon fill="none" stroke="#bfbfbf" points="772,-168.5 772,-198.5 924,-198.5 924,-168.5 772,-168.5"/>
<text text-anchor="start" x="780" y="-186.5" font-family="Helvetica,sans-Serif" font-size="10.00" fill="#000000">spdlog/sinks/basic</text>
<text text-anchor="middle" x="848" y="-175.5" font-family="Helvetica,sans-Serif" font-size="10.00" fill="#000000">_file_sink.h</text>
</a>
</g>
</g>
<!-- Node0&#45;&gt;Node16 -->
<g id="edge18" class="edge">
<title>Node0&#45;&gt;Node16</title>
<path fill="none" stroke="#191970" d="M921.4063,-235.3906C909.7409,-227.1444 892.5141,-214.9669 877.68,-204.4807"/>
<polygon fill="#191970" stroke="#191970" points="879.4687,-201.459 869.2826,-198.5446 875.428,-207.175 879.4687,-201.459"/>
</g>
<!-- Node17 -->
<g id="node18" class="node">
<title>Node17</title>
<g id="a_node18"><a xlink:title=" ">
<polygon fill="none" stroke="#bfbfbf" points="942.5,-168.5 942.5,-198.5 1101.5,-198.5 1101.5,-168.5 942.5,-168.5"/>
<text text-anchor="start" x="950.5" y="-186.5" font-family="Helvetica,sans-Serif" font-size="10.00" fill="#000000">spdlog/sinks/stdout</text>
<text text-anchor="middle" x="1022" y="-175.5" font-family="Helvetica,sans-Serif" font-size="10.00" fill="#000000">_color_sinks.h</text>
</a>
</g>
</g>
<!-- Node0&#45;&gt;Node17 -->
<g id="edge19" class="edge">
<title>Node0&#45;&gt;Node17</title>
<path fill="none" stroke="#191970" d="M948.5938,-235.3906C960.2591,-227.1444 977.4859,-214.9669 992.32,-204.4807"/>
<polygon fill="#191970" stroke="#191970" points="994.572,-207.175 1000.7174,-198.5446 990.5313,-201.459 994.572,-207.175"/>
</g>
<!-- Node18 -->
<g id="node19" class="node">
<title>Node18</title>
<g id="a_node19"><a xlink:href="thread__pool_8h.html" target="_top" xlink:title=" ">
<polygon fill="none" stroke="#000000" points="1119.5,-174 1119.5,-193 1278.5,-193 1278.5,-174 1119.5,-174"/>
<text text-anchor="middle" x="1199" y="-181" font-family="Helvetica,sans-Serif" font-size="10.00" fill="#000000">utils/thread_pool.h</text>
</a>
</g>
</g>
<!-- Node0&#45;&gt;Node18 -->
<g id="edge20" class="edge">
<title>Node0&#45;&gt;Node18</title>
<path fill="none" stroke="#191970" d="M975.9603,-235.4581C1022.2995,-224.6632 1097.824,-207.0694 1147.9606,-195.3899"/>
<polygon fill="#191970" stroke="#191970" points="1148.9984,-198.7419 1157.9436,-193.0643 1147.4102,-191.9244 1148.9984,-198.7419"/>
</g>
<!-- Node22 -->
<g id="node23" class="node">
<title>Node22</title>
<g id="a_node23"><a xlink:title=" ">
<polygon fill="none" stroke="#bfbfbf" points="1357,-112.5 1357,-131.5 1419,-131.5 1419,-112.5 1357,-112.5"/>
<text text-anchor="middle" x="1388" y="-119.5" font-family="Helvetica,sans-Serif" font-size="10.00" fill="#000000">thread</text>
</a>
</g>
</g>
<!-- Node0&#45;&gt;Node22 -->
<g id="edge28" class="edge">
<title>Node0&#45;&gt;Node22</title>
<path fill="none" stroke="#191970" d="M999.6825,-240.92C1087.0691,-234.6687 1237.7017,-221.07 1288,-199 1307.6454,-190.3799 1308.1052,-181.2217 1325,-168 1338.388,-157.5226 1353.7946,-146.2599 1366.0209,-137.5013"/>
<polygon fill="#191970" stroke="#191970" points="1368.1727,-140.2657 1374.2871,-131.6132 1364.1115,-134.5642 1368.1727,-140.2657"/>
</g>
<!-- Node23 -->
<g id="node24" class="node">
<title>Node23</title>
<g id="a_node24"><a xlink:title=" ">
<polygon fill="none" stroke="#bfbfbf" points="1334,-174 1334,-193 1426,-193 1426,-174 1334,-174"/>
<text text-anchor="middle" x="1380" y="-181" font-family="Helvetica,sans-Serif" font-size="10.00" fill="#000000">filesystem</text>
</a>
</g>
</g>
<!-- Node0&#45;&gt;Node23 -->
<g id="edge27" class="edge">
<title>Node0&#45;&gt;Node23</title>
<path fill="none" stroke="#191970" d="M999.776,-239.9274C1076.6131,-233.2966 1208.3612,-219.9916 1320,-199 1325.3528,-197.9935 1330.9349,-196.7789 1336.4463,-195.478"/>
<polygon fill="#191970" stroke="#191970" points="1337.353,-198.8593 1346.2256,-193.0691 1335.6787,-192.0625 1337.353,-198.8593"/>
</g>
<!-- Node2 -->
<g id="node3" class="node">
<title>Node2</title>
<g id="a_node3"><a xlink:href="aggregator_8h.html" target="_top" xlink:title=" ">
<polygon fill="none" stroke="#000000" points="211.5,-112.5 211.5,-131.5 318.5,-131.5 318.5,-112.5 211.5,-112.5"/>
<text text-anchor="middle" x="265" y="-119.5" font-family="Helvetica,sans-Serif" font-size="10.00" fill="#000000">aggregator.h</text>
</a>
</g>
</g>
<!-- Node1&#45;&gt;Node2 -->
<g id="edge2" class="edge">
<title>Node1&#45;&gt;Node2</title>
<path fill="none" stroke="#191970" d="M341.7813,-173.8906C327.3566,-164.1421 304.8024,-148.8994 287.864,-137.4521"/>
<polygon fill="#191970" stroke="#191970" points="289.3641,-134.2415 279.1189,-131.5419 285.4444,-140.0412 289.3641,-134.2415"/>
</g>
<!-- Node3 -->
<g id="node4" class="node">
<title>Node3</title>
<g id="a_node4"><a xlink:href="data__dragon_8h.html" target="_top" xlink:title=" ">
<polygon fill="none" stroke="#000000" points="86,-56.5 86,-75.5 200,-75.5 200,-56.5 86,-56.5"/>
<text text-anchor="middle" x="143" y="-63.5" font-family="Helvetica,sans-Serif" font-size="10.00" fill="#000000">data_dragon.h</text>
</a>
</g>
</g>
<!-- Node2&#45;&gt;Node3 -->
<g id="edge3" class="edge">
<title>Node2&#45;&gt;Node3</title>
<path fill="none" stroke="#191970" d="M244.0275,-112.3733C224.4433,-103.3838 195.0039,-89.8706 172.949,-79.7471"/>
<polygon fill="#191970" stroke="#191970" points="174.2473,-76.4919 163.6989,-75.5011 171.3271,-82.8538 174.2473,-76.4919"/>
</g>
<!-- Node5 -->
<g id="node6" class="node">
<title>Node5</title>
<g id="a_node6"><a xlink:title=" ">
<polygon fill="none" stroke="#bfbfbf" points="0,-.5 0,-19.5 62,-19.5 62,-.5 0,-.5"/>
<text text-anchor="middle" x="31" y="-7.5" font-family="Helvetica,sans-Serif" font-size="10.00" fill="#000000">string</text>
</a>
</g>
</g>
<!-- Node2&#45;&gt;Node5 -->
<g id="edge9" class="edge">
<title>Node2&#45;&gt;Node5</title>
<path fill="none" stroke="#191970" d="M211.2469,-113.2112C163.6991,-104.6607 98.6161,-90.8213 77,-76 59.9661,-64.3206 47.2625,-44.1122 39.5701,-29.1252"/>
<polygon fill="#191970" stroke="#191970" points="42.5477,-27.2419 35.0535,-19.7528 36.2417,-30.2808 42.5477,-27.2419"/>
</g>
<!-- Node2&#45;&gt;Node7 -->
<g id="edge11" class="edge">
<title>Node2&#45;&gt;Node7</title>
<path fill="none" stroke="#191970" d="M257.7157,-112.4675C248.1134,-98.6547 233.8876,-72.8848 247,-56 263.8643,-34.284 338.1008,-21.0905 385.8125,-14.6996"/>
<polygon fill="#191970" stroke="#191970" points="386.3846,-18.1549 395.8536,-13.402 385.4874,-11.2126 386.3846,-18.1549"/>
</g>
<!-- Node8 -->
<g id="node9" class="node">
<title>Node8</title>
<g id="a_node9"><a xlink:href="item__set_8h.html" target="_top" xlink:title=" ">
<polygon fill="none" stroke="#000000" points="256,-56.5 256,-75.5 348,-75.5 348,-56.5 256,-56.5"/>
<text text-anchor="middle" x="302" y="-63.5" font-family="Helvetica,sans-Serif" font-size="10.00" fill="#000000">item_set.h</text>
</a>
</g>
</g>
<!-- Node2&#45;&gt;Node8 -->
<g id="edge8" class="edge">
<title>Node2&#45;&gt;Node8</title>
<path fill="none" stroke="#191970" d="M271.4449,-112.2455C276.5382,-104.5367 283.7908,-93.5598 289.952,-84.2348"/>
<polygon fill="#191970" stroke="#191970" points="293.0365,-85.9155 295.6289,-75.6427 287.1962,-82.0566 293.0365,-85.9155"/>
</g>
<!-- Node9 -->
<g id="node10" class="node">
<title>Node9</title>
<g id="a_node10"><a xlink:title=" ">
<polygon fill="none" stroke="#bfbfbf" points="366.5,-56.5 366.5,-75.5 435.5,-75.5 435.5,-56.5 366.5,-56.5"/>
<text text-anchor="middle" x="401" y="-63.5" font-family="Helvetica,sans-Serif" font-size="10.00" fill="#000000">utility</text>
</a>
</g>
</g>
<!-- Node2&#45;&gt;Node9 -->
<g id="edge10" class="edge">
<title>Node2&#45;&gt;Node9</title>
<path fill="none" stroke="#191970" d="M288.3792,-112.3733C310.5045,-103.2629 343.9134,-89.5062 368.6019,-79.3404"/>
<polygon fill="#191970" stroke="#191970" points="370.0117,-82.5451 377.9258,-75.5011 367.3464,-76.0723 370.0117,-82.5451"/>
</g>
<!-- Node4 -->
<g id="node5" class="node">
<title>Node4</title>
<g id="a_node5"><a xlink:title=" ">
<polygon fill="none" stroke="#bfbfbf" points="80,-.5 80,-19.5 224,-19.5 224,-.5 80,-.5"/>
<text text-anchor="middle" x="152" y="-7.5" font-family="Helvetica,sans-Serif" font-size="10.00" fill="#000000">nlohmann/json.hpp</text>
</a>
</g>
</g>
<!-- Node3&#45;&gt;Node4 -->
<g id="edge4" class="edge">
<title>Node3&#45;&gt;Node4</title>
<path fill="none" stroke="#191970" d="M144.5677,-56.2455C145.7421,-48.9382 147.3884,-38.6944 148.8332,-29.7046"/>
<polygon fill="#191970" stroke="#191970" points="152.3191,-30.0714 150.4503,-19.6427 145.4078,-28.9606 152.3191,-30.0714"/>
</g>
<!-- Node3&#45;&gt;Node5 -->
<g id="edge5" class="edge">
<title>Node3&#45;&gt;Node5</title>
<path fill="none" stroke="#191970" d="M123.7465,-56.3733C105.9288,-47.4644 79.2253,-34.1127 59.0406,-24.0203"/>
<polygon fill="#191970" stroke="#191970" points="60.5118,-20.8428 50.0022,-19.5011 57.3813,-27.1038 60.5118,-20.8428"/>
</g>
<!-- Node6 -->
<g id="node7" class="node">
<title>Node6</title>
<g id="a_node7"><a xlink:title=" ">
<polygon fill="none" stroke="#bfbfbf" points="242.5,-.5 242.5,-19.5 341.5,-19.5 341.5,-.5 242.5,-.5"/>
<text text-anchor="middle" x="292" y="-7.5" font-family="Helvetica,sans-Serif" font-size="10.00" fill="#000000">string_view</text>
</a>
</g>
</g>
<!-- Node3&#45;&gt;Node6 -->
<g id="edge6" class="edge">
<title>Node3&#45;&gt;Node6</title>
<path fill="none" stroke="#191970" d="M168.614,-56.3733C193.0687,-47.1822 230.1054,-33.2624 257.2209,-23.0713"/>
<polygon fill="#191970" stroke="#191970" points="258.5909,-26.2956 266.7202,-19.5011 256.1281,-19.7431 258.5909,-26.2956"/>
</g>
<!-- Node3&#45;&gt;Node7 -->
<g id="edge7" class="edge">
<title>Node3&#45;&gt;Node7</title>
<path fill="none" stroke="#191970" d="M191.4986,-56.4369C246.1897,-45.6527 334.1922,-28.3001 385.7222,-18.1393"/>
<polygon fill="#191970" stroke="#191970" points="386.6963,-21.5147 395.8303,-16.1461 385.342,-14.6469 386.6963,-21.5147"/>
</g>
<!-- Node11 -->
<g id="node12" class="node">
<title>Node11</title>
<g id="a_node12"><a xlink:title=" ">
<polygon fill="none" stroke="#bfbfbf" points="492.5,-112.5 492.5,-131.5 599.5,-131.5 599.5,-112.5 492.5,-112.5"/>
<text text-anchor="middle" x="546" y="-119.5" font-family="Helvetica,sans-Serif" font-size="10.00" fill="#000000">fmt/format.h</text>
</a>
</g>
</g>
<!-- Node10&#45;&gt;Node11 -->
<g id="edge13" class="edge">
<title>Node10&#45;&gt;Node11</title>
<path fill="none" stroke="#191970" d="M666.6563,-173.8906C642.7297,-163.6005 604.5691,-147.1888 577.5784,-135.5809"/>
<polygon fill="#191970" stroke="#191970" points="578.7561,-132.2775 568.1869,-131.5419 575.9905,-138.708 578.7561,-132.2775"/>
</g>
<!-- Node12 -->
<g id="node13" class="node">
<title>Node12</title>
<g id="a_node13"><a xlink:title=" ">
<polygon fill="none" stroke="#bfbfbf" points="617.5,-112.5 617.5,-131.5 686.5,-131.5 686.5,-112.5 617.5,-112.5"/>
<text text-anchor="middle" x="652" y="-119.5" font-family="Helvetica,sans-Serif" font-size="10.00" fill="#000000">cstdlib</text>
</a>
</g>
</g>
<!-- Node10&#45;&gt;Node12 -->
<g id="edge14" class="edge">
<title>Node10&#45;&gt;Node12</title>
<path fill="none" stroke="#191970" d="M683.2188,-173.8906C677.874,-165.0068 669.7841,-151.5601 663.1789,-140.5811"/>
<polygon fill="#191970" stroke="#191970" points="666.0171,-138.5093 657.8628,-131.7449 660.0189,-142.118 666.0171,-138.5093"/>
</g>
<!-- Node13 -->
<g id="node14" class="node">
<title>Node13</title>
<g id="a_node14"><a xlink:title=" ">
<polygon fill="none" stroke="#bfbfbf" points="705,-112.5 705,-131.5 789,-131.5 789,-112.5 705,-112.5"/>
<text text-anchor="middle" x="747" y="-119.5" font-family="Helvetica,sans-Serif" font-size="10.00" fill="#000000">stdexcept</text>
</a>
</g>
</g>
<!-- Node10&#45;&gt;Node13 -->
<g id="edge15" class="edge">
<title>Node10&#45;&gt;Node13</title>
<path fill="none" stroke="#191970" d="M698.0625,-173.8906C706.7793,-164.6478 720.154,-150.466 730.7196,-139.2628"/>
<polygon fill="#191970" stroke="#191970" points="733.495,-141.4213 737.8097,-131.7449 728.4024,-136.6186 733.495,-141.4213"/>
</g>
<!-- Node14 -->
<g id="node15" class="node">
<title>Node14</title>
<g id="a_node15"><a xlink:title=" ">
<polygon fill="none" stroke="#bfbfbf" points="939.5,-112.5 939.5,-131.5 1038.5,-131.5 1038.5,-112.5 939.5,-112.5"/>
<text text-anchor="middle" x="989" y="-119.5" font-family="Helvetica,sans-Serif" font-size="10.00" fill="#000000">type_traits</text>
</a>
</g>
</g>
<!-- Node10&#45;&gt;Node14 -->
<g id="edge16" class="edge">
<title>Node10&#45;&gt;Node14</title>
<path fill="none" stroke="#191970" d="M734.3879,-173.9506C743.8418,-171.9735 753.7445,-169.9112 763,-168 820.4184,-156.1432 886.0902,-142.8008 931.7892,-133.5513"/>
<polygon fill="#191970" stroke="#191970" points="932.6956,-136.9389 941.8029,-131.5253 931.3074,-130.078 932.6956,-136.9389"/>
</g>
<!-- Node15 -->
<g id="node16" class="node">
<title>Node15</title>
<g id="a_node16"><a xlink:title=" ">
<polygon fill="none" stroke="#bfbfbf" points="807,-112.5 807,-131.5 921,-131.5 921,-112.5 807,-112.5"/>
<text text-anchor="middle" x="864" y="-119.5" font-family="Helvetica,sans-Serif" font-size="10.00" fill="#000000">unordered_map</text>
</a>
</g>
</g>
<!-- Node10&#45;&gt;Node15 -->
<g id="edge17" class="edge">
<title>Node10&#45;&gt;Node15</title>
<path fill="none" stroke="#191970" d="M716.3438,-173.8906C746.1382,-163.42 793.9685,-146.6111 827.0808,-134.9745"/>
<polygon fill="#191970" stroke="#191970" points="828.5743,-138.1595 836.8483,-131.5419 826.2534,-131.5554 828.5743,-138.1595"/>
</g>
<!-- Node18&#45;&gt;Node7 -->
<g id="edge26" class="edge">
<title>Node18&#45;&gt;Node7</title>
<path fill="none" stroke="#191970" d="M1177.1654,-173.9901C1154.2786,-163.9193 1117.3567,-147.3818 1086,-132 1068.8653,-123.5947 1066.0944,-118.0694 1048,-112 837.4063,-41.3602 569.6437,-18.5886 468.3345,-12.207"/>
<polygon fill="#191970" stroke="#191970" points="468.4086,-8.7051 458.214,-11.5897 467.9824,-15.6921 468.4086,-8.7051"/>
</g>
<!-- Node18&#45;&gt;Node14 -->
<g id="edge25" class="edge">
<title>Node18&#45;&gt;Node14</title>
<path fill="none" stroke="#191970" d="M1166.1875,-173.8906C1129.8178,-163.2395 1071.0522,-146.0296 1031.2637,-134.3772"/>
<polygon fill="#191970" stroke="#191970" points="1032.1627,-130.9936 1021.5821,-131.5419 1030.1953,-137.7114 1032.1627,-130.9936"/>
</g>
<!-- Node19 -->
<g id="node20" class="node">
<title>Node19</title>
<g id="a_node20"><a xlink:title=" ">
<polygon fill="none" stroke="#bfbfbf" points="1095,-112.5 1095,-131.5 1187,-131.5 1187,-112.5 1095,-112.5"/>
<text text-anchor="middle" x="1141" y="-119.5" font-family="Helvetica,sans-Serif" font-size="10.00" fill="#000000">functional</text>
</a>
</g>
</g>
<!-- Node18&#45;&gt;Node19 -->
<g id="edge21" class="edge">
<title>Node18&#45;&gt;Node19</title>
<path fill="none" stroke="#191970" d="M1189.9375,-173.8906C1181.2207,-164.6478 1167.846,-150.466 1157.2804,-139.2628"/>
<polygon fill="#191970" stroke="#191970" points="1159.5976,-136.6186 1150.1903,-131.7449 1154.505,-141.4213 1159.5976,-136.6186"/>
</g>
<!-- Node20 -->
<g id="node21" class="node">
<title>Node20</title>
<g id="a_node21"><a xlink:title=" ">
<polygon fill="none" stroke="#bfbfbf" points="1205,-112.5 1205,-131.5 1267,-131.5 1267,-112.5 1205,-112.5"/>
<text text-anchor="middle" x="1236" y="-119.5" font-family="Helvetica,sans-Serif" font-size="10.00" fill="#000000">future</text>
</a>
</g>
</g>
<!-- Node18&#45;&gt;Node20 -->
<g id="edge22" class="edge">
<title>Node18&#45;&gt;Node20</title>
<path fill="none" stroke="#191970" d="M1204.7813,-173.8906C1210.126,-165.0068 1218.2159,-151.5601 1224.8211,-140.5811"/>
<polygon fill="#191970" stroke="#191970" points="1227.9811,-142.118 1230.1372,-131.7449 1221.9829,-138.5093 1227.9811,-142.118"/>
</g>
<!-- Node21 -->
<g id="node22" class="node">
<title>Node21</title>
<g id="a_node22"><a xlink:title=" ">
<polygon fill="none" stroke="#bfbfbf" points="1285,-112.5 1285,-131.5 1339,-131.5 1339,-112.5 1285,-112.5"/>
<text text-anchor="middle" x="1312" y="-119.5" font-family="Helvetica,sans-Serif" font-size="10.00" fill="#000000">queue</text>
</a>
</g>
</g>
<!-- Node18&#45;&gt;Node21 -->
<g id="edge23" class="edge">
<title>Node18&#45;&gt;Node21</title>
<path fill="none" stroke="#191970" d="M1216.6563,-173.8906C1235.1486,-163.8262 1264.401,-147.9057 1285.6308,-136.3514"/>
<polygon fill="#191970" stroke="#191970" points="1287.3575,-139.3965 1294.4677,-131.5419 1284.0112,-133.2481 1287.3575,-139.3965"/>
</g>
<!-- Node18&#45;&gt;Node22 -->
<g id="edge24" class="edge">
<title>Node18&#45;&gt;Node22</title>
<path fill="none" stroke="#191970" d="M1228.5313,-173.8906C1260.9866,-163.3298 1313.2581,-146.3208 1349.0486,-134.6747"/>
<polygon fill="#191970" stroke="#191970" points="1350.2499,-137.9645 1358.6761,-131.5419 1348.0839,-131.308 1350.2499,-137.9645"/>
</g>
</g>
</svg>
