<?xml version="1.0" encoding="UTF-8" standalone="no"?>
<!DOCTYPE svg PUBLIC "-//W3C//DTD SVG 1.1//EN"
 "http://www.w3.org/Graphics/SVG/1.1/DTD/svg11.dtd">
<!-- Generated by graphviz version 2.40.1 (0)
 -->
<!-- Title: leitse/main.cpp Pages: 1 -->
<svg width="1936pt" height="263pt"
 viewBox="0.00 0.00 1936.00 263.00" xmlns="http://www.w3.org/2000/svg" xmlns:xlink="http://www.w3.org/1999/xlink">
<g id="graph0" class="graph" transform="scale(1 1) rotate(0) translate(4 259)">
<title>leitse/main.cpp</title>
<!-- Node0 -->
<g id="node1" class="node">
<title>Node0</title>
<g id="a_node1"><a xlink:title=" ">
<polygon fill="#bfbfbf" stroke="#000000" points="1371,-235.5 1371,-254.5 1500,-254.5 1500,-235.5 1371,-235.5"/>
<text text-anchor="middle" x="1435.5" y="-242.5" font-family="Helvetica,sans-Serif" font-size="10.00" fill="#000000">leitse/main.cpp</text>
</a>
</g>
</g>
<!-- Node1 -->
<g id="node2" class="node">
<title>Node1</title>
<g id="a_node2"><a xlink:href="ugg_8h.html" target="_top" xlink:title=" ">
<polygon fill="none" stroke="#000000" points="438.5,-174 438.5,-193 492.5,-193 492.5,-174 438.5,-174"/>
<text text-anchor="middle" x="465.5" y="-181" font-family="Helvetica,sans-Serif" font-size="10.00" fill="#000000">ugg.h</text>
</a>
</g>
</g>
<!-- Node0&#45;&gt;Node1 -->
<g id="edge1" class="edge">
<title>Node0&#45;&gt;Node1</title>
<path fill="none" stroke="#191970" d="M1370.9825,-243.1327C1192.7928,-237.748 696.3735,-221.1499 534.5,-199 524.0083,-197.5644 512.7539,-195.3367 502.4417,-193.0136"/>
<polygon fill="#191970" stroke="#191970" points="503.0416,-189.5594 492.5067,-190.6846 501.4439,-196.3747 503.0416,-189.5594"/>
</g>
<!-- Node7 -->
<g id="node8" class="node">
<title>Node7</title>
<g id="a_node8"><a xlink:title=" ">
<polygon fill="none" stroke="#bfbfbf" points="479.5,-.5 479.5,-19.5 541.5,-19.5 541.5,-.5 479.5,-.5"/>
<text text-anchor="middle" x="510.5" y="-7.5" font-family="Helvetica,sans-Serif" font-size="10.00" fill="#000000">vector</text>
</a>
</g>
</g>
<!-- Node0&#45;&gt;Node7 -->
<g id="edge33" class="edge">
<title>Node0&#45;&gt;Node7</title>
<path fill="none" stroke="#191970" d="M1370.8625,-242.388C1266.7305,-237.5693 1055.583,-225.2737 878.5,-199 738.6376,-178.2487 678.0672,-220.1305 567.5,-132 534.8827,-106.0015 520.0436,-56.9827 514.0451,-29.6597"/>
<polygon fill="#191970" stroke="#191970" points="517.4488,-28.8322 512.0458,-19.7186 510.5863,-30.2125 517.4488,-28.8322"/>
</g>
<!-- Node9 -->
<g id="node10" class="node">
<title>Node9</title>
<g id="a_node10"><a xlink:title=" ">
<polygon fill="none" stroke="#bfbfbf" points="988.5,-.5 988.5,-19.5 1080.5,-19.5 1080.5,-.5 988.5,-.5"/>
<text text-anchor="middle" x="1034.5" y="-7.5" font-family="Helvetica,sans-Serif" font-size="10.00" fill="#000000">filesystem</text>
</a>
</g>
</g>
<!-- Node0&#45;&gt;Node9 -->
<g id="edge31" class="edge">
<title>Node0&#45;&gt;Node9</title>
<path fill="none" stroke="#191970" d="M1455.3097,-235.4872C1497.7228,-213.8871 1590.411,-159.3379 1551.5,-112 1493.6401,-41.6095 1212.8075,-19.0058 1091.0246,-12.4403"/>
<polygon fill="#191970" stroke="#191970" points="1090.9598,-8.9323 1080.791,-11.9063 1090.595,-15.9228 1090.9598,-8.9323"/>
</g>
<!-- Node11 -->
<g id="node12" class="node">
<title>Node11</title>
<g id="a_node12"><a xlink:href="config_8h.html" target="_top" xlink:title=" ">
<polygon fill="none" stroke="#000000" points="888,-174 888,-193 1017,-193 1017,-174 888,-174"/>
<text text-anchor="middle" x="952.5" y="-181" font-family="Helvetica,sans-Serif" font-size="10.00" fill="#000000">config/config.h</text>
</a>
</g>
</g>
<!-- Node0&#45;&gt;Node11 -->
<g id="edge15" class="edge">
<title>Node0&#45;&gt;Node11</title>
<path fill="none" stroke="#191970" d="M1370.8616,-236.7697C1281.6986,-225.4166 1121.335,-204.9976 1027.1645,-193.007"/>
<polygon fill="#191970" stroke="#191970" points="1027.5028,-189.5219 1017.1408,-191.7307 1026.6186,-196.4658 1027.5028,-189.5219"/>
</g>
<!-- Node17 -->
<g id="node18" class="node">
<title>Node17</title>
<g id="a_node18"><a xlink:title=" ">
<polygon fill="none" stroke="#bfbfbf" points="1598.5,-168.5 1598.5,-198.5 1750.5,-198.5 1750.5,-168.5 1598.5,-168.5"/>
<text text-anchor="start" x="1606.5" y="-186.5" font-family="Helvetica,sans-Serif" font-size="10.00" fill="#000000">spdlog/sinks/basic</text>
<text text-anchor="middle" x="1674.5" y="-175.5" font-family="Helvetica,sans-Serif" font-size="10.00" fill="#000000">_file_sink.h</text>
</a>
</g>
</g>
<!-- Node0&#45;&gt;Node17 -->
<g id="edge22" class="edge">
<title>Node0&#45;&gt;Node17</title>
<path fill="none" stroke="#191970" d="M1472.5815,-235.4581C1508.1002,-226.3183 1562.5593,-212.3048 1605.9727,-201.1336"/>
<polygon fill="#191970" stroke="#191970" points="1607.0903,-204.4601 1615.9026,-198.5784 1605.3458,-197.681 1607.0903,-204.4601"/>
</g>
<!-- Node18 -->
<g id="node19" class="node">
<title>Node18</title>
<g id="a_node19"><a xlink:title=" ">
<polygon fill="none" stroke="#bfbfbf" points="1769,-168.5 1769,-198.5 1928,-198.5 1928,-168.5 1769,-168.5"/>
<text text-anchor="start" x="1777" y="-186.5" font-family="Helvetica,sans-Serif" font-size="10.00" fill="#000000">spdlog/sinks/stdout</text>
<text text-anchor="middle" x="1848.5" y="-175.5" font-family="Helvetica,sans-Serif" font-size="10.00" fill="#000000">_color_sinks.h</text>
</a>
</g>
</g>
<!-- Node0&#45;&gt;Node18 -->
<g id="edge23" class="edge">
<title>Node0&#45;&gt;Node18</title>
<path fill="none" stroke="#191970" d="M1500.1362,-236.4313C1563.4228,-227.9033 1662.8404,-214.1404 1759.0451,-199.0427"/>
<polygon fill="#191970" stroke="#191970" points="1759.611,-202.4968 1768.9442,-197.4827 1758.5212,-195.5822 1759.611,-202.4968"/>
</g>
<!-- Node19 -->
<g id="node20" class="node">
<title>Node19</title>
<g id="a_node20"><a xlink:href="thread__pool_8h.html" target="_top" xlink:title=" ">
<polygon fill="none" stroke="#000000" points="1280,-174 1280,-193 1439,-193 1439,-174 1280,-174"/>
<text text-anchor="middle" x="1359.5" y="-181" font-family="Helvetica,sans-Serif" font-size="10.00" fill="#000000">utils/thread_pool.h</text>
</a>
</g>
</g>
<!-- Node0&#45;&gt;Node19 -->
<g id="edge24" class="edge">
<title>Node0&#45;&gt;Node19</title>
<path fill="none" stroke="#191970" d="M1423.625,-235.3906C1411.8703,-225.8786 1393.6514,-211.1357 1379.6328,-199.7917"/>
<polygon fill="#191970" stroke="#191970" points="1381.5178,-196.8146 1371.5424,-193.2449 1377.1144,-202.2562 1381.5178,-196.8146"/>
</g>
<!-- Node23 -->
<g id="node24" class="node">
<title>Node23</title>
<g id="a_node24"><a xlink:title=" ">
<polygon fill="none" stroke="#bfbfbf" points="1480.5,-112.5 1480.5,-131.5 1542.5,-131.5 1542.5,-112.5 1480.5,-112.5"/>
<text text-anchor="middle" x="1511.5" y="-119.5" font-family="Helvetica,sans-Serif" font-size="10.00" fill="#000000">thread</text>
</a>
</g>
</g>
<!-- Node0&#45;&gt;Node23 -->
<g id="edge32" class="edge">
<title>Node0&#45;&gt;Node23</title>
<path fill="none" stroke="#191970" d="M1441.4636,-235.3484C1454.1168,-214.8703 1483.8298,-166.782 1500.1951,-140.2962"/>
<polygon fill="#191970" stroke="#191970" points="1503.2851,-141.9536 1505.5641,-131.6068 1497.3302,-138.2741 1503.2851,-141.9536"/>
</g>
<!-- Node2 -->
<g id="node3" class="node">
<title>Node2</title>
<g id="a_node3"><a xlink:href="aggregator_8h.html" target="_top" xlink:title=" ">
<polygon fill="none" stroke="#000000" points="334,-112.5 334,-131.5 441,-131.5 441,-112.5 334,-112.5"/>
<text text-anchor="middle" x="387.5" y="-119.5" font-family="Helvetica,sans-Serif" font-size="10.00" fill="#000000">aggregator.h</text>
</a>
</g>
</g>
<!-- Node1&#45;&gt;Node2 -->
<g id="edge2" class="edge">
<title>Node1&#45;&gt;Node2</title>
<path fill="none" stroke="#191970" d="M453.3125,-173.8906C441.063,-164.2324 421.9737,-149.1812 407.5023,-137.771"/>
<polygon fill="#191970" stroke="#191970" points="409.6217,-134.985 399.6019,-131.5419 405.2876,-140.4819 409.6217,-134.985"/>
</g>
<!-- Node3 -->
<g id="node4" class="node">
<title>Node3</title>
<g id="a_node4"><a xlink:href="data__dragon_8h.html" target="_top" xlink:title=" ">
<polygon fill="none" stroke="#000000" points="132.5,-56.5 132.5,-75.5 246.5,-75.5 246.5,-56.5 132.5,-56.5"/>
<text text-anchor="middle" x="189.5" y="-63.5" font-family="Helvetica,sans-Serif" font-size="10.00" fill="#000000">data_dragon.h</text>
</a>
</g>
</g>
<!-- Node2&#45;&gt;Node3 -->
<g id="edge3" class="edge">
<title>Node2&#45;&gt;Node3</title>
<path fill="none" stroke="#191970" d="M353.4626,-112.3733C320.1106,-102.9404 269.1473,-88.5265 232.8998,-78.2747"/>
<polygon fill="#191970" stroke="#191970" points="233.6684,-74.8548 223.0933,-75.5011 231.7632,-81.5906 233.6684,-74.8548"/>
</g>
<!-- Node5 -->
<g id="node6" class="node">
<title>Node5</title>
<g id="a_node6"><a xlink:title=" ">
<polygon fill="none" stroke="#bfbfbf" points="279.5,-.5 279.5,-19.5 341.5,-19.5 341.5,-.5 279.5,-.5"/>
<text text-anchor="middle" x="310.5" y="-7.5" font-family="Helvetica,sans-Serif" font-size="10.00" fill="#000000">string</text>
</a>
</g>
</g>
<!-- Node2&#45;&gt;Node5 -->
<g id="edge12" class="edge">
<title>Node2&#45;&gt;Node5</title>
<path fill="none" stroke="#191970" d="M345.3846,-112.3381C326.0614,-105.5724 304.9452,-94.343 293.5,-76 284.4413,-61.4818 291.0436,-42.303 298.5029,-28.3631"/>
<polygon fill="#191970" stroke="#191970" points="301.5631,-30.0639 303.6221,-19.6711 295.5314,-26.5116 301.5631,-30.0639"/>
</g>
<!-- Node2&#45;&gt;Node7 -->
<g id="edge14" class="edge">
<title>Node2&#45;&gt;Node7</title>
<path fill="none" stroke="#191970" d="M429.6191,-112.4707C450.9045,-105.6333 475.5365,-94.2994 491.5,-76 502.6329,-63.2381 507.2609,-44.3214 509.1752,-30.0076"/>
<polygon fill="#191970" stroke="#191970" points="512.6914,-30.0185 510.2011,-19.7206 505.726,-29.3239 512.6914,-30.0185"/>
</g>
<!-- Node8 -->
<g id="node9" class="node">
<title>Node8</title>
<g id="a_node9"><a xlink:href="item__set_8h.html" target="_top" xlink:title=" ">
<polygon fill="none" stroke="#000000" points="390.5,-56.5 390.5,-75.5 482.5,-75.5 482.5,-56.5 390.5,-56.5"/>
<text text-anchor="middle" x="436.5" y="-63.5" font-family="Helvetica,sans-Serif" font-size="10.00" fill="#000000">item_set.h</text>
</a>
</g>
</g>
<!-- Node2&#45;&gt;Node8 -->
<g id="edge8" class="edge">
<title>Node2&#45;&gt;Node8</title>
<path fill="none" stroke="#191970" d="M396.0351,-112.2455C402.9912,-104.2958 412.9883,-92.8706 421.3051,-83.3656"/>
<polygon fill="#191970" stroke="#191970" points="424.1116,-85.4732 428.0627,-75.6427 418.8436,-80.8637 424.1116,-85.4732"/>
</g>
<!-- Node10 -->
<g id="node11" class="node">
<title>Node10</title>
<g id="a_node11"><a xlink:title=" ">
<polygon fill="none" stroke="#bfbfbf" points="303,-56.5 303,-75.5 372,-75.5 372,-56.5 303,-56.5"/>
<text text-anchor="middle" x="337.5" y="-63.5" font-family="Helvetica,sans-Serif" font-size="10.00" fill="#000000">utility</text>
</a>
</g>
</g>
<!-- Node2&#45;&gt;Node10 -->
<g id="edge13" class="edge">
<title>Node2&#45;&gt;Node10</title>
<path fill="none" stroke="#191970" d="M378.7907,-112.2455C371.6927,-104.2958 361.4916,-92.8706 353.005,-83.3656"/>
<polygon fill="#191970" stroke="#191970" points="355.3805,-80.771 346.1095,-75.6427 350.1589,-85.4331 355.3805,-80.771"/>
</g>
<!-- Node4 -->
<g id="node5" class="node">
<title>Node4</title>
<g id="a_node5"><a xlink:title=" ">
<polygon fill="none" stroke="#bfbfbf" points="117.5,-.5 117.5,-19.5 261.5,-19.5 261.5,-.5 117.5,-.5"/>
<text text-anchor="middle" x="189.5" y="-7.5" font-family="Helvetica,sans-Serif" font-size="10.00" fill="#000000">nlohmann/json.hpp</text>
</a>
</g>
</g>
<!-- Node3&#45;&gt;Node4 -->
<g id="edge4" class="edge">
<title>Node3&#45;&gt;Node4</title>
<path fill="none" stroke="#191970" d="M189.5,-56.2455C189.5,-48.9382 189.5,-38.6944 189.5,-29.7046"/>
<polygon fill="#191970" stroke="#191970" points="193.0001,-29.6426 189.5,-19.6427 186.0001,-29.6427 193.0001,-29.6426"/>
</g>
<!-- Node3&#45;&gt;Node5 -->
<g id="edge5" class="edge">
<title>Node3&#45;&gt;Node5</title>
<path fill="none" stroke="#191970" d="M210.3006,-56.3733C229.7243,-47.3838 258.9224,-33.8706 280.7964,-23.7471"/>
<polygon fill="#191970" stroke="#191970" points="282.3656,-26.8776 289.9708,-19.5011 279.4255,-20.5249 282.3656,-26.8776"/>
</g>
<!-- Node6 -->
<g id="node7" class="node">
<title>Node6</title>
<g id="a_node7"><a xlink:title=" ">
<polygon fill="none" stroke="#bfbfbf" points="0,-.5 0,-19.5 99,-19.5 99,-.5 0,-.5"/>
<text text-anchor="middle" x="49.5" y="-7.5" font-family="Helvetica,sans-Serif" font-size="10.00" fill="#000000">string_view</text>
</a>
</g>
</g>
<!-- Node3&#45;&gt;Node6 -->
<g id="edge6" class="edge">
<title>Node3&#45;&gt;Node6</title>
<path fill="none" stroke="#191970" d="M165.4331,-56.3733C142.6572,-47.2629 108.2656,-33.5062 82.851,-23.3404"/>
<polygon fill="#191970" stroke="#191970" points="83.8375,-19.9654 73.2528,-19.5011 81.2377,-26.4648 83.8375,-19.9654"/>
</g>
<!-- Node3&#45;&gt;Node7 -->
<g id="edge7" class="edge">
<title>Node3&#45;&gt;Node7</title>
<path fill="none" stroke="#191970" d="M244.3171,-56.4369C308.0378,-45.3205 411.7652,-27.2248 469.1075,-17.2211"/>
<polygon fill="#191970" stroke="#191970" points="470.005,-20.6175 479.2546,-15.4509 468.8019,-13.7216 470.005,-20.6175"/>
</g>
<!-- Node8&#45;&gt;Node5 -->
<g id="edge10" class="edge">
<title>Node8&#45;&gt;Node5</title>
<path fill="none" stroke="#191970" d="M414.8398,-56.3733C394.5228,-47.3435 363.936,-33.7494 341.125,-23.6111"/>
<polygon fill="#191970" stroke="#191970" points="342.4372,-20.3642 331.8775,-19.5011 339.5941,-26.7609 342.4372,-20.3642"/>
</g>
<!-- Node8&#45;&gt;Node7 -->
<g id="edge11" class="edge">
<title>Node8&#45;&gt;Node7</title>
<path fill="none" stroke="#191970" d="M449.3898,-56.2455C460.4254,-47.8943 476.5292,-35.7076 489.4353,-25.9408"/>
<polygon fill="#191970" stroke="#191970" points="491.8959,-28.4681 497.7579,-19.6427 487.6717,-22.8862 491.8959,-28.4681"/>
</g>
<!-- Node8&#45;&gt;Node9 -->
<g id="edge9" class="edge">
<title>Node8&#45;&gt;Node9</title>
<path fill="none" stroke="#191970" d="M482.9265,-61.6524C591.2098,-51.5121 860.1986,-26.3225 977.8708,-15.3031"/>
<polygon fill="#191970" stroke="#191970" points="978.473,-18.7621 988.1031,-14.3449 977.8203,-11.7926 978.473,-18.7621"/>
</g>
<!-- Node11&#45;&gt;Node9 -->
<g id="edge18" class="edge">
<title>Node11&#45;&gt;Node9</title>
<path fill="none" stroke="#191970" d="M969.9353,-173.8695C984.316,-164.9587 1004,-150.3357 1014.5,-132 1032.9987,-99.6964 1035.6119,-55.1664 1035.3734,-29.8036"/>
<polygon fill="#191970" stroke="#191970" points="1038.8672,-29.5182 1035.1099,-19.612 1031.8696,-29.6992 1038.8672,-29.5182"/>
</g>
<!-- Node12 -->
<g id="node13" class="node">
<title>Node12</title>
<g id="a_node13"><a xlink:title=" ">
<polygon fill="none" stroke="#bfbfbf" points="899,-112.5 899,-131.5 1006,-131.5 1006,-112.5 899,-112.5"/>
<text text-anchor="middle" x="952.5" y="-119.5" font-family="Helvetica,sans-Serif" font-size="10.00" fill="#000000">fmt/format.h</text>
</a>
</g>
</g>
<!-- Node11&#45;&gt;Node12 -->
<g id="edge16" class="edge">
<title>Node11&#45;&gt;Node12</title>
<path fill="none" stroke="#191970" d="M952.5,-173.8906C952.5,-165.3657 952.5,-152.6392 952.5,-141.9235"/>
<polygon fill="#191970" stroke="#191970" points="956.0001,-141.7448 952.5,-131.7449 949.0001,-141.7449 956.0001,-141.7448"/>
</g>
<!-- Node13 -->
<g id="node14" class="node">
<title>Node13</title>
<g id="a_node14"><a xlink:title=" ">
<polygon fill="none" stroke="#bfbfbf" points="577,-112.5 577,-131.5 646,-131.5 646,-112.5 577,-112.5"/>
<text text-anchor="middle" x="611.5" y="-119.5" font-family="Helvetica,sans-Serif" font-size="10.00" fill="#000000">cstdlib</text>
</a>
</g>
</g>
<!-- Node11&#45;&gt;Node13 -->
<g id="edge17" class="edge">
<title>Node11&#45;&gt;Node13</title>
<path fill="none" stroke="#191970" d="M892.0336,-173.9567C834.0719,-164.5954 743.8951,-149.4755 655.9323,-132.0047"/>
<polygon fill="#191970" stroke="#191970" points="656.5429,-128.5576 646.0509,-130.0302 655.1712,-135.4219 656.5429,-128.5576"/>
</g>
<!-- Node14 -->
<g id="node15" class="node">
<title>Node14</title>
<g id="a_node15"><a xlink:title=" ">
<polygon fill="none" stroke="#bfbfbf" points="664.5,-112.5 664.5,-131.5 748.5,-131.5 748.5,-112.5 664.5,-112.5"/>
<text text-anchor="middle" x="706.5" y="-119.5" font-family="Helvetica,sans-Serif" font-size="10.00" fill="#000000">stdexcept</text>
</a>
</g>
</g>
<!-- Node11&#45;&gt;Node14 -->
<g id="edge19" class="edge">
<title>Node11&#45;&gt;Node14</title>
<path fill="none" stroke="#191970" d="M914.3324,-173.9581C871.333,-163.2082 801.3649,-145.7162 754.6458,-134.0365"/>
<polygon fill="#191970" stroke="#191970" points="755.3075,-130.5942 744.7571,-131.5643 753.6097,-137.3852 755.3075,-130.5942"/>
</g>
<!-- Node15 -->
<g id="node16" class="node">
<title>Node15</title>
<g id="a_node16"><a xlink:title=" ">
<polygon fill="none" stroke="#bfbfbf" points="1063,-112.5 1063,-131.5 1162,-131.5 1162,-112.5 1063,-112.5"/>
<text text-anchor="middle" x="1112.5" y="-119.5" font-family="Helvetica,sans-Serif" font-size="10.00" fill="#000000">type_traits</text>
</a>
</g>
</g>
<!-- Node11&#45;&gt;Node15 -->
<g id="edge20" class="edge">
<title>Node11&#45;&gt;Node15</title>
<path fill="none" stroke="#191970" d="M977.5,-173.8906C1004.5058,-163.5103 1047.7185,-146.9004 1077.9594,-135.2766"/>
<polygon fill="#191970" stroke="#191970" points="1079.5971,-138.3968 1087.6756,-131.5419 1077.0856,-131.8628 1079.5971,-138.3968"/>
</g>
<!-- Node16 -->
<g id="node17" class="node">
<title>Node16</title>
<g id="a_node17"><a xlink:title=" ">
<polygon fill="none" stroke="#bfbfbf" points="766.5,-112.5 766.5,-131.5 880.5,-131.5 880.5,-112.5 766.5,-112.5"/>
<text text-anchor="middle" x="823.5" y="-119.5" font-family="Helvetica,sans-Serif" font-size="10.00" fill="#000000">unordered_map</text>
</a>
</g>
</g>
<!-- Node11&#45;&gt;Node16 -->
<g id="edge21" class="edge">
<title>Node11&#45;&gt;Node16</title>
<path fill="none" stroke="#191970" d="M932.3438,-173.8906C910.949,-163.6908 876.938,-147.4763 852.6298,-135.8875"/>
<polygon fill="#191970" stroke="#191970" points="854.0476,-132.686 843.5147,-131.5419 851.0352,-139.0047 854.0476,-132.686"/>
</g>
<!-- Node19&#45;&gt;Node7 -->
<g id="edge30" class="edge">
<title>Node19&#45;&gt;Node7</title>
<path fill="none" stroke="#191970" d="M1327.3983,-173.9446C1296.6822,-164.4602 1249.2771,-148.9248 1209.5,-132 1191.5755,-124.3732 1189.0297,-118.009 1170.5,-112 944.4501,-38.6937 657.3001,-17.387 551.7864,-11.805"/>
<polygon fill="#191970" stroke="#191970" points="551.7331,-8.2978 541.5679,-11.284 551.3767,-15.2887 551.7331,-8.2978"/>
</g>
<!-- Node19&#45;&gt;Node15 -->
<g id="edge29" class="edge">
<title>Node19&#45;&gt;Node15</title>
<path fill="none" stroke="#191970" d="M1321.1773,-173.9581C1278.003,-163.2082 1207.7505,-145.7162 1160.8416,-134.0365"/>
<polygon fill="#191970" stroke="#191970" points="1161.462,-130.5842 1150.9126,-131.5643 1159.7707,-137.3768 1161.462,-130.5842"/>
</g>
<!-- Node20 -->
<g id="node21" class="node">
<title>Node20</title>
<g id="a_node21"><a xlink:title=" ">
<polygon fill="none" stroke="#bfbfbf" points="1218.5,-112.5 1218.5,-131.5 1310.5,-131.5 1310.5,-112.5 1218.5,-112.5"/>
<text text-anchor="middle" x="1264.5" y="-119.5" font-family="Helvetica,sans-Serif" font-size="10.00" fill="#000000">functional</text>
</a>
</g>
</g>
<!-- Node19&#45;&gt;Node20 -->
<g id="edge25" class="edge">
<title>Node19&#45;&gt;Node20</title>
<path fill="none" stroke="#191970" d="M1344.6563,-173.8906C1329.4582,-164.0519 1305.6152,-148.6167 1287.8794,-137.1351"/>
<polygon fill="#191970" stroke="#191970" points="1289.5361,-134.0382 1279.2395,-131.5419 1285.732,-139.9144 1289.5361,-134.0382"/>
</g>
<!-- Node21 -->
<g id="node22" class="node">
<title>Node21</title>
<g id="a_node22"><a xlink:title=" ">
<polygon fill="none" stroke="#bfbfbf" points="1328.5,-112.5 1328.5,-131.5 1390.5,-131.5 1390.5,-112.5 1328.5,-112.5"/>
<text text-anchor="middle" x="1359.5" y="-119.5" font-family="Helvetica,sans-Serif" font-size="10.00" fill="#000000">future</text>
</a>
</g>
</g>
<!-- Node19&#45;&gt;Node21 -->
<g id="edge26" class="edge">
<title>Node19&#45;&gt;Node21</title>
<path fill="none" stroke="#191970" d="M1359.5,-173.8906C1359.5,-165.3657 1359.5,-152.6392 1359.5,-141.9235"/>
<polygon fill="#191970" stroke="#191970" points="1363.0001,-141.7448 1359.5,-131.7449 1356.0001,-141.7449 1363.0001,-141.7448"/>
</g>
<!-- Node22 -->
<g id="node23" class="node">
<title>Node22</title>
<g id="a_node23"><a xlink:title=" ">
<polygon fill="none" stroke="#bfbfbf" points="1408.5,-112.5 1408.5,-131.5 1462.5,-131.5 1462.5,-112.5 1408.5,-112.5"/>
<text text-anchor="middle" x="1435.5" y="-119.5" font-family="Helvetica,sans-Serif" font-size="10.00" fill="#000000">queue</text>
</a>
</g>
</g>
<!-- Node19&#45;&gt;Node22 -->
<g id="edge27" class="edge">
<title>Node19&#45;&gt;Node22</title>
<path fill="none" stroke="#191970" d="M1371.375,-173.8906C1383.1297,-164.3786 1401.3486,-149.6357 1415.3672,-138.2917"/>
<polygon fill="#191970" stroke="#191970" points="1417.8856,-140.7562 1423.4576,-131.7449 1413.4822,-135.3146 1417.8856,-140.7562"/>
</g>
<!-- Node19&#45;&gt;Node23 -->
<g id="edge28" class="edge">
<title>Node19&#45;&gt;Node23</title>
<path fill="none" stroke="#191970" d="M1383.25,-173.8906C1408.7939,-163.5554 1449.6009,-147.0447 1478.311,-135.4284"/>
<polygon fill="#191970" stroke="#191970" points="1479.9596,-138.5371 1487.9168,-131.5419 1477.334,-132.0481 1479.9596,-138.5371"/>
</g>
</g>
</svg>
