<?xml version="1.0" encoding="UTF-8" standalone="no"?>
<!DOCTYPE svg PUBLIC "-//W3C//DTD SVG 1.1//EN"
 "http://www.w3.org/Graphics/SVG/1.1/DTD/svg11.dtd">
<!-- Generated by graphviz version 2.40.1 (0)
 -->
<!-- Title: leitse/main.cpp Pages: 1 -->
<svg width="716pt" height="151pt"
 viewBox="0.00 0.00 715.50 151.00" xmlns="http://www.w3.org/2000/svg" xmlns:xlink="http://www.w3.org/1999/xlink">
<g id="graph0" class="graph" transform="scale(1 1) rotate(0) translate(4 147)">
<title>leitse/main.cpp</title>
<!-- Node0 -->
<g id="node1" class="node">
<title>Node0</title>
<g id="a_node1"><a xlink:title=" ">
<polygon fill="#bfbfbf" stroke="#000000" points="366,-123.5 366,-142.5 495,-142.5 495,-123.5 366,-123.5"/>
<text text-anchor="middle" x="430.5" y="-130.5" font-family="Helvetica,sans-Serif" font-size="10.00" fill="#000000">leitse/main.cpp</text>
</a>
</g>
</g>
<!-- Node1 -->
<g id="node2" class="node">
<title>Node1</title>
<g id="a_node2"><a xlink:href="config_8h.html" target="_top" xlink:title=" ">
<polygon fill="none" stroke="#000000" points="120,-62 120,-81 249,-81 249,-62 120,-62"/>
<text text-anchor="middle" x="184.5" y="-69" font-family="Helvetica,sans-Serif" font-size="10.00" fill="#000000">config/config.h</text>
</a>
</g>
</g>
<!-- Node0&#45;&gt;Node1 -->
<g id="edge1" class="edge">
<title>Node0&#45;&gt;Node1</title>
<path fill="none" stroke="#191970" d="M392.3324,-123.4581C349.333,-112.7082 279.3649,-95.2162 232.6458,-83.5365"/>
<polygon fill="#191970" stroke="#191970" points="233.3075,-80.0942 222.7571,-81.0643 231.6097,-86.8852 233.3075,-80.0942"/>
</g>
<!-- Node6 -->
<g id="node7" class="node">
<title>Node6</title>
<g id="a_node7"><a xlink:title=" ">
<polygon fill="none" stroke="#bfbfbf" points="267.5,-56.5 267.5,-86.5 419.5,-86.5 419.5,-56.5 267.5,-56.5"/>
<text text-anchor="start" x="275.5" y="-74.5" font-family="Helvetica,sans-Serif" font-size="10.00" fill="#000000">spdlog/sinks/basic</text>
<text text-anchor="middle" x="343.5" y="-63.5" font-family="Helvetica,sans-Serif" font-size="10.00" fill="#000000">_file_sink.h</text>
</a>
</g>
</g>
<!-- Node0&#45;&gt;Node6 -->
<g id="edge6" class="edge">
<title>Node0&#45;&gt;Node6</title>
<path fill="none" stroke="#191970" d="M416.9063,-123.3906C405.2409,-115.1444 388.0141,-102.9669 373.18,-92.4807"/>
<polygon fill="#191970" stroke="#191970" points="374.9687,-89.459 364.7826,-86.5446 370.928,-95.175 374.9687,-89.459"/>
</g>
<!-- Node7 -->
<g id="node8" class="node">
<title>Node7</title>
<g id="a_node8"><a xlink:title=" ">
<polygon fill="none" stroke="#bfbfbf" points="438,-56.5 438,-86.5 597,-86.5 597,-56.5 438,-56.5"/>
<text text-anchor="start" x="446" y="-74.5" font-family="Helvetica,sans-Serif" font-size="10.00" fill="#000000">spdlog/sinks/stdout</text>
<text text-anchor="middle" x="517.5" y="-63.5" font-family="Helvetica,sans-Serif" font-size="10.00" fill="#000000">_color_sinks.h</text>
</a>
</g>
</g>
<!-- Node0&#45;&gt;Node7 -->
<g id="edge7" class="edge">
<title>Node0&#45;&gt;Node7</title>
<path fill="none" stroke="#191970" d="M444.0938,-123.3906C455.7591,-115.1444 472.9859,-102.9669 487.82,-92.4807"/>
<polygon fill="#191970" stroke="#191970" points="490.072,-95.175 496.2174,-86.5446 486.0313,-89.459 490.072,-95.175"/>
</g>
<!-- Node8 -->
<g id="node9" class="node">
<title>Node8</title>
<g id="a_node9"><a xlink:title=" ">
<polygon fill="none" stroke="#bfbfbf" points="615.5,-62 615.5,-81 707.5,-81 707.5,-62 615.5,-62"/>
<text text-anchor="middle" x="661.5" y="-69" font-family="Helvetica,sans-Serif" font-size="10.00" fill="#000000">filesystem</text>
</a>
</g>
</g>
<!-- Node0&#45;&gt;Node8 -->
<g id="edge8" class="edge">
<title>Node0&#45;&gt;Node8</title>
<path fill="none" stroke="#191970" d="M467.9783,-123.425C503.647,-114.2603 558.8018,-99.9531 606.5,-87 610.322,-85.9621 614.2896,-84.8709 618.2642,-83.7684"/>
<polygon fill="#191970" stroke="#191970" points="619.3896,-87.0881 628.0802,-81.0282 617.5074,-80.3459 619.3896,-87.0881"/>
</g>
<!-- Node2 -->
<g id="node3" class="node">
<title>Node2</title>
<g id="a_node3"><a xlink:title=" ">
<polygon fill="none" stroke="#bfbfbf" points="0,-.5 0,-19.5 69,-19.5 69,-.5 0,-.5"/>
<text text-anchor="middle" x="34.5" y="-7.5" font-family="Helvetica,sans-Serif" font-size="10.00" fill="#000000">cstdlib</text>
</a>
</g>
</g>
<!-- Node1&#45;&gt;Node2 -->
<g id="edge2" class="edge">
<title>Node1&#45;&gt;Node2</title>
<path fill="none" stroke="#191970" d="M161.0625,-61.8906C135.8547,-51.5554 95.5847,-35.0447 67.2523,-23.4284"/>
<polygon fill="#191970" stroke="#191970" points="68.3532,-20.0971 57.7729,-19.5419 65.6977,-26.5739 68.3532,-20.0971"/>
</g>
<!-- Node3 -->
<g id="node4" class="node">
<title>Node3</title>
<g id="a_node4"><a xlink:title=" ">
<polygon fill="none" stroke="#bfbfbf" points="87.5,-.5 87.5,-19.5 171.5,-19.5 171.5,-.5 87.5,-.5"/>
<text text-anchor="middle" x="129.5" y="-7.5" font-family="Helvetica,sans-Serif" font-size="10.00" fill="#000000">stdexcept</text>
</a>
</g>
</g>
<!-- Node1&#45;&gt;Node3 -->
<g id="edge3" class="edge">
<title>Node1&#45;&gt;Node3</title>
<path fill="none" stroke="#191970" d="M175.9063,-61.8906C167.6403,-52.6478 154.9574,-38.466 144.9383,-27.2628"/>
<polygon fill="#191970" stroke="#191970" points="147.49,-24.8657 138.2149,-19.7449 142.2722,-29.5321 147.49,-24.8657"/>
</g>
<!-- Node4 -->
<g id="node5" class="node">
<title>Node4</title>
<g id="a_node5"><a xlink:title=" ">
<polygon fill="none" stroke="#bfbfbf" points="190,-.5 190,-19.5 289,-19.5 289,-.5 190,-.5"/>
<text text-anchor="middle" x="239.5" y="-7.5" font-family="Helvetica,sans-Serif" font-size="10.00" fill="#000000">type_traits</text>
</a>
</g>
</g>
<!-- Node1&#45;&gt;Node4 -->
<g id="edge4" class="edge">
<title>Node1&#45;&gt;Node4</title>
<path fill="none" stroke="#191970" d="M193.0938,-61.8906C201.3597,-52.6478 214.0426,-38.466 224.0617,-27.2628"/>
<polygon fill="#191970" stroke="#191970" points="226.7278,-29.5321 230.7851,-19.7449 221.51,-24.8657 226.7278,-29.5321"/>
</g>
<!-- Node5 -->
<g id="node6" class="node">
<title>Node5</title>
<g id="a_node6"><a xlink:title=" ">
<polygon fill="none" stroke="#bfbfbf" points="307.5,-.5 307.5,-19.5 421.5,-19.5 421.5,-.5 307.5,-.5"/>
<text text-anchor="middle" x="364.5" y="-7.5" font-family="Helvetica,sans-Serif" font-size="10.00" fill="#000000">unordered_map</text>
</a>
</g>
</g>
<!-- Node1&#45;&gt;Node5 -->
<g id="edge5" class="edge">
<title>Node1&#45;&gt;Node5</title>
<path fill="none" stroke="#191970" d="M212.625,-61.8906C243.4028,-51.3749 292.8921,-34.466 326.9655,-22.8243"/>
<polygon fill="#191970" stroke="#191970" points="328.2412,-26.0871 336.5725,-19.5419 325.978,-19.4631 328.2412,-26.0871"/>
</g>
</g>
</svg>
