<?xml version="1.0" encoding="UTF-8" standalone="no"?>
<!DOCTYPE svg PUBLIC "-//W3C//DTD SVG 1.1//EN"
 "http://www.w3.org/Graphics/SVG/1.1/DTD/svg11.dtd">
<!-- Generated by graphviz version 2.40.1 (0)
 -->
<!-- Title: leitse/main.cpp Pages: 1 -->
<svg width="730pt" height="95pt"
 viewBox="0.00 0.00 730.00 95.00" xmlns="http://www.w3.org/2000/svg" xmlns:xlink="http://www.w3.org/1999/xlink">
<g id="graph0" class="graph" transform="scale(1 1) rotate(0) translate(4 91)">
<title>leitse/main.cpp</title>
<!-- Node0 -->
<g id="node1" class="node">
<title>Node0</title>
<g id="a_node1"><a xlink:title=" ">
<polygon fill="#bfbfbf" stroke="#000000" points="300.5,-67.5 300.5,-86.5 429.5,-86.5 429.5,-67.5 300.5,-67.5"/>
<text text-anchor="middle" x="365" y="-74.5" font-family="Helvetica,sans-Serif" font-size="10.00" fill="#000000">leitse/main.cpp</text>
</a>
</g>
</g>
<!-- Node1 -->
<g id="node2" class="node">
<title>Node1</title>
<g id="a_node2"><a xlink:title=" ">
<polygon fill="none" stroke="#bfbfbf" points="0,-.5 0,-30.5 152,-30.5 152,-.5 0,-.5"/>
<text text-anchor="start" x="8" y="-18.5" font-family="Helvetica,sans-Serif" font-size="10.00" fill="#000000">spdlog/sinks/basic</text>
<text text-anchor="middle" x="76" y="-7.5" font-family="Helvetica,sans-Serif" font-size="10.00" fill="#000000">_file_sink.h</text>
</a>
</g>
</g>
<!-- Node0&#45;&gt;Node1 -->
<g id="edge1" class="edge">
<title>Node0&#45;&gt;Node1</title>
<path fill="none" stroke="#191970" d="M320.1608,-67.4581C276.5944,-58.187 209.4626,-43.9012 156.6095,-32.6539"/>
<polygon fill="#191970" stroke="#191970" points="157.0881,-29.1775 146.5786,-30.5193 155.631,-36.0242 157.0881,-29.1775"/>
</g>
<!-- Node2 -->
<g id="node3" class="node">
<title>Node2</title>
<g id="a_node3"><a xlink:title=" ">
<polygon fill="none" stroke="#bfbfbf" points="170.5,-.5 170.5,-30.5 329.5,-30.5 329.5,-.5 170.5,-.5"/>
<text text-anchor="start" x="178.5" y="-18.5" font-family="Helvetica,sans-Serif" font-size="10.00" fill="#000000">spdlog/sinks/stdout</text>
<text text-anchor="middle" x="250" y="-7.5" font-family="Helvetica,sans-Serif" font-size="10.00" fill="#000000">_color_sinks.h</text>
</a>
</g>
</g>
<!-- Node0&#45;&gt;Node2 -->
<g id="edge2" class="edge">
<title>Node0&#45;&gt;Node2</title>
<path fill="none" stroke="#191970" d="M347.0313,-67.3906C331.0351,-58.8361 307.1277,-46.0509 287.047,-35.3121"/>
<polygon fill="#191970" stroke="#191970" points="288.601,-32.1741 278.1322,-30.5446 285.2998,-38.3469 288.601,-32.1741"/>
</g>
<!-- Node3 -->
<g id="node4" class="node">
<title>Node3</title>
<g id="a_node4"><a xlink:title=" ">
<polygon fill="none" stroke="#bfbfbf" points="348,-6 348,-25 612,-25 612,-6 348,-6"/>
<text text-anchor="middle" x="480" y="-13" font-family="Helvetica,sans-Serif" font-size="10.00" fill="#000000">tinyfiledialogs/tinyfiledialogs.h</text>
</a>
</g>
</g>
<!-- Node0&#45;&gt;Node3 -->
<g id="edge3" class="edge">
<title>Node0&#45;&gt;Node3</title>
<path fill="none" stroke="#191970" d="M382.9688,-67.3906C401.7884,-57.3262 431.5585,-41.4057 453.1641,-29.8514"/>
<polygon fill="#191970" stroke="#191970" points="454.9898,-32.8442 462.1574,-25.0419 451.6886,-26.6714 454.9898,-32.8442"/>
</g>
<!-- Node4 -->
<g id="node5" class="node">
<title>Node4</title>
<g id="a_node5"><a xlink:title=" ">
<polygon fill="none" stroke="#bfbfbf" points="630,-6 630,-25 722,-25 722,-6 630,-6"/>
<text text-anchor="middle" x="676" y="-13" font-family="Helvetica,sans-Serif" font-size="10.00" fill="#000000">filesystem</text>
</a>
</g>
</g>
<!-- Node0&#45;&gt;Node4 -->
<g id="edge4" class="edge">
<title>Node0&#45;&gt;Node4</title>
<path fill="none" stroke="#191970" d="M427.6809,-67.4774C479.7213,-59.1555 555.5418,-46.0674 621,-31 625.3595,-29.9965 629.8898,-28.8656 634.3953,-27.6833"/>
<polygon fill="#191970" stroke="#191970" points="635.4065,-31.0356 644.1433,-25.0425 633.576,-24.2792 635.4065,-31.0356"/>
</g>
</g>
</svg>
