<?xml version="1.0" encoding="UTF-8" standalone="no"?>
<!DOCTYPE svg PUBLIC "-//W3C//DTD SVG 1.1//EN"
 "http://www.w3.org/Graphics/SVG/1.1/DTD/svg11.dtd">
<!-- Generated by graphviz version 2.40.1 (0)
 -->
<!-- Title: leitse/main.cpp Pages: 1 -->
<svg width="786pt" height="151pt"
 viewBox="0.00 0.00 785.50 151.00" xmlns="http://www.w3.org/2000/svg" xmlns:xlink="http://www.w3.org/1999/xlink">
<g id="graph0" class="graph" transform="scale(1 1) rotate(0) translate(4 147)">
<title>leitse/main.cpp</title>
<!-- Node0 -->
<g id="node1" class="node">
<title>Node0</title>
<g id="a_node1"><a xlink:title=" ">
<polygon fill="#bfbfbf" stroke="#000000" points="436,-123.5 436,-142.5 565,-142.5 565,-123.5 436,-123.5"/>
<text text-anchor="middle" x="500.5" y="-130.5" font-family="Helvetica,sans-Serif" font-size="10.00" fill="#000000">leitse/main.cpp</text>
</a>
</g>
</g>
<!-- Node1 -->
<g id="node2" class="node">
<title>Node1</title>
<g id="a_node2"><a xlink:href="config_8h.html" target="_top" xlink:title=" ">
<polygon fill="none" stroke="#000000" points="190,-62 190,-81 319,-81 319,-62 190,-62"/>
<text text-anchor="middle" x="254.5" y="-69" font-family="Helvetica,sans-Serif" font-size="10.00" fill="#000000">config/config.h</text>
</a>
</g>
</g>
<!-- Node0&#45;&gt;Node1 -->
<g id="edge1" class="edge">
<title>Node0&#45;&gt;Node1</title>
<path fill="none" stroke="#191970" d="M462.3324,-123.4581C419.333,-112.7082 349.3649,-95.2162 302.6458,-83.5365"/>
<polygon fill="#191970" stroke="#191970" points="303.3075,-80.0942 292.7571,-81.0643 301.6097,-86.8852 303.3075,-80.0942"/>
</g>
<!-- Node7 -->
<g id="node8" class="node">
<title>Node7</title>
<g id="a_node8"><a xlink:title=" ">
<polygon fill="none" stroke="#bfbfbf" points="337.5,-56.5 337.5,-86.5 489.5,-86.5 489.5,-56.5 337.5,-56.5"/>
<text text-anchor="start" x="345.5" y="-74.5" font-family="Helvetica,sans-Serif" font-size="10.00" fill="#000000">spdlog/sinks/basic</text>
<text text-anchor="middle" x="413.5" y="-63.5" font-family="Helvetica,sans-Serif" font-size="10.00" fill="#000000">_file_sink.h</text>
</a>
</g>
</g>
<!-- Node0&#45;&gt;Node7 -->
<g id="edge7" class="edge">
<title>Node0&#45;&gt;Node7</title>
<path fill="none" stroke="#191970" d="M486.9063,-123.3906C475.2409,-115.1444 458.0141,-102.9669 443.18,-92.4807"/>
<polygon fill="#191970" stroke="#191970" points="444.9687,-89.459 434.7826,-86.5446 440.928,-95.175 444.9687,-89.459"/>
</g>
<!-- Node8 -->
<g id="node9" class="node">
<title>Node8</title>
<g id="a_node9"><a xlink:title=" ">
<polygon fill="none" stroke="#bfbfbf" points="508,-56.5 508,-86.5 667,-86.5 667,-56.5 508,-56.5"/>
<text text-anchor="start" x="516" y="-74.5" font-family="Helvetica,sans-Serif" font-size="10.00" fill="#000000">spdlog/sinks/stdout</text>
<text text-anchor="middle" x="587.5" y="-63.5" font-family="Helvetica,sans-Serif" font-size="10.00" fill="#000000">_color_sinks.h</text>
</a>
</g>
</g>
<!-- Node0&#45;&gt;Node8 -->
<g id="edge8" class="edge">
<title>Node0&#45;&gt;Node8</title>
<path fill="none" stroke="#191970" d="M514.0938,-123.3906C525.7591,-115.1444 542.9859,-102.9669 557.82,-92.4807"/>
<polygon fill="#191970" stroke="#191970" points="560.072,-95.175 566.2174,-86.5446 556.0313,-89.459 560.072,-95.175"/>
</g>
<!-- Node9 -->
<g id="node10" class="node">
<title>Node9</title>
<g id="a_node10"><a xlink:title=" ">
<polygon fill="none" stroke="#bfbfbf" points="685.5,-62 685.5,-81 777.5,-81 777.5,-62 685.5,-62"/>
<text text-anchor="middle" x="731.5" y="-69" font-family="Helvetica,sans-Serif" font-size="10.00" fill="#000000">filesystem</text>
</a>
</g>
</g>
<!-- Node0&#45;&gt;Node9 -->
<g id="edge9" class="edge">
<title>Node0&#45;&gt;Node9</title>
<path fill="none" stroke="#191970" d="M537.9783,-123.425C573.647,-114.2603 628.8018,-99.9531 676.5,-87 680.322,-85.9621 684.2896,-84.8709 688.2642,-83.7684"/>
<polygon fill="#191970" stroke="#191970" points="689.3896,-87.0881 698.0802,-81.0282 687.5074,-80.3459 689.3896,-87.0881"/>
</g>
<!-- Node2 -->
<g id="node3" class="node">
<title>Node2</title>
<g id="a_node3"><a xlink:title=" ">
<polygon fill="none" stroke="#bfbfbf" points="0,-.5 0,-19.5 107,-19.5 107,-.5 0,-.5"/>
<text text-anchor="middle" x="53.5" y="-7.5" font-family="Helvetica,sans-Serif" font-size="10.00" fill="#000000">fmt/format.h</text>
</a>
</g>
</g>
<!-- Node1&#45;&gt;Node2 -->
<g id="edge2" class="edge">
<title>Node1&#45;&gt;Node2</title>
<path fill="none" stroke="#191970" d="M223.0938,-61.8906C188.4302,-51.2846 132.5119,-34.1753 94.4375,-22.5257"/>
<polygon fill="#191970" stroke="#191970" points="95.2722,-19.1209 84.6857,-19.5419 93.2241,-25.8146 95.2722,-19.1209"/>
</g>
<!-- Node3 -->
<g id="node4" class="node">
<title>Node3</title>
<g id="a_node4"><a xlink:title=" ">
<polygon fill="none" stroke="#bfbfbf" points="125,-.5 125,-19.5 194,-19.5 194,-.5 125,-.5"/>
<text text-anchor="middle" x="159.5" y="-7.5" font-family="Helvetica,sans-Serif" font-size="10.00" fill="#000000">cstdlib</text>
</a>
</g>
</g>
<!-- Node1&#45;&gt;Node3 -->
<g id="edge3" class="edge">
<title>Node1&#45;&gt;Node3</title>
<path fill="none" stroke="#191970" d="M239.6563,-61.8906C224.4582,-52.0519 200.6152,-36.6167 182.8794,-25.1351"/>
<polygon fill="#191970" stroke="#191970" points="184.5361,-22.0382 174.2395,-19.5419 180.732,-27.9144 184.5361,-22.0382"/>
</g>
<!-- Node4 -->
<g id="node5" class="node">
<title>Node4</title>
<g id="a_node5"><a xlink:title=" ">
<polygon fill="none" stroke="#bfbfbf" points="212.5,-.5 212.5,-19.5 296.5,-19.5 296.5,-.5 212.5,-.5"/>
<text text-anchor="middle" x="254.5" y="-7.5" font-family="Helvetica,sans-Serif" font-size="10.00" fill="#000000">stdexcept</text>
</a>
</g>
</g>
<!-- Node1&#45;&gt;Node4 -->
<g id="edge4" class="edge">
<title>Node1&#45;&gt;Node4</title>
<path fill="none" stroke="#191970" d="M254.5,-61.8906C254.5,-53.3657 254.5,-40.6392 254.5,-29.9235"/>
<polygon fill="#191970" stroke="#191970" points="258.0001,-29.7448 254.5,-19.7449 251.0001,-29.7449 258.0001,-29.7448"/>
</g>
<!-- Node5 -->
<g id="node6" class="node">
<title>Node5</title>
<g id="a_node6"><a xlink:title=" ">
<polygon fill="none" stroke="#bfbfbf" points="315,-.5 315,-19.5 414,-19.5 414,-.5 315,-.5"/>
<text text-anchor="middle" x="364.5" y="-7.5" font-family="Helvetica,sans-Serif" font-size="10.00" fill="#000000">type_traits</text>
</a>
</g>
</g>
<!-- Node1&#45;&gt;Node5 -->
<g id="edge5" class="edge">
<title>Node1&#45;&gt;Node5</title>
<path fill="none" stroke="#191970" d="M271.6875,-61.8906C289.6082,-51.8713 317.9095,-36.0483 338.5523,-24.5071"/>
<polygon fill="#191970" stroke="#191970" points="340.4128,-27.4769 347.4332,-19.5419 336.9967,-21.367 340.4128,-27.4769"/>
</g>
<!-- Node6 -->
<g id="node7" class="node">
<title>Node6</title>
<g id="a_node7"><a xlink:title=" ">
<polygon fill="none" stroke="#bfbfbf" points="432.5,-.5 432.5,-19.5 546.5,-19.5 546.5,-.5 432.5,-.5"/>
<text text-anchor="middle" x="489.5" y="-7.5" font-family="Helvetica,sans-Serif" font-size="10.00" fill="#000000">unordered_map</text>
</a>
</g>
</g>
<!-- Node1&#45;&gt;Node6 -->
<g id="edge6" class="edge">
<title>Node1&#45;&gt;Node6</title>
<path fill="none" stroke="#191970" d="M290.9609,-61.9581C331.9515,-51.2308 398.5969,-33.7895 443.226,-22.11"/>
<polygon fill="#191970" stroke="#191970" points="444.1655,-25.4821 452.9536,-19.5643 442.3932,-18.7101 444.1655,-25.4821"/>
</g>
</g>
</svg>
