<?xml version="1.0" encoding="UTF-8" standalone="no"?>
<!DOCTYPE svg PUBLIC "-//W3C//DTD SVG 1.1//EN"
 "http://www.w3.org/Graphics/SVG/1.1/DTD/svg11.dtd">
<!-- Generated by graphviz version 2.40.1 (0)
 -->
<!-- Title: leitse/main.cpp Pages: 1 -->
<svg width="1454pt" height="263pt"
 viewBox="0.00 0.00 1453.88 263.00" xmlns="http://www.w3.org/2000/svg" xmlns:xlink="http://www.w3.org/1999/xlink">
<g id="graph0" class="graph" transform="scale(1 1) rotate(0) translate(4 259)">
<title>leitse/main.cpp</title>
<!-- Node0 -->
<g id="node1" class="node">
<title>Node0</title>
<g id="a_node1"><a xlink:title=" ">
<polygon fill="#bfbfbf" stroke="#000000" points="993.5,-235.5 993.5,-254.5 1122.5,-254.5 1122.5,-235.5 993.5,-235.5"/>
<text text-anchor="middle" x="1058" y="-242.5" font-family="Helvetica,sans-Serif" font-size="10.00" fill="#000000">leitse/main.cpp</text>
</a>
</g>
</g>
<!-- Node1 -->
<g id="node2" class="node">
<title>Node1</title>
<g id="a_node2"><a xlink:href="ugg_8h.html" target="_top" xlink:title=" ">
<polygon fill="none" stroke="#000000" points="296,-174 296,-193 350,-193 350,-174 296,-174"/>
<text text-anchor="middle" x="323" y="-181" font-family="Helvetica,sans-Serif" font-size="10.00" fill="#000000">ugg.h</text>
</a>
</g>
</g>
<!-- Node0&#45;&gt;Node1 -->
<g id="edge1" class="edge">
<title>Node0&#45;&gt;Node1</title>
<path fill="none" stroke="#191970" d="M993.2941,-244.1934C873.1408,-241.8931 607.7062,-233.0408 387,-199 378.2294,-197.6473 368.8932,-195.6897 360.1409,-193.6186"/>
<polygon fill="#191970" stroke="#191970" points="360.7511,-190.1642 350.2036,-191.1645 359.0727,-196.96 360.7511,-190.1642"/>
</g>
<!-- Node7 -->
<g id="node8" class="node">
<title>Node7</title>
<g id="a_node8"><a xlink:title=" ">
<polygon fill="none" stroke="#bfbfbf" points="365,-.5 365,-19.5 427,-19.5 427,-.5 365,-.5"/>
<text text-anchor="middle" x="396" y="-7.5" font-family="Helvetica,sans-Serif" font-size="10.00" fill="#000000">vector</text>
</a>
</g>
</g>
<!-- Node0&#45;&gt;Node7 -->
<g id="edge32" class="edge">
<title>Node0&#45;&gt;Node7</title>
<path fill="none" stroke="#191970" d="M993.2918,-242.7476C847.3923,-236.2721 499.3234,-212.5491 420,-132 393.0961,-104.6803 391.9724,-56.5382 393.8061,-29.6213"/>
<polygon fill="#191970" stroke="#191970" points="397.3058,-29.7785 394.7064,-19.5075 390.3334,-29.1577 397.3058,-29.7785"/>
</g>
<!-- Node9 -->
<g id="node10" class="node">
<title>Node9</title>
<g id="a_node10"><a xlink:title=" ">
<polygon fill="none" stroke="#bfbfbf" points="840,-.5 840,-19.5 932,-19.5 932,-.5 840,-.5"/>
<text text-anchor="middle" x="886" y="-7.5" font-family="Helvetica,sans-Serif" font-size="10.00" fill="#000000">filesystem</text>
</a>
</g>
</g>
<!-- Node0&#45;&gt;Node9 -->
<g id="edge30" class="edge">
<title>Node0&#45;&gt;Node9</title>
<path fill="none" stroke="#191970" d="M1122.7864,-241.3581C1222.6605,-235.0888 1404.8829,-220.7932 1425,-199 1451.2426,-170.5709 1452.6986,-141.7803 1428,-112 1366.6893,-38.0749 1068.6362,-17.3739 942.5294,-11.8766"/>
<polygon fill="#191970" stroke="#191970" points="942.4485,-8.3702 932.3106,-11.4482 942.1552,-15.3641 942.4485,-8.3702"/>
</g>
<!-- Node11 -->
<g id="node12" class="node">
<title>Node11</title>
<g id="a_node12"><a xlink:href="config_8h.html" target="_top" xlink:title=" ">
<polygon fill="none" stroke="#000000" points="744.5,-174 744.5,-193 873.5,-193 873.5,-174 744.5,-174"/>
<text text-anchor="middle" x="809" y="-181" font-family="Helvetica,sans-Serif" font-size="10.00" fill="#000000">config/config.h</text>
</a>
</g>
</g>
<!-- Node0&#45;&gt;Node11 -->
<g id="edge14" class="edge">
<title>Node0&#45;&gt;Node11</title>
<path fill="none" stroke="#191970" d="M1019.367,-235.4581C975.7519,-224.6857 904.7247,-207.1428 857.4359,-195.4631"/>
<polygon fill="#191970" stroke="#191970" points="858.2712,-192.0643 847.7237,-193.0643 856.5927,-198.8601 858.2712,-192.0643"/>
</g>
<!-- Node17 -->
<g id="node18" class="node">
<title>Node17</title>
<g id="a_node18"><a xlink:title=" ">
<polygon fill="none" stroke="#bfbfbf" points="1069,-168.5 1069,-198.5 1221,-198.5 1221,-168.5 1069,-168.5"/>
<text text-anchor="start" x="1077" y="-186.5" font-family="Helvetica,sans-Serif" font-size="10.00" fill="#000000">spdlog/sinks/basic</text>
<text text-anchor="middle" x="1145" y="-175.5" font-family="Helvetica,sans-Serif" font-size="10.00" fill="#000000">_file_sink.h</text>
</a>
</g>
</g>
<!-- Node0&#45;&gt;Node17 -->
<g id="edge21" class="edge">
<title>Node0&#45;&gt;Node17</title>
<path fill="none" stroke="#191970" d="M1071.5938,-235.3906C1083.2591,-227.1444 1100.4859,-214.9669 1115.32,-204.4807"/>
<polygon fill="#191970" stroke="#191970" points="1117.572,-207.175 1123.7174,-198.5446 1113.5313,-201.459 1117.572,-207.175"/>
</g>
<!-- Node18 -->
<g id="node19" class="node">
<title>Node18</title>
<g id="a_node19"><a xlink:title=" ">
<polygon fill="none" stroke="#bfbfbf" points="1239.5,-168.5 1239.5,-198.5 1398.5,-198.5 1398.5,-168.5 1239.5,-168.5"/>
<text text-anchor="start" x="1247.5" y="-186.5" font-family="Helvetica,sans-Serif" font-size="10.00" fill="#000000">spdlog/sinks/stdout</text>
<text text-anchor="middle" x="1319" y="-175.5" font-family="Helvetica,sans-Serif" font-size="10.00" fill="#000000">_color_sinks.h</text>
</a>
</g>
</g>
<!-- Node0&#45;&gt;Node18 -->
<g id="edge22" class="edge">
<title>Node0&#45;&gt;Node18</title>
<path fill="none" stroke="#191970" d="M1098.4949,-235.4581C1137.5949,-226.2449 1197.7126,-212.0792 1245.3058,-200.8647"/>
<polygon fill="#191970" stroke="#191970" points="1246.3288,-204.2196 1255.2595,-198.5193 1244.7233,-197.4062 1246.3288,-204.2196"/>
</g>
<!-- Node19 -->
<g id="node20" class="node">
<title>Node19</title>
<g id="a_node20"><a xlink:href="thread__pool_8h.html" target="_top" xlink:title=" ">
<polygon fill="none" stroke="#000000" points="891.5,-174 891.5,-193 1050.5,-193 1050.5,-174 891.5,-174"/>
<text text-anchor="middle" x="971" y="-181" font-family="Helvetica,sans-Serif" font-size="10.00" fill="#000000">utils/thread_pool.h</text>
</a>
</g>
</g>
<!-- Node0&#45;&gt;Node19 -->
<g id="edge23" class="edge">
<title>Node0&#45;&gt;Node19</title>
<path fill="none" stroke="#191970" d="M1044.4063,-235.3906C1030.6157,-225.6421 1009.0528,-210.3994 992.859,-198.9521"/>
<polygon fill="#191970" stroke="#191970" points="994.6844,-195.9563 984.4983,-193.0419 990.6437,-201.6723 994.6844,-195.9563"/>
</g>
<!-- Node23 -->
<g id="node24" class="node">
<title>Node23</title>
<g id="a_node24"><a xlink:title=" ">
<polygon fill="none" stroke="#bfbfbf" points="1357,-112.5 1357,-131.5 1419,-131.5 1419,-112.5 1357,-112.5"/>
<text text-anchor="middle" x="1388" y="-119.5" font-family="Helvetica,sans-Serif" font-size="10.00" fill="#000000">thread</text>
</a>
</g>
</g>
<!-- Node0&#45;&gt;Node23 -->
<g id="edge31" class="edge">
<title>Node0&#45;&gt;Node23</title>
<path fill="none" stroke="#191970" d="M1122.6384,-241.0538C1218.6047,-234.5274 1389.5106,-220.0785 1408,-199 1422.3704,-182.6174 1411.4296,-157.1793 1400.919,-140.0714"/>
<polygon fill="#191970" stroke="#191970" points="1403.7155,-137.9546 1395.2875,-131.5344 1397.8723,-141.8091 1403.7155,-137.9546"/>
</g>
<!-- Node2 -->
<g id="node3" class="node">
<title>Node2</title>
<g id="a_node3"><a xlink:href="aggregator_8h.html" target="_top" xlink:title=" ">
<polygon fill="none" stroke="#000000" points="246.5,-112.5 246.5,-131.5 353.5,-131.5 353.5,-112.5 246.5,-112.5"/>
<text text-anchor="middle" x="300" y="-119.5" font-family="Helvetica,sans-Serif" font-size="10.00" fill="#000000">aggregator.h</text>
</a>
</g>
</g>
<!-- Node1&#45;&gt;Node2 -->
<g id="edge2" class="edge">
<title>Node1&#45;&gt;Node2</title>
<path fill="none" stroke="#191970" d="M319.4063,-173.8906C316.1509,-165.1862 311.2575,-152.1015 307.199,-141.2494"/>
<polygon fill="#191970" stroke="#191970" points="310.4256,-139.8852 303.6444,-131.7449 303.8691,-142.3373 310.4256,-139.8852"/>
</g>
<!-- Node3 -->
<g id="node4" class="node">
<title>Node3</title>
<g id="a_node4"><a xlink:href="data__dragon_8h.html" target="_top" xlink:title=" ">
<polygon fill="none" stroke="#000000" points="95,-56.5 95,-75.5 209,-75.5 209,-56.5 95,-56.5"/>
<text text-anchor="middle" x="152" y="-63.5" font-family="Helvetica,sans-Serif" font-size="10.00" fill="#000000">data_dragon.h</text>
</a>
</g>
</g>
<!-- Node2&#45;&gt;Node3 -->
<g id="edge3" class="edge">
<title>Node2&#45;&gt;Node3</title>
<path fill="none" stroke="#191970" d="M274.5579,-112.3733C250.2674,-103.1822 213.4792,-89.2624 186.5457,-79.0713"/>
<polygon fill="#191970" stroke="#191970" points="187.7016,-75.7666 177.1101,-75.5011 185.2243,-82.3136 187.7016,-75.7666"/>
</g>
<!-- Node5 -->
<g id="node6" class="node">
<title>Node5</title>
<g id="a_node6"><a xlink:title=" ">
<polygon fill="none" stroke="#bfbfbf" points="0,-.5 0,-19.5 62,-19.5 62,-.5 0,-.5"/>
<text text-anchor="middle" x="31" y="-7.5" font-family="Helvetica,sans-Serif" font-size="10.00" fill="#000000">string</text>
</a>
</g>
</g>
<!-- Node2&#45;&gt;Node5 -->
<g id="edge10" class="edge">
<title>Node2&#45;&gt;Node5</title>
<path fill="none" stroke="#191970" d="M246.2856,-114.5438C192.0133,-106.2933 112.502,-92.0267 86,-76 66.7636,-64.3671 51.1137,-43.5548 41.495,-28.404"/>
<polygon fill="#191970" stroke="#191970" points="44.4802,-26.5767 36.3073,-19.8348 38.4921,-30.202 44.4802,-26.5767"/>
</g>
<!-- Node6 -->
<g id="node7" class="node">
<title>Node6</title>
<g id="a_node7"><a xlink:title=" ">
<polygon fill="none" stroke="#bfbfbf" points="242.5,-.5 242.5,-19.5 341.5,-19.5 341.5,-.5 242.5,-.5"/>
<text text-anchor="middle" x="292" y="-7.5" font-family="Helvetica,sans-Serif" font-size="10.00" fill="#000000">string_view</text>
</a>
</g>
</g>
<!-- Node2&#45;&gt;Node6 -->
<g id="edge11" class="edge">
<title>Node2&#45;&gt;Node6</title>
<path fill="none" stroke="#191970" d="M286.3664,-112.4516C275.8452,-104.1822 262.0909,-91.1795 256,-76 249.0768,-58.7462 261.0024,-40.2602 272.9454,-27.2546"/>
<polygon fill="#191970" stroke="#191970" points="275.6582,-29.4896 280.2154,-19.925 270.6882,-24.5601 275.6582,-29.4896"/>
</g>
<!-- Node2&#45;&gt;Node7 -->
<g id="edge13" class="edge">
<title>Node2&#45;&gt;Node7</title>
<path fill="none" stroke="#191970" d="M309.4447,-112.3256C318.3061,-103.1494 331.8302,-88.8868 343,-76 356.8963,-59.9675 371.9756,-41.0268 382.4836,-27.5574"/>
<polygon fill="#191970" stroke="#191970" points="385.3067,-29.6284 388.6705,-19.5817 379.7757,-25.3379 385.3067,-29.6284"/>
</g>
<!-- Node8 -->
<g id="node9" class="node">
<title>Node8</title>
<g id="a_node9"><a xlink:href="item__set_8h.html" target="_top" xlink:title=" ">
<polygon fill="none" stroke="#000000" points="579,-56.5 579,-75.5 671,-75.5 671,-56.5 579,-56.5"/>
<text text-anchor="middle" x="625" y="-63.5" font-family="Helvetica,sans-Serif" font-size="10.00" fill="#000000">item_set.h</text>
</a>
</g>
</g>
<!-- Node2&#45;&gt;Node8 -->
<g id="edge8" class="edge">
<title>Node2&#45;&gt;Node8</title>
<path fill="none" stroke="#191970" d="M353.6671,-112.7527C413.0625,-102.5185 508.3591,-86.0981 568.7658,-75.6896"/>
<polygon fill="#191970" stroke="#191970" points="569.6251,-79.0932 578.8855,-73.9459 568.4364,-72.1948 569.6251,-79.0932"/>
</g>
<!-- Node10 -->
<g id="node11" class="node">
<title>Node10</title>
<g id="a_node11"><a xlink:title=" ">
<polygon fill="none" stroke="#bfbfbf" points="265.5,-56.5 265.5,-75.5 334.5,-75.5 334.5,-56.5 265.5,-56.5"/>
<text text-anchor="middle" x="300" y="-63.5" font-family="Helvetica,sans-Serif" font-size="10.00" fill="#000000">utility</text>
</a>
</g>
</g>
<!-- Node2&#45;&gt;Node10 -->
<g id="edge12" class="edge">
<title>Node2&#45;&gt;Node10</title>
<path fill="none" stroke="#191970" d="M300,-112.2455C300,-104.9382 300,-94.6944 300,-85.7046"/>
<polygon fill="#191970" stroke="#191970" points="303.5001,-85.6426 300,-75.6427 296.5001,-85.6427 303.5001,-85.6426"/>
</g>
<!-- Node4 -->
<g id="node5" class="node">
<title>Node4</title>
<g id="a_node5"><a xlink:title=" ">
<polygon fill="none" stroke="#bfbfbf" points="80,-.5 80,-19.5 224,-19.5 224,-.5 80,-.5"/>
<text text-anchor="middle" x="152" y="-7.5" font-family="Helvetica,sans-Serif" font-size="10.00" fill="#000000">nlohmann/json.hpp</text>
</a>
</g>
</g>
<!-- Node3&#45;&gt;Node4 -->
<g id="edge4" class="edge">
<title>Node3&#45;&gt;Node4</title>
<path fill="none" stroke="#191970" d="M152,-56.2455C152,-48.9382 152,-38.6944 152,-29.7046"/>
<polygon fill="#191970" stroke="#191970" points="155.5001,-29.6426 152,-19.6427 148.5001,-29.6427 155.5001,-29.6426"/>
</g>
<!-- Node3&#45;&gt;Node5 -->
<g id="edge5" class="edge">
<title>Node3&#45;&gt;Node5</title>
<path fill="none" stroke="#191970" d="M131.1994,-56.3733C111.7757,-47.3838 82.5776,-33.8706 60.7036,-23.7471"/>
<polygon fill="#191970" stroke="#191970" points="62.0745,-20.5249 51.5292,-19.5011 59.1344,-26.8776 62.0745,-20.5249"/>
</g>
<!-- Node3&#45;&gt;Node6 -->
<g id="edge6" class="edge">
<title>Node3&#45;&gt;Node6</title>
<path fill="none" stroke="#191970" d="M176.0669,-56.3733C198.8428,-47.2629 233.2344,-33.5062 258.649,-23.3404"/>
<polygon fill="#191970" stroke="#191970" points="260.2623,-26.4648 268.2472,-19.5011 257.6625,-19.9654 260.2623,-26.4648"/>
</g>
<!-- Node3&#45;&gt;Node7 -->
<g id="edge7" class="edge">
<title>Node3&#45;&gt;Node7</title>
<path fill="none" stroke="#191970" d="M193.6679,-56.4369C238.7483,-46.0906 310.1716,-29.6983 354.9927,-19.4115"/>
<polygon fill="#191970" stroke="#191970" points="355.9938,-22.7728 364.9574,-17.1245 354.4279,-15.9502 355.9938,-22.7728"/>
</g>
<!-- Node8&#45;&gt;Node9 -->
<g id="edge9" class="edge">
<title>Node8&#45;&gt;Node9</title>
<path fill="none" stroke="#191970" d="M669.5709,-56.4369C714.4268,-46.8127 783.6649,-31.957 831.7008,-21.6504"/>
<polygon fill="#191970" stroke="#191970" points="832.5697,-25.0437 841.6129,-19.5237 831.1011,-18.1995 832.5697,-25.0437"/>
</g>
<!-- Node11&#45;&gt;Node9 -->
<g id="edge17" class="edge">
<title>Node11&#45;&gt;Node9</title>
<path fill="none" stroke="#191970" d="M824.8185,-173.9808C838.3403,-164.9481 857.1297,-150.0849 867,-132 884.8107,-99.3661 887.2091,-54.9534 886.9036,-29.7006"/>
<polygon fill="#191970" stroke="#191970" points="890.3982,-29.4551 886.6186,-19.5574 883.401,-29.6518 890.3982,-29.4551"/>
</g>
<!-- Node12 -->
<g id="node13" class="node">
<title>Node12</title>
<g id="a_node13"><a xlink:title=" ">
<polygon fill="none" stroke="#bfbfbf" points="561.5,-112.5 561.5,-131.5 668.5,-131.5 668.5,-112.5 561.5,-112.5"/>
<text text-anchor="middle" x="615" y="-119.5" font-family="Helvetica,sans-Serif" font-size="10.00" fill="#000000">fmt/format.h</text>
</a>
</g>
</g>
<!-- Node11&#45;&gt;Node12 -->
<g id="edge15" class="edge">
<title>Node11&#45;&gt;Node12</title>
<path fill="none" stroke="#191970" d="M778.6875,-173.8906C745.3735,-163.3298 691.7192,-146.3208 654.9819,-134.6747"/>
<polygon fill="#191970" stroke="#191970" points="655.6898,-131.2275 645.0996,-131.5419 653.5744,-137.9002 655.6898,-131.2275"/>
</g>
<!-- Node13 -->
<g id="node14" class="node">
<title>Node13</title>
<g id="a_node14"><a xlink:title=" ">
<polygon fill="none" stroke="#bfbfbf" points="686.5,-112.5 686.5,-131.5 755.5,-131.5 755.5,-112.5 686.5,-112.5"/>
<text text-anchor="middle" x="721" y="-119.5" font-family="Helvetica,sans-Serif" font-size="10.00" fill="#000000">cstdlib</text>
</a>
</g>
</g>
<!-- Node11&#45;&gt;Node13 -->
<g id="edge16" class="edge">
<title>Node11&#45;&gt;Node13</title>
<path fill="none" stroke="#191970" d="M795.25,-173.8906C781.3009,-164.1421 759.4902,-148.8994 743.1103,-137.4521"/>
<polygon fill="#191970" stroke="#191970" points="744.8551,-134.4015 734.6534,-131.5419 740.8452,-140.1392 744.8551,-134.4015"/>
</g>
<!-- Node14 -->
<g id="node15" class="node">
<title>Node14</title>
<g id="a_node15"><a xlink:title=" ">
<polygon fill="none" stroke="#bfbfbf" points="774,-112.5 774,-131.5 858,-131.5 858,-112.5 774,-112.5"/>
<text text-anchor="middle" x="816" y="-119.5" font-family="Helvetica,sans-Serif" font-size="10.00" fill="#000000">stdexcept</text>
</a>
</g>
</g>
<!-- Node11&#45;&gt;Node14 -->
<g id="edge18" class="edge">
<title>Node11&#45;&gt;Node14</title>
<path fill="none" stroke="#191970" d="M810.0938,-173.8906C811.0641,-165.3657 812.5126,-152.6392 813.7323,-141.9235"/>
<polygon fill="#191970" stroke="#191970" points="817.2374,-142.0766 814.8908,-131.7449 810.2823,-141.2849 817.2374,-142.0766"/>
</g>
<!-- Node15 -->
<g id="node16" class="node">
<title>Node15</title>
<g id="a_node16"><a xlink:title=" ">
<polygon fill="none" stroke="#bfbfbf" points="914.5,-112.5 914.5,-131.5 1013.5,-131.5 1013.5,-112.5 914.5,-112.5"/>
<text text-anchor="middle" x="964" y="-119.5" font-family="Helvetica,sans-Serif" font-size="10.00" fill="#000000">type_traits</text>
</a>
</g>
</g>
<!-- Node11&#45;&gt;Node15 -->
<g id="edge19" class="edge">
<title>Node11&#45;&gt;Node15</title>
<path fill="none" stroke="#191970" d="M833.2188,-173.8906C859.3806,-163.5103 901.2429,-146.9004 930.5388,-135.2766"/>
<polygon fill="#191970" stroke="#191970" points="931.9471,-138.4833 939.9513,-131.5419 929.3654,-131.9767 931.9471,-138.4833"/>
</g>
<!-- Node16 -->
<g id="node17" class="node">
<title>Node16</title>
<g id="a_node17"><a xlink:title=" ">
<polygon fill="none" stroke="#bfbfbf" points="429,-112.5 429,-131.5 543,-131.5 543,-112.5 429,-112.5"/>
<text text-anchor="middle" x="486" y="-119.5" font-family="Helvetica,sans-Serif" font-size="10.00" fill="#000000">unordered_map</text>
</a>
</g>
</g>
<!-- Node11&#45;&gt;Node16 -->
<g id="edge20" class="edge">
<title>Node11&#45;&gt;Node16</title>
<path fill="none" stroke="#191970" d="M758.8856,-173.9581C701.3962,-163.012 607.1918,-145.0752 545.8868,-133.4026"/>
<polygon fill="#191970" stroke="#191970" points="546.4444,-129.946 535.9662,-131.5137 545.135,-136.8224 546.4444,-129.946"/>
</g>
<!-- Node19&#45;&gt;Node7 -->
<g id="edge29" class="edge">
<title>Node19&#45;&gt;Node7</title>
<path fill="none" stroke="#191970" d="M986.5142,-173.867C1007.3372,-159.7674 1039.7698,-132.9161 1022,-112 983.822,-67.0623 571.274,-25.9152 437.5666,-13.676"/>
<polygon fill="#191970" stroke="#191970" points="437.6059,-10.1653 427.3302,-12.7458 436.9724,-17.1365 437.6059,-10.1653"/>
</g>
<!-- Node19&#45;&gt;Node15 -->
<g id="edge28" class="edge">
<title>Node19&#45;&gt;Node15</title>
<path fill="none" stroke="#191970" d="M969.9063,-173.8906C968.9359,-165.3657 967.4874,-152.6392 966.2677,-141.9235"/>
<polygon fill="#191970" stroke="#191970" points="969.7177,-141.2849 965.1092,-131.7449 962.7626,-142.0766 969.7177,-141.2849"/>
</g>
<!-- Node20 -->
<g id="node21" class="node">
<title>Node20</title>
<g id="a_node21"><a xlink:title=" ">
<polygon fill="none" stroke="#bfbfbf" points="1142,-112.5 1142,-131.5 1234,-131.5 1234,-112.5 1142,-112.5"/>
<text text-anchor="middle" x="1188" y="-119.5" font-family="Helvetica,sans-Serif" font-size="10.00" fill="#000000">functional</text>
</a>
</g>
</g>
<!-- Node19&#45;&gt;Node20 -->
<g id="edge24" class="edge">
<title>Node19&#45;&gt;Node20</title>
<path fill="none" stroke="#191970" d="M1004.9063,-173.8906C1042.5679,-163.2169 1103.4702,-145.9566 1144.5885,-134.3033"/>
<polygon fill="#191970" stroke="#191970" points="1145.6651,-137.6361 1154.3318,-131.5419 1143.7564,-130.9013 1145.6651,-137.6361"/>
</g>
<!-- Node21 -->
<g id="node22" class="node">
<title>Node21</title>
<g id="a_node22"><a xlink:title=" ">
<polygon fill="none" stroke="#bfbfbf" points="1252,-112.5 1252,-131.5 1314,-131.5 1314,-112.5 1252,-112.5"/>
<text text-anchor="middle" x="1283" y="-119.5" font-family="Helvetica,sans-Serif" font-size="10.00" fill="#000000">future</text>
</a>
</g>
</g>
<!-- Node19&#45;&gt;Node21 -->
<g id="edge25" class="edge">
<title>Node19&#45;&gt;Node21</title>
<path fill="none" stroke="#191970" d="M1026.4112,-173.9774C1079.358,-164.6597 1161.6226,-149.6145 1241.8286,-132.1718"/>
<polygon fill="#191970" stroke="#191970" points="1242.5775,-135.5908 1251.5975,-130.0329 1241.0803,-128.7528 1242.5775,-135.5908"/>
</g>
<!-- Node22 -->
<g id="node23" class="node">
<title>Node22</title>
<g id="a_node23"><a xlink:title=" ">
<polygon fill="none" stroke="#bfbfbf" points="1070,-112.5 1070,-131.5 1124,-131.5 1124,-112.5 1070,-112.5"/>
<text text-anchor="middle" x="1097" y="-119.5" font-family="Helvetica,sans-Serif" font-size="10.00" fill="#000000">queue</text>
</a>
</g>
</g>
<!-- Node19&#45;&gt;Node22 -->
<g id="edge26" class="edge">
<title>Node19&#45;&gt;Node22</title>
<path fill="none" stroke="#191970" d="M990.6875,-173.8906C1011.4922,-163.7359 1044.511,-147.6196 1068.2319,-136.0416"/>
<polygon fill="#191970" stroke="#191970" points="1069.9993,-139.0736 1077.4507,-131.5419 1066.9288,-132.783 1069.9993,-139.0736"/>
</g>
<!-- Node19&#45;&gt;Node23 -->
<g id="edge27" class="edge">
<title>Node19&#45;&gt;Node23</title>
<path fill="none" stroke="#191970" d="M1024.1279,-173.9216C1035.9249,-171.8857 1048.3767,-169.807 1060,-168 1176.5784,-149.8759 1206.248,-148.9704 1323,-132 1330.699,-130.8809 1338.9047,-129.6491 1346.8018,-128.4438"/>
<polygon fill="#191970" stroke="#191970" points="1347.5846,-131.8647 1356.937,-126.8864 1346.5214,-124.9459 1347.5846,-131.8647"/>
</g>
</g>
</svg>
