<?xml version="1.0" encoding="UTF-8" standalone="no"?>
<!DOCTYPE svg PUBLIC "-//W3C//DTD SVG 1.1//EN"
 "http://www.w3.org/Graphics/SVG/1.1/DTD/svg11.dtd">
<!-- Generated by graphviz version 2.40.1 (0)
 -->
<!-- Title: leitse/main.cpp Pages: 1 -->
<svg width="1218pt" height="207pt"
 viewBox="0.00 0.00 1218.00 207.00" xmlns="http://www.w3.org/2000/svg" xmlns:xlink="http://www.w3.org/1999/xlink">
<g id="graph0" class="graph" transform="scale(1 1) rotate(0) translate(4 203)">
<title>leitse/main.cpp</title>
<!-- Node0 -->
<g id="node1" class="node">
<title>Node0</title>
<g id="a_node1"><a xlink:title=" ">
<polygon fill="#bfbfbf" stroke="#000000" points="701.5,-179.5 701.5,-198.5 830.5,-198.5 830.5,-179.5 701.5,-179.5"/>
<text text-anchor="middle" x="766" y="-186.5" font-family="Helvetica,sans-Serif" font-size="10.00" fill="#000000">leitse/main.cpp</text>
</a>
</g>
</g>
<!-- Node1 -->
<g id="node2" class="node">
<title>Node1</title>
<g id="a_node2"><a xlink:href="ugg_8h.html" target="_top" xlink:title=" ">
<polygon fill="none" stroke="#000000" points="324,-118 324,-137 378,-137 378,-118 324,-118"/>
<text text-anchor="middle" x="351" y="-125" font-family="Helvetica,sans-Serif" font-size="10.00" fill="#000000">ugg.h</text>
</a>
</g>
</g>
<!-- Node0&#45;&gt;Node1 -->
<g id="edge1" class="edge">
<title>Node0&#45;&gt;Node1</title>
<path fill="none" stroke="#191970" d="M701.2778,-183.7568C628.652,-177.1791 507.5684,-164.1262 405,-143 399.507,-141.8686 393.7573,-140.4635 388.1433,-138.9647"/>
<polygon fill="#191970" stroke="#191970" points="388.8426,-135.526 378.2695,-136.2045 386.958,-142.2676 388.8426,-135.526"/>
</g>
<!-- Node7 -->
<g id="node8" class="node">
<title>Node7</title>
<g id="a_node8"><a xlink:title=" ">
<polygon fill="none" stroke="#bfbfbf" points="410,-.5 410,-19.5 472,-19.5 472,-.5 410,-.5"/>
<text text-anchor="middle" x="441" y="-7.5" font-family="Helvetica,sans-Serif" font-size="10.00" fill="#000000">vector</text>
</a>
</g>
</g>
<!-- Node0&#45;&gt;Node7 -->
<g id="edge18" class="edge">
<title>Node0&#45;&gt;Node7</title>
<path fill="none" stroke="#191970" d="M701.3147,-183.5607C653.3204,-177.8022 587.107,-166.169 533,-143 485.5047,-122.6622 461.7794,-121.8691 438,-76 430.5853,-61.6975 432.2097,-43.2222 435.1866,-29.4582"/>
<polygon fill="#191970" stroke="#191970" points="438.621,-30.1556 437.7172,-19.5994 431.8408,-28.4152 438.621,-30.1556"/>
</g>
<!-- Node8 -->
<g id="node9" class="node">
<title>Node8</title>
<g id="a_node9"><a xlink:href="config_8h.html" target="_top" xlink:title=" ">
<polygon fill="none" stroke="#000000" points="542.5,-118 542.5,-137 671.5,-137 671.5,-118 542.5,-118"/>
<text text-anchor="middle" x="607" y="-125" font-family="Helvetica,sans-Serif" font-size="10.00" fill="#000000">config/config.h</text>
</a>
</g>
</g>
<!-- Node0&#45;&gt;Node8 -->
<g id="edge8" class="edge">
<title>Node0&#45;&gt;Node8</title>
<path fill="none" stroke="#191970" d="M741.1563,-179.3906C714.3193,-169.0103 671.3767,-152.4004 641.3247,-140.7766"/>
<polygon fill="#191970" stroke="#191970" points="642.2586,-137.3851 631.6693,-137.0419 639.7333,-143.9138 642.2586,-137.3851"/>
</g>
<!-- Node14 -->
<g id="node15" class="node">
<title>Node14</title>
<g id="a_node15"><a xlink:title=" ">
<polygon fill="none" stroke="#bfbfbf" points="690,-112.5 690,-142.5 842,-142.5 842,-112.5 690,-112.5"/>
<text text-anchor="start" x="698" y="-130.5" font-family="Helvetica,sans-Serif" font-size="10.00" fill="#000000">spdlog/sinks/basic</text>
<text text-anchor="middle" x="766" y="-119.5" font-family="Helvetica,sans-Serif" font-size="10.00" fill="#000000">_file_sink.h</text>
</a>
</g>
</g>
<!-- Node0&#45;&gt;Node14 -->
<g id="edge14" class="edge">
<title>Node0&#45;&gt;Node14</title>
<path fill="none" stroke="#191970" d="M766,-179.3906C766,-172.2234 766,-162.0862 766,-152.671"/>
<polygon fill="#191970" stroke="#191970" points="769.5001,-152.5446 766,-142.5446 762.5001,-152.5446 769.5001,-152.5446"/>
</g>
<!-- Node15 -->
<g id="node16" class="node">
<title>Node15</title>
<g id="a_node16"><a xlink:title=" ">
<polygon fill="none" stroke="#bfbfbf" points="860.5,-112.5 860.5,-142.5 1019.5,-142.5 1019.5,-112.5 860.5,-112.5"/>
<text text-anchor="start" x="868.5" y="-130.5" font-family="Helvetica,sans-Serif" font-size="10.00" fill="#000000">spdlog/sinks/stdout</text>
<text text-anchor="middle" x="940" y="-119.5" font-family="Helvetica,sans-Serif" font-size="10.00" fill="#000000">_color_sinks.h</text>
</a>
</g>
</g>
<!-- Node0&#45;&gt;Node15 -->
<g id="edge15" class="edge">
<title>Node0&#45;&gt;Node15</title>
<path fill="none" stroke="#191970" d="M793.1875,-179.3906C818.3716,-170.4893 856.5159,-157.0073 887.6118,-146.0165"/>
<polygon fill="#191970" stroke="#191970" points="889.1728,-149.1771 897.4348,-142.5446 886.84,-142.5772 889.1728,-149.1771"/>
</g>
<!-- Node16 -->
<g id="node17" class="node">
<title>Node16</title>
<g id="a_node17"><a xlink:title=" ">
<polygon fill="none" stroke="#bfbfbf" points="1038,-118 1038,-137 1130,-137 1130,-118 1038,-118"/>
<text text-anchor="middle" x="1084" y="-125" font-family="Helvetica,sans-Serif" font-size="10.00" fill="#000000">filesystem</text>
</a>
</g>
</g>
<!-- Node0&#45;&gt;Node16 -->
<g id="edge16" class="edge">
<title>Node0&#45;&gt;Node16</title>
<path fill="none" stroke="#191970" d="M830.675,-179.564C884.1365,-171.3156 961.8845,-158.2851 1029,-143 1033.3619,-142.0066 1037.8936,-140.8823 1042.4,-139.7039"/>
<polygon fill="#191970" stroke="#191970" points="1043.4094,-143.0568 1052.1492,-137.0679 1041.5822,-136.2994 1043.4094,-143.0568"/>
</g>
<!-- Node17 -->
<g id="node18" class="node">
<title>Node17</title>
<g id="a_node18"><a xlink:title=" ">
<polygon fill="none" stroke="#bfbfbf" points="1148,-118 1148,-137 1210,-137 1210,-118 1148,-118"/>
<text text-anchor="middle" x="1179" y="-125" font-family="Helvetica,sans-Serif" font-size="10.00" fill="#000000">thread</text>
</a>
</g>
</g>
<!-- Node0&#45;&gt;Node17 -->
<g id="edge17" class="edge">
<title>Node0&#45;&gt;Node17</title>
<path fill="none" stroke="#191970" d="M830.5729,-185.8794C905.6529,-181.143 1032.8476,-169.6753 1139,-143 1141.8441,-142.2853 1144.7595,-141.4238 1147.6572,-140.4775"/>
<polygon fill="#191970" stroke="#191970" points="1149.0738,-143.688 1157.3104,-137.0239 1146.7158,-137.0971 1149.0738,-143.688"/>
</g>
<!-- Node2 -->
<g id="node3" class="node">
<title>Node2</title>
<g id="a_node3"><a xlink:href="aggregator_8h.html" target="_top" xlink:title=" ">
<polygon fill="none" stroke="#000000" points="261.5,-56.5 261.5,-75.5 368.5,-75.5 368.5,-56.5 261.5,-56.5"/>
<text text-anchor="middle" x="315" y="-63.5" font-family="Helvetica,sans-Serif" font-size="10.00" fill="#000000">aggregator.h</text>
</a>
</g>
</g>
<!-- Node1&#45;&gt;Node2 -->
<g id="edge2" class="edge">
<title>Node1&#45;&gt;Node2</title>
<path fill="none" stroke="#191970" d="M345.375,-117.8906C340.1747,-109.0068 332.3034,-95.5601 325.8767,-84.5811"/>
<polygon fill="#191970" stroke="#191970" points="328.7767,-82.6069 320.7043,-75.7449 322.7356,-86.1432 328.7767,-82.6069"/>
</g>
<!-- Node3 -->
<g id="node4" class="node">
<title>Node3</title>
<g id="a_node4"><a xlink:href="data__dragon_8h.html" target="_top" xlink:title=" ">
<polygon fill="none" stroke="#000000" points="0,-.5 0,-19.5 114,-19.5 114,-.5 0,-.5"/>
<text text-anchor="middle" x="57" y="-7.5" font-family="Helvetica,sans-Serif" font-size="10.00" fill="#000000">data_dragon.h</text>
</a>
</g>
</g>
<!-- Node2&#45;&gt;Node3 -->
<g id="edge3" class="edge">
<title>Node2&#45;&gt;Node3</title>
<path fill="none" stroke="#191970" d="M270.9414,-56.4369C226.6011,-46.8127 158.1589,-31.957 110.6751,-21.6504"/>
<polygon fill="#191970" stroke="#191970" points="111.3918,-18.2245 100.8769,-19.5237 109.9069,-25.0653 111.3918,-18.2245"/>
</g>
<!-- Node4 -->
<g id="node5" class="node">
<title>Node4</title>
<g id="a_node5"><a xlink:href="item__set_8h.html" target="_top" xlink:title=" ">
<polygon fill="none" stroke="#000000" points="132,-.5 132,-19.5 224,-19.5 224,-.5 132,-.5"/>
<text text-anchor="middle" x="178" y="-7.5" font-family="Helvetica,sans-Serif" font-size="10.00" fill="#000000">item_set.h</text>
</a>
</g>
</g>
<!-- Node2&#45;&gt;Node4 -->
<g id="edge4" class="edge">
<title>Node2&#45;&gt;Node4</title>
<path fill="none" stroke="#191970" d="M291.4489,-56.3733C269.1609,-47.2629 235.5063,-33.5062 210.6363,-23.3404"/>
<polygon fill="#191970" stroke="#191970" points="211.8247,-20.0451 201.2438,-19.5011 209.1761,-26.5247 211.8247,-20.0451"/>
</g>
<!-- Node5 -->
<g id="node6" class="node">
<title>Node5</title>
<g id="a_node6"><a xlink:title=" ">
<polygon fill="none" stroke="#bfbfbf" points="242,-.5 242,-19.5 304,-19.5 304,-.5 242,-.5"/>
<text text-anchor="middle" x="273" y="-7.5" font-family="Helvetica,sans-Serif" font-size="10.00" fill="#000000">string</text>
</a>
</g>
</g>
<!-- Node2&#45;&gt;Node5 -->
<g id="edge5" class="edge">
<title>Node2&#45;&gt;Node5</title>
<path fill="none" stroke="#191970" d="M307.6842,-56.2455C301.7821,-48.3761 293.3258,-37.101 286.2406,-27.6542"/>
<polygon fill="#191970" stroke="#191970" points="289.0321,-25.5427 280.232,-19.6427 283.432,-29.7427 289.0321,-25.5427"/>
</g>
<!-- Node6 -->
<g id="node7" class="node">
<title>Node6</title>
<g id="a_node7"><a xlink:title=" ">
<polygon fill="none" stroke="#bfbfbf" points="322.5,-.5 322.5,-19.5 391.5,-19.5 391.5,-.5 322.5,-.5"/>
<text text-anchor="middle" x="357" y="-7.5" font-family="Helvetica,sans-Serif" font-size="10.00" fill="#000000">utility</text>
</a>
</g>
</g>
<!-- Node2&#45;&gt;Node6 -->
<g id="edge6" class="edge">
<title>Node2&#45;&gt;Node6</title>
<path fill="none" stroke="#191970" d="M322.3158,-56.2455C328.2179,-48.3761 336.6742,-37.101 343.7594,-27.6542"/>
<polygon fill="#191970" stroke="#191970" points="346.568,-29.7427 349.768,-19.6427 340.9679,-25.5427 346.568,-29.7427"/>
</g>
<!-- Node2&#45;&gt;Node7 -->
<g id="edge7" class="edge">
<title>Node2&#45;&gt;Node7</title>
<path fill="none" stroke="#191970" d="M336.6602,-56.3733C356.9772,-47.3435 387.564,-33.7494 410.375,-23.6111"/>
<polygon fill="#191970" stroke="#191970" points="411.9059,-26.7609 419.6225,-19.5011 409.0628,-20.3642 411.9059,-26.7609"/>
</g>
<!-- Node9 -->
<g id="node10" class="node">
<title>Node9</title>
<g id="a_node10"><a xlink:title=" ">
<polygon fill="none" stroke="#bfbfbf" points="447.5,-56.5 447.5,-75.5 554.5,-75.5 554.5,-56.5 447.5,-56.5"/>
<text text-anchor="middle" x="501" y="-63.5" font-family="Helvetica,sans-Serif" font-size="10.00" fill="#000000">fmt/format.h</text>
</a>
</g>
</g>
<!-- Node8&#45;&gt;Node9 -->
<g id="edge9" class="edge">
<title>Node8&#45;&gt;Node9</title>
<path fill="none" stroke="#191970" d="M590.4375,-117.8906C573.2463,-107.9165 546.1418,-92.1908 526.2734,-80.6633"/>
<polygon fill="#191970" stroke="#191970" points="527.8523,-77.533 517.4462,-75.5419 524.3394,-83.5877 527.8523,-77.533"/>
</g>
<!-- Node10 -->
<g id="node11" class="node">
<title>Node10</title>
<g id="a_node11"><a xlink:title=" ">
<polygon fill="none" stroke="#bfbfbf" points="572.5,-56.5 572.5,-75.5 641.5,-75.5 641.5,-56.5 572.5,-56.5"/>
<text text-anchor="middle" x="607" y="-63.5" font-family="Helvetica,sans-Serif" font-size="10.00" fill="#000000">cstdlib</text>
</a>
</g>
</g>
<!-- Node8&#45;&gt;Node10 -->
<g id="edge10" class="edge">
<title>Node8&#45;&gt;Node10</title>
<path fill="none" stroke="#191970" d="M607,-117.8906C607,-109.3657 607,-96.6392 607,-85.9235"/>
<polygon fill="#191970" stroke="#191970" points="610.5001,-85.7448 607,-75.7449 603.5001,-85.7449 610.5001,-85.7448"/>
</g>
<!-- Node11 -->
<g id="node12" class="node">
<title>Node11</title>
<g id="a_node12"><a xlink:title=" ">
<polygon fill="none" stroke="#bfbfbf" points="660,-56.5 660,-75.5 744,-75.5 744,-56.5 660,-56.5"/>
<text text-anchor="middle" x="702" y="-63.5" font-family="Helvetica,sans-Serif" font-size="10.00" fill="#000000">stdexcept</text>
</a>
</g>
</g>
<!-- Node8&#45;&gt;Node11 -->
<g id="edge11" class="edge">
<title>Node8&#45;&gt;Node11</title>
<path fill="none" stroke="#191970" d="M621.8438,-117.8906C637.0418,-108.0519 660.8848,-92.6167 678.6206,-81.1351"/>
<polygon fill="#191970" stroke="#191970" points="680.768,-83.9144 687.2605,-75.5419 676.9639,-78.0382 680.768,-83.9144"/>
</g>
<!-- Node12 -->
<g id="node13" class="node">
<title>Node12</title>
<g id="a_node13"><a xlink:title=" ">
<polygon fill="none" stroke="#bfbfbf" points="762.5,-56.5 762.5,-75.5 861.5,-75.5 861.5,-56.5 762.5,-56.5"/>
<text text-anchor="middle" x="812" y="-63.5" font-family="Helvetica,sans-Serif" font-size="10.00" fill="#000000">type_traits</text>
</a>
</g>
</g>
<!-- Node8&#45;&gt;Node12 -->
<g id="edge12" class="edge">
<title>Node8&#45;&gt;Node12</title>
<path fill="none" stroke="#191970" d="M639.0313,-117.8906C674.3846,-107.2846 731.4157,-90.1753 770.2478,-78.5257"/>
<polygon fill="#191970" stroke="#191970" points="771.6212,-81.7678 780.1937,-75.5419 769.6097,-75.0631 771.6212,-81.7678"/>
</g>
<!-- Node13 -->
<g id="node14" class="node">
<title>Node13</title>
<g id="a_node14"><a xlink:title=" ">
<polygon fill="none" stroke="#bfbfbf" points="880,-56.5 880,-75.5 994,-75.5 994,-56.5 880,-56.5"/>
<text text-anchor="middle" x="937" y="-63.5" font-family="Helvetica,sans-Serif" font-size="10.00" fill="#000000">unordered_map</text>
</a>
</g>
</g>
<!-- Node8&#45;&gt;Node13 -->
<g id="edge13" class="edge">
<title>Node8&#45;&gt;Node13</title>
<path fill="none" stroke="#191970" d="M651.5678,-117.949C661.2599,-115.9324 671.4655,-113.8548 681,-112 745.618,-99.4297 819.6579,-86.2589 871.4343,-77.2479"/>
<polygon fill="#191970" stroke="#191970" points="872.2299,-80.6622 881.4834,-75.5026 871.032,-73.7655 872.2299,-80.6622"/>
</g>
</g>
</svg>
