<?xml version="1.0" encoding="UTF-8" standalone="no"?>
<!DOCTYPE svg PUBLIC "-//W3C//DTD SVG 1.1//EN"
 "http://www.w3.org/Graphics/SVG/1.1/DTD/svg11.dtd">
<!-- Generated by graphviz version 2.40.1 (0)
 -->
<!-- Title: leitse/main.cpp Pages: 1 -->
<svg width="1859pt" height="263pt"
 viewBox="0.00 0.00 1858.50 263.00" xmlns="http://www.w3.org/2000/svg" xmlns:xlink="http://www.w3.org/1999/xlink">
<g id="graph0" class="graph" transform="scale(1 1) rotate(0) translate(4 259)">
<title>leitse/main.cpp</title>
<!-- Node0 -->
<g id="node1" class="node">
<title>Node0</title>
<g id="a_node1"><a xlink:title=" ">
<polygon fill="#bfbfbf" stroke="#000000" points="1293.5,-235.5 1293.5,-254.5 1422.5,-254.5 1422.5,-235.5 1293.5,-235.5"/>
<text text-anchor="middle" x="1358" y="-242.5" font-family="Helvetica,sans-Serif" font-size="10.00" fill="#000000">leitse/main.cpp</text>
</a>
</g>
</g>
<!-- Node1 -->
<g id="node2" class="node">
<title>Node1</title>
<g id="a_node2"><a xlink:href="ugg_8h.html" target="_top" xlink:title=" ">
<polygon fill="none" stroke="#000000" points="325,-174 325,-193 379,-193 379,-174 325,-174"/>
<text text-anchor="middle" x="352" y="-181" font-family="Helvetica,sans-Serif" font-size="10.00" fill="#000000">ugg.h</text>
</a>
</g>
</g>
<!-- Node0&#45;&gt;Node1 -->
<g id="edge1" class="edge">
<title>Node0&#45;&gt;Node1</title>
<path fill="none" stroke="#191970" d="M1293.4573,-243.7849C1145.4261,-240.5427 770.181,-229.7337 458,-199 435.1457,-196.75 409.678,-193.0646 389.4347,-189.8518"/>
<polygon fill="#191970" stroke="#191970" points="389.7968,-186.365 379.3665,-188.2249 388.6802,-193.2754 389.7968,-186.365"/>
</g>
<!-- Node7 -->
<g id="node8" class="node">
<title>Node7</title>
<g id="a_node8"><a xlink:title=" ">
<polygon fill="none" stroke="#bfbfbf" points="367,-.5 367,-19.5 429,-19.5 429,-.5 367,-.5"/>
<text text-anchor="middle" x="398" y="-7.5" font-family="Helvetica,sans-Serif" font-size="10.00" fill="#000000">vector</text>
</a>
</g>
</g>
<!-- Node0&#45;&gt;Node7 -->
<g id="edge34" class="edge">
<title>Node0&#45;&gt;Node7</title>
<path fill="none" stroke="#191970" d="M1293.122,-242.4596C1188.6044,-237.7401 976.6829,-225.5795 799,-199 660.8808,-178.3388 602.688,-217.1586 492,-132 461.9094,-108.8496 476.7007,-85.659 453,-56 443.8024,-44.4901 431.3529,-33.7903 420.6245,-25.6118"/>
<polygon fill="#191970" stroke="#191970" points="422.6144,-22.7306 412.4846,-19.6261 418.4674,-28.37 422.6144,-22.7306"/>
</g>
<!-- Node9 -->
<g id="node10" class="node">
<title>Node9</title>
<g id="a_node10"><a xlink:title=" ">
<polygon fill="none" stroke="#bfbfbf" points="911,-.5 911,-19.5 1003,-19.5 1003,-.5 911,-.5"/>
<text text-anchor="middle" x="957" y="-7.5" font-family="Helvetica,sans-Serif" font-size="10.00" fill="#000000">filesystem</text>
</a>
</g>
</g>
<!-- Node0&#45;&gt;Node9 -->
<g id="edge32" class="edge">
<title>Node0&#45;&gt;Node9</title>
<path fill="none" stroke="#191970" d="M1377.8097,-235.4872C1420.2228,-213.8871 1512.911,-159.3379 1474,-112 1416.1401,-41.6095 1135.3075,-19.0058 1013.5246,-12.4403"/>
<polygon fill="#191970" stroke="#191970" points="1013.4598,-8.9323 1003.291,-11.9063 1013.095,-15.9228 1013.4598,-8.9323"/>
</g>
<!-- Node11 -->
<g id="node12" class="node">
<title>Node11</title>
<g id="a_node12"><a xlink:href="config_8h.html" target="_top" xlink:title=" ">
<polygon fill="none" stroke="#000000" points="807.5,-174 807.5,-193 936.5,-193 936.5,-174 807.5,-174"/>
<text text-anchor="middle" x="872" y="-181" font-family="Helvetica,sans-Serif" font-size="10.00" fill="#000000">config/config.h</text>
</a>
</g>
</g>
<!-- Node0&#45;&gt;Node11 -->
<g id="edge16" class="edge">
<title>Node0&#45;&gt;Node11</title>
<path fill="none" stroke="#191970" d="M1293.463,-236.8333C1203.7767,-225.4841 1041.806,-204.9878 946.904,-192.9786"/>
<polygon fill="#191970" stroke="#191970" points="947.1643,-189.4837 936.804,-191.7005 946.2854,-196.4283 947.1643,-189.4837"/>
</g>
<!-- Node17 -->
<g id="node18" class="node">
<title>Node17</title>
<g id="a_node18"><a xlink:title=" ">
<polygon fill="none" stroke="#bfbfbf" points="1521,-168.5 1521,-198.5 1673,-198.5 1673,-168.5 1521,-168.5"/>
<text text-anchor="start" x="1529" y="-186.5" font-family="Helvetica,sans-Serif" font-size="10.00" fill="#000000">spdlog/sinks/basic</text>
<text text-anchor="middle" x="1597" y="-175.5" font-family="Helvetica,sans-Serif" font-size="10.00" fill="#000000">_file_sink.h</text>
</a>
</g>
</g>
<!-- Node0&#45;&gt;Node17 -->
<g id="edge23" class="edge">
<title>Node0&#45;&gt;Node17</title>
<path fill="none" stroke="#191970" d="M1395.0815,-235.4581C1430.6002,-226.3183 1485.0593,-212.3048 1528.4727,-201.1336"/>
<polygon fill="#191970" stroke="#191970" points="1529.5903,-204.4601 1538.4026,-198.5784 1527.8458,-197.681 1529.5903,-204.4601"/>
</g>
<!-- Node18 -->
<g id="node19" class="node">
<title>Node18</title>
<g id="a_node19"><a xlink:title=" ">
<polygon fill="none" stroke="#bfbfbf" points="1691.5,-168.5 1691.5,-198.5 1850.5,-198.5 1850.5,-168.5 1691.5,-168.5"/>
<text text-anchor="start" x="1699.5" y="-186.5" font-family="Helvetica,sans-Serif" font-size="10.00" fill="#000000">spdlog/sinks/stdout</text>
<text text-anchor="middle" x="1771" y="-175.5" font-family="Helvetica,sans-Serif" font-size="10.00" fill="#000000">_color_sinks.h</text>
</a>
</g>
</g>
<!-- Node0&#45;&gt;Node18 -->
<g id="edge24" class="edge">
<title>Node0&#45;&gt;Node18</title>
<path fill="none" stroke="#191970" d="M1422.6362,-236.4313C1485.9228,-227.9033 1585.3404,-214.1404 1681.5451,-199.0427"/>
<polygon fill="#191970" stroke="#191970" points="1682.111,-202.4968 1691.4442,-197.4827 1681.0212,-195.5822 1682.111,-202.4968"/>
</g>
<!-- Node19 -->
<g id="node20" class="node">
<title>Node19</title>
<g id="a_node20"><a xlink:href="thread__pool_8h.html" target="_top" xlink:title=" ">
<polygon fill="none" stroke="#000000" points="1202.5,-174 1202.5,-193 1361.5,-193 1361.5,-174 1202.5,-174"/>
<text text-anchor="middle" x="1282" y="-181" font-family="Helvetica,sans-Serif" font-size="10.00" fill="#000000">utils/thread_pool.h</text>
</a>
</g>
</g>
<!-- Node0&#45;&gt;Node19 -->
<g id="edge25" class="edge">
<title>Node0&#45;&gt;Node19</title>
<path fill="none" stroke="#191970" d="M1346.125,-235.3906C1334.3703,-225.8786 1316.1514,-211.1357 1302.1328,-199.7917"/>
<polygon fill="#191970" stroke="#191970" points="1304.0178,-196.8146 1294.0424,-193.2449 1299.6144,-202.2562 1304.0178,-196.8146"/>
</g>
<!-- Node23 -->
<g id="node24" class="node">
<title>Node23</title>
<g id="a_node24"><a xlink:title=" ">
<polygon fill="none" stroke="#bfbfbf" points="1403,-112.5 1403,-131.5 1465,-131.5 1465,-112.5 1403,-112.5"/>
<text text-anchor="middle" x="1434" y="-119.5" font-family="Helvetica,sans-Serif" font-size="10.00" fill="#000000">thread</text>
</a>
</g>
</g>
<!-- Node0&#45;&gt;Node23 -->
<g id="edge33" class="edge">
<title>Node0&#45;&gt;Node23</title>
<path fill="none" stroke="#191970" d="M1363.9636,-235.3484C1376.6168,-214.8703 1406.3298,-166.782 1422.6951,-140.2962"/>
<polygon fill="#191970" stroke="#191970" points="1425.7851,-141.9536 1428.0641,-131.6068 1419.8302,-138.2741 1425.7851,-141.9536"/>
</g>
<!-- Node2 -->
<g id="node3" class="node">
<title>Node2</title>
<g id="a_node3"><a xlink:href="aggregator_8h.html" target="_top" xlink:title=" ">
<polygon fill="none" stroke="#000000" points="232.5,-112.5 232.5,-131.5 339.5,-131.5 339.5,-112.5 232.5,-112.5"/>
<text text-anchor="middle" x="286" y="-119.5" font-family="Helvetica,sans-Serif" font-size="10.00" fill="#000000">aggregator.h</text>
</a>
</g>
</g>
<!-- Node1&#45;&gt;Node2 -->
<g id="edge2" class="edge">
<title>Node1&#45;&gt;Node2</title>
<path fill="none" stroke="#191970" d="M341.6875,-173.8906C331.5758,-164.4683 315.9558,-149.9134 303.8293,-138.6137"/>
<polygon fill="#191970" stroke="#191970" points="306.1601,-136.0015 296.4579,-131.7449 301.388,-141.1228 306.1601,-136.0015"/>
</g>
<!-- Node3 -->
<g id="node4" class="node">
<title>Node3</title>
<g id="a_node4"><a xlink:href="data__dragon_8h.html" target="_top" xlink:title=" ">
<polygon fill="none" stroke="#000000" points="144,-56.5 144,-75.5 258,-75.5 258,-56.5 144,-56.5"/>
<text text-anchor="middle" x="201" y="-63.5" font-family="Helvetica,sans-Serif" font-size="10.00" fill="#000000">data_dragon.h</text>
</a>
</g>
</g>
<!-- Node2&#45;&gt;Node3 -->
<g id="edge3" class="edge">
<title>Node2&#45;&gt;Node3</title>
<path fill="none" stroke="#191970" d="M271.1941,-112.2455C258.2744,-103.7337 239.3069,-91.2375 224.3448,-81.3801"/>
<polygon fill="#191970" stroke="#191970" points="225.9124,-78.2216 215.6362,-75.6427 222.0613,-84.067 225.9124,-78.2216"/>
</g>
<!-- Node5 -->
<g id="node6" class="node">
<title>Node5</title>
<g id="a_node6"><a xlink:title=" ">
<polygon fill="none" stroke="#bfbfbf" points="162,-.5 162,-19.5 224,-19.5 224,-.5 162,-.5"/>
<text text-anchor="middle" x="193" y="-7.5" font-family="Helvetica,sans-Serif" font-size="10.00" fill="#000000">string</text>
</a>
</g>
</g>
<!-- Node2&#45;&gt;Node5 -->
<g id="edge12" class="edge">
<title>Node2&#45;&gt;Node5</title>
<path fill="none" stroke="#191970" d="M232.1227,-112.5598C193.6987,-104.6026 146.8262,-91.9654 135,-76 121.2557,-57.4451 144.0451,-37.7569 164.9685,-24.7633"/>
<polygon fill="#191970" stroke="#191970" points="166.8607,-27.711 173.7094,-19.6274 163.3145,-21.6758 166.8607,-27.711"/>
</g>
<!-- Node6 -->
<g id="node7" class="node">
<title>Node6</title>
<g id="a_node7"><a xlink:title=" ">
<polygon fill="none" stroke="#bfbfbf" points="242.5,-.5 242.5,-19.5 341.5,-19.5 341.5,-.5 242.5,-.5"/>
<text text-anchor="middle" x="292" y="-7.5" font-family="Helvetica,sans-Serif" font-size="10.00" fill="#000000">string_view</text>
</a>
</g>
</g>
<!-- Node2&#45;&gt;Node6 -->
<g id="edge13" class="edge">
<title>Node2&#45;&gt;Node6</title>
<path fill="none" stroke="#191970" d="M286.5116,-112.4509C287.4901,-94.184 289.6453,-53.9553 290.9448,-29.6976"/>
<polygon fill="#191970" stroke="#191970" points="294.4497,-29.6978 291.4897,-19.5249 287.4597,-29.3233 294.4497,-29.6978"/>
</g>
<!-- Node2&#45;&gt;Node7 -->
<g id="edge15" class="edge">
<title>Node2&#45;&gt;Node7</title>
<path fill="none" stroke="#191970" d="M293.6566,-112.1686C304.1895,-98.8779 324.0095,-74.6921 343,-56 353.7803,-45.3891 366.7185,-34.4872 377.3372,-25.9613"/>
<polygon fill="#191970" stroke="#191970" points="379.6002,-28.6339 385.2704,-19.6841 375.2566,-23.1445 379.6002,-28.6339"/>
</g>
<!-- Node8 -->
<g id="node9" class="node">
<title>Node8</title>
<g id="a_node9"><a xlink:href="item__set_8h.html" target="_top" xlink:title=" ">
<polygon fill="none" stroke="#000000" points="352,-56.5 352,-75.5 444,-75.5 444,-56.5 352,-56.5"/>
<text text-anchor="middle" x="398" y="-63.5" font-family="Helvetica,sans-Serif" font-size="10.00" fill="#000000">item_set.h</text>
</a>
</g>
</g>
<!-- Node2&#45;&gt;Node8 -->
<g id="edge8" class="edge">
<title>Node2&#45;&gt;Node8</title>
<path fill="none" stroke="#191970" d="M305.2535,-112.3733C323.0712,-103.4644 349.7747,-90.1127 369.9594,-80.0203"/>
<polygon fill="#191970" stroke="#191970" points="371.6187,-83.1038 378.9978,-75.5011 368.4882,-76.8428 371.6187,-83.1038"/>
</g>
<!-- Node10 -->
<g id="node11" class="node">
<title>Node10</title>
<g id="a_node11"><a xlink:title=" ">
<polygon fill="none" stroke="#bfbfbf" points="18.5,-56.5 18.5,-75.5 87.5,-75.5 87.5,-56.5 18.5,-56.5"/>
<text text-anchor="middle" x="53" y="-63.5" font-family="Helvetica,sans-Serif" font-size="10.00" fill="#000000">utility</text>
</a>
</g>
</g>
<!-- Node2&#45;&gt;Node10 -->
<g id="edge14" class="edge">
<title>Node2&#45;&gt;Node10</title>
<path fill="none" stroke="#191970" d="M246.2106,-112.4369C204.9377,-102.5172 140.5415,-87.04 97.5797,-76.7144"/>
<polygon fill="#191970" stroke="#191970" points="98.2244,-73.2698 87.6834,-74.3359 96.5886,-80.076 98.2244,-73.2698"/>
</g>
<!-- Node4 -->
<g id="node5" class="node">
<title>Node4</title>
<g id="a_node5"><a xlink:title=" ">
<polygon fill="none" stroke="#bfbfbf" points="0,-.5 0,-19.5 144,-19.5 144,-.5 0,-.5"/>
<text text-anchor="middle" x="72" y="-7.5" font-family="Helvetica,sans-Serif" font-size="10.00" fill="#000000">nlohmann/json.hpp</text>
</a>
</g>
</g>
<!-- Node3&#45;&gt;Node4 -->
<g id="edge4" class="edge">
<title>Node3&#45;&gt;Node4</title>
<path fill="none" stroke="#191970" d="M178.8241,-56.3733C158.0234,-47.3435 126.7083,-33.7494 103.3542,-23.6111"/>
<polygon fill="#191970" stroke="#191970" points="104.4532,-20.2727 93.8865,-19.5011 101.6657,-26.6938 104.4532,-20.2727"/>
</g>
<!-- Node3&#45;&gt;Node5 -->
<g id="edge5" class="edge">
<title>Node3&#45;&gt;Node5</title>
<path fill="none" stroke="#191970" d="M199.6065,-56.2455C198.5626,-48.9382 197.0992,-38.6944 195.8149,-29.7046"/>
<polygon fill="#191970" stroke="#191970" points="199.2566,-29.0472 194.3775,-19.6427 192.327,-30.0372 199.2566,-29.0472"/>
</g>
<!-- Node3&#45;&gt;Node6 -->
<g id="edge6" class="edge">
<title>Node3&#45;&gt;Node6</title>
<path fill="none" stroke="#191970" d="M216.851,-56.2455C230.8132,-47.6534 251.3728,-35.0014 267.4596,-25.1018"/>
<polygon fill="#191970" stroke="#191970" points="269.6484,-27.8645 276.3307,-19.6427 265.9797,-21.9029 269.6484,-27.8645"/>
</g>
<!-- Node3&#45;&gt;Node7 -->
<g id="edge7" class="edge">
<title>Node3&#45;&gt;Node7</title>
<path fill="none" stroke="#191970" d="M234.8655,-56.3733C268.7529,-46.7403 320.9141,-31.9128 357.0943,-21.628"/>
<polygon fill="#191970" stroke="#191970" points="358.1849,-24.9567 366.8468,-18.8557 356.2708,-18.2235 358.1849,-24.9567"/>
</g>
<!-- Node8&#45;&gt;Node5 -->
<g id="edge10" class="edge">
<title>Node8&#45;&gt;Node5</title>
<path fill="none" stroke="#191970" d="M362.7592,-56.3733C326.9246,-46.5843 271.4534,-31.4312 233.751,-21.132"/>
<polygon fill="#191970" stroke="#191970" points="234.6648,-17.7534 224.0959,-18.4945 232.8201,-24.506 234.6648,-17.7534"/>
</g>
<!-- Node8&#45;&gt;Node7 -->
<g id="edge11" class="edge">
<title>Node8&#45;&gt;Node7</title>
<path fill="none" stroke="#191970" d="M398,-56.2455C398,-48.9382 398,-38.6944 398,-29.7046"/>
<polygon fill="#191970" stroke="#191970" points="401.5001,-29.6426 398,-19.6427 394.5001,-29.6427 401.5001,-29.6426"/>
</g>
<!-- Node8&#45;&gt;Node9 -->
<g id="edge9" class="edge">
<title>Node8&#45;&gt;Node9</title>
<path fill="none" stroke="#191970" d="M444.2209,-61.3696C546.1929,-51.1542 790.1478,-26.7151 900.7635,-15.6337"/>
<polygon fill="#191970" stroke="#191970" points="901.1238,-19.1152 910.7251,-14.6358 900.426,-12.1501 901.1238,-19.1152"/>
</g>
<!-- Node11&#45;&gt;Node9 -->
<g id="edge19" class="edge">
<title>Node11&#45;&gt;Node9</title>
<path fill="none" stroke="#191970" d="M890.8944,-173.9905C906.193,-165.2459 926.9538,-150.7952 938,-132 956.8376,-99.9479 958.8715,-55.3286 958.224,-29.8821"/>
<polygon fill="#191970" stroke="#191970" points="961.7108,-29.4957 957.7886,-19.6537 954.7172,-29.7935 961.7108,-29.4957"/>
</g>
<!-- Node12 -->
<g id="node13" class="node">
<title>Node12</title>
<g id="a_node13"><a xlink:title=" ">
<polygon fill="none" stroke="#bfbfbf" points="500.5,-112.5 500.5,-131.5 607.5,-131.5 607.5,-112.5 500.5,-112.5"/>
<text text-anchor="middle" x="554" y="-119.5" font-family="Helvetica,sans-Serif" font-size="10.00" fill="#000000">fmt/format.h</text>
</a>
</g>
</g>
<!-- Node11&#45;&gt;Node12 -->
<g id="edge17" class="edge">
<title>Node11&#45;&gt;Node12</title>
<path fill="none" stroke="#191970" d="M822.6614,-173.9581C766.1786,-163.0345 673.6981,-145.1492 613.3335,-133.4749"/>
<polygon fill="#191970" stroke="#191970" points="613.6754,-129.9762 603.1927,-131.5137 612.3462,-136.8489 613.6754,-129.9762"/>
</g>
<!-- Node13 -->
<g id="node14" class="node">
<title>Node13</title>
<g id="a_node14"><a xlink:title=" ">
<polygon fill="none" stroke="#bfbfbf" points="625.5,-112.5 625.5,-131.5 694.5,-131.5 694.5,-112.5 625.5,-112.5"/>
<text text-anchor="middle" x="660" y="-119.5" font-family="Helvetica,sans-Serif" font-size="10.00" fill="#000000">cstdlib</text>
</a>
</g>
</g>
<!-- Node11&#45;&gt;Node13 -->
<g id="edge18" class="edge">
<title>Node11&#45;&gt;Node13</title>
<path fill="none" stroke="#191970" d="M838.875,-173.8906C802.1589,-163.2395 742.8336,-146.0296 702.6662,-134.3772"/>
<polygon fill="#191970" stroke="#191970" points="703.4716,-130.9666 692.8924,-131.5419 701.5213,-137.6895 703.4716,-130.9666"/>
</g>
<!-- Node14 -->
<g id="node15" class="node">
<title>Node14</title>
<g id="a_node15"><a xlink:title=" ">
<polygon fill="none" stroke="#bfbfbf" points="713,-112.5 713,-131.5 797,-131.5 797,-112.5 713,-112.5"/>
<text text-anchor="middle" x="755" y="-119.5" font-family="Helvetica,sans-Serif" font-size="10.00" fill="#000000">stdexcept</text>
</a>
</g>
</g>
<!-- Node11&#45;&gt;Node14 -->
<g id="edge20" class="edge">
<title>Node11&#45;&gt;Node14</title>
<path fill="none" stroke="#191970" d="M853.7188,-173.8906C834.4859,-163.7811 804.0121,-147.7628 782.0075,-136.1962"/>
<polygon fill="#191970" stroke="#191970" points="783.633,-133.0967 773.1529,-131.5419 780.376,-139.2928 783.633,-133.0967"/>
</g>
<!-- Node15 -->
<g id="node16" class="node">
<title>Node15</title>
<g id="a_node16"><a xlink:title=" ">
<polygon fill="none" stroke="#bfbfbf" points="985.5,-112.5 985.5,-131.5 1084.5,-131.5 1084.5,-112.5 985.5,-112.5"/>
<text text-anchor="middle" x="1035" y="-119.5" font-family="Helvetica,sans-Serif" font-size="10.00" fill="#000000">type_traits</text>
</a>
</g>
</g>
<!-- Node11&#45;&gt;Node15 -->
<g id="edge21" class="edge">
<title>Node11&#45;&gt;Node15</title>
<path fill="none" stroke="#191970" d="M897.4688,-173.8906C925.1005,-163.4652 969.3869,-146.7559 1000.2128,-135.1252"/>
<polygon fill="#191970" stroke="#191970" points="1001.5894,-138.3467 1009.7101,-131.5419 999.1183,-131.7974 1001.5894,-138.3467"/>
</g>
<!-- Node16 -->
<g id="node17" class="node">
<title>Node16</title>
<g id="a_node17"><a xlink:title=" ">
<polygon fill="none" stroke="#bfbfbf" points="815,-112.5 815,-131.5 929,-131.5 929,-112.5 815,-112.5"/>
<text text-anchor="middle" x="872" y="-119.5" font-family="Helvetica,sans-Serif" font-size="10.00" fill="#000000">unordered_map</text>
</a>
</g>
</g>
<!-- Node11&#45;&gt;Node16 -->
<g id="edge22" class="edge">
<title>Node11&#45;&gt;Node16</title>
<path fill="none" stroke="#191970" d="M872,-173.8906C872,-165.3657 872,-152.6392 872,-141.9235"/>
<polygon fill="#191970" stroke="#191970" points="875.5001,-141.7448 872,-131.7449 868.5001,-141.7449 875.5001,-141.7448"/>
</g>
<!-- Node19&#45;&gt;Node7 -->
<g id="edge31" class="edge">
<title>Node19&#45;&gt;Node7</title>
<path fill="none" stroke="#191970" d="M1249.5635,-173.9492C1218.8102,-164.5248 1171.5602,-149.0814 1132,-132 1114.4783,-124.4345 1112.1462,-117.9129 1094,-112 854.3641,-33.9156 548.77,-15.439 439.3027,-11.21"/>
<polygon fill="#191970" stroke="#191970" points="439.1508,-7.7022 429.0292,-10.8332 438.8942,-14.6975 439.1508,-7.7022"/>
</g>
<!-- Node19&#45;&gt;Node15 -->
<g id="edge30" class="edge">
<title>Node19&#45;&gt;Node15</title>
<path fill="none" stroke="#191970" d="M1243.6773,-173.9581C1200.503,-163.2082 1130.2505,-145.7162 1083.3416,-134.0365"/>
<polygon fill="#191970" stroke="#191970" points="1083.962,-130.5842 1073.4126,-131.5643 1082.2707,-137.3768 1083.962,-130.5842"/>
</g>
<!-- Node20 -->
<g id="node21" class="node">
<title>Node20</title>
<g id="a_node21"><a xlink:title=" ">
<polygon fill="none" stroke="#bfbfbf" points="1141,-112.5 1141,-131.5 1233,-131.5 1233,-112.5 1141,-112.5"/>
<text text-anchor="middle" x="1187" y="-119.5" font-family="Helvetica,sans-Serif" font-size="10.00" fill="#000000">functional</text>
</a>
</g>
</g>
<!-- Node19&#45;&gt;Node20 -->
<g id="edge26" class="edge">
<title>Node19&#45;&gt;Node20</title>
<path fill="none" stroke="#191970" d="M1267.1563,-173.8906C1251.9582,-164.0519 1228.1152,-148.6167 1210.3794,-137.1351"/>
<polygon fill="#191970" stroke="#191970" points="1212.0361,-134.0382 1201.7395,-131.5419 1208.232,-139.9144 1212.0361,-134.0382"/>
</g>
<!-- Node21 -->
<g id="node22" class="node">
<title>Node21</title>
<g id="a_node22"><a xlink:title=" ">
<polygon fill="none" stroke="#bfbfbf" points="1251,-112.5 1251,-131.5 1313,-131.5 1313,-112.5 1251,-112.5"/>
<text text-anchor="middle" x="1282" y="-119.5" font-family="Helvetica,sans-Serif" font-size="10.00" fill="#000000">future</text>
</a>
</g>
</g>
<!-- Node19&#45;&gt;Node21 -->
<g id="edge27" class="edge">
<title>Node19&#45;&gt;Node21</title>
<path fill="none" stroke="#191970" d="M1282,-173.8906C1282,-165.3657 1282,-152.6392 1282,-141.9235"/>
<polygon fill="#191970" stroke="#191970" points="1285.5001,-141.7448 1282,-131.7449 1278.5001,-141.7449 1285.5001,-141.7448"/>
</g>
<!-- Node22 -->
<g id="node23" class="node">
<title>Node22</title>
<g id="a_node23"><a xlink:title=" ">
<polygon fill="none" stroke="#bfbfbf" points="1331,-112.5 1331,-131.5 1385,-131.5 1385,-112.5 1331,-112.5"/>
<text text-anchor="middle" x="1358" y="-119.5" font-family="Helvetica,sans-Serif" font-size="10.00" fill="#000000">queue</text>
</a>
</g>
</g>
<!-- Node19&#45;&gt;Node22 -->
<g id="edge28" class="edge">
<title>Node19&#45;&gt;Node22</title>
<path fill="none" stroke="#191970" d="M1293.875,-173.8906C1305.6297,-164.3786 1323.8486,-149.6357 1337.8672,-138.2917"/>
<polygon fill="#191970" stroke="#191970" points="1340.3856,-140.7562 1345.9576,-131.7449 1335.9822,-135.3146 1340.3856,-140.7562"/>
</g>
<!-- Node19&#45;&gt;Node23 -->
<g id="edge29" class="edge">
<title>Node19&#45;&gt;Node23</title>
<path fill="none" stroke="#191970" d="M1305.75,-173.8906C1331.2939,-163.5554 1372.1009,-147.0447 1400.811,-135.4284"/>
<polygon fill="#191970" stroke="#191970" points="1402.4596,-138.5371 1410.4168,-131.5419 1399.834,-132.0481 1402.4596,-138.5371"/>
</g>
</g>
</svg>
