<?xml version="1.0" encoding="UTF-8" standalone="no"?>
<!DOCTYPE svg PUBLIC "-//W3C//DTD SVG 1.1//EN"
 "http://www.w3.org/Graphics/SVG/1.1/DTD/svg11.dtd">
<!-- Generated by graphviz version 2.40.1 (0)
 -->
<!-- Title: leitse/main.cpp Pages: 1 -->
<svg width="1428pt" height="263pt"
 viewBox="0.00 0.00 1428.00 263.00" xmlns="http://www.w3.org/2000/svg" xmlns:xlink="http://www.w3.org/1999/xlink">
<g id="graph0" class="graph" transform="scale(1 1) rotate(0) translate(4 259)">
<title>leitse/main.cpp</title>
<!-- Node0 -->
<g id="node1" class="node">
<title>Node0</title>
<g id="a_node1"><a xlink:title=" ">
<polygon fill="#bfbfbf" stroke="#000000" points="864.5,-235.5 864.5,-254.5 993.5,-254.5 993.5,-235.5 864.5,-235.5"/>
<text text-anchor="middle" x="929" y="-242.5" font-family="Helvetica,sans-Serif" font-size="10.00" fill="#000000">leitse/main.cpp</text>
</a>
</g>
</g>
<!-- Node1 -->
<g id="node2" class="node">
<title>Node1</title>
<g id="a_node2"><a xlink:href="ugg_8h.html" target="_top" xlink:title=" ">
<polygon fill="none" stroke="#000000" points="330,-174 330,-193 384,-193 384,-174 330,-174"/>
<text text-anchor="middle" x="357" y="-181" font-family="Helvetica,sans-Serif" font-size="10.00" fill="#000000">ugg.h</text>
</a>
</g>
</g>
<!-- Node0&#45;&gt;Node1 -->
<g id="edge1" class="edge">
<title>Node0&#45;&gt;Node1</title>
<path fill="none" stroke="#191970" d="M864.4763,-240.5668C771.3605,-233.7869 594.0105,-219.4421 444,-199 427.6964,-196.7783 409.7836,-193.6976 394.4715,-190.8677"/>
<polygon fill="#191970" stroke="#191970" points="394.8126,-187.3706 384.338,-188.9622 393.5189,-194.25 394.8126,-187.3706"/>
</g>
<!-- Node4 -->
<g id="node5" class="node">
<title>Node4</title>
<g id="a_node5"><a xlink:title=" ">
<polygon fill="none" stroke="#bfbfbf" points="276,-.5 276,-19.5 338,-19.5 338,-.5 276,-.5"/>
<text text-anchor="middle" x="307" y="-7.5" font-family="Helvetica,sans-Serif" font-size="10.00" fill="#000000">vector</text>
</a>
</g>
</g>
<!-- Node0&#45;&gt;Node4 -->
<g id="edge27" class="edge">
<title>Node0&#45;&gt;Node4</title>
<path fill="none" stroke="#191970" d="M864.4873,-241.9094C798.8661,-237.343 694.8923,-226.1571 609,-199 546.2695,-179.1661 523.6244,-178.4183 477,-132 450.0949,-105.2138 466.613,-80.9535 438,-56 412.679,-33.9175 376.097,-22.245 348.0225,-16.1929"/>
<polygon fill="#191970" stroke="#191970" points="348.5931,-12.7377 338.1009,-14.2086 347.2202,-19.6018 348.5931,-12.7377"/>
</g>
<!-- Node9 -->
<g id="node10" class="node">
<title>Node9</title>
<g id="a_node10"><a xlink:href="config_8h.html" target="_top" xlink:title=" ">
<polygon fill="none" stroke="#000000" points="618.5,-174 618.5,-193 747.5,-193 747.5,-174 618.5,-174"/>
<text text-anchor="middle" x="683" y="-181" font-family="Helvetica,sans-Serif" font-size="10.00" fill="#000000">config/config.h</text>
</a>
</g>
</g>
<!-- Node0&#45;&gt;Node9 -->
<g id="edge10" class="edge">
<title>Node0&#45;&gt;Node9</title>
<path fill="none" stroke="#191970" d="M890.8324,-235.4581C847.833,-224.7082 777.8649,-207.2162 731.1458,-195.5365"/>
<polygon fill="#191970" stroke="#191970" points="731.8075,-192.0942 721.2571,-193.0643 730.1097,-198.8852 731.8075,-192.0942"/>
</g>
<!-- Node15 -->
<g id="node16" class="node">
<title>Node15</title>
<g id="a_node16"><a xlink:title=" ">
<polygon fill="none" stroke="#bfbfbf" points="766,-168.5 766,-198.5 918,-198.5 918,-168.5 766,-168.5"/>
<text text-anchor="start" x="774" y="-186.5" font-family="Helvetica,sans-Serif" font-size="10.00" fill="#000000">spdlog/sinks/basic</text>
<text text-anchor="middle" x="842" y="-175.5" font-family="Helvetica,sans-Serif" font-size="10.00" fill="#000000">_file_sink.h</text>
</a>
</g>
</g>
<!-- Node0&#45;&gt;Node15 -->
<g id="edge16" class="edge">
<title>Node0&#45;&gt;Node15</title>
<path fill="none" stroke="#191970" d="M915.4063,-235.3906C903.7409,-227.1444 886.5141,-214.9669 871.68,-204.4807"/>
<polygon fill="#191970" stroke="#191970" points="873.4687,-201.459 863.2826,-198.5446 869.428,-207.175 873.4687,-201.459"/>
</g>
<!-- Node16 -->
<g id="node17" class="node">
<title>Node16</title>
<g id="a_node17"><a xlink:title=" ">
<polygon fill="none" stroke="#bfbfbf" points="936.5,-168.5 936.5,-198.5 1095.5,-198.5 1095.5,-168.5 936.5,-168.5"/>
<text text-anchor="start" x="944.5" y="-186.5" font-family="Helvetica,sans-Serif" font-size="10.00" fill="#000000">spdlog/sinks/stdout</text>
<text text-anchor="middle" x="1016" y="-175.5" font-family="Helvetica,sans-Serif" font-size="10.00" fill="#000000">_color_sinks.h</text>
</a>
</g>
</g>
<!-- Node0&#45;&gt;Node16 -->
<g id="edge17" class="edge">
<title>Node0&#45;&gt;Node16</title>
<path fill="none" stroke="#191970" d="M942.5938,-235.3906C954.2591,-227.1444 971.4859,-214.9669 986.32,-204.4807"/>
<polygon fill="#191970" stroke="#191970" points="988.572,-207.175 994.7174,-198.5446 984.5313,-201.459 988.572,-207.175"/>
</g>
<!-- Node17 -->
<g id="node18" class="node">
<title>Node17</title>
<g id="a_node18"><a xlink:href="thread__pool_8h.html" target="_top" xlink:title=" ">
<polygon fill="none" stroke="#000000" points="1113.5,-174 1113.5,-193 1272.5,-193 1272.5,-174 1113.5,-174"/>
<text text-anchor="middle" x="1193" y="-181" font-family="Helvetica,sans-Serif" font-size="10.00" fill="#000000">utils/thread_pool.h</text>
</a>
</g>
</g>
<!-- Node0&#45;&gt;Node17 -->
<g id="edge18" class="edge">
<title>Node0&#45;&gt;Node17</title>
<path fill="none" stroke="#191970" d="M969.9603,-235.4581C1016.2995,-224.6632 1091.824,-207.0694 1141.9606,-195.3899"/>
<polygon fill="#191970" stroke="#191970" points="1142.9984,-198.7419 1151.9436,-193.0643 1141.4102,-191.9244 1142.9984,-198.7419"/>
</g>
<!-- Node21 -->
<g id="node22" class="node">
<title>Node21</title>
<g id="a_node22"><a xlink:title=" ">
<polygon fill="none" stroke="#bfbfbf" points="1351,-112.5 1351,-131.5 1413,-131.5 1413,-112.5 1351,-112.5"/>
<text text-anchor="middle" x="1382" y="-119.5" font-family="Helvetica,sans-Serif" font-size="10.00" fill="#000000">thread</text>
</a>
</g>
</g>
<!-- Node0&#45;&gt;Node21 -->
<g id="edge26" class="edge">
<title>Node0&#45;&gt;Node21</title>
<path fill="none" stroke="#191970" d="M993.6825,-240.92C1081.0691,-234.6687 1231.7017,-221.07 1282,-199 1301.6454,-190.3799 1302.1052,-181.2217 1319,-168 1332.388,-157.5226 1347.7946,-146.2599 1360.0209,-137.5013"/>
<polygon fill="#191970" stroke="#191970" points="1362.1727,-140.2657 1368.2871,-131.6132 1358.1115,-134.5642 1362.1727,-140.2657"/>
</g>
<!-- Node22 -->
<g id="node23" class="node">
<title>Node22</title>
<g id="a_node23"><a xlink:title=" ">
<polygon fill="none" stroke="#bfbfbf" points="1328,-174 1328,-193 1420,-193 1420,-174 1328,-174"/>
<text text-anchor="middle" x="1374" y="-181" font-family="Helvetica,sans-Serif" font-size="10.00" fill="#000000">filesystem</text>
</a>
</g>
</g>
<!-- Node0&#45;&gt;Node22 -->
<g id="edge25" class="edge">
<title>Node0&#45;&gt;Node22</title>
<path fill="none" stroke="#191970" d="M993.776,-239.9274C1070.6131,-233.2966 1202.3612,-219.9916 1314,-199 1319.3528,-197.9935 1324.9349,-196.7789 1330.4463,-195.478"/>
<polygon fill="#191970" stroke="#191970" points="1331.353,-198.8593 1340.2256,-193.0691 1329.6787,-192.0625 1331.353,-198.8593"/>
</g>
<!-- Node2 -->
<g id="node3" class="node">
<title>Node2</title>
<g id="a_node3"><a xlink:href="aggregator_8h.html" target="_top" xlink:title=" ">
<polygon fill="none" stroke="#000000" points="210.5,-112.5 210.5,-131.5 317.5,-131.5 317.5,-112.5 210.5,-112.5"/>
<text text-anchor="middle" x="264" y="-119.5" font-family="Helvetica,sans-Serif" font-size="10.00" fill="#000000">aggregator.h</text>
</a>
</g>
</g>
<!-- Node1&#45;&gt;Node2 -->
<g id="edge2" class="edge">
<title>Node1&#45;&gt;Node2</title>
<path fill="none" stroke="#191970" d="M342.4688,-173.8906C327.5906,-164.0519 304.2496,-148.6167 286.8872,-137.1351"/>
<polygon fill="#191970" stroke="#191970" points="288.701,-134.1385 278.4292,-131.5419 284.8398,-139.9773 288.701,-134.1385"/>
</g>
<!-- Node3 -->
<g id="node4" class="node">
<title>Node3</title>
<g id="a_node4"><a xlink:href="data__dragon_8h.html" target="_top" xlink:title=" ">
<polygon fill="none" stroke="#000000" points="0,-56.5 0,-75.5 114,-75.5 114,-56.5 0,-56.5"/>
<text text-anchor="middle" x="57" y="-63.5" font-family="Helvetica,sans-Serif" font-size="10.00" fill="#000000">data_dragon.h</text>
</a>
</g>
</g>
<!-- Node2&#45;&gt;Node3 -->
<g id="edge3" class="edge">
<title>Node2&#45;&gt;Node3</title>
<path fill="none" stroke="#191970" d="M228.4154,-112.3733C193.3984,-102.9001 139.8119,-88.4032 101.8875,-78.1435"/>
<polygon fill="#191970" stroke="#191970" points="102.6873,-74.7341 92.1202,-75.5011 100.8592,-81.4912 102.6873,-74.7341"/>
</g>
<!-- Node2&#45;&gt;Node4 -->
<g id="edge9" class="edge">
<title>Node2&#45;&gt;Node4</title>
<path fill="none" stroke="#191970" d="M222.2417,-112.4823C185.5991,-102.0955 141.0295,-83.2304 161,-56 173.5518,-38.8853 227.2772,-25.22 265.9108,-17.3623"/>
<polygon fill="#191970" stroke="#191970" points="266.7336,-20.7675 275.8662,-15.3966 265.3776,-13.9001 266.7336,-20.7675"/>
</g>
<!-- Node6 -->
<g id="node7" class="node">
<title>Node6</title>
<g id="a_node7"><a xlink:href="item__set_8h.html" target="_top" xlink:title=" ">
<polygon fill="none" stroke="#000000" points="170,-56.5 170,-75.5 262,-75.5 262,-56.5 170,-56.5"/>
<text text-anchor="middle" x="216" y="-63.5" font-family="Helvetica,sans-Serif" font-size="10.00" fill="#000000">item_set.h</text>
</a>
</g>
</g>
<!-- Node2&#45;&gt;Node6 -->
<g id="edge6" class="edge">
<title>Node2&#45;&gt;Node6</title>
<path fill="none" stroke="#191970" d="M255.639,-112.2455C248.825,-104.2958 239.0319,-92.8706 230.8848,-83.3656"/>
<polygon fill="#191970" stroke="#191970" points="233.4305,-80.9575 224.2651,-75.6427 228.1157,-85.513 233.4305,-80.9575"/>
</g>
<!-- Node7 -->
<g id="node8" class="node">
<title>Node7</title>
<g id="a_node8"><a xlink:title=" ">
<polygon fill="none" stroke="#bfbfbf" points="280,-56.5 280,-75.5 342,-75.5 342,-56.5 280,-56.5"/>
<text text-anchor="middle" x="311" y="-63.5" font-family="Helvetica,sans-Serif" font-size="10.00" fill="#000000">string</text>
</a>
</g>
</g>
<!-- Node2&#45;&gt;Node7 -->
<g id="edge7" class="edge">
<title>Node2&#45;&gt;Node7</title>
<path fill="none" stroke="#191970" d="M272.1868,-112.2455C278.8589,-104.2958 288.4479,-92.8706 296.4253,-83.3656"/>
<polygon fill="#191970" stroke="#191970" points="299.1592,-85.5525 302.907,-75.6427 293.7974,-81.0524 299.1592,-85.5525"/>
</g>
<!-- Node8 -->
<g id="node9" class="node">
<title>Node8</title>
<g id="a_node9"><a xlink:title=" ">
<polygon fill="none" stroke="#bfbfbf" points="360.5,-56.5 360.5,-75.5 429.5,-75.5 429.5,-56.5 360.5,-56.5"/>
<text text-anchor="middle" x="395" y="-63.5" font-family="Helvetica,sans-Serif" font-size="10.00" fill="#000000">utility</text>
</a>
</g>
</g>
<!-- Node2&#45;&gt;Node8 -->
<g id="edge8" class="edge">
<title>Node2&#45;&gt;Node8</title>
<path fill="none" stroke="#191970" d="M286.5197,-112.3733C307.7372,-103.3032 339.7276,-89.6279 363.4769,-79.4755"/>
<polygon fill="#191970" stroke="#191970" points="364.9548,-82.6502 372.7742,-75.5011 362.2033,-76.2136 364.9548,-82.6502"/>
</g>
<!-- Node3&#45;&gt;Node4 -->
<g id="edge4" class="edge">
<title>Node3&#45;&gt;Node4</title>
<path fill="none" stroke="#191970" d="M99.6925,-56.4369C146.238,-46.0107 220.1925,-29.4449 266.0429,-19.1744"/>
<polygon fill="#191970" stroke="#191970" points="266.9466,-22.5588 275.9397,-16.9575 265.4164,-15.7281 266.9466,-22.5588"/>
</g>
<!-- Node5 -->
<g id="node6" class="node">
<title>Node5</title>
<g id="a_node6"><a xlink:title=" ">
<polygon fill="none" stroke="#bfbfbf" points="7.5,-.5 7.5,-19.5 106.5,-19.5 106.5,-.5 7.5,-.5"/>
<text text-anchor="middle" x="57" y="-7.5" font-family="Helvetica,sans-Serif" font-size="10.00" fill="#000000">string_view</text>
</a>
</g>
</g>
<!-- Node3&#45;&gt;Node5 -->
<g id="edge5" class="edge">
<title>Node3&#45;&gt;Node5</title>
<path fill="none" stroke="#191970" d="M57,-56.2455C57,-48.9382 57,-38.6944 57,-29.7046"/>
<polygon fill="#191970" stroke="#191970" points="60.5001,-29.6426 57,-19.6427 53.5001,-29.6427 60.5001,-29.6426"/>
</g>
<!-- Node10 -->
<g id="node11" class="node">
<title>Node10</title>
<g id="a_node11"><a xlink:title=" ">
<polygon fill="none" stroke="#bfbfbf" points="486.5,-112.5 486.5,-131.5 593.5,-131.5 593.5,-112.5 486.5,-112.5"/>
<text text-anchor="middle" x="540" y="-119.5" font-family="Helvetica,sans-Serif" font-size="10.00" fill="#000000">fmt/format.h</text>
</a>
</g>
</g>
<!-- Node9&#45;&gt;Node10 -->
<g id="edge11" class="edge">
<title>Node9&#45;&gt;Node10</title>
<path fill="none" stroke="#191970" d="M660.6563,-173.8906C636.7297,-163.6005 598.5691,-147.1888 571.5784,-135.5809"/>
<polygon fill="#191970" stroke="#191970" points="572.7561,-132.2775 562.1869,-131.5419 569.9905,-138.708 572.7561,-132.2775"/>
</g>
<!-- Node11 -->
<g id="node12" class="node">
<title>Node11</title>
<g id="a_node12"><a xlink:title=" ">
<polygon fill="none" stroke="#bfbfbf" points="611.5,-112.5 611.5,-131.5 680.5,-131.5 680.5,-112.5 611.5,-112.5"/>
<text text-anchor="middle" x="646" y="-119.5" font-family="Helvetica,sans-Serif" font-size="10.00" fill="#000000">cstdlib</text>
</a>
</g>
</g>
<!-- Node9&#45;&gt;Node11 -->
<g id="edge12" class="edge">
<title>Node9&#45;&gt;Node11</title>
<path fill="none" stroke="#191970" d="M677.2188,-173.8906C671.874,-165.0068 663.7841,-151.5601 657.1789,-140.5811"/>
<polygon fill="#191970" stroke="#191970" points="660.0171,-138.5093 651.8628,-131.7449 654.0189,-142.118 660.0171,-138.5093"/>
</g>
<!-- Node12 -->
<g id="node13" class="node">
<title>Node12</title>
<g id="a_node13"><a xlink:title=" ">
<polygon fill="none" stroke="#bfbfbf" points="699,-112.5 699,-131.5 783,-131.5 783,-112.5 699,-112.5"/>
<text text-anchor="middle" x="741" y="-119.5" font-family="Helvetica,sans-Serif" font-size="10.00" fill="#000000">stdexcept</text>
</a>
</g>
</g>
<!-- Node9&#45;&gt;Node12 -->
<g id="edge13" class="edge">
<title>Node9&#45;&gt;Node12</title>
<path fill="none" stroke="#191970" d="M692.0625,-173.8906C700.7793,-164.6478 714.154,-150.466 724.7196,-139.2628"/>
<polygon fill="#191970" stroke="#191970" points="727.495,-141.4213 731.8097,-131.7449 722.4024,-136.6186 727.495,-141.4213"/>
</g>
<!-- Node13 -->
<g id="node14" class="node">
<title>Node13</title>
<g id="a_node14"><a xlink:title=" ">
<polygon fill="none" stroke="#bfbfbf" points="933.5,-112.5 933.5,-131.5 1032.5,-131.5 1032.5,-112.5 933.5,-112.5"/>
<text text-anchor="middle" x="983" y="-119.5" font-family="Helvetica,sans-Serif" font-size="10.00" fill="#000000">type_traits</text>
</a>
</g>
</g>
<!-- Node9&#45;&gt;Node13 -->
<g id="edge14" class="edge">
<title>Node9&#45;&gt;Node13</title>
<path fill="none" stroke="#191970" d="M728.3879,-173.9506C737.8418,-171.9735 747.7445,-169.9112 757,-168 814.4184,-156.1432 880.0902,-142.8008 925.7892,-133.5513"/>
<polygon fill="#191970" stroke="#191970" points="926.6956,-136.9389 935.8029,-131.5253 925.3074,-130.078 926.6956,-136.9389"/>
</g>
<!-- Node14 -->
<g id="node15" class="node">
<title>Node14</title>
<g id="a_node15"><a xlink:title=" ">
<polygon fill="none" stroke="#bfbfbf" points="801,-112.5 801,-131.5 915,-131.5 915,-112.5 801,-112.5"/>
<text text-anchor="middle" x="858" y="-119.5" font-family="Helvetica,sans-Serif" font-size="10.00" fill="#000000">unordered_map</text>
</a>
</g>
</g>
<!-- Node9&#45;&gt;Node14 -->
<g id="edge15" class="edge">
<title>Node9&#45;&gt;Node14</title>
<path fill="none" stroke="#191970" d="M710.3438,-173.8906C740.1382,-163.42 787.9685,-146.6111 821.0808,-134.9745"/>
<polygon fill="#191970" stroke="#191970" points="822.5743,-138.1595 830.8483,-131.5419 820.2534,-131.5554 822.5743,-138.1595"/>
</g>
<!-- Node17&#45;&gt;Node4 -->
<g id="edge24" class="edge">
<title>Node17&#45;&gt;Node4</title>
<path fill="none" stroke="#191970" d="M1171.1654,-173.9901C1148.2786,-163.9193 1111.3567,-147.3818 1080,-132 1062.8653,-123.5947 1060.1686,-117.8437 1042,-112 787.1991,-30.0468 461.8657,-13.9332 348.3118,-10.7705"/>
<polygon fill="#191970" stroke="#191970" points="348.3922,-7.2715 338.3046,-10.5105 348.2103,-14.2691 348.3922,-7.2715"/>
</g>
<!-- Node17&#45;&gt;Node13 -->
<g id="edge23" class="edge">
<title>Node17&#45;&gt;Node13</title>
<path fill="none" stroke="#191970" d="M1160.1875,-173.8906C1123.8178,-163.2395 1065.0522,-146.0296 1025.2637,-134.3772"/>
<polygon fill="#191970" stroke="#191970" points="1026.1627,-130.9936 1015.5821,-131.5419 1024.1953,-137.7114 1026.1627,-130.9936"/>
</g>
<!-- Node18 -->
<g id="node19" class="node">
<title>Node18</title>
<g id="a_node19"><a xlink:title=" ">
<polygon fill="none" stroke="#bfbfbf" points="1089,-112.5 1089,-131.5 1181,-131.5 1181,-112.5 1089,-112.5"/>
<text text-anchor="middle" x="1135" y="-119.5" font-family="Helvetica,sans-Serif" font-size="10.00" fill="#000000">functional</text>
</a>
</g>
</g>
<!-- Node17&#45;&gt;Node18 -->
<g id="edge19" class="edge">
<title>Node17&#45;&gt;Node18</title>
<path fill="none" stroke="#191970" d="M1183.9375,-173.8906C1175.2207,-164.6478 1161.846,-150.466 1151.2804,-139.2628"/>
<polygon fill="#191970" stroke="#191970" points="1153.5976,-136.6186 1144.1903,-131.7449 1148.505,-141.4213 1153.5976,-136.6186"/>
</g>
<!-- Node19 -->
<g id="node20" class="node">
<title>Node19</title>
<g id="a_node20"><a xlink:title=" ">
<polygon fill="none" stroke="#bfbfbf" points="1199,-112.5 1199,-131.5 1261,-131.5 1261,-112.5 1199,-112.5"/>
<text text-anchor="middle" x="1230" y="-119.5" font-family="Helvetica,sans-Serif" font-size="10.00" fill="#000000">future</text>
</a>
</g>
</g>
<!-- Node17&#45;&gt;Node19 -->
<g id="edge20" class="edge">
<title>Node17&#45;&gt;Node19</title>
<path fill="none" stroke="#191970" d="M1198.7813,-173.8906C1204.126,-165.0068 1212.2159,-151.5601 1218.8211,-140.5811"/>
<polygon fill="#191970" stroke="#191970" points="1221.9811,-142.118 1224.1372,-131.7449 1215.9829,-138.5093 1221.9811,-142.118"/>
</g>
<!-- Node20 -->
<g id="node21" class="node">
<title>Node20</title>
<g id="a_node21"><a xlink:title=" ">
<polygon fill="none" stroke="#bfbfbf" points="1279,-112.5 1279,-131.5 1333,-131.5 1333,-112.5 1279,-112.5"/>
<text text-anchor="middle" x="1306" y="-119.5" font-family="Helvetica,sans-Serif" font-size="10.00" fill="#000000">queue</text>
</a>
</g>
</g>
<!-- Node17&#45;&gt;Node20 -->
<g id="edge21" class="edge">
<title>Node17&#45;&gt;Node20</title>
<path fill="none" stroke="#191970" d="M1210.6563,-173.8906C1229.1486,-163.8262 1258.401,-147.9057 1279.6308,-136.3514"/>
<polygon fill="#191970" stroke="#191970" points="1281.3575,-139.3965 1288.4677,-131.5419 1278.0112,-133.2481 1281.3575,-139.3965"/>
</g>
<!-- Node17&#45;&gt;Node21 -->
<g id="edge22" class="edge">
<title>Node17&#45;&gt;Node21</title>
<path fill="none" stroke="#191970" d="M1222.5313,-173.8906C1254.9866,-163.3298 1307.2581,-146.3208 1343.0486,-134.6747"/>
<polygon fill="#191970" stroke="#191970" points="1344.2499,-137.9645 1352.6761,-131.5419 1342.0839,-131.308 1344.2499,-137.9645"/>
</g>
</g>
</svg>
