<?xml version="1.0" encoding="UTF-8" standalone="no"?>
<!DOCTYPE svg PUBLIC "-//W3C//DTD SVG 1.1//EN"
 "http://www.w3.org/Graphics/SVG/1.1/DTD/svg11.dtd">
<!-- Generated by graphviz version 2.40.1 (0)
 -->
<!-- Title: leitse/main.cpp Pages: 1 -->
<svg width="1596pt" height="263pt"
 viewBox="0.00 0.00 1596.00 263.00" xmlns="http://www.w3.org/2000/svg" xmlns:xlink="http://www.w3.org/1999/xlink">
<g id="graph0" class="graph" transform="scale(1 1) rotate(0) translate(4 259)">
<title>leitse/main.cpp</title>
<!-- Node0 -->
<g id="node1" class="node">
<title>Node0</title>
<g id="a_node1"><a xlink:title=" ">
<polygon fill="#bfbfbf" stroke="#000000" points="836.5,-235.5 836.5,-254.5 965.5,-254.5 965.5,-235.5 836.5,-235.5"/>
<text text-anchor="middle" x="901" y="-242.5" font-family="Helvetica,sans-Serif" font-size="10.00" fill="#000000">leitse/main.cpp</text>
</a>
</g>
</g>
<!-- Node1 -->
<g id="node2" class="node">
<title>Node1</title>
<g id="a_node2"><a xlink:href="ugg_8h.html" target="_top" xlink:title=" ">
<polygon fill="none" stroke="#000000" points="294,-174 294,-193 348,-193 348,-174 294,-174"/>
<text text-anchor="middle" x="321" y="-181" font-family="Helvetica,sans-Serif" font-size="10.00" fill="#000000">ugg.h</text>
</a>
</g>
</g>
<!-- Node0&#45;&gt;Node1 -->
<g id="edge1" class="edge">
<title>Node0&#45;&gt;Node1</title>
<path fill="none" stroke="#191970" d="M836.4346,-238.1538C714.7663,-225.2528 455.0917,-197.7183 358.3467,-187.46"/>
<polygon fill="#191970" stroke="#191970" points="358.4826,-183.9549 348.1693,-186.3809 357.7445,-190.9159 358.4826,-183.9549"/>
</g>
<!-- Node7 -->
<g id="node8" class="node">
<title>Node7</title>
<g id="a_node8"><a xlink:title=" ">
<polygon fill="none" stroke="#bfbfbf" points="452,-.5 452,-19.5 514,-19.5 514,-.5 452,-.5"/>
<text text-anchor="middle" x="483" y="-7.5" font-family="Helvetica,sans-Serif" font-size="10.00" fill="#000000">vector</text>
</a>
</g>
</g>
<!-- Node0&#45;&gt;Node7 -->
<g id="edge34" class="edge">
<title>Node0&#45;&gt;Node7</title>
<path fill="none" stroke="#191970" d="M836.4773,-238.5101C772.527,-231.1496 679.7924,-217.6946 649,-199 580.2269,-157.2466 593.8444,-113.9179 538,-56 527.5008,-45.1109 514.5767,-34.1949 503.8954,-25.731"/>
<polygon fill="#191970" stroke="#191970" points="505.9428,-22.8895 495.8993,-19.5162 501.6471,-28.4164 505.9428,-22.8895"/>
</g>
<!-- Node9 -->
<g id="node10" class="node">
<title>Node9</title>
<g id="a_node10"><a xlink:title=" ">
<polygon fill="none" stroke="#bfbfbf" points="549,-.5 549,-19.5 641,-19.5 641,-.5 549,-.5"/>
<text text-anchor="middle" x="595" y="-7.5" font-family="Helvetica,sans-Serif" font-size="10.00" fill="#000000">filesystem</text>
</a>
</g>
</g>
<!-- Node0&#45;&gt;Node9 -->
<g id="edge32" class="edge">
<title>Node0&#45;&gt;Node9</title>
<path fill="none" stroke="#191970" d="M836.2029,-239.1401C768.6999,-229.2677 665.7187,-202.8111 614,-132 591.8633,-101.6913 591.1193,-55.7723 592.8603,-29.774"/>
<polygon fill="#191970" stroke="#191970" points="596.3606,-29.9204 593.7352,-19.6561 589.3866,-29.3173 596.3606,-29.9204"/>
</g>
<!-- Node11 -->
<g id="node12" class="node">
<title>Node11</title>
<g id="a_node12"><a xlink:href="config_8h.html" target="_top" xlink:title=" ">
<polygon fill="none" stroke="#000000" points="757.5,-174 757.5,-193 886.5,-193 886.5,-174 757.5,-174"/>
<text text-anchor="middle" x="822" y="-181" font-family="Helvetica,sans-Serif" font-size="10.00" fill="#000000">config/config.h</text>
</a>
</g>
</g>
<!-- Node0&#45;&gt;Node11 -->
<g id="edge16" class="edge">
<title>Node0&#45;&gt;Node11</title>
<path fill="none" stroke="#191970" d="M888.6563,-235.3906C876.2497,-225.7324 856.9157,-210.6812 842.2587,-199.271"/>
<polygon fill="#191970" stroke="#191970" points="844.2979,-196.423 834.2571,-193.0419 839.9979,-201.9466 844.2979,-196.423"/>
</g>
<!-- Node17 -->
<g id="node18" class="node">
<title>Node17</title>
<g id="a_node18"><a xlink:title=" ">
<polygon fill="none" stroke="#bfbfbf" points="905,-168.5 905,-198.5 1057,-198.5 1057,-168.5 905,-168.5"/>
<text text-anchor="start" x="913" y="-186.5" font-family="Helvetica,sans-Serif" font-size="10.00" fill="#000000">spdlog/sinks/basic</text>
<text text-anchor="middle" x="981" y="-175.5" font-family="Helvetica,sans-Serif" font-size="10.00" fill="#000000">_file_sink.h</text>
</a>
</g>
</g>
<!-- Node0&#45;&gt;Node17 -->
<g id="edge23" class="edge">
<title>Node0&#45;&gt;Node17</title>
<path fill="none" stroke="#191970" d="M913.5,-235.3906C924.1265,-227.2215 939.7719,-215.1941 953.325,-204.7752"/>
<polygon fill="#191970" stroke="#191970" points="955.6349,-207.4142 961.4298,-198.5446 951.3685,-201.8645 955.6349,-207.4142"/>
</g>
<!-- Node18 -->
<g id="node19" class="node">
<title>Node18</title>
<g id="a_node19"><a xlink:title=" ">
<polygon fill="none" stroke="#bfbfbf" points="1075.5,-168.5 1075.5,-198.5 1234.5,-198.5 1234.5,-168.5 1075.5,-168.5"/>
<text text-anchor="start" x="1083.5" y="-186.5" font-family="Helvetica,sans-Serif" font-size="10.00" fill="#000000">spdlog/sinks/stdout</text>
<text text-anchor="middle" x="1155" y="-175.5" font-family="Helvetica,sans-Serif" font-size="10.00" fill="#000000">_color_sinks.h</text>
</a>
</g>
</g>
<!-- Node0&#45;&gt;Node18 -->
<g id="edge24" class="edge">
<title>Node0&#45;&gt;Node18</title>
<path fill="none" stroke="#191970" d="M940.4088,-235.4581C978.3157,-226.2799 1036.5215,-212.1867 1082.754,-200.9926"/>
<polygon fill="#191970" stroke="#191970" points="1083.8294,-204.3335 1092.7249,-198.5784 1082.1821,-197.5301 1083.8294,-204.3335"/>
</g>
<!-- Node19 -->
<g id="node20" class="node">
<title>Node19</title>
<g id="a_node20"><a xlink:href="thread__pool_8h.html" target="_top" xlink:title=" ">
<polygon fill="none" stroke="#000000" points="1252.5,-174 1252.5,-193 1411.5,-193 1411.5,-174 1252.5,-174"/>
<text text-anchor="middle" x="1332" y="-181" font-family="Helvetica,sans-Serif" font-size="10.00" fill="#000000">utils/thread_pool.h</text>
</a>
</g>
</g>
<!-- Node0&#45;&gt;Node19 -->
<g id="edge25" class="edge">
<title>Node0&#45;&gt;Node19</title>
<path fill="none" stroke="#191970" d="M965.5955,-237.1396C1034.6297,-228.5516 1147.2232,-214.0059 1244,-199 1252.3739,-197.7016 1261.1808,-196.2515 1269.8548,-194.7737"/>
<polygon fill="#191970" stroke="#191970" points="1270.6828,-198.1827 1279.9422,-193.0335 1269.4927,-191.2845 1270.6828,-198.1827"/>
</g>
<!-- Node23 -->
<g id="node24" class="node">
<title>Node23</title>
<g id="a_node24"><a xlink:title=" ">
<polygon fill="none" stroke="#bfbfbf" points="1526,-112.5 1526,-131.5 1588,-131.5 1588,-112.5 1526,-112.5"/>
<text text-anchor="middle" x="1557" y="-119.5" font-family="Helvetica,sans-Serif" font-size="10.00" fill="#000000">thread</text>
</a>
</g>
</g>
<!-- Node0&#45;&gt;Node23 -->
<g id="edge33" class="edge">
<title>Node0&#45;&gt;Node23</title>
<path fill="none" stroke="#191970" d="M965.7363,-242.6978C1085.6542,-237.8691 1337.7085,-224.9208 1421,-199 1465.0322,-185.2969 1510.5432,-155.8493 1536.161,-137.603"/>
<polygon fill="#191970" stroke="#191970" points="1538.316,-140.3638 1544.3577,-131.6604 1534.2072,-134.6965 1538.316,-140.3638"/>
</g>
<!-- Node2 -->
<g id="node3" class="node">
<title>Node2</title>
<g id="a_node3"><a xlink:href="aggregator_8h.html" target="_top" xlink:title=" ">
<polygon fill="none" stroke="#000000" points="267.5,-112.5 267.5,-131.5 374.5,-131.5 374.5,-112.5 267.5,-112.5"/>
<text text-anchor="middle" x="321" y="-119.5" font-family="Helvetica,sans-Serif" font-size="10.00" fill="#000000">aggregator.h</text>
</a>
</g>
</g>
<!-- Node1&#45;&gt;Node2 -->
<g id="edge2" class="edge">
<title>Node1&#45;&gt;Node2</title>
<path fill="none" stroke="#191970" d="M321,-173.8906C321,-165.3657 321,-152.6392 321,-141.9235"/>
<polygon fill="#191970" stroke="#191970" points="324.5001,-141.7448 321,-131.7449 317.5001,-141.7449 324.5001,-141.7448"/>
</g>
<!-- Node4 -->
<g id="node5" class="node">
<title>Node4</title>
<g id="a_node5"><a xlink:title=" ">
<polygon fill="none" stroke="#bfbfbf" points="0,-.5 0,-19.5 144,-19.5 144,-.5 0,-.5"/>
<text text-anchor="middle" x="72" y="-7.5" font-family="Helvetica,sans-Serif" font-size="10.00" fill="#000000">nlohmann/json.hpp</text>
</a>
</g>
</g>
<!-- Node1&#45;&gt;Node4 -->
<g id="edge15" class="edge">
<title>Node1&#45;&gt;Node4</title>
<path fill="none" stroke="#191970" d="M299.2208,-173.8957C262.5539,-157.1413 187.1075,-120.1153 132,-76 114.1801,-61.7346 96.9886,-42.0149 85.6102,-27.8519"/>
<polygon fill="#191970" stroke="#191970" points="88.2533,-25.5509 79.323,-19.85 82.7491,-29.8756 88.2533,-25.5509"/>
</g>
<!-- Node3 -->
<g id="node4" class="node">
<title>Node3</title>
<g id="a_node4"><a xlink:href="data__dragon_8h.html" target="_top" xlink:title=" ">
<polygon fill="none" stroke="#000000" points="141,-56.5 141,-75.5 255,-75.5 255,-56.5 141,-56.5"/>
<text text-anchor="middle" x="198" y="-63.5" font-family="Helvetica,sans-Serif" font-size="10.00" fill="#000000">data_dragon.h</text>
</a>
</g>
</g>
<!-- Node2&#45;&gt;Node3 -->
<g id="edge3" class="edge">
<title>Node2&#45;&gt;Node3</title>
<path fill="none" stroke="#191970" d="M299.8555,-112.3733C280.1108,-103.3838 250.4302,-89.8706 228.1945,-79.7471"/>
<polygon fill="#191970" stroke="#191970" points="229.42,-76.4594 218.8685,-75.5011 226.5194,-82.8302 229.42,-76.4594"/>
</g>
<!-- Node5 -->
<g id="node6" class="node">
<title>Node5</title>
<g id="a_node6"><a xlink:title=" ">
<polygon fill="none" stroke="#bfbfbf" points="280,-.5 280,-19.5 342,-19.5 342,-.5 280,-.5"/>
<text text-anchor="middle" x="311" y="-7.5" font-family="Helvetica,sans-Serif" font-size="10.00" fill="#000000">string</text>
</a>
</g>
</g>
<!-- Node2&#45;&gt;Node5 -->
<g id="edge12" class="edge">
<title>Node2&#45;&gt;Node5</title>
<path fill="none" stroke="#191970" d="M317.1376,-112.3228C313.6962,-103.1446 308.9167,-88.8807 307,-76 304.7262,-60.7195 305.9485,-43.2653 307.6195,-30.1457"/>
<polygon fill="#191970" stroke="#191970" points="311.1346,-30.2985 309.1268,-19.8957 304.209,-29.28 311.1346,-30.2985"/>
</g>
<!-- Node2&#45;&gt;Node7 -->
<g id="edge14" class="edge">
<title>Node2&#45;&gt;Node7</title>
<path fill="none" stroke="#191970" d="M321.0792,-112.0774C321.7361,-97.7786 325.0601,-71.4092 340,-56 354.2703,-41.2814 404.9471,-27.2917 441.9311,-18.687"/>
<polygon fill="#191970" stroke="#191970" points="442.9829,-22.0372 451.9577,-16.4067 441.4305,-15.2115 442.9829,-22.0372"/>
</g>
<!-- Node8 -->
<g id="node9" class="node">
<title>Node8</title>
<g id="a_node9"><a xlink:href="item__set_8h.html" target="_top" xlink:title=" ">
<polygon fill="none" stroke="#000000" points="437,-56.5 437,-75.5 529,-75.5 529,-56.5 437,-56.5"/>
<text text-anchor="middle" x="483" y="-63.5" font-family="Helvetica,sans-Serif" font-size="10.00" fill="#000000">item_set.h</text>
</a>
</g>
</g>
<!-- Node2&#45;&gt;Node8 -->
<g id="edge8" class="edge">
<title>Node2&#45;&gt;Node8</title>
<path fill="none" stroke="#191970" d="M348.8488,-112.3733C375.6703,-103.1016 416.4127,-89.0178 445.9598,-78.804"/>
<polygon fill="#191970" stroke="#191970" points="447.2069,-82.0762 455.5146,-75.5011 444.9198,-75.4603 447.2069,-82.0762"/>
</g>
<!-- Node10 -->
<g id="node11" class="node">
<title>Node10</title>
<g id="a_node11"><a xlink:title=" ">
<polygon fill="none" stroke="#bfbfbf" points="349.5,-56.5 349.5,-75.5 418.5,-75.5 418.5,-56.5 349.5,-56.5"/>
<text text-anchor="middle" x="384" y="-63.5" font-family="Helvetica,sans-Serif" font-size="10.00" fill="#000000">utility</text>
</a>
</g>
</g>
<!-- Node2&#45;&gt;Node10 -->
<g id="edge13" class="edge">
<title>Node2&#45;&gt;Node10</title>
<path fill="none" stroke="#191970" d="M331.9738,-112.2455C341.1882,-104.0549 354.5532,-92.1749 365.4297,-82.5069"/>
<polygon fill="#191970" stroke="#191970" points="368.0032,-84.9023 373.152,-75.6427 363.3526,-79.6704 368.0032,-84.9023"/>
</g>
<!-- Node3&#45;&gt;Node4 -->
<g id="edge4" class="edge">
<title>Node3&#45;&gt;Node4</title>
<path fill="none" stroke="#191970" d="M176.3398,-56.3733C156.0228,-47.3435 125.436,-33.7494 102.625,-23.6111"/>
<polygon fill="#191970" stroke="#191970" points="103.9372,-20.3642 93.3775,-19.5011 101.0941,-26.7609 103.9372,-20.3642"/>
</g>
<!-- Node3&#45;&gt;Node5 -->
<g id="edge5" class="edge">
<title>Node3&#45;&gt;Node5</title>
<path fill="none" stroke="#191970" d="M217.4254,-56.3733C235.4021,-47.4644 262.3441,-34.1127 282.709,-24.0203"/>
<polygon fill="#191970" stroke="#191970" points="284.4222,-27.0776 291.8281,-19.5011 281.3139,-20.8055 284.4222,-27.0776"/>
</g>
<!-- Node6 -->
<g id="node7" class="node">
<title>Node6</title>
<g id="a_node7"><a xlink:title=" ">
<polygon fill="none" stroke="#bfbfbf" points="162.5,-.5 162.5,-19.5 261.5,-19.5 261.5,-.5 162.5,-.5"/>
<text text-anchor="middle" x="212" y="-7.5" font-family="Helvetica,sans-Serif" font-size="10.00" fill="#000000">string_view</text>
</a>
</g>
</g>
<!-- Node3&#45;&gt;Node6 -->
<g id="edge6" class="edge">
<title>Node3&#45;&gt;Node6</title>
<path fill="none" stroke="#191970" d="M200.4386,-56.2455C202.2855,-48.8579 204.8828,-38.4689 207.1478,-29.4087"/>
<polygon fill="#191970" stroke="#191970" points="210.5594,-30.193 209.5893,-19.6427 203.7684,-28.4952 210.5594,-30.193"/>
</g>
<!-- Node3&#45;&gt;Node7 -->
<g id="edge7" class="edge">
<title>Node3&#45;&gt;Node7</title>
<path fill="none" stroke="#191970" d="M246.6694,-56.4369C301.6677,-45.6302 390.2343,-28.2276 441.9002,-18.0757"/>
<polygon fill="#191970" stroke="#191970" points="442.583,-21.5086 451.7205,-16.1461 441.2333,-14.6399 442.583,-21.5086"/>
</g>
<!-- Node8&#45;&gt;Node5 -->
<g id="edge10" class="edge">
<title>Node8&#45;&gt;Node5</title>
<path fill="none" stroke="#191970" d="M453.4321,-56.3733C424.8312,-47.0613 381.3212,-32.8953 349.9181,-22.671"/>
<polygon fill="#191970" stroke="#191970" points="350.7743,-19.269 340.182,-19.5011 348.6072,-25.9251 350.7743,-19.269"/>
</g>
<!-- Node8&#45;&gt;Node7 -->
<g id="edge11" class="edge">
<title>Node8&#45;&gt;Node7</title>
<path fill="none" stroke="#191970" d="M483,-56.2455C483,-48.9382 483,-38.6944 483,-29.7046"/>
<polygon fill="#191970" stroke="#191970" points="486.5001,-29.6426 483,-19.6427 479.5001,-29.6427 486.5001,-29.6426"/>
</g>
<!-- Node8&#45;&gt;Node9 -->
<g id="edge9" class="edge">
<title>Node8&#45;&gt;Node9</title>
<path fill="none" stroke="#191970" d="M502.2535,-56.3733C520.0712,-47.4644 546.7747,-34.1127 566.9594,-24.0203"/>
<polygon fill="#191970" stroke="#191970" points="568.6187,-27.1038 575.9978,-19.5011 565.4882,-20.8428 568.6187,-27.1038"/>
</g>
<!-- Node11&#45;&gt;Node9 -->
<g id="edge19" class="edge">
<title>Node11&#45;&gt;Node9</title>
<path fill="none" stroke="#191970" d="M867.0562,-173.9742C936.0952,-159.353 1060.2302,-132.9533 1061,-132 1066.5843,-125.0842 1066.5731,-118.9248 1061,-112 1010.0811,-48.7303 763.6671,-22.537 651.1906,-13.7458"/>
<polygon fill="#191970" stroke="#191970" points="651.2955,-10.2437 641.0581,-12.9727 650.7629,-17.2234 651.2955,-10.2437"/>
</g>
<!-- Node12 -->
<g id="node13" class="node">
<title>Node12</title>
<g id="a_node13"><a xlink:title=" ">
<polygon fill="none" stroke="#bfbfbf" points="623.5,-112.5 623.5,-131.5 730.5,-131.5 730.5,-112.5 623.5,-112.5"/>
<text text-anchor="middle" x="677" y="-119.5" font-family="Helvetica,sans-Serif" font-size="10.00" fill="#000000">fmt/format.h</text>
</a>
</g>
</g>
<!-- Node11&#45;&gt;Node12 -->
<g id="edge17" class="edge">
<title>Node11&#45;&gt;Node12</title>
<path fill="none" stroke="#191970" d="M799.3438,-173.8906C775.0826,-163.6005 736.3882,-147.1888 709.02,-135.5809"/>
<polygon fill="#191970" stroke="#191970" points="710.07,-132.2245 699.4972,-131.5419 707.3367,-138.6688 710.07,-132.2245"/>
</g>
<!-- Node13 -->
<g id="node14" class="node">
<title>Node13</title>
<g id="a_node14"><a xlink:title=" ">
<polygon fill="none" stroke="#bfbfbf" points="748.5,-112.5 748.5,-131.5 817.5,-131.5 817.5,-112.5 748.5,-112.5"/>
<text text-anchor="middle" x="783" y="-119.5" font-family="Helvetica,sans-Serif" font-size="10.00" fill="#000000">cstdlib</text>
</a>
</g>
</g>
<!-- Node11&#45;&gt;Node13 -->
<g id="edge18" class="edge">
<title>Node11&#45;&gt;Node13</title>
<path fill="none" stroke="#191970" d="M815.9063,-173.8906C810.2157,-164.917 801.5728,-151.2879 794.5726,-140.2491"/>
<polygon fill="#191970" stroke="#191970" points="797.4909,-138.3155 789.1797,-131.7449 791.5793,-142.0644 797.4909,-138.3155"/>
</g>
<!-- Node14 -->
<g id="node15" class="node">
<title>Node14</title>
<g id="a_node15"><a xlink:title=" ">
<polygon fill="none" stroke="#bfbfbf" points="836,-112.5 836,-131.5 920,-131.5 920,-112.5 836,-112.5"/>
<text text-anchor="middle" x="878" y="-119.5" font-family="Helvetica,sans-Serif" font-size="10.00" fill="#000000">stdexcept</text>
</a>
</g>
</g>
<!-- Node11&#45;&gt;Node14 -->
<g id="edge20" class="edge">
<title>Node11&#45;&gt;Node14</title>
<path fill="none" stroke="#191970" d="M830.75,-173.8906C839.1662,-164.6478 852.0797,-150.466 862.281,-139.2628"/>
<polygon fill="#191970" stroke="#191970" points="864.9818,-141.4953 869.1266,-131.7449 859.806,-136.7824 864.9818,-141.4953"/>
</g>
<!-- Node15 -->
<g id="node16" class="node">
<title>Node15</title>
<g id="a_node16"><a xlink:title=" ">
<polygon fill="none" stroke="#bfbfbf" points="1108.5,-112.5 1108.5,-131.5 1207.5,-131.5 1207.5,-112.5 1108.5,-112.5"/>
<text text-anchor="middle" x="1158" y="-119.5" font-family="Helvetica,sans-Serif" font-size="10.00" fill="#000000">type_traits</text>
</a>
</g>
</g>
<!-- Node11&#45;&gt;Node15 -->
<g id="edge21" class="edge">
<title>Node11&#45;&gt;Node15</title>
<path fill="none" stroke="#191970" d="M866.5622,-173.9202C876.2546,-171.9053 886.4618,-169.8357 896,-168 965.2312,-154.6756 1045.0632,-140.8846 1098.2334,-131.9218"/>
<polygon fill="#191970" stroke="#191970" points="1098.8904,-135.3605 1108.1715,-130.2504 1097.7295,-128.4574 1098.8904,-135.3605"/>
</g>
<!-- Node16 -->
<g id="node17" class="node">
<title>Node16</title>
<g id="a_node17"><a xlink:title=" ">
<polygon fill="none" stroke="#bfbfbf" points="938,-112.5 938,-131.5 1052,-131.5 1052,-112.5 938,-112.5"/>
<text text-anchor="middle" x="995" y="-119.5" font-family="Helvetica,sans-Serif" font-size="10.00" fill="#000000">unordered_map</text>
</a>
</g>
</g>
<!-- Node11&#45;&gt;Node16 -->
<g id="edge22" class="edge">
<title>Node11&#45;&gt;Node16</title>
<path fill="none" stroke="#191970" d="M849.0313,-173.8906C878.4851,-163.42 925.7689,-146.6111 958.5027,-134.9745"/>
<polygon fill="#191970" stroke="#191970" points="959.9086,-138.1893 968.1586,-131.5419 957.5639,-131.5937 959.9086,-138.1893"/>
</g>
<!-- Node19&#45;&gt;Node7 -->
<g id="edge31" class="edge">
<title>Node19&#45;&gt;Node7</title>
<path fill="none" stroke="#191970" d="M1318.0127,-173.7619C1292.3046,-156.0422 1238.2343,-119.6468 1217,-112 931.306,-9.1169 840.0436,-66.6888 540,-20 534.8579,-19.1998 529.4631,-18.3141 524.1284,-17.4102"/>
<polygon fill="#191970" stroke="#191970" points="524.4754,-13.9184 514.0259,-15.6671 523.2852,-20.8165 524.4754,-13.9184"/>
</g>
<!-- Node19&#45;&gt;Node15 -->
<g id="edge30" class="edge">
<title>Node19&#45;&gt;Node15</title>
<path fill="none" stroke="#191970" d="M1304.8125,-173.8906C1275.1883,-163.42 1227.6313,-146.6111 1194.7082,-134.9745"/>
<polygon fill="#191970" stroke="#191970" points="1195.5914,-131.5745 1184.9966,-131.5419 1193.2586,-138.1744 1195.5914,-131.5745"/>
</g>
<!-- Node20 -->
<g id="node21" class="node">
<title>Node20</title>
<g id="a_node21"><a xlink:title=" ">
<polygon fill="none" stroke="#bfbfbf" points="1336,-112.5 1336,-131.5 1428,-131.5 1428,-112.5 1336,-112.5"/>
<text text-anchor="middle" x="1382" y="-119.5" font-family="Helvetica,sans-Serif" font-size="10.00" fill="#000000">functional</text>
</a>
</g>
</g>
<!-- Node19&#45;&gt;Node20 -->
<g id="edge26" class="edge">
<title>Node19&#45;&gt;Node20</title>
<path fill="none" stroke="#191970" d="M1339.8125,-173.8906C1347.254,-164.7376 1358.6334,-150.7409 1367.6992,-139.59"/>
<polygon fill="#191970" stroke="#191970" points="1370.4847,-141.712 1374.0774,-131.7449 1365.0533,-137.2962 1370.4847,-141.712"/>
</g>
<!-- Node21 -->
<g id="node22" class="node">
<title>Node21</title>
<g id="a_node22"><a xlink:title=" ">
<polygon fill="none" stroke="#bfbfbf" points="1446,-112.5 1446,-131.5 1508,-131.5 1508,-112.5 1446,-112.5"/>
<text text-anchor="middle" x="1477" y="-119.5" font-family="Helvetica,sans-Serif" font-size="10.00" fill="#000000">future</text>
</a>
</g>
</g>
<!-- Node19&#45;&gt;Node21 -->
<g id="edge27" class="edge">
<title>Node19&#45;&gt;Node21</title>
<path fill="none" stroke="#191970" d="M1354.6563,-173.8906C1378.9174,-163.6005 1417.6118,-147.1888 1444.98,-135.5809"/>
<polygon fill="#191970" stroke="#191970" points="1446.6633,-138.6688 1454.5028,-131.5419 1443.93,-132.2245 1446.6633,-138.6688"/>
</g>
<!-- Node22 -->
<g id="node23" class="node">
<title>Node22</title>
<g id="a_node23"><a xlink:title=" ">
<polygon fill="none" stroke="#bfbfbf" points="1264,-112.5 1264,-131.5 1318,-131.5 1318,-112.5 1264,-112.5"/>
<text text-anchor="middle" x="1291" y="-119.5" font-family="Helvetica,sans-Serif" font-size="10.00" fill="#000000">queue</text>
</a>
</g>
</g>
<!-- Node19&#45;&gt;Node22 -->
<g id="edge28" class="edge">
<title>Node19&#45;&gt;Node22</title>
<path fill="none" stroke="#191970" d="M1325.5938,-173.8906C1319.6114,-164.917 1310.5253,-151.2879 1303.1661,-140.2491"/>
<polygon fill="#191970" stroke="#191970" points="1305.9558,-138.1239 1297.4966,-131.7449 1300.1314,-142.0068 1305.9558,-138.1239"/>
</g>
<!-- Node19&#45;&gt;Node23 -->
<g id="edge29" class="edge">
<title>Node19&#45;&gt;Node23</title>
<path fill="none" stroke="#191970" d="M1367.1563,-173.8906C1407.4332,-162.8816 1473.3453,-144.8656 1515.9441,-133.2219"/>
<polygon fill="#191970" stroke="#191970" points="1516.9914,-136.5642 1525.7147,-130.5513 1515.1457,-129.8118 1516.9914,-136.5642"/>
</g>
</g>
</svg>
