<?xml version="1.0" encoding="UTF-8" standalone="no"?>
<!DOCTYPE svg PUBLIC "-//W3C//DTD SVG 1.1//EN"
 "http://www.w3.org/Graphics/SVG/1.1/DTD/svg11.dtd">
<!-- Generated by graphviz version 2.40.1 (0)
 -->
<!-- Title: leitse/main.cpp Pages: 1 -->
<svg width="448pt" height="95pt"
 viewBox="0.00 0.00 448.00 95.00" xmlns="http://www.w3.org/2000/svg" xmlns:xlink="http://www.w3.org/1999/xlink">
<g id="graph0" class="graph" transform="scale(1 1) rotate(0) translate(4 91)">
<title>leitse/main.cpp</title>
<!-- Node0 -->
<g id="node1" class="node">
<title>Node0</title>
<g id="a_node1"><a xlink:title=" ">
<polygon fill="#bfbfbf" stroke="#000000" points="185.5,-67.5 185.5,-86.5 314.5,-86.5 314.5,-67.5 185.5,-67.5"/>
<text text-anchor="middle" x="250" y="-74.5" font-family="Helvetica,sans-Serif" font-size="10.00" fill="#000000">leitse/main.cpp</text>
</a>
</g>
</g>
<!-- Node1 -->
<g id="node2" class="node">
<title>Node1</title>
<g id="a_node2"><a xlink:title=" ">
<polygon fill="none" stroke="#bfbfbf" points="0,-.5 0,-30.5 152,-30.5 152,-.5 0,-.5"/>
<text text-anchor="start" x="8" y="-18.5" font-family="Helvetica,sans-Serif" font-size="10.00" fill="#000000">spdlog/sinks/basic</text>
<text text-anchor="middle" x="76" y="-7.5" font-family="Helvetica,sans-Serif" font-size="10.00" fill="#000000">_file_sink.h</text>
</a>
</g>
</g>
<!-- Node0&#45;&gt;Node1 -->
<g id="edge1" class="edge">
<title>Node0&#45;&gt;Node1</title>
<path fill="none" stroke="#191970" d="M222.8125,-67.3906C197.6284,-58.4893 159.4841,-45.0073 128.3882,-34.0165"/>
<polygon fill="#191970" stroke="#191970" points="129.16,-30.5772 118.5652,-30.5446 126.8272,-37.1771 129.16,-30.5772"/>
</g>
<!-- Node2 -->
<g id="node3" class="node">
<title>Node2</title>
<g id="a_node3"><a xlink:title=" ">
<polygon fill="none" stroke="#bfbfbf" points="170.5,-.5 170.5,-30.5 329.5,-30.5 329.5,-.5 170.5,-.5"/>
<text text-anchor="start" x="178.5" y="-18.5" font-family="Helvetica,sans-Serif" font-size="10.00" fill="#000000">spdlog/sinks/stdout</text>
<text text-anchor="middle" x="250" y="-7.5" font-family="Helvetica,sans-Serif" font-size="10.00" fill="#000000">_color_sinks.h</text>
</a>
</g>
</g>
<!-- Node0&#45;&gt;Node2 -->
<g id="edge2" class="edge">
<title>Node0&#45;&gt;Node2</title>
<path fill="none" stroke="#191970" d="M250,-67.3906C250,-60.2234 250,-50.0862 250,-40.671"/>
<polygon fill="#191970" stroke="#191970" points="253.5001,-40.5446 250,-30.5446 246.5001,-40.5446 253.5001,-40.5446"/>
</g>
<!-- Node3 -->
<g id="node4" class="node">
<title>Node3</title>
<g id="a_node4"><a xlink:title=" ">
<polygon fill="none" stroke="#bfbfbf" points="348,-6 348,-25 440,-25 440,-6 348,-6"/>
<text text-anchor="middle" x="394" y="-13" font-family="Helvetica,sans-Serif" font-size="10.00" fill="#000000">filesystem</text>
</a>
</g>
</g>
<!-- Node0&#45;&gt;Node3 -->
<g id="edge3" class="edge">
<title>Node0&#45;&gt;Node3</title>
<path fill="none" stroke="#191970" d="M272.5,-67.3906C296.5938,-57.1005 335.0213,-40.6888 362.2008,-29.0809"/>
<polygon fill="#191970" stroke="#191970" points="363.8363,-32.1883 371.658,-25.0419 361.0869,-25.7508 363.8363,-32.1883"/>
</g>
</g>
</svg>
