<?xml version="1.0" encoding="UTF-8" standalone="no"?>
<!DOCTYPE svg PUBLIC "-//W3C//DTD SVG 1.1//EN"
 "http://www.w3.org/Graphics/SVG/1.1/DTD/svg11.dtd">
<!-- Generated by graphviz version 2.40.1 (0)
 -->
<!-- Title: leitse::anonymous_namespace{main::cpp}::main_impl Pages: 1 -->
<svg width="723pt" height="91pt"
 viewBox="0.00 0.00 723.00 91.00" xmlns="http://www.w3.org/2000/svg" xmlns:xlink="http://www.w3.org/1999/xlink">
<g id="graph0" class="graph" transform="scale(1 1) rotate(0) translate(4 87)">
<title>leitse::anonymous_namespace{main::cpp}::main_impl</title>
<!-- Node7 -->
<g id="node1" class="node">
<title>Node7</title>
<g id="a_node1"><a xlink:title=" ">
<polygon fill="#bfbfbf" stroke="#000000" points="0,-17 0,-47 219,-47 219,-17 0,-17"/>
<text text-anchor="start" x="8" y="-35" font-family="Helvetica,sans-Serif" font-size="10.00" fill="#000000">leitse::anonymous_namespace</text>
<text text-anchor="middle" x="109.5" y="-24" font-family="Helvetica,sans-Serif" font-size="10.00" fill="#000000">{main::cpp}::main_impl</text>
</a>
</g>
</g>
<!-- Node8 -->
<g id="node2" class="node">
<title>Node8</title>
<g id="a_node2"><a xlink:href="structconfig_1_1_config.html#a6482bac83f43652db0483965eb44093d" target="_top" xlink:title=" ">
<polygon fill="none" stroke="#000000" points="274,-39 274,-69 448,-69 448,-39 274,-39"/>
<text text-anchor="start" x="282" y="-57" font-family="Helvetica,sans-Serif" font-size="10.00" fill="#000000">config::Config::parse</text>
<text text-anchor="middle" x="361" y="-46" font-family="Helvetica,sans-Serif" font-size="10.00" fill="#000000">_global_config</text>
</a>
</g>
</g>
<!-- Node7&#45;&gt;Node8 -->
<g id="edge1" class="edge">
<title>Node7&#45;&gt;Node8</title>
<path fill="none" stroke="#191970" d="M219.0799,-41.5855C233.9221,-42.8838 249.0698,-44.2089 263.6774,-45.4867"/>
<polygon fill="#191970" stroke="#191970" points="263.4268,-48.978 273.6937,-46.3629 264.0368,-42.0047 263.4268,-48.978"/>
</g>
<!-- Node11 -->
<g id="node5" class="node">
<title>Node11</title>
<g id="a_node5"><a xlink:href="structconfig_1_1_config.html#a4390a5fcea35e93faf4b47b48785e816" target="_top" xlink:title=" ">
<polygon fill="none" stroke="#000000" points="255,-.5 255,-19.5 467,-19.5 467,-.5 255,-.5"/>
<text text-anchor="middle" x="361" y="-7.5" font-family="Helvetica,sans-Serif" font-size="10.00" fill="#000000">config::Config::parse_args</text>
</a>
</g>
</g>
<!-- Node7&#45;&gt;Node11 -->
<g id="edge4" class="edge">
<title>Node7&#45;&gt;Node11</title>
<path fill="none" stroke="#191970" d="M219.0799,-22.4145C227.6427,-21.6654 236.3072,-20.9075 244.911,-20.1549"/>
<polygon fill="#191970" stroke="#191970" points="245.3166,-23.6329 254.9735,-19.2747 244.7065,-16.6595 245.3166,-23.6329"/>
</g>
<!-- Node9 -->
<g id="node3" class="node">
<title>Node9</title>
<g id="a_node3"><a xlink:href="structconfig_1_1_config.html#a6e427255d58b3312e2941468e640db78" target="_top" xlink:title=" ">
<polygon fill="none" stroke="#000000" points="503,-63.5 503,-82.5 715,-82.5 715,-63.5 503,-63.5"/>
<text text-anchor="middle" x="609" y="-70.5" font-family="Helvetica,sans-Serif" font-size="10.00" fill="#000000">config::Config::parse_file</text>
</a>
</g>
</g>
<!-- Node8&#45;&gt;Node9 -->
<g id="edge2" class="edge">
<title>Node8&#45;&gt;Node9</title>
<path fill="none" stroke="#191970" d="M448.0868,-60.672C462.4885,-61.7753 477.6211,-62.9347 492.605,-64.0826"/>
<polygon fill="#191970" stroke="#191970" points="492.7058,-67.6005 502.944,-64.8747 493.2406,-60.621 492.7058,-67.6005"/>
</g>
<!-- Node10 -->
<g id="node4" class="node">
<title>Node10</title>
<g id="a_node4"><a xlink:href="namespaceutils.html#a24a3b9c327f0dfaa73cc7819f77aba2f" target="_top" xlink:title=" ">
<polygon fill="none" stroke="#000000" points="518,-25.5 518,-44.5 700,-44.5 700,-25.5 518,-25.5"/>
<text text-anchor="middle" x="609" y="-32.5" font-family="Helvetica,sans-Serif" font-size="10.00" fill="#000000">utils::get_kiwixz_home</text>
</a>
</g>
</g>
<!-- Node8&#45;&gt;Node10 -->
<g id="edge3" class="edge">
<title>Node8&#45;&gt;Node10</title>
<path fill="none" stroke="#191970" d="M448.0868,-47.328C467.4289,-45.8462 488.0895,-44.2633 507.9378,-42.7427"/>
<polygon fill="#191970" stroke="#191970" points="508.2146,-46.2318 517.918,-41.9781 507.6798,-39.2523 508.2146,-46.2318"/>
</g>
</g>
</svg>
