<?xml version="1.0" encoding="UTF-8" standalone="no"?>
<!DOCTYPE svg PUBLIC "-//W3C//DTD SVG 1.1//EN"
 "http://www.w3.org/Graphics/SVG/1.1/DTD/svg11.dtd">
<!-- Generated by graphviz version 2.40.1 (0)
 -->
<!-- Title: leitse::anonymous_namespace{main::cpp}::main Pages: 1 -->
<svg width="1383pt" height="292pt"
 viewBox="0.00 0.00 1383.00 291.50" xmlns="http://www.w3.org/2000/svg" xmlns:xlink="http://www.w3.org/1999/xlink">
<g id="graph0" class="graph" transform="scale(1 1) rotate(0) translate(4 287.5)">
<title>leitse::anonymous_namespace{main::cpp}::main</title>
<!-- Node0 -->
<g id="node1" class="node">
<title>Node0</title>
<g id="a_node1"><a xlink:title=" ">
<polygon fill="#bfbfbf" stroke="#000000" points="0,-132.5 0,-162.5 219,-162.5 219,-132.5 0,-132.5"/>
<text text-anchor="start" x="8" y="-150.5" font-family="Helvetica,sans-Serif" font-size="10.00" fill="#000000">leitse::anonymous_namespace</text>
<text text-anchor="middle" x="109.5" y="-139.5" font-family="Helvetica,sans-Serif" font-size="10.00" fill="#000000">{main::cpp}::main</text>
</a>
</g>
</g>
<!-- Node1 -->
<g id="node2" class="node">
<title>Node1</title>
<g id="a_node2"><a xlink:href="namespaceleitse_1_1anonymous__namespace_02main_8cpp_03.html#a22efba3a32984564056202cc7db3f0de" target="_top" xlink:title=" ">
<polygon fill="none" stroke="#000000" points="255,-132.5 255,-162.5 474,-162.5 474,-132.5 255,-132.5"/>
<text text-anchor="start" x="263" y="-150.5" font-family="Helvetica,sans-Serif" font-size="10.00" fill="#000000">leitse::anonymous_namespace</text>
<text text-anchor="middle" x="364.5" y="-139.5" font-family="Helvetica,sans-Serif" font-size="10.00" fill="#000000">{main::cpp}::main_impl</text>
</a>
</g>
</g>
<!-- Node0&#45;&gt;Node1 -->
<g id="edge1" class="edge">
<title>Node0&#45;&gt;Node1</title>
<path fill="none" stroke="#191970" d="M219.1228,-147.5C227.6608,-147.5 236.3079,-147.5 244.9068,-147.5"/>
<polygon fill="#191970" stroke="#191970" points="244.9698,-151.0001 254.9697,-147.5 244.9697,-144.0001 244.9698,-151.0001"/>
</g>
<!-- Node2 -->
<g id="node3" class="node">
<title>Node2</title>
<g id="a_node3"><a xlink:href="structconfig_1_1_config.html#a8d05ea9c3f473081105aadb66124f42e" target="_top" xlink:title=" ">
<polygon fill="none" stroke="#000000" points="536.5,-264 536.5,-283 695.5,-283 695.5,-264 536.5,-264"/>
<text text-anchor="middle" x="616" y="-271" font-family="Helvetica,sans-Serif" font-size="10.00" fill="#000000">config::Config::set</text>
</a>
</g>
</g>
<!-- Node1&#45;&gt;Node2 -->
<g id="edge2" class="edge">
<title>Node1&#45;&gt;Node2</title>
<path fill="none" stroke="#191970" d="M379.9742,-162.727C405.0161,-186.4149 456.9896,-231.729 510,-254.5 516.1171,-257.1276 522.5833,-259.3919 529.1833,-261.343"/>
<polygon fill="#191970" stroke="#191970" points="528.3561,-264.745 538.9235,-263.9834 530.1876,-257.9889 528.3561,-264.745"/>
</g>
<!-- Node3 -->
<g id="node4" class="node">
<title>Node3</title>
<g id="a_node4"><a xlink:href="structconfig_1_1_config.html#a26453f75e7ce4f024b90669e437c10de" target="_top" xlink:title=" ">
<polygon fill="none" stroke="#000000" points="529,-214.5 529,-244.5 703,-244.5 703,-214.5 529,-214.5"/>
<text text-anchor="start" x="537" y="-232.5" font-family="Helvetica,sans-Serif" font-size="10.00" fill="#000000">config::Config::parse</text>
<text text-anchor="middle" x="616" y="-221.5" font-family="Helvetica,sans-Serif" font-size="10.00" fill="#000000">_global_config</text>
</a>
</g>
</g>
<!-- Node1&#45;&gt;Node3 -->
<g id="edge3" class="edge">
<title>Node1&#45;&gt;Node3</title>
<path fill="none" stroke="#191970" d="M398.9905,-162.6135C428.1651,-175.0077 471.2828,-192.4174 510,-204.5 518.3929,-207.1192 527.2341,-209.6117 536.0838,-211.9372"/>
<polygon fill="#191970" stroke="#191970" points="535.5,-215.4005 546.0556,-214.4895 537.2358,-208.6191 535.5,-215.4005"/>
</g>
<!-- Node8 -->
<g id="node9" class="node">
<title>Node8</title>
<g id="a_node9"><a xlink:href="structconfig_1_1_config.html#af7d0bbe0e41a086d991fc545cc886212" target="_top" xlink:title=" ">
<polygon fill="none" stroke="#000000" points="510,-176 510,-195 722,-195 722,-176 510,-176"/>
<text text-anchor="middle" x="616" y="-183" font-family="Helvetica,sans-Serif" font-size="10.00" fill="#000000">config::Config::parse_args</text>
</a>
</g>
</g>
<!-- Node1&#45;&gt;Node8 -->
<g id="edge8" class="edge">
<title>Node1&#45;&gt;Node8</title>
<path fill="none" stroke="#191970" d="M463.8995,-162.5186C490.3274,-166.5117 518.3811,-170.7504 543.1031,-174.4858"/>
<polygon fill="#191970" stroke="#191970" points="542.7082,-177.9657 553.1189,-175.9991 543.754,-171.0443 542.7082,-177.9657"/>
</g>
<!-- Node9 -->
<g id="node10" class="node">
<title>Node9</title>
<g id="a_node10"><a xlink:href="structconfig_1_1_config.html#abca32af5b3cfdb1f9eabec454e1e354e" target="_top" xlink:title=" ">
<polygon fill="none" stroke="#000000" points="514,-138 514,-157 718,-157 718,-138 514,-138"/>
<text text-anchor="middle" x="616" y="-145" font-family="Helvetica,sans-Serif" font-size="10.00" fill="#000000">config::Config::show_help</text>
</a>
</g>
</g>
<!-- Node1&#45;&gt;Node9 -->
<g id="edge11" class="edge">
<title>Node1&#45;&gt;Node9</title>
<path fill="none" stroke="#191970" d="M474.0799,-147.5C483.9044,-147.5 493.8627,-147.5 503.7096,-147.5"/>
<polygon fill="#191970" stroke="#191970" points="503.9206,-151.0001 513.9206,-147.5 503.9206,-144.0001 503.9206,-151.0001"/>
</g>
<!-- Node11 -->
<g id="node12" class="node">
<title>Node11</title>
<g id="a_node12"><a xlink:href="structleitse_1_1_data_dragon.html#aedd2ef4d722fb451e9e68502a47dc392" target="_top" xlink:title=" ">
<polygon fill="none" stroke="#000000" points="540,-88.5 540,-118.5 692,-118.5 692,-88.5 540,-88.5"/>
<text text-anchor="start" x="548" y="-106.5" font-family="Helvetica,sans-Serif" font-size="10.00" fill="#000000">leitse::DataDragon</text>
<text text-anchor="middle" x="616" y="-95.5" font-family="Helvetica,sans-Serif" font-size="10.00" fill="#000000">::populate</text>
</a>
</g>
</g>
<!-- Node1&#45;&gt;Node11 -->
<g id="edge13" class="edge">
<title>Node1&#45;&gt;Node11</title>
<path fill="none" stroke="#191970" d="M450.3486,-132.4808C475.976,-127.9972 504.0699,-123.0822 529.7245,-118.5939"/>
<polygon fill="#191970" stroke="#191970" points="530.5533,-122.0022 539.8005,-116.8311 529.3469,-115.1069 530.5533,-122.0022"/>
</g>
<!-- Node13 -->
<g id="node14" class="node">
<title>Node13</title>
<g id="a_node14"><a xlink:href="structconfig_1_1_config.html#a0cf9f3b97d218358b2bd62f3b94a3efb" target="_top" xlink:title=" ">
<polygon fill="none" stroke="#000000" points="536.5,-50 536.5,-69 695.5,-69 695.5,-50 536.5,-50"/>
<text text-anchor="middle" x="616" y="-57" font-family="Helvetica,sans-Serif" font-size="10.00" fill="#000000">config::Config::get</text>
</a>
</g>
</g>
<!-- Node1&#45;&gt;Node13 -->
<g id="edge15" class="edge">
<title>Node1&#45;&gt;Node13</title>
<path fill="none" stroke="#191970" d="M390.7115,-132.4476C419.1934,-116.7248 466.4705,-92.448 510,-78.5 518.8535,-75.6631 528.267,-73.2114 537.6889,-71.1023"/>
<polygon fill="#191970" stroke="#191970" points="538.4298,-74.5231 547.4874,-69.0267 536.9791,-67.6751 538.4298,-74.5231"/>
</g>
<!-- Node15 -->
<g id="node16" class="node">
<title>Node15</title>
<g id="a_node16"><a xlink:href="structleitse_1_1_data_dragon.html#a59f6a2098dde51fbd7253fe043491c4b" target="_top" xlink:title=" ">
<polygon fill="none" stroke="#000000" points="540,-.5 540,-30.5 692,-30.5 692,-.5 540,-.5"/>
<text text-anchor="start" x="548" y="-18.5" font-family="Helvetica,sans-Serif" font-size="10.00" fill="#000000">leitse::DataDragon</text>
<text text-anchor="middle" x="616" y="-7.5" font-family="Helvetica,sans-Serif" font-size="10.00" fill="#000000">::champions</text>
</a>
</g>
</g>
<!-- Node1&#45;&gt;Node15 -->
<g id="edge17" class="edge">
<title>Node1&#45;&gt;Node15</title>
<path fill="none" stroke="#191970" d="M380.5395,-132.2317C405.9425,-108.904 457.9114,-64.569 510,-40.5 516.4311,-37.5283 523.2504,-34.891 530.2064,-32.5538"/>
<polygon fill="#191970" stroke="#191970" points="531.265,-35.89 539.7531,-29.5495 529.1637,-29.2128 531.265,-35.89"/>
</g>
<!-- Node4 -->
<g id="node5" class="node">
<title>Node4</title>
<g id="a_node5"><a xlink:href="structconfig_1_1_config.html#a8eb0be2dcc2b23168834d10674330c5f" target="_top" xlink:title=" ">
<polygon fill="none" stroke="#000000" points="758,-217 758,-236 970,-236 970,-217 758,-217"/>
<text text-anchor="middle" x="864" y="-224" font-family="Helvetica,sans-Serif" font-size="10.00" fill="#000000">config::Config::parse_file</text>
</a>
</g>
</g>
<!-- Node3&#45;&gt;Node4 -->
<g id="edge4" class="edge">
<title>Node3&#45;&gt;Node4</title>
<path fill="none" stroke="#191970" d="M703.0868,-228.4465C717.4885,-228.2723 732.6211,-228.0893 747.605,-227.908"/>
<polygon fill="#191970" stroke="#191970" points="747.9871,-231.4037 757.944,-227.7829 747.9023,-224.4042 747.9871,-231.4037"/>
</g>
<!-- Node7 -->
<g id="node8" class="node">
<title>Node7</title>
<g id="a_node8"><a xlink:href="namespaceutils.html#a24a3b9c327f0dfaa73cc7819f77aba2f" target="_top" xlink:title=" ">
<polygon fill="none" stroke="#000000" points="773,-255 773,-274 955,-274 955,-255 773,-255"/>
<text text-anchor="middle" x="864" y="-262" font-family="Helvetica,sans-Serif" font-size="10.00" fill="#000000">utils::get_kiwixz_home</text>
</a>
</g>
</g>
<!-- Node3&#45;&gt;Node7 -->
<g id="edge7" class="edge">
<title>Node3&#45;&gt;Node7</title>
<path fill="none" stroke="#191970" d="M703.0868,-241.7905C730.3134,-245.6329 760.1525,-249.8441 786.6608,-253.5852"/>
<polygon fill="#191970" stroke="#191970" points="786.2539,-257.0624 796.6449,-254.9942 787.2321,-250.1311 786.2539,-257.0624"/>
</g>
<!-- Node5 -->
<g id="node6" class="node">
<title>Node5</title>
<g id="a_node6"><a xlink:href="structconfig_1_1_config.html#a11fee93a22eea6fd3be390570f0714a7" target="_top" xlink:title=" ">
<polygon fill="none" stroke="#000000" points="1006,-214.5 1006,-244.5 1180,-244.5 1180,-214.5 1006,-214.5"/>
<text text-anchor="start" x="1014" y="-232.5" font-family="Helvetica,sans-Serif" font-size="10.00" fill="#000000">config::Config::parse</text>
<text text-anchor="middle" x="1093" y="-221.5" font-family="Helvetica,sans-Serif" font-size="10.00" fill="#000000">_file_content</text>
</a>
</g>
</g>
<!-- Node4&#45;&gt;Node5 -->
<g id="edge5" class="edge">
<title>Node4&#45;&gt;Node5</title>
<path fill="none" stroke="#191970" d="M970.1204,-227.8902C978.6045,-228.0014 987.1503,-228.1133 995.5701,-228.2236"/>
<polygon fill="#191970" stroke="#191970" points="995.7202,-231.7258 1005.7653,-228.3572 995.812,-224.7264 995.7202,-231.7258"/>
</g>
<!-- Node6 -->
<g id="node7" class="node">
<title>Node6</title>
<g id="a_node7"><a xlink:href="structconfig_1_1_config.html#ae876f154975287de4c120c68061bec1d" target="_top" xlink:title=" ">
<polygon fill="none" stroke="#000000" points="1216,-192.5 1216,-222.5 1375,-222.5 1375,-192.5 1216,-192.5"/>
<text text-anchor="start" x="1224" y="-210.5" font-family="Helvetica,sans-Serif" font-size="10.00" fill="#000000">config::Config::set</text>
<text text-anchor="middle" x="1295.5" y="-199.5" font-family="Helvetica,sans-Serif" font-size="10.00" fill="#000000">_parsed_option</text>
</a>
</g>
</g>
<!-- Node5&#45;&gt;Node6 -->
<g id="edge6" class="edge">
<title>Node5&#45;&gt;Node6</title>
<path fill="none" stroke="#191970" d="M1180.0534,-220.0423C1188.6057,-219.1132 1197.2958,-218.1691 1205.8731,-217.2372"/>
<polygon fill="#191970" stroke="#191970" points="1206.3119,-220.7103 1215.8754,-216.1506 1205.5558,-213.7512 1206.3119,-220.7103"/>
</g>
<!-- Node8&#45;&gt;Node4 -->
<g id="edge10" class="edge">
<title>Node8&#45;&gt;Node4</title>
<path fill="none" stroke="#191970" d="M673.5195,-195.0093C710.1666,-201.0679 757.8127,-208.9448 796.284,-215.305"/>
<polygon fill="#191970" stroke="#191970" points="795.9264,-218.7933 806.3634,-216.9714 797.0682,-211.8871 795.9264,-218.7933"/>
</g>
<!-- Node8&#45;&gt;Node6 -->
<g id="edge9" class="edge">
<title>Node8&#45;&gt;Node6</title>
<path fill="none" stroke="#191970" d="M722.1719,-188.9375C855.1405,-193.2426 1080.6249,-200.543 1205.5153,-204.5866"/>
<polygon fill="#191970" stroke="#191970" points="1205.6974,-208.0942 1215.8054,-204.9197 1205.924,-201.0979 1205.6974,-208.0942"/>
</g>
<!-- Node10 -->
<g id="node11" class="node">
<title>Node10</title>
<g id="a_node11"><a xlink:href="structconfig_1_1_config.html#a6d7920c2d4ab70b3fbee60b31a5df5d9" target="_top" xlink:title=" ">
<polygon fill="none" stroke="#000000" points="780.5,-138 780.5,-157 947.5,-157 947.5,-138 780.5,-138"/>
<text text-anchor="middle" x="864" y="-145" font-family="Helvetica,sans-Serif" font-size="10.00" fill="#000000">config::Config::dump</text>
</a>
</g>
</g>
<!-- Node9&#45;&gt;Node10 -->
<g id="edge12" class="edge">
<title>Node9&#45;&gt;Node10</title>
<path fill="none" stroke="#191970" d="M718.3029,-147.5C735.4295,-147.5 753.126,-147.5 770.0302,-147.5"/>
<polygon fill="#191970" stroke="#191970" points="770.441,-151.0001 780.4409,-147.5 770.4409,-144.0001 770.441,-151.0001"/>
</g>
<!-- Node12 -->
<g id="node13" class="node">
<title>Node12</title>
<g id="a_node13"><a xlink:href="structleitse_1_1_data_dragon.html#a99b1d9414c57d987ee8aca3ec804f738" target="_top" xlink:title=" ">
<polygon fill="none" stroke="#000000" points="788,-88.5 788,-118.5 940,-118.5 940,-88.5 788,-88.5"/>
<text text-anchor="start" x="796" y="-106.5" font-family="Helvetica,sans-Serif" font-size="10.00" fill="#000000">leitse::DataDragon</text>
<text text-anchor="middle" x="864" y="-95.5" font-family="Helvetica,sans-Serif" font-size="10.00" fill="#000000">::fetch_data</text>
</a>
</g>
</g>
<!-- Node11&#45;&gt;Node12 -->
<g id="edge14" class="edge">
<title>Node11&#45;&gt;Node12</title>
<path fill="none" stroke="#191970" d="M692.0936,-103.5C719.1043,-103.5 749.6987,-103.5 777.5132,-103.5"/>
<polygon fill="#191970" stroke="#191970" points="777.6231,-107.0001 787.6231,-103.5 777.623,-100.0001 777.6231,-107.0001"/>
</g>
<!-- Node14 -->
<g id="node15" class="node">
<title>Node14</title>
<g id="a_node15"><a xlink:href="structconfig_1_1_config.html#ab957d0cdfdedba7a80d5459bb72d6f08" target="_top" xlink:title=" ">
<polygon fill="none" stroke="#000000" points="769.5,-50 769.5,-69 958.5,-69 958.5,-50 769.5,-50"/>
<text text-anchor="middle" x="864" y="-57" font-family="Helvetica,sans-Serif" font-size="10.00" fill="#000000">config::Config::get_raw</text>
</a>
</g>
</g>
<!-- Node13&#45;&gt;Node14 -->
<g id="edge16" class="edge">
<title>Node13&#45;&gt;Node14</title>
<path fill="none" stroke="#191970" d="M695.8339,-59.5C716.0033,-59.5 737.9661,-59.5 759.1632,-59.5"/>
<polygon fill="#191970" stroke="#191970" points="759.1665,-63.0001 769.1665,-59.5 759.1664,-56.0001 759.1665,-63.0001"/>
</g>
</g>
</svg>
