<?xml version="1.0" encoding="UTF-8" standalone="no"?>
<!DOCTYPE svg PUBLIC "-//W3C//DTD SVG 1.1//EN"
 "http://www.w3.org/Graphics/SVG/1.1/DTD/svg11.dtd">
<!-- Generated by graphviz version 2.40.1 (0)
 -->
<!-- Title: leitse::anonymous_namespace{main::cpp}::main Pages: 1 -->
<svg width="1383pt" height="154pt"
 viewBox="0.00 0.00 1383.00 154.00" xmlns="http://www.w3.org/2000/svg" xmlns:xlink="http://www.w3.org/1999/xlink">
<g id="graph0" class="graph" transform="scale(1 1) rotate(0) translate(4 150)">
<title>leitse::anonymous_namespace{main::cpp}::main</title>
<!-- Node0 -->
<g id="node1" class="node">
<title>Node0</title>
<g id="a_node1"><a xlink:title=" ">
<polygon fill="#bfbfbf" stroke="#000000" points="0,-55 0,-85 219,-85 219,-55 0,-55"/>
<text text-anchor="start" x="8" y="-73" font-family="Helvetica,sans-Serif" font-size="10.00" fill="#000000">leitse::anonymous_namespace</text>
<text text-anchor="middle" x="109.5" y="-62" font-family="Helvetica,sans-Serif" font-size="10.00" fill="#000000">{main::cpp}::main</text>
</a>
</g>
</g>
<!-- Node1 -->
<g id="node2" class="node">
<title>Node1</title>
<g id="a_node2"><a xlink:href="namespaceleitse_1_1anonymous__namespace_02main_8cpp_03.html#a22efba3a32984564056202cc7db3f0de" target="_top" xlink:title=" ">
<polygon fill="none" stroke="#000000" points="255,-55 255,-85 474,-85 474,-55 255,-55"/>
<text text-anchor="start" x="263" y="-73" font-family="Helvetica,sans-Serif" font-size="10.00" fill="#000000">leitse::anonymous_namespace</text>
<text text-anchor="middle" x="364.5" y="-62" font-family="Helvetica,sans-Serif" font-size="10.00" fill="#000000">{main::cpp}::main_impl</text>
</a>
</g>
</g>
<!-- Node0&#45;&gt;Node1 -->
<g id="edge1" class="edge">
<title>Node0&#45;&gt;Node1</title>
<path fill="none" stroke="#191970" d="M219.1228,-70C227.6608,-70 236.3079,-70 244.9068,-70"/>
<polygon fill="#191970" stroke="#191970" points="244.9698,-73.5001 254.9697,-70 244.9697,-66.5001 244.9698,-73.5001"/>
</g>
<!-- Node2 -->
<g id="node3" class="node">
<title>Node2</title>
<g id="a_node3"><a xlink:href="structconfig_1_1_config.html#a8d05ea9c3f473081105aadb66124f42e" target="_top" xlink:title=" ">
<polygon fill="none" stroke="#000000" points="536.5,-126.5 536.5,-145.5 695.5,-145.5 695.5,-126.5 536.5,-126.5"/>
<text text-anchor="middle" x="616" y="-133.5" font-family="Helvetica,sans-Serif" font-size="10.00" fill="#000000">config::Config::set</text>
</a>
</g>
</g>
<!-- Node1&#45;&gt;Node2 -->
<g id="edge2" class="edge">
<title>Node1&#45;&gt;Node2</title>
<path fill="none" stroke="#191970" d="M406.0892,-85.0903C434.9561,-95.1542 474.4601,-108.1179 510,-117 521.1529,-119.7873 533.0633,-122.3318 544.7241,-124.5893"/>
<polygon fill="#191970" stroke="#191970" points="544.4074,-128.091 554.8818,-126.4981 545.7003,-121.2114 544.4074,-128.091"/>
</g>
<!-- Node3 -->
<g id="node4" class="node">
<title>Node3</title>
<g id="a_node4"><a xlink:href="structconfig_1_1_config.html#a26453f75e7ce4f024b90669e437c10de" target="_top" xlink:title=" ">
<polygon fill="none" stroke="#000000" points="529,-77 529,-107 703,-107 703,-77 529,-77"/>
<text text-anchor="start" x="537" y="-95" font-family="Helvetica,sans-Serif" font-size="10.00" fill="#000000">config::Config::parse</text>
<text text-anchor="middle" x="616" y="-84" font-family="Helvetica,sans-Serif" font-size="10.00" fill="#000000">_global_config</text>
</a>
</g>
</g>
<!-- Node1&#45;&gt;Node3 -->
<g id="edge3" class="edge">
<title>Node1&#45;&gt;Node3</title>
<path fill="none" stroke="#191970" d="M474.0799,-79.5855C488.9221,-80.8838 504.0698,-82.2089 518.6774,-83.4867"/>
<polygon fill="#191970" stroke="#191970" points="518.4268,-86.978 528.6937,-84.3629 519.0368,-80.0047 518.4268,-86.978"/>
</g>
<!-- Node8 -->
<g id="node9" class="node">
<title>Node8</title>
<g id="a_node9"><a xlink:href="structconfig_1_1_config.html#af7d0bbe0e41a086d991fc545cc886212" target="_top" xlink:title=" ">
<polygon fill="none" stroke="#000000" points="510,-38.5 510,-57.5 722,-57.5 722,-38.5 510,-38.5"/>
<text text-anchor="middle" x="616" y="-45.5" font-family="Helvetica,sans-Serif" font-size="10.00" fill="#000000">config::Config::parse_args</text>
</a>
</g>
</g>
<!-- Node1&#45;&gt;Node8 -->
<g id="edge8" class="edge">
<title>Node1&#45;&gt;Node8</title>
<path fill="none" stroke="#191970" d="M474.0799,-60.4145C482.6427,-59.6654 491.3072,-58.9075 499.911,-58.1549"/>
<polygon fill="#191970" stroke="#191970" points="500.3166,-61.6329 509.9735,-57.2747 499.7065,-54.6595 500.3166,-61.6329"/>
</g>
<!-- Node9 -->
<g id="node10" class="node">
<title>Node9</title>
<g id="a_node10"><a xlink:href="structconfig_1_1_config.html#abca32af5b3cfdb1f9eabec454e1e354e" target="_top" xlink:title=" ">
<polygon fill="none" stroke="#000000" points="514,-.5 514,-19.5 718,-19.5 718,-.5 514,-.5"/>
<text text-anchor="middle" x="616" y="-7.5" font-family="Helvetica,sans-Serif" font-size="10.00" fill="#000000">config::Config::show_help</text>
</a>
</g>
</g>
<!-- Node1&#45;&gt;Node9 -->
<g id="edge11" class="edge">
<title>Node1&#45;&gt;Node9</title>
<path fill="none" stroke="#191970" d="M413.3586,-54.9494C441.455,-46.6179 477.5176,-36.4691 510,-29 521.8149,-26.2833 534.4453,-23.7238 546.7201,-21.4162"/>
<polygon fill="#191970" stroke="#191970" points="547.72,-24.791 556.9215,-19.5391 546.4532,-17.9066 547.72,-24.791"/>
</g>
<!-- Node4 -->
<g id="node5" class="node">
<title>Node4</title>
<g id="a_node5"><a xlink:href="structconfig_1_1_config.html#a8eb0be2dcc2b23168834d10674330c5f" target="_top" xlink:title=" ">
<polygon fill="none" stroke="#000000" points="758,-79.5 758,-98.5 970,-98.5 970,-79.5 758,-79.5"/>
<text text-anchor="middle" x="864" y="-86.5" font-family="Helvetica,sans-Serif" font-size="10.00" fill="#000000">config::Config::parse_file</text>
</a>
</g>
</g>
<!-- Node3&#45;&gt;Node4 -->
<g id="edge4" class="edge">
<title>Node3&#45;&gt;Node4</title>
<path fill="none" stroke="#191970" d="M703.0868,-90.9465C717.4885,-90.7723 732.6211,-90.5893 747.605,-90.408"/>
<polygon fill="#191970" stroke="#191970" points="747.9871,-93.9037 757.944,-90.2829 747.9023,-86.9042 747.9871,-93.9037"/>
</g>
<!-- Node7 -->
<g id="node8" class="node">
<title>Node7</title>
<g id="a_node8"><a xlink:href="namespaceutils.html#a24a3b9c327f0dfaa73cc7819f77aba2f" target="_top" xlink:title=" ">
<polygon fill="none" stroke="#000000" points="773,-117.5 773,-136.5 955,-136.5 955,-117.5 773,-117.5"/>
<text text-anchor="middle" x="864" y="-124.5" font-family="Helvetica,sans-Serif" font-size="10.00" fill="#000000">utils::get_kiwixz_home</text>
</a>
</g>
</g>
<!-- Node3&#45;&gt;Node7 -->
<g id="edge7" class="edge">
<title>Node3&#45;&gt;Node7</title>
<path fill="none" stroke="#191970" d="M703.0868,-104.2905C730.3134,-108.1329 760.1525,-112.3441 786.6608,-116.0852"/>
<polygon fill="#191970" stroke="#191970" points="786.2539,-119.5624 796.6449,-117.4942 787.2321,-112.6311 786.2539,-119.5624"/>
</g>
<!-- Node5 -->
<g id="node6" class="node">
<title>Node5</title>
<g id="a_node6"><a xlink:href="structconfig_1_1_config.html#a11fee93a22eea6fd3be390570f0714a7" target="_top" xlink:title=" ">
<polygon fill="none" stroke="#000000" points="1006,-77 1006,-107 1180,-107 1180,-77 1006,-77"/>
<text text-anchor="start" x="1014" y="-95" font-family="Helvetica,sans-Serif" font-size="10.00" fill="#000000">config::Config::parse</text>
<text text-anchor="middle" x="1093" y="-84" font-family="Helvetica,sans-Serif" font-size="10.00" fill="#000000">_file_content</text>
</a>
</g>
</g>
<!-- Node4&#45;&gt;Node5 -->
<g id="edge5" class="edge">
<title>Node4&#45;&gt;Node5</title>
<path fill="none" stroke="#191970" d="M970.1204,-90.3902C978.6045,-90.5014 987.1503,-90.6133 995.5701,-90.7236"/>
<polygon fill="#191970" stroke="#191970" points="995.7202,-94.2258 1005.7653,-90.8572 995.812,-87.2264 995.7202,-94.2258"/>
</g>
<!-- Node6 -->
<g id="node7" class="node">
<title>Node6</title>
<g id="a_node7"><a xlink:href="structconfig_1_1_config.html#ae876f154975287de4c120c68061bec1d" target="_top" xlink:title=" ">
<polygon fill="none" stroke="#000000" points="1216,-55 1216,-85 1375,-85 1375,-55 1216,-55"/>
<text text-anchor="start" x="1224" y="-73" font-family="Helvetica,sans-Serif" font-size="10.00" fill="#000000">config::Config::set</text>
<text text-anchor="middle" x="1295.5" y="-62" font-family="Helvetica,sans-Serif" font-size="10.00" fill="#000000">_parsed_option</text>
</a>
</g>
</g>
<!-- Node5&#45;&gt;Node6 -->
<g id="edge6" class="edge">
<title>Node5&#45;&gt;Node6</title>
<path fill="none" stroke="#191970" d="M1180.0534,-82.5423C1188.6057,-81.6132 1197.2958,-80.6691 1205.8731,-79.7372"/>
<polygon fill="#191970" stroke="#191970" points="1206.3119,-83.2103 1215.8754,-78.6506 1205.5558,-76.2512 1206.3119,-83.2103"/>
</g>
<!-- Node8&#45;&gt;Node4 -->
<g id="edge10" class="edge">
<title>Node8&#45;&gt;Node4</title>
<path fill="none" stroke="#191970" d="M673.5195,-57.5093C710.1666,-63.5679 757.8127,-71.4448 796.284,-77.805"/>
<polygon fill="#191970" stroke="#191970" points="795.9264,-81.2933 806.3634,-79.4714 797.0682,-74.3871 795.9264,-81.2933"/>
</g>
<!-- Node8&#45;&gt;Node6 -->
<g id="edge9" class="edge">
<title>Node8&#45;&gt;Node6</title>
<path fill="none" stroke="#191970" d="M722.1719,-51.4375C855.1405,-55.7426 1080.6249,-63.043 1205.5153,-67.0866"/>
<polygon fill="#191970" stroke="#191970" points="1205.6974,-70.5942 1215.8054,-67.4197 1205.924,-63.5979 1205.6974,-70.5942"/>
</g>
<!-- Node10 -->
<g id="node11" class="node">
<title>Node10</title>
<g id="a_node11"><a xlink:href="structconfig_1_1_config.html#a6d7920c2d4ab70b3fbee60b31a5df5d9" target="_top" xlink:title=" ">
<polygon fill="none" stroke="#000000" points="780.5,-.5 780.5,-19.5 947.5,-19.5 947.5,-.5 780.5,-.5"/>
<text text-anchor="middle" x="864" y="-7.5" font-family="Helvetica,sans-Serif" font-size="10.00" fill="#000000">config::Config::dump</text>
</a>
</g>
</g>
<!-- Node9&#45;&gt;Node10 -->
<g id="edge12" class="edge">
<title>Node9&#45;&gt;Node10</title>
<path fill="none" stroke="#191970" d="M718.3029,-10C735.4295,-10 753.126,-10 770.0302,-10"/>
<polygon fill="#191970" stroke="#191970" points="770.441,-13.5001 780.4409,-10 770.4409,-6.5001 770.441,-13.5001"/>
</g>
</g>
</svg>
