<?xml version="1.0" encoding="UTF-8" standalone="no"?>
<!DOCTYPE svg PUBLIC "-//W3C//DTD SVG 1.1//EN"
 "http://www.w3.org/Graphics/SVG/1.1/DTD/svg11.dtd">
<!-- Generated by graphviz version 2.40.1 (0)
 -->
<!-- Title: leitse::anonymous_namespace{main::cpp}::main Pages: 1 -->
<svg width="978pt" height="129pt"
 viewBox="0.00 0.00 978.00 129.00" xmlns="http://www.w3.org/2000/svg" xmlns:xlink="http://www.w3.org/1999/xlink">
<g id="graph0" class="graph" transform="scale(1 1) rotate(0) translate(4 125)">
<title>leitse::anonymous_namespace{main::cpp}::main</title>
<!-- Node0 -->
<g id="node1" class="node">
<title>Node0</title>
<g id="a_node1"><a xlink:title=" ">
<polygon fill="#bfbfbf" stroke="#000000" points="0,-33 0,-63 219,-63 219,-33 0,-33"/>
<text text-anchor="start" x="8" y="-51" font-family="Helvetica,sans-Serif" font-size="10.00" fill="#000000">leitse::anonymous_namespace</text>
<text text-anchor="middle" x="109.5" y="-40" font-family="Helvetica,sans-Serif" font-size="10.00" fill="#000000">{main::cpp}::main</text>
</a>
</g>
</g>
<!-- Node1 -->
<g id="node2" class="node">
<title>Node1</title>
<g id="a_node2"><a xlink:href="namespaceleitse_1_1anonymous__namespace_02main_8cpp_03.html#a22efba3a32984564056202cc7db3f0de" target="_top" xlink:title=" ">
<polygon fill="none" stroke="#000000" points="255,-33 255,-63 474,-63 474,-33 255,-33"/>
<text text-anchor="start" x="263" y="-51" font-family="Helvetica,sans-Serif" font-size="10.00" fill="#000000">leitse::anonymous_namespace</text>
<text text-anchor="middle" x="364.5" y="-40" font-family="Helvetica,sans-Serif" font-size="10.00" fill="#000000">{main::cpp}::main_impl</text>
</a>
</g>
</g>
<!-- Node0&#45;&gt;Node1 -->
<g id="edge1" class="edge">
<title>Node0&#45;&gt;Node1</title>
<path fill="none" stroke="#191970" d="M219.1228,-48C227.6608,-48 236.3079,-48 244.9068,-48"/>
<polygon fill="#191970" stroke="#191970" points="244.9698,-51.5001 254.9697,-48 244.9697,-44.5001 244.9698,-51.5001"/>
</g>
<!-- Node2 -->
<g id="node3" class="node">
<title>Node2</title>
<g id="a_node3"><a xlink:href="structconfig_1_1_config.html#a6482bac83f43652db0483965eb44093d" target="_top" xlink:title=" ">
<polygon fill="none" stroke="#000000" points="529,-77 529,-107 703,-107 703,-77 529,-77"/>
<text text-anchor="start" x="537" y="-95" font-family="Helvetica,sans-Serif" font-size="10.00" fill="#000000">config::Config::parse</text>
<text text-anchor="middle" x="616" y="-84" font-family="Helvetica,sans-Serif" font-size="10.00" fill="#000000">_global_config</text>
</a>
</g>
</g>
<!-- Node1&#45;&gt;Node2 -->
<g id="edge2" class="edge">
<title>Node1&#45;&gt;Node2</title>
<path fill="none" stroke="#191970" d="M450.3486,-63.0192C472.7848,-66.9445 497.1115,-71.2004 520.0367,-75.2112"/>
<polygon fill="#191970" stroke="#191970" points="519.658,-78.698 530.1116,-76.9738 520.8644,-71.8027 519.658,-78.698"/>
</g>
<!-- Node5 -->
<g id="node6" class="node">
<title>Node5</title>
<g id="a_node6"><a xlink:href="structconfig_1_1_config.html#aa1888a2244ac533641954e38c63553d2" target="_top" xlink:title=" ">
<polygon fill="none" stroke="#000000" points="510,-38.5 510,-57.5 722,-57.5 722,-38.5 510,-38.5"/>
<text text-anchor="middle" x="616" y="-45.5" font-family="Helvetica,sans-Serif" font-size="10.00" fill="#000000">config::Config::parse_args</text>
</a>
</g>
</g>
<!-- Node1&#45;&gt;Node5 -->
<g id="edge5" class="edge">
<title>Node1&#45;&gt;Node5</title>
<path fill="none" stroke="#191970" d="M474.0799,-48C482.6427,-48 491.3072,-48 499.911,-48"/>
<polygon fill="#191970" stroke="#191970" points="499.9735,-51.5001 509.9735,-48 499.9735,-44.5001 499.9735,-51.5001"/>
</g>
<!-- Node6 -->
<g id="node7" class="node">
<title>Node6</title>
<g id="a_node7"><a xlink:href="structconfig_1_1_config.html#a9aabf6fc826255f58721dc3645c5f450" target="_top" xlink:title=" ">
<polygon fill="none" stroke="#000000" points="514,-.5 514,-19.5 718,-19.5 718,-.5 514,-.5"/>
<text text-anchor="middle" x="616" y="-7.5" font-family="Helvetica,sans-Serif" font-size="10.00" fill="#000000">config::Config::show_help</text>
</a>
</g>
</g>
<!-- Node1&#45;&gt;Node6 -->
<g id="edge6" class="edge">
<title>Node1&#45;&gt;Node6</title>
<path fill="none" stroke="#191970" d="M463.8995,-32.9814C490.3274,-28.9883 518.3811,-24.7496 543.1031,-21.0142"/>
<polygon fill="#191970" stroke="#191970" points="543.754,-24.4557 553.1189,-19.5009 542.7082,-17.5343 543.754,-24.4557"/>
</g>
<!-- Node3 -->
<g id="node4" class="node">
<title>Node3</title>
<g id="a_node4"><a xlink:href="structconfig_1_1_config.html#a6e427255d58b3312e2941468e640db78" target="_top" xlink:title=" ">
<polygon fill="none" stroke="#000000" points="758,-101.5 758,-120.5 970,-120.5 970,-101.5 758,-101.5"/>
<text text-anchor="middle" x="864" y="-108.5" font-family="Helvetica,sans-Serif" font-size="10.00" fill="#000000">config::Config::parse_file</text>
</a>
</g>
</g>
<!-- Node2&#45;&gt;Node3 -->
<g id="edge3" class="edge">
<title>Node2&#45;&gt;Node3</title>
<path fill="none" stroke="#191970" d="M703.0868,-98.672C717.4885,-99.7753 732.6211,-100.9347 747.605,-102.0826"/>
<polygon fill="#191970" stroke="#191970" points="747.7058,-105.6005 757.944,-102.8747 748.2406,-98.621 747.7058,-105.6005"/>
</g>
<!-- Node4 -->
<g id="node5" class="node">
<title>Node4</title>
<g id="a_node5"><a xlink:href="namespaceutils.html#a24a3b9c327f0dfaa73cc7819f77aba2f" target="_top" xlink:title=" ">
<polygon fill="none" stroke="#000000" points="773,-63.5 773,-82.5 955,-82.5 955,-63.5 773,-63.5"/>
<text text-anchor="middle" x="864" y="-70.5" font-family="Helvetica,sans-Serif" font-size="10.00" fill="#000000">utils::get_kiwixz_home</text>
</a>
</g>
</g>
<!-- Node2&#45;&gt;Node4 -->
<g id="edge4" class="edge">
<title>Node2&#45;&gt;Node4</title>
<path fill="none" stroke="#191970" d="M703.0868,-85.328C722.4289,-83.8462 743.0895,-82.2633 762.9378,-80.7427"/>
<polygon fill="#191970" stroke="#191970" points="763.2146,-84.2318 772.918,-79.9781 762.6798,-77.2523 763.2146,-84.2318"/>
</g>
</g>
</svg>
