<?xml version="1.0" encoding="UTF-8" standalone="no"?>
<!DOCTYPE svg PUBLIC "-//W3C//DTD SVG 1.1//EN"
 "http://www.w3.org/Graphics/SVG/1.1/DTD/svg11.dtd">
<!-- Generated by graphviz version 2.40.1 (0)
 -->
<!-- Title: leitse::checked_download Pages: 1 -->
<svg width="1098pt" height="186pt"
 viewBox="0.00 0.00 1098.00 186.00" xmlns="http://www.w3.org/2000/svg" xmlns:xlink="http://www.w3.org/1999/xlink">
<g id="graph0" class="graph" transform="scale(1 1) rotate(0) translate(4 182)">
<title>leitse::checked_download</title>
<!-- Node1 -->
<g id="node1" class="node">
<title>Node1</title>
<g id="a_node1"><a xlink:title=" ">
<polygon fill="#bfbfbf" stroke="#000000" points="893,-79 893,-98 1090,-98 1090,-79 893,-79"/>
<text text-anchor="middle" x="991.5" y="-86" font-family="Helvetica,sans-Serif" font-size="10.00" fill="#000000">leitse::checked_download</text>
</a>
</g>
</g>
<!-- Node2 -->
<g id="node2" class="node">
<title>Node2</title>
<g id="a_node2"><a xlink:href="structleitse_1_1_data_dragon.html#ac8c0f976240b26536f7cd68b66780d8e" target="_top" xlink:title=" ">
<polygon fill="none" stroke="#000000" points="701.5,-147.5 701.5,-177.5 853.5,-177.5 853.5,-147.5 701.5,-147.5"/>
<text text-anchor="start" x="709.5" y="-165.5" font-family="Helvetica,sans-Serif" font-size="10.00" fill="#000000">leitse::DataDragon</text>
<text text-anchor="middle" x="777.5" y="-154.5" font-family="Helvetica,sans-Serif" font-size="10.00" fill="#000000">::update_version</text>
</a>
</g>
</g>
<!-- Node1&#45;&gt;Node2 -->
<g id="edge1" class="edge">
<title>Node1&#45;&gt;Node2</title>
<path fill="none" stroke="#191970" d="M957.471,-101.8237C930.4052,-112.2574 891.4874,-126.8968 857,-138.5 847.9813,-141.5343 838.3288,-144.5993 828.9686,-147.4774"/>
<polygon fill="#191970" stroke="#191970" points="958.8137,-105.0571 966.8762,-98.1834 956.287,-98.529 958.8137,-105.0571"/>
</g>
<!-- Node6 -->
<g id="node6" class="node">
<title>Node6</title>
<g id="a_node6"><a xlink:href="structleitse_1_1_data_dragon.html#ab42170e26e20cd3d715f3f3220019e7c" target="_top" xlink:title=" ">
<polygon fill="none" stroke="#000000" points="701.5,-98.5 701.5,-128.5 853.5,-128.5 853.5,-98.5 701.5,-98.5"/>
<text text-anchor="start" x="709.5" y="-116.5" font-family="Helvetica,sans-Serif" font-size="10.00" fill="#000000">leitse::DataDragon</text>
<text text-anchor="middle" x="777.5" y="-105.5" font-family="Helvetica,sans-Serif" font-size="10.00" fill="#000000">::fetch_data</text>
</a>
</g>
</g>
<!-- Node1&#45;&gt;Node6 -->
<g id="edge5" class="edge">
<title>Node1&#45;&gt;Node6</title>
<path fill="none" stroke="#191970" d="M899.8976,-99.2012C884.4294,-101.0082 868.5228,-102.8665 853.5074,-104.6206"/>
<polygon fill="#191970" stroke="#191970" points="900.459,-102.6595 909.9853,-98.0227 899.6467,-95.7068 900.459,-102.6595"/>
</g>
<!-- Node7 -->
<g id="node7" class="node">
<title>Node7</title>
<g id="a_node7"><a xlink:href="structleitse_1_1aggregators_1_1_ugg.html#a1beb65b1bda9aad50f03954eb0a45578" target="_top" xlink:title=" ">
<polygon fill="none" stroke="#000000" points="698,-49.5 698,-79.5 857,-79.5 857,-49.5 698,-49.5"/>
<text text-anchor="start" x="706" y="-67.5" font-family="Helvetica,sans-Serif" font-size="10.00" fill="#000000">leitse::aggregators</text>
<text text-anchor="middle" x="777.5" y="-56.5" font-family="Helvetica,sans-Serif" font-size="10.00" fill="#000000">::Ugg::Ugg</text>
</a>
</g>
</g>
<!-- Node1&#45;&gt;Node7 -->
<g id="edge7" class="edge">
<title>Node1&#45;&gt;Node7</title>
<path fill="none" stroke="#191970" d="M896.5832,-77.8551C883.3848,-76.3749 869.9379,-74.8669 857.0598,-73.4226"/>
<polygon fill="#191970" stroke="#191970" points="896.2864,-81.3437 906.6142,-78.9801 897.0666,-74.3873 896.2864,-81.3437"/>
</g>
<!-- Node8 -->
<g id="node8" class="node">
<title>Node8</title>
<g id="a_node8"><a xlink:href="structleitse_1_1aggregators_1_1_ugg.html#a84eae29d7c3a982f943f61ea955f5e81" target="_top" xlink:title=" ">
<polygon fill="none" stroke="#000000" points="698,-.5 698,-30.5 857,-30.5 857,-.5 698,-.5"/>
<text text-anchor="start" x="706" y="-18.5" font-family="Helvetica,sans-Serif" font-size="10.00" fill="#000000">leitse::aggregators</text>
<text text-anchor="middle" x="777.5" y="-7.5" font-family="Helvetica,sans-Serif" font-size="10.00" fill="#000000">::Ugg::itemsets</text>
</a>
</g>
</g>
<!-- Node1&#45;&gt;Node8 -->
<g id="edge8" class="edge">
<title>Node1&#45;&gt;Node8</title>
<path fill="none" stroke="#191970" d="M956.1371,-75.4642C929.0859,-65.5936 890.809,-51.8441 857,-40.5 847.1239,-37.1862 836.5145,-33.7589 826.3655,-30.544"/>
<polygon fill="#191970" stroke="#191970" points="954.9725,-78.765 965.5663,-78.9137 957.3775,-72.1911 954.9725,-78.765"/>
</g>
<!-- Node3 -->
<g id="node3" class="node">
<title>Node3</title>
<g id="a_node3"><a xlink:href="structleitse_1_1_data_dragon.html#aedd2ef4d722fb451e9e68502a47dc392" target="_top" xlink:title=" ">
<polygon fill="none" stroke="#000000" points="510,-122.5 510,-152.5 662,-152.5 662,-122.5 510,-122.5"/>
<text text-anchor="start" x="518" y="-140.5" font-family="Helvetica,sans-Serif" font-size="10.00" fill="#000000">leitse::DataDragon</text>
<text text-anchor="middle" x="586" y="-129.5" font-family="Helvetica,sans-Serif" font-size="10.00" fill="#000000">::populate</text>
</a>
</g>
</g>
<!-- Node2&#45;&gt;Node3 -->
<g id="edge2" class="edge">
<title>Node2&#45;&gt;Node3</title>
<path fill="none" stroke="#191970" d="M691.2606,-151.2416C681.6002,-149.9804 671.8093,-148.7023 662.2867,-147.4591"/>
<polygon fill="#191970" stroke="#191970" points="690.8949,-154.7235 701.2639,-152.5475 691.8011,-147.7824 690.8949,-154.7235"/>
</g>
<!-- Node4 -->
<g id="node4" class="node">
<title>Node4</title>
<g id="a_node4"><a xlink:href="namespaceleitse_1_1anonymous__namespace_02main_8cpp_03.html#a22efba3a32984564056202cc7db3f0de" target="_top" xlink:title=" ">
<polygon fill="none" stroke="#000000" points="255,-122.5 255,-152.5 474,-152.5 474,-122.5 255,-122.5"/>
<text text-anchor="start" x="263" y="-140.5" font-family="Helvetica,sans-Serif" font-size="10.00" fill="#000000">leitse::anonymous_namespace</text>
<text text-anchor="middle" x="364.5" y="-129.5" font-family="Helvetica,sans-Serif" font-size="10.00" fill="#000000">{main::cpp}::main_impl</text>
</a>
</g>
</g>
<!-- Node3&#45;&gt;Node4 -->
<g id="edge3" class="edge">
<title>Node3&#45;&gt;Node4</title>
<path fill="none" stroke="#191970" d="M499.6635,-137.5C491.2851,-137.5 482.7106,-137.5 474.1448,-137.5"/>
<polygon fill="#191970" stroke="#191970" points="499.7723,-141.0001 509.7723,-137.5 499.7722,-134.0001 499.7723,-141.0001"/>
</g>
<!-- Node5 -->
<g id="node5" class="node">
<title>Node5</title>
<g id="a_node5"><a xlink:href="namespaceleitse_1_1anonymous__namespace_02main_8cpp_03.html#a79fa099cfa983c75df11f0a42e7586e4" target="_top" xlink:title=" ">
<polygon fill="none" stroke="#000000" points="0,-122.5 0,-152.5 219,-152.5 219,-122.5 0,-122.5"/>
<text text-anchor="start" x="8" y="-140.5" font-family="Helvetica,sans-Serif" font-size="10.00" fill="#000000">leitse::anonymous_namespace</text>
<text text-anchor="middle" x="109.5" y="-129.5" font-family="Helvetica,sans-Serif" font-size="10.00" fill="#000000">{main::cpp}::main</text>
</a>
</g>
</g>
<!-- Node4&#45;&gt;Node5 -->
<g id="edge4" class="edge">
<title>Node4&#45;&gt;Node5</title>
<path fill="none" stroke="#191970" d="M244.8136,-137.5C236.2143,-137.5 227.5675,-137.5 219.0303,-137.5"/>
<polygon fill="#191970" stroke="#191970" points="244.8772,-141.0001 254.8772,-137.5 244.8771,-134.0001 244.8772,-141.0001"/>
</g>
<!-- Node6&#45;&gt;Node3 -->
<g id="edge6" class="edge">
<title>Node6&#45;&gt;Node3</title>
<path fill="none" stroke="#191970" d="M691.2606,-124.3081C681.6002,-125.5188 671.8093,-126.7458 662.2867,-127.9393"/>
<polygon fill="#191970" stroke="#191970" points="691.7768,-127.7709 701.2639,-123.0544 690.9062,-120.8252 691.7768,-127.7709"/>
</g>
</g>
</svg>
