<?xml version="1.0" encoding="UTF-8" standalone="no"?>
<!DOCTYPE svg PUBLIC "-//W3C//DTD SVG 1.1//EN"
 "http://www.w3.org/Graphics/SVG/1.1/DTD/svg11.dtd">
<!-- Generated by graphviz version 2.40.1 (0)
 -->
<!-- Title: leitse::anonymous_namespace{main::cpp}::main_impl Pages: 1 -->
<svg width="1361pt" height="292pt"
 viewBox="0.00 0.00 1361.00 291.50" xmlns="http://www.w3.org/2000/svg" xmlns:xlink="http://www.w3.org/1999/xlink">
<g id="graph0" class="graph" transform="scale(1 1) rotate(0) translate(4 287.5)">
<title>leitse::anonymous_namespace{main::cpp}::main_impl</title>
<!-- Node21 -->
<g id="node1" class="node">
<title>Node21</title>
<g id="a_node1"><a xlink:title=" ">
<polygon fill="#bfbfbf" stroke="#000000" points="0,-132.5 0,-162.5 219,-162.5 219,-132.5 0,-132.5"/>
<text text-anchor="start" x="8" y="-150.5" font-family="Helvetica,sans-Serif" font-size="10.00" fill="#000000">leitse::anonymous_namespace</text>
<text text-anchor="middle" x="109.5" y="-139.5" font-family="Helvetica,sans-Serif" font-size="10.00" fill="#000000">{main::cpp}::main_impl</text>
</a>
</g>
</g>
<!-- Node22 -->
<g id="node2" class="node">
<title>Node22</title>
<g id="a_node2"><a xlink:href="structconfig_1_1_config.html#a8d05ea9c3f473081105aadb66124f42e" target="_top" xlink:title=" ">
<polygon fill="none" stroke="#000000" points="281.5,-264 281.5,-283 440.5,-283 440.5,-264 281.5,-264"/>
<text text-anchor="middle" x="361" y="-271" font-family="Helvetica,sans-Serif" font-size="10.00" fill="#000000">config::Config::set</text>
</a>
</g>
</g>
<!-- Node21&#45;&gt;Node22 -->
<g id="edge1" class="edge">
<title>Node21&#45;&gt;Node22</title>
<path fill="none" stroke="#191970" d="M124.9742,-162.727C150.0161,-186.4149 201.9896,-231.729 255,-254.5 261.1171,-257.1276 267.5833,-259.3919 274.1833,-261.343"/>
<polygon fill="#191970" stroke="#191970" points="273.3561,-264.745 283.9235,-263.9834 275.1876,-257.9889 273.3561,-264.745"/>
</g>
<!-- Node23 -->
<g id="node3" class="node">
<title>Node23</title>
<g id="a_node3"><a xlink:href="structconfig_1_1_config.html#aa74a49a1a5b3dec46be873d829f17f30" target="_top" xlink:title=" ">
<polygon fill="none" stroke="#000000" points="274,-214.5 274,-244.5 448,-244.5 448,-214.5 274,-214.5"/>
<text text-anchor="start" x="282" y="-232.5" font-family="Helvetica,sans-Serif" font-size="10.00" fill="#000000">config::Config::parse</text>
<text text-anchor="middle" x="361" y="-221.5" font-family="Helvetica,sans-Serif" font-size="10.00" fill="#000000">_global_config</text>
</a>
</g>
</g>
<!-- Node21&#45;&gt;Node23 -->
<g id="edge2" class="edge">
<title>Node21&#45;&gt;Node23</title>
<path fill="none" stroke="#191970" d="M143.9905,-162.6135C173.1651,-175.0077 216.2828,-192.4174 255,-204.5 263.3929,-207.1192 272.2341,-209.6117 281.0838,-211.9372"/>
<polygon fill="#191970" stroke="#191970" points="280.5,-215.4005 291.0556,-214.4895 282.2358,-208.6191 280.5,-215.4005"/>
</g>
<!-- Node28 -->
<g id="node8" class="node">
<title>Node28</title>
<g id="a_node8"><a xlink:href="structconfig_1_1_config.html#af7d0bbe0e41a086d991fc545cc886212" target="_top" xlink:title=" ">
<polygon fill="none" stroke="#000000" points="255,-176 255,-195 467,-195 467,-176 255,-176"/>
<text text-anchor="middle" x="361" y="-183" font-family="Helvetica,sans-Serif" font-size="10.00" fill="#000000">config::Config::parse_args</text>
</a>
</g>
</g>
<!-- Node21&#45;&gt;Node28 -->
<g id="edge7" class="edge">
<title>Node21&#45;&gt;Node28</title>
<path fill="none" stroke="#191970" d="M208.8995,-162.5186C235.3274,-166.5117 263.3811,-170.7504 288.1031,-174.4858"/>
<polygon fill="#191970" stroke="#191970" points="287.7082,-177.9657 298.1189,-175.9991 288.754,-171.0443 287.7082,-177.9657"/>
</g>
<!-- Node29 -->
<g id="node9" class="node">
<title>Node29</title>
<g id="a_node9"><a xlink:href="structconfig_1_1_config.html#a3087984b7a3fc8346dcf392ee82dded6" target="_top" xlink:title=" ">
<polygon fill="none" stroke="#000000" points="259,-138 259,-157 463,-157 463,-138 259,-138"/>
<text text-anchor="middle" x="361" y="-145" font-family="Helvetica,sans-Serif" font-size="10.00" fill="#000000">config::Config::show_help</text>
</a>
</g>
</g>
<!-- Node21&#45;&gt;Node29 -->
<g id="edge10" class="edge">
<title>Node21&#45;&gt;Node29</title>
<path fill="none" stroke="#191970" d="M219.0799,-147.5C228.9044,-147.5 238.8627,-147.5 248.7096,-147.5"/>
<polygon fill="#191970" stroke="#191970" points="248.9206,-151.0001 258.9206,-147.5 248.9206,-144.0001 248.9206,-151.0001"/>
</g>
<!-- Node31 -->
<g id="node11" class="node">
<title>Node31</title>
<g id="a_node11"><a xlink:href="structleitse_1_1_data_dragon.html#aedd2ef4d722fb451e9e68502a47dc392" target="_top" xlink:title=" ">
<polygon fill="none" stroke="#000000" points="285,-88.5 285,-118.5 437,-118.5 437,-88.5 285,-88.5"/>
<text text-anchor="start" x="293" y="-106.5" font-family="Helvetica,sans-Serif" font-size="10.00" fill="#000000">leitse::DataDragon</text>
<text text-anchor="middle" x="361" y="-95.5" font-family="Helvetica,sans-Serif" font-size="10.00" fill="#000000">::populate</text>
</a>
</g>
</g>
<!-- Node21&#45;&gt;Node31 -->
<g id="edge12" class="edge">
<title>Node21&#45;&gt;Node31</title>
<path fill="none" stroke="#191970" d="M195.3486,-132.4808C220.976,-127.9972 249.0699,-123.0822 274.7245,-118.5939"/>
<polygon fill="#191970" stroke="#191970" points="275.5533,-122.0022 284.8005,-116.8311 274.3469,-115.1069 275.5533,-122.0022"/>
</g>
<!-- Node37 -->
<g id="node17" class="node">
<title>Node37</title>
<g id="a_node17"><a xlink:href="structconfig_1_1_config.html#a0cf9f3b97d218358b2bd62f3b94a3efb" target="_top" xlink:title=" ">
<polygon fill="none" stroke="#000000" points="281.5,-50 281.5,-69 440.5,-69 440.5,-50 281.5,-50"/>
<text text-anchor="middle" x="361" y="-57" font-family="Helvetica,sans-Serif" font-size="10.00" fill="#000000">config::Config::get</text>
</a>
</g>
</g>
<!-- Node21&#45;&gt;Node37 -->
<g id="edge19" class="edge">
<title>Node21&#45;&gt;Node37</title>
<path fill="none" stroke="#191970" d="M136.2917,-132.4764C164.8729,-117.0537 211.8754,-93.4015 255,-79.5 265.0986,-76.2447 275.9191,-73.4506 286.6474,-71.0732"/>
<polygon fill="#191970" stroke="#191970" points="287.3881,-74.494 296.4506,-69.0056 285.9435,-67.6447 287.3881,-74.494"/>
</g>
<!-- Node39 -->
<g id="node19" class="node">
<title>Node39</title>
<g id="a_node19"><a xlink:href="structleitse_1_1_data_dragon.html#a59f6a2098dde51fbd7253fe043491c4b" target="_top" xlink:title=" ">
<polygon fill="none" stroke="#000000" points="285,-.5 285,-30.5 437,-30.5 437,-.5 285,-.5"/>
<text text-anchor="start" x="293" y="-18.5" font-family="Helvetica,sans-Serif" font-size="10.00" fill="#000000">leitse::DataDragon</text>
<text text-anchor="middle" x="361" y="-7.5" font-family="Helvetica,sans-Serif" font-size="10.00" fill="#000000">::champions</text>
</a>
</g>
</g>
<!-- Node21&#45;&gt;Node39 -->
<g id="edge21" class="edge">
<title>Node21&#45;&gt;Node39</title>
<path fill="none" stroke="#191970" d="M125.5395,-132.2317C150.9425,-108.904 202.9114,-64.569 255,-40.5 261.4311,-37.5283 268.2504,-34.891 275.2064,-32.5538"/>
<polygon fill="#191970" stroke="#191970" points="276.265,-35.89 284.7531,-29.5495 274.1637,-29.2128 276.265,-35.89"/>
</g>
<!-- Node24 -->
<g id="node4" class="node">
<title>Node24</title>
<g id="a_node4"><a xlink:href="structconfig_1_1_config.html#a3210465814e32a5c7eba32e449999418" target="_top" xlink:title=" ">
<polygon fill="none" stroke="#000000" points="503,-217 503,-236 715,-236 715,-217 503,-217"/>
<text text-anchor="middle" x="609" y="-224" font-family="Helvetica,sans-Serif" font-size="10.00" fill="#000000">config::Config::parse_file</text>
</a>
</g>
</g>
<!-- Node23&#45;&gt;Node24 -->
<g id="edge3" class="edge">
<title>Node23&#45;&gt;Node24</title>
<path fill="none" stroke="#191970" d="M448.0868,-228.4465C462.4885,-228.2723 477.6211,-228.0893 492.605,-227.908"/>
<polygon fill="#191970" stroke="#191970" points="492.9871,-231.4037 502.944,-227.7829 492.9023,-224.4042 492.9871,-231.4037"/>
</g>
<!-- Node27 -->
<g id="node7" class="node">
<title>Node27</title>
<g id="a_node7"><a xlink:href="namespaceutils.html#a5064b3980eb7aa98e3daf3bb12b3c3d8" target="_top" xlink:title=" ">
<polygon fill="none" stroke="#000000" points="518,-255 518,-274 700,-274 700,-255 518,-255"/>
<text text-anchor="middle" x="609" y="-262" font-family="Helvetica,sans-Serif" font-size="10.00" fill="#000000">utils::get_kiwixz_home</text>
</a>
</g>
</g>
<!-- Node23&#45;&gt;Node27 -->
<g id="edge6" class="edge">
<title>Node23&#45;&gt;Node27</title>
<path fill="none" stroke="#191970" d="M448.0868,-241.7905C475.3134,-245.6329 505.1525,-249.8441 531.6608,-253.5852"/>
<polygon fill="#191970" stroke="#191970" points="531.2539,-257.0624 541.6449,-254.9942 532.2321,-250.1311 531.2539,-257.0624"/>
</g>
<!-- Node25 -->
<g id="node5" class="node">
<title>Node25</title>
<g id="a_node5"><a xlink:href="structconfig_1_1_config.html#afc03121b3fae6e2b06d68bfed7249ca0" target="_top" xlink:title=" ">
<polygon fill="none" stroke="#000000" points="758.5,-214.5 758.5,-244.5 932.5,-244.5 932.5,-214.5 758.5,-214.5"/>
<text text-anchor="start" x="766.5" y="-232.5" font-family="Helvetica,sans-Serif" font-size="10.00" fill="#000000">config::Config::parse</text>
<text text-anchor="middle" x="845.5" y="-221.5" font-family="Helvetica,sans-Serif" font-size="10.00" fill="#000000">_file_content</text>
</a>
</g>
</g>
<!-- Node24&#45;&gt;Node25 -->
<g id="edge4" class="edge">
<title>Node24&#45;&gt;Node25</title>
<path fill="none" stroke="#191970" d="M715.1436,-227.8464C726.2375,-227.9872 737.475,-228.1297 748.46,-228.269"/>
<polygon fill="#191970" stroke="#191970" points="748.4223,-231.7688 758.466,-228.396 748.5112,-224.7693 748.4223,-231.7688"/>
</g>
<!-- Node26 -->
<g id="node6" class="node">
<title>Node26</title>
<g id="a_node6"><a xlink:href="structconfig_1_1_config.html#ae876f154975287de4c120c68061bec1d" target="_top" xlink:title=" ">
<polygon fill="none" stroke="#000000" points="991,-192.5 991,-222.5 1150,-222.5 1150,-192.5 991,-192.5"/>
<text text-anchor="start" x="999" y="-210.5" font-family="Helvetica,sans-Serif" font-size="10.00" fill="#000000">config::Config::set</text>
<text text-anchor="middle" x="1070.5" y="-199.5" font-family="Helvetica,sans-Serif" font-size="10.00" fill="#000000">_parsed_option</text>
</a>
</g>
</g>
<!-- Node25&#45;&gt;Node26 -->
<g id="edge5" class="edge">
<title>Node25&#45;&gt;Node26</title>
<path fill="none" stroke="#191970" d="M932.8129,-220.9627C948.5192,-219.427 964.9159,-217.8238 980.6915,-216.2813"/>
<polygon fill="#191970" stroke="#191970" points="981.3432,-219.7343 990.9551,-215.2777 980.662,-212.7676 981.3432,-219.7343"/>
</g>
<!-- Node28&#45;&gt;Node24 -->
<g id="edge9" class="edge">
<title>Node28&#45;&gt;Node24</title>
<path fill="none" stroke="#191970" d="M418.5195,-195.0093C455.1666,-201.0679 502.8127,-208.9448 541.284,-215.305"/>
<polygon fill="#191970" stroke="#191970" points="540.9264,-218.7933 551.3634,-216.9714 542.0682,-211.8871 540.9264,-218.7933"/>
</g>
<!-- Node28&#45;&gt;Node26 -->
<g id="edge8" class="edge">
<title>Node28&#45;&gt;Node26</title>
<path fill="none" stroke="#191970" d="M467.2193,-188.7936C606.9032,-193.1249 849.8987,-200.6596 980.8133,-204.719"/>
<polygon fill="#191970" stroke="#191970" points="980.7094,-208.2174 990.8131,-205.0291 980.9264,-201.2207 980.7094,-208.2174"/>
</g>
<!-- Node30 -->
<g id="node10" class="node">
<title>Node30</title>
<g id="a_node10"><a xlink:href="structconfig_1_1_config.html#a49316e1a8542b40b71070ee569d7b424" target="_top" xlink:title=" ">
<polygon fill="none" stroke="#000000" points="525.5,-138 525.5,-157 692.5,-157 692.5,-138 525.5,-138"/>
<text text-anchor="middle" x="609" y="-145" font-family="Helvetica,sans-Serif" font-size="10.00" fill="#000000">config::Config::dump</text>
</a>
</g>
</g>
<!-- Node29&#45;&gt;Node30 -->
<g id="edge11" class="edge">
<title>Node29&#45;&gt;Node30</title>
<path fill="none" stroke="#191970" d="M463.3029,-147.5C480.4295,-147.5 498.126,-147.5 515.0302,-147.5"/>
<polygon fill="#191970" stroke="#191970" points="515.441,-151.0001 525.4409,-147.5 515.4409,-144.0001 515.441,-151.0001"/>
</g>
<!-- Node32 -->
<g id="node12" class="node">
<title>Node32</title>
<g id="a_node12"><a xlink:href="structleitse_1_1_data_dragon.html#ac8c0f976240b26536f7cd68b66780d8e" target="_top" xlink:title=" ">
<polygon fill="none" stroke="#000000" points="533,-88.5 533,-118.5 685,-118.5 685,-88.5 533,-88.5"/>
<text text-anchor="start" x="541" y="-106.5" font-family="Helvetica,sans-Serif" font-size="10.00" fill="#000000">leitse::DataDragon</text>
<text text-anchor="middle" x="609" y="-95.5" font-family="Helvetica,sans-Serif" font-size="10.00" fill="#000000">::update_version</text>
</a>
</g>
</g>
<!-- Node31&#45;&gt;Node32 -->
<g id="edge13" class="edge">
<title>Node31&#45;&gt;Node32</title>
<path fill="none" stroke="#191970" d="M437.0936,-103.5C464.1043,-103.5 494.6987,-103.5 522.5132,-103.5"/>
<polygon fill="#191970" stroke="#191970" points="522.6231,-107.0001 532.6231,-103.5 522.623,-100.0001 522.6231,-107.0001"/>
</g>
<!-- Node36 -->
<g id="node16" class="node">
<title>Node36</title>
<g id="a_node16"><a xlink:href="structleitse_1_1_data_dragon.html#ab42170e26e20cd3d715f3f3220019e7c" target="_top" xlink:title=" ">
<polygon fill="none" stroke="#000000" points="533,-39.5 533,-69.5 685,-69.5 685,-39.5 533,-39.5"/>
<text text-anchor="start" x="541" y="-57.5" font-family="Helvetica,sans-Serif" font-size="10.00" fill="#000000">leitse::DataDragon</text>
<text text-anchor="middle" x="609" y="-46.5" font-family="Helvetica,sans-Serif" font-size="10.00" fill="#000000">::fetch_data</text>
</a>
</g>
</g>
<!-- Node31&#45;&gt;Node36 -->
<g id="edge17" class="edge">
<title>Node31&#45;&gt;Node36</title>
<path fill="none" stroke="#191970" d="M437.0936,-88.4654C464.2311,-83.1035 494.9861,-77.0269 522.9048,-71.5108"/>
<polygon fill="#191970" stroke="#191970" points="523.9184,-74.8782 533.0503,-69.5062 522.5615,-68.011 523.9184,-74.8782"/>
</g>
<!-- Node33 -->
<g id="node13" class="node">
<title>Node33</title>
<g id="a_node13"><a xlink:href="namespaceleitse.html#afdb4f941cec2c253f7894dff4633a21c" target="_top" xlink:title=" ">
<polygon fill="none" stroke="#000000" points="751,-70 751,-89 940,-89 940,-70 751,-70"/>
<text text-anchor="middle" x="845.5" y="-77" font-family="Helvetica,sans-Serif" font-size="10.00" fill="#000000">leitse::simple_download</text>
</a>
</g>
</g>
<!-- Node32&#45;&gt;Node33 -->
<g id="edge14" class="edge">
<title>Node32&#45;&gt;Node33</title>
<path fill="none" stroke="#191970" d="M685.1319,-95.7741C703.1022,-93.9505 722.5654,-91.9754 741.5312,-90.0507"/>
<polygon fill="#191970" stroke="#191970" points="742.1017,-93.5109 751.6972,-89.0191 741.3949,-86.5467 742.1017,-93.5109"/>
</g>
<!-- Node34 -->
<g id="node14" class="node">
<title>Node34</title>
<g id="a_node14"><a xlink:href="structleitse_1_1_simple_curl.html#a1e9c094357cc1615d6784210a5dee4be" target="_top" xlink:title=" ">
<polygon fill="none" stroke="#000000" points="976,-70 976,-89 1165,-89 1165,-70 976,-70"/>
<text text-anchor="middle" x="1070.5" y="-77" font-family="Helvetica,sans-Serif" font-size="10.00" fill="#000000">leitse::SimpleCurl::get</text>
</a>
</g>
</g>
<!-- Node33&#45;&gt;Node34 -->
<g id="edge15" class="edge">
<title>Node33&#45;&gt;Node34</title>
<path fill="none" stroke="#191970" d="M940.2681,-79.5C948.6357,-79.5 957.1375,-79.5 965.5821,-79.5"/>
<polygon fill="#191970" stroke="#191970" points="965.8414,-83.0001 975.8413,-79.5 965.8413,-76.0001 965.8414,-83.0001"/>
</g>
<!-- Node35 -->
<g id="node15" class="node">
<title>Node35</title>
<g id="a_node15"><a xlink:href="structleitse_1_1_simple_curl.html#ac10340c2d18695d7bfda42ea15791239" target="_top" xlink:title=" ">
<polygon fill="none" stroke="#000000" points="1201,-64.5 1201,-94.5 1353,-94.5 1353,-64.5 1201,-64.5"/>
<text text-anchor="start" x="1209" y="-82.5" font-family="Helvetica,sans-Serif" font-size="10.00" fill="#000000">leitse::SimpleCurl</text>
<text text-anchor="middle" x="1277" y="-71.5" font-family="Helvetica,sans-Serif" font-size="10.00" fill="#000000">::check_curl</text>
</a>
</g>
</g>
<!-- Node34&#45;&gt;Node35 -->
<g id="edge16" class="edge">
<title>Node34&#45;&gt;Node35</title>
<path fill="none" stroke="#191970" d="M1165.2887,-79.5C1173.7311,-79.5 1182.2493,-79.5 1190.6158,-79.5"/>
<polygon fill="#191970" stroke="#191970" points="1190.7304,-83.0001 1200.7304,-79.5 1190.7303,-76.0001 1190.7304,-83.0001"/>
</g>
<!-- Node36&#45;&gt;Node33 -->
<g id="edge18" class="edge">
<title>Node36&#45;&gt;Node33</title>
<path fill="none" stroke="#191970" d="M685.1319,-62.5478C704.3075,-64.5748 725.1829,-66.7815 745.34,-68.9123"/>
<polygon fill="#191970" stroke="#191970" points="745.1708,-72.4138 755.4834,-69.9845 745.9068,-65.4526 745.1708,-72.4138"/>
</g>
<!-- Node38 -->
<g id="node18" class="node">
<title>Node38</title>
<g id="a_node18"><a xlink:href="structconfig_1_1_config.html#ab957d0cdfdedba7a80d5459bb72d6f08" target="_top" xlink:title=" ">
<polygon fill="none" stroke="#000000" points="514.5,-1 514.5,-20 703.5,-20 703.5,-1 514.5,-1"/>
<text text-anchor="middle" x="609" y="-8" font-family="Helvetica,sans-Serif" font-size="10.00" fill="#000000">config::Config::get_raw</text>
</a>
</g>
</g>
<!-- Node37&#45;&gt;Node38 -->
<g id="edge20" class="edge">
<title>Node37&#45;&gt;Node38</title>
<path fill="none" stroke="#191970" d="M416.2011,-49.9981C432.6096,-46.9279 450.5842,-43.3214 467,-39.5 483.1734,-35.735 486.8096,-33.1912 503,-29.5 515.0101,-26.7619 527.8594,-24.1746 540.3205,-21.842"/>
<polygon fill="#191970" stroke="#191970" points="541.0033,-25.2752 550.2074,-20.0278 539.7399,-18.3902 541.0033,-25.2752"/>
</g>
</g>
</svg>
