<?xml version="1.0" encoding="UTF-8" standalone="no"?>
<!DOCTYPE svg PUBLIC "-//W3C//DTD SVG 1.1//EN"
 "http://www.w3.org/Graphics/SVG/1.1/DTD/svg11.dtd">
<!-- Generated by graphviz version 2.40.1 (0)
 -->
<!-- Title: leitse::anonymous_namespace{main::cpp}::main_impl Pages: 1 -->
<svg width="723pt" height="116pt"
 viewBox="0.00 0.00 723.00 116.00" xmlns="http://www.w3.org/2000/svg" xmlns:xlink="http://www.w3.org/1999/xlink">
<g id="graph0" class="graph" transform="scale(1 1) rotate(0) translate(4 112)">
<title>leitse::anonymous_namespace{main::cpp}::main_impl</title>
<!-- Node8 -->
<g id="node1" class="node">
<title>Node8</title>
<g id="a_node1"><a xlink:title=" ">
<polygon fill="#bfbfbf" stroke="#000000" points="0,-39 0,-69 219,-69 219,-39 0,-39"/>
<text text-anchor="start" x="8" y="-57" font-family="Helvetica,sans-Serif" font-size="10.00" fill="#000000">leitse::anonymous_namespace</text>
<text text-anchor="middle" x="109.5" y="-46" font-family="Helvetica,sans-Serif" font-size="10.00" fill="#000000">{main::cpp}::main_impl</text>
</a>
</g>
</g>
<!-- Node9 -->
<g id="node2" class="node">
<title>Node9</title>
<g id="a_node2"><a xlink:href="structconfig_1_1_config.html#a6482bac83f43652db0483965eb44093d" target="_top" xlink:title=" ">
<polygon fill="none" stroke="#000000" points="274,-39 274,-69 448,-69 448,-39 274,-39"/>
<text text-anchor="start" x="282" y="-57" font-family="Helvetica,sans-Serif" font-size="10.00" fill="#000000">config::Config::parse</text>
<text text-anchor="middle" x="361" y="-46" font-family="Helvetica,sans-Serif" font-size="10.00" fill="#000000">_global_config</text>
</a>
</g>
</g>
<!-- Node8&#45;&gt;Node9 -->
<g id="edge1" class="edge">
<title>Node8&#45;&gt;Node9</title>
<path fill="none" stroke="#191970" d="M219.0799,-54C233.9221,-54 249.0698,-54 263.6774,-54"/>
<polygon fill="#191970" stroke="#191970" points="263.6938,-57.5001 273.6937,-54 263.6937,-50.5001 263.6938,-57.5001"/>
</g>
<!-- Node12 -->
<g id="node5" class="node">
<title>Node12</title>
<g id="a_node5"><a xlink:href="structconfig_1_1_config.html#af7d0bbe0e41a086d991fc545cc886212" target="_top" xlink:title=" ">
<polygon fill="none" stroke="#000000" points="255,-88.5 255,-107.5 467,-107.5 467,-88.5 255,-88.5"/>
<text text-anchor="middle" x="361" y="-95.5" font-family="Helvetica,sans-Serif" font-size="10.00" fill="#000000">config::Config::parse_args</text>
</a>
</g>
</g>
<!-- Node8&#45;&gt;Node12 -->
<g id="edge4" class="edge">
<title>Node8&#45;&gt;Node12</title>
<path fill="none" stroke="#191970" d="M195.3486,-69.0192C228.4612,-74.8123 265.6916,-81.3258 296.4574,-86.7083"/>
<polygon fill="#191970" stroke="#191970" points="296.1743,-90.2118 306.6279,-88.4876 297.3807,-83.3165 296.1743,-90.2118"/>
</g>
<!-- Node13 -->
<g id="node6" class="node">
<title>Node13</title>
<g id="a_node6"><a xlink:href="structconfig_1_1_config.html#ad127432ebbbbe462f3ca324f673a6d0d" target="_top" xlink:title=" ">
<polygon fill="none" stroke="#000000" points="259,-.5 259,-19.5 463,-19.5 463,-.5 259,-.5"/>
<text text-anchor="middle" x="361" y="-7.5" font-family="Helvetica,sans-Serif" font-size="10.00" fill="#000000">config::Config::show_help</text>
</a>
</g>
</g>
<!-- Node8&#45;&gt;Node13 -->
<g id="edge6" class="edge">
<title>Node8&#45;&gt;Node13</title>
<path fill="none" stroke="#191970" d="M195.3486,-38.9808C228.4612,-33.1877 265.6916,-26.6742 296.4574,-21.2917"/>
<polygon fill="#191970" stroke="#191970" points="297.3807,-24.6835 306.6279,-19.5124 296.1743,-17.7882 297.3807,-24.6835"/>
</g>
<!-- Node10 -->
<g id="node3" class="node">
<title>Node10</title>
<g id="a_node3"><a xlink:href="structconfig_1_1_config.html#a8eb0be2dcc2b23168834d10674330c5f" target="_top" xlink:title=" ">
<polygon fill="none" stroke="#000000" points="503,-85.5 503,-104.5 715,-104.5 715,-85.5 503,-85.5"/>
<text text-anchor="middle" x="609" y="-92.5" font-family="Helvetica,sans-Serif" font-size="10.00" fill="#000000">config::Config::parse_file</text>
</a>
</g>
</g>
<!-- Node9&#45;&gt;Node10 -->
<g id="edge2" class="edge">
<title>Node9&#45;&gt;Node10</title>
<path fill="none" stroke="#191970" d="M448.0868,-68.3974C478.6745,-73.4543 512.5595,-79.0562 541.3145,-83.8101"/>
<polygon fill="#191970" stroke="#191970" points="540.8208,-87.2759 551.2578,-85.4539 541.9626,-80.3696 540.8208,-87.2759"/>
</g>
<!-- Node11 -->
<g id="node4" class="node">
<title>Node11</title>
<g id="a_node4"><a xlink:href="namespaceutils.html#a24a3b9c327f0dfaa73cc7819f77aba2f" target="_top" xlink:title=" ">
<polygon fill="none" stroke="#000000" points="518,-44.5 518,-63.5 700,-63.5 700,-44.5 518,-44.5"/>
<text text-anchor="middle" x="609" y="-51.5" font-family="Helvetica,sans-Serif" font-size="10.00" fill="#000000">utils::get_kiwixz_home</text>
</a>
</g>
</g>
<!-- Node9&#45;&gt;Node11 -->
<g id="edge3" class="edge">
<title>Node9&#45;&gt;Node11</title>
<path fill="none" stroke="#191970" d="M448.0868,-54C467.3406,-54 487.9009,-54 507.6658,-54"/>
<polygon fill="#191970" stroke="#191970" points="507.918,-57.5001 517.918,-54 507.9179,-50.5001 507.918,-57.5001"/>
</g>
<!-- Node12&#45;&gt;Node10 -->
<g id="edge5" class="edge">
<title>Node12&#45;&gt;Node10</title>
<path fill="none" stroke="#191970" d="M467.2536,-96.7147C475.7579,-96.6118 484.3759,-96.5075 492.9431,-96.4039"/>
<polygon fill="#191970" stroke="#191970" points="493.0103,-99.9035 502.9672,-96.2827 492.9255,-92.904 493.0103,-99.9035"/>
</g>
</g>
</svg>
