<?xml version="1.0" encoding="UTF-8" standalone="no"?>
<!DOCTYPE svg PUBLIC "-//W3C//DTD SVG 1.1//EN"
 "http://www.w3.org/Graphics/SVG/1.1/DTD/svg11.dtd">
<!-- Generated by graphviz version 2.40.1 (0)
 -->
<!-- Title: leitse::anonymous_namespace{main::cpp}::main_impl Pages: 1 -->
<svg width="1128pt" height="292pt"
 viewBox="0.00 0.00 1128.00 291.50" xmlns="http://www.w3.org/2000/svg" xmlns:xlink="http://www.w3.org/1999/xlink">
<g id="graph0" class="graph" transform="scale(1 1) rotate(0) translate(4 287.5)">
<title>leitse::anonymous_namespace{main::cpp}::main_impl</title>
<!-- Node18 -->
<g id="node1" class="node">
<title>Node18</title>
<g id="a_node1"><a xlink:title=" ">
<polygon fill="#bfbfbf" stroke="#000000" points="0,-132.5 0,-162.5 219,-162.5 219,-132.5 0,-132.5"/>
<text text-anchor="start" x="8" y="-150.5" font-family="Helvetica,sans-Serif" font-size="10.00" fill="#000000">leitse::anonymous_namespace</text>
<text text-anchor="middle" x="109.5" y="-139.5" font-family="Helvetica,sans-Serif" font-size="10.00" fill="#000000">{main::cpp}::main_impl</text>
</a>
</g>
</g>
<!-- Node19 -->
<g id="node2" class="node">
<title>Node19</title>
<g id="a_node2"><a xlink:href="structconfig_1_1_config.html#a8d05ea9c3f473081105aadb66124f42e" target="_top" xlink:title=" ">
<polygon fill="none" stroke="#000000" points="281.5,-264 281.5,-283 440.5,-283 440.5,-264 281.5,-264"/>
<text text-anchor="middle" x="361" y="-271" font-family="Helvetica,sans-Serif" font-size="10.00" fill="#000000">config::Config::set</text>
</a>
</g>
</g>
<!-- Node18&#45;&gt;Node19 -->
<g id="edge1" class="edge">
<title>Node18&#45;&gt;Node19</title>
<path fill="none" stroke="#191970" d="M124.9742,-162.727C150.0161,-186.4149 201.9896,-231.729 255,-254.5 261.1171,-257.1276 267.5833,-259.3919 274.1833,-261.343"/>
<polygon fill="#191970" stroke="#191970" points="273.3561,-264.745 283.9235,-263.9834 275.1876,-257.9889 273.3561,-264.745"/>
</g>
<!-- Node20 -->
<g id="node3" class="node">
<title>Node20</title>
<g id="a_node3"><a xlink:href="structconfig_1_1_config.html#a26453f75e7ce4f024b90669e437c10de" target="_top" xlink:title=" ">
<polygon fill="none" stroke="#000000" points="274,-214.5 274,-244.5 448,-244.5 448,-214.5 274,-214.5"/>
<text text-anchor="start" x="282" y="-232.5" font-family="Helvetica,sans-Serif" font-size="10.00" fill="#000000">config::Config::parse</text>
<text text-anchor="middle" x="361" y="-221.5" font-family="Helvetica,sans-Serif" font-size="10.00" fill="#000000">_global_config</text>
</a>
</g>
</g>
<!-- Node18&#45;&gt;Node20 -->
<g id="edge2" class="edge">
<title>Node18&#45;&gt;Node20</title>
<path fill="none" stroke="#191970" d="M143.9905,-162.6135C173.1651,-175.0077 216.2828,-192.4174 255,-204.5 263.3929,-207.1192 272.2341,-209.6117 281.0838,-211.9372"/>
<polygon fill="#191970" stroke="#191970" points="280.5,-215.4005 291.0556,-214.4895 282.2358,-208.6191 280.5,-215.4005"/>
</g>
<!-- Node25 -->
<g id="node8" class="node">
<title>Node25</title>
<g id="a_node8"><a xlink:href="structconfig_1_1_config.html#af7d0bbe0e41a086d991fc545cc886212" target="_top" xlink:title=" ">
<polygon fill="none" stroke="#000000" points="255,-176 255,-195 467,-195 467,-176 255,-176"/>
<text text-anchor="middle" x="361" y="-183" font-family="Helvetica,sans-Serif" font-size="10.00" fill="#000000">config::Config::parse_args</text>
</a>
</g>
</g>
<!-- Node18&#45;&gt;Node25 -->
<g id="edge7" class="edge">
<title>Node18&#45;&gt;Node25</title>
<path fill="none" stroke="#191970" d="M208.8995,-162.5186C235.3274,-166.5117 263.3811,-170.7504 288.1031,-174.4858"/>
<polygon fill="#191970" stroke="#191970" points="287.7082,-177.9657 298.1189,-175.9991 288.754,-171.0443 287.7082,-177.9657"/>
</g>
<!-- Node26 -->
<g id="node9" class="node">
<title>Node26</title>
<g id="a_node9"><a xlink:href="structconfig_1_1_config.html#abca32af5b3cfdb1f9eabec454e1e354e" target="_top" xlink:title=" ">
<polygon fill="none" stroke="#000000" points="259,-138 259,-157 463,-157 463,-138 259,-138"/>
<text text-anchor="middle" x="361" y="-145" font-family="Helvetica,sans-Serif" font-size="10.00" fill="#000000">config::Config::show_help</text>
</a>
</g>
</g>
<!-- Node18&#45;&gt;Node26 -->
<g id="edge10" class="edge">
<title>Node18&#45;&gt;Node26</title>
<path fill="none" stroke="#191970" d="M219.0799,-147.5C228.9044,-147.5 238.8627,-147.5 248.7096,-147.5"/>
<polygon fill="#191970" stroke="#191970" points="248.9206,-151.0001 258.9206,-147.5 248.9206,-144.0001 248.9206,-151.0001"/>
</g>
<!-- Node28 -->
<g id="node11" class="node">
<title>Node28</title>
<g id="a_node11"><a xlink:href="structleitse_1_1_data_dragon.html#aedd2ef4d722fb451e9e68502a47dc392" target="_top" xlink:title=" ">
<polygon fill="none" stroke="#000000" points="285,-88.5 285,-118.5 437,-118.5 437,-88.5 285,-88.5"/>
<text text-anchor="start" x="293" y="-106.5" font-family="Helvetica,sans-Serif" font-size="10.00" fill="#000000">leitse::DataDragon</text>
<text text-anchor="middle" x="361" y="-95.5" font-family="Helvetica,sans-Serif" font-size="10.00" fill="#000000">::populate</text>
</a>
</g>
</g>
<!-- Node18&#45;&gt;Node28 -->
<g id="edge12" class="edge">
<title>Node18&#45;&gt;Node28</title>
<path fill="none" stroke="#191970" d="M195.3486,-132.4808C220.976,-127.9972 249.0699,-123.0822 274.7245,-118.5939"/>
<polygon fill="#191970" stroke="#191970" points="275.5533,-122.0022 284.8005,-116.8311 274.3469,-115.1069 275.5533,-122.0022"/>
</g>
<!-- Node31 -->
<g id="node14" class="node">
<title>Node31</title>
<g id="a_node14"><a xlink:href="structconfig_1_1_config.html#a0cf9f3b97d218358b2bd62f3b94a3efb" target="_top" xlink:title=" ">
<polygon fill="none" stroke="#000000" points="281.5,-50 281.5,-69 440.5,-69 440.5,-50 281.5,-50"/>
<text text-anchor="middle" x="361" y="-57" font-family="Helvetica,sans-Serif" font-size="10.00" fill="#000000">config::Config::get</text>
</a>
</g>
</g>
<!-- Node18&#45;&gt;Node31 -->
<g id="edge15" class="edge">
<title>Node18&#45;&gt;Node31</title>
<path fill="none" stroke="#191970" d="M136.2917,-132.4764C164.8729,-117.0537 211.8754,-93.4015 255,-79.5 265.0986,-76.2447 275.9191,-73.4506 286.6474,-71.0732"/>
<polygon fill="#191970" stroke="#191970" points="287.3881,-74.494 296.4506,-69.0056 285.9435,-67.6447 287.3881,-74.494"/>
</g>
<!-- Node33 -->
<g id="node16" class="node">
<title>Node33</title>
<g id="a_node16"><a xlink:href="structleitse_1_1_data_dragon.html#a59f6a2098dde51fbd7253fe043491c4b" target="_top" xlink:title=" ">
<polygon fill="none" stroke="#000000" points="285,-.5 285,-30.5 437,-30.5 437,-.5 285,-.5"/>
<text text-anchor="start" x="293" y="-18.5" font-family="Helvetica,sans-Serif" font-size="10.00" fill="#000000">leitse::DataDragon</text>
<text text-anchor="middle" x="361" y="-7.5" font-family="Helvetica,sans-Serif" font-size="10.00" fill="#000000">::champions</text>
</a>
</g>
</g>
<!-- Node18&#45;&gt;Node33 -->
<g id="edge17" class="edge">
<title>Node18&#45;&gt;Node33</title>
<path fill="none" stroke="#191970" d="M125.5395,-132.2317C150.9425,-108.904 202.9114,-64.569 255,-40.5 261.4311,-37.5283 268.2504,-34.891 275.2064,-32.5538"/>
<polygon fill="#191970" stroke="#191970" points="276.265,-35.89 284.7531,-29.5495 274.1637,-29.2128 276.265,-35.89"/>
</g>
<!-- Node21 -->
<g id="node4" class="node">
<title>Node21</title>
<g id="a_node4"><a xlink:href="structconfig_1_1_config.html#a8eb0be2dcc2b23168834d10674330c5f" target="_top" xlink:title=" ">
<polygon fill="none" stroke="#000000" points="503,-217 503,-236 715,-236 715,-217 503,-217"/>
<text text-anchor="middle" x="609" y="-224" font-family="Helvetica,sans-Serif" font-size="10.00" fill="#000000">config::Config::parse_file</text>
</a>
</g>
</g>
<!-- Node20&#45;&gt;Node21 -->
<g id="edge3" class="edge">
<title>Node20&#45;&gt;Node21</title>
<path fill="none" stroke="#191970" d="M448.0868,-228.4465C462.4885,-228.2723 477.6211,-228.0893 492.605,-227.908"/>
<polygon fill="#191970" stroke="#191970" points="492.9871,-231.4037 502.944,-227.7829 492.9023,-224.4042 492.9871,-231.4037"/>
</g>
<!-- Node24 -->
<g id="node7" class="node">
<title>Node24</title>
<g id="a_node7"><a xlink:href="namespaceutils.html#a24a3b9c327f0dfaa73cc7819f77aba2f" target="_top" xlink:title=" ">
<polygon fill="none" stroke="#000000" points="518,-255 518,-274 700,-274 700,-255 518,-255"/>
<text text-anchor="middle" x="609" y="-262" font-family="Helvetica,sans-Serif" font-size="10.00" fill="#000000">utils::get_kiwixz_home</text>
</a>
</g>
</g>
<!-- Node20&#45;&gt;Node24 -->
<g id="edge6" class="edge">
<title>Node20&#45;&gt;Node24</title>
<path fill="none" stroke="#191970" d="M448.0868,-241.7905C475.3134,-245.6329 505.1525,-249.8441 531.6608,-253.5852"/>
<polygon fill="#191970" stroke="#191970" points="531.2539,-257.0624 541.6449,-254.9942 532.2321,-250.1311 531.2539,-257.0624"/>
</g>
<!-- Node22 -->
<g id="node5" class="node">
<title>Node22</title>
<g id="a_node5"><a xlink:href="structconfig_1_1_config.html#a11fee93a22eea6fd3be390570f0714a7" target="_top" xlink:title=" ">
<polygon fill="none" stroke="#000000" points="751,-214.5 751,-244.5 925,-244.5 925,-214.5 751,-214.5"/>
<text text-anchor="start" x="759" y="-232.5" font-family="Helvetica,sans-Serif" font-size="10.00" fill="#000000">config::Config::parse</text>
<text text-anchor="middle" x="838" y="-221.5" font-family="Helvetica,sans-Serif" font-size="10.00" fill="#000000">_file_content</text>
</a>
</g>
</g>
<!-- Node21&#45;&gt;Node22 -->
<g id="edge4" class="edge">
<title>Node21&#45;&gt;Node22</title>
<path fill="none" stroke="#191970" d="M715.1204,-227.8902C723.6045,-228.0014 732.1503,-228.1133 740.5701,-228.2236"/>
<polygon fill="#191970" stroke="#191970" points="740.7202,-231.7258 750.7653,-228.3572 740.812,-224.7264 740.7202,-231.7258"/>
</g>
<!-- Node23 -->
<g id="node6" class="node">
<title>Node23</title>
<g id="a_node6"><a xlink:href="structconfig_1_1_config.html#ae876f154975287de4c120c68061bec1d" target="_top" xlink:title=" ">
<polygon fill="none" stroke="#000000" points="961,-192.5 961,-222.5 1120,-222.5 1120,-192.5 961,-192.5"/>
<text text-anchor="start" x="969" y="-210.5" font-family="Helvetica,sans-Serif" font-size="10.00" fill="#000000">config::Config::set</text>
<text text-anchor="middle" x="1040.5" y="-199.5" font-family="Helvetica,sans-Serif" font-size="10.00" fill="#000000">_parsed_option</text>
</a>
</g>
</g>
<!-- Node22&#45;&gt;Node23 -->
<g id="edge5" class="edge">
<title>Node22&#45;&gt;Node23</title>
<path fill="none" stroke="#191970" d="M925.0534,-220.0423C933.6057,-219.1132 942.2958,-218.1691 950.8731,-217.2372"/>
<polygon fill="#191970" stroke="#191970" points="951.3119,-220.7103 960.8754,-216.1506 950.5558,-213.7512 951.3119,-220.7103"/>
</g>
<!-- Node25&#45;&gt;Node21 -->
<g id="edge9" class="edge">
<title>Node25&#45;&gt;Node21</title>
<path fill="none" stroke="#191970" d="M418.5195,-195.0093C455.1666,-201.0679 502.8127,-208.9448 541.284,-215.305"/>
<polygon fill="#191970" stroke="#191970" points="540.9264,-218.7933 551.3634,-216.9714 542.0682,-211.8871 540.9264,-218.7933"/>
</g>
<!-- Node25&#45;&gt;Node23 -->
<g id="edge8" class="edge">
<title>Node25&#45;&gt;Node23</title>
<path fill="none" stroke="#191970" d="M467.1719,-188.9375C600.1405,-193.2426 825.6249,-200.543 950.5153,-204.5866"/>
<polygon fill="#191970" stroke="#191970" points="950.6974,-208.0942 960.8054,-204.9197 950.924,-201.0979 950.6974,-208.0942"/>
</g>
<!-- Node27 -->
<g id="node10" class="node">
<title>Node27</title>
<g id="a_node10"><a xlink:href="structconfig_1_1_config.html#a6d7920c2d4ab70b3fbee60b31a5df5d9" target="_top" xlink:title=" ">
<polygon fill="none" stroke="#000000" points="525.5,-138 525.5,-157 692.5,-157 692.5,-138 525.5,-138"/>
<text text-anchor="middle" x="609" y="-145" font-family="Helvetica,sans-Serif" font-size="10.00" fill="#000000">config::Config::dump</text>
</a>
</g>
</g>
<!-- Node26&#45;&gt;Node27 -->
<g id="edge11" class="edge">
<title>Node26&#45;&gt;Node27</title>
<path fill="none" stroke="#191970" d="M463.3029,-147.5C480.4295,-147.5 498.126,-147.5 515.0302,-147.5"/>
<polygon fill="#191970" stroke="#191970" points="515.441,-151.0001 525.4409,-147.5 515.4409,-144.0001 515.441,-151.0001"/>
</g>
<!-- Node29 -->
<g id="node12" class="node">
<title>Node29</title>
<g id="a_node12"><a xlink:href="structleitse_1_1_data_dragon.html#ac8c0f976240b26536f7cd68b66780d8e" target="_top" xlink:title=" ">
<polygon fill="none" stroke="#000000" points="533,-88.5 533,-118.5 685,-118.5 685,-88.5 533,-88.5"/>
<text text-anchor="start" x="541" y="-106.5" font-family="Helvetica,sans-Serif" font-size="10.00" fill="#000000">leitse::DataDragon</text>
<text text-anchor="middle" x="609" y="-95.5" font-family="Helvetica,sans-Serif" font-size="10.00" fill="#000000">::update_version</text>
</a>
</g>
</g>
<!-- Node28&#45;&gt;Node29 -->
<g id="edge13" class="edge">
<title>Node28&#45;&gt;Node29</title>
<path fill="none" stroke="#191970" d="M437.0936,-103.5C464.1043,-103.5 494.6987,-103.5 522.5132,-103.5"/>
<polygon fill="#191970" stroke="#191970" points="522.6231,-107.0001 532.6231,-103.5 522.623,-100.0001 522.6231,-107.0001"/>
</g>
<!-- Node30 -->
<g id="node13" class="node">
<title>Node30</title>
<g id="a_node13"><a xlink:href="structleitse_1_1_data_dragon.html#a99b1d9414c57d987ee8aca3ec804f738" target="_top" xlink:title=" ">
<polygon fill="none" stroke="#000000" points="533,-39.5 533,-69.5 685,-69.5 685,-39.5 533,-39.5"/>
<text text-anchor="start" x="541" y="-57.5" font-family="Helvetica,sans-Serif" font-size="10.00" fill="#000000">leitse::DataDragon</text>
<text text-anchor="middle" x="609" y="-46.5" font-family="Helvetica,sans-Serif" font-size="10.00" fill="#000000">::fetch_data</text>
</a>
</g>
</g>
<!-- Node28&#45;&gt;Node30 -->
<g id="edge14" class="edge">
<title>Node28&#45;&gt;Node30</title>
<path fill="none" stroke="#191970" d="M437.0936,-88.4654C464.2311,-83.1035 494.9861,-77.0269 522.9048,-71.5108"/>
<polygon fill="#191970" stroke="#191970" points="523.9184,-74.8782 533.0503,-69.5062 522.5615,-68.011 523.9184,-74.8782"/>
</g>
<!-- Node32 -->
<g id="node15" class="node">
<title>Node32</title>
<g id="a_node15"><a xlink:href="structconfig_1_1_config.html#ab957d0cdfdedba7a80d5459bb72d6f08" target="_top" xlink:title=" ">
<polygon fill="none" stroke="#000000" points="514.5,-1 514.5,-20 703.5,-20 703.5,-1 514.5,-1"/>
<text text-anchor="middle" x="609" y="-8" font-family="Helvetica,sans-Serif" font-size="10.00" fill="#000000">config::Config::get_raw</text>
</a>
</g>
</g>
<!-- Node31&#45;&gt;Node32 -->
<g id="edge16" class="edge">
<title>Node31&#45;&gt;Node32</title>
<path fill="none" stroke="#191970" d="M416.2011,-49.9981C432.6096,-46.9279 450.5842,-43.3214 467,-39.5 483.1734,-35.735 486.8096,-33.1912 503,-29.5 515.0101,-26.7619 527.8594,-24.1746 540.3205,-21.842"/>
<polygon fill="#191970" stroke="#191970" points="541.0033,-25.2752 550.2074,-20.0278 539.7399,-18.3902 541.0033,-25.2752"/>
</g>
</g>
</svg>
