<?xml version="1.0" encoding="UTF-8" standalone="no"?>
<!DOCTYPE svg PUBLIC "-//W3C//DTD SVG 1.1//EN"
 "http://www.w3.org/Graphics/SVG/1.1/DTD/svg11.dtd">
<!-- Generated by graphviz version 2.40.1 (0)
 -->
<!-- Title: leitse::anonymous_namespace{main::cpp}::main Pages: 1 -->
<svg width="692pt" height="39pt"
 viewBox="0.00 0.00 692.00 39.00" xmlns="http://www.w3.org/2000/svg" xmlns:xlink="http://www.w3.org/1999/xlink">
<g id="graph0" class="graph" transform="scale(1 1) rotate(0) translate(4 35)">
<title>leitse::anonymous_namespace{main::cpp}::main</title>
<!-- Node0 -->
<g id="node1" class="node">
<title>Node0</title>
<g id="a_node1"><a xlink:title=" ">
<polygon fill="#bfbfbf" stroke="#000000" points="0,-.5 0,-30.5 219,-30.5 219,-.5 0,-.5"/>
<text text-anchor="start" x="8" y="-18.5" font-family="Helvetica,sans-Serif" font-size="10.00" fill="#000000">leitse::anonymous_namespace</text>
<text text-anchor="middle" x="109.5" y="-7.5" font-family="Helvetica,sans-Serif" font-size="10.00" fill="#000000">{main::cpp}::main</text>
</a>
</g>
</g>
<!-- Node1 -->
<g id="node2" class="node">
<title>Node1</title>
<g id="a_node2"><a xlink:href="namespaceleitse_1_1anonymous__namespace_02main_8cpp_03.html#a22efba3a32984564056202cc7db3f0de" target="_top" xlink:title=" ">
<polygon fill="none" stroke="#000000" points="255,-.5 255,-30.5 474,-30.5 474,-.5 255,-.5"/>
<text text-anchor="start" x="263" y="-18.5" font-family="Helvetica,sans-Serif" font-size="10.00" fill="#000000">leitse::anonymous_namespace</text>
<text text-anchor="middle" x="364.5" y="-7.5" font-family="Helvetica,sans-Serif" font-size="10.00" fill="#000000">{main::cpp}::main_impl</text>
</a>
</g>
</g>
<!-- Node0&#45;&gt;Node1 -->
<g id="edge1" class="edge">
<title>Node0&#45;&gt;Node1</title>
<path fill="none" stroke="#191970" d="M219.1228,-15.5C227.6608,-15.5 236.3079,-15.5 244.9068,-15.5"/>
<polygon fill="#191970" stroke="#191970" points="244.9698,-19.0001 254.9697,-15.5 244.9697,-12.0001 244.9698,-19.0001"/>
</g>
<!-- Node2 -->
<g id="node3" class="node">
<title>Node2</title>
<g id="a_node3"><a xlink:href="structconfig_1_1_config.html#af94ebfac50df29fe3abeb4ac3e1f0462" target="_top" xlink:title=" ">
<polygon fill="none" stroke="#000000" points="510,-6 510,-25 684,-25 684,-6 510,-6"/>
<text text-anchor="middle" x="597" y="-13" font-family="Helvetica,sans-Serif" font-size="10.00" fill="#000000">config::Config::parse</text>
</a>
</g>
</g>
<!-- Node1&#45;&gt;Node2 -->
<g id="edge2" class="edge">
<title>Node1&#45;&gt;Node2</title>
<path fill="none" stroke="#191970" d="M474.282,-15.5C482.7245,-15.5 491.2127,-15.5 499.5676,-15.5"/>
<polygon fill="#191970" stroke="#191970" points="499.6807,-19.0001 509.6807,-15.5 499.6807,-12.0001 499.6807,-19.0001"/>
</g>
</g>
</svg>
