<?xml version="1.0" encoding="UTF-8" standalone="no"?>
<!DOCTYPE svg PUBLIC "-//W3C//DTD SVG 1.1//EN"
 "http://www.w3.org/Graphics/SVG/1.1/DTD/svg11.dtd">
<!-- Generated by graphviz version 2.40.1 (0)
 -->
<!-- Title: leitse::anonymous_namespace{main::cpp}::main Pages: 1 -->
<svg width="1383pt" height="128pt"
 viewBox="0.00 0.00 1383.00 128.00" xmlns="http://www.w3.org/2000/svg" xmlns:xlink="http://www.w3.org/1999/xlink">
<g id="graph0" class="graph" transform="scale(1 1) rotate(0) translate(4 124)">
<title>leitse::anonymous_namespace{main::cpp}::main</title>
<!-- Node0 -->
<g id="node1" class="node">
<title>Node0</title>
<g id="a_node1"><a xlink:title=" ">
<polygon fill="#bfbfbf" stroke="#000000" points="0,-33 0,-63 219,-63 219,-33 0,-33"/>
<text text-anchor="start" x="8" y="-51" font-family="Helvetica,sans-Serif" font-size="10.00" fill="#000000">leitse::anonymous_namespace</text>
<text text-anchor="middle" x="109.5" y="-40" font-family="Helvetica,sans-Serif" font-size="10.00" fill="#000000">{main::cpp}::main</text>
</a>
</g>
</g>
<!-- Node1 -->
<g id="node2" class="node">
<title>Node1</title>
<g id="a_node2"><a xlink:href="namespaceleitse_1_1anonymous__namespace_02main_8cpp_03.html#a22efba3a32984564056202cc7db3f0de" target="_top" xlink:title=" ">
<polygon fill="none" stroke="#000000" points="255,-33 255,-63 474,-63 474,-33 255,-33"/>
<text text-anchor="start" x="263" y="-51" font-family="Helvetica,sans-Serif" font-size="10.00" fill="#000000">leitse::anonymous_namespace</text>
<text text-anchor="middle" x="364.5" y="-40" font-family="Helvetica,sans-Serif" font-size="10.00" fill="#000000">{main::cpp}::main_impl</text>
</a>
</g>
</g>
<!-- Node0&#45;&gt;Node1 -->
<g id="edge1" class="edge">
<title>Node0&#45;&gt;Node1</title>
<path fill="none" stroke="#191970" d="M219.1228,-48C227.6608,-48 236.3079,-48 244.9068,-48"/>
<polygon fill="#191970" stroke="#191970" points="244.9698,-51.5001 254.9697,-48 244.9697,-44.5001 244.9698,-51.5001"/>
</g>
<!-- Node2 -->
<g id="node3" class="node">
<title>Node2</title>
<g id="a_node3"><a xlink:href="structconfig_1_1_config.html#a26453f75e7ce4f024b90669e437c10de" target="_top" xlink:title=" ">
<polygon fill="none" stroke="#000000" points="529,-77 529,-107 703,-107 703,-77 529,-77"/>
<text text-anchor="start" x="537" y="-95" font-family="Helvetica,sans-Serif" font-size="10.00" fill="#000000">config::Config::parse</text>
<text text-anchor="middle" x="616" y="-84" font-family="Helvetica,sans-Serif" font-size="10.00" fill="#000000">_global_config</text>
</a>
</g>
</g>
<!-- Node1&#45;&gt;Node2 -->
<g id="edge2" class="edge">
<title>Node1&#45;&gt;Node2</title>
<path fill="none" stroke="#191970" d="M450.3486,-63.0192C472.7848,-66.9445 497.1115,-71.2004 520.0367,-75.2112"/>
<polygon fill="#191970" stroke="#191970" points="519.658,-78.698 530.1116,-76.9738 520.8644,-71.8027 519.658,-78.698"/>
</g>
<!-- Node7 -->
<g id="node8" class="node">
<title>Node7</title>
<g id="a_node8"><a xlink:href="structconfig_1_1_config.html#af7d0bbe0e41a086d991fc545cc886212" target="_top" xlink:title=" ">
<polygon fill="none" stroke="#000000" points="510,-38.5 510,-57.5 722,-57.5 722,-38.5 510,-38.5"/>
<text text-anchor="middle" x="616" y="-45.5" font-family="Helvetica,sans-Serif" font-size="10.00" fill="#000000">config::Config::parse_args</text>
</a>
</g>
</g>
<!-- Node1&#45;&gt;Node7 -->
<g id="edge7" class="edge">
<title>Node1&#45;&gt;Node7</title>
<path fill="none" stroke="#191970" d="M474.0799,-48C482.6427,-48 491.3072,-48 499.911,-48"/>
<polygon fill="#191970" stroke="#191970" points="499.9735,-51.5001 509.9735,-48 499.9735,-44.5001 499.9735,-51.5001"/>
</g>
<!-- Node8 -->
<g id="node9" class="node">
<title>Node8</title>
<g id="a_node9"><a xlink:href="structconfig_1_1_config.html#ad127432ebbbbe462f3ca324f673a6d0d" target="_top" xlink:title=" ">
<polygon fill="none" stroke="#000000" points="514,-.5 514,-19.5 718,-19.5 718,-.5 514,-.5"/>
<text text-anchor="middle" x="616" y="-7.5" font-family="Helvetica,sans-Serif" font-size="10.00" fill="#000000">config::Config::show_help</text>
</a>
</g>
</g>
<!-- Node1&#45;&gt;Node8 -->
<g id="edge10" class="edge">
<title>Node1&#45;&gt;Node8</title>
<path fill="none" stroke="#191970" d="M463.8995,-32.9814C490.3274,-28.9883 518.3811,-24.7496 543.1031,-21.0142"/>
<polygon fill="#191970" stroke="#191970" points="543.754,-24.4557 553.1189,-19.5009 542.7082,-17.5343 543.754,-24.4557"/>
</g>
<!-- Node3 -->
<g id="node4" class="node">
<title>Node3</title>
<g id="a_node4"><a xlink:href="structconfig_1_1_config.html#a8eb0be2dcc2b23168834d10674330c5f" target="_top" xlink:title=" ">
<polygon fill="none" stroke="#000000" points="758,-62.5 758,-81.5 970,-81.5 970,-62.5 758,-62.5"/>
<text text-anchor="middle" x="864" y="-69.5" font-family="Helvetica,sans-Serif" font-size="10.00" fill="#000000">config::Config::parse_file</text>
</a>
</g>
</g>
<!-- Node2&#45;&gt;Node3 -->
<g id="edge3" class="edge">
<title>Node2&#45;&gt;Node3</title>
<path fill="none" stroke="#191970" d="M703.0868,-84.9769C717.4885,-83.8154 732.6211,-82.5951 747.605,-81.3867"/>
<polygon fill="#191970" stroke="#191970" points="748.2577,-84.8455 757.944,-80.5529 747.695,-77.8682 748.2577,-84.8455"/>
</g>
<!-- Node6 -->
<g id="node7" class="node">
<title>Node6</title>
<g id="a_node7"><a xlink:href="namespaceutils.html#a24a3b9c327f0dfaa73cc7819f77aba2f" target="_top" xlink:title=" ">
<polygon fill="none" stroke="#000000" points="773,-100.5 773,-119.5 955,-119.5 955,-100.5 773,-100.5"/>
<text text-anchor="middle" x="864" y="-107.5" font-family="Helvetica,sans-Serif" font-size="10.00" fill="#000000">utils::get_kiwixz_home</text>
</a>
</g>
</g>
<!-- Node2&#45;&gt;Node6 -->
<g id="edge6" class="edge">
<title>Node2&#45;&gt;Node6</title>
<path fill="none" stroke="#191970" d="M703.0868,-98.3208C722.4289,-99.7247 743.0895,-101.2242 762.9378,-102.6648"/>
<polygon fill="#191970" stroke="#191970" points="762.6908,-106.156 772.918,-103.3892 763.1976,-99.1744 762.6908,-106.156"/>
</g>
<!-- Node4 -->
<g id="node5" class="node">
<title>Node4</title>
<g id="a_node5"><a xlink:href="structconfig_1_1_config.html#a11fee93a22eea6fd3be390570f0714a7" target="_top" xlink:title=" ">
<polygon fill="none" stroke="#000000" points="1006,-60 1006,-90 1180,-90 1180,-60 1006,-60"/>
<text text-anchor="start" x="1014" y="-78" font-family="Helvetica,sans-Serif" font-size="10.00" fill="#000000">config::Config::parse</text>
<text text-anchor="middle" x="1093" y="-67" font-family="Helvetica,sans-Serif" font-size="10.00" fill="#000000">_file_content</text>
</a>
</g>
</g>
<!-- Node3&#45;&gt;Node4 -->
<g id="edge4" class="edge">
<title>Node3&#45;&gt;Node4</title>
<path fill="none" stroke="#191970" d="M970.1204,-73.3902C978.6045,-73.5014 987.1503,-73.6133 995.5701,-73.7236"/>
<polygon fill="#191970" stroke="#191970" points="995.7202,-77.2258 1005.7653,-73.8572 995.812,-70.2264 995.7202,-77.2258"/>
</g>
<!-- Node5 -->
<g id="node6" class="node">
<title>Node5</title>
<g id="a_node6"><a xlink:href="structconfig_1_1_config.html#ae876f154975287de4c120c68061bec1d" target="_top" xlink:title=" ">
<polygon fill="none" stroke="#000000" points="1216,-38 1216,-68 1375,-68 1375,-38 1216,-38"/>
<text text-anchor="start" x="1224" y="-56" font-family="Helvetica,sans-Serif" font-size="10.00" fill="#000000">config::Config::set</text>
<text text-anchor="middle" x="1295.5" y="-45" font-family="Helvetica,sans-Serif" font-size="10.00" fill="#000000">_parsed_option</text>
</a>
</g>
</g>
<!-- Node4&#45;&gt;Node5 -->
<g id="edge5" class="edge">
<title>Node4&#45;&gt;Node5</title>
<path fill="none" stroke="#191970" d="M1180.0534,-65.5423C1188.6057,-64.6132 1197.2958,-63.6691 1205.8731,-62.7372"/>
<polygon fill="#191970" stroke="#191970" points="1206.3119,-66.2103 1215.8754,-61.6506 1205.5558,-59.2512 1206.3119,-66.2103"/>
</g>
<!-- Node7&#45;&gt;Node3 -->
<g id="edge9" class="edge">
<title>Node7&#45;&gt;Node3</title>
<path fill="none" stroke="#191970" d="M714.3724,-57.5199C727.9751,-58.8363 742.008,-60.1943 755.7771,-61.5268"/>
<polygon fill="#191970" stroke="#191970" points="755.456,-65.012 765.7466,-62.4916 756.1303,-58.0446 755.456,-65.012"/>
</g>
<!-- Node7&#45;&gt;Node5 -->
<g id="edge8" class="edge">
<title>Node7&#45;&gt;Node5</title>
<path fill="none" stroke="#191970" d="M722.0313,-48.185C835.3917,-48.4715 1020.4038,-49.1938 1180,-51 1188.3599,-51.0946 1197.0599,-51.2114 1205.7676,-51.3408"/>
<polygon fill="#191970" stroke="#191970" points="1205.9205,-54.8434 1215.9732,-51.4977 1206.0282,-47.8442 1205.9205,-54.8434"/>
</g>
</g>
</svg>
