<?xml version="1.0" encoding="UTF-8" standalone="no"?>
<!DOCTYPE svg PUBLIC "-//W3C//DTD SVG 1.1//EN"
 "http://www.w3.org/Graphics/SVG/1.1/DTD/svg11.dtd">
<!-- Generated by graphviz version 2.40.1 (0)
 -->
<!-- Title: leitse::anonymous_namespace{main::cpp}::main Pages: 1 -->
<svg width="978pt" height="116pt"
 viewBox="0.00 0.00 978.00 116.00" xmlns="http://www.w3.org/2000/svg" xmlns:xlink="http://www.w3.org/1999/xlink">
<g id="graph0" class="graph" transform="scale(1 1) rotate(0) translate(4 112)">
<title>leitse::anonymous_namespace{main::cpp}::main</title>
<!-- Node0 -->
<g id="node1" class="node">
<title>Node0</title>
<g id="a_node1"><a xlink:title=" ">
<polygon fill="#bfbfbf" stroke="#000000" points="0,-39 0,-69 219,-69 219,-39 0,-39"/>
<text text-anchor="start" x="8" y="-57" font-family="Helvetica,sans-Serif" font-size="10.00" fill="#000000">leitse::anonymous_namespace</text>
<text text-anchor="middle" x="109.5" y="-46" font-family="Helvetica,sans-Serif" font-size="10.00" fill="#000000">{main::cpp}::main</text>
</a>
</g>
</g>
<!-- Node1 -->
<g id="node2" class="node">
<title>Node1</title>
<g id="a_node2"><a xlink:href="namespaceleitse_1_1anonymous__namespace_02main_8cpp_03.html#a22efba3a32984564056202cc7db3f0de" target="_top" xlink:title=" ">
<polygon fill="none" stroke="#000000" points="255,-39 255,-69 474,-69 474,-39 255,-39"/>
<text text-anchor="start" x="263" y="-57" font-family="Helvetica,sans-Serif" font-size="10.00" fill="#000000">leitse::anonymous_namespace</text>
<text text-anchor="middle" x="364.5" y="-46" font-family="Helvetica,sans-Serif" font-size="10.00" fill="#000000">{main::cpp}::main_impl</text>
</a>
</g>
</g>
<!-- Node0&#45;&gt;Node1 -->
<g id="edge1" class="edge">
<title>Node0&#45;&gt;Node1</title>
<path fill="none" stroke="#191970" d="M219.1228,-54C227.6608,-54 236.3079,-54 244.9068,-54"/>
<polygon fill="#191970" stroke="#191970" points="244.9698,-57.5001 254.9697,-54 244.9697,-50.5001 244.9698,-57.5001"/>
</g>
<!-- Node2 -->
<g id="node3" class="node">
<title>Node2</title>
<g id="a_node3"><a xlink:href="structconfig_1_1_config.html#a6482bac83f43652db0483965eb44093d" target="_top" xlink:title=" ">
<polygon fill="none" stroke="#000000" points="529,-39 529,-69 703,-69 703,-39 529,-39"/>
<text text-anchor="start" x="537" y="-57" font-family="Helvetica,sans-Serif" font-size="10.00" fill="#000000">config::Config::parse</text>
<text text-anchor="middle" x="616" y="-46" font-family="Helvetica,sans-Serif" font-size="10.00" fill="#000000">_global_config</text>
</a>
</g>
</g>
<!-- Node1&#45;&gt;Node2 -->
<g id="edge2" class="edge">
<title>Node1&#45;&gt;Node2</title>
<path fill="none" stroke="#191970" d="M474.0799,-54C488.9221,-54 504.0698,-54 518.6774,-54"/>
<polygon fill="#191970" stroke="#191970" points="518.6938,-57.5001 528.6937,-54 518.6937,-50.5001 518.6938,-57.5001"/>
</g>
<!-- Node5 -->
<g id="node6" class="node">
<title>Node5</title>
<g id="a_node6"><a xlink:href="structconfig_1_1_config.html#af7d0bbe0e41a086d991fc545cc886212" target="_top" xlink:title=" ">
<polygon fill="none" stroke="#000000" points="510,-88.5 510,-107.5 722,-107.5 722,-88.5 510,-88.5"/>
<text text-anchor="middle" x="616" y="-95.5" font-family="Helvetica,sans-Serif" font-size="10.00" fill="#000000">config::Config::parse_args</text>
</a>
</g>
</g>
<!-- Node1&#45;&gt;Node5 -->
<g id="edge5" class="edge">
<title>Node1&#45;&gt;Node5</title>
<path fill="none" stroke="#191970" d="M450.3486,-69.0192C483.4612,-74.8123 520.6916,-81.3258 551.4574,-86.7083"/>
<polygon fill="#191970" stroke="#191970" points="551.1743,-90.2118 561.6279,-88.4876 552.3807,-83.3165 551.1743,-90.2118"/>
</g>
<!-- Node6 -->
<g id="node7" class="node">
<title>Node6</title>
<g id="a_node7"><a xlink:href="structconfig_1_1_config.html#ad127432ebbbbe462f3ca324f673a6d0d" target="_top" xlink:title=" ">
<polygon fill="none" stroke="#000000" points="514,-.5 514,-19.5 718,-19.5 718,-.5 514,-.5"/>
<text text-anchor="middle" x="616" y="-7.5" font-family="Helvetica,sans-Serif" font-size="10.00" fill="#000000">config::Config::show_help</text>
</a>
</g>
</g>
<!-- Node1&#45;&gt;Node6 -->
<g id="edge7" class="edge">
<title>Node1&#45;&gt;Node6</title>
<path fill="none" stroke="#191970" d="M450.3486,-38.9808C483.4612,-33.1877 520.6916,-26.6742 551.4574,-21.2917"/>
<polygon fill="#191970" stroke="#191970" points="552.3807,-24.6835 561.6279,-19.5124 551.1743,-17.7882 552.3807,-24.6835"/>
</g>
<!-- Node3 -->
<g id="node4" class="node">
<title>Node3</title>
<g id="a_node4"><a xlink:href="structconfig_1_1_config.html#a8eb0be2dcc2b23168834d10674330c5f" target="_top" xlink:title=" ">
<polygon fill="none" stroke="#000000" points="758,-85.5 758,-104.5 970,-104.5 970,-85.5 758,-85.5"/>
<text text-anchor="middle" x="864" y="-92.5" font-family="Helvetica,sans-Serif" font-size="10.00" fill="#000000">config::Config::parse_file</text>
</a>
</g>
</g>
<!-- Node2&#45;&gt;Node3 -->
<g id="edge3" class="edge">
<title>Node2&#45;&gt;Node3</title>
<path fill="none" stroke="#191970" d="M703.0868,-68.3974C733.6745,-73.4543 767.5595,-79.0562 796.3145,-83.8101"/>
<polygon fill="#191970" stroke="#191970" points="795.8208,-87.2759 806.2578,-85.4539 796.9626,-80.3696 795.8208,-87.2759"/>
</g>
<!-- Node4 -->
<g id="node5" class="node">
<title>Node4</title>
<g id="a_node5"><a xlink:href="namespaceutils.html#a24a3b9c327f0dfaa73cc7819f77aba2f" target="_top" xlink:title=" ">
<polygon fill="none" stroke="#000000" points="773,-44.5 773,-63.5 955,-63.5 955,-44.5 773,-44.5"/>
<text text-anchor="middle" x="864" y="-51.5" font-family="Helvetica,sans-Serif" font-size="10.00" fill="#000000">utils::get_kiwixz_home</text>
</a>
</g>
</g>
<!-- Node2&#45;&gt;Node4 -->
<g id="edge4" class="edge">
<title>Node2&#45;&gt;Node4</title>
<path fill="none" stroke="#191970" d="M703.0868,-54C722.3406,-54 742.9009,-54 762.6658,-54"/>
<polygon fill="#191970" stroke="#191970" points="762.918,-57.5001 772.918,-54 762.9179,-50.5001 762.918,-57.5001"/>
</g>
<!-- Node5&#45;&gt;Node3 -->
<g id="edge6" class="edge">
<title>Node5&#45;&gt;Node3</title>
<path fill="none" stroke="#191970" d="M722.2536,-96.7147C730.7579,-96.6118 739.3759,-96.5075 747.9431,-96.4039"/>
<polygon fill="#191970" stroke="#191970" points="748.0103,-99.9035 757.9672,-96.2827 747.9255,-92.904 748.0103,-99.9035"/>
</g>
</g>
</svg>
