<?xml version="1.0" encoding="UTF-8" standalone="no"?>
<!DOCTYPE svg PUBLIC "-//W3C//DTD SVG 1.1//EN"
 "http://www.w3.org/Graphics/SVG/1.1/DTD/svg11.dtd">
<!-- Generated by graphviz version 2.40.1 (0)
 -->
<!-- Title: leitse::simple_download Pages: 1 -->
<svg width="1090pt" height="186pt"
 viewBox="0.00 0.00 1090.00 186.00" xmlns="http://www.w3.org/2000/svg" xmlns:xlink="http://www.w3.org/1999/xlink">
<g id="graph0" class="graph" transform="scale(1 1) rotate(0) translate(4 182)">
<title>leitse::simple_download</title>
<!-- Node3 -->
<g id="node1" class="node">
<title>Node3</title>
<g id="a_node1"><a xlink:title=" ">
<polygon fill="#bfbfbf" stroke="#000000" points="893,-79 893,-98 1082,-98 1082,-79 893,-79"/>
<text text-anchor="middle" x="987.5" y="-86" font-family="Helvetica,sans-Serif" font-size="10.00" fill="#000000">leitse::simple_download</text>
</a>
</g>
</g>
<!-- Node4 -->
<g id="node2" class="node">
<title>Node4</title>
<g id="a_node2"><a xlink:href="structleitse_1_1_data_dragon.html#ac8c0f976240b26536f7cd68b66780d8e" target="_top" xlink:title=" ">
<polygon fill="none" stroke="#000000" points="701.5,-147.5 701.5,-177.5 853.5,-177.5 853.5,-147.5 701.5,-147.5"/>
<text text-anchor="start" x="709.5" y="-165.5" font-family="Helvetica,sans-Serif" font-size="10.00" fill="#000000">leitse::DataDragon</text>
<text text-anchor="middle" x="777.5" y="-154.5" font-family="Helvetica,sans-Serif" font-size="10.00" fill="#000000">::update_version</text>
</a>
</g>
</g>
<!-- Node3&#45;&gt;Node4 -->
<g id="edge1" class="edge">
<title>Node3&#45;&gt;Node4</title>
<path fill="none" stroke="#191970" d="M954.654,-101.8456C928.409,-112.3242 890.5877,-127.0127 857,-138.5 848.133,-141.5326 838.6435,-144.5724 829.4194,-147.4203"/>
<polygon fill="#191970" stroke="#191970" points="956.1348,-105.0228 964.1128,-98.0512 953.5286,-98.526 956.1348,-105.0228"/>
</g>
<!-- Node8 -->
<g id="node6" class="node">
<title>Node8</title>
<g id="a_node6"><a xlink:href="structleitse_1_1_data_dragon.html#ab42170e26e20cd3d715f3f3220019e7c" target="_top" xlink:title=" ">
<polygon fill="none" stroke="#000000" points="701.5,-98.5 701.5,-128.5 853.5,-128.5 853.5,-98.5 701.5,-98.5"/>
<text text-anchor="start" x="709.5" y="-116.5" font-family="Helvetica,sans-Serif" font-size="10.00" fill="#000000">leitse::DataDragon</text>
<text text-anchor="middle" x="777.5" y="-105.5" font-family="Helvetica,sans-Serif" font-size="10.00" fill="#000000">::fetch_data</text>
</a>
</g>
</g>
<!-- Node3&#45;&gt;Node8 -->
<g id="edge5" class="edge">
<title>Node3&#45;&gt;Node8</title>
<path fill="none" stroke="#191970" d="M897.5076,-99.2134C882.9501,-100.9464 867.9996,-102.7262 853.8067,-104.4159"/>
<polygon fill="#191970" stroke="#191970" points="897.9928,-102.6804 907.5089,-98.0227 897.1653,-95.7295 897.9928,-102.6804"/>
</g>
<!-- Node9 -->
<g id="node7" class="node">
<title>Node9</title>
<g id="a_node7"><a xlink:href="structleitse_1_1aggregators_1_1_ugg.html#a1beb65b1bda9aad50f03954eb0a45578" target="_top" xlink:title=" ">
<polygon fill="none" stroke="#000000" points="698,-49.5 698,-79.5 857,-79.5 857,-49.5 698,-49.5"/>
<text text-anchor="start" x="706" y="-67.5" font-family="Helvetica,sans-Serif" font-size="10.00" fill="#000000">leitse::aggregators</text>
<text text-anchor="middle" x="777.5" y="-56.5" font-family="Helvetica,sans-Serif" font-size="10.00" fill="#000000">::Ugg::Ugg</text>
</a>
</g>
</g>
<!-- Node3&#45;&gt;Node9 -->
<g id="edge7" class="edge">
<title>Node3&#45;&gt;Node9</title>
<path fill="none" stroke="#191970" d="M893.9763,-77.8116C881.7276,-76.4117 869.268,-74.9878 857.2751,-73.6172"/>
<polygon fill="#191970" stroke="#191970" points="893.8681,-81.3219 904.2008,-78.9801 894.6629,-74.3672 893.8681,-81.3219"/>
</g>
<!-- Node10 -->
<g id="node8" class="node">
<title>Node10</title>
<g id="a_node8"><a xlink:href="structleitse_1_1aggregators_1_1_ugg.html#a84eae29d7c3a982f943f61ea955f5e81" target="_top" xlink:title=" ">
<polygon fill="none" stroke="#000000" points="698,-.5 698,-30.5 857,-30.5 857,-.5 698,-.5"/>
<text text-anchor="start" x="706" y="-18.5" font-family="Helvetica,sans-Serif" font-size="10.00" fill="#000000">leitse::aggregators</text>
<text text-anchor="middle" x="777.5" y="-7.5" font-family="Helvetica,sans-Serif" font-size="10.00" fill="#000000">::Ugg::itemsets</text>
</a>
</g>
</g>
<!-- Node3&#45;&gt;Node10 -->
<g id="edge8" class="edge">
<title>Node3&#45;&gt;Node10</title>
<path fill="none" stroke="#191970" d="M953.1215,-75.345C926.8991,-65.4352 889.822,-51.6898 857,-40.5 847.2769,-37.1852 836.832,-33.7861 826.8136,-30.6044"/>
<polygon fill="#191970" stroke="#191970" points="952.0172,-78.6694 962.6085,-78.9419 954.4988,-72.124 952.0172,-78.6694"/>
</g>
<!-- Node5 -->
<g id="node3" class="node">
<title>Node5</title>
<g id="a_node3"><a xlink:href="structleitse_1_1_data_dragon.html#aedd2ef4d722fb451e9e68502a47dc392" target="_top" xlink:title=" ">
<polygon fill="none" stroke="#000000" points="510,-122.5 510,-152.5 662,-152.5 662,-122.5 510,-122.5"/>
<text text-anchor="start" x="518" y="-140.5" font-family="Helvetica,sans-Serif" font-size="10.00" fill="#000000">leitse::DataDragon</text>
<text text-anchor="middle" x="586" y="-129.5" font-family="Helvetica,sans-Serif" font-size="10.00" fill="#000000">::populate</text>
</a>
</g>
</g>
<!-- Node4&#45;&gt;Node5 -->
<g id="edge2" class="edge">
<title>Node4&#45;&gt;Node5</title>
<path fill="none" stroke="#191970" d="M691.2606,-151.2416C681.6002,-149.9804 671.8093,-148.7023 662.2867,-147.4591"/>
<polygon fill="#191970" stroke="#191970" points="690.8949,-154.7235 701.2639,-152.5475 691.8011,-147.7824 690.8949,-154.7235"/>
</g>
<!-- Node6 -->
<g id="node4" class="node">
<title>Node6</title>
<g id="a_node4"><a xlink:href="namespaceleitse_1_1anonymous__namespace_02main_8cpp_03.html#a22efba3a32984564056202cc7db3f0de" target="_top" xlink:title=" ">
<polygon fill="none" stroke="#000000" points="255,-122.5 255,-152.5 474,-152.5 474,-122.5 255,-122.5"/>
<text text-anchor="start" x="263" y="-140.5" font-family="Helvetica,sans-Serif" font-size="10.00" fill="#000000">leitse::anonymous_namespace</text>
<text text-anchor="middle" x="364.5" y="-129.5" font-family="Helvetica,sans-Serif" font-size="10.00" fill="#000000">{main::cpp}::main_impl</text>
</a>
</g>
</g>
<!-- Node5&#45;&gt;Node6 -->
<g id="edge3" class="edge">
<title>Node5&#45;&gt;Node6</title>
<path fill="none" stroke="#191970" d="M499.6635,-137.5C491.2851,-137.5 482.7106,-137.5 474.1448,-137.5"/>
<polygon fill="#191970" stroke="#191970" points="499.7723,-141.0001 509.7723,-137.5 499.7722,-134.0001 499.7723,-141.0001"/>
</g>
<!-- Node7 -->
<g id="node5" class="node">
<title>Node7</title>
<g id="a_node5"><a xlink:href="namespaceleitse_1_1anonymous__namespace_02main_8cpp_03.html#a79fa099cfa983c75df11f0a42e7586e4" target="_top" xlink:title=" ">
<polygon fill="none" stroke="#000000" points="0,-122.5 0,-152.5 219,-152.5 219,-122.5 0,-122.5"/>
<text text-anchor="start" x="8" y="-140.5" font-family="Helvetica,sans-Serif" font-size="10.00" fill="#000000">leitse::anonymous_namespace</text>
<text text-anchor="middle" x="109.5" y="-129.5" font-family="Helvetica,sans-Serif" font-size="10.00" fill="#000000">{main::cpp}::main</text>
</a>
</g>
</g>
<!-- Node6&#45;&gt;Node7 -->
<g id="edge4" class="edge">
<title>Node6&#45;&gt;Node7</title>
<path fill="none" stroke="#191970" d="M244.8136,-137.5C236.2143,-137.5 227.5675,-137.5 219.0303,-137.5"/>
<polygon fill="#191970" stroke="#191970" points="244.8772,-141.0001 254.8772,-137.5 244.8771,-134.0001 244.8772,-141.0001"/>
</g>
<!-- Node8&#45;&gt;Node5 -->
<g id="edge6" class="edge">
<title>Node8&#45;&gt;Node5</title>
<path fill="none" stroke="#191970" d="M691.2606,-124.3081C681.6002,-125.5188 671.8093,-126.7458 662.2867,-127.9393"/>
<polygon fill="#191970" stroke="#191970" points="691.7768,-127.7709 701.2639,-123.0544 690.9062,-120.8252 691.7768,-127.7709"/>
</g>
</g>
</svg>
