<?xml version="1.0" encoding="UTF-8" standalone="no"?>
<!DOCTYPE svg PUBLIC "-//W3C//DTD SVG 1.1//EN"
 "http://www.w3.org/Graphics/SVG/1.1/DTD/svg11.dtd">
<!-- Generated by graphviz version 2.40.1 (0)
 -->
<!-- Title: leitse::anonymous_namespace{main::cpp}::main_impl Pages: 1 -->
<svg width="1128pt" height="154pt"
 viewBox="0.00 0.00 1128.00 154.00" xmlns="http://www.w3.org/2000/svg" xmlns:xlink="http://www.w3.org/1999/xlink">
<g id="graph0" class="graph" transform="scale(1 1) rotate(0) translate(4 150)">
<title>leitse::anonymous_namespace{main::cpp}::main_impl</title>
<!-- Node12 -->
<g id="node1" class="node">
<title>Node12</title>
<g id="a_node1"><a xlink:title=" ">
<polygon fill="#bfbfbf" stroke="#000000" points="0,-55 0,-85 219,-85 219,-55 0,-55"/>
<text text-anchor="start" x="8" y="-73" font-family="Helvetica,sans-Serif" font-size="10.00" fill="#000000">leitse::anonymous_namespace</text>
<text text-anchor="middle" x="109.5" y="-62" font-family="Helvetica,sans-Serif" font-size="10.00" fill="#000000">{main::cpp}::main_impl</text>
</a>
</g>
</g>
<!-- Node13 -->
<g id="node2" class="node">
<title>Node13</title>
<g id="a_node2"><a xlink:href="structconfig_1_1_config.html#a8d05ea9c3f473081105aadb66124f42e" target="_top" xlink:title=" ">
<polygon fill="none" stroke="#000000" points="281.5,-126.5 281.5,-145.5 440.5,-145.5 440.5,-126.5 281.5,-126.5"/>
<text text-anchor="middle" x="361" y="-133.5" font-family="Helvetica,sans-Serif" font-size="10.00" fill="#000000">config::Config::set</text>
</a>
</g>
</g>
<!-- Node12&#45;&gt;Node13 -->
<g id="edge1" class="edge">
<title>Node12&#45;&gt;Node13</title>
<path fill="none" stroke="#191970" d="M151.0892,-85.0903C179.9561,-95.1542 219.4601,-108.1179 255,-117 266.1529,-119.7873 278.0633,-122.3318 289.7241,-124.5893"/>
<polygon fill="#191970" stroke="#191970" points="289.4074,-128.091 299.8818,-126.4981 290.7003,-121.2114 289.4074,-128.091"/>
</g>
<!-- Node14 -->
<g id="node3" class="node">
<title>Node14</title>
<g id="a_node3"><a xlink:href="structconfig_1_1_config.html#a26453f75e7ce4f024b90669e437c10de" target="_top" xlink:title=" ">
<polygon fill="none" stroke="#000000" points="274,-77 274,-107 448,-107 448,-77 274,-77"/>
<text text-anchor="start" x="282" y="-95" font-family="Helvetica,sans-Serif" font-size="10.00" fill="#000000">config::Config::parse</text>
<text text-anchor="middle" x="361" y="-84" font-family="Helvetica,sans-Serif" font-size="10.00" fill="#000000">_global_config</text>
</a>
</g>
</g>
<!-- Node12&#45;&gt;Node14 -->
<g id="edge2" class="edge">
<title>Node12&#45;&gt;Node14</title>
<path fill="none" stroke="#191970" d="M219.0799,-79.5855C233.9221,-80.8838 249.0698,-82.2089 263.6774,-83.4867"/>
<polygon fill="#191970" stroke="#191970" points="263.4268,-86.978 273.6937,-84.3629 264.0368,-80.0047 263.4268,-86.978"/>
</g>
<!-- Node19 -->
<g id="node8" class="node">
<title>Node19</title>
<g id="a_node8"><a xlink:href="structconfig_1_1_config.html#af7d0bbe0e41a086d991fc545cc886212" target="_top" xlink:title=" ">
<polygon fill="none" stroke="#000000" points="255,-38.5 255,-57.5 467,-57.5 467,-38.5 255,-38.5"/>
<text text-anchor="middle" x="361" y="-45.5" font-family="Helvetica,sans-Serif" font-size="10.00" fill="#000000">config::Config::parse_args</text>
</a>
</g>
</g>
<!-- Node12&#45;&gt;Node19 -->
<g id="edge7" class="edge">
<title>Node12&#45;&gt;Node19</title>
<path fill="none" stroke="#191970" d="M219.0799,-60.4145C227.6427,-59.6654 236.3072,-58.9075 244.911,-58.1549"/>
<polygon fill="#191970" stroke="#191970" points="245.3166,-61.6329 254.9735,-57.2747 244.7065,-54.6595 245.3166,-61.6329"/>
</g>
<!-- Node20 -->
<g id="node9" class="node">
<title>Node20</title>
<g id="a_node9"><a xlink:href="structconfig_1_1_config.html#abca32af5b3cfdb1f9eabec454e1e354e" target="_top" xlink:title=" ">
<polygon fill="none" stroke="#000000" points="259,-.5 259,-19.5 463,-19.5 463,-.5 259,-.5"/>
<text text-anchor="middle" x="361" y="-7.5" font-family="Helvetica,sans-Serif" font-size="10.00" fill="#000000">config::Config::show_help</text>
</a>
</g>
</g>
<!-- Node12&#45;&gt;Node20 -->
<g id="edge10" class="edge">
<title>Node12&#45;&gt;Node20</title>
<path fill="none" stroke="#191970" d="M158.3586,-54.9494C186.455,-46.6179 222.5176,-36.4691 255,-29 266.8149,-26.2833 279.4453,-23.7238 291.7201,-21.4162"/>
<polygon fill="#191970" stroke="#191970" points="292.72,-24.791 301.9215,-19.5391 291.4532,-17.9066 292.72,-24.791"/>
</g>
<!-- Node15 -->
<g id="node4" class="node">
<title>Node15</title>
<g id="a_node4"><a xlink:href="structconfig_1_1_config.html#a8eb0be2dcc2b23168834d10674330c5f" target="_top" xlink:title=" ">
<polygon fill="none" stroke="#000000" points="503,-79.5 503,-98.5 715,-98.5 715,-79.5 503,-79.5"/>
<text text-anchor="middle" x="609" y="-86.5" font-family="Helvetica,sans-Serif" font-size="10.00" fill="#000000">config::Config::parse_file</text>
</a>
</g>
</g>
<!-- Node14&#45;&gt;Node15 -->
<g id="edge3" class="edge">
<title>Node14&#45;&gt;Node15</title>
<path fill="none" stroke="#191970" d="M448.0868,-90.9465C462.4885,-90.7723 477.6211,-90.5893 492.605,-90.408"/>
<polygon fill="#191970" stroke="#191970" points="492.9871,-93.9037 502.944,-90.2829 492.9023,-86.9042 492.9871,-93.9037"/>
</g>
<!-- Node18 -->
<g id="node7" class="node">
<title>Node18</title>
<g id="a_node7"><a xlink:href="namespaceutils.html#a24a3b9c327f0dfaa73cc7819f77aba2f" target="_top" xlink:title=" ">
<polygon fill="none" stroke="#000000" points="518,-117.5 518,-136.5 700,-136.5 700,-117.5 518,-117.5"/>
<text text-anchor="middle" x="609" y="-124.5" font-family="Helvetica,sans-Serif" font-size="10.00" fill="#000000">utils::get_kiwixz_home</text>
</a>
</g>
</g>
<!-- Node14&#45;&gt;Node18 -->
<g id="edge6" class="edge">
<title>Node14&#45;&gt;Node18</title>
<path fill="none" stroke="#191970" d="M448.0868,-104.2905C475.3134,-108.1329 505.1525,-112.3441 531.6608,-116.0852"/>
<polygon fill="#191970" stroke="#191970" points="531.2539,-119.5624 541.6449,-117.4942 532.2321,-112.6311 531.2539,-119.5624"/>
</g>
<!-- Node16 -->
<g id="node5" class="node">
<title>Node16</title>
<g id="a_node5"><a xlink:href="structconfig_1_1_config.html#a11fee93a22eea6fd3be390570f0714a7" target="_top" xlink:title=" ">
<polygon fill="none" stroke="#000000" points="751,-77 751,-107 925,-107 925,-77 751,-77"/>
<text text-anchor="start" x="759" y="-95" font-family="Helvetica,sans-Serif" font-size="10.00" fill="#000000">config::Config::parse</text>
<text text-anchor="middle" x="838" y="-84" font-family="Helvetica,sans-Serif" font-size="10.00" fill="#000000">_file_content</text>
</a>
</g>
</g>
<!-- Node15&#45;&gt;Node16 -->
<g id="edge4" class="edge">
<title>Node15&#45;&gt;Node16</title>
<path fill="none" stroke="#191970" d="M715.1204,-90.3902C723.6045,-90.5014 732.1503,-90.6133 740.5701,-90.7236"/>
<polygon fill="#191970" stroke="#191970" points="740.7202,-94.2258 750.7653,-90.8572 740.812,-87.2264 740.7202,-94.2258"/>
</g>
<!-- Node17 -->
<g id="node6" class="node">
<title>Node17</title>
<g id="a_node6"><a xlink:href="structconfig_1_1_config.html#ae876f154975287de4c120c68061bec1d" target="_top" xlink:title=" ">
<polygon fill="none" stroke="#000000" points="961,-55 961,-85 1120,-85 1120,-55 961,-55"/>
<text text-anchor="start" x="969" y="-73" font-family="Helvetica,sans-Serif" font-size="10.00" fill="#000000">config::Config::set</text>
<text text-anchor="middle" x="1040.5" y="-62" font-family="Helvetica,sans-Serif" font-size="10.00" fill="#000000">_parsed_option</text>
</a>
</g>
</g>
<!-- Node16&#45;&gt;Node17 -->
<g id="edge5" class="edge">
<title>Node16&#45;&gt;Node17</title>
<path fill="none" stroke="#191970" d="M925.0534,-82.5423C933.6057,-81.6132 942.2958,-80.6691 950.8731,-79.7372"/>
<polygon fill="#191970" stroke="#191970" points="951.3119,-83.2103 960.8754,-78.6506 950.5558,-76.2512 951.3119,-83.2103"/>
</g>
<!-- Node19&#45;&gt;Node15 -->
<g id="edge9" class="edge">
<title>Node19&#45;&gt;Node15</title>
<path fill="none" stroke="#191970" d="M418.5195,-57.5093C455.1666,-63.5679 502.8127,-71.4448 541.284,-77.805"/>
<polygon fill="#191970" stroke="#191970" points="540.9264,-81.2933 551.3634,-79.4714 542.0682,-74.3871 540.9264,-81.2933"/>
</g>
<!-- Node19&#45;&gt;Node17 -->
<g id="edge8" class="edge">
<title>Node19&#45;&gt;Node17</title>
<path fill="none" stroke="#191970" d="M467.1719,-51.4375C600.1405,-55.7426 825.6249,-63.043 950.5153,-67.0866"/>
<polygon fill="#191970" stroke="#191970" points="950.6974,-70.5942 960.8054,-67.4197 950.924,-63.5979 950.6974,-70.5942"/>
</g>
<!-- Node21 -->
<g id="node10" class="node">
<title>Node21</title>
<g id="a_node10"><a xlink:href="structconfig_1_1_config.html#a6d7920c2d4ab70b3fbee60b31a5df5d9" target="_top" xlink:title=" ">
<polygon fill="none" stroke="#000000" points="525.5,-.5 525.5,-19.5 692.5,-19.5 692.5,-.5 525.5,-.5"/>
<text text-anchor="middle" x="609" y="-7.5" font-family="Helvetica,sans-Serif" font-size="10.00" fill="#000000">config::Config::dump</text>
</a>
</g>
</g>
<!-- Node20&#45;&gt;Node21 -->
<g id="edge11" class="edge">
<title>Node20&#45;&gt;Node21</title>
<path fill="none" stroke="#191970" d="M463.3029,-10C480.4295,-10 498.126,-10 515.0302,-10"/>
<polygon fill="#191970" stroke="#191970" points="515.441,-13.5001 525.4409,-10 515.4409,-6.5001 515.441,-13.5001"/>
</g>
</g>
</svg>
