<?xml version="1.0" encoding="UTF-8" standalone="no"?>
<!DOCTYPE svg PUBLIC "-//W3C//DTD SVG 1.1//EN"
 "http://www.w3.org/Graphics/SVG/1.1/DTD/svg11.dtd">
<!-- Generated by graphviz version 2.40.1 (0)
 -->
<!-- Title: leitse::anonymous_namespace{main::cpp}::main_impl Pages: 1 -->
<svg width="723pt" height="129pt"
 viewBox="0.00 0.00 723.00 129.00" xmlns="http://www.w3.org/2000/svg" xmlns:xlink="http://www.w3.org/1999/xlink">
<g id="graph0" class="graph" transform="scale(1 1) rotate(0) translate(4 125)">
<title>leitse::anonymous_namespace{main::cpp}::main_impl</title>
<!-- Node8 -->
<g id="node1" class="node">
<title>Node8</title>
<g id="a_node1"><a xlink:title=" ">
<polygon fill="#bfbfbf" stroke="#000000" points="0,-33 0,-63 219,-63 219,-33 0,-33"/>
<text text-anchor="start" x="8" y="-51" font-family="Helvetica,sans-Serif" font-size="10.00" fill="#000000">leitse::anonymous_namespace</text>
<text text-anchor="middle" x="109.5" y="-40" font-family="Helvetica,sans-Serif" font-size="10.00" fill="#000000">{main::cpp}::main_impl</text>
</a>
</g>
</g>
<!-- Node9 -->
<g id="node2" class="node">
<title>Node9</title>
<g id="a_node2"><a xlink:href="structconfig_1_1_config.html#a6482bac83f43652db0483965eb44093d" target="_top" xlink:title=" ">
<polygon fill="none" stroke="#000000" points="274,-77 274,-107 448,-107 448,-77 274,-77"/>
<text text-anchor="start" x="282" y="-95" font-family="Helvetica,sans-Serif" font-size="10.00" fill="#000000">config::Config::parse</text>
<text text-anchor="middle" x="361" y="-84" font-family="Helvetica,sans-Serif" font-size="10.00" fill="#000000">_global_config</text>
</a>
</g>
</g>
<!-- Node8&#45;&gt;Node9 -->
<g id="edge1" class="edge">
<title>Node8&#45;&gt;Node9</title>
<path fill="none" stroke="#191970" d="M195.3486,-63.0192C217.7848,-66.9445 242.1115,-71.2004 265.0367,-75.2112"/>
<polygon fill="#191970" stroke="#191970" points="264.658,-78.698 275.1116,-76.9738 265.8644,-71.8027 264.658,-78.698"/>
</g>
<!-- Node12 -->
<g id="node5" class="node">
<title>Node12</title>
<g id="a_node5"><a xlink:href="structconfig_1_1_config.html#aa1888a2244ac533641954e38c63553d2" target="_top" xlink:title=" ">
<polygon fill="none" stroke="#000000" points="255,-38.5 255,-57.5 467,-57.5 467,-38.5 255,-38.5"/>
<text text-anchor="middle" x="361" y="-45.5" font-family="Helvetica,sans-Serif" font-size="10.00" fill="#000000">config::Config::parse_args</text>
</a>
</g>
</g>
<!-- Node8&#45;&gt;Node12 -->
<g id="edge4" class="edge">
<title>Node8&#45;&gt;Node12</title>
<path fill="none" stroke="#191970" d="M219.0799,-48C227.6427,-48 236.3072,-48 244.911,-48"/>
<polygon fill="#191970" stroke="#191970" points="244.9735,-51.5001 254.9735,-48 244.9735,-44.5001 244.9735,-51.5001"/>
</g>
<!-- Node13 -->
<g id="node6" class="node">
<title>Node13</title>
<g id="a_node6"><a xlink:href="structconfig_1_1_config.html#a9aabf6fc826255f58721dc3645c5f450" target="_top" xlink:title=" ">
<polygon fill="none" stroke="#000000" points="259,-.5 259,-19.5 463,-19.5 463,-.5 259,-.5"/>
<text text-anchor="middle" x="361" y="-7.5" font-family="Helvetica,sans-Serif" font-size="10.00" fill="#000000">config::Config::show_help</text>
</a>
</g>
</g>
<!-- Node8&#45;&gt;Node13 -->
<g id="edge5" class="edge">
<title>Node8&#45;&gt;Node13</title>
<path fill="none" stroke="#191970" d="M208.8995,-32.9814C235.3274,-28.9883 263.3811,-24.7496 288.1031,-21.0142"/>
<polygon fill="#191970" stroke="#191970" points="288.754,-24.4557 298.1189,-19.5009 287.7082,-17.5343 288.754,-24.4557"/>
</g>
<!-- Node10 -->
<g id="node3" class="node">
<title>Node10</title>
<g id="a_node3"><a xlink:href="structconfig_1_1_config.html#a6e427255d58b3312e2941468e640db78" target="_top" xlink:title=" ">
<polygon fill="none" stroke="#000000" points="503,-101.5 503,-120.5 715,-120.5 715,-101.5 503,-101.5"/>
<text text-anchor="middle" x="609" y="-108.5" font-family="Helvetica,sans-Serif" font-size="10.00" fill="#000000">config::Config::parse_file</text>
</a>
</g>
</g>
<!-- Node9&#45;&gt;Node10 -->
<g id="edge2" class="edge">
<title>Node9&#45;&gt;Node10</title>
<path fill="none" stroke="#191970" d="M448.0868,-98.672C462.4885,-99.7753 477.6211,-100.9347 492.605,-102.0826"/>
<polygon fill="#191970" stroke="#191970" points="492.7058,-105.6005 502.944,-102.8747 493.2406,-98.621 492.7058,-105.6005"/>
</g>
<!-- Node11 -->
<g id="node4" class="node">
<title>Node11</title>
<g id="a_node4"><a xlink:href="namespaceutils.html#a24a3b9c327f0dfaa73cc7819f77aba2f" target="_top" xlink:title=" ">
<polygon fill="none" stroke="#000000" points="518,-63.5 518,-82.5 700,-82.5 700,-63.5 518,-63.5"/>
<text text-anchor="middle" x="609" y="-70.5" font-family="Helvetica,sans-Serif" font-size="10.00" fill="#000000">utils::get_kiwixz_home</text>
</a>
</g>
</g>
<!-- Node9&#45;&gt;Node11 -->
<g id="edge3" class="edge">
<title>Node9&#45;&gt;Node11</title>
<path fill="none" stroke="#191970" d="M448.0868,-85.328C467.4289,-83.8462 488.0895,-82.2633 507.9378,-80.7427"/>
<polygon fill="#191970" stroke="#191970" points="508.2146,-84.2318 517.918,-79.9781 507.6798,-77.2523 508.2146,-84.2318"/>
</g>
</g>
</svg>
