<?xml version="1.0" encoding="UTF-8" standalone="no"?>
<!DOCTYPE svg PUBLIC "-//W3C//DTD SVG 1.1//EN"
 "http://www.w3.org/Graphics/SVG/1.1/DTD/svg11.dtd">
<!-- Generated by graphviz version 2.40.1 (0)
 -->
<!-- Title: leitse::anonymous_namespace{main::cpp}::main_impl Pages: 1 -->
<svg width="1128pt" height="128pt"
 viewBox="0.00 0.00 1128.00 128.00" xmlns="http://www.w3.org/2000/svg" xmlns:xlink="http://www.w3.org/1999/xlink">
<g id="graph0" class="graph" transform="scale(1 1) rotate(0) translate(4 124)">
<title>leitse::anonymous_namespace{main::cpp}::main_impl</title>
<!-- Node10 -->
<g id="node1" class="node">
<title>Node10</title>
<g id="a_node1"><a xlink:title=" ">
<polygon fill="#bfbfbf" stroke="#000000" points="0,-33 0,-63 219,-63 219,-33 0,-33"/>
<text text-anchor="start" x="8" y="-51" font-family="Helvetica,sans-Serif" font-size="10.00" fill="#000000">leitse::anonymous_namespace</text>
<text text-anchor="middle" x="109.5" y="-40" font-family="Helvetica,sans-Serif" font-size="10.00" fill="#000000">{main::cpp}::main_impl</text>
</a>
</g>
</g>
<!-- Node11 -->
<g id="node2" class="node">
<title>Node11</title>
<g id="a_node2"><a xlink:href="structconfig_1_1_config.html#a26453f75e7ce4f024b90669e437c10de" target="_top" xlink:title=" ">
<polygon fill="none" stroke="#000000" points="274,-77 274,-107 448,-107 448,-77 274,-77"/>
<text text-anchor="start" x="282" y="-95" font-family="Helvetica,sans-Serif" font-size="10.00" fill="#000000">config::Config::parse</text>
<text text-anchor="middle" x="361" y="-84" font-family="Helvetica,sans-Serif" font-size="10.00" fill="#000000">_global_config</text>
</a>
</g>
</g>
<!-- Node10&#45;&gt;Node11 -->
<g id="edge1" class="edge">
<title>Node10&#45;&gt;Node11</title>
<path fill="none" stroke="#191970" d="M195.3486,-63.0192C217.7848,-66.9445 242.1115,-71.2004 265.0367,-75.2112"/>
<polygon fill="#191970" stroke="#191970" points="264.658,-78.698 275.1116,-76.9738 265.8644,-71.8027 264.658,-78.698"/>
</g>
<!-- Node16 -->
<g id="node7" class="node">
<title>Node16</title>
<g id="a_node7"><a xlink:href="structconfig_1_1_config.html#af7d0bbe0e41a086d991fc545cc886212" target="_top" xlink:title=" ">
<polygon fill="none" stroke="#000000" points="255,-38.5 255,-57.5 467,-57.5 467,-38.5 255,-38.5"/>
<text text-anchor="middle" x="361" y="-45.5" font-family="Helvetica,sans-Serif" font-size="10.00" fill="#000000">config::Config::parse_args</text>
</a>
</g>
</g>
<!-- Node10&#45;&gt;Node16 -->
<g id="edge6" class="edge">
<title>Node10&#45;&gt;Node16</title>
<path fill="none" stroke="#191970" d="M219.0799,-48C227.6427,-48 236.3072,-48 244.911,-48"/>
<polygon fill="#191970" stroke="#191970" points="244.9735,-51.5001 254.9735,-48 244.9735,-44.5001 244.9735,-51.5001"/>
</g>
<!-- Node17 -->
<g id="node8" class="node">
<title>Node17</title>
<g id="a_node8"><a xlink:href="structconfig_1_1_config.html#ad127432ebbbbe462f3ca324f673a6d0d" target="_top" xlink:title=" ">
<polygon fill="none" stroke="#000000" points="259,-.5 259,-19.5 463,-19.5 463,-.5 259,-.5"/>
<text text-anchor="middle" x="361" y="-7.5" font-family="Helvetica,sans-Serif" font-size="10.00" fill="#000000">config::Config::show_help</text>
</a>
</g>
</g>
<!-- Node10&#45;&gt;Node17 -->
<g id="edge9" class="edge">
<title>Node10&#45;&gt;Node17</title>
<path fill="none" stroke="#191970" d="M208.8995,-32.9814C235.3274,-28.9883 263.3811,-24.7496 288.1031,-21.0142"/>
<polygon fill="#191970" stroke="#191970" points="288.754,-24.4557 298.1189,-19.5009 287.7082,-17.5343 288.754,-24.4557"/>
</g>
<!-- Node12 -->
<g id="node3" class="node">
<title>Node12</title>
<g id="a_node3"><a xlink:href="structconfig_1_1_config.html#a8eb0be2dcc2b23168834d10674330c5f" target="_top" xlink:title=" ">
<polygon fill="none" stroke="#000000" points="503,-62.5 503,-81.5 715,-81.5 715,-62.5 503,-62.5"/>
<text text-anchor="middle" x="609" y="-69.5" font-family="Helvetica,sans-Serif" font-size="10.00" fill="#000000">config::Config::parse_file</text>
</a>
</g>
</g>
<!-- Node11&#45;&gt;Node12 -->
<g id="edge2" class="edge">
<title>Node11&#45;&gt;Node12</title>
<path fill="none" stroke="#191970" d="M448.0868,-84.9769C462.4885,-83.8154 477.6211,-82.5951 492.605,-81.3867"/>
<polygon fill="#191970" stroke="#191970" points="493.2577,-84.8455 502.944,-80.5529 492.695,-77.8682 493.2577,-84.8455"/>
</g>
<!-- Node15 -->
<g id="node6" class="node">
<title>Node15</title>
<g id="a_node6"><a xlink:href="namespaceutils.html#a24a3b9c327f0dfaa73cc7819f77aba2f" target="_top" xlink:title=" ">
<polygon fill="none" stroke="#000000" points="518,-100.5 518,-119.5 700,-119.5 700,-100.5 518,-100.5"/>
<text text-anchor="middle" x="609" y="-107.5" font-family="Helvetica,sans-Serif" font-size="10.00" fill="#000000">utils::get_kiwixz_home</text>
</a>
</g>
</g>
<!-- Node11&#45;&gt;Node15 -->
<g id="edge5" class="edge">
<title>Node11&#45;&gt;Node15</title>
<path fill="none" stroke="#191970" d="M448.0868,-98.3208C467.4289,-99.7247 488.0895,-101.2242 507.9378,-102.6648"/>
<polygon fill="#191970" stroke="#191970" points="507.6908,-106.156 517.918,-103.3892 508.1976,-99.1744 507.6908,-106.156"/>
</g>
<!-- Node13 -->
<g id="node4" class="node">
<title>Node13</title>
<g id="a_node4"><a xlink:href="structconfig_1_1_config.html#a11fee93a22eea6fd3be390570f0714a7" target="_top" xlink:title=" ">
<polygon fill="none" stroke="#000000" points="751,-60 751,-90 925,-90 925,-60 751,-60"/>
<text text-anchor="start" x="759" y="-78" font-family="Helvetica,sans-Serif" font-size="10.00" fill="#000000">config::Config::parse</text>
<text text-anchor="middle" x="838" y="-67" font-family="Helvetica,sans-Serif" font-size="10.00" fill="#000000">_file_content</text>
</a>
</g>
</g>
<!-- Node12&#45;&gt;Node13 -->
<g id="edge3" class="edge">
<title>Node12&#45;&gt;Node13</title>
<path fill="none" stroke="#191970" d="M715.1204,-73.3902C723.6045,-73.5014 732.1503,-73.6133 740.5701,-73.7236"/>
<polygon fill="#191970" stroke="#191970" points="740.7202,-77.2258 750.7653,-73.8572 740.812,-70.2264 740.7202,-77.2258"/>
</g>
<!-- Node14 -->
<g id="node5" class="node">
<title>Node14</title>
<g id="a_node5"><a xlink:href="structconfig_1_1_config.html#ae876f154975287de4c120c68061bec1d" target="_top" xlink:title=" ">
<polygon fill="none" stroke="#000000" points="961,-38 961,-68 1120,-68 1120,-38 961,-38"/>
<text text-anchor="start" x="969" y="-56" font-family="Helvetica,sans-Serif" font-size="10.00" fill="#000000">config::Config::set</text>
<text text-anchor="middle" x="1040.5" y="-45" font-family="Helvetica,sans-Serif" font-size="10.00" fill="#000000">_parsed_option</text>
</a>
</g>
</g>
<!-- Node13&#45;&gt;Node14 -->
<g id="edge4" class="edge">
<title>Node13&#45;&gt;Node14</title>
<path fill="none" stroke="#191970" d="M925.0534,-65.5423C933.6057,-64.6132 942.2958,-63.6691 950.8731,-62.7372"/>
<polygon fill="#191970" stroke="#191970" points="951.3119,-66.2103 960.8754,-61.6506 950.5558,-59.2512 951.3119,-66.2103"/>
</g>
<!-- Node16&#45;&gt;Node12 -->
<g id="edge8" class="edge">
<title>Node16&#45;&gt;Node12</title>
<path fill="none" stroke="#191970" d="M459.3724,-57.5199C472.9751,-58.8363 487.008,-60.1943 500.7771,-61.5268"/>
<polygon fill="#191970" stroke="#191970" points="500.456,-65.012 510.7466,-62.4916 501.1303,-58.0446 500.456,-65.012"/>
</g>
<!-- Node16&#45;&gt;Node14 -->
<g id="edge7" class="edge">
<title>Node16&#45;&gt;Node14</title>
<path fill="none" stroke="#191970" d="M467.0313,-48.185C580.3917,-48.4715 765.4038,-49.1938 925,-51 933.3599,-51.0946 942.0599,-51.2114 950.7676,-51.3408"/>
<polygon fill="#191970" stroke="#191970" points="950.9205,-54.8434 960.9732,-51.4977 951.0282,-47.8442 950.9205,-54.8434"/>
</g>
</g>
</svg>
