<?xml version="1.0" encoding="UTF-8" standalone="no"?>
<!DOCTYPE svg PUBLIC "-//W3C//DTD SVG 1.1//EN"
 "http://www.w3.org/Graphics/SVG/1.1/DTD/svg11.dtd">
<!-- Generated by graphviz version 2.40.1 (0)
 -->
<!-- Title: leitse::anonymous_namespace{main::cpp}::main Pages: 1 -->
<svg width="978pt" height="91pt"
 viewBox="0.00 0.00 978.00 91.00" xmlns="http://www.w3.org/2000/svg" xmlns:xlink="http://www.w3.org/1999/xlink">
<g id="graph0" class="graph" transform="scale(1 1) rotate(0) translate(4 87)">
<title>leitse::anonymous_namespace{main::cpp}::main</title>
<!-- Node0 -->
<g id="node1" class="node">
<title>Node0</title>
<g id="a_node1"><a xlink:title=" ">
<polygon fill="#bfbfbf" stroke="#000000" points="0,-17 0,-47 219,-47 219,-17 0,-17"/>
<text text-anchor="start" x="8" y="-35" font-family="Helvetica,sans-Serif" font-size="10.00" fill="#000000">leitse::anonymous_namespace</text>
<text text-anchor="middle" x="109.5" y="-24" font-family="Helvetica,sans-Serif" font-size="10.00" fill="#000000">{main::cpp}::main</text>
</a>
</g>
</g>
<!-- Node1 -->
<g id="node2" class="node">
<title>Node1</title>
<g id="a_node2"><a xlink:href="namespaceleitse_1_1anonymous__namespace_02main_8cpp_03.html#a22efba3a32984564056202cc7db3f0de" target="_top" xlink:title=" ">
<polygon fill="none" stroke="#000000" points="255,-17 255,-47 474,-47 474,-17 255,-17"/>
<text text-anchor="start" x="263" y="-35" font-family="Helvetica,sans-Serif" font-size="10.00" fill="#000000">leitse::anonymous_namespace</text>
<text text-anchor="middle" x="364.5" y="-24" font-family="Helvetica,sans-Serif" font-size="10.00" fill="#000000">{main::cpp}::main_impl</text>
</a>
</g>
</g>
<!-- Node0&#45;&gt;Node1 -->
<g id="edge1" class="edge">
<title>Node0&#45;&gt;Node1</title>
<path fill="none" stroke="#191970" d="M219.1228,-32C227.6608,-32 236.3079,-32 244.9068,-32"/>
<polygon fill="#191970" stroke="#191970" points="244.9698,-35.5001 254.9697,-32 244.9697,-28.5001 244.9698,-35.5001"/>
</g>
<!-- Node2 -->
<g id="node3" class="node">
<title>Node2</title>
<g id="a_node3"><a xlink:href="structconfig_1_1_config.html#a6482bac83f43652db0483965eb44093d" target="_top" xlink:title=" ">
<polygon fill="none" stroke="#000000" points="529,-39 529,-69 703,-69 703,-39 529,-39"/>
<text text-anchor="start" x="537" y="-57" font-family="Helvetica,sans-Serif" font-size="10.00" fill="#000000">config::Config::parse</text>
<text text-anchor="middle" x="616" y="-46" font-family="Helvetica,sans-Serif" font-size="10.00" fill="#000000">_global_config</text>
</a>
</g>
</g>
<!-- Node1&#45;&gt;Node2 -->
<g id="edge2" class="edge">
<title>Node1&#45;&gt;Node2</title>
<path fill="none" stroke="#191970" d="M474.0799,-41.5855C488.9221,-42.8838 504.0698,-44.2089 518.6774,-45.4867"/>
<polygon fill="#191970" stroke="#191970" points="518.4268,-48.978 528.6937,-46.3629 519.0368,-42.0047 518.4268,-48.978"/>
</g>
<!-- Node5 -->
<g id="node6" class="node">
<title>Node5</title>
<g id="a_node6"><a xlink:href="structconfig_1_1_config.html#a34583d39bb8a2ea0d87beb9e4da3879c" target="_top" xlink:title=" ">
<polygon fill="none" stroke="#000000" points="510,-.5 510,-19.5 722,-19.5 722,-.5 510,-.5"/>
<text text-anchor="middle" x="616" y="-7.5" font-family="Helvetica,sans-Serif" font-size="10.00" fill="#000000">config::Config::parse_args</text>
</a>
</g>
</g>
<!-- Node1&#45;&gt;Node5 -->
<g id="edge5" class="edge">
<title>Node1&#45;&gt;Node5</title>
<path fill="none" stroke="#191970" d="M474.0799,-22.4145C482.6427,-21.6654 491.3072,-20.9075 499.911,-20.1549"/>
<polygon fill="#191970" stroke="#191970" points="500.3166,-23.6329 509.9735,-19.2747 499.7065,-16.6595 500.3166,-23.6329"/>
</g>
<!-- Node3 -->
<g id="node4" class="node">
<title>Node3</title>
<g id="a_node4"><a xlink:href="structconfig_1_1_config.html#a6e427255d58b3312e2941468e640db78" target="_top" xlink:title=" ">
<polygon fill="none" stroke="#000000" points="758,-63.5 758,-82.5 970,-82.5 970,-63.5 758,-63.5"/>
<text text-anchor="middle" x="864" y="-70.5" font-family="Helvetica,sans-Serif" font-size="10.00" fill="#000000">config::Config::parse_file</text>
</a>
</g>
</g>
<!-- Node2&#45;&gt;Node3 -->
<g id="edge3" class="edge">
<title>Node2&#45;&gt;Node3</title>
<path fill="none" stroke="#191970" d="M703.0868,-60.672C717.4885,-61.7753 732.6211,-62.9347 747.605,-64.0826"/>
<polygon fill="#191970" stroke="#191970" points="747.7058,-67.6005 757.944,-64.8747 748.2406,-60.621 747.7058,-67.6005"/>
</g>
<!-- Node4 -->
<g id="node5" class="node">
<title>Node4</title>
<g id="a_node5"><a xlink:href="namespaceutils.html#a24a3b9c327f0dfaa73cc7819f77aba2f" target="_top" xlink:title=" ">
<polygon fill="none" stroke="#000000" points="773,-25.5 773,-44.5 955,-44.5 955,-25.5 773,-25.5"/>
<text text-anchor="middle" x="864" y="-32.5" font-family="Helvetica,sans-Serif" font-size="10.00" fill="#000000">utils::get_kiwixz_home</text>
</a>
</g>
</g>
<!-- Node2&#45;&gt;Node4 -->
<g id="edge4" class="edge">
<title>Node2&#45;&gt;Node4</title>
<path fill="none" stroke="#191970" d="M703.0868,-47.328C722.4289,-45.8462 743.0895,-44.2633 762.9378,-42.7427"/>
<polygon fill="#191970" stroke="#191970" points="763.2146,-46.2318 772.918,-41.9781 762.6798,-39.2523 763.2146,-46.2318"/>
</g>
</g>
</svg>
