<?xml version="1.0" encoding="UTF-8" standalone="no"?>
<!DOCTYPE svg PUBLIC "-//W3C//DTD SVG 1.1//EN"
 "http://www.w3.org/Graphics/SVG/1.1/DTD/svg11.dtd">
<!-- Generated by graphviz version 2.40.1 (0)
 -->
<!-- Title: leitse::simple_download Pages: 1 -->
<svg width="610pt" height="39pt"
 viewBox="0.00 0.00 610.00 39.00" xmlns="http://www.w3.org/2000/svg" xmlns:xlink="http://www.w3.org/1999/xlink">
<g id="graph0" class="graph" transform="scale(1 1) rotate(0) translate(4 35)">
<title>leitse::simple_download</title>
<!-- Node0 -->
<g id="node1" class="node">
<title>Node0</title>
<g id="a_node1"><a xlink:title=" ">
<polygon fill="#bfbfbf" stroke="#000000" points="0,-6 0,-25 189,-25 189,-6 0,-6"/>
<text text-anchor="middle" x="94.5" y="-13" font-family="Helvetica,sans-Serif" font-size="10.00" fill="#000000">leitse::simple_download</text>
</a>
</g>
</g>
<!-- Node1 -->
<g id="node2" class="node">
<title>Node1</title>
<g id="a_node2"><a xlink:href="structleitse_1_1_simple_curl.html#a1e9c094357cc1615d6784210a5dee4be" target="_top" xlink:title=" ">
<polygon fill="none" stroke="#000000" points="225,-6 225,-25 414,-25 414,-6 225,-6"/>
<text text-anchor="middle" x="319.5" y="-13" font-family="Helvetica,sans-Serif" font-size="10.00" fill="#000000">leitse::SimpleCurl::get</text>
</a>
</g>
</g>
<!-- Node0&#45;&gt;Node1 -->
<g id="edge1" class="edge">
<title>Node0&#45;&gt;Node1</title>
<path fill="none" stroke="#191970" d="M189.2681,-15.5C197.6357,-15.5 206.1375,-15.5 214.5821,-15.5"/>
<polygon fill="#191970" stroke="#191970" points="214.8414,-19.0001 224.8413,-15.5 214.8413,-12.0001 214.8414,-19.0001"/>
</g>
<!-- Node2 -->
<g id="node3" class="node">
<title>Node2</title>
<g id="a_node3"><a xlink:href="structleitse_1_1_simple_curl.html#ac10340c2d18695d7bfda42ea15791239" target="_top" xlink:title=" ">
<polygon fill="none" stroke="#000000" points="450,-.5 450,-30.5 602,-30.5 602,-.5 450,-.5"/>
<text text-anchor="start" x="458" y="-18.5" font-family="Helvetica,sans-Serif" font-size="10.00" fill="#000000">leitse::SimpleCurl</text>
<text text-anchor="middle" x="526" y="-7.5" font-family="Helvetica,sans-Serif" font-size="10.00" fill="#000000">::check_curl</text>
</a>
</g>
</g>
<!-- Node1&#45;&gt;Node2 -->
<g id="edge2" class="edge">
<title>Node1&#45;&gt;Node2</title>
<path fill="none" stroke="#191970" d="M414.2887,-15.5C422.7311,-15.5 431.2493,-15.5 439.6158,-15.5"/>
<polygon fill="#191970" stroke="#191970" points="439.7304,-19.0001 449.7304,-15.5 439.7303,-12.0001 439.7304,-19.0001"/>
</g>
</g>
</svg>
