<?xml version="1.0" encoding="UTF-8" standalone="no"?>
<!DOCTYPE svg PUBLIC "-//W3C//DTD SVG 1.1//EN"
 "http://www.w3.org/Graphics/SVG/1.1/DTD/svg11.dtd">
<!-- Generated by graphviz version 2.40.1 (0)
 -->
<!-- Title: leitse::anonymous_namespace{main::cpp}::main Pages: 1 -->
<svg width="1406pt" height="292pt"
 viewBox="0.00 0.00 1406.00 291.50" xmlns="http://www.w3.org/2000/svg" xmlns:xlink="http://www.w3.org/1999/xlink">
<g id="graph0" class="graph" transform="scale(1 1) rotate(0) translate(4 287.5)">
<title>leitse::anonymous_namespace{main::cpp}::main</title>
<!-- Node0 -->
<g id="node1" class="node">
<title>Node0</title>
<g id="a_node1"><a xlink:title=" ">
<polygon fill="#bfbfbf" stroke="#000000" points="0,-132.5 0,-162.5 219,-162.5 219,-132.5 0,-132.5"/>
<text text-anchor="start" x="8" y="-150.5" font-family="Helvetica,sans-Serif" font-size="10.00" fill="#000000">leitse::anonymous_namespace</text>
<text text-anchor="middle" x="109.5" y="-139.5" font-family="Helvetica,sans-Serif" font-size="10.00" fill="#000000">{main::cpp}::main</text>
</a>
</g>
</g>
<!-- Node1 -->
<g id="node2" class="node">
<title>Node1</title>
<g id="a_node2"><a xlink:href="namespaceleitse_1_1anonymous__namespace_02main_8cpp_03.html#a22efba3a32984564056202cc7db3f0de" target="_top" xlink:title=" ">
<polygon fill="none" stroke="#000000" points="255,-132.5 255,-162.5 474,-162.5 474,-132.5 255,-132.5"/>
<text text-anchor="start" x="263" y="-150.5" font-family="Helvetica,sans-Serif" font-size="10.00" fill="#000000">leitse::anonymous_namespace</text>
<text text-anchor="middle" x="364.5" y="-139.5" font-family="Helvetica,sans-Serif" font-size="10.00" fill="#000000">{main::cpp}::main_impl</text>
</a>
</g>
</g>
<!-- Node0&#45;&gt;Node1 -->
<g id="edge1" class="edge">
<title>Node0&#45;&gt;Node1</title>
<path fill="none" stroke="#191970" d="M219.1228,-147.5C227.6608,-147.5 236.3079,-147.5 244.9068,-147.5"/>
<polygon fill="#191970" stroke="#191970" points="244.9698,-151.0001 254.9697,-147.5 244.9697,-144.0001 244.9698,-151.0001"/>
</g>
<!-- Node2 -->
<g id="node3" class="node">
<title>Node2</title>
<g id="a_node3"><a xlink:href="structconfig_1_1_config.html#a8d05ea9c3f473081105aadb66124f42e" target="_top" xlink:title=" ">
<polygon fill="none" stroke="#000000" points="536.5,-264 536.5,-283 695.5,-283 695.5,-264 536.5,-264"/>
<text text-anchor="middle" x="616" y="-271" font-family="Helvetica,sans-Serif" font-size="10.00" fill="#000000">config::Config::set</text>
</a>
</g>
</g>
<!-- Node1&#45;&gt;Node2 -->
<g id="edge2" class="edge">
<title>Node1&#45;&gt;Node2</title>
<path fill="none" stroke="#191970" d="M379.9742,-162.727C405.0161,-186.4149 456.9896,-231.729 510,-254.5 516.1171,-257.1276 522.5833,-259.3919 529.1833,-261.343"/>
<polygon fill="#191970" stroke="#191970" points="528.3561,-264.745 538.9235,-263.9834 530.1876,-257.9889 528.3561,-264.745"/>
</g>
<!-- Node3 -->
<g id="node4" class="node">
<title>Node3</title>
<g id="a_node4"><a xlink:href="structconfig_1_1_config.html#aa74a49a1a5b3dec46be873d829f17f30" target="_top" xlink:title=" ">
<polygon fill="none" stroke="#000000" points="529,-214.5 529,-244.5 703,-244.5 703,-214.5 529,-214.5"/>
<text text-anchor="start" x="537" y="-232.5" font-family="Helvetica,sans-Serif" font-size="10.00" fill="#000000">config::Config::parse</text>
<text text-anchor="middle" x="616" y="-221.5" font-family="Helvetica,sans-Serif" font-size="10.00" fill="#000000">_global_config</text>
</a>
</g>
</g>
<!-- Node1&#45;&gt;Node3 -->
<g id="edge3" class="edge">
<title>Node1&#45;&gt;Node3</title>
<path fill="none" stroke="#191970" d="M398.9905,-162.6135C428.1651,-175.0077 471.2828,-192.4174 510,-204.5 518.3929,-207.1192 527.2341,-209.6117 536.0838,-211.9372"/>
<polygon fill="#191970" stroke="#191970" points="535.5,-215.4005 546.0556,-214.4895 537.2358,-208.6191 535.5,-215.4005"/>
</g>
<!-- Node8 -->
<g id="node9" class="node">
<title>Node8</title>
<g id="a_node9"><a xlink:href="structconfig_1_1_config.html#af7d0bbe0e41a086d991fc545cc886212" target="_top" xlink:title=" ">
<polygon fill="none" stroke="#000000" points="510,-176 510,-195 722,-195 722,-176 510,-176"/>
<text text-anchor="middle" x="616" y="-183" font-family="Helvetica,sans-Serif" font-size="10.00" fill="#000000">config::Config::parse_args</text>
</a>
</g>
</g>
<!-- Node1&#45;&gt;Node8 -->
<g id="edge8" class="edge">
<title>Node1&#45;&gt;Node8</title>
<path fill="none" stroke="#191970" d="M463.8995,-162.5186C490.3274,-166.5117 518.3811,-170.7504 543.1031,-174.4858"/>
<polygon fill="#191970" stroke="#191970" points="542.7082,-177.9657 553.1189,-175.9991 543.754,-171.0443 542.7082,-177.9657"/>
</g>
<!-- Node9 -->
<g id="node10" class="node">
<title>Node9</title>
<g id="a_node10"><a xlink:href="structconfig_1_1_config.html#a3087984b7a3fc8346dcf392ee82dded6" target="_top" xlink:title=" ">
<polygon fill="none" stroke="#000000" points="514,-138 514,-157 718,-157 718,-138 514,-138"/>
<text text-anchor="middle" x="616" y="-145" font-family="Helvetica,sans-Serif" font-size="10.00" fill="#000000">config::Config::show_help</text>
</a>
</g>
</g>
<!-- Node1&#45;&gt;Node9 -->
<g id="edge11" class="edge">
<title>Node1&#45;&gt;Node9</title>
<path fill="none" stroke="#191970" d="M474.0799,-147.5C483.9044,-147.5 493.8627,-147.5 503.7096,-147.5"/>
<polygon fill="#191970" stroke="#191970" points="503.9206,-151.0001 513.9206,-147.5 503.9206,-144.0001 503.9206,-151.0001"/>
</g>
<!-- Node11 -->
<g id="node12" class="node">
<title>Node11</title>
<g id="a_node12"><a xlink:href="structleitse_1_1_data_dragon.html#aedd2ef4d722fb451e9e68502a47dc392" target="_top" xlink:title=" ">
<polygon fill="none" stroke="#000000" points="540,-88.5 540,-118.5 692,-118.5 692,-88.5 540,-88.5"/>
<text text-anchor="start" x="548" y="-106.5" font-family="Helvetica,sans-Serif" font-size="10.00" fill="#000000">leitse::DataDragon</text>
<text text-anchor="middle" x="616" y="-95.5" font-family="Helvetica,sans-Serif" font-size="10.00" fill="#000000">::populate</text>
</a>
</g>
</g>
<!-- Node1&#45;&gt;Node11 -->
<g id="edge13" class="edge">
<title>Node1&#45;&gt;Node11</title>
<path fill="none" stroke="#191970" d="M450.3486,-132.4808C475.976,-127.9972 504.0699,-123.0822 529.7245,-118.5939"/>
<polygon fill="#191970" stroke="#191970" points="530.5533,-122.0022 539.8005,-116.8311 529.3469,-115.1069 530.5533,-122.0022"/>
</g>
<!-- Node15 -->
<g id="node16" class="node">
<title>Node15</title>
<g id="a_node16"><a xlink:href="structconfig_1_1_config.html#a0cf9f3b97d218358b2bd62f3b94a3efb" target="_top" xlink:title=" ">
<polygon fill="none" stroke="#000000" points="536.5,-50 536.5,-69 695.5,-69 695.5,-50 536.5,-50"/>
<text text-anchor="middle" x="616" y="-57" font-family="Helvetica,sans-Serif" font-size="10.00" fill="#000000">config::Config::get</text>
</a>
</g>
</g>
<!-- Node1&#45;&gt;Node15 -->
<g id="edge18" class="edge">
<title>Node1&#45;&gt;Node15</title>
<path fill="none" stroke="#191970" d="M391.2917,-132.4764C419.8729,-117.0537 466.8754,-93.4015 510,-79.5 520.0986,-76.2447 530.9191,-73.4506 541.6474,-71.0732"/>
<polygon fill="#191970" stroke="#191970" points="542.3881,-74.494 551.4506,-69.0056 540.9435,-67.6447 542.3881,-74.494"/>
</g>
<!-- Node17 -->
<g id="node18" class="node">
<title>Node17</title>
<g id="a_node18"><a xlink:href="structleitse_1_1_data_dragon.html#a59f6a2098dde51fbd7253fe043491c4b" target="_top" xlink:title=" ">
<polygon fill="none" stroke="#000000" points="540,-.5 540,-30.5 692,-30.5 692,-.5 540,-.5"/>
<text text-anchor="start" x="548" y="-18.5" font-family="Helvetica,sans-Serif" font-size="10.00" fill="#000000">leitse::DataDragon</text>
<text text-anchor="middle" x="616" y="-7.5" font-family="Helvetica,sans-Serif" font-size="10.00" fill="#000000">::champions</text>
</a>
</g>
</g>
<!-- Node1&#45;&gt;Node17 -->
<g id="edge20" class="edge">
<title>Node1&#45;&gt;Node17</title>
<path fill="none" stroke="#191970" d="M380.5395,-132.2317C405.9425,-108.904 457.9114,-64.569 510,-40.5 516.4311,-37.5283 523.2504,-34.891 530.2064,-32.5538"/>
<polygon fill="#191970" stroke="#191970" points="531.265,-35.89 539.7531,-29.5495 529.1637,-29.2128 531.265,-35.89"/>
</g>
<!-- Node4 -->
<g id="node5" class="node">
<title>Node4</title>
<g id="a_node5"><a xlink:href="structconfig_1_1_config.html#a3210465814e32a5c7eba32e449999418" target="_top" xlink:title=" ">
<polygon fill="none" stroke="#000000" points="758,-217 758,-236 970,-236 970,-217 758,-217"/>
<text text-anchor="middle" x="864" y="-224" font-family="Helvetica,sans-Serif" font-size="10.00" fill="#000000">config::Config::parse_file</text>
</a>
</g>
</g>
<!-- Node3&#45;&gt;Node4 -->
<g id="edge4" class="edge">
<title>Node3&#45;&gt;Node4</title>
<path fill="none" stroke="#191970" d="M703.0868,-228.4465C717.4885,-228.2723 732.6211,-228.0893 747.605,-227.908"/>
<polygon fill="#191970" stroke="#191970" points="747.9871,-231.4037 757.944,-227.7829 747.9023,-224.4042 747.9871,-231.4037"/>
</g>
<!-- Node7 -->
<g id="node8" class="node">
<title>Node7</title>
<g id="a_node8"><a xlink:href="namespaceutils.html#a5064b3980eb7aa98e3daf3bb12b3c3d8" target="_top" xlink:title=" ">
<polygon fill="none" stroke="#000000" points="773,-255 773,-274 955,-274 955,-255 773,-255"/>
<text text-anchor="middle" x="864" y="-262" font-family="Helvetica,sans-Serif" font-size="10.00" fill="#000000">utils::get_kiwixz_home</text>
</a>
</g>
</g>
<!-- Node3&#45;&gt;Node7 -->
<g id="edge7" class="edge">
<title>Node3&#45;&gt;Node7</title>
<path fill="none" stroke="#191970" d="M703.0868,-241.7905C730.3134,-245.6329 760.1525,-249.8441 786.6608,-253.5852"/>
<polygon fill="#191970" stroke="#191970" points="786.2539,-257.0624 796.6449,-254.9942 787.2321,-250.1311 786.2539,-257.0624"/>
</g>
<!-- Node5 -->
<g id="node6" class="node">
<title>Node5</title>
<g id="a_node6"><a xlink:href="structconfig_1_1_config.html#afc03121b3fae6e2b06d68bfed7249ca0" target="_top" xlink:title=" ">
<polygon fill="none" stroke="#000000" points="1017.5,-214.5 1017.5,-244.5 1191.5,-244.5 1191.5,-214.5 1017.5,-214.5"/>
<text text-anchor="start" x="1025.5" y="-232.5" font-family="Helvetica,sans-Serif" font-size="10.00" fill="#000000">config::Config::parse</text>
<text text-anchor="middle" x="1104.5" y="-221.5" font-family="Helvetica,sans-Serif" font-size="10.00" fill="#000000">_file_content</text>
</a>
</g>
</g>
<!-- Node4&#45;&gt;Node5 -->
<g id="edge5" class="edge">
<title>Node4&#45;&gt;Node5</title>
<path fill="none" stroke="#191970" d="M970.1869,-227.8246C982.4753,-227.9779 994.9623,-228.1336 1007.1251,-228.2853"/>
<polygon fill="#191970" stroke="#191970" points="1007.2113,-231.7866 1017.2542,-228.4117 1007.2987,-224.7871 1007.2113,-231.7866"/>
</g>
<!-- Node6 -->
<g id="node7" class="node">
<title>Node6</title>
<g id="a_node7"><a xlink:href="structconfig_1_1_config.html#ae876f154975287de4c120c68061bec1d" target="_top" xlink:title=" ">
<polygon fill="none" stroke="#000000" points="1239,-192.5 1239,-222.5 1398,-222.5 1398,-192.5 1239,-192.5"/>
<text text-anchor="start" x="1247" y="-210.5" font-family="Helvetica,sans-Serif" font-size="10.00" fill="#000000">config::Config::set</text>
<text text-anchor="middle" x="1318.5" y="-199.5" font-family="Helvetica,sans-Serif" font-size="10.00" fill="#000000">_parsed_option</text>
</a>
</g>
</g>
<!-- Node5&#45;&gt;Node6 -->
<g id="edge6" class="edge">
<title>Node5&#45;&gt;Node6</title>
<path fill="none" stroke="#191970" d="M1191.542,-220.5518C1203.7465,-219.2971 1216.3102,-218.0055 1228.5672,-216.7454"/>
<polygon fill="#191970" stroke="#191970" points="1229.1867,-220.2003 1238.7763,-215.6959 1228.4707,-213.237 1229.1867,-220.2003"/>
</g>
<!-- Node8&#45;&gt;Node4 -->
<g id="edge10" class="edge">
<title>Node8&#45;&gt;Node4</title>
<path fill="none" stroke="#191970" d="M673.5195,-195.0093C710.1666,-201.0679 757.8127,-208.9448 796.284,-215.305"/>
<polygon fill="#191970" stroke="#191970" points="795.9264,-218.7933 806.3634,-216.9714 797.0682,-211.8871 795.9264,-218.7933"/>
</g>
<!-- Node8&#45;&gt;Node6 -->
<g id="edge9" class="edge">
<title>Node8&#45;&gt;Node6</title>
<path fill="none" stroke="#191970" d="M722.313,-188.8294C860.3975,-193.1537 1099.0473,-200.6275 1228.5749,-204.6838"/>
<polygon fill="#191970" stroke="#191970" points="1228.7493,-208.1909 1238.854,-205.0057 1228.9685,-201.1944 1228.7493,-208.1909"/>
</g>
<!-- Node10 -->
<g id="node11" class="node">
<title>Node10</title>
<g id="a_node11"><a xlink:href="structconfig_1_1_config.html#a49316e1a8542b40b71070ee569d7b424" target="_top" xlink:title=" ">
<polygon fill="none" stroke="#000000" points="780.5,-138 780.5,-157 947.5,-157 947.5,-138 780.5,-138"/>
<text text-anchor="middle" x="864" y="-145" font-family="Helvetica,sans-Serif" font-size="10.00" fill="#000000">config::Config::dump</text>
</a>
</g>
</g>
<!-- Node9&#45;&gt;Node10 -->
<g id="edge12" class="edge">
<title>Node9&#45;&gt;Node10</title>
<path fill="none" stroke="#191970" d="M718.3029,-147.5C735.4295,-147.5 753.126,-147.5 770.0302,-147.5"/>
<polygon fill="#191970" stroke="#191970" points="770.441,-151.0001 780.4409,-147.5 770.4409,-144.0001 770.441,-151.0001"/>
</g>
<!-- Node12 -->
<g id="node13" class="node">
<title>Node12</title>
<g id="a_node13"><a xlink:href="structleitse_1_1_data_dragon.html#ac8c0f976240b26536f7cd68b66780d8e" target="_top" xlink:title=" ">
<polygon fill="none" stroke="#000000" points="788,-88.5 788,-118.5 940,-118.5 940,-88.5 788,-88.5"/>
<text text-anchor="start" x="796" y="-106.5" font-family="Helvetica,sans-Serif" font-size="10.00" fill="#000000">leitse::DataDragon</text>
<text text-anchor="middle" x="864" y="-95.5" font-family="Helvetica,sans-Serif" font-size="10.00" fill="#000000">::update_version</text>
</a>
</g>
</g>
<!-- Node11&#45;&gt;Node12 -->
<g id="edge14" class="edge">
<title>Node11&#45;&gt;Node12</title>
<path fill="none" stroke="#191970" d="M692.0936,-103.5C719.1043,-103.5 749.6987,-103.5 777.5132,-103.5"/>
<polygon fill="#191970" stroke="#191970" points="777.6231,-107.0001 787.6231,-103.5 777.623,-100.0001 777.6231,-107.0001"/>
</g>
<!-- Node14 -->
<g id="node15" class="node">
<title>Node14</title>
<g id="a_node15"><a xlink:href="structleitse_1_1_data_dragon.html#ab42170e26e20cd3d715f3f3220019e7c" target="_top" xlink:title=" ">
<polygon fill="none" stroke="#000000" points="788,-39.5 788,-69.5 940,-69.5 940,-39.5 788,-39.5"/>
<text text-anchor="start" x="796" y="-57.5" font-family="Helvetica,sans-Serif" font-size="10.00" fill="#000000">leitse::DataDragon</text>
<text text-anchor="middle" x="864" y="-46.5" font-family="Helvetica,sans-Serif" font-size="10.00" fill="#000000">::fetch_data</text>
</a>
</g>
</g>
<!-- Node11&#45;&gt;Node14 -->
<g id="edge16" class="edge">
<title>Node11&#45;&gt;Node14</title>
<path fill="none" stroke="#191970" d="M692.0936,-88.4654C719.2311,-83.1035 749.9861,-77.0269 777.9048,-71.5108"/>
<polygon fill="#191970" stroke="#191970" points="778.9184,-74.8782 788.0503,-69.5062 777.5615,-68.011 778.9184,-74.8782"/>
</g>
<!-- Node13 -->
<g id="node14" class="node">
<title>Node13</title>
<g id="a_node14"><a xlink:href="namespaceleitse.html#ae6311298e57be556517a34c61b4ab025" target="_top" xlink:title=" ">
<polygon fill="none" stroke="#000000" points="1006,-70 1006,-89 1203,-89 1203,-70 1006,-70"/>
<text text-anchor="middle" x="1104.5" y="-77" font-family="Helvetica,sans-Serif" font-size="10.00" fill="#000000">leitse::checked_download</text>
</a>
</g>
</g>
<!-- Node12&#45;&gt;Node13 -->
<g id="edge15" class="edge">
<title>Node12&#45;&gt;Node13</title>
<path fill="none" stroke="#191970" d="M940.0957,-95.9063C958.8141,-94.0383 979.19,-92.0049 999.0217,-90.0259"/>
<polygon fill="#191970" stroke="#191970" points="999.4132,-93.5043 1009.0162,-89.0285 998.7181,-86.5389 999.4132,-93.5043"/>
</g>
<!-- Node14&#45;&gt;Node13 -->
<g id="edge17" class="edge">
<title>Node14&#45;&gt;Node13</title>
<path fill="none" stroke="#191970" d="M940.0957,-62.4102C959.9639,-64.4755 981.6996,-66.7349 1002.6698,-68.9147"/>
<polygon fill="#191970" stroke="#191970" points="1002.5829,-72.4245 1012.8912,-69.9773 1003.3067,-65.462 1002.5829,-72.4245"/>
</g>
<!-- Node16 -->
<g id="node17" class="node">
<title>Node16</title>
<g id="a_node17"><a xlink:href="structconfig_1_1_config.html#ab957d0cdfdedba7a80d5459bb72d6f08" target="_top" xlink:title=" ">
<polygon fill="none" stroke="#000000" points="769.5,-1 769.5,-20 958.5,-20 958.5,-1 769.5,-1"/>
<text text-anchor="middle" x="864" y="-8" font-family="Helvetica,sans-Serif" font-size="10.00" fill="#000000">config::Config::get_raw</text>
</a>
</g>
</g>
<!-- Node15&#45;&gt;Node16 -->
<g id="edge19" class="edge">
<title>Node15&#45;&gt;Node16</title>
<path fill="none" stroke="#191970" d="M671.2011,-49.9981C687.6096,-46.9279 705.5842,-43.3214 722,-39.5 738.1734,-35.735 741.8096,-33.1912 758,-29.5 770.0101,-26.7619 782.8594,-24.1746 795.3205,-21.842"/>
<polygon fill="#191970" stroke="#191970" points="796.0033,-25.2752 805.2074,-20.0278 794.7399,-18.3902 796.0033,-25.2752"/>
</g>
</g>
</svg>
