<?xml version="1.0" encoding="UTF-8" standalone="no"?>
<!DOCTYPE svg PUBLIC "-//W3C//DTD SVG 1.1//EN"
 "http://www.w3.org/Graphics/SVG/1.1/DTD/svg11.dtd">
<!-- Generated by graphviz version 2.40.1 (0)
 -->
<!-- Title: utils/paths.cpp Pages: 1 -->
<svg width="632pt" height="140pt"
 viewBox="0.00 0.00 631.50 140.00" xmlns="http://www.w3.org/2000/svg" xmlns:xlink="http://www.w3.org/1999/xlink">
<g id="graph0" class="graph" transform="scale(1 1) rotate(0) translate(4 136)">
<title>utils/paths.cpp</title>
<!-- Node0 -->
<g id="node1" class="node">
<title>Node0</title>
<g id="a_node1"><a xlink:title=" ">
<polygon fill="#bfbfbf" stroke="#000000" points="356.5,-112.5 356.5,-131.5 485.5,-131.5 485.5,-112.5 356.5,-112.5"/>
<text text-anchor="middle" x="421" y="-119.5" font-family="Helvetica,sans-Serif" font-size="10.00" fill="#000000">utils/paths.cpp</text>
</a>
</g>
</g>
<!-- Node1 -->
<g id="node2" class="node">
<title>Node1</title>
<g id="a_node2"><a xlink:href="paths_8h.html" target="_top" xlink:title=" ">
<polygon fill="none" stroke="#000000" points="84,-56.5 84,-75.5 198,-75.5 198,-56.5 84,-56.5"/>
<text text-anchor="middle" x="141" y="-63.5" font-family="Helvetica,sans-Serif" font-size="10.00" fill="#000000">utils/paths.h</text>
</a>
</g>
</g>
<!-- Node0&#45;&gt;Node1 -->
<g id="edge1" class="edge">
<title>Node0&#45;&gt;Node1</title>
<path fill="none" stroke="#191970" d="M373.1844,-112.4369C324.8619,-102.7724 250.1628,-87.8326 198.6064,-77.5213"/>
<polygon fill="#191970" stroke="#191970" points="199.1106,-74.0529 188.6184,-75.5237 197.7377,-80.9169 199.1106,-74.0529"/>
</g>
<!-- Node4 -->
<g id="node5" class="node">
<title>Node4</title>
<g id="a_node5"><a xlink:href="scope__exit_8h.html" target="_top" xlink:title=" ">
<polygon fill="none" stroke="#000000" points="216,-56.5 216,-75.5 368,-75.5 368,-56.5 216,-56.5"/>
<text text-anchor="middle" x="292" y="-63.5" font-family="Helvetica,sans-Serif" font-size="10.00" fill="#000000">utils/scope_exit.h</text>
</a>
</g>
</g>
<!-- Node0&#45;&gt;Node4 -->
<g id="edge4" class="edge">
<title>Node0&#45;&gt;Node4</title>
<path fill="none" stroke="#191970" d="M398.8241,-112.3733C378.0234,-103.3435 346.7083,-89.7494 323.3542,-79.6111"/>
<polygon fill="#191970" stroke="#191970" points="324.4532,-76.2727 313.8865,-75.5011 321.6657,-82.6938 324.4532,-76.2727"/>
</g>
<!-- Node6 -->
<g id="node7" class="node">
<title>Node6</title>
<g id="a_node7"><a xlink:title=" ">
<polygon fill="none" stroke="#bfbfbf" points="386.5,-56.5 386.5,-75.5 455.5,-75.5 455.5,-56.5 386.5,-56.5"/>
<text text-anchor="middle" x="421" y="-63.5" font-family="Helvetica,sans-Serif" font-size="10.00" fill="#000000">cstdlib</text>
</a>
</g>
</g>
<!-- Node0&#45;&gt;Node6 -->
<g id="edge6" class="edge">
<title>Node0&#45;&gt;Node6</title>
<path fill="none" stroke="#191970" d="M421,-112.2455C421,-104.9382 421,-94.6944 421,-85.7046"/>
<polygon fill="#191970" stroke="#191970" points="424.5001,-85.6426 421,-75.6427 417.5001,-85.6427 424.5001,-85.6426"/>
</g>
<!-- Node7 -->
<g id="node8" class="node">
<title>Node7</title>
<g id="a_node8"><a xlink:title=" ">
<polygon fill="none" stroke="#bfbfbf" points="474,-56.5 474,-75.5 528,-75.5 528,-56.5 474,-56.5"/>
<text text-anchor="middle" x="501" y="-63.5" font-family="Helvetica,sans-Serif" font-size="10.00" fill="#000000">pwd.h</text>
</a>
</g>
</g>
<!-- Node0&#45;&gt;Node7 -->
<g id="edge7" class="edge">
<title>Node0&#45;&gt;Node7</title>
<path fill="none" stroke="#191970" d="M434.9349,-112.2455C447.0947,-103.7337 464.9464,-91.2375 479.0285,-81.3801"/>
<polygon fill="#191970" stroke="#191970" points="481.0395,-84.2447 487.2248,-75.6427 477.0253,-78.51 481.0395,-84.2447"/>
</g>
<!-- Node8 -->
<g id="node9" class="node">
<title>Node8</title>
<g id="a_node9"><a xlink:title=" ">
<polygon fill="none" stroke="#bfbfbf" points="546.5,-56.5 546.5,-75.5 623.5,-75.5 623.5,-56.5 546.5,-56.5"/>
<text text-anchor="middle" x="585" y="-63.5" font-family="Helvetica,sans-Serif" font-size="10.00" fill="#000000">unistd.h</text>
</a>
</g>
</g>
<!-- Node0&#45;&gt;Node8 -->
<g id="edge8" class="edge">
<title>Node0&#45;&gt;Node8</title>
<path fill="none" stroke="#191970" d="M449.1926,-112.3733C476.3453,-103.1016 517.5907,-89.0178 547.5025,-78.804"/>
<polygon fill="#191970" stroke="#191970" points="548.8428,-82.0449 557.1753,-75.5011 546.5808,-75.4204 548.8428,-82.0449"/>
</g>
<!-- Node2 -->
<g id="node3" class="node">
<title>Node2</title>
<g id="a_node3"><a xlink:title=" ">
<polygon fill="none" stroke="#bfbfbf" points="0,-.5 0,-19.5 92,-19.5 92,-.5 0,-.5"/>
<text text-anchor="middle" x="46" y="-7.5" font-family="Helvetica,sans-Serif" font-size="10.00" fill="#000000">filesystem</text>
</a>
</g>
</g>
<!-- Node1&#45;&gt;Node2 -->
<g id="edge2" class="edge">
<title>Node1&#45;&gt;Node2</title>
<path fill="none" stroke="#191970" d="M124.4523,-56.2455C109.7401,-47.5731 88.0112,-34.7645 71.1495,-24.825"/>
<polygon fill="#191970" stroke="#191970" points="72.7502,-21.7057 62.3581,-19.6427 69.1954,-27.736 72.7502,-21.7057"/>
</g>
<!-- Node3 -->
<g id="node4" class="node">
<title>Node3</title>
<g id="a_node4"><a xlink:title=" ">
<polygon fill="none" stroke="#bfbfbf" points="110.5,-.5 110.5,-19.5 209.5,-19.5 209.5,-.5 110.5,-.5"/>
<text text-anchor="middle" x="160" y="-7.5" font-family="Helvetica,sans-Serif" font-size="10.00" fill="#000000">string_view</text>
</a>
</g>
</g>
<!-- Node1&#45;&gt;Node3 -->
<g id="edge3" class="edge">
<title>Node1&#45;&gt;Node3</title>
<path fill="none" stroke="#191970" d="M144.3095,-56.2455C146.8433,-48.7776 150.4177,-38.2427 153.515,-29.1137"/>
<polygon fill="#191970" stroke="#191970" points="156.8298,-30.237 156.7284,-19.6427 150.2009,-27.9879 156.8298,-30.237"/>
</g>
<!-- Node5 -->
<g id="node6" class="node">
<title>Node5</title>
<g id="a_node6"><a xlink:title=" ">
<polygon fill="none" stroke="#bfbfbf" points="246,-.5 246,-19.5 338,-19.5 338,-.5 246,-.5"/>
<text text-anchor="middle" x="292" y="-7.5" font-family="Helvetica,sans-Serif" font-size="10.00" fill="#000000">functional</text>
</a>
</g>
</g>
<!-- Node4&#45;&gt;Node5 -->
<g id="edge5" class="edge">
<title>Node4&#45;&gt;Node5</title>
<path fill="none" stroke="#191970" d="M292,-56.2455C292,-48.9382 292,-38.6944 292,-29.7046"/>
<polygon fill="#191970" stroke="#191970" points="295.5001,-29.6426 292,-19.6427 288.5001,-29.6427 295.5001,-29.6426"/>
</g>
</g>
</svg>
