<?xml version="1.0" encoding="UTF-8" standalone="no"?>
<!DOCTYPE svg PUBLIC "-//W3C//DTD SVG 1.1//EN"
 "http://www.w3.org/Graphics/SVG/1.1/DTD/svg11.dtd">
<!-- Generated by graphviz version 2.40.1 (0)
 -->
<!-- Title: leitse/simple_curl.cpp Pages: 1 -->
<svg width="525pt" height="252pt"
 viewBox="0.00 0.00 524.50 252.00" xmlns="http://www.w3.org/2000/svg" xmlns:xlink="http://www.w3.org/1999/xlink">
<g id="graph0" class="graph" transform="scale(1 1) rotate(0) translate(4 248)">
<title>leitse/simple_curl.cpp</title>
<!-- Node0 -->
<g id="node1" class="node">
<title>Node0</title>
<g id="a_node1"><a xlink:title=" ">
<polygon fill="#bfbfbf" stroke="#000000" points="270.5,-224.5 270.5,-243.5 452.5,-243.5 452.5,-224.5 270.5,-224.5"/>
<text text-anchor="middle" x="361.5" y="-231.5" font-family="Helvetica,sans-Serif" font-size="10.00" fill="#000000">leitse/simple_curl.cpp</text>
</a>
</g>
</g>
<!-- Node1 -->
<g id="node2" class="node">
<title>Node1</title>
<g id="a_node2"><a xlink:href="simple__curl_8h.html" target="_top" xlink:title=" ">
<polygon fill="none" stroke="#000000" points="175.5,-168.5 175.5,-187.5 289.5,-187.5 289.5,-168.5 175.5,-168.5"/>
<text text-anchor="middle" x="232.5" y="-175.5" font-family="Helvetica,sans-Serif" font-size="10.00" fill="#000000">simple_curl.h</text>
</a>
</g>
</g>
<!-- Node0&#45;&gt;Node1 -->
<g id="edge1" class="edge">
<title>Node0&#45;&gt;Node1</title>
<path fill="none" stroke="#191970" d="M339.3241,-224.3733C318.5234,-215.3435 287.2083,-201.7494 263.8542,-191.6111"/>
<polygon fill="#191970" stroke="#191970" points="264.9532,-188.2727 254.3865,-187.5011 262.1657,-194.6938 264.9532,-188.2727"/>
</g>
<!-- Node8 -->
<g id="node9" class="node">
<title>Node8</title>
<g id="a_node9"><a xlink:title=" ">
<polygon fill="none" stroke="#bfbfbf" points="308,-168.5 308,-187.5 415,-187.5 415,-168.5 308,-168.5"/>
<text text-anchor="middle" x="361.5" y="-175.5" font-family="Helvetica,sans-Serif" font-size="10.00" fill="#000000">fmt/format.h</text>
</a>
</g>
</g>
<!-- Node0&#45;&gt;Node8 -->
<g id="edge8" class="edge">
<title>Node0&#45;&gt;Node8</title>
<path fill="none" stroke="#191970" d="M361.5,-224.2455C361.5,-216.9382 361.5,-206.6944 361.5,-197.7046"/>
<polygon fill="#191970" stroke="#191970" points="365.0001,-197.6426 361.5,-187.6427 358.0001,-197.6427 365.0001,-197.6426"/>
</g>
<!-- Node9 -->
<g id="node10" class="node">
<title>Node9</title>
<g id="a_node10"><a xlink:title=" ">
<polygon fill="none" stroke="#bfbfbf" points="432.5,-168.5 432.5,-187.5 516.5,-187.5 516.5,-168.5 432.5,-168.5"/>
<text text-anchor="middle" x="474.5" y="-175.5" font-family="Helvetica,sans-Serif" font-size="10.00" fill="#000000">stdexcept</text>
</a>
</g>
</g>
<!-- Node0&#45;&gt;Node9 -->
<g id="edge9" class="edge">
<title>Node0&#45;&gt;Node9</title>
<path fill="none" stroke="#191970" d="M380.9254,-224.3733C398.9021,-215.4644 425.8441,-202.1127 446.209,-192.0203"/>
<polygon fill="#191970" stroke="#191970" points="447.9222,-195.0776 455.3281,-187.5011 444.8139,-188.8055 447.9222,-195.0776"/>
</g>
<!-- Node2 -->
<g id="node3" class="node">
<title>Node2</title>
<g id="a_node3"><a xlink:href="curl__handle_8h.html" target="_top" xlink:title=" ">
<polygon fill="none" stroke="#000000" points="69.5,-112.5 69.5,-131.5 183.5,-131.5 183.5,-112.5 69.5,-112.5"/>
<text text-anchor="middle" x="126.5" y="-119.5" font-family="Helvetica,sans-Serif" font-size="10.00" fill="#000000">curl_handle.h</text>
</a>
</g>
</g>
<!-- Node1&#45;&gt;Node2 -->
<g id="edge2" class="edge">
<title>Node1&#45;&gt;Node2</title>
<path fill="none" stroke="#191970" d="M214.0362,-168.2455C197.3926,-159.4527 172.7007,-146.4079 153.7808,-136.4125"/>
<polygon fill="#191970" stroke="#191970" points="155.2291,-133.2193 144.7522,-131.6427 151.9592,-139.4086 155.2291,-133.2193"/>
</g>
<!-- Node6 -->
<g id="node7" class="node">
<title>Node6</title>
<g id="a_node7"><a xlink:title=" ">
<polygon fill="none" stroke="#bfbfbf" points="201.5,-112.5 201.5,-131.5 263.5,-131.5 263.5,-112.5 201.5,-112.5"/>
<text text-anchor="middle" x="232.5" y="-119.5" font-family="Helvetica,sans-Serif" font-size="10.00" fill="#000000">string</text>
</a>
</g>
</g>
<!-- Node1&#45;&gt;Node6 -->
<g id="edge6" class="edge">
<title>Node1&#45;&gt;Node6</title>
<path fill="none" stroke="#191970" d="M232.5,-168.2455C232.5,-160.9382 232.5,-150.6944 232.5,-141.7046"/>
<polygon fill="#191970" stroke="#191970" points="236.0001,-141.6426 232.5,-131.6427 229.0001,-141.6427 236.0001,-141.6426"/>
</g>
<!-- Node7 -->
<g id="node8" class="node">
<title>Node7</title>
<g id="a_node8"><a xlink:title=" ">
<polygon fill="none" stroke="#bfbfbf" points="282,-112.5 282,-131.5 381,-131.5 381,-112.5 282,-112.5"/>
<text text-anchor="middle" x="331.5" y="-119.5" font-family="Helvetica,sans-Serif" font-size="10.00" fill="#000000">string_view</text>
</a>
</g>
</g>
<!-- Node1&#45;&gt;Node7 -->
<g id="edge7" class="edge">
<title>Node1&#45;&gt;Node7</title>
<path fill="none" stroke="#191970" d="M249.7445,-168.2455C265.0761,-159.5731 287.7199,-146.7645 305.2916,-136.825"/>
<polygon fill="#191970" stroke="#191970" points="307.4724,-139.6126 314.4531,-131.6427 304.0259,-133.5198 307.4724,-139.6126"/>
</g>
<!-- Node3 -->
<g id="node4" class="node">
<title>Node3</title>
<g id="a_node4"><a xlink:title=" ">
<polygon fill="none" stroke="#bfbfbf" points="0,-56.5 0,-75.5 99,-75.5 99,-56.5 0,-56.5"/>
<text text-anchor="middle" x="49.5" y="-63.5" font-family="Helvetica,sans-Serif" font-size="10.00" fill="#000000">curl/curl.h</text>
</a>
</g>
</g>
<!-- Node2&#45;&gt;Node3 -->
<g id="edge3" class="edge">
<title>Node2&#45;&gt;Node3</title>
<path fill="none" stroke="#191970" d="M113.0876,-112.2455C101.4943,-103.814 84.5252,-91.4729 71.0322,-81.6598"/>
<polygon fill="#191970" stroke="#191970" points="72.9047,-78.6938 62.7587,-75.6427 68.7874,-84.355 72.9047,-78.6938"/>
</g>
<!-- Node4 -->
<g id="node5" class="node">
<title>Node4</title>
<g id="a_node5"><a xlink:href="shared__handle_8h.html" target="_top" xlink:title=" ">
<polygon fill="none" stroke="#000000" points="117.5,-56.5 117.5,-75.5 291.5,-75.5 291.5,-56.5 117.5,-56.5"/>
<text text-anchor="middle" x="204.5" y="-63.5" font-family="Helvetica,sans-Serif" font-size="10.00" fill="#000000">utils/shared_handle.h</text>
</a>
</g>
</g>
<!-- Node2&#45;&gt;Node4 -->
<g id="edge4" class="edge">
<title>Node2&#45;&gt;Node4</title>
<path fill="none" stroke="#191970" d="M140.0866,-112.2455C151.8305,-103.814 169.0199,-91.4729 182.6882,-81.6598"/>
<polygon fill="#191970" stroke="#191970" points="184.9871,-84.3179 191.0691,-75.6427 180.9046,-78.6316 184.9871,-84.3179"/>
</g>
<!-- Node5 -->
<g id="node6" class="node">
<title>Node5</title>
<g id="a_node6"><a xlink:title=" ">
<polygon fill="none" stroke="#bfbfbf" points="173.5,-.5 173.5,-19.5 235.5,-19.5 235.5,-.5 173.5,-.5"/>
<text text-anchor="middle" x="204.5" y="-7.5" font-family="Helvetica,sans-Serif" font-size="10.00" fill="#000000">memory</text>
</a>
</g>
</g>
<!-- Node4&#45;&gt;Node5 -->
<g id="edge5" class="edge">
<title>Node4&#45;&gt;Node5</title>
<path fill="none" stroke="#191970" d="M204.5,-56.2455C204.5,-48.9382 204.5,-38.6944 204.5,-29.7046"/>
<polygon fill="#191970" stroke="#191970" points="208.0001,-29.6426 204.5,-19.6427 201.0001,-29.6427 208.0001,-29.6426"/>
</g>
</g>
</svg>
