<?xml version="1.0" encoding="UTF-8" standalone="no"?>
<!DOCTYPE svg PUBLIC "-//W3C//DTD SVG 1.1//EN"
 "http://www.w3.org/Graphics/SVG/1.1/DTD/svg11.dtd">
<!-- Generated by graphviz version 2.40.1 (0)
 -->
<!-- Title: leitse/simple_curl.h Pages: 1 -->
<svg width="368pt" height="84pt"
 viewBox="0.00 0.00 367.50 84.00" xmlns="http://www.w3.org/2000/svg" xmlns:xlink="http://www.w3.org/1999/xlink">
<g id="graph0" class="graph" transform="scale(1 1) rotate(0) translate(4 80)">
<title>leitse/simple_curl.h</title>
<!-- Node7 -->
<g id="node1" class="node">
<title>Node7</title>
<g id="a_node1"><a xlink:title=" ">
<polygon fill="#bfbfbf" stroke="#000000" points="90,-56.5 90,-75.5 257,-75.5 257,-56.5 90,-56.5"/>
<text text-anchor="middle" x="173.5" y="-63.5" font-family="Helvetica,sans-Serif" font-size="10.00" fill="#000000">leitse/simple_curl.h</text>
</a>
</g>
</g>
<!-- Node8 -->
<g id="node2" class="node">
<title>Node8</title>
<g id="a_node2"><a xlink:href="download_8cpp.html" target="_top" xlink:title=" ">
<polygon fill="none" stroke="#000000" points="0,-.5 0,-19.5 159,-19.5 159,-.5 0,-.5"/>
<text text-anchor="middle" x="79.5" y="-7.5" font-family="Helvetica,sans-Serif" font-size="10.00" fill="#000000">leitse/download.cpp</text>
</a>
</g>
</g>
<!-- Node7&#45;&gt;Node8 -->
<g id="edge1" class="edge">
<title>Node7&#45;&gt;Node8</title>
<path fill="none" stroke="#191970" d="M148.3995,-51.0465C131.674,-41.0824 110.1832,-28.2794 95.6859,-19.6427"/>
<polygon fill="#191970" stroke="#191970" points="146.7441,-54.1343 157.1264,-56.2455 150.3268,-48.1206 146.7441,-54.1343"/>
</g>
<!-- Node9 -->
<g id="node3" class="node">
<title>Node9</title>
<g id="a_node3"><a xlink:href="simple__curl_8cpp.html" target="_top" xlink:title=" ">
<polygon fill="none" stroke="#000000" points="177.5,-.5 177.5,-19.5 359.5,-19.5 359.5,-.5 177.5,-.5"/>
<text text-anchor="middle" x="268.5" y="-7.5" font-family="Helvetica,sans-Serif" font-size="10.00" fill="#000000">leitse/simple_curl.cpp</text>
</a>
</g>
</g>
<!-- Node7&#45;&gt;Node9 -->
<g id="edge2" class="edge">
<title>Node7&#45;&gt;Node9</title>
<path fill="none" stroke="#191970" d="M198.8676,-51.0465C215.771,-41.0824 237.4904,-28.2794 252.1419,-19.6427"/>
<polygon fill="#191970" stroke="#191970" points="196.8851,-48.1522 190.0477,-56.2455 200.4398,-54.1825 196.8851,-48.1522"/>
</g>
</g>
</svg>
