<?xml version="1.0" encoding="UTF-8" standalone="no"?>
<!DOCTYPE svg PUBLIC "-//W3C//DTD SVG 1.1//EN"
 "http://www.w3.org/Graphics/SVG/1.1/DTD/svg11.dtd">
<!-- Generated by graphviz version 2.40.1 (0)
 -->
<!-- Title: leitse/simple_curl.h Pages: 1 -->
<svg width="389pt" height="196pt"
 viewBox="0.00 0.00 389.00 196.00" xmlns="http://www.w3.org/2000/svg" xmlns:xlink="http://www.w3.org/1999/xlink">
<g id="graph0" class="graph" transform="scale(1 1) rotate(0) translate(4 192)">
<title>leitse/simple_curl.h</title>
<!-- Node0 -->
<g id="node1" class="node">
<title>Node0</title>
<g id="a_node1"><a xlink:title=" ">
<polygon fill="#bfbfbf" stroke="#000000" points="149,-168.5 149,-187.5 316,-187.5 316,-168.5 149,-168.5"/>
<text text-anchor="middle" x="232.5" y="-175.5" font-family="Helvetica,sans-Serif" font-size="10.00" fill="#000000">leitse/simple_curl.h</text>
</a>
</g>
</g>
<!-- Node1 -->
<g id="node2" class="node">
<title>Node1</title>
<g id="a_node2"><a xlink:href="curl__handle_8h.html" target="_top" xlink:title=" ">
<polygon fill="none" stroke="#000000" points="69.5,-112.5 69.5,-131.5 183.5,-131.5 183.5,-112.5 69.5,-112.5"/>
<text text-anchor="middle" x="126.5" y="-119.5" font-family="Helvetica,sans-Serif" font-size="10.00" fill="#000000">curl_handle.h</text>
</a>
</g>
</g>
<!-- Node0&#45;&gt;Node1 -->
<g id="edge1" class="edge">
<title>Node0&#45;&gt;Node1</title>
<path fill="none" stroke="#191970" d="M214.0362,-168.2455C197.3926,-159.4527 172.7007,-146.4079 153.7808,-136.4125"/>
<polygon fill="#191970" stroke="#191970" points="155.2291,-133.2193 144.7522,-131.6427 151.9592,-139.4086 155.2291,-133.2193"/>
</g>
<!-- Node5 -->
<g id="node6" class="node">
<title>Node5</title>
<g id="a_node6"><a xlink:title=" ">
<polygon fill="none" stroke="#bfbfbf" points="201.5,-112.5 201.5,-131.5 263.5,-131.5 263.5,-112.5 201.5,-112.5"/>
<text text-anchor="middle" x="232.5" y="-119.5" font-family="Helvetica,sans-Serif" font-size="10.00" fill="#000000">string</text>
</a>
</g>
</g>
<!-- Node0&#45;&gt;Node5 -->
<g id="edge5" class="edge">
<title>Node0&#45;&gt;Node5</title>
<path fill="none" stroke="#191970" d="M232.5,-168.2455C232.5,-160.9382 232.5,-150.6944 232.5,-141.7046"/>
<polygon fill="#191970" stroke="#191970" points="236.0001,-141.6426 232.5,-131.6427 229.0001,-141.6427 236.0001,-141.6426"/>
</g>
<!-- Node6 -->
<g id="node7" class="node">
<title>Node6</title>
<g id="a_node7"><a xlink:title=" ">
<polygon fill="none" stroke="#bfbfbf" points="282,-112.5 282,-131.5 381,-131.5 381,-112.5 282,-112.5"/>
<text text-anchor="middle" x="331.5" y="-119.5" font-family="Helvetica,sans-Serif" font-size="10.00" fill="#000000">string_view</text>
</a>
</g>
</g>
<!-- Node0&#45;&gt;Node6 -->
<g id="edge6" class="edge">
<title>Node0&#45;&gt;Node6</title>
<path fill="none" stroke="#191970" d="M249.7445,-168.2455C265.0761,-159.5731 287.7199,-146.7645 305.2916,-136.825"/>
<polygon fill="#191970" stroke="#191970" points="307.4724,-139.6126 314.4531,-131.6427 304.0259,-133.5198 307.4724,-139.6126"/>
</g>
<!-- Node2 -->
<g id="node3" class="node">
<title>Node2</title>
<g id="a_node3"><a xlink:title=" ">
<polygon fill="none" stroke="#bfbfbf" points="0,-56.5 0,-75.5 99,-75.5 99,-56.5 0,-56.5"/>
<text text-anchor="middle" x="49.5" y="-63.5" font-family="Helvetica,sans-Serif" font-size="10.00" fill="#000000">curl/curl.h</text>
</a>
</g>
</g>
<!-- Node1&#45;&gt;Node2 -->
<g id="edge2" class="edge">
<title>Node1&#45;&gt;Node2</title>
<path fill="none" stroke="#191970" d="M113.0876,-112.2455C101.4943,-103.814 84.5252,-91.4729 71.0322,-81.6598"/>
<polygon fill="#191970" stroke="#191970" points="72.9047,-78.6938 62.7587,-75.6427 68.7874,-84.355 72.9047,-78.6938"/>
</g>
<!-- Node3 -->
<g id="node4" class="node">
<title>Node3</title>
<g id="a_node4"><a xlink:href="shared__handle_8h.html" target="_top" xlink:title=" ">
<polygon fill="none" stroke="#000000" points="117.5,-56.5 117.5,-75.5 291.5,-75.5 291.5,-56.5 117.5,-56.5"/>
<text text-anchor="middle" x="204.5" y="-63.5" font-family="Helvetica,sans-Serif" font-size="10.00" fill="#000000">utils/shared_handle.h</text>
</a>
</g>
</g>
<!-- Node1&#45;&gt;Node3 -->
<g id="edge3" class="edge">
<title>Node1&#45;&gt;Node3</title>
<path fill="none" stroke="#191970" d="M140.0866,-112.2455C151.8305,-103.814 169.0199,-91.4729 182.6882,-81.6598"/>
<polygon fill="#191970" stroke="#191970" points="184.9871,-84.3179 191.0691,-75.6427 180.9046,-78.6316 184.9871,-84.3179"/>
</g>
<!-- Node4 -->
<g id="node5" class="node">
<title>Node4</title>
<g id="a_node5"><a xlink:title=" ">
<polygon fill="none" stroke="#bfbfbf" points="173.5,-.5 173.5,-19.5 235.5,-19.5 235.5,-.5 173.5,-.5"/>
<text text-anchor="middle" x="204.5" y="-7.5" font-family="Helvetica,sans-Serif" font-size="10.00" fill="#000000">memory</text>
</a>
</g>
</g>
<!-- Node3&#45;&gt;Node4 -->
<g id="edge4" class="edge">
<title>Node3&#45;&gt;Node4</title>
<path fill="none" stroke="#191970" d="M204.5,-56.2455C204.5,-48.9382 204.5,-38.6944 204.5,-29.7046"/>
<polygon fill="#191970" stroke="#191970" points="208.0001,-29.6426 204.5,-19.6427 201.0001,-29.6427 208.0001,-29.6426"/>
</g>
</g>
</svg>
