<?xml version="1.0" encoding="UTF-8" standalone="no"?>
<!DOCTYPE svg PUBLIC "-//W3C//DTD SVG 1.1//EN"
 "http://www.w3.org/Graphics/SVG/1.1/DTD/svg11.dtd">
<!-- Generated by graphviz version 2.40.1 (0)
 -->
<!-- Title: config::Config::set_parsed_option Pages: 1 -->
<svg width="1383pt" height="112pt"
 viewBox="0.00 0.00 1383.00 111.50" xmlns="http://www.w3.org/2000/svg" xmlns:xlink="http://www.w3.org/1999/xlink">
<g id="graph0" class="graph" transform="scale(1 1) rotate(0) translate(4 107.5)">
<title>config::Config::set_parsed_option</title>
<!-- Node63 -->
<g id="node1" class="node">
<title>Node63</title>
<g id="a_node1"><a xlink:title=" ">
<polygon fill="#bfbfbf" stroke="#000000" points="1216,-17 1216,-47 1375,-47 1375,-17 1216,-17"/>
<text text-anchor="start" x="1224" y="-35" font-family="Helvetica,sans-Serif" font-size="10.00" fill="#000000">config::Config::set</text>
<text text-anchor="middle" x="1295.5" y="-24" font-family="Helvetica,sans-Serif" font-size="10.00" fill="#000000">_parsed_option</text>
</a>
</g>
</g>
<!-- Node64 -->
<g id="node2" class="node">
<title>Node64</title>
<g id="a_node2"><a xlink:href="structconfig_1_1_config.html#af7d0bbe0e41a086d991fc545cc886212" target="_top" xlink:title=" ">
<polygon fill="none" stroke="#000000" points="510,-.5 510,-19.5 722,-19.5 722,-.5 510,-.5"/>
<text text-anchor="middle" x="616" y="-7.5" font-family="Helvetica,sans-Serif" font-size="10.00" fill="#000000">config::Config::parse_args</text>
</a>
</g>
</g>
<!-- Node63&#45;&gt;Node64 -->
<g id="edge1" class="edge">
<title>Node63&#45;&gt;Node64</title>
<path fill="none" stroke="#191970" d="M1205.6014,-29.0894C1080.7391,-25.0467 855.2091,-17.7448 722.2056,-13.4386"/>
<polygon fill="#191970" stroke="#191970" points="1205.7809,-32.5969 1215.889,-29.4225 1206.0075,-25.6006 1205.7809,-32.5969"/>
</g>
<!-- Node68 -->
<g id="node6" class="node">
<title>Node68</title>
<g id="a_node6"><a xlink:href="structconfig_1_1_config.html#a11fee93a22eea6fd3be390570f0714a7" target="_top" xlink:title=" ">
<polygon fill="none" stroke="#000000" points="1006,-39 1006,-69 1180,-69 1180,-39 1006,-39"/>
<text text-anchor="start" x="1014" y="-57" font-family="Helvetica,sans-Serif" font-size="10.00" fill="#000000">config::Config::parse</text>
<text text-anchor="middle" x="1093" y="-46" font-family="Helvetica,sans-Serif" font-size="10.00" fill="#000000">_file_content</text>
</a>
</g>
</g>
<!-- Node63&#45;&gt;Node68 -->
<g id="edge5" class="edge">
<title>Node63&#45;&gt;Node68</title>
<path fill="none" stroke="#191970" d="M1205.7776,-41.7476C1197.2201,-42.6773 1188.5514,-43.6191 1180.0201,-44.546"/>
<polygon fill="#191970" stroke="#191970" points="1206.1939,-45.2231 1215.7573,-40.6634 1205.4378,-38.264 1206.1939,-45.2231"/>
</g>
<!-- Node65 -->
<g id="node3" class="node">
<title>Node65</title>
<g id="a_node3"><a xlink:href="namespaceconfig_1_1test.html#aaecf6f168613d97556ee5a67a4da8192" target="_top" xlink:title=" ">
<polygon fill="none" stroke="#000000" points="288.5,-73 288.5,-103 440.5,-103 440.5,-73 288.5,-73"/>
<text text-anchor="start" x="296.5" y="-91" font-family="Helvetica,sans-Serif" font-size="10.00" fill="#000000">config::test::TEST</text>
<text text-anchor="middle" x="364.5" y="-80" font-family="Helvetica,sans-Serif" font-size="10.00" fill="#000000">_SUITE</text>
</a>
</g>
</g>
<!-- Node64&#45;&gt;Node65 -->
<g id="edge2" class="edge">
<title>Node64&#45;&gt;Node65</title>
<path fill="none" stroke="#191970" d="M530.931,-22.0196C523.7437,-24.0031 516.6773,-26.3122 510,-29 492.1613,-36.1805 491.3262,-44.6585 474,-53 457.636,-60.8782 439.0696,-67.5781 421.9342,-72.9418"/>
<polygon fill="#191970" stroke="#191970" points="531.9545,-25.3708 540.7818,-19.5117 530.2273,-18.5872 531.9545,-25.3708"/>
</g>
<!-- Node66 -->
<g id="node4" class="node">
<title>Node66</title>
<g id="a_node4"><a xlink:href="namespaceleitse_1_1anonymous__namespace_02main_8cpp_03.html#a22efba3a32984564056202cc7db3f0de" target="_top" xlink:title=" ">
<polygon fill="none" stroke="#000000" points="255,-14 255,-44 474,-44 474,-14 255,-14"/>
<text text-anchor="start" x="263" y="-32" font-family="Helvetica,sans-Serif" font-size="10.00" fill="#000000">leitse::anonymous_namespace</text>
<text text-anchor="middle" x="364.5" y="-21" font-family="Helvetica,sans-Serif" font-size="10.00" fill="#000000">{main::cpp}::main_impl</text>
</a>
</g>
</g>
<!-- Node64&#45;&gt;Node66 -->
<g id="edge3" class="edge">
<title>Node64&#45;&gt;Node66</title>
<path fill="none" stroke="#191970" d="M499.7057,-18.7857C491.156,-19.4316 482.5476,-20.0819 474.0399,-20.7246"/>
<polygon fill="#191970" stroke="#191970" points="499.998,-22.2736 509.7059,-18.0302 499.4706,-15.2935 499.998,-22.2736"/>
</g>
<!-- Node67 -->
<g id="node5" class="node">
<title>Node67</title>
<g id="a_node5"><a xlink:href="namespaceleitse_1_1anonymous__namespace_02main_8cpp_03.html#a79fa099cfa983c75df11f0a42e7586e4" target="_top" xlink:title=" ">
<polygon fill="none" stroke="#000000" points="0,-14 0,-44 219,-44 219,-14 0,-14"/>
<text text-anchor="start" x="8" y="-32" font-family="Helvetica,sans-Serif" font-size="10.00" fill="#000000">leitse::anonymous_namespace</text>
<text text-anchor="middle" x="109.5" y="-21" font-family="Helvetica,sans-Serif" font-size="10.00" fill="#000000">{main::cpp}::main</text>
</a>
</g>
</g>
<!-- Node66&#45;&gt;Node67 -->
<g id="edge4" class="edge">
<title>Node66&#45;&gt;Node67</title>
<path fill="none" stroke="#191970" d="M244.8136,-29C236.2143,-29 227.5675,-29 219.0303,-29"/>
<polygon fill="#191970" stroke="#191970" points="244.8772,-32.5001 254.8772,-29 244.8771,-25.5001 244.8772,-32.5001"/>
</g>
<!-- Node68&#45;&gt;Node65 -->
<g id="edge10" class="edge">
<title>Node68&#45;&gt;Node65</title>
<path fill="none" stroke="#191970" d="M995.6615,-70.2124C987.0008,-71.2983 978.3532,-72.2545 970,-73 780.1634,-89.9429 555.6163,-90.4135 440.6697,-89.2438"/>
<polygon fill="#191970" stroke="#191970" points="996.3565,-73.6514 1005.8176,-68.883 995.4479,-66.7106 996.3565,-73.6514"/>
</g>
<!-- Node69 -->
<g id="node7" class="node">
<title>Node69</title>
<g id="a_node7"><a xlink:href="structconfig_1_1_config.html#a8eb0be2dcc2b23168834d10674330c5f" target="_top" xlink:title=" ">
<polygon fill="none" stroke="#000000" points="758,-44.5 758,-63.5 970,-63.5 970,-44.5 758,-44.5"/>
<text text-anchor="middle" x="864" y="-51.5" font-family="Helvetica,sans-Serif" font-size="10.00" fill="#000000">config::Config::parse_file</text>
</a>
</g>
</g>
<!-- Node68&#45;&gt;Node69 -->
<g id="edge6" class="edge">
<title>Node68&#45;&gt;Node69</title>
<path fill="none" stroke="#191970" d="M995.6002,-54C987.2001,-54 978.6743,-54 970.2093,-54"/>
<polygon fill="#191970" stroke="#191970" points="995.7717,-57.5001 1005.7717,-54 995.7716,-50.5001 995.7717,-57.5001"/>
</g>
<!-- Node69&#45;&gt;Node64 -->
<g id="edge7" class="edge">
<title>Node69&#45;&gt;Node64</title>
<path fill="none" stroke="#191970" d="M800.1655,-42.6745C759.731,-35.5007 708.0309,-26.3281 669.7073,-19.5287"/>
<polygon fill="#191970" stroke="#191970" points="799.73,-46.1518 810.1877,-44.4527 800.9529,-39.2595 799.73,-46.1518"/>
</g>
<!-- Node70 -->
<g id="node8" class="node">
<title>Node70</title>
<g id="a_node8"><a xlink:href="structconfig_1_1_config.html#a26453f75e7ce4f024b90669e437c10de" target="_top" xlink:title=" ">
<polygon fill="none" stroke="#000000" points="529,-39 529,-69 703,-69 703,-39 529,-39"/>
<text text-anchor="start" x="537" y="-57" font-family="Helvetica,sans-Serif" font-size="10.00" fill="#000000">config::Config::parse</text>
<text text-anchor="middle" x="616" y="-46" font-family="Helvetica,sans-Serif" font-size="10.00" fill="#000000">_global_config</text>
</a>
</g>
</g>
<!-- Node69&#45;&gt;Node70 -->
<g id="edge8" class="edge">
<title>Node69&#45;&gt;Node70</title>
<path fill="none" stroke="#191970" d="M747.4972,-54C732.6444,-54 717.6475,-54 703.3633,-54"/>
<polygon fill="#191970" stroke="#191970" points="747.7465,-57.5001 757.7464,-54 747.7464,-50.5001 747.7465,-57.5001"/>
</g>
<!-- Node70&#45;&gt;Node66 -->
<g id="edge9" class="edge">
<title>Node70&#45;&gt;Node66</title>
<path fill="none" stroke="#191970" d="M518.7407,-44.3321C504.1529,-42.882 489.0251,-41.3782 474.1999,-39.9046"/>
<polygon fill="#191970" stroke="#191970" points="518.4461,-47.82 528.7433,-45.3264 519.1386,-40.8543 518.4461,-47.82"/>
</g>
</g>
</svg>
