<?xml version="1.0" encoding="UTF-8" standalone="no"?>
<!DOCTYPE svg PUBLIC "-//W3C//DTD SVG 1.1//EN"
 "http://www.w3.org/Graphics/SVG/1.1/DTD/svg11.dtd">
<!-- Generated by graphviz version 2.40.1 (0)
 -->
<!-- Title: leitse::SimpleCurl Pages: 1 -->
<svg width="1784pt" height="139pt"
 viewBox="0.00 0.00 1784.00 138.50" xmlns="http://www.w3.org/2000/svg" xmlns:xlink="http://www.w3.org/1999/xlink">
<g id="graph0" class="graph" transform="scale(1 1) rotate(0) translate(4 134.5)">
<title>leitse::SimpleCurl</title>
<!-- Node1 -->
<g id="node1" class="node">
<title>Node1</title>
<g id="a_node1"><a xlink:title=" ">
<polygon fill="#bfbfbf" stroke="#000000" points="1624,-76 1624,-95 1776,-95 1776,-76 1624,-76"/>
<text text-anchor="middle" x="1700" y="-83" font-family="Helvetica,sans-Serif" font-size="10.00" fill="#000000">leitse::SimpleCurl</text>
</a>
</g>
</g>
<!-- Node2 -->
<g id="node2" class="node">
<title>Node2</title>
<g id="a_node2"><a xlink:title=" ">
<polygon fill="none" stroke="#bfbfbf" points="687,-89 687,-130 869,-130 869,-89 687,-89"/>
<text text-anchor="start" x="695" y="-118" font-family="Helvetica,sans-Serif" font-size="10.00" fill="#000000">std::unique_ptr&lt; CURL,</text>
<text text-anchor="start" x="695" y="-107" font-family="Helvetica,sans-Serif" font-size="10.00" fill="#000000"> leitse::SimpleCurl::</text>
<text text-anchor="middle" x="778" y="-96" font-family="Helvetica,sans-Serif" font-size="10.00" fill="#000000">CurlDeleter &gt;</text>
</a>
</g>
</g>
<!-- Node2&#45;&gt;Node1 -->
<g id="edge1" class="edge">
<title>Node2&#45;&gt;Node1</title>
<path fill="none" stroke="#9a32cd" stroke-dasharray="5,2" d="M879.0823,-109.1753C1035.1322,-108.2787 1344.0815,-104.932 1606,-92.5 1611.8029,-92.2246 1617.804,-91.8909 1623.8368,-91.5205"/>
<polygon fill="#9a32cd" stroke="#9a32cd" points="879.0073,-105.6756 869.0268,-109.2309 879.0461,-112.6755 879.0073,-105.6756"/>
<text text-anchor="middle" x="1147" y="-109.5" font-family="Helvetica,sans-Serif" font-size="10.00" fill="#000000"> ptr_</text>
</g>
<!-- Node3 -->
<g id="node3" class="node">
<title>Node3</title>
<g id="a_node3"><a xlink:title="STL class.">
<polygon fill="none" stroke="#bfbfbf" points="281,-99 281,-118 448,-118 448,-99 281,-99"/>
<text text-anchor="middle" x="364.5" y="-106" font-family="Helvetica,sans-Serif" font-size="10.00" fill="#000000">std::unique_ptr&lt; T &gt;</text>
</a>
</g>
</g>
<!-- Node3&#45;&gt;Node2 -->
<g id="edge2" class="edge">
<title>Node3&#45;&gt;Node2</title>
<path fill="none" stroke="#ffa500" stroke-dasharray="5,2" d="M458.5245,-108.7274C526.9694,-108.8929 619.1544,-109.1159 686.9078,-109.2797"/>
<polygon fill="#ffa500" stroke="#ffa500" points="458.1864,-105.2267 448.1779,-108.7024 458.1694,-112.2266 458.1864,-105.2267"/>
<text text-anchor="start" x="466" y="-122.5" font-family="Helvetica,sans-Serif" font-size="10.00" fill="#000000"> &lt; CURL, leitse::SimpleCurl</text>
<text text-anchor="middle" x="567.5" y="-111.5" font-family="Helvetica,sans-Serif" font-size="10.00" fill="#000000">::CurlDeleter &gt;</text>
</g>
<!-- Node4 -->
<g id="node4" class="node">
<title>Node4</title>
<g id="a_node4"><a xlink:title=" ">
<polygon fill="none" stroke="#bfbfbf" points="0,-80 0,-99 29,-99 29,-80 0,-80"/>
<text text-anchor="middle" x="14.5" y="-87" font-family="Helvetica,sans-Serif" font-size="10.00" fill="#000000">T</text>
</a>
</g>
</g>
<!-- Node4&#45;&gt;Node3 -->
<g id="edge3" class="edge">
<title>Node4&#45;&gt;Node3</title>
<path fill="none" stroke="#9a32cd" stroke-dasharray="5,2" d="M39.185,-90.84C88.6819,-93.527 202.0632,-99.682 280.9556,-103.9647"/>
<polygon fill="#9a32cd" stroke="#9a32cd" points="39.2685,-87.3395 29.0935,-90.2922 38.889,-94.3292 39.2685,-87.3395"/>
<text text-anchor="middle" x="62.5" y="-95.5" font-family="Helvetica,sans-Serif" font-size="10.00" fill="#000000"> ptr</text>
</g>
<!-- Node7 -->
<g id="node7" class="node">
<title>Node7</title>
<g id="a_node7"><a xlink:title="STL class.">
<polygon fill="none" stroke="#bfbfbf" points="96,-60 96,-79 263,-79 263,-60 96,-60"/>
<text text-anchor="middle" x="179.5" y="-67" font-family="Helvetica,sans-Serif" font-size="10.00" fill="#000000">std::shared_ptr&lt; T &gt;</text>
</a>
</g>
</g>
<!-- Node4&#45;&gt;Node7 -->
<g id="edge7" class="edge">
<title>Node4&#45;&gt;Node7</title>
<path fill="none" stroke="#9a32cd" stroke-dasharray="5,2" d="M38.3427,-78.0886C41.2102,-77.0589 44.1373,-76.1582 47,-75.5 62.5968,-71.9139 79.4908,-69.8327 95.8281,-68.7036"/>
<polygon fill="#9a32cd" stroke="#9a32cd" points="36.9258,-74.8867 29.003,-81.921 39.5831,-81.3627 36.9258,-74.8867"/>
<text text-anchor="middle" x="62.5" y="-78.5" font-family="Helvetica,sans-Serif" font-size="10.00" fill="#000000"> ptr</text>
</g>
<!-- Node5 -->
<g id="node5" class="node">
<title>Node5</title>
<g id="a_node5"><a xlink:href="structutils_1_1_shared_handle.html" target="_top" xlink:title=" ">
<polygon fill="none" stroke="#000000" points="1248,-40 1248,-81 1490,-81 1490,-40 1248,-40"/>
<text text-anchor="start" x="1256" y="-69" font-family="Helvetica,sans-Serif" font-size="10.00" fill="#000000">utils::SharedHandle</text>
<text text-anchor="start" x="1256" y="-58" font-family="Helvetica,sans-Serif" font-size="10.00" fill="#000000">&lt;&amp;details_curl_handle</text>
<text text-anchor="middle" x="1369" y="-47" font-family="Helvetica,sans-Serif" font-size="10.00" fill="#000000">::init, &amp;curl_global_cleanup &gt;</text>
</a>
</g>
</g>
<!-- Node5&#45;&gt;Node1 -->
<g id="edge4" class="edge">
<title>Node5&#45;&gt;Node1</title>
<path fill="none" stroke="#9a32cd" stroke-dasharray="5,2" d="M1500.3849,-70.4233C1542.2837,-73.5879 1587.232,-76.9828 1623.8477,-79.7483"/>
<polygon fill="#9a32cd" stroke="#9a32cd" points="1500.6079,-66.9303 1490.3727,-69.6671 1500.0806,-73.9104 1500.6079,-66.9303"/>
<text text-anchor="middle" x="1557" y="-80.5" font-family="Helvetica,sans-Serif" font-size="10.00" fill="#000000"> curl_handle_</text>
</g>
<!-- Node6 -->
<g id="node6" class="node">
<title>Node6</title>
<g id="a_node6"><a xlink:title=" ">
<polygon fill="none" stroke="#bfbfbf" points="473,-54 473,-73 662,-73 662,-54 473,-54"/>
<text text-anchor="middle" x="567.5" y="-61" font-family="Helvetica,sans-Serif" font-size="10.00" fill="#000000">std::shared_ptr&lt; void &gt;</text>
</a>
</g>
</g>
<!-- Node6&#45;&gt;Node5 -->
<g id="edge5" class="edge">
<title>Node6&#45;&gt;Node5</title>
<path fill="none" stroke="#9a32cd" stroke-dasharray="5,2" d="M672.2188,-63.108C820.4971,-62.553 1091.0052,-61.5405 1247.7863,-60.9537"/>
<polygon fill="#9a32cd" stroke="#9a32cd" points="672.181,-59.6081 662.1942,-63.1456 672.2073,-66.608 672.181,-59.6081"/>
<text text-anchor="middle" x="966.5" y="-65.5" font-family="Helvetica,sans-Serif" font-size="10.00" fill="#000000"> instance_</text>
</g>
<!-- Node8 -->
<g id="node8" class="node">
<title>Node8</title>
<g id="a_node8"><a xlink:href="structutils_1_1_shared_handle.html" target="_top" xlink:title=" ">
<polygon fill="none" stroke="#000000" points="887,-.5 887,-30.5 1046,-30.5 1046,-.5 887,-.5"/>
<text text-anchor="start" x="895" y="-18.5" font-family="Helvetica,sans-Serif" font-size="10.00" fill="#000000">utils::SharedHandle</text>
<text text-anchor="middle" x="966.5" y="-7.5" font-family="Helvetica,sans-Serif" font-size="10.00" fill="#000000">&lt; TInit, TCleanup &gt;</text>
</a>
</g>
</g>
<!-- Node6&#45;&gt;Node8 -->
<g id="edge9" class="edge">
<title>Node6&#45;&gt;Node8</title>
<path fill="none" stroke="#9a32cd" stroke-dasharray="5,2" d="M626.8712,-52.1292C646.0158,-48.7142 667.3612,-45.17 687,-42.5 754.145,-33.3711 830.7756,-26.1956 886.7956,-21.5436"/>
<polygon fill="#9a32cd" stroke="#9a32cd" points="626.003,-48.7293 616.785,-53.9521 627.2481,-55.6177 626.003,-48.7293"/>
<text text-anchor="middle" x="778" y="-45.5" font-family="Helvetica,sans-Serif" font-size="10.00" fill="#000000"> instance_</text>
</g>
<!-- Node7&#45;&gt;Node6 -->
<g id="edge6" class="edge">
<title>Node7&#45;&gt;Node6</title>
<path fill="none" stroke="#ffa500" stroke-dasharray="5,2" d="M273.5108,-68.0462C333.9178,-67.1121 412.1242,-65.9027 472.6878,-64.9662"/>
<polygon fill="#ffa500" stroke="#ffa500" points="273.1572,-64.5512 263.2125,-68.2055 273.2655,-71.5503 273.1572,-64.5512"/>
<text text-anchor="middle" x="364.5" y="-70.5" font-family="Helvetica,sans-Serif" font-size="10.00" fill="#000000"> &lt; void &gt;</text>
</g>
<!-- Node8&#45;&gt;Node5 -->
<g id="edge8" class="edge">
<title>Node8&#45;&gt;Node5</title>
<path fill="none" stroke="#ffa500" stroke-dasharray="5,2" d="M1056.2691,-11.4283C1107.4506,-10.5461 1172.6323,-11.854 1230,-20.5 1256.8173,-24.5417 1285.7465,-32.2923 1310.2328,-39.9032"/>
<polygon fill="#ffa500" stroke="#ffa500" points="1056.1527,-7.9298 1046.2259,-11.6324 1056.295,-14.9284 1056.1527,-7.9298"/>
<text text-anchor="start" x="1064" y="-45.5" font-family="Helvetica,sans-Serif" font-size="10.00" fill="#000000"> &lt;&amp;details_curl_handle</text>
<text text-anchor="start" x="1064" y="-34.5" font-family="Helvetica,sans-Serif" font-size="10.00" fill="#000000">::init, &amp;curl_global</text>
<text text-anchor="middle" x="1147" y="-23.5" font-family="Helvetica,sans-Serif" font-size="10.00" fill="#000000">_cleanup &gt;</text>
</g>
</g>
</svg>
