<?xml version="1.0" encoding="UTF-8" standalone="no"?>
<!DOCTYPE svg PUBLIC "-//W3C//DTD SVG 1.1//EN"
 "http://www.w3.org/Graphics/SVG/1.1/DTD/svg11.dtd">
<!-- Generated by graphviz version 2.40.1 (0)
 -->
<!-- Title: leitse::ItemSet Pages: 1 -->
<svg width="547pt" height="475pt"
 viewBox="0.00 0.00 546.50 475.00" xmlns="http://www.w3.org/2000/svg" xmlns:xlink="http://www.w3.org/1999/xlink">
<g id="graph0" class="graph" transform="scale(1 1) rotate(0) translate(4 471)">
<title>leitse::ItemSet</title>
<!-- Node1 -->
<g id="node1" class="node">
<title>Node1</title>
<g id="a_node1"><a xlink:title=" ">
<polygon fill="#bfbfbf" stroke="#000000" points="0,-.5 0,-19.5 129,-19.5 129,-.5 0,-.5"/>
<text text-anchor="middle" x="64.5" y="-7.5" font-family="Helvetica,sans-Serif" font-size="10.00" fill="#000000">leitse::ItemSet</text>
</a>
</g>
</g>
<!-- Node2 -->
<g id="node2" class="node">
<title>Node2</title>
<g id="a_node2"><a xlink:title=" ">
<polygon fill="none" stroke="#bfbfbf" points="101,-67.5 101,-97.5 260,-97.5 260,-67.5 101,-67.5"/>
<text text-anchor="start" x="109" y="-85.5" font-family="Helvetica,sans-Serif" font-size="10.00" fill="#000000">std::vector&lt; leitse</text>
<text text-anchor="middle" x="180.5" y="-74.5" font-family="Helvetica,sans-Serif" font-size="10.00" fill="#000000">::ItemSet::Block &gt;</text>
</a>
</g>
</g>
<!-- Node2&#45;&gt;Node1 -->
<g id="edge1" class="edge">
<title>Node2&#45;&gt;Node1</title>
<path fill="none" stroke="#9a32cd" stroke-dasharray="5,2" d="M147.9814,-62.1759C125.7491,-48.2807 97.2822,-30.4889 79.992,-19.6825"/>
<polygon fill="#9a32cd" stroke="#9a32cd" points="146.1297,-65.1459 156.4647,-67.478 149.8397,-59.2099 146.1297,-65.1459"/>
<text text-anchor="middle" x="157" y="-41" font-family="Helvetica,sans-Serif" font-size="10.00" fill="#000000"> blocks_</text>
</g>
<!-- Node3 -->
<g id="node3" class="node">
<title>Node3</title>
<g id="a_node3"><a xlink:href="structleitse_1_1_item_set_1_1_block.html" target="_top" xlink:title=" ">
<polygon fill="none" stroke="#000000" points="89.5,-145.5 89.5,-164.5 271.5,-164.5 271.5,-145.5 89.5,-145.5"/>
<text text-anchor="middle" x="180.5" y="-152.5" font-family="Helvetica,sans-Serif" font-size="10.00" fill="#000000">leitse::ItemSet::Block</text>
</a>
</g>
</g>
<!-- Node3&#45;&gt;Node2 -->
<g id="edge2" class="edge">
<title>Node3&#45;&gt;Node2</title>
<path fill="none" stroke="#9a32cd" stroke-dasharray="5,2" d="M180.5,-135.0177C180.5,-123.2164 180.5,-108.513 180.5,-97.668"/>
<polygon fill="#9a32cd" stroke="#9a32cd" points="177.0001,-135.2223 180.5,-145.2223 184.0001,-135.2224 177.0001,-135.2223"/>
<text text-anchor="middle" x="214.5" y="-119" font-family="Helvetica,sans-Serif" font-size="10.00" fill="#000000"> elements</text>
</g>
<!-- Node4 -->
<g id="node4" class="node">
<title>Node4</title>
<g id="a_node4"><a xlink:title=" ">
<polygon fill="none" stroke="#bfbfbf" points="137,-223.5 137,-253.5 296,-253.5 296,-223.5 137,-223.5"/>
<text text-anchor="start" x="145" y="-241.5" font-family="Helvetica,sans-Serif" font-size="10.00" fill="#000000">std::vector&lt; leitse</text>
<text text-anchor="middle" x="216.5" y="-230.5" font-family="Helvetica,sans-Serif" font-size="10.00" fill="#000000">::ItemSet::Item &gt;</text>
</a>
</g>
</g>
<!-- Node4&#45;&gt;Node3 -->
<g id="edge3" class="edge">
<title>Node4&#45;&gt;Node3</title>
<path fill="none" stroke="#9a32cd" stroke-dasharray="5,2" d="M205.7519,-213.5704C198.6369,-197.0675 189.7067,-176.3544 184.5968,-164.5023"/>
<polygon fill="#9a32cd" stroke="#9a32cd" points="202.7239,-215.3876 209.897,-223.1848 209.1519,-212.6162 202.7239,-215.3876"/>
<text text-anchor="middle" x="225.5" y="-191.5" font-family="Helvetica,sans-Serif" font-size="10.00" fill="#000000"> items</text>
</g>
<!-- Node5 -->
<g id="node5" class="node">
<title>Node5</title>
<g id="a_node5"><a xlink:href="structleitse_1_1_item_set_1_1_item.html" target="_top" xlink:title=" ">
<polygon fill="none" stroke="#000000" points="137.5,-312.5 137.5,-331.5 311.5,-331.5 311.5,-312.5 137.5,-312.5"/>
<text text-anchor="middle" x="224.5" y="-319.5" font-family="Helvetica,sans-Serif" font-size="10.00" fill="#000000">leitse::ItemSet::Item</text>
</a>
</g>
</g>
<!-- Node5&#45;&gt;Node4 -->
<g id="edge4" class="edge">
<title>Node5&#45;&gt;Node4</title>
<path fill="none" stroke="#9a32cd" stroke-dasharray="5,2" d="M202.3651,-305.5515C199.1662,-302.1127 196.3385,-298.2308 194.5,-294 188.6341,-280.5014 196.0446,-264.9017 203.8078,-253.685"/>
<polygon fill="#9a32cd" stroke="#9a32cd" points="199.9968,-308.1287 209.7208,-312.3353 204.7425,-302.9829 199.9968,-308.1287"/>
<text text-anchor="middle" x="228.5" y="-280.5" font-family="Helvetica,sans-Serif" font-size="10.00" fill="#000000"> elements</text>
</g>
<!-- Node6 -->
<g id="node6" class="node">
<title>Node6</title>
<g id="a_node6"><a xlink:title="STL class.">
<polygon fill="none" stroke="#bfbfbf" points="60,-379.5 60,-398.5 159,-398.5 159,-379.5 60,-379.5"/>
<text text-anchor="middle" x="109.5" y="-386.5" font-family="Helvetica,sans-Serif" font-size="10.00" fill="#000000">std::string</text>
</a>
</g>
</g>
<!-- Node6&#45;&gt;Node1 -->
<g id="edge11" class="edge">
<title>Node6&#45;&gt;Node1</title>
<path fill="none" stroke="#9a32cd" stroke-dasharray="5,2" d="M83.4563,-373.8904C66.876,-362.1265 48.5,-344.1029 48.5,-322 48.5,-322 48.5,-322 48.5,-82.5 48.5,-59.5564 56.2354,-33.4679 60.9491,-19.7002"/>
<polygon fill="#9a32cd" stroke="#9a32cd" points="81.5877,-376.8508 91.8563,-379.46 85.456,-371.0168 81.5877,-376.8508"/>
<text text-anchor="middle" x="71.5" y="-191.5" font-family="Helvetica,sans-Serif" font-size="10.00" fill="#000000"> name_</text>
</g>
<!-- Node6&#45;&gt;Node3 -->
<g id="edge9" class="edge">
<title>Node6&#45;&gt;Node3</title>
<path fill="none" stroke="#9a32cd" stroke-dasharray="5,2" d="M108.2241,-368.9124C106.9303,-336.8127 107.4273,-272.53 127.5,-223 137.0571,-199.4176 157.2931,-177.169 169.8105,-164.8821"/>
<polygon fill="#9a32cd" stroke="#9a32cd" points="104.7436,-369.3869 108.7488,-379.1956 111.7345,-369.0301 104.7436,-369.3869"/>
<text text-anchor="middle" x="133.5" y="-280.5" font-family="Helvetica,sans-Serif" font-size="10.00" fill="#000000"> name</text>
</g>
<!-- Node6&#45;&gt;Node5 -->
<g id="edge5" class="edge">
<title>Node6&#45;&gt;Node5</title>
<path fill="none" stroke="#9a32cd" stroke-dasharray="5,2" d="M134.8841,-374.211C157.1724,-361.2256 188.9385,-342.7184 208.0539,-331.5817"/>
<polygon fill="#9a32cd" stroke="#9a32cd" points="132.8553,-371.3423 125.9767,-379.4005 136.3792,-377.3906 132.8553,-371.3423"/>
<text text-anchor="middle" x="186" y="-353" font-family="Helvetica,sans-Serif" font-size="10.00" fill="#000000"> id</text>
</g>
<!-- Node7 -->
<g id="node7" class="node">
<title>Node7</title>
<g id="a_node7"><a xlink:title="STL class.">
<polygon fill="none" stroke="#bfbfbf" points="33.5,-436.5 33.5,-466.5 185.5,-466.5 185.5,-436.5 33.5,-436.5"/>
<text text-anchor="start" x="41.5" y="-454.5" font-family="Helvetica,sans-Serif" font-size="10.00" fill="#000000">std::basic_string&lt;</text>
<text text-anchor="middle" x="109.5" y="-443.5" font-family="Helvetica,sans-Serif" font-size="10.00" fill="#000000"> char &gt;</text>
</a>
</g>
</g>
<!-- Node7&#45;&gt;Node6 -->
<g id="edge6" class="edge">
<title>Node7&#45;&gt;Node6</title>
<path fill="none" stroke="#191970" d="M109.5,-426.3498C109.5,-416.6481 109.5,-406.1303 109.5,-398.7356"/>
<polygon fill="#191970" stroke="#191970" points="106.0001,-426.3705 109.5,-436.3705 113.0001,-426.3705 106.0001,-426.3705"/>
</g>
<!-- Node8 -->
<g id="node8" class="node">
<title>Node8</title>
<g id="a_node8"><a xlink:title="STL class.">
<polygon fill="none" stroke="#bfbfbf" points="356,-312.5 356,-331.5 493,-331.5 493,-312.5 356,-312.5"/>
<text text-anchor="middle" x="424.5" y="-319.5" font-family="Helvetica,sans-Serif" font-size="10.00" fill="#000000">std::vector&lt; T &gt;</text>
</a>
</g>
</g>
<!-- Node8&#45;&gt;Node2 -->
<g id="edge10" class="edge">
<title>Node8&#45;&gt;Node2</title>
<path fill="none" stroke="#ffa500" stroke-dasharray="5,2" d="M434.711,-303.2995C438.5783,-293.6466 441.067,-281.8595 436.5,-272 393.9683,-180.1801 281.4272,-122.7992 220.7021,-97.5403"/>
<polygon fill="#ffa500" stroke="#ffa500" points="431.512,-301.8775 430.4196,-312.4158 437.8454,-304.8588 431.512,-301.8775"/>
<text text-anchor="start" x="387.5" y="-197" font-family="Helvetica,sans-Serif" font-size="10.00" fill="#000000"> &lt; leitse::ItemSet::</text>
<text text-anchor="middle" x="463" y="-186" font-family="Helvetica,sans-Serif" font-size="10.00" fill="#000000">Block &gt;</text>
</g>
<!-- Node8&#45;&gt;Node4 -->
<g id="edge7" class="edge">
<title>Node8&#45;&gt;Node4</title>
<path fill="none" stroke="#ffa500" stroke-dasharray="5,2" d="M349.4739,-310.6979C323.0839,-305.9188 297.1109,-300.0592 285.5,-294 272.9593,-287.4556 273.3527,-281.0729 262.5,-272 254.9204,-265.6634 246.2433,-259.1656 238.4827,-253.5994"/>
<polygon fill="#ffa500" stroke="#ffa500" points="349.1244,-314.1901 359.5795,-312.4748 350.3367,-307.2959 349.1244,-314.1901"/>
<text text-anchor="start" x="285.5" y="-286" font-family="Helvetica,sans-Serif" font-size="10.00" fill="#000000"> &lt; leitse::ItemSet::</text>
<text text-anchor="middle" x="361" y="-275" font-family="Helvetica,sans-Serif" font-size="10.00" fill="#000000">Item &gt;</text>
</g>
<!-- Node9 -->
<g id="node9" class="node">
<title>Node9</title>
<g id="a_node9"><a xlink:title=" ">
<polygon fill="none" stroke="#bfbfbf" points="410,-379.5 410,-398.5 439,-398.5 439,-379.5 410,-379.5"/>
<text text-anchor="middle" x="424.5" y="-386.5" font-family="Helvetica,sans-Serif" font-size="10.00" fill="#000000">T</text>
</a>
</g>
</g>
<!-- Node9&#45;&gt;Node8 -->
<g id="edge8" class="edge">
<title>Node9&#45;&gt;Node8</title>
<path fill="none" stroke="#9a32cd" stroke-dasharray="5,2" d="M424.5,-369.1079C424.5,-356.714 424.5,-341.3263 424.5,-331.5817"/>
<polygon fill="#9a32cd" stroke="#9a32cd" points="421.0001,-369.4005 424.5,-379.4005 428.0001,-369.4006 421.0001,-369.4005"/>
<text text-anchor="middle" x="458.5" y="-353" font-family="Helvetica,sans-Serif" font-size="10.00" fill="#000000"> elements</text>
</g>
</g>
</svg>
