<?xml version="1.0" encoding="UTF-8" standalone="no"?>
<!DOCTYPE svg PUBLIC "-//W3C//DTD SVG 1.1//EN"
 "http://www.w3.org/Graphics/SVG/1.1/DTD/svg11.dtd">
<!-- Generated by graphviz version 2.40.1 (0)
 -->
<!-- Title: leitse::aggregators::Ugg::itemsets Pages: 1 -->
<svg width="805pt" height="83pt"
 viewBox="0.00 0.00 805.00 83.00" xmlns="http://www.w3.org/2000/svg" xmlns:xlink="http://www.w3.org/1999/xlink">
<g id="graph0" class="graph" transform="scale(1 1) rotate(0) translate(4 79)">
<title>leitse::aggregators::Ugg::itemsets</title>
<!-- Node5 -->
<g id="node1" class="node">
<title>Node5</title>
<g id="a_node1"><a xlink:title=" ">
<polygon fill="#bfbfbf" stroke="#000000" points="0,-22.5 0,-52.5 159,-52.5 159,-22.5 0,-22.5"/>
<text text-anchor="start" x="8" y="-40.5" font-family="Helvetica,sans-Serif" font-size="10.00" fill="#000000">leitse::aggregators</text>
<text text-anchor="middle" x="79.5" y="-29.5" font-family="Helvetica,sans-Serif" font-size="10.00" fill="#000000">::Ugg::itemsets</text>
</a>
</g>
</g>
<!-- Node6 -->
<g id="node2" class="node">
<title>Node6</title>
<g id="a_node2"><a xlink:href="namespaceleitse.html#afdb4f941cec2c253f7894dff4633a21c" target="_top" xlink:title=" ">
<polygon fill="none" stroke="#000000" points="195,-50 195,-69 384,-69 384,-50 195,-50"/>
<text text-anchor="middle" x="289.5" y="-57" font-family="Helvetica,sans-Serif" font-size="10.00" fill="#000000">leitse::simple_download</text>
</a>
</g>
</g>
<!-- Node5&#45;&gt;Node6 -->
<g id="edge1" class="edge">
<title>Node5&#45;&gt;Node6</title>
<path fill="none" stroke="#191970" d="M159.1914,-45.8486C168.7503,-46.85 178.6068,-47.8826 188.4176,-48.9104"/>
<polygon fill="#191970" stroke="#191970" points="188.3003,-52.4172 198.6105,-49.9782 189.0297,-45.4553 188.3003,-52.4172"/>
</g>
<!-- Node9 -->
<g id="node5" class="node">
<title>Node9</title>
<g id="a_node5"><a xlink:href="structleitse_1_1aggregators_1_1_ugg.html#ab6c33748b46ffff18e21894ae00036e1" target="_top" xlink:title=" ">
<polygon fill="none" stroke="#000000" points="210,-.5 210,-30.5 369,-30.5 369,-.5 210,-.5"/>
<text text-anchor="start" x="218" y="-18.5" font-family="Helvetica,sans-Serif" font-size="10.00" fill="#000000">leitse::aggregators</text>
<text text-anchor="middle" x="289.5" y="-7.5" font-family="Helvetica,sans-Serif" font-size="10.00" fill="#000000">::Ugg::name</text>
</a>
</g>
</g>
<!-- Node5&#45;&gt;Node9 -->
<g id="edge4" class="edge">
<title>Node5&#45;&gt;Node9</title>
<path fill="none" stroke="#191970" d="M159.1914,-29.1514C172.4134,-27.7662 186.2048,-26.3214 199.6571,-24.9121"/>
<polygon fill="#191970" stroke="#191970" points="200.2821,-28.3659 209.863,-23.8429 199.5527,-21.404 200.2821,-28.3659"/>
</g>
<!-- Node7 -->
<g id="node3" class="node">
<title>Node7</title>
<g id="a_node3"><a xlink:href="structleitse_1_1_simple_curl.html#a1e9c094357cc1615d6784210a5dee4be" target="_top" xlink:title=" ">
<polygon fill="none" stroke="#000000" points="420,-50 420,-69 609,-69 609,-50 420,-50"/>
<text text-anchor="middle" x="514.5" y="-57" font-family="Helvetica,sans-Serif" font-size="10.00" fill="#000000">leitse::SimpleCurl::get</text>
</a>
</g>
</g>
<!-- Node6&#45;&gt;Node7 -->
<g id="edge2" class="edge">
<title>Node6&#45;&gt;Node7</title>
<path fill="none" stroke="#191970" d="M384.2681,-59.5C392.6357,-59.5 401.1375,-59.5 409.5821,-59.5"/>
<polygon fill="#191970" stroke="#191970" points="409.8414,-63.0001 419.8413,-59.5 409.8413,-56.0001 409.8414,-63.0001"/>
</g>
<!-- Node8 -->
<g id="node4" class="node">
<title>Node8</title>
<g id="a_node4"><a xlink:href="structleitse_1_1_simple_curl.html#ac10340c2d18695d7bfda42ea15791239" target="_top" xlink:title=" ">
<polygon fill="none" stroke="#000000" points="645,-44.5 645,-74.5 797,-74.5 797,-44.5 645,-44.5"/>
<text text-anchor="start" x="653" y="-62.5" font-family="Helvetica,sans-Serif" font-size="10.00" fill="#000000">leitse::SimpleCurl</text>
<text text-anchor="middle" x="721" y="-51.5" font-family="Helvetica,sans-Serif" font-size="10.00" fill="#000000">::check_curl</text>
</a>
</g>
</g>
<!-- Node7&#45;&gt;Node8 -->
<g id="edge3" class="edge">
<title>Node7&#45;&gt;Node8</title>
<path fill="none" stroke="#191970" d="M609.2887,-59.5C617.7311,-59.5 626.2493,-59.5 634.6158,-59.5"/>
<polygon fill="#191970" stroke="#191970" points="634.7304,-63.0001 644.7304,-59.5 634.7303,-56.0001 634.7304,-63.0001"/>
</g>
</g>
</svg>
