<?xml version="1.0" encoding="UTF-8" standalone="no"?>
<!DOCTYPE svg PUBLIC "-//W3C//DTD SVG 1.1//EN"
 "http://www.w3.org/Graphics/SVG/1.1/DTD/svg11.dtd">
<!-- Generated by graphviz version 2.40.1 (0)
 -->
<!-- Title: config::Config::at Pages: 1 -->
<svg width="543pt" height="53pt"
 viewBox="0.00 0.00 543.00 52.50" xmlns="http://www.w3.org/2000/svg" xmlns:xlink="http://www.w3.org/1999/xlink">
<g id="graph0" class="graph" transform="scale(1 1) rotate(0) translate(4 48.5)">
<title>config::Config::at</title>
<!-- Node1 -->
<g id="node1" class="node">
<title>Node1</title>
<g id="a_node1"><a xlink:title=" ">
<polygon fill="#bfbfbf" stroke="#000000" points="383,-19.5 383,-38.5 535,-38.5 535,-19.5 383,-19.5"/>
<text text-anchor="middle" x="459" y="-26.5" font-family="Helvetica,sans-Serif" font-size="10.00" fill="#000000">config::Config::at</text>
</a>
</g>
</g>
<!-- Node2 -->
<g id="node2" class="node">
<title>Node2</title>
<g id="a_node2"><a xlink:href="namespaceconfig_1_1test.html#aaecf6f168613d97556ee5a67a4da8192" target="_top" xlink:title=" ">
<polygon fill="none" stroke="#000000" points="0,-14 0,-44 152,-44 152,-14 0,-14"/>
<text text-anchor="start" x="8" y="-32" font-family="Helvetica,sans-Serif" font-size="10.00" fill="#000000">config::test::TEST</text>
<text text-anchor="middle" x="76" y="-21" font-family="Helvetica,sans-Serif" font-size="10.00" fill="#000000">_SUITE</text>
</a>
</g>
</g>
<!-- Node1&#45;&gt;Node2 -->
<g id="edge1" class="edge">
<title>Node1&#45;&gt;Node2</title>
<path fill="none" stroke="#191970" d="M372.8721,-29C306.6296,-29 215.9605,-29 152.3096,-29"/>
<polygon fill="#191970" stroke="#191970" points="372.8736,-32.5001 382.8736,-29 372.8736,-25.5001 372.8736,-32.5001"/>
</g>
<!-- Node3 -->
<g id="node3" class="node">
<title>Node3</title>
<g id="a_node3"><a xlink:href="structconfig_1_1_config.html#a0cf9f3b97d218358b2bd62f3b94a3efb" target="_top" xlink:title=" ">
<polygon fill="none" stroke="#000000" points="188,-.5 188,-19.5 347,-19.5 347,-.5 188,-.5"/>
<text text-anchor="middle" x="267.5" y="-7.5" font-family="Helvetica,sans-Serif" font-size="10.00" fill="#000000">config::Config::get</text>
</a>
</g>
</g>
<!-- Node1&#45;&gt;Node3 -->
<g id="edge2" class="edge">
<title>Node1&#45;&gt;Node3</title>
<path fill="none" stroke="#191970" d="M372.5498,-20.4227C364.122,-19.5865 355.5973,-18.7407 347.24,-17.9115"/>
<polygon fill="#191970" stroke="#191970" points="372.4671,-23.9316 382.7639,-21.4361 373.1583,-16.9658 372.4671,-23.9316"/>
</g>
<!-- Node3&#45;&gt;Node2 -->
<g id="edge3" class="edge">
<title>Node3&#45;&gt;Node2</title>
<path fill="none" stroke="#191970" d="M177.9154,-18.8883C169.3269,-19.7404 160.672,-20.5991 152.2286,-21.4369"/>
<polygon fill="#191970" stroke="#191970" points="178.3449,-22.363 187.9504,-17.8926 177.6537,-15.3972 178.3449,-22.363"/>
</g>
</g>
</svg>
