<?xml version="1.0" encoding="UTF-8" standalone="no"?>
<!DOCTYPE svg PUBLIC "-//W3C//DTD SVG 1.1//EN"
 "http://www.w3.org/Graphics/SVG/1.1/DTD/svg11.dtd">
<!-- Generated by graphviz version 2.40.1 (0)
 -->
<!-- Title: leitse::aggregators::Ugg Pages: 1 -->
<svg width="311pt" height="174pt"
 viewBox="0.00 0.00 310.50 174.00" xmlns="http://www.w3.org/2000/svg" xmlns:xlink="http://www.w3.org/1999/xlink">
<g id="graph0" class="graph" transform="scale(1 1) rotate(0) translate(4 170)">
<title>leitse::aggregators::Ugg</title>
<!-- Node2 -->
<g id="node1" class="node">
<title>Node2</title>
<g id="a_node1"><a xlink:title=" ">
<polygon fill="#bfbfbf" stroke="#000000" points="0,-.5 0,-19.5 197,-19.5 197,-.5 0,-.5"/>
<text text-anchor="middle" x="98.5" y="-7.5" font-family="Helvetica,sans-Serif" font-size="10.00" fill="#000000">leitse::aggregators::Ugg</text>
</a>
</g>
</g>
<!-- Node3 -->
<g id="node2" class="node">
<title>Node3</title>
<g id="a_node2"><a xlink:href="structleitse_1_1_aggregator.html" target="_top" xlink:title=" ">
<polygon fill="none" stroke="#000000" points="6.5,-78.5 6.5,-97.5 158.5,-97.5 158.5,-78.5 6.5,-78.5"/>
<text text-anchor="middle" x="82.5" y="-85.5" font-family="Helvetica,sans-Serif" font-size="10.00" fill="#000000">leitse::Aggregator</text>
</a>
</g>
</g>
<!-- Node3&#45;&gt;Node2 -->
<g id="edge1" class="edge">
<title>Node3&#45;&gt;Node2</title>
<path fill="none" stroke="#191970" d="M86.5438,-68.2866C89.7329,-52.7395 94.0431,-31.7276 96.522,-19.6426"/>
<polygon fill="#191970" stroke="#191970" points="83.0428,-67.9363 84.4619,-78.4357 89.9,-69.343 83.0428,-67.9363"/>
</g>
<!-- Node4 -->
<g id="node3" class="node">
<title>Node4</title>
<g id="a_node3"><a xlink:title="STL class.">
<polygon fill="none" stroke="#bfbfbf" points="177,-78.5 177,-97.5 276,-97.5 276,-78.5 177,-78.5"/>
<text text-anchor="middle" x="226.5" y="-85.5" font-family="Helvetica,sans-Serif" font-size="10.00" fill="#000000">std::string</text>
</a>
</g>
</g>
<!-- Node4&#45;&gt;Node2 -->
<g id="edge2" class="edge">
<title>Node4&#45;&gt;Node2</title>
<path fill="none" stroke="#9a32cd" stroke-dasharray="5,2" d="M201.9883,-73.0632C176.1686,-57.3293 136.2736,-33.0183 114.3237,-19.6426"/>
<polygon fill="#9a32cd" stroke="#9a32cd" points="200.444,-76.2207 210.8047,-78.4357 204.0866,-70.2431 200.444,-76.2207"/>
<text text-anchor="middle" x="238" y="-52" font-family="Helvetica,sans-Serif" font-size="10.00" fill="#000000"> league_version_</text>
<text text-anchor="middle" x="238" y="-41" font-family="Helvetica,sans-Serif" font-size="10.00" fill="#000000">items_version_</text>
</g>
<!-- Node5 -->
<g id="node4" class="node">
<title>Node5</title>
<g id="a_node4"><a xlink:title="STL class.">
<polygon fill="none" stroke="#bfbfbf" points="150.5,-135.5 150.5,-165.5 302.5,-165.5 302.5,-135.5 150.5,-135.5"/>
<text text-anchor="start" x="158.5" y="-153.5" font-family="Helvetica,sans-Serif" font-size="10.00" fill="#000000">std::basic_string&lt;</text>
<text text-anchor="middle" x="226.5" y="-142.5" font-family="Helvetica,sans-Serif" font-size="10.00" fill="#000000"> char &gt;</text>
</a>
</g>
</g>
<!-- Node5&#45;&gt;Node4 -->
<g id="edge3" class="edge">
<title>Node5&#45;&gt;Node4</title>
<path fill="none" stroke="#191970" d="M226.5,-125.3498C226.5,-115.6481 226.5,-105.1303 226.5,-97.7356"/>
<polygon fill="#191970" stroke="#191970" points="223.0001,-125.3705 226.5,-135.3705 230.0001,-125.3705 223.0001,-125.3705"/>
</g>
</g>
</svg>
