<?xml version="1.0" encoding="UTF-8" standalone="no"?>
<!DOCTYPE svg PUBLIC "-//W3C//DTD SVG 1.1//EN"
 "http://www.w3.org/Graphics/SVG/1.1/DTD/svg11.dtd">
<!-- Generated by graphviz version 2.40.1 (0)
 -->
<!-- Title: leitse::DataDragon::update_version Pages: 1 -->
<svg width="858pt" height="39pt"
 viewBox="0.00 0.00 858.00 39.00" xmlns="http://www.w3.org/2000/svg" xmlns:xlink="http://www.w3.org/1999/xlink">
<g id="graph0" class="graph" transform="scale(1 1) rotate(0) translate(4 35)">
<title>leitse::DataDragon::update_version</title>
<!-- Node25 -->
<g id="node1" class="node">
<title>Node25</title>
<g id="a_node1"><a xlink:title=" ">
<polygon fill="#bfbfbf" stroke="#000000" points="698,-.5 698,-30.5 850,-30.5 850,-.5 698,-.5"/>
<text text-anchor="start" x="706" y="-18.5" font-family="Helvetica,sans-Serif" font-size="10.00" fill="#000000">leitse::DataDragon</text>
<text text-anchor="middle" x="774" y="-7.5" font-family="Helvetica,sans-Serif" font-size="10.00" fill="#000000">::update_version</text>
</a>
</g>
</g>
<!-- Node26 -->
<g id="node2" class="node">
<title>Node26</title>
<g id="a_node2"><a xlink:href="structleitse_1_1_data_dragon.html#aedd2ef4d722fb451e9e68502a47dc392" target="_top" xlink:title=" ">
<polygon fill="none" stroke="#000000" points="510,-.5 510,-30.5 662,-30.5 662,-.5 510,-.5"/>
<text text-anchor="start" x="518" y="-18.5" font-family="Helvetica,sans-Serif" font-size="10.00" fill="#000000">leitse::DataDragon</text>
<text text-anchor="middle" x="586" y="-7.5" font-family="Helvetica,sans-Serif" font-size="10.00" fill="#000000">::populate</text>
</a>
</g>
</g>
<!-- Node25&#45;&gt;Node26 -->
<g id="edge1" class="edge">
<title>Node25&#45;&gt;Node26</title>
<path fill="none" stroke="#191970" d="M687.5763,-15.5C679.1428,-15.5 670.6275,-15.5 662.3043,-15.5"/>
<polygon fill="#191970" stroke="#191970" points="687.8043,-19.0001 697.8042,-15.5 687.8042,-12.0001 687.8043,-19.0001"/>
</g>
<!-- Node27 -->
<g id="node3" class="node">
<title>Node27</title>
<g id="a_node3"><a xlink:href="namespaceleitse_1_1anonymous__namespace_02main_8cpp_03.html#a22efba3a32984564056202cc7db3f0de" target="_top" xlink:title=" ">
<polygon fill="none" stroke="#000000" points="255,-.5 255,-30.5 474,-30.5 474,-.5 255,-.5"/>
<text text-anchor="start" x="263" y="-18.5" font-family="Helvetica,sans-Serif" font-size="10.00" fill="#000000">leitse::anonymous_namespace</text>
<text text-anchor="middle" x="364.5" y="-7.5" font-family="Helvetica,sans-Serif" font-size="10.00" fill="#000000">{main::cpp}::main_impl</text>
</a>
</g>
</g>
<!-- Node26&#45;&gt;Node27 -->
<g id="edge2" class="edge">
<title>Node26&#45;&gt;Node27</title>
<path fill="none" stroke="#191970" d="M499.6635,-15.5C491.2851,-15.5 482.7106,-15.5 474.1448,-15.5"/>
<polygon fill="#191970" stroke="#191970" points="499.7723,-19.0001 509.7723,-15.5 499.7722,-12.0001 499.7723,-19.0001"/>
</g>
<!-- Node28 -->
<g id="node4" class="node">
<title>Node28</title>
<g id="a_node4"><a xlink:href="namespaceleitse_1_1anonymous__namespace_02main_8cpp_03.html#a79fa099cfa983c75df11f0a42e7586e4" target="_top" xlink:title=" ">
<polygon fill="none" stroke="#000000" points="0,-.5 0,-30.5 219,-30.5 219,-.5 0,-.5"/>
<text text-anchor="start" x="8" y="-18.5" font-family="Helvetica,sans-Serif" font-size="10.00" fill="#000000">leitse::anonymous_namespace</text>
<text text-anchor="middle" x="109.5" y="-7.5" font-family="Helvetica,sans-Serif" font-size="10.00" fill="#000000">{main::cpp}::main</text>
</a>
</g>
</g>
<!-- Node27&#45;&gt;Node28 -->
<g id="edge3" class="edge">
<title>Node27&#45;&gt;Node28</title>
<path fill="none" stroke="#191970" d="M244.8136,-15.5C236.2143,-15.5 227.5675,-15.5 219.0303,-15.5"/>
<polygon fill="#191970" stroke="#191970" points="244.8772,-19.0001 254.8772,-15.5 244.8771,-12.0001 244.8772,-19.0001"/>
</g>
</g>
</svg>
