<?xml version="1.0" encoding="UTF-8" standalone="no"?>
<!DOCTYPE svg PUBLIC "-//W3C//DTD SVG 1.1//EN"
 "http://www.w3.org/Graphics/SVG/1.1/DTD/svg11.dtd">
<!-- Generated by graphviz version 2.40.1 (0)
 -->
<!-- Title: leitse::DataDragon::populate Pages: 1 -->
<svg width="581pt" height="88pt"
 viewBox="0.00 0.00 581.00 88.00" xmlns="http://www.w3.org/2000/svg" xmlns:xlink="http://www.w3.org/1999/xlink">
<g id="graph0" class="graph" transform="scale(1 1) rotate(0) translate(4 84)">
<title>leitse::DataDragon::populate</title>
<!-- Node10 -->
<g id="node1" class="node">
<title>Node10</title>
<g id="a_node1"><a xlink:title=" ">
<polygon fill="#bfbfbf" stroke="#000000" points="0,-24.5 0,-54.5 152,-54.5 152,-24.5 0,-24.5"/>
<text text-anchor="start" x="8" y="-42.5" font-family="Helvetica,sans-Serif" font-size="10.00" fill="#000000">leitse::DataDragon</text>
<text text-anchor="middle" x="76" y="-31.5" font-family="Helvetica,sans-Serif" font-size="10.00" fill="#000000">::populate</text>
</a>
</g>
</g>
<!-- Node11 -->
<g id="node2" class="node">
<title>Node11</title>
<g id="a_node2"><a xlink:href="structleitse_1_1_data_dragon.html#ac8c0f976240b26536f7cd68b66780d8e" target="_top" xlink:title=" ">
<polygon fill="none" stroke="#000000" points="188,-49.5 188,-79.5 340,-79.5 340,-49.5 188,-49.5"/>
<text text-anchor="start" x="196" y="-67.5" font-family="Helvetica,sans-Serif" font-size="10.00" fill="#000000">leitse::DataDragon</text>
<text text-anchor="middle" x="264" y="-56.5" font-family="Helvetica,sans-Serif" font-size="10.00" fill="#000000">::update_version</text>
</a>
</g>
</g>
<!-- Node10&#45;&gt;Node11 -->
<g id="edge1" class="edge">
<title>Node10&#45;&gt;Node11</title>
<path fill="none" stroke="#191970" d="M152.1958,-49.6324C160.6088,-50.7512 169.2194,-51.8962 177.7444,-53.0298"/>
<polygon fill="#191970" stroke="#191970" points="177.3216,-56.5043 187.6957,-54.3532 178.2444,-49.5654 177.3216,-56.5043"/>
</g>
<!-- Node13 -->
<g id="node4" class="node">
<title>Node13</title>
<g id="a_node4"><a xlink:href="structleitse_1_1_data_dragon.html#ab42170e26e20cd3d715f3f3220019e7c" target="_top" xlink:title=" ">
<polygon fill="none" stroke="#000000" points="188,-.5 188,-30.5 340,-30.5 340,-.5 188,-.5"/>
<text text-anchor="start" x="196" y="-18.5" font-family="Helvetica,sans-Serif" font-size="10.00" fill="#000000">leitse::DataDragon</text>
<text text-anchor="middle" x="264" y="-7.5" font-family="Helvetica,sans-Serif" font-size="10.00" fill="#000000">::fetch_data</text>
</a>
</g>
</g>
<!-- Node10&#45;&gt;Node13 -->
<g id="edge3" class="edge">
<title>Node10&#45;&gt;Node13</title>
<path fill="none" stroke="#191970" d="M152.1958,-29.7729C160.6088,-28.6989 169.2194,-27.5997 177.7444,-26.5114"/>
<polygon fill="#191970" stroke="#191970" points="178.2195,-29.9792 187.6957,-25.241 177.333,-23.0356 178.2195,-29.9792"/>
</g>
<!-- Node12 -->
<g id="node3" class="node">
<title>Node12</title>
<g id="a_node3"><a xlink:href="namespaceleitse.html#ae6311298e57be556517a34c61b4ab025" target="_top" xlink:title=" ">
<polygon fill="none" stroke="#000000" points="376,-30 376,-49 573,-49 573,-30 376,-30"/>
<text text-anchor="middle" x="474.5" y="-37" font-family="Helvetica,sans-Serif" font-size="10.00" fill="#000000">leitse::checked_download</text>
</a>
</g>
</g>
<!-- Node11&#45;&gt;Node12 -->
<g id="edge2" class="edge">
<title>Node11&#45;&gt;Node12</title>
<path fill="none" stroke="#191970" d="M340.293,-55.4391C354.5371,-53.7474 369.5485,-51.9646 384.1679,-50.2283"/>
<polygon fill="#191970" stroke="#191970" points="384.6949,-53.6904 394.2123,-49.0354 383.8692,-46.7392 384.6949,-53.6904"/>
</g>
<!-- Node13&#45;&gt;Node12 -->
<g id="edge4" class="edge">
<title>Node13&#45;&gt;Node12</title>
<path fill="none" stroke="#191970" d="M340.293,-24.1985C353.4193,-25.6951 367.1972,-27.266 380.7196,-28.8077"/>
<polygon fill="#191970" stroke="#191970" points="380.6633,-32.3239 390.9954,-29.9793 381.4563,-25.3689 380.6633,-32.3239"/>
</g>
</g>
</svg>
