<?xml version="1.0" encoding="UTF-8" standalone="no"?>
<!DOCTYPE svg PUBLIC "-//W3C//DTD SVG 1.1//EN"
 "http://www.w3.org/Graphics/SVG/1.1/DTD/svg11.dtd">
<!-- Generated by graphviz version 2.40.1 (0)
 -->
<!-- Title: leitse::ItemSet::Block Pages: 1 -->
<svg width="466pt" height="319pt"
 viewBox="0.00 0.00 466.00 319.00" xmlns="http://www.w3.org/2000/svg" xmlns:xlink="http://www.w3.org/1999/xlink">
<g id="graph0" class="graph" transform="scale(1 1) rotate(0) translate(4 315)">
<title>leitse::ItemSet::Block</title>
<!-- Node1 -->
<g id="node1" class="node">
<title>Node1</title>
<g id="a_node1"><a xlink:title=" ">
<polygon fill="#bfbfbf" stroke="#000000" points="0,-.5 0,-19.5 182,-19.5 182,-.5 0,-.5"/>
<text text-anchor="middle" x="91" y="-7.5" font-family="Helvetica,sans-Serif" font-size="10.00" fill="#000000">leitse::ItemSet::Block</text>
</a>
</g>
</g>
<!-- Node2 -->
<g id="node2" class="node">
<title>Node2</title>
<g id="a_node2"><a xlink:title=" ">
<polygon fill="none" stroke="#bfbfbf" points="110.5,-67.5 110.5,-97.5 269.5,-97.5 269.5,-67.5 110.5,-67.5"/>
<text text-anchor="start" x="118.5" y="-85.5" font-family="Helvetica,sans-Serif" font-size="10.00" fill="#000000">std::vector&lt; leitse</text>
<text text-anchor="middle" x="190" y="-74.5" font-family="Helvetica,sans-Serif" font-size="10.00" fill="#000000">::ItemSet::Item &gt;</text>
</a>
</g>
</g>
<!-- Node2&#45;&gt;Node1 -->
<g id="edge1" class="edge">
<title>Node2&#45;&gt;Node1</title>
<path fill="none" stroke="#9a32cd" stroke-dasharray="5,2" d="M161.2347,-61.4345C142.4159,-47.6531 118.7168,-30.2976 104.2216,-19.6825"/>
<polygon fill="#9a32cd" stroke="#9a32cd" points="159.3513,-64.3934 169.4871,-67.478 163.4871,-58.7458 159.3513,-64.3934"/>
<text text-anchor="middle" x="167" y="-41" font-family="Helvetica,sans-Serif" font-size="10.00" fill="#000000"> items</text>
</g>
<!-- Node3 -->
<g id="node3" class="node">
<title>Node3</title>
<g id="a_node3"><a xlink:href="structleitse_1_1_item_set_1_1_item.html" target="_top" xlink:title=" ">
<polygon fill="none" stroke="#000000" points="103,-156.5 103,-175.5 277,-175.5 277,-156.5 103,-156.5"/>
<text text-anchor="middle" x="190" y="-163.5" font-family="Helvetica,sans-Serif" font-size="10.00" fill="#000000">leitse::ItemSet::Item</text>
</a>
</g>
</g>
<!-- Node3&#45;&gt;Node2 -->
<g id="edge2" class="edge">
<title>Node3&#45;&gt;Node2</title>
<path fill="none" stroke="#9a32cd" stroke-dasharray="5,2" d="M190,-146.2427C190,-131.345 190,-111.2186 190,-97.597"/>
<polygon fill="#9a32cd" stroke="#9a32cd" points="186.5001,-146.4215 190,-156.4215 193.5001,-146.4215 186.5001,-146.4215"/>
<text text-anchor="middle" x="224" y="-124.5" font-family="Helvetica,sans-Serif" font-size="10.00" fill="#000000"> elements</text>
</g>
<!-- Node4 -->
<g id="node4" class="node">
<title>Node4</title>
<g id="a_node4"><a xlink:title="STL class.">
<polygon fill="none" stroke="#bfbfbf" points="62.5,-223.5 62.5,-242.5 161.5,-242.5 161.5,-223.5 62.5,-223.5"/>
<text text-anchor="middle" x="112" y="-230.5" font-family="Helvetica,sans-Serif" font-size="10.00" fill="#000000">std::string</text>
</a>
</g>
</g>
<!-- Node4&#45;&gt;Node1 -->
<g id="edge7" class="edge">
<title>Node4&#45;&gt;Node1</title>
<path fill="none" stroke="#9a32cd" stroke-dasharray="5,2" d="M104.2803,-213.4247C100.3978,-202.5809 96.0836,-188.7509 94,-176 84.4243,-117.3995 88.3169,-45.6205 90.2028,-19.8173"/>
<polygon fill="#9a32cd" stroke="#9a32cd" points="101.1293,-214.9901 107.9202,-223.1224 107.6829,-212.5302 101.1293,-214.9901"/>
<text text-anchor="middle" x="109" y="-124.5" font-family="Helvetica,sans-Serif" font-size="10.00" fill="#000000"> name</text>
</g>
<!-- Node4&#45;&gt;Node3 -->
<g id="edge3" class="edge">
<title>Node4&#45;&gt;Node3</title>
<path fill="none" stroke="#9a32cd" stroke-dasharray="5,2" d="M130.8606,-216.7992C145.8624,-203.9131 166.3431,-186.3207 178.8452,-175.5817"/>
<polygon fill="#9a32cd" stroke="#9a32cd" points="128.4806,-214.2296 123.1755,-223.4005 133.0418,-219.5396 128.4806,-214.2296"/>
<text text-anchor="middle" x="167.5" y="-197" font-family="Helvetica,sans-Serif" font-size="10.00" fill="#000000"> id</text>
</g>
<!-- Node5 -->
<g id="node5" class="node">
<title>Node5</title>
<g id="a_node5"><a xlink:title="STL class.">
<polygon fill="none" stroke="#bfbfbf" points="36,-280.5 36,-310.5 188,-310.5 188,-280.5 36,-280.5"/>
<text text-anchor="start" x="44" y="-298.5" font-family="Helvetica,sans-Serif" font-size="10.00" fill="#000000">std::basic_string&lt;</text>
<text text-anchor="middle" x="112" y="-287.5" font-family="Helvetica,sans-Serif" font-size="10.00" fill="#000000"> char &gt;</text>
</a>
</g>
</g>
<!-- Node5&#45;&gt;Node4 -->
<g id="edge4" class="edge">
<title>Node5&#45;&gt;Node4</title>
<path fill="none" stroke="#191970" d="M112,-270.3498C112,-260.6481 112,-250.1303 112,-242.7356"/>
<polygon fill="#191970" stroke="#191970" points="108.5001,-270.3705 112,-280.3705 115.5001,-270.3705 108.5001,-270.3705"/>
</g>
<!-- Node6 -->
<g id="node6" class="node">
<title>Node6</title>
<g id="a_node6"><a xlink:title="STL class.">
<polygon fill="none" stroke="#bfbfbf" points="295.5,-156.5 295.5,-175.5 432.5,-175.5 432.5,-156.5 295.5,-156.5"/>
<text text-anchor="middle" x="364" y="-163.5" font-family="Helvetica,sans-Serif" font-size="10.00" fill="#000000">std::vector&lt; T &gt;</text>
</a>
</g>
</g>
<!-- Node6&#45;&gt;Node2 -->
<g id="edge5" class="edge">
<title>Node6&#45;&gt;Node2</title>
<path fill="none" stroke="#ffa500" stroke-dasharray="5,2" d="M335.8089,-151.9901C315.3711,-141.88 287.0409,-127.9614 262,-116 249.1864,-109.8793 235.0284,-103.2608 222.682,-97.536"/>
<polygon fill="#ffa500" stroke="#ffa500" points="334.3665,-155.1814 344.8809,-156.4841 337.4738,-148.9089 334.3665,-155.1814"/>
<text text-anchor="start" x="307" y="-130" font-family="Helvetica,sans-Serif" font-size="10.00" fill="#000000"> &lt; leitse::ItemSet::</text>
<text text-anchor="middle" x="382.5" y="-119" font-family="Helvetica,sans-Serif" font-size="10.00" fill="#000000">Item &gt;</text>
</g>
<!-- Node7 -->
<g id="node7" class="node">
<title>Node7</title>
<g id="a_node7"><a xlink:title=" ">
<polygon fill="none" stroke="#bfbfbf" points="349.5,-223.5 349.5,-242.5 378.5,-242.5 378.5,-223.5 349.5,-223.5"/>
<text text-anchor="middle" x="364" y="-230.5" font-family="Helvetica,sans-Serif" font-size="10.00" fill="#000000">T</text>
</a>
</g>
</g>
<!-- Node7&#45;&gt;Node6 -->
<g id="edge6" class="edge">
<title>Node7&#45;&gt;Node6</title>
<path fill="none" stroke="#9a32cd" stroke-dasharray="5,2" d="M364,-213.1079C364,-200.714 364,-185.3263 364,-175.5817"/>
<polygon fill="#9a32cd" stroke="#9a32cd" points="360.5001,-213.4005 364,-223.4005 367.5001,-213.4006 360.5001,-213.4005"/>
<text text-anchor="middle" x="398" y="-197" font-family="Helvetica,sans-Serif" font-size="10.00" fill="#000000"> elements</text>
</g>
</g>
</svg>
