<?xml version="1.0" encoding="UTF-8" standalone="no"?>
<!DOCTYPE svg PUBLIC "-//W3C//DTD SVG 1.1//EN"
 "http://www.w3.org/Graphics/SVG/1.1/DTD/svg11.dtd">
<!-- Generated by graphviz version 2.40.1 (0)
 -->
<!-- Title: leitse::ItemSet::Block Pages: 1 -->
<svg width="509pt" height="262pt"
 viewBox="0.00 0.00 509.00 262.00" xmlns="http://www.w3.org/2000/svg" xmlns:xlink="http://www.w3.org/1999/xlink">
<g id="graph0" class="graph" transform="scale(1 1) rotate(0) translate(4 258)">
<title>leitse::ItemSet::Block</title>
<!-- Node1 -->
<g id="node1" class="node">
<title>Node1</title>
<g id="a_node1"><a xlink:title=" ">
<polygon fill="#bfbfbf" stroke="#000000" points="241,-.5 241,-19.5 423,-19.5 423,-.5 241,-.5"/>
<text text-anchor="middle" x="332" y="-7.5" font-family="Helvetica,sans-Serif" font-size="10.00" fill="#000000">leitse::ItemSet::Block</text>
</a>
</g>
</g>
<!-- Node2 -->
<g id="node2" class="node">
<title>Node2</title>
<g id="a_node2"><a xlink:title=" ">
<polygon fill="none" stroke="#bfbfbf" points="179.5,-67.5 179.5,-97.5 338.5,-97.5 338.5,-67.5 179.5,-67.5"/>
<text text-anchor="start" x="187.5" y="-85.5" font-family="Helvetica,sans-Serif" font-size="10.00" fill="#000000">std::vector&lt; leitse</text>
<text text-anchor="middle" x="259" y="-74.5" font-family="Helvetica,sans-Serif" font-size="10.00" fill="#000000">::ItemSet::Item &gt;</text>
</a>
</g>
</g>
<!-- Node2&#45;&gt;Node1 -->
<g id="edge1" class="edge">
<title>Node2&#45;&gt;Node1</title>
<path fill="none" stroke="#9a32cd" stroke-dasharray="5,2" d="M281.2996,-60.3531C294.8972,-46.8487 311.6097,-30.2507 322.0361,-19.8957"/>
<polygon fill="#9a32cd" stroke="#9a32cd" points="278.7546,-57.9478 274.1256,-67.478 283.6874,-62.9146 278.7546,-57.9478"/>
<text text-anchor="middle" x="326" y="-41" font-family="Helvetica,sans-Serif" font-size="10.00" fill="#000000"> items</text>
</g>
<!-- Node3 -->
<g id="node3" class="node">
<title>Node3</title>
<g id="a_node3"><a xlink:href="structleitse_1_1_item_set_1_1_item.html" target="_top" xlink:title=" ">
<polygon fill="none" stroke="#000000" points="0,-162 0,-181 174,-181 174,-162 0,-162"/>
<text text-anchor="middle" x="87" y="-169" font-family="Helvetica,sans-Serif" font-size="10.00" fill="#000000">leitse::ItemSet::Item</text>
</a>
</g>
</g>
<!-- Node3&#45;&gt;Node2 -->
<g id="edge2" class="edge">
<title>Node3&#45;&gt;Node2</title>
<path fill="none" stroke="#9a32cd" stroke-dasharray="5,2" d="M112.5485,-156.8917C132.8288,-145.4345 161.997,-129.263 188,-116 200.2628,-109.7452 213.901,-103.2114 225.9206,-97.5924"/>
<polygon fill="#9a32cd" stroke="#9a32cd" points="110.6014,-153.9723 103.6297,-161.9502 114.0548,-160.0611 110.6014,-153.9723"/>
<text text-anchor="middle" x="222" y="-124.5" font-family="Helvetica,sans-Serif" font-size="10.00" fill="#000000"> elements</text>
</g>
<!-- Node4 -->
<g id="node4" class="node">
<title>Node4</title>
<g id="a_node4"><a xlink:title="STL class.">
<polygon fill="none" stroke="#bfbfbf" points="192.5,-162 192.5,-181 329.5,-181 329.5,-162 192.5,-162"/>
<text text-anchor="middle" x="261" y="-169" font-family="Helvetica,sans-Serif" font-size="10.00" fill="#000000">std::vector&lt; T &gt;</text>
</a>
</g>
</g>
<!-- Node4&#45;&gt;Node2 -->
<g id="edge3" class="edge">
<title>Node4&#45;&gt;Node2</title>
<path fill="none" stroke="#ffa500" stroke-dasharray="5,2" d="M260.3662,-151.567C260.2351,-147.103 260.1051,-142.3899 260,-138 259.6726,-124.3194 259.4007,-108.7396 259.2235,-97.5767"/>
<polygon fill="#ffa500" stroke="#ffa500" points="256.8759,-151.9375 260.6809,-161.8254 263.8726,-151.7228 256.8759,-151.9375"/>
<text text-anchor="start" x="260" y="-130" font-family="Helvetica,sans-Serif" font-size="10.00" fill="#000000"> &lt; leitse::ItemSet::</text>
<text text-anchor="middle" x="335.5" y="-119" font-family="Helvetica,sans-Serif" font-size="10.00" fill="#000000">Item &gt;</text>
</g>
<!-- Node5 -->
<g id="node5" class="node">
<title>Node5</title>
<g id="a_node5"><a xlink:title=" ">
<polygon fill="none" stroke="#bfbfbf" points="246.5,-234.5 246.5,-253.5 275.5,-253.5 275.5,-234.5 246.5,-234.5"/>
<text text-anchor="middle" x="261" y="-241.5" font-family="Helvetica,sans-Serif" font-size="10.00" fill="#000000">T</text>
</a>
</g>
</g>
<!-- Node5&#45;&gt;Node4 -->
<g id="edge4" class="edge">
<title>Node5&#45;&gt;Node4</title>
<path fill="none" stroke="#9a32cd" stroke-dasharray="5,2" d="M261,-224.1054C261,-210.1237 261,-192.0346 261,-181.1228"/>
<polygon fill="#9a32cd" stroke="#9a32cd" points="257.5001,-224.2223 261,-234.2223 264.5001,-224.2224 257.5001,-224.2223"/>
<text text-anchor="middle" x="295" y="-208" font-family="Helvetica,sans-Serif" font-size="10.00" fill="#000000"> elements</text>
</g>
<!-- Node6 -->
<g id="node6" class="node">
<title>Node6</title>
<g id="a_node6"><a xlink:title="STL class.">
<polygon fill="none" stroke="#bfbfbf" points="365.5,-73 365.5,-92 464.5,-92 464.5,-73 365.5,-73"/>
<text text-anchor="middle" x="415" y="-80" font-family="Helvetica,sans-Serif" font-size="10.00" fill="#000000">std::string</text>
</a>
</g>
</g>
<!-- Node6&#45;&gt;Node1 -->
<g id="edge5" class="edge">
<title>Node6&#45;&gt;Node1</title>
<path fill="none" stroke="#9a32cd" stroke-dasharray="5,2" d="M395.9327,-65.8449C379.5496,-51.5343 356.4981,-31.3989 343.0164,-19.6228"/>
<polygon fill="#9a32cd" stroke="#9a32cd" points="393.9723,-68.7797 403.8063,-72.7223 398.5774,-63.5077 393.9723,-68.7797"/>
<text text-anchor="middle" x="394" y="-41" font-family="Helvetica,sans-Serif" font-size="10.00" fill="#000000"> name</text>
</g>
<!-- Node7 -->
<g id="node7" class="node">
<title>Node7</title>
<g id="a_node7"><a xlink:title="STL class.">
<polygon fill="none" stroke="#bfbfbf" points="349,-156.5 349,-186.5 501,-186.5 501,-156.5 349,-156.5"/>
<text text-anchor="start" x="357" y="-174.5" font-family="Helvetica,sans-Serif" font-size="10.00" fill="#000000">std::basic_string&lt;</text>
<text text-anchor="middle" x="425" y="-163.5" font-family="Helvetica,sans-Serif" font-size="10.00" fill="#000000"> char &gt;</text>
</a>
</g>
</g>
<!-- Node7&#45;&gt;Node6 -->
<g id="edge6" class="edge">
<title>Node7&#45;&gt;Node6</title>
<path fill="none" stroke="#191970" d="M422.1709,-146.321C420.1598,-128.4221 417.5672,-105.3481 416.1144,-92.4182"/>
<polygon fill="#191970" stroke="#191970" points="418.7089,-146.8557 423.3036,-156.4024 425.6651,-146.0741 418.7089,-146.8557"/>
</g>
</g>
</svg>
