<?xml version="1.0" encoding="UTF-8" standalone="no"?>
<!DOCTYPE svg PUBLIC "-//W3C//DTD SVG 1.1//EN"
 "http://www.w3.org/Graphics/SVG/1.1/DTD/svg11.dtd">
<!-- Generated by graphviz version 2.40.1 (0)
 -->
<!-- Title: config::Config::parse_file Pages: 1 -->
<svg width="978pt" height="88pt"
 viewBox="0.00 0.00 978.00 88.00" xmlns="http://www.w3.org/2000/svg" xmlns:xlink="http://www.w3.org/1999/xlink">
<g id="graph0" class="graph" transform="scale(1 1) rotate(0) translate(4 84)">
<title>config::Config::parse_file</title>
<!-- Node25 -->
<g id="node1" class="node">
<title>Node25</title>
<g id="a_node1"><a xlink:title=" ">
<polygon fill="#bfbfbf" stroke="#000000" points="758,-28 758,-47 970,-47 970,-28 758,-28"/>
<text text-anchor="middle" x="864" y="-35" font-family="Helvetica,sans-Serif" font-size="10.00" fill="#000000">config::Config::parse_file</text>
</a>
</g>
</g>
<!-- Node26 -->
<g id="node2" class="node">
<title>Node26</title>
<g id="a_node2"><a xlink:href="structconfig_1_1_config.html#af7d0bbe0e41a086d991fc545cc886212" target="_top" xlink:title=" ">
<polygon fill="none" stroke="#000000" points="510,-50 510,-69 722,-69 722,-50 510,-50"/>
<text text-anchor="middle" x="616" y="-57" font-family="Helvetica,sans-Serif" font-size="10.00" fill="#000000">config::Config::parse_args</text>
</a>
</g>
</g>
<!-- Node25&#45;&gt;Node26 -->
<g id="edge1" class="edge">
<title>Node25&#45;&gt;Node26</title>
<path fill="none" stroke="#191970" d="M747.7207,-47.8151C739.1526,-48.5752 730.5352,-49.3396 722.0328,-50.0939"/>
<polygon fill="#191970" stroke="#191970" points="748.0949,-51.2957 757.7464,-46.9257 747.4762,-44.3231 748.0949,-51.2957"/>
</g>
<!-- Node30 -->
<g id="node6" class="node">
<title>Node30</title>
<g id="a_node6"><a xlink:href="structconfig_1_1_config.html#a6482bac83f43652db0483965eb44093d" target="_top" xlink:title=" ">
<polygon fill="none" stroke="#000000" points="529,-.5 529,-30.5 703,-30.5 703,-.5 529,-.5"/>
<text text-anchor="start" x="537" y="-18.5" font-family="Helvetica,sans-Serif" font-size="10.00" fill="#000000">config::Config::parse</text>
<text text-anchor="middle" x="616" y="-7.5" font-family="Helvetica,sans-Serif" font-size="10.00" fill="#000000">_global_config</text>
</a>
</g>
</g>
<!-- Node25&#45;&gt;Node30 -->
<g id="edge5" class="edge">
<title>Node25&#45;&gt;Node30</title>
<path fill="none" stroke="#191970" d="M747.4972,-27.1651C732.6444,-25.8475 717.6475,-24.5171 703.3633,-23.25"/>
<polygon fill="#191970" stroke="#191970" points="747.4763,-30.6769 757.7464,-28.0743 748.0949,-23.7043 747.4763,-30.6769"/>
</g>
<!-- Node27 -->
<g id="node3" class="node">
<title>Node27</title>
<g id="a_node3"><a xlink:href="namespaceconfig_1_1test.html#aaecf6f168613d97556ee5a67a4da8192" target="_top" xlink:title=" ">
<polygon fill="none" stroke="#000000" points="288.5,-49.5 288.5,-79.5 440.5,-79.5 440.5,-49.5 288.5,-49.5"/>
<text text-anchor="start" x="296.5" y="-67.5" font-family="Helvetica,sans-Serif" font-size="10.00" fill="#000000">config::test::TEST</text>
<text text-anchor="middle" x="364.5" y="-56.5" font-family="Helvetica,sans-Serif" font-size="10.00" fill="#000000">_SUITE</text>
</a>
</g>
</g>
<!-- Node26&#45;&gt;Node27 -->
<g id="edge2" class="edge">
<title>Node26&#45;&gt;Node27</title>
<path fill="none" stroke="#191970" d="M499.6028,-61.8141C479.5965,-62.2118 459.2728,-62.6158 440.6722,-62.9856"/>
<polygon fill="#191970" stroke="#191970" points="499.7775,-65.3114 509.7059,-61.6132 499.6383,-58.3128 499.7775,-65.3114"/>
</g>
<!-- Node28 -->
<g id="node4" class="node">
<title>Node28</title>
<g id="a_node4"><a xlink:href="namespaceleitse_1_1anonymous__namespace_02main_8cpp_03.html#a22efba3a32984564056202cc7db3f0de" target="_top" xlink:title=" ">
<polygon fill="none" stroke="#000000" points="255,-.5 255,-30.5 474,-30.5 474,-.5 255,-.5"/>
<text text-anchor="start" x="263" y="-18.5" font-family="Helvetica,sans-Serif" font-size="10.00" fill="#000000">leitse::anonymous_namespace</text>
<text text-anchor="middle" x="364.5" y="-7.5" font-family="Helvetica,sans-Serif" font-size="10.00" fill="#000000">{main::cpp}::main_impl</text>
</a>
</g>
</g>
<!-- Node26&#45;&gt;Node28 -->
<g id="edge3" class="edge">
<title>Node26&#45;&gt;Node28</title>
<path fill="none" stroke="#191970" d="M551.2931,-48.1795C520.6409,-42.8169 483.5997,-36.3365 450.6123,-30.5654"/>
<polygon fill="#191970" stroke="#191970" points="550.9747,-51.6769 561.4282,-49.9527 552.181,-44.7816 550.9747,-51.6769"/>
</g>
<!-- Node29 -->
<g id="node5" class="node">
<title>Node29</title>
<g id="a_node5"><a xlink:href="namespaceleitse_1_1anonymous__namespace_02main_8cpp_03.html#a79fa099cfa983c75df11f0a42e7586e4" target="_top" xlink:title=" ">
<polygon fill="none" stroke="#000000" points="0,-.5 0,-30.5 219,-30.5 219,-.5 0,-.5"/>
<text text-anchor="start" x="8" y="-18.5" font-family="Helvetica,sans-Serif" font-size="10.00" fill="#000000">leitse::anonymous_namespace</text>
<text text-anchor="middle" x="109.5" y="-7.5" font-family="Helvetica,sans-Serif" font-size="10.00" fill="#000000">{main::cpp}::main</text>
</a>
</g>
</g>
<!-- Node28&#45;&gt;Node29 -->
<g id="edge4" class="edge">
<title>Node28&#45;&gt;Node29</title>
<path fill="none" stroke="#191970" d="M244.8136,-15.5C236.2143,-15.5 227.5675,-15.5 219.0303,-15.5"/>
<polygon fill="#191970" stroke="#191970" points="244.8772,-19.0001 254.8772,-15.5 244.8771,-12.0001 244.8772,-19.0001"/>
</g>
<!-- Node30&#45;&gt;Node28 -->
<g id="edge6" class="edge">
<title>Node30&#45;&gt;Node28</title>
<path fill="none" stroke="#191970" d="M518.7407,-15.5C504.1529,-15.5 489.0251,-15.5 474.1999,-15.5"/>
<polygon fill="#191970" stroke="#191970" points="518.7434,-19.0001 528.7433,-15.5 518.7433,-12.0001 518.7434,-19.0001"/>
</g>
</g>
</svg>
