<?xml version="1.0" encoding="UTF-8" standalone="no"?>
<!DOCTYPE svg PUBLIC "-//W3C//DTD SVG 1.1//EN"
 "http://www.w3.org/Graphics/SVG/1.1/DTD/svg11.dtd">
<!-- Generated by graphviz version 2.40.1 (0)
 -->
<!-- Title: leitse::aggregators::Ugg::itemsets Pages: 1 -->
<svg width="400pt" height="78pt"
 viewBox="0.00 0.00 400.00 77.50" xmlns="http://www.w3.org/2000/svg" xmlns:xlink="http://www.w3.org/1999/xlink">
<g id="graph0" class="graph" transform="scale(1 1) rotate(0) translate(4 73.5)">
<title>leitse::aggregators::Ugg::itemsets</title>
<!-- Node3 -->
<g id="node1" class="node">
<title>Node3</title>
<g id="a_node1"><a xlink:title=" ">
<polygon fill="#bfbfbf" stroke="#000000" points="0,-22.5 0,-52.5 159,-52.5 159,-22.5 0,-22.5"/>
<text text-anchor="start" x="8" y="-40.5" font-family="Helvetica,sans-Serif" font-size="10.00" fill="#000000">leitse::aggregators</text>
<text text-anchor="middle" x="79.5" y="-29.5" font-family="Helvetica,sans-Serif" font-size="10.00" fill="#000000">::Ugg::itemsets</text>
</a>
</g>
</g>
<!-- Node4 -->
<g id="node2" class="node">
<title>Node4</title>
<g id="a_node2"><a xlink:href="namespaceleitse.html#ae6311298e57be556517a34c61b4ab025" target="_top" xlink:title=" ">
<polygon fill="none" stroke="#000000" points="195,-50 195,-69 392,-69 392,-50 195,-50"/>
<text text-anchor="middle" x="293.5" y="-57" font-family="Helvetica,sans-Serif" font-size="10.00" fill="#000000">leitse::checked_download</text>
</a>
</g>
</g>
<!-- Node3&#45;&gt;Node4 -->
<g id="edge1" class="edge">
<title>Node3&#45;&gt;Node4</title>
<path fill="none" stroke="#191970" d="M159.1857,-45.692C169.4519,-46.7474 180.0776,-47.8398 190.6492,-48.9266"/>
<polygon fill="#191970" stroke="#191970" points="190.4493,-52.4244 200.7548,-49.9654 191.1652,-45.4611 190.4493,-52.4244"/>
</g>
<!-- Node5 -->
<g id="node3" class="node">
<title>Node5</title>
<g id="a_node3"><a xlink:href="structleitse_1_1aggregators_1_1_ugg.html#ab6c33748b46ffff18e21894ae00036e1" target="_top" xlink:title=" ">
<polygon fill="none" stroke="#000000" points="214,-.5 214,-30.5 373,-30.5 373,-.5 214,-.5"/>
<text text-anchor="start" x="222" y="-18.5" font-family="Helvetica,sans-Serif" font-size="10.00" fill="#000000">leitse::aggregators</text>
<text text-anchor="middle" x="293.5" y="-7.5" font-family="Helvetica,sans-Serif" font-size="10.00" fill="#000000">::Ugg::name</text>
</a>
</g>
</g>
<!-- Node3&#45;&gt;Node5 -->
<g id="edge2" class="edge">
<title>Node3&#45;&gt;Node5</title>
<path fill="none" stroke="#191970" d="M159.1857,-29.308C173.6686,-27.8191 188.8671,-26.2567 203.6198,-24.74"/>
<polygon fill="#191970" stroke="#191970" points="204.1581,-28.2032 213.7477,-23.6988 203.4422,-21.2399 204.1581,-28.2032"/>
</g>
</g>
</svg>
