<?xml version="1.0" encoding="UTF-8" standalone="no"?>
<!DOCTYPE svg PUBLIC "-//W3C//DTD SVG 1.1//EN"
 "http://www.w3.org/Graphics/SVG/1.1/DTD/svg11.dtd">
<!-- Generated by graphviz version 2.40.1 (0)
 -->
<!-- Title: leitse::ItemSet Pages: 1 -->
<svg width="577pt" height="429pt"
 viewBox="0.00 0.00 577.00 429.00" xmlns="http://www.w3.org/2000/svg" xmlns:xlink="http://www.w3.org/1999/xlink">
<g id="graph0" class="graph" transform="scale(1 1) rotate(0) translate(4 425)">
<title>leitse::ItemSet</title>
<!-- Node1 -->
<g id="node1" class="node">
<title>Node1</title>
<g id="a_node1"><a xlink:title=" ">
<polygon fill="#bfbfbf" stroke="#000000" points="362.5,-.5 362.5,-19.5 491.5,-19.5 491.5,-.5 362.5,-.5"/>
<text text-anchor="middle" x="427" y="-7.5" font-family="Helvetica,sans-Serif" font-size="10.00" fill="#000000">leitse::ItemSet</text>
</a>
</g>
</g>
<!-- Node2 -->
<g id="node2" class="node">
<title>Node2</title>
<g id="a_node2"><a xlink:title=" ">
<polygon fill="none" stroke="#bfbfbf" points="264.5,-67.5 264.5,-97.5 423.5,-97.5 423.5,-67.5 264.5,-67.5"/>
<text text-anchor="start" x="272.5" y="-85.5" font-family="Helvetica,sans-Serif" font-size="10.00" fill="#000000">std::vector&lt; leitse</text>
<text text-anchor="middle" x="344" y="-74.5" font-family="Helvetica,sans-Serif" font-size="10.00" fill="#000000">::ItemSet::Block &gt;</text>
</a>
</g>
</g>
<!-- Node2&#45;&gt;Node1 -->
<g id="edge1" class="edge">
<title>Node2&#45;&gt;Node1</title>
<path fill="none" stroke="#9a32cd" stroke-dasharray="5,2" d="M368.9259,-60.7274C384.4621,-47.1566 403.7067,-30.3466 415.6712,-19.8957"/>
<polygon fill="#9a32cd" stroke="#9a32cd" points="366.4265,-58.2633 361.1977,-67.478 371.0316,-63.5353 366.4265,-58.2633"/>
<text text-anchor="middle" x="418.5" y="-41" font-family="Helvetica,sans-Serif" font-size="10.00" fill="#000000"> blocks</text>
</g>
<!-- Node3 -->
<g id="node3" class="node">
<title>Node3</title>
<g id="a_node3"><a xlink:href="structleitse_1_1_item_set_1_1_block.html" target="_top" xlink:title=" ">
<polygon fill="none" stroke="#000000" points="134,-156.5 134,-175.5 316,-175.5 316,-156.5 134,-156.5"/>
<text text-anchor="middle" x="225" y="-163.5" font-family="Helvetica,sans-Serif" font-size="10.00" fill="#000000">leitse::ItemSet::Block</text>
</a>
</g>
</g>
<!-- Node3&#45;&gt;Node2 -->
<g id="edge2" class="edge">
<title>Node3&#45;&gt;Node2</title>
<path fill="none" stroke="#9a32cd" stroke-dasharray="5,2" d="M235.2199,-147.5144C241.7467,-137.1055 251.0337,-124.5248 262,-116 271.7131,-108.4494 283.3633,-102.3465 294.7914,-97.5237"/>
<polygon fill="#9a32cd" stroke="#9a32cd" points="232.1112,-145.8953 230.0329,-156.2844 238.1362,-149.4589 232.1112,-145.8953"/>
<text text-anchor="middle" x="296" y="-124.5" font-family="Helvetica,sans-Serif" font-size="10.00" fill="#000000"> elements</text>
</g>
<!-- Node4 -->
<g id="node4" class="node">
<title>Node4</title>
<g id="a_node4"><a xlink:title=" ">
<polygon fill="none" stroke="#bfbfbf" points="98.5,-234.5 98.5,-264.5 257.5,-264.5 257.5,-234.5 98.5,-234.5"/>
<text text-anchor="start" x="106.5" y="-252.5" font-family="Helvetica,sans-Serif" font-size="10.00" fill="#000000">std::vector&lt; leitse</text>
<text text-anchor="middle" x="178" y="-241.5" font-family="Helvetica,sans-Serif" font-size="10.00" fill="#000000">::ItemSet::Item &gt;</text>
</a>
</g>
</g>
<!-- Node4&#45;&gt;Node3 -->
<g id="edge3" class="edge">
<title>Node4&#45;&gt;Node3</title>
<path fill="none" stroke="#9a32cd" stroke-dasharray="5,2" d="M189.532,-224.9599C194.3477,-215.1762 200.1725,-203.9068 206,-194 209.6934,-187.7212 214.2666,-180.9557 218.0007,-175.648"/>
<polygon fill="#9a32cd" stroke="#9a32cd" points="186.2938,-223.6166 185.0898,-234.1428 192.5952,-226.6649 186.2938,-223.6166"/>
<text text-anchor="middle" x="229" y="-202.5" font-family="Helvetica,sans-Serif" font-size="10.00" fill="#000000"> items</text>
</g>
<!-- Node5 -->
<g id="node5" class="node">
<title>Node5</title>
<g id="a_node5"><a xlink:href="structleitse_1_1_item_set_1_1_item.html" target="_top" xlink:title=" ">
<polygon fill="none" stroke="#000000" points="0,-329 0,-348 174,-348 174,-329 0,-329"/>
<text text-anchor="middle" x="87" y="-336" font-family="Helvetica,sans-Serif" font-size="10.00" fill="#000000">leitse::ItemSet::Item</text>
</a>
</g>
</g>
<!-- Node5&#45;&gt;Node4 -->
<g id="edge4" class="edge">
<title>Node5&#45;&gt;Node4</title>
<path fill="none" stroke="#9a32cd" stroke-dasharray="5,2" d="M82.2388,-318.9211C80.6137,-307.4507 80.74,-293.2507 88,-283 92.6735,-276.4013 106.7267,-269.9936 122.3805,-264.5795"/>
<polygon fill="#9a32cd" stroke="#9a32cd" points="78.8262,-319.7086 84.158,-328.8641 85.6993,-318.382 78.8262,-319.7086"/>
<text text-anchor="middle" x="122" y="-291.5" font-family="Helvetica,sans-Serif" font-size="10.00" fill="#000000"> elements</text>
</g>
<!-- Node6 -->
<g id="node6" class="node">
<title>Node6</title>
<g id="a_node6"><a xlink:title="STL class.">
<polygon fill="none" stroke="#bfbfbf" points="233.5,-329 233.5,-348 370.5,-348 370.5,-329 233.5,-329"/>
<text text-anchor="middle" x="302" y="-336" font-family="Helvetica,sans-Serif" font-size="10.00" fill="#000000">std::vector&lt; T &gt;</text>
</a>
</g>
</g>
<!-- Node6&#45;&gt;Node2 -->
<g id="edge9" class="edge">
<title>Node6&#45;&gt;Node2</title>
<path fill="none" stroke="#ffa500" stroke-dasharray="5,2" d="M319.8445,-321.3365C323.881,-316.4573 327.6613,-310.8635 330,-305 345.092,-267.1619 344.8304,-141.1129 344.2607,-97.5017"/>
<polygon fill="#ffa500" stroke="#ffa500" points="317.1885,-319.0544 313.0188,-328.7943 322.3522,-323.7805 317.1885,-319.0544"/>
<text text-anchor="start" x="344" y="-208" font-family="Helvetica,sans-Serif" font-size="10.00" fill="#000000"> &lt; leitse::ItemSet::</text>
<text text-anchor="middle" x="419.5" y="-197" font-family="Helvetica,sans-Serif" font-size="10.00" fill="#000000">Block &gt;</text>
</g>
<!-- Node6&#45;&gt;Node4 -->
<g id="edge5" class="edge">
<title>Node6&#45;&gt;Node4</title>
<path fill="none" stroke="#ffa500" stroke-dasharray="5,2" d="M246.9861,-326.6953C216.3667,-319.5751 183.5082,-310.7914 179,-305 170.2389,-293.7453 171.2736,-276.9541 173.7059,-264.7897"/>
<polygon fill="#ffa500" stroke="#ffa500" points="246.2813,-330.1244 256.81,-328.9427 247.8424,-323.3007 246.2813,-330.1244"/>
<text text-anchor="start" x="179" y="-297" font-family="Helvetica,sans-Serif" font-size="10.00" fill="#000000"> &lt; leitse::ItemSet::</text>
<text text-anchor="middle" x="254.5" y="-286" font-family="Helvetica,sans-Serif" font-size="10.00" fill="#000000">Item &gt;</text>
</g>
<!-- Node7 -->
<g id="node7" class="node">
<title>Node7</title>
<g id="a_node7"><a xlink:title=" ">
<polygon fill="none" stroke="#bfbfbf" points="287.5,-401.5 287.5,-420.5 316.5,-420.5 316.5,-401.5 287.5,-401.5"/>
<text text-anchor="middle" x="302" y="-408.5" font-family="Helvetica,sans-Serif" font-size="10.00" fill="#000000">T</text>
</a>
</g>
</g>
<!-- Node7&#45;&gt;Node6 -->
<g id="edge6" class="edge">
<title>Node7&#45;&gt;Node6</title>
<path fill="none" stroke="#9a32cd" stroke-dasharray="5,2" d="M302,-391.1054C302,-377.1237 302,-359.0346 302,-348.1228"/>
<polygon fill="#9a32cd" stroke="#9a32cd" points="298.5001,-391.2223 302,-401.2223 305.5001,-391.2224 298.5001,-391.2223"/>
<text text-anchor="middle" x="336" y="-375" font-family="Helvetica,sans-Serif" font-size="10.00" fill="#000000"> elements</text>
</g>
<!-- Node8 -->
<g id="node8" class="node">
<title>Node8</title>
<g id="a_node8"><a xlink:title="STL class.">
<polygon fill="none" stroke="#bfbfbf" points="437.5,-240 437.5,-259 536.5,-259 536.5,-240 437.5,-240"/>
<text text-anchor="middle" x="487" y="-247" font-family="Helvetica,sans-Serif" font-size="10.00" fill="#000000">std::string</text>
</a>
</g>
</g>
<!-- Node8&#45;&gt;Node1 -->
<g id="edge10" class="edge">
<title>Node8&#45;&gt;Node1</title>
<path fill="none" stroke="#9a32cd" stroke-dasharray="5,2" d="M493.1284,-230.1226C494.3201,-225.5386 495.3883,-220.6345 496,-216 497.2795,-206.3063 497.4255,-203.6733 496,-194 485.4427,-122.362 482.3933,-102.2522 449,-38 445.5789,-31.4174 440.5311,-24.8536 436.1333,-19.7374"/>
<polygon fill="#9a32cd" stroke="#9a32cd" points="489.6993,-229.3816 490.2806,-239.9605 496.4232,-231.3281 489.6993,-229.3816"/>
<text text-anchor="middle" x="527.5" y="-130" font-family="Helvetica,sans-Serif" font-size="10.00" fill="#000000"> role_</text>
<text text-anchor="middle" x="527.5" y="-119" font-family="Helvetica,sans-Serif" font-size="10.00" fill="#000000">aggregator_</text>
</g>
<!-- Node8&#45;&gt;Node3 -->
<g id="edge7" class="edge">
<title>Node8&#45;&gt;Node3</title>
<path fill="none" stroke="#9a32cd" stroke-dasharray="5,2" d="M427.3269,-243.2167C376.8472,-237.2525 308.8701,-227.505 284,-216 273.1546,-210.9829 248.867,-188.7697 235.0735,-175.6993"/>
<polygon fill="#9a32cd" stroke="#9a32cd" points="427.1546,-246.72 437.4911,-244.3948 427.9606,-239.7666 427.1546,-246.72"/>
<text text-anchor="middle" x="303" y="-202.5" font-family="Helvetica,sans-Serif" font-size="10.00" fill="#000000"> name</text>
</g>
<!-- Node9 -->
<g id="node9" class="node">
<title>Node9</title>
<g id="a_node9"><a xlink:title="STL class.">
<polygon fill="none" stroke="#bfbfbf" points="411,-323.5 411,-353.5 563,-353.5 563,-323.5 411,-323.5"/>
<text text-anchor="start" x="419" y="-341.5" font-family="Helvetica,sans-Serif" font-size="10.00" fill="#000000">std::basic_string&lt;</text>
<text text-anchor="middle" x="487" y="-330.5" font-family="Helvetica,sans-Serif" font-size="10.00" fill="#000000"> char &gt;</text>
</a>
</g>
</g>
<!-- Node9&#45;&gt;Node8 -->
<g id="edge8" class="edge">
<title>Node9&#45;&gt;Node8</title>
<path fill="none" stroke="#191970" d="M487,-313.321C487,-295.4221 487,-272.3481 487,-259.4182"/>
<polygon fill="#191970" stroke="#191970" points="483.5001,-313.4023 487,-323.4024 490.5001,-313.4024 483.5001,-313.4023"/>
</g>
</g>
</svg>
