<?xml version="1.0" encoding="UTF-8" standalone="no"?>
<!DOCTYPE svg PUBLIC "-//W3C//DTD SVG 1.1//EN"
 "http://www.w3.org/Graphics/SVG/1.1/DTD/svg11.dtd">
<!-- Generated by graphviz version 2.40.1 (0)
 -->
<!-- Title: leitse::DataDragon Pages: 1 -->
<svg width="351pt" height="240pt"
 viewBox="0.00 0.00 350.50 240.00" xmlns="http://www.w3.org/2000/svg" xmlns:xlink="http://www.w3.org/1999/xlink">
<g id="graph0" class="graph" transform="scale(1 1) rotate(0) translate(4 236)">
<title>leitse::DataDragon</title>
<!-- Node1 -->
<g id="node1" class="node">
<title>Node1</title>
<g id="a_node1"><a xlink:title=" ">
<polygon fill="#bfbfbf" stroke="#000000" points="53.5,-.5 53.5,-19.5 205.5,-19.5 205.5,-.5 53.5,-.5"/>
<text text-anchor="middle" x="129.5" y="-7.5" font-family="Helvetica,sans-Serif" font-size="10.00" fill="#000000">leitse::DataDragon</text>
</a>
</g>
</g>
<!-- Node2 -->
<g id="node2" class="node">
<title>Node2</title>
<g id="a_node2"><a xlink:title=" ">
<polygon fill="none" stroke="#bfbfbf" points="50,-67.5 50,-97.5 209,-97.5 209,-67.5 50,-67.5"/>
<text text-anchor="start" x="58" y="-85.5" font-family="Helvetica,sans-Serif" font-size="10.00" fill="#000000">std::vector&lt; leitse</text>
<text text-anchor="middle" x="129.5" y="-74.5" font-family="Helvetica,sans-Serif" font-size="10.00" fill="#000000">::Champion &gt;</text>
</a>
</g>
</g>
<!-- Node2&#45;&gt;Node1 -->
<g id="edge1" class="edge">
<title>Node2&#45;&gt;Node1</title>
<path fill="none" stroke="#9a32cd" stroke-dasharray="5,2" d="M129.5,-57.305C129.5,-44.424 129.5,-29.4836 129.5,-19.8957"/>
<polygon fill="#9a32cd" stroke="#9a32cd" points="126.0001,-57.4779 129.5,-67.478 133.0001,-57.478 126.0001,-57.4779"/>
<text text-anchor="middle" x="171" y="-41" font-family="Helvetica,sans-Serif" font-size="10.00" fill="#000000"> champions_</text>
</g>
<!-- Node3 -->
<g id="node3" class="node">
<title>Node3</title>
<g id="a_node3"><a xlink:href="structleitse_1_1_champion.html" target="_top" xlink:title=" ">
<polygon fill="none" stroke="#000000" points="0,-145.5 0,-164.5 137,-164.5 137,-145.5 0,-145.5"/>
<text text-anchor="middle" x="68.5" y="-152.5" font-family="Helvetica,sans-Serif" font-size="10.00" fill="#000000">leitse::Champion</text>
</a>
</g>
</g>
<!-- Node3&#45;&gt;Node2 -->
<g id="edge2" class="edge">
<title>Node3&#45;&gt;Node2</title>
<path fill="none" stroke="#9a32cd" stroke-dasharray="5,2" d="M83.2034,-137.5247C93.4396,-125.3587 106.9547,-109.2956 116.7379,-97.668"/>
<polygon fill="#9a32cd" stroke="#9a32cd" points="80.4867,-135.3171 76.7267,-145.2223 85.843,-139.8238 80.4867,-135.3171"/>
<text text-anchor="middle" x="134.5" y="-119" font-family="Helvetica,sans-Serif" font-size="10.00" fill="#000000"> elements</text>
</g>
<!-- Node4 -->
<g id="node4" class="node">
<title>Node4</title>
<g id="a_node4"><a xlink:title="STL class.">
<polygon fill="none" stroke="#bfbfbf" points="155,-145.5 155,-164.5 292,-164.5 292,-145.5 155,-145.5"/>
<text text-anchor="middle" x="223.5" y="-152.5" font-family="Helvetica,sans-Serif" font-size="10.00" fill="#000000">std::vector&lt; T &gt;</text>
</a>
</g>
</g>
<!-- Node4&#45;&gt;Node2 -->
<g id="edge3" class="edge">
<title>Node4&#45;&gt;Node2</title>
<path fill="none" stroke="#ffa500" stroke-dasharray="5,2" d="M202.6394,-138.9107C186.679,-126.6008 164.8218,-109.7429 149.1661,-97.668"/>
<polygon fill="#ffa500" stroke="#ffa500" points="200.7668,-141.8865 210.8227,-145.2223 205.0419,-136.3436 200.7668,-141.8865"/>
<text text-anchor="middle" x="263.5" y="-119" font-family="Helvetica,sans-Serif" font-size="10.00" fill="#000000"> &lt; leitse::Champion &gt;</text>
</g>
<!-- Node5 -->
<g id="node5" class="node">
<title>Node5</title>
<g id="a_node5"><a xlink:title=" ">
<polygon fill="none" stroke="#bfbfbf" points="209,-212.5 209,-231.5 238,-231.5 238,-212.5 209,-212.5"/>
<text text-anchor="middle" x="223.5" y="-219.5" font-family="Helvetica,sans-Serif" font-size="10.00" fill="#000000">T</text>
</a>
</g>
</g>
<!-- Node5&#45;&gt;Node4 -->
<g id="edge4" class="edge">
<title>Node5&#45;&gt;Node4</title>
<path fill="none" stroke="#9a32cd" stroke-dasharray="5,2" d="M223.5,-202.1079C223.5,-189.714 223.5,-174.3263 223.5,-164.5817"/>
<polygon fill="#9a32cd" stroke="#9a32cd" points="220.0001,-202.4005 223.5,-212.4005 227.0001,-202.4006 220.0001,-202.4005"/>
<text text-anchor="middle" x="257.5" y="-186" font-family="Helvetica,sans-Serif" font-size="10.00" fill="#000000"> elements</text>
</g>
</g>
</svg>
