<?xml version="1.0" encoding="UTF-8" standalone="no"?>
<!DOCTYPE svg PUBLIC "-//W3C//DTD SVG 1.1//EN"
 "http://www.w3.org/Graphics/SVG/1.1/DTD/svg11.dtd">
<!-- Generated by graphviz version 2.40.1 (0)
 -->
<!-- Title: config::Config::parse_file_content Pages: 1 -->
<svg width="1188pt" height="105pt"
 viewBox="0.00 0.00 1188.00 105.00" xmlns="http://www.w3.org/2000/svg" xmlns:xlink="http://www.w3.org/1999/xlink">
<g id="graph0" class="graph" transform="scale(1 1) rotate(0) translate(4 101)">
<title>config::Config::parse_file_content</title>
<!-- Node40 -->
<g id="node1" class="node">
<title>Node40</title>
<g id="a_node1"><a xlink:title=" ">
<polygon fill="#bfbfbf" stroke="#000000" points="1006,-3.5 1006,-33.5 1180,-33.5 1180,-3.5 1006,-3.5"/>
<text text-anchor="start" x="1014" y="-21.5" font-family="Helvetica,sans-Serif" font-size="10.00" fill="#000000">config::Config::parse</text>
<text text-anchor="middle" x="1093" y="-10.5" font-family="Helvetica,sans-Serif" font-size="10.00" fill="#000000">_file_content</text>
</a>
</g>
</g>
<!-- Node41 -->
<g id="node2" class="node">
<title>Node41</title>
<g id="a_node2"><a xlink:href="structconfig_1_1_config.html#a8eb0be2dcc2b23168834d10674330c5f" target="_top" xlink:title=" ">
<polygon fill="none" stroke="#000000" points="758,-28 758,-47 970,-47 970,-28 758,-28"/>
<text text-anchor="middle" x="864" y="-35" font-family="Helvetica,sans-Serif" font-size="10.00" fill="#000000">config::Config::parse_file</text>
</a>
</g>
</g>
<!-- Node40&#45;&gt;Node41 -->
<g id="edge1" class="edge">
<title>Node40&#45;&gt;Node41</title>
<path fill="none" stroke="#191970" d="M995.6002,-26.5812C987.2001,-27.2782 978.6743,-27.9855 970.2093,-28.6879"/>
<polygon fill="#191970" stroke="#191970" points="996.0953,-30.0522 1005.7717,-25.7373 995.5165,-23.0762 996.0953,-30.0522"/>
</g>
<!-- Node43 -->
<g id="node4" class="node">
<title>Node43</title>
<g id="a_node4"><a xlink:href="namespaceconfig_1_1test.html#aaecf6f168613d97556ee5a67a4da8192" target="_top" xlink:title=" ">
<polygon fill="none" stroke="#000000" points="288.5,-.5 288.5,-30.5 440.5,-30.5 440.5,-.5 288.5,-.5"/>
<text text-anchor="start" x="296.5" y="-18.5" font-family="Helvetica,sans-Serif" font-size="10.00" fill="#000000">config::test::TEST</text>
<text text-anchor="middle" x="364.5" y="-7.5" font-family="Helvetica,sans-Serif" font-size="10.00" fill="#000000">_SUITE</text>
</a>
</g>
</g>
<!-- Node40&#45;&gt;Node43 -->
<g id="edge8" class="edge">
<title>Node40&#45;&gt;Node43</title>
<path fill="none" stroke="#191970" d="M995.5034,-18.0985C848.6846,-17.4939 573.8768,-16.3622 440.7119,-15.8138"/>
<polygon fill="#191970" stroke="#191970" points="995.8351,-21.5998 1005.8495,-18.1411 995.864,-14.5999 995.8351,-21.5998"/>
</g>
<!-- Node42 -->
<g id="node3" class="node">
<title>Node42</title>
<g id="a_node3"><a xlink:href="structconfig_1_1_config.html#af7d0bbe0e41a086d991fc545cc886212" target="_top" xlink:title=" ">
<polygon fill="none" stroke="#000000" points="510,-28 510,-47 722,-47 722,-28 510,-28"/>
<text text-anchor="middle" x="616" y="-35" font-family="Helvetica,sans-Serif" font-size="10.00" fill="#000000">config::Config::parse_args</text>
</a>
</g>
</g>
<!-- Node41&#45;&gt;Node42 -->
<g id="edge2" class="edge">
<title>Node41&#45;&gt;Node42</title>
<path fill="none" stroke="#191970" d="M747.7207,-37.5C739.1526,-37.5 730.5352,-37.5 722.0328,-37.5"/>
<polygon fill="#191970" stroke="#191970" points="747.7465,-41.0001 757.7464,-37.5 747.7464,-34.0001 747.7465,-41.0001"/>
</g>
<!-- Node46 -->
<g id="node7" class="node">
<title>Node46</title>
<g id="a_node7"><a xlink:href="structconfig_1_1_config.html#a26453f75e7ce4f024b90669e437c10de" target="_top" xlink:title=" ">
<polygon fill="none" stroke="#000000" points="529,-66.5 529,-96.5 703,-96.5 703,-66.5 529,-66.5"/>
<text text-anchor="start" x="537" y="-84.5" font-family="Helvetica,sans-Serif" font-size="10.00" fill="#000000">config::Config::parse</text>
<text text-anchor="middle" x="616" y="-73.5" font-family="Helvetica,sans-Serif" font-size="10.00" fill="#000000">_global_config</text>
</a>
</g>
</g>
<!-- Node41&#45;&gt;Node46 -->
<g id="edge6" class="edge">
<title>Node41&#45;&gt;Node46</title>
<path fill="none" stroke="#191970" d="M800.1936,-48.8205C769.9679,-54.1831 733.4423,-60.6635 700.9139,-66.4346"/>
<polygon fill="#191970" stroke="#191970" points="800.9529,-52.2405 810.1877,-47.0473 799.73,-45.3482 800.9529,-52.2405"/>
</g>
<!-- Node42&#45;&gt;Node43 -->
<g id="edge3" class="edge">
<title>Node42&#45;&gt;Node43</title>
<path fill="none" stroke="#191970" d="M499.6028,-27.3181C479.5965,-25.5681 459.2728,-23.7903 440.6722,-22.1632"/>
<polygon fill="#191970" stroke="#191970" points="499.4389,-30.8171 509.7059,-28.2019 500.049,-23.8437 499.4389,-30.8171"/>
</g>
<!-- Node44 -->
<g id="node5" class="node">
<title>Node44</title>
<g id="a_node5"><a xlink:href="namespaceleitse_1_1anonymous__namespace_02main_8cpp_03.html#a22efba3a32984564056202cc7db3f0de" target="_top" xlink:title=" ">
<polygon fill="none" stroke="#000000" points="255,-57.5 255,-87.5 474,-87.5 474,-57.5 255,-57.5"/>
<text text-anchor="start" x="263" y="-75.5" font-family="Helvetica,sans-Serif" font-size="10.00" fill="#000000">leitse::anonymous_namespace</text>
<text text-anchor="middle" x="364.5" y="-64.5" font-family="Helvetica,sans-Serif" font-size="10.00" fill="#000000">{main::cpp}::main_impl</text>
</a>
</g>
</g>
<!-- Node42&#45;&gt;Node44 -->
<g id="edge4" class="edge">
<title>Node42&#45;&gt;Node44</title>
<path fill="none" stroke="#191970" d="M537.6682,-48.401C517.0692,-51.2677 494.4814,-54.4111 472.6189,-57.4536"/>
<polygon fill="#191970" stroke="#191970" points="538.1866,-51.8627 547.6087,-47.0177 537.2217,-44.9295 538.1866,-51.8627"/>
</g>
<!-- Node45 -->
<g id="node6" class="node">
<title>Node45</title>
<g id="a_node6"><a xlink:href="namespaceleitse_1_1anonymous__namespace_02main_8cpp_03.html#a79fa099cfa983c75df11f0a42e7586e4" target="_top" xlink:title=" ">
<polygon fill="none" stroke="#000000" points="0,-57.5 0,-87.5 219,-87.5 219,-57.5 0,-57.5"/>
<text text-anchor="start" x="8" y="-75.5" font-family="Helvetica,sans-Serif" font-size="10.00" fill="#000000">leitse::anonymous_namespace</text>
<text text-anchor="middle" x="109.5" y="-64.5" font-family="Helvetica,sans-Serif" font-size="10.00" fill="#000000">{main::cpp}::main</text>
</a>
</g>
</g>
<!-- Node44&#45;&gt;Node45 -->
<g id="edge5" class="edge">
<title>Node44&#45;&gt;Node45</title>
<path fill="none" stroke="#191970" d="M244.8136,-72.5C236.2143,-72.5 227.5675,-72.5 219.0303,-72.5"/>
<polygon fill="#191970" stroke="#191970" points="244.8772,-76.0001 254.8772,-72.5 244.8771,-69.0001 244.8772,-76.0001"/>
</g>
<!-- Node46&#45;&gt;Node44 -->
<g id="edge7" class="edge">
<title>Node46&#45;&gt;Node44</title>
<path fill="none" stroke="#191970" d="M518.7407,-78.0195C504.1529,-77.4975 489.0251,-76.9562 474.1999,-76.4256"/>
<polygon fill="#191970" stroke="#191970" points="518.6245,-81.5175 528.7433,-78.3775 518.8749,-74.522 518.6245,-81.5175"/>
</g>
</g>
</svg>
