<?xml version="1.0" encoding="UTF-8" standalone="no"?>
<!DOCTYPE svg PUBLIC "-//W3C//DTD SVG 1.1//EN"
 "http://www.w3.org/Graphics/SVG/1.1/DTD/svg11.dtd">
<!-- Generated by graphviz version 2.40.1 (0)
 -->
<!-- Title: leitse::ItemSet Pages: 1 -->
<svg width="581pt" height="475pt"
 viewBox="0.00 0.00 580.50 475.00" xmlns="http://www.w3.org/2000/svg" xmlns:xlink="http://www.w3.org/1999/xlink">
<g id="graph0" class="graph" transform="scale(1 1) rotate(0) translate(4 471)">
<title>leitse::ItemSet</title>
<!-- Node1 -->
<g id="node1" class="node">
<title>Node1</title>
<g id="a_node1"><a xlink:title=" ">
<polygon fill="#bfbfbf" stroke="#000000" points="0,-.5 0,-19.5 129,-19.5 129,-.5 0,-.5"/>
<text text-anchor="middle" x="64.5" y="-7.5" font-family="Helvetica,sans-Serif" font-size="10.00" fill="#000000">leitse::ItemSet</text>
</a>
</g>
</g>
<!-- Node2 -->
<g id="node2" class="node">
<title>Node2</title>
<g id="a_node2"><a xlink:title=" ">
<polygon fill="none" stroke="#bfbfbf" points="113,-67.5 113,-97.5 272,-97.5 272,-67.5 113,-67.5"/>
<text text-anchor="start" x="121" y="-85.5" font-family="Helvetica,sans-Serif" font-size="10.00" fill="#000000">std::vector&lt; leitse</text>
<text text-anchor="middle" x="192.5" y="-74.5" font-family="Helvetica,sans-Serif" font-size="10.00" fill="#000000">::ItemSet::Block &gt;</text>
</a>
</g>
</g>
<!-- Node2&#45;&gt;Node1 -->
<g id="edge1" class="edge">
<title>Node2&#45;&gt;Node1</title>
<path fill="none" stroke="#9a32cd" stroke-dasharray="5,2" d="M157.2671,-62.5439C132.6422,-48.5961 100.8424,-30.5845 81.5946,-19.6825"/>
<polygon fill="#9a32cd" stroke="#9a32cd" points="155.5521,-65.5949 165.9783,-67.478 159.0021,-59.5041 155.5521,-65.5949"/>
<text text-anchor="middle" x="159" y="-41" font-family="Helvetica,sans-Serif" font-size="10.00" fill="#000000"> blocks</text>
</g>
<!-- Node3 -->
<g id="node3" class="node">
<title>Node3</title>
<g id="a_node3"><a xlink:href="structleitse_1_1_item_set_1_1_block.html" target="_top" xlink:title=" ">
<polygon fill="none" stroke="#000000" points="101.5,-145.5 101.5,-164.5 283.5,-164.5 283.5,-145.5 101.5,-145.5"/>
<text text-anchor="middle" x="192.5" y="-152.5" font-family="Helvetica,sans-Serif" font-size="10.00" fill="#000000">leitse::ItemSet::Block</text>
</a>
</g>
</g>
<!-- Node3&#45;&gt;Node2 -->
<g id="edge2" class="edge">
<title>Node3&#45;&gt;Node2</title>
<path fill="none" stroke="#9a32cd" stroke-dasharray="5,2" d="M192.5,-135.0177C192.5,-123.2164 192.5,-108.513 192.5,-97.668"/>
<polygon fill="#9a32cd" stroke="#9a32cd" points="189.0001,-135.2223 192.5,-145.2223 196.0001,-135.2224 189.0001,-135.2223"/>
<text text-anchor="middle" x="226.5" y="-119" font-family="Helvetica,sans-Serif" font-size="10.00" fill="#000000"> elements</text>
</g>
<!-- Node4 -->
<g id="node4" class="node">
<title>Node4</title>
<g id="a_node4"><a xlink:title=" ">
<polygon fill="none" stroke="#bfbfbf" points="174,-223.5 174,-253.5 333,-253.5 333,-223.5 174,-223.5"/>
<text text-anchor="start" x="182" y="-241.5" font-family="Helvetica,sans-Serif" font-size="10.00" fill="#000000">std::vector&lt; leitse</text>
<text text-anchor="middle" x="253.5" y="-230.5" font-family="Helvetica,sans-Serif" font-size="10.00" fill="#000000">::ItemSet::Item &gt;</text>
</a>
</g>
</g>
<!-- Node4&#45;&gt;Node3 -->
<g id="edge3" class="edge">
<title>Node4&#45;&gt;Node3</title>
<path fill="none" stroke="#9a32cd" stroke-dasharray="5,2" d="M236.304,-214.9612C224.0937,-198.2471 208.3453,-176.6899 199.4418,-164.5023"/>
<polygon fill="#9a32cd" stroke="#9a32cd" points="233.5865,-217.1746 242.3117,-223.1848 239.2389,-213.0453 233.5865,-217.1746"/>
<text text-anchor="middle" x="251.5" y="-191.5" font-family="Helvetica,sans-Serif" font-size="10.00" fill="#000000"> items</text>
</g>
<!-- Node5 -->
<g id="node5" class="node">
<title>Node5</title>
<g id="a_node5"><a xlink:href="structleitse_1_1_item_set_1_1_item.html" target="_top" xlink:title=" ">
<polygon fill="none" stroke="#000000" points="174.5,-312.5 174.5,-331.5 348.5,-331.5 348.5,-312.5 174.5,-312.5"/>
<text text-anchor="middle" x="261.5" y="-319.5" font-family="Helvetica,sans-Serif" font-size="10.00" fill="#000000">leitse::ItemSet::Item</text>
</a>
</g>
</g>
<!-- Node5&#45;&gt;Node4 -->
<g id="edge4" class="edge">
<title>Node5&#45;&gt;Node4</title>
<path fill="none" stroke="#9a32cd" stroke-dasharray="5,2" d="M239.3651,-305.5515C236.1662,-302.1127 233.3385,-298.2308 231.5,-294 225.6341,-280.5014 233.0446,-264.9017 240.8078,-253.685"/>
<polygon fill="#9a32cd" stroke="#9a32cd" points="236.9968,-308.1287 246.7208,-312.3353 241.7425,-302.9829 236.9968,-308.1287"/>
<text text-anchor="middle" x="265.5" y="-280.5" font-family="Helvetica,sans-Serif" font-size="10.00" fill="#000000"> elements</text>
</g>
<!-- Node6 -->
<g id="node6" class="node">
<title>Node6</title>
<g id="a_node6"><a xlink:title="STL class.">
<polygon fill="none" stroke="#bfbfbf" points="97,-379.5 97,-398.5 196,-398.5 196,-379.5 97,-379.5"/>
<text text-anchor="middle" x="146.5" y="-386.5" font-family="Helvetica,sans-Serif" font-size="10.00" fill="#000000">std::string</text>
</a>
</g>
</g>
<!-- Node6&#45;&gt;Node1 -->
<g id="edge11" class="edge">
<title>Node6&#45;&gt;Node1</title>
<path fill="none" stroke="#9a32cd" stroke-dasharray="5,2" d="M99.1024,-375.9406C74.0801,-365.8568 48.5,-348.9561 48.5,-322 48.5,-322 48.5,-322 48.5,-82.5 48.5,-59.5564 56.2354,-33.4679 60.9491,-19.7002"/>
<polygon fill="#9a32cd" stroke="#9a32cd" points="98.0178,-379.2714 108.6106,-379.4782 100.4588,-372.7108 98.0178,-379.2714"/>
<text text-anchor="middle" x="90" y="-197" font-family="Helvetica,sans-Serif" font-size="10.00" fill="#000000"> role_</text>
<text text-anchor="middle" x="90" y="-186" font-family="Helvetica,sans-Serif" font-size="10.00" fill="#000000">aggregator_</text>
</g>
<!-- Node6&#45;&gt;Node3 -->
<g id="edge9" class="edge">
<title>Node6&#45;&gt;Node3</title>
<path fill="none" stroke="#9a32cd" stroke-dasharray="5,2" d="M146.842,-369.4435C147.7846,-338.0779 151.3138,-274.7905 164.5,-223 169.9812,-201.4719 180.9467,-177.7942 187.4091,-164.8345"/>
<polygon fill="#9a32cd" stroke="#9a32cd" points="143.3423,-369.3925 146.5987,-379.4745 150.3402,-369.5624 143.3423,-369.3925"/>
<text text-anchor="middle" x="174.5" y="-280.5" font-family="Helvetica,sans-Serif" font-size="10.00" fill="#000000"> name</text>
</g>
<!-- Node6&#45;&gt;Node5 -->
<g id="edge5" class="edge">
<title>Node6&#45;&gt;Node5</title>
<path fill="none" stroke="#9a32cd" stroke-dasharray="5,2" d="M171.8841,-374.211C194.1724,-361.2256 225.9385,-342.7184 245.0539,-331.5817"/>
<polygon fill="#9a32cd" stroke="#9a32cd" points="169.8553,-371.3423 162.9767,-379.4005 173.3792,-377.3906 169.8553,-371.3423"/>
<text text-anchor="middle" x="223" y="-353" font-family="Helvetica,sans-Serif" font-size="10.00" fill="#000000"> id</text>
</g>
<!-- Node7 -->
<g id="node7" class="node">
<title>Node7</title>
<g id="a_node7"><a xlink:title="STL class.">
<polygon fill="none" stroke="#bfbfbf" points="70.5,-436.5 70.5,-466.5 222.5,-466.5 222.5,-436.5 70.5,-436.5"/>
<text text-anchor="start" x="78.5" y="-454.5" font-family="Helvetica,sans-Serif" font-size="10.00" fill="#000000">std::basic_string&lt;</text>
<text text-anchor="middle" x="146.5" y="-443.5" font-family="Helvetica,sans-Serif" font-size="10.00" fill="#000000"> char &gt;</text>
</a>
</g>
</g>
<!-- Node7&#45;&gt;Node6 -->
<g id="edge6" class="edge">
<title>Node7&#45;&gt;Node6</title>
<path fill="none" stroke="#191970" d="M146.5,-426.3498C146.5,-416.6481 146.5,-406.1303 146.5,-398.7356"/>
<polygon fill="#191970" stroke="#191970" points="143.0001,-426.3705 146.5,-436.3705 150.0001,-426.3705 143.0001,-426.3705"/>
</g>
<!-- Node8 -->
<g id="node8" class="node">
<title>Node8</title>
<g id="a_node8"><a xlink:title="STL class.">
<polygon fill="none" stroke="#bfbfbf" points="393,-312.5 393,-331.5 530,-331.5 530,-312.5 393,-312.5"/>
<text text-anchor="middle" x="461.5" y="-319.5" font-family="Helvetica,sans-Serif" font-size="10.00" fill="#000000">std::vector&lt; T &gt;</text>
</a>
</g>
</g>
<!-- Node8&#45;&gt;Node2 -->
<g id="edge10" class="edge">
<title>Node8&#45;&gt;Node2</title>
<path fill="none" stroke="#ffa500" stroke-dasharray="5,2" d="M471.9615,-303.1787C475.8968,-293.4931 478.3706,-281.7132 473.5,-272 425.9587,-177.1902 306.0569,-121.9455 239.2619,-97.553"/>
<polygon fill="#ffa500" stroke="#ffa500" points="468.7373,-301.8082 467.5781,-312.3394 475.0516,-304.8296 468.7373,-301.8082"/>
<text text-anchor="start" x="421.5" y="-197" font-family="Helvetica,sans-Serif" font-size="10.00" fill="#000000"> &lt; leitse::ItemSet::</text>
<text text-anchor="middle" x="497" y="-186" font-family="Helvetica,sans-Serif" font-size="10.00" fill="#000000">Block &gt;</text>
</g>
<!-- Node8&#45;&gt;Node4 -->
<g id="edge7" class="edge">
<title>Node8&#45;&gt;Node4</title>
<path fill="none" stroke="#ffa500" stroke-dasharray="5,2" d="M386.4739,-310.6979C360.0839,-305.9188 334.1109,-300.0592 322.5,-294 309.9593,-287.4556 310.3527,-281.0729 299.5,-272 291.9204,-265.6634 283.2433,-259.1656 275.4827,-253.5994"/>
<polygon fill="#ffa500" stroke="#ffa500" points="386.1244,-314.1901 396.5795,-312.4748 387.3367,-307.2959 386.1244,-314.1901"/>
<text text-anchor="start" x="322.5" y="-286" font-family="Helvetica,sans-Serif" font-size="10.00" fill="#000000"> &lt; leitse::ItemSet::</text>
<text text-anchor="middle" x="398" y="-275" font-family="Helvetica,sans-Serif" font-size="10.00" fill="#000000">Item &gt;</text>
</g>
<!-- Node9 -->
<g id="node9" class="node">
<title>Node9</title>
<g id="a_node9"><a xlink:title=" ">
<polygon fill="none" stroke="#bfbfbf" points="447,-379.5 447,-398.5 476,-398.5 476,-379.5 447,-379.5"/>
<text text-anchor="middle" x="461.5" y="-386.5" font-family="Helvetica,sans-Serif" font-size="10.00" fill="#000000">T</text>
</a>
</g>
</g>
<!-- Node9&#45;&gt;Node8 -->
<g id="edge8" class="edge">
<title>Node9&#45;&gt;Node8</title>
<path fill="none" stroke="#9a32cd" stroke-dasharray="5,2" d="M461.5,-369.1079C461.5,-356.714 461.5,-341.3263 461.5,-331.5817"/>
<polygon fill="#9a32cd" stroke="#9a32cd" points="458.0001,-369.4005 461.5,-379.4005 465.0001,-369.4006 458.0001,-369.4005"/>
<text text-anchor="middle" x="495.5" y="-353" font-family="Helvetica,sans-Serif" font-size="10.00" fill="#000000"> elements</text>
</g>
</g>
</svg>
