<?xml version="1.0" encoding="UTF-8" standalone="no"?>
<!DOCTYPE svg PUBLIC "-//W3C//DTD SVG 1.1//EN"
 "http://www.w3.org/Graphics/SVG/1.1/DTD/svg11.dtd">
<!-- Generated by graphviz version 2.40.1 (0)
 -->
<!-- Title: config::Config::get_raw Pages: 1 -->
<svg width="902pt" height="88pt"
 viewBox="0.00 0.00 902.00 88.00" xmlns="http://www.w3.org/2000/svg" xmlns:xlink="http://www.w3.org/1999/xlink">
<g id="graph0" class="graph" transform="scale(1 1) rotate(0) translate(4 84)">
<title>config::Config::get_raw</title>
<!-- Node16 -->
<g id="node1" class="node">
<title>Node16</title>
<g id="a_node1"><a xlink:title=" ">
<polygon fill="#bfbfbf" stroke="#000000" points="705,-36 705,-55 894,-55 894,-36 705,-36"/>
<text text-anchor="middle" x="799.5" y="-43" font-family="Helvetica,sans-Serif" font-size="10.00" fill="#000000">config::Config::get_raw</text>
</a>
</g>
</g>
<!-- Node17 -->
<g id="node2" class="node">
<title>Node17</title>
<g id="a_node2"><a xlink:href="namespaceconfig_1_1test.html#aaecf6f168613d97556ee5a67a4da8192" target="_top" xlink:title=" ">
<polygon fill="none" stroke="#000000" points="288.5,-49.5 288.5,-79.5 440.5,-79.5 440.5,-49.5 288.5,-49.5"/>
<text text-anchor="start" x="296.5" y="-67.5" font-family="Helvetica,sans-Serif" font-size="10.00" fill="#000000">config::test::TEST</text>
<text text-anchor="middle" x="364.5" y="-56.5" font-family="Helvetica,sans-Serif" font-size="10.00" fill="#000000">_SUITE</text>
</a>
</g>
</g>
<!-- Node16&#45;&gt;Node17 -->
<g id="edge1" class="edge">
<title>Node16&#45;&gt;Node17</title>
<path fill="none" stroke="#191970" d="M694.4566,-50.0881C616.0953,-53.5108 510.8693,-58.1069 440.5224,-61.1795"/>
<polygon fill="#191970" stroke="#191970" points="695.0056,-53.5676 704.8433,-49.6344 694.7001,-46.5742 695.0056,-53.5676"/>
</g>
<!-- Node18 -->
<g id="node3" class="node">
<title>Node18</title>
<g id="a_node3"><a xlink:href="structconfig_1_1_config.html#a0cf9f3b97d218358b2bd62f3b94a3efb" target="_top" xlink:title=" ">
<polygon fill="none" stroke="#000000" points="510,-17 510,-36 669,-36 669,-17 510,-17"/>
<text text-anchor="middle" x="589.5" y="-24" font-family="Helvetica,sans-Serif" font-size="10.00" fill="#000000">config::Config::get</text>
</a>
</g>
</g>
<!-- Node16&#45;&gt;Node18 -->
<g id="edge2" class="edge">
<title>Node16&#45;&gt;Node18</title>
<path fill="none" stroke="#191970" d="M694.8101,-36.0281C686.1648,-35.2459 677.5167,-34.4634 669.1002,-33.7019"/>
<polygon fill="#191970" stroke="#191970" points="694.6689,-39.5295 704.9436,-36.9449 695.2997,-32.558 694.6689,-39.5295"/>
</g>
<!-- Node18&#45;&gt;Node17 -->
<g id="edge3" class="edge">
<title>Node18&#45;&gt;Node17</title>
<path fill="none" stroke="#191970" d="M522.9346,-37.7422C497.0651,-42.1112 467.2831,-47.1411 440.5724,-51.6522"/>
<polygon fill="#191970" stroke="#191970" points="523.7359,-41.1565 533.0134,-36.04 522.5702,-34.2542 523.7359,-41.1565"/>
</g>
<!-- Node19 -->
<g id="node4" class="node">
<title>Node19</title>
<g id="a_node4"><a xlink:href="namespaceleitse_1_1anonymous__namespace_02main_8cpp_03.html#a22efba3a32984564056202cc7db3f0de" target="_top" xlink:title=" ">
<polygon fill="none" stroke="#000000" points="255,-.5 255,-30.5 474,-30.5 474,-.5 255,-.5"/>
<text text-anchor="start" x="263" y="-18.5" font-family="Helvetica,sans-Serif" font-size="10.00" fill="#000000">leitse::anonymous_namespace</text>
<text text-anchor="middle" x="364.5" y="-7.5" font-family="Helvetica,sans-Serif" font-size="10.00" fill="#000000">{main::cpp}::main_impl</text>
</a>
</g>
</g>
<!-- Node18&#45;&gt;Node19 -->
<g id="edge4" class="edge">
<title>Node18&#45;&gt;Node19</title>
<path fill="none" stroke="#191970" d="M499.7678,-22.1131C491.4149,-21.7047 482.8873,-21.2878 474.3796,-20.8719"/>
<polygon fill="#191970" stroke="#191970" points="499.6978,-25.6138 509.8568,-22.6063 500.0396,-18.6221 499.6978,-25.6138"/>
</g>
<!-- Node20 -->
<g id="node5" class="node">
<title>Node20</title>
<g id="a_node5"><a xlink:href="namespaceleitse_1_1anonymous__namespace_02main_8cpp_03.html#a79fa099cfa983c75df11f0a42e7586e4" target="_top" xlink:title=" ">
<polygon fill="none" stroke="#000000" points="0,-.5 0,-30.5 219,-30.5 219,-.5 0,-.5"/>
<text text-anchor="start" x="8" y="-18.5" font-family="Helvetica,sans-Serif" font-size="10.00" fill="#000000">leitse::anonymous_namespace</text>
<text text-anchor="middle" x="109.5" y="-7.5" font-family="Helvetica,sans-Serif" font-size="10.00" fill="#000000">{main::cpp}::main</text>
</a>
</g>
</g>
<!-- Node19&#45;&gt;Node20 -->
<g id="edge5" class="edge">
<title>Node19&#45;&gt;Node20</title>
<path fill="none" stroke="#191970" d="M244.8136,-15.5C236.2143,-15.5 227.5675,-15.5 219.0303,-15.5"/>
<polygon fill="#191970" stroke="#191970" points="244.8772,-19.0001 254.8772,-15.5 244.8771,-12.0001 244.8772,-19.0001"/>
</g>
</g>
</svg>
