<?xml version="1.0" encoding="UTF-8" standalone="no"?>
<!DOCTYPE svg PUBLIC "-//W3C//DTD SVG 1.1//EN"
 "http://www.w3.org/Graphics/SVG/1.1/DTD/svg11.dtd">
<!-- Generated by graphviz version 2.40.1 (0)
 -->
<!-- Title: leitse::DataDragon Pages: 1 -->
<svg width="428pt" height="330pt"
 viewBox="0.00 0.00 427.50 330.00" xmlns="http://www.w3.org/2000/svg" xmlns:xlink="http://www.w3.org/1999/xlink">
<g id="graph0" class="graph" transform="scale(1 1) rotate(0) translate(4 326)">
<title>leitse::DataDragon</title>
<!-- Node1 -->
<g id="node1" class="node">
<title>Node1</title>
<g id="a_node1"><a xlink:title=" ">
<polygon fill="#bfbfbf" stroke="#000000" points="217.5,-.5 217.5,-19.5 369.5,-19.5 369.5,-.5 217.5,-.5"/>
<text text-anchor="middle" x="293.5" y="-7.5" font-family="Helvetica,sans-Serif" font-size="10.00" fill="#000000">leitse::DataDragon</text>
</a>
</g>
</g>
<!-- Node2 -->
<g id="node2" class="node">
<title>Node2</title>
<g id="a_node2"><a xlink:title="STL class.">
<polygon fill="none" stroke="#bfbfbf" points="272,-234.5 272,-253.5 371,-253.5 371,-234.5 272,-234.5"/>
<text text-anchor="middle" x="321.5" y="-241.5" font-family="Helvetica,sans-Serif" font-size="10.00" fill="#000000">std::string</text>
</a>
</g>
</g>
<!-- Node2&#45;&gt;Node1 -->
<g id="edge1" class="edge">
<title>Node2&#45;&gt;Node1</title>
<path fill="none" stroke="#9a32cd" stroke-dasharray="5,2" d="M330.0438,-225.021C331.0597,-222.0544 331.9351,-218.9827 332.5,-216 347.2207,-138.2705 368.6146,-108.3868 332.5,-38 328.5428,-30.2874 321.3643,-24.2202 314.2349,-19.7344"/>
<polygon fill="#9a32cd" stroke="#9a32cd" points="326.7492,-223.8341 326.2966,-234.4193 333.2514,-226.4267 326.7492,-223.8341"/>
<text text-anchor="middle" x="385.5" y="-119" font-family="Helvetica,sans-Serif" font-size="10.00" fill="#000000"> version_</text>
</g>
<!-- Node5 -->
<g id="node5" class="node">
<title>Node5</title>
<g id="a_node5"><a xlink:href="structleitse_1_1_champion.html" target="_top" xlink:title=" ">
<polygon fill="none" stroke="#000000" points="181,-145.5 181,-164.5 318,-164.5 318,-145.5 181,-145.5"/>
<text text-anchor="middle" x="249.5" y="-152.5" font-family="Helvetica,sans-Serif" font-size="10.00" fill="#000000">leitse::Champion</text>
</a>
</g>
</g>
<!-- Node2&#45;&gt;Node5 -->
<g id="edge5" class="edge">
<title>Node2&#45;&gt;Node5</title>
<path fill="none" stroke="#9a32cd" stroke-dasharray="5,2" d="M307.3782,-226.5438C292.4283,-208.0642 269.3697,-179.5611 257.3681,-164.7259"/>
<polygon fill="#9a32cd" stroke="#9a32cd" points="304.7842,-228.9023 313.7947,-234.4754 310.2263,-224.4996 304.7842,-228.9023"/>
<text text-anchor="middle" x="313" y="-208" font-family="Helvetica,sans-Serif" font-size="10.00" fill="#000000"> key</text>
<text text-anchor="middle" x="313" y="-197" font-family="Helvetica,sans-Serif" font-size="10.00" fill="#000000">id</text>
<text text-anchor="middle" x="313" y="-186" font-family="Helvetica,sans-Serif" font-size="10.00" fill="#000000">name</text>
</g>
<!-- Node3 -->
<g id="node3" class="node">
<title>Node3</title>
<g id="a_node3"><a xlink:title="STL class.">
<polygon fill="none" stroke="#bfbfbf" points="245.5,-291.5 245.5,-321.5 397.5,-321.5 397.5,-291.5 245.5,-291.5"/>
<text text-anchor="start" x="253.5" y="-309.5" font-family="Helvetica,sans-Serif" font-size="10.00" fill="#000000">std::basic_string&lt;</text>
<text text-anchor="middle" x="321.5" y="-298.5" font-family="Helvetica,sans-Serif" font-size="10.00" fill="#000000"> char &gt;</text>
</a>
</g>
</g>
<!-- Node3&#45;&gt;Node2 -->
<g id="edge2" class="edge">
<title>Node3&#45;&gt;Node2</title>
<path fill="none" stroke="#191970" d="M321.5,-281.3498C321.5,-271.6481 321.5,-261.1303 321.5,-253.7356"/>
<polygon fill="#191970" stroke="#191970" points="318.0001,-281.3705 321.5,-291.3705 325.0001,-281.3705 318.0001,-281.3705"/>
</g>
<!-- Node4 -->
<g id="node4" class="node">
<title>Node4</title>
<g id="a_node4"><a xlink:title=" ">
<polygon fill="none" stroke="#bfbfbf" points="160,-67.5 160,-97.5 319,-97.5 319,-67.5 160,-67.5"/>
<text text-anchor="start" x="168" y="-85.5" font-family="Helvetica,sans-Serif" font-size="10.00" fill="#000000">std::vector&lt; leitse</text>
<text text-anchor="middle" x="239.5" y="-74.5" font-family="Helvetica,sans-Serif" font-size="10.00" fill="#000000">::Champion &gt;</text>
</a>
</g>
</g>
<!-- Node4&#45;&gt;Node1 -->
<g id="edge3" class="edge">
<title>Node4&#45;&gt;Node1</title>
<path fill="none" stroke="#9a32cd" stroke-dasharray="5,2" d="M241.6607,-57.2075C243.1364,-50.5215 245.5562,-43.6121 249.5,-38 254.9142,-30.2955 263.1911,-24.2298 271.1112,-19.7429"/>
<polygon fill="#9a32cd" stroke="#9a32cd" points="238.168,-56.883 240.0358,-67.3119 245.0792,-57.9945 238.168,-56.883"/>
<text text-anchor="middle" x="291" y="-41" font-family="Helvetica,sans-Serif" font-size="10.00" fill="#000000"> champions_</text>
</g>
<!-- Node5&#45;&gt;Node4 -->
<g id="edge4" class="edge">
<title>Node5&#45;&gt;Node4</title>
<path fill="none" stroke="#9a32cd" stroke-dasharray="5,2" d="M246.7438,-135.0177C245.1161,-123.2164 243.088,-108.513 241.5921,-97.668"/>
<polygon fill="#9a32cd" stroke="#9a32cd" points="243.3177,-135.7944 248.1514,-145.2223 250.2521,-134.8379 243.3177,-135.7944"/>
<text text-anchor="middle" x="278.5" y="-119" font-family="Helvetica,sans-Serif" font-size="10.00" fill="#000000"> elements</text>
</g>
<!-- Node6 -->
<g id="node6" class="node">
<title>Node6</title>
<g id="a_node6"><a xlink:title="STL class.">
<polygon fill="none" stroke="#bfbfbf" points="0,-145.5 0,-164.5 137,-164.5 137,-145.5 0,-145.5"/>
<text text-anchor="middle" x="68.5" y="-152.5" font-family="Helvetica,sans-Serif" font-size="10.00" fill="#000000">std::vector&lt; T &gt;</text>
</a>
</g>
</g>
<!-- Node6&#45;&gt;Node4 -->
<g id="edge6" class="edge">
<title>Node6&#45;&gt;Node4</title>
<path fill="none" stroke="#ffa500" stroke-dasharray="5,2" d="M71.0383,-134.9806C72.8804,-128.0783 76.0504,-120.867 81.5,-116 93.5777,-105.2134 126.9191,-97.3409 159.8784,-91.9486"/>
<polygon fill="#ffa500" stroke="#ffa500" points="67.5265,-134.714 69.0999,-145.1914 74.4037,-136.0197 67.5265,-134.714"/>
<text text-anchor="middle" x="160.5" y="-119" font-family="Helvetica,sans-Serif" font-size="10.00" fill="#000000"> &lt; leitse::Champion &gt;</text>
</g>
<!-- Node7 -->
<g id="node7" class="node">
<title>Node7</title>
<g id="a_node7"><a xlink:title=" ">
<polygon fill="none" stroke="#bfbfbf" points="54,-234.5 54,-253.5 83,-253.5 83,-234.5 54,-234.5"/>
<text text-anchor="middle" x="68.5" y="-241.5" font-family="Helvetica,sans-Serif" font-size="10.00" fill="#000000">T</text>
</a>
</g>
</g>
<!-- Node7&#45;&gt;Node6 -->
<g id="edge7" class="edge">
<title>Node7&#45;&gt;Node6</title>
<path fill="none" stroke="#9a32cd" stroke-dasharray="5,2" d="M68.5,-224.2379C68.5,-205.7654 68.5,-178.957 68.5,-164.7259"/>
<polygon fill="#9a32cd" stroke="#9a32cd" points="65.0001,-224.4754 68.5,-234.4754 72.0001,-224.4755 65.0001,-224.4754"/>
<text text-anchor="middle" x="102.5" y="-197" font-family="Helvetica,sans-Serif" font-size="10.00" fill="#000000"> elements</text>
</g>
</g>
</svg>
