<?xml version="1.0" encoding="UTF-8" standalone="no"?>
<!DOCTYPE svg PUBLIC "-//W3C//DTD SVG 1.1//EN"
 "http://www.w3.org/Graphics/SVG/1.1/DTD/svg11.dtd">
<!-- Generated by graphviz version 2.40.1 (0)
 -->
<!-- Title: leitse::ItemSet::Item Pages: 1 -->
<svg width="182pt" height="163pt"
 viewBox="0.00 0.00 182.00 163.00" xmlns="http://www.w3.org/2000/svg" xmlns:xlink="http://www.w3.org/1999/xlink">
<g id="graph0" class="graph" transform="scale(1 1) rotate(0) translate(4 159)">
<title>leitse::ItemSet::Item</title>
<!-- Node1 -->
<g id="node1" class="node">
<title>Node1</title>
<g id="a_node1"><a xlink:title=" ">
<polygon fill="#bfbfbf" stroke="#000000" points="0,-.5 0,-19.5 174,-19.5 174,-.5 0,-.5"/>
<text text-anchor="middle" x="87" y="-7.5" font-family="Helvetica,sans-Serif" font-size="10.00" fill="#000000">leitse::ItemSet::Item</text>
</a>
</g>
</g>
<!-- Node2 -->
<g id="node2" class="node">
<title>Node2</title>
<g id="a_node2"><a xlink:title="STL class.">
<polygon fill="none" stroke="#bfbfbf" points="37.5,-67.5 37.5,-86.5 136.5,-86.5 136.5,-67.5 37.5,-67.5"/>
<text text-anchor="middle" x="87" y="-74.5" font-family="Helvetica,sans-Serif" font-size="10.00" fill="#000000">std::string</text>
</a>
</g>
</g>
<!-- Node2&#45;&gt;Node1 -->
<g id="edge1" class="edge">
<title>Node2&#45;&gt;Node1</title>
<path fill="none" stroke="#9a32cd" stroke-dasharray="5,2" d="M87,-57.1079C87,-44.714 87,-29.3263 87,-19.5817"/>
<polygon fill="#9a32cd" stroke="#9a32cd" points="83.5001,-57.4005 87,-67.4005 90.5001,-57.4006 83.5001,-57.4005"/>
<text text-anchor="middle" x="98.5" y="-41" font-family="Helvetica,sans-Serif" font-size="10.00" fill="#000000"> id</text>
</g>
<!-- Node3 -->
<g id="node3" class="node">
<title>Node3</title>
<g id="a_node3"><a xlink:title="STL class.">
<polygon fill="none" stroke="#bfbfbf" points="11,-124.5 11,-154.5 163,-154.5 163,-124.5 11,-124.5"/>
<text text-anchor="start" x="19" y="-142.5" font-family="Helvetica,sans-Serif" font-size="10.00" fill="#000000">std::basic_string&lt;</text>
<text text-anchor="middle" x="87" y="-131.5" font-family="Helvetica,sans-Serif" font-size="10.00" fill="#000000"> char &gt;</text>
</a>
</g>
</g>
<!-- Node3&#45;&gt;Node2 -->
<g id="edge2" class="edge">
<title>Node3&#45;&gt;Node2</title>
<path fill="none" stroke="#191970" d="M87,-114.3498C87,-104.6481 87,-94.1303 87,-86.7356"/>
<polygon fill="#191970" stroke="#191970" points="83.5001,-114.3705 87,-124.3705 90.5001,-114.3705 83.5001,-114.3705"/>
</g>
</g>
</svg>
