<?xml version="1.0" encoding="UTF-8" standalone="no"?>
<!DOCTYPE svg PUBLIC "-//W3C//DTD SVG 1.1//EN"
 "http://www.w3.org/Graphics/SVG/1.1/DTD/svg11.dtd">
<!-- Generated by graphviz version 2.40.1 (0)
 -->
<!-- Title: leitse::aggregators::Ugg::Ugg Pages: 1 -->
<svg width="805pt" height="39pt"
 viewBox="0.00 0.00 805.00 39.00" xmlns="http://www.w3.org/2000/svg" xmlns:xlink="http://www.w3.org/1999/xlink">
<g id="graph0" class="graph" transform="scale(1 1) rotate(0) translate(4 35)">
<title>leitse::aggregators::Ugg::Ugg</title>
<!-- Node0 -->
<g id="node1" class="node">
<title>Node0</title>
<g id="a_node1"><a xlink:title=" ">
<polygon fill="#bfbfbf" stroke="#000000" points="0,-.5 0,-30.5 159,-30.5 159,-.5 0,-.5"/>
<text text-anchor="start" x="8" y="-18.5" font-family="Helvetica,sans-Serif" font-size="10.00" fill="#000000">leitse::aggregators</text>
<text text-anchor="middle" x="79.5" y="-7.5" font-family="Helvetica,sans-Serif" font-size="10.00" fill="#000000">::Ugg::Ugg</text>
</a>
</g>
</g>
<!-- Node1 -->
<g id="node2" class="node">
<title>Node1</title>
<g id="a_node2"><a xlink:href="namespaceleitse.html#afdb4f941cec2c253f7894dff4633a21c" target="_top" xlink:title=" ">
<polygon fill="none" stroke="#000000" points="195,-6 195,-25 384,-25 384,-6 195,-6"/>
<text text-anchor="middle" x="289.5" y="-13" font-family="Helvetica,sans-Serif" font-size="10.00" fill="#000000">leitse::simple_download</text>
</a>
</g>
</g>
<!-- Node0&#45;&gt;Node1 -->
<g id="edge1" class="edge">
<title>Node0&#45;&gt;Node1</title>
<path fill="none" stroke="#191970" d="M159.1914,-15.5C167.5311,-15.5 176.0973,-15.5 184.662,-15.5"/>
<polygon fill="#191970" stroke="#191970" points="184.702,-19.0001 194.7019,-15.5 184.7019,-12.0001 184.702,-19.0001"/>
</g>
<!-- Node2 -->
<g id="node3" class="node">
<title>Node2</title>
<g id="a_node3"><a xlink:href="structleitse_1_1_simple_curl.html#a1e9c094357cc1615d6784210a5dee4be" target="_top" xlink:title=" ">
<polygon fill="none" stroke="#000000" points="420,-6 420,-25 609,-25 609,-6 420,-6"/>
<text text-anchor="middle" x="514.5" y="-13" font-family="Helvetica,sans-Serif" font-size="10.00" fill="#000000">leitse::SimpleCurl::get</text>
</a>
</g>
</g>
<!-- Node1&#45;&gt;Node2 -->
<g id="edge2" class="edge">
<title>Node1&#45;&gt;Node2</title>
<path fill="none" stroke="#191970" d="M384.2681,-15.5C392.6357,-15.5 401.1375,-15.5 409.5821,-15.5"/>
<polygon fill="#191970" stroke="#191970" points="409.8414,-19.0001 419.8413,-15.5 409.8413,-12.0001 409.8414,-19.0001"/>
</g>
<!-- Node3 -->
<g id="node4" class="node">
<title>Node3</title>
<g id="a_node4"><a xlink:href="structleitse_1_1_simple_curl.html#ac10340c2d18695d7bfda42ea15791239" target="_top" xlink:title=" ">
<polygon fill="none" stroke="#000000" points="645,-.5 645,-30.5 797,-30.5 797,-.5 645,-.5"/>
<text text-anchor="start" x="653" y="-18.5" font-family="Helvetica,sans-Serif" font-size="10.00" fill="#000000">leitse::SimpleCurl</text>
<text text-anchor="middle" x="721" y="-7.5" font-family="Helvetica,sans-Serif" font-size="10.00" fill="#000000">::check_curl</text>
</a>
</g>
</g>
<!-- Node2&#45;&gt;Node3 -->
<g id="edge3" class="edge">
<title>Node2&#45;&gt;Node3</title>
<path fill="none" stroke="#191970" d="M609.2887,-15.5C617.7311,-15.5 626.2493,-15.5 634.6158,-15.5"/>
<polygon fill="#191970" stroke="#191970" points="634.7304,-19.0001 644.7304,-15.5 634.7303,-12.0001 634.7304,-19.0001"/>
</g>
</g>
</svg>
