<?xml version="1.0" encoding="UTF-8" standalone="no"?>
<!DOCTYPE svg PUBLIC "-//W3C//DTD SVG 1.1//EN"
 "http://www.w3.org/Graphics/SVG/1.1/DTD/svg11.dtd">
<!-- Generated by graphviz version 2.40.1 (0)
 -->
<!-- Title: leitse::DataDragon::populate Pages: 1 -->
<svg width="986pt" height="88pt"
 viewBox="0.00 0.00 986.00 88.00" xmlns="http://www.w3.org/2000/svg" xmlns:xlink="http://www.w3.org/1999/xlink">
<g id="graph0" class="graph" transform="scale(1 1) rotate(0) translate(4 84)">
<title>leitse::DataDragon::populate</title>
<!-- Node12 -->
<g id="node1" class="node">
<title>Node12</title>
<g id="a_node1"><a xlink:title=" ">
<polygon fill="#bfbfbf" stroke="#000000" points="0,-24.5 0,-54.5 152,-54.5 152,-24.5 0,-24.5"/>
<text text-anchor="start" x="8" y="-42.5" font-family="Helvetica,sans-Serif" font-size="10.00" fill="#000000">leitse::DataDragon</text>
<text text-anchor="middle" x="76" y="-31.5" font-family="Helvetica,sans-Serif" font-size="10.00" fill="#000000">::populate</text>
</a>
</g>
</g>
<!-- Node13 -->
<g id="node2" class="node">
<title>Node13</title>
<g id="a_node2"><a xlink:href="structleitse_1_1_data_dragon.html#ac8c0f976240b26536f7cd68b66780d8e" target="_top" xlink:title=" ">
<polygon fill="none" stroke="#000000" points="188,-49.5 188,-79.5 340,-79.5 340,-49.5 188,-49.5"/>
<text text-anchor="start" x="196" y="-67.5" font-family="Helvetica,sans-Serif" font-size="10.00" fill="#000000">leitse::DataDragon</text>
<text text-anchor="middle" x="264" y="-56.5" font-family="Helvetica,sans-Serif" font-size="10.00" fill="#000000">::update_version</text>
</a>
</g>
</g>
<!-- Node12&#45;&gt;Node13 -->
<g id="edge1" class="edge">
<title>Node12&#45;&gt;Node13</title>
<path fill="none" stroke="#191970" d="M152.1958,-49.6324C160.6088,-50.7512 169.2194,-51.8962 177.7444,-53.0298"/>
<polygon fill="#191970" stroke="#191970" points="177.3216,-56.5043 187.6957,-54.3532 178.2444,-49.5654 177.3216,-56.5043"/>
</g>
<!-- Node17 -->
<g id="node6" class="node">
<title>Node17</title>
<g id="a_node6"><a xlink:href="structleitse_1_1_data_dragon.html#ab42170e26e20cd3d715f3f3220019e7c" target="_top" xlink:title=" ">
<polygon fill="none" stroke="#000000" points="188,-.5 188,-30.5 340,-30.5 340,-.5 188,-.5"/>
<text text-anchor="start" x="196" y="-18.5" font-family="Helvetica,sans-Serif" font-size="10.00" fill="#000000">leitse::DataDragon</text>
<text text-anchor="middle" x="264" y="-7.5" font-family="Helvetica,sans-Serif" font-size="10.00" fill="#000000">::fetch_data</text>
</a>
</g>
</g>
<!-- Node12&#45;&gt;Node17 -->
<g id="edge5" class="edge">
<title>Node12&#45;&gt;Node17</title>
<path fill="none" stroke="#191970" d="M152.1958,-29.7729C160.6088,-28.6989 169.2194,-27.5997 177.7444,-26.5114"/>
<polygon fill="#191970" stroke="#191970" points="178.2195,-29.9792 187.6957,-25.241 177.333,-23.0356 178.2195,-29.9792"/>
</g>
<!-- Node14 -->
<g id="node3" class="node">
<title>Node14</title>
<g id="a_node3"><a xlink:href="namespaceleitse.html#afdb4f941cec2c253f7894dff4633a21c" target="_top" xlink:title=" ">
<polygon fill="none" stroke="#000000" points="376,-30 376,-49 565,-49 565,-30 376,-30"/>
<text text-anchor="middle" x="470.5" y="-37" font-family="Helvetica,sans-Serif" font-size="10.00" fill="#000000">leitse::simple_download</text>
</a>
</g>
</g>
<!-- Node13&#45;&gt;Node14 -->
<g id="edge2" class="edge">
<title>Node13&#45;&gt;Node14</title>
<path fill="none" stroke="#191970" d="M340.0132,-55.2974C353.6165,-53.6506 367.899,-51.9214 381.8209,-50.236"/>
<polygon fill="#191970" stroke="#191970" points="382.3727,-53.6948 391.8795,-49.0182 381.5313,-46.7456 382.3727,-53.6948"/>
</g>
<!-- Node15 -->
<g id="node4" class="node">
<title>Node15</title>
<g id="a_node4"><a xlink:href="structleitse_1_1_simple_curl.html#a1e9c094357cc1615d6784210a5dee4be" target="_top" xlink:title=" ">
<polygon fill="none" stroke="#000000" points="601,-30 601,-49 790,-49 790,-30 601,-30"/>
<text text-anchor="middle" x="695.5" y="-37" font-family="Helvetica,sans-Serif" font-size="10.00" fill="#000000">leitse::SimpleCurl::get</text>
</a>
</g>
</g>
<!-- Node14&#45;&gt;Node15 -->
<g id="edge3" class="edge">
<title>Node14&#45;&gt;Node15</title>
<path fill="none" stroke="#191970" d="M565.2681,-39.5C573.6357,-39.5 582.1375,-39.5 590.5821,-39.5"/>
<polygon fill="#191970" stroke="#191970" points="590.8414,-43.0001 600.8413,-39.5 590.8413,-36.0001 590.8414,-43.0001"/>
</g>
<!-- Node16 -->
<g id="node5" class="node">
<title>Node16</title>
<g id="a_node5"><a xlink:href="structleitse_1_1_simple_curl.html#ac10340c2d18695d7bfda42ea15791239" target="_top" xlink:title=" ">
<polygon fill="none" stroke="#000000" points="826,-24.5 826,-54.5 978,-54.5 978,-24.5 826,-24.5"/>
<text text-anchor="start" x="834" y="-42.5" font-family="Helvetica,sans-Serif" font-size="10.00" fill="#000000">leitse::SimpleCurl</text>
<text text-anchor="middle" x="902" y="-31.5" font-family="Helvetica,sans-Serif" font-size="10.00" fill="#000000">::check_curl</text>
</a>
</g>
</g>
<!-- Node15&#45;&gt;Node16 -->
<g id="edge4" class="edge">
<title>Node15&#45;&gt;Node16</title>
<path fill="none" stroke="#191970" d="M790.2887,-39.5C798.7311,-39.5 807.2493,-39.5 815.6158,-39.5"/>
<polygon fill="#191970" stroke="#191970" points="815.7304,-43.0001 825.7304,-39.5 815.7303,-36.0001 815.7304,-43.0001"/>
</g>
<!-- Node17&#45;&gt;Node14 -->
<g id="edge6" class="edge">
<title>Node17&#45;&gt;Node14</title>
<path fill="none" stroke="#191970" d="M340.0132,-24.3345C352.5356,-25.7899 365.6337,-27.3121 378.4961,-28.8071"/>
<polygon fill="#191970" stroke="#191970" points="378.4083,-32.3203 388.7456,-29.9983 379.2165,-25.3671 378.4083,-32.3203"/>
</g>
</g>
</svg>
