<?xml version="1.0" encoding="UTF-8" standalone="no"?>
<!DOCTYPE svg PUBLIC "-//W3C//DTD SVG 1.1//EN"
 "http://www.w3.org/Graphics/SVG/1.1/DTD/svg11.dtd">
<!-- Generated by graphviz version 2.40.1 (0)
 -->
<!-- Title: leitse::ItemSet Pages: 1 -->
<svg width="540pt" height="475pt"
 viewBox="0.00 0.00 539.50 475.00" xmlns="http://www.w3.org/2000/svg" xmlns:xlink="http://www.w3.org/1999/xlink">
<g id="graph0" class="graph" transform="scale(1 1) rotate(0) translate(4 471)">
<title>leitse::ItemSet</title>
<!-- Node1 -->
<g id="node1" class="node">
<title>Node1</title>
<g id="a_node1"><a xlink:title=" ">
<polygon fill="#bfbfbf" stroke="#000000" points="0,-.5 0,-19.5 129,-19.5 129,-.5 0,-.5"/>
<text text-anchor="middle" x="64.5" y="-7.5" font-family="Helvetica,sans-Serif" font-size="10.00" fill="#000000">leitse::ItemSet</text>
</a>
</g>
</g>
<!-- Node2 -->
<g id="node2" class="node">
<title>Node2</title>
<g id="a_node2"><a xlink:title=" ">
<polygon fill="none" stroke="#bfbfbf" points="99,-67.5 99,-97.5 258,-97.5 258,-67.5 99,-67.5"/>
<text text-anchor="start" x="107" y="-85.5" font-family="Helvetica,sans-Serif" font-size="10.00" fill="#000000">std::vector&lt; leitse</text>
<text text-anchor="middle" x="178.5" y="-74.5" font-family="Helvetica,sans-Serif" font-size="10.00" fill="#000000">::ItemSet::Block &gt;</text>
</a>
</g>
</g>
<!-- Node2&#45;&gt;Node1 -->
<g id="edge1" class="edge">
<title>Node2&#45;&gt;Node1</title>
<path fill="none" stroke="#9a32cd" stroke-dasharray="5,2" d="M146.2517,-61.9912C124.4457,-48.1234 96.6418,-30.4411 79.7249,-19.6825"/>
<polygon fill="#9a32cd" stroke="#9a32cd" points="144.5627,-65.0649 154.8791,-67.478 148.3192,-59.1582 144.5627,-65.0649"/>
<text text-anchor="middle" x="152" y="-41" font-family="Helvetica,sans-Serif" font-size="10.00" fill="#000000"> blocks</text>
</g>
<!-- Node3 -->
<g id="node3" class="node">
<title>Node3</title>
<g id="a_node3"><a xlink:href="structleitse_1_1_item_set_1_1_block.html" target="_top" xlink:title=" ">
<polygon fill="none" stroke="#000000" points="87.5,-145.5 87.5,-164.5 269.5,-164.5 269.5,-145.5 87.5,-145.5"/>
<text text-anchor="middle" x="178.5" y="-152.5" font-family="Helvetica,sans-Serif" font-size="10.00" fill="#000000">leitse::ItemSet::Block</text>
</a>
</g>
</g>
<!-- Node3&#45;&gt;Node2 -->
<g id="edge2" class="edge">
<title>Node3&#45;&gt;Node2</title>
<path fill="none" stroke="#9a32cd" stroke-dasharray="5,2" d="M178.5,-135.0177C178.5,-123.2164 178.5,-108.513 178.5,-97.668"/>
<polygon fill="#9a32cd" stroke="#9a32cd" points="175.0001,-135.2223 178.5,-145.2223 182.0001,-135.2224 175.0001,-135.2223"/>
<text text-anchor="middle" x="212.5" y="-119" font-family="Helvetica,sans-Serif" font-size="10.00" fill="#000000"> elements</text>
</g>
<!-- Node4 -->
<g id="node4" class="node">
<title>Node4</title>
<g id="a_node4"><a xlink:title=" ">
<polygon fill="none" stroke="#bfbfbf" points="129,-223.5 129,-253.5 288,-253.5 288,-223.5 129,-223.5"/>
<text text-anchor="start" x="137" y="-241.5" font-family="Helvetica,sans-Serif" font-size="10.00" fill="#000000">std::vector&lt; leitse</text>
<text text-anchor="middle" x="208.5" y="-230.5" font-family="Helvetica,sans-Serif" font-size="10.00" fill="#000000">::ItemSet::Item &gt;</text>
</a>
</g>
</g>
<!-- Node4&#45;&gt;Node3 -->
<g id="edge3" class="edge">
<title>Node4&#45;&gt;Node3</title>
<path fill="none" stroke="#9a32cd" stroke-dasharray="5,2" d="M199.5433,-213.5704C193.6141,-197.0675 186.1722,-176.3544 181.914,-164.5023"/>
<polygon fill="#9a32cd" stroke="#9a32cd" points="196.3224,-214.9572 202.9975,-223.1848 202.9101,-212.5903 196.3224,-214.9572"/>
<text text-anchor="middle" x="219.5" y="-191.5" font-family="Helvetica,sans-Serif" font-size="10.00" fill="#000000"> items</text>
</g>
<!-- Node5 -->
<g id="node5" class="node">
<title>Node5</title>
<g id="a_node5"><a xlink:href="structleitse_1_1_item_set_1_1_item.html" target="_top" xlink:title=" ">
<polygon fill="none" stroke="#000000" points="129.5,-312.5 129.5,-331.5 303.5,-331.5 303.5,-312.5 129.5,-312.5"/>
<text text-anchor="middle" x="216.5" y="-319.5" font-family="Helvetica,sans-Serif" font-size="10.00" fill="#000000">leitse::ItemSet::Item</text>
</a>
</g>
</g>
<!-- Node5&#45;&gt;Node4 -->
<g id="edge4" class="edge">
<title>Node5&#45;&gt;Node4</title>
<path fill="none" stroke="#9a32cd" stroke-dasharray="5,2" d="M194.3651,-305.5515C191.1662,-302.1127 188.3385,-298.2308 186.5,-294 180.6341,-280.5014 188.0446,-264.9017 195.8078,-253.685"/>
<polygon fill="#9a32cd" stroke="#9a32cd" points="191.9968,-308.1287 201.7208,-312.3353 196.7425,-302.9829 191.9968,-308.1287"/>
<text text-anchor="middle" x="220.5" y="-280.5" font-family="Helvetica,sans-Serif" font-size="10.00" fill="#000000"> elements</text>
</g>
<!-- Node6 -->
<g id="node6" class="node">
<title>Node6</title>
<g id="a_node6"><a xlink:title="STL class.">
<polygon fill="none" stroke="#bfbfbf" points="52,-379.5 52,-398.5 151,-398.5 151,-379.5 52,-379.5"/>
<text text-anchor="middle" x="101.5" y="-386.5" font-family="Helvetica,sans-Serif" font-size="10.00" fill="#000000">std::string</text>
</a>
</g>
</g>
<!-- Node6&#45;&gt;Node1 -->
<g id="edge11" class="edge">
<title>Node6&#45;&gt;Node1</title>
<path fill="none" stroke="#9a32cd" stroke-dasharray="5,2" d="M78.593,-372.8832C64.2607,-360.7521 48.5,-342.7047 48.5,-322 48.5,-322 48.5,-322 48.5,-82.5 48.5,-59.5564 56.2354,-33.4679 60.9491,-19.7002"/>
<polygon fill="#9a32cd" stroke="#9a32cd" points="76.7203,-375.8643 86.7365,-379.3176 81.06,-370.3718 76.7203,-375.8643"/>
<text text-anchor="middle" x="67.5" y="-191.5" font-family="Helvetica,sans-Serif" font-size="10.00" fill="#000000"> name</text>
</g>
<!-- Node6&#45;&gt;Node3 -->
<g id="edge9" class="edge">
<title>Node6&#45;&gt;Node3</title>
<path fill="none" stroke="#9a32cd" stroke-dasharray="5,2" d="M99.9197,-368.7844C98.2053,-336.5078 98.132,-271.9851 119.5,-223 130.1238,-198.6456 152.6556,-176.6503 166.5952,-164.6207"/>
<polygon fill="#9a32cd" stroke="#9a32cd" points="96.4506,-369.3752 100.589,-379.1283 103.436,-368.9232 96.4506,-369.3752"/>
<text text-anchor="middle" x="124.5" y="-280.5" font-family="Helvetica,sans-Serif" font-size="10.00" fill="#000000"> name</text>
</g>
<!-- Node6&#45;&gt;Node5 -->
<g id="edge5" class="edge">
<title>Node6&#45;&gt;Node5</title>
<path fill="none" stroke="#9a32cd" stroke-dasharray="5,2" d="M126.8841,-374.211C149.1724,-361.2256 180.9385,-342.7184 200.0539,-331.5817"/>
<polygon fill="#9a32cd" stroke="#9a32cd" points="124.8553,-371.3423 117.9767,-379.4005 128.3792,-377.3906 124.8553,-371.3423"/>
<text text-anchor="middle" x="178" y="-353" font-family="Helvetica,sans-Serif" font-size="10.00" fill="#000000"> id</text>
</g>
<!-- Node7 -->
<g id="node7" class="node">
<title>Node7</title>
<g id="a_node7"><a xlink:title="STL class.">
<polygon fill="none" stroke="#bfbfbf" points="25.5,-436.5 25.5,-466.5 177.5,-466.5 177.5,-436.5 25.5,-436.5"/>
<text text-anchor="start" x="33.5" y="-454.5" font-family="Helvetica,sans-Serif" font-size="10.00" fill="#000000">std::basic_string&lt;</text>
<text text-anchor="middle" x="101.5" y="-443.5" font-family="Helvetica,sans-Serif" font-size="10.00" fill="#000000"> char &gt;</text>
</a>
</g>
</g>
<!-- Node7&#45;&gt;Node6 -->
<g id="edge6" class="edge">
<title>Node7&#45;&gt;Node6</title>
<path fill="none" stroke="#191970" d="M101.5,-426.3498C101.5,-416.6481 101.5,-406.1303 101.5,-398.7356"/>
<polygon fill="#191970" stroke="#191970" points="98.0001,-426.3705 101.5,-436.3705 105.0001,-426.3705 98.0001,-426.3705"/>
</g>
<!-- Node8 -->
<g id="node8" class="node">
<title>Node8</title>
<g id="a_node8"><a xlink:title="STL class.">
<polygon fill="none" stroke="#bfbfbf" points="348,-312.5 348,-331.5 485,-331.5 485,-312.5 348,-312.5"/>
<text text-anchor="middle" x="416.5" y="-319.5" font-family="Helvetica,sans-Serif" font-size="10.00" fill="#000000">std::vector&lt; T &gt;</text>
</a>
</g>
</g>
<!-- Node8&#45;&gt;Node2 -->
<g id="edge10" class="edge">
<title>Node8&#45;&gt;Node2</title>
<path fill="none" stroke="#ffa500" stroke-dasharray="5,2" d="M426.6441,-303.3301C430.4934,-293.6856 432.986,-281.8966 428.5,-272 387.2399,-180.9761 276.6806,-123.0788 217.3683,-97.5859"/>
<polygon fill="#ffa500" stroke="#ffa500" points="423.4515,-301.895 422.3774,-312.4352 429.79,-304.8653 423.4515,-301.895"/>
<text text-anchor="start" x="380.5" y="-197" font-family="Helvetica,sans-Serif" font-size="10.00" fill="#000000"> &lt; leitse::ItemSet::</text>
<text text-anchor="middle" x="456" y="-186" font-family="Helvetica,sans-Serif" font-size="10.00" fill="#000000">Block &gt;</text>
</g>
<!-- Node8&#45;&gt;Node4 -->
<g id="edge7" class="edge">
<title>Node8&#45;&gt;Node4</title>
<path fill="none" stroke="#ffa500" stroke-dasharray="5,2" d="M341.4739,-310.6979C315.0839,-305.9188 289.1109,-300.0592 277.5,-294 264.9593,-287.4556 265.3527,-281.0729 254.5,-272 246.9204,-265.6634 238.2433,-259.1656 230.4827,-253.5994"/>
<polygon fill="#ffa500" stroke="#ffa500" points="341.1244,-314.1901 351.5795,-312.4748 342.3367,-307.2959 341.1244,-314.1901"/>
<text text-anchor="start" x="277.5" y="-286" font-family="Helvetica,sans-Serif" font-size="10.00" fill="#000000"> &lt; leitse::ItemSet::</text>
<text text-anchor="middle" x="353" y="-275" font-family="Helvetica,sans-Serif" font-size="10.00" fill="#000000">Item &gt;</text>
</g>
<!-- Node9 -->
<g id="node9" class="node">
<title>Node9</title>
<g id="a_node9"><a xlink:title=" ">
<polygon fill="none" stroke="#bfbfbf" points="402,-379.5 402,-398.5 431,-398.5 431,-379.5 402,-379.5"/>
<text text-anchor="middle" x="416.5" y="-386.5" font-family="Helvetica,sans-Serif" font-size="10.00" fill="#000000">T</text>
</a>
</g>
</g>
<!-- Node9&#45;&gt;Node8 -->
<g id="edge8" class="edge">
<title>Node9&#45;&gt;Node8</title>
<path fill="none" stroke="#9a32cd" stroke-dasharray="5,2" d="M416.5,-369.1079C416.5,-356.714 416.5,-341.3263 416.5,-331.5817"/>
<polygon fill="#9a32cd" stroke="#9a32cd" points="413.0001,-369.4005 416.5,-379.4005 420.0001,-369.4006 413.0001,-369.4005"/>
<text text-anchor="middle" x="450.5" y="-353" font-family="Helvetica,sans-Serif" font-size="10.00" fill="#000000"> elements</text>
</g>
</g>
</svg>
