<?xml version="1.0" encoding="UTF-8" standalone="no"?>
<!DOCTYPE svg PUBLIC "-//W3C//DTD SVG 1.1//EN"
 "http://www.w3.org/Graphics/SVG/1.1/DTD/svg11.dtd">
<!-- Generated by graphviz version 2.40.1 (0)
 -->
<!-- Title: leitse/ugg.cpp Pages: 1 -->
<svg width="480pt" height="196pt"
 viewBox="0.00 0.00 480.00 196.00" xmlns="http://www.w3.org/2000/svg" xmlns:xlink="http://www.w3.org/1999/xlink">
<g id="graph0" class="graph" transform="scale(1 1) rotate(0) translate(4 192)">
<title>leitse/ugg.cpp</title>
<!-- Node0 -->
<g id="node1" class="node">
<title>Node0</title>
<g id="a_node1"><a xlink:title=" ">
<polygon fill="#bfbfbf" stroke="#000000" points="212,-168.5 212,-187.5 334,-187.5 334,-168.5 212,-168.5"/>
<text text-anchor="middle" x="273" y="-175.5" font-family="Helvetica,sans-Serif" font-size="10.00" fill="#000000">leitse/ugg.cpp</text>
</a>
</g>
</g>
<!-- Node1 -->
<g id="node2" class="node">
<title>Node1</title>
<g id="a_node2"><a xlink:href="ugg_8h.html" target="_top" xlink:title=" ">
<polygon fill="none" stroke="#000000" points="246,-112.5 246,-131.5 300,-131.5 300,-112.5 246,-112.5"/>
<text text-anchor="middle" x="273" y="-119.5" font-family="Helvetica,sans-Serif" font-size="10.00" fill="#000000">ugg.h</text>
</a>
</g>
</g>
<!-- Node0&#45;&gt;Node1 -->
<g id="edge1" class="edge">
<title>Node0&#45;&gt;Node1</title>
<path fill="none" stroke="#191970" d="M273,-168.2455C273,-160.9382 273,-150.6944 273,-141.7046"/>
<polygon fill="#191970" stroke="#191970" points="276.5001,-141.6426 273,-131.6427 269.5001,-141.6427 276.5001,-141.6426"/>
</g>
<!-- Node2 -->
<g id="node3" class="node">
<title>Node2</title>
<g id="a_node3"><a xlink:href="aggregator_8h.html" target="_top" xlink:title=" ">
<polygon fill="none" stroke="#000000" points="219.5,-56.5 219.5,-75.5 326.5,-75.5 326.5,-56.5 219.5,-56.5"/>
<text text-anchor="middle" x="273" y="-63.5" font-family="Helvetica,sans-Serif" font-size="10.00" fill="#000000">aggregator.h</text>
</a>
</g>
</g>
<!-- Node1&#45;&gt;Node2 -->
<g id="edge2" class="edge">
<title>Node1&#45;&gt;Node2</title>
<path fill="none" stroke="#191970" d="M273,-112.2455C273,-104.9382 273,-94.6944 273,-85.7046"/>
<polygon fill="#191970" stroke="#191970" points="276.5001,-85.6426 273,-75.6427 269.5001,-85.6427 276.5001,-85.6426"/>
</g>
<!-- Node3 -->
<g id="node4" class="node">
<title>Node3</title>
<g id="a_node4"><a xlink:href="data__dragon_8h.html" target="_top" xlink:title=" ">
<polygon fill="none" stroke="#000000" points="0,-.5 0,-19.5 114,-19.5 114,-.5 0,-.5"/>
<text text-anchor="middle" x="57" y="-7.5" font-family="Helvetica,sans-Serif" font-size="10.00" fill="#000000">data_dragon.h</text>
</a>
</g>
</g>
<!-- Node2&#45;&gt;Node3 -->
<g id="edge3" class="edge">
<title>Node2&#45;&gt;Node3</title>
<path fill="none" stroke="#191970" d="M235.8683,-56.3733C199.1733,-46.8598 142.9361,-32.2797 103.3349,-22.0127"/>
<polygon fill="#191970" stroke="#191970" points="104.2056,-18.6228 93.6472,-19.5011 102.4488,-25.3988 104.2056,-18.6228"/>
</g>
<!-- Node4 -->
<g id="node5" class="node">
<title>Node4</title>
<g id="a_node5"><a xlink:href="item__set_8h.html" target="_top" xlink:title=" ">
<polygon fill="none" stroke="#000000" points="132,-.5 132,-19.5 224,-19.5 224,-.5 132,-.5"/>
<text text-anchor="middle" x="178" y="-7.5" font-family="Helvetica,sans-Serif" font-size="10.00" fill="#000000">item_set.h</text>
</a>
</g>
</g>
<!-- Node2&#45;&gt;Node4 -->
<g id="edge4" class="edge">
<title>Node2&#45;&gt;Node4</title>
<path fill="none" stroke="#191970" d="M256.4523,-56.2455C241.7401,-47.5731 220.0112,-34.7645 203.1495,-24.825"/>
<polygon fill="#191970" stroke="#191970" points="204.7502,-21.7057 194.3581,-19.6427 201.1954,-27.736 204.7502,-21.7057"/>
</g>
<!-- Node5 -->
<g id="node6" class="node">
<title>Node5</title>
<g id="a_node6"><a xlink:title=" ">
<polygon fill="none" stroke="#bfbfbf" points="242,-.5 242,-19.5 304,-19.5 304,-.5 242,-.5"/>
<text text-anchor="middle" x="273" y="-7.5" font-family="Helvetica,sans-Serif" font-size="10.00" fill="#000000">string</text>
</a>
</g>
</g>
<!-- Node2&#45;&gt;Node5 -->
<g id="edge5" class="edge">
<title>Node2&#45;&gt;Node5</title>
<path fill="none" stroke="#191970" d="M273,-56.2455C273,-48.9382 273,-38.6944 273,-29.7046"/>
<polygon fill="#191970" stroke="#191970" points="276.5001,-29.6426 273,-19.6427 269.5001,-29.6427 276.5001,-29.6426"/>
</g>
<!-- Node6 -->
<g id="node7" class="node">
<title>Node6</title>
<g id="a_node7"><a xlink:title=" ">
<polygon fill="none" stroke="#bfbfbf" points="322.5,-.5 322.5,-19.5 391.5,-19.5 391.5,-.5 322.5,-.5"/>
<text text-anchor="middle" x="357" y="-7.5" font-family="Helvetica,sans-Serif" font-size="10.00" fill="#000000">utility</text>
</a>
</g>
</g>
<!-- Node2&#45;&gt;Node6 -->
<g id="edge6" class="edge">
<title>Node2&#45;&gt;Node6</title>
<path fill="none" stroke="#191970" d="M287.6317,-56.2455C300.3994,-47.7337 319.1438,-35.2375 333.9299,-25.3801"/>
<polygon fill="#191970" stroke="#191970" points="336.1569,-28.1019 342.536,-19.6427 332.274,-22.2775 336.1569,-28.1019"/>
</g>
<!-- Node7 -->
<g id="node8" class="node">
<title>Node7</title>
<g id="a_node8"><a xlink:title=" ">
<polygon fill="none" stroke="#bfbfbf" points="410,-.5 410,-19.5 472,-19.5 472,-.5 410,-.5"/>
<text text-anchor="middle" x="441" y="-7.5" font-family="Helvetica,sans-Serif" font-size="10.00" fill="#000000">vector</text>
</a>
</g>
</g>
<!-- Node2&#45;&gt;Node7 -->
<g id="edge7" class="edge">
<title>Node2&#45;&gt;Node7</title>
<path fill="none" stroke="#191970" d="M301.8802,-56.3733C329.8161,-47.0613 372.3142,-32.8953 402.9869,-22.671"/>
<polygon fill="#191970" stroke="#191970" points="404.1166,-25.9839 412.4966,-19.5011 401.903,-19.3431 404.1166,-25.9839"/>
</g>
</g>
</svg>
