<?xml version="1.0" encoding="UTF-8" standalone="no"?>
<!DOCTYPE svg PUBLIC "-//W3C//DTD SVG 1.1//EN"
 "http://www.w3.org/Graphics/SVG/1.1/DTD/svg11.dtd">
<!-- Generated by graphviz version 2.40.1 (0)
 -->
<!-- Title: leitse/ugg.cpp Pages: 1 -->
<svg width="540pt" height="252pt"
 viewBox="0.00 0.00 539.50 252.00" xmlns="http://www.w3.org/2000/svg" xmlns:xlink="http://www.w3.org/1999/xlink">
<g id="graph0" class="graph" transform="scale(1 1) rotate(0) translate(4 248)">
<title>leitse/ugg.cpp</title>
<!-- Node0 -->
<g id="node1" class="node">
<title>Node0</title>
<g id="a_node1"><a xlink:title=" ">
<polygon fill="#bfbfbf" stroke="#000000" points="218,-224.5 218,-243.5 340,-243.5 340,-224.5 218,-224.5"/>
<text text-anchor="middle" x="279" y="-231.5" font-family="Helvetica,sans-Serif" font-size="10.00" fill="#000000">leitse/ugg.cpp</text>
</a>
</g>
</g>
<!-- Node1 -->
<g id="node2" class="node">
<title>Node1</title>
<g id="a_node2"><a xlink:href="ugg_8h.html" target="_top" xlink:title=" ">
<polygon fill="none" stroke="#000000" points="252,-168.5 252,-187.5 306,-187.5 306,-168.5 252,-168.5"/>
<text text-anchor="middle" x="279" y="-175.5" font-family="Helvetica,sans-Serif" font-size="10.00" fill="#000000">ugg.h</text>
</a>
</g>
</g>
<!-- Node0&#45;&gt;Node1 -->
<g id="edge1" class="edge">
<title>Node0&#45;&gt;Node1</title>
<path fill="none" stroke="#191970" d="M279,-224.2455C279,-216.9382 279,-206.6944 279,-197.7046"/>
<polygon fill="#191970" stroke="#191970" points="282.5001,-197.6426 279,-187.6427 275.5001,-197.6427 282.5001,-197.6426"/>
</g>
<!-- Node2 -->
<g id="node3" class="node">
<title>Node2</title>
<g id="a_node3"><a xlink:href="aggregator_8h.html" target="_top" xlink:title=" ">
<polygon fill="none" stroke="#000000" points="225.5,-112.5 225.5,-131.5 332.5,-131.5 332.5,-112.5 225.5,-112.5"/>
<text text-anchor="middle" x="279" y="-119.5" font-family="Helvetica,sans-Serif" font-size="10.00" fill="#000000">aggregator.h</text>
</a>
</g>
</g>
<!-- Node1&#45;&gt;Node2 -->
<g id="edge2" class="edge">
<title>Node1&#45;&gt;Node2</title>
<path fill="none" stroke="#191970" d="M279,-168.2455C279,-160.9382 279,-150.6944 279,-141.7046"/>
<polygon fill="#191970" stroke="#191970" points="282.5001,-141.6426 279,-131.6427 275.5001,-141.6427 282.5001,-141.6426"/>
</g>
<!-- Node3 -->
<g id="node4" class="node">
<title>Node3</title>
<g id="a_node4"><a xlink:href="data__dragon_8h.html" target="_top" xlink:title=" ">
<polygon fill="none" stroke="#000000" points="265,-56.5 265,-75.5 379,-75.5 379,-56.5 265,-56.5"/>
<text text-anchor="middle" x="322" y="-63.5" font-family="Helvetica,sans-Serif" font-size="10.00" fill="#000000">data_dragon.h</text>
</a>
</g>
</g>
<!-- Node2&#45;&gt;Node3 -->
<g id="edge3" class="edge">
<title>Node2&#45;&gt;Node3</title>
<path fill="none" stroke="#191970" d="M286.49,-112.2455C292.5326,-104.3761 301.1903,-93.101 308.4441,-83.6542"/>
<polygon fill="#191970" stroke="#191970" points="311.2815,-85.7058 314.5958,-75.6427 305.7295,-81.4426 311.2815,-85.7058"/>
</g>
<!-- Node5 -->
<g id="node6" class="node">
<title>Node5</title>
<g id="a_node6"><a xlink:title=" ">
<polygon fill="none" stroke="#bfbfbf" points="110,-.5 110,-19.5 172,-19.5 172,-.5 110,-.5"/>
<text text-anchor="middle" x="141" y="-7.5" font-family="Helvetica,sans-Serif" font-size="10.00" fill="#000000">string</text>
</a>
</g>
</g>
<!-- Node2&#45;&gt;Node5 -->
<g id="edge12" class="edge">
<title>Node2&#45;&gt;Node5</title>
<path fill="none" stroke="#191970" d="M267.2342,-112.4509C243.5045,-93.1921 189.6965,-49.5218 160.5831,-25.8935"/>
<polygon fill="#191970" stroke="#191970" points="162.7062,-23.109 152.736,-19.5249 158.295,-28.5442 162.7062,-23.109"/>
</g>
<!-- Node6 -->
<g id="node7" class="node">
<title>Node6</title>
<g id="a_node7"><a xlink:title=" ">
<polygon fill="none" stroke="#bfbfbf" points="432.5,-.5 432.5,-19.5 531.5,-19.5 531.5,-.5 432.5,-.5"/>
<text text-anchor="middle" x="482" y="-7.5" font-family="Helvetica,sans-Serif" font-size="10.00" fill="#000000">string_view</text>
</a>
</g>
</g>
<!-- Node2&#45;&gt;Node6 -->
<g id="edge13" class="edge">
<title>Node2&#45;&gt;Node6</title>
<path fill="none" stroke="#191970" d="M306.1767,-112.3799C328.6946,-103.9771 361.227,-90.8266 388,-76 414.9559,-61.0721 443.6192,-40.1181 462.1071,-25.8521"/>
<polygon fill="#191970" stroke="#191970" points="464.3504,-28.541 470.0781,-19.6278 460.0422,-23.0238 464.3504,-28.541"/>
</g>
<!-- Node7 -->
<g id="node8" class="node">
<title>Node7</title>
<g id="a_node8"><a xlink:title=" ">
<polygon fill="none" stroke="#bfbfbf" points="190,-.5 190,-19.5 252,-19.5 252,-.5 190,-.5"/>
<text text-anchor="middle" x="221" y="-7.5" font-family="Helvetica,sans-Serif" font-size="10.00" fill="#000000">vector</text>
</a>
</g>
</g>
<!-- Node2&#45;&gt;Node7 -->
<g id="edge15" class="edge">
<title>Node2&#45;&gt;Node7</title>
<path fill="none" stroke="#191970" d="M274.055,-112.4509C264.4669,-93.936 243.1949,-52.8591 230.6936,-28.7187"/>
<polygon fill="#191970" stroke="#191970" points="233.6391,-26.7953 225.9325,-19.5249 227.4231,-30.0144 233.6391,-26.7953"/>
</g>
<!-- Node8 -->
<g id="node9" class="node">
<title>Node8</title>
<g id="a_node9"><a xlink:href="item__set_8h.html" target="_top" xlink:title=" ">
<polygon fill="none" stroke="#000000" points="79,-56.5 79,-75.5 171,-75.5 171,-56.5 79,-56.5"/>
<text text-anchor="middle" x="125" y="-63.5" font-family="Helvetica,sans-Serif" font-size="10.00" fill="#000000">item_set.h</text>
</a>
</g>
</g>
<!-- Node2&#45;&gt;Node8 -->
<g id="edge8" class="edge">
<title>Node2&#45;&gt;Node8</title>
<path fill="none" stroke="#191970" d="M252.5265,-112.3733C227.1403,-103.1419 188.6355,-89.1402 160.578,-78.9375"/>
<polygon fill="#191970" stroke="#191970" points="161.7222,-75.6293 151.1281,-75.5011 159.3299,-82.2079 161.7222,-75.6293"/>
</g>
<!-- Node10 -->
<g id="node11" class="node">
<title>Node10</title>
<g id="a_node11"><a xlink:title=" ">
<polygon fill="none" stroke="#bfbfbf" points="435.5,-56.5 435.5,-75.5 504.5,-75.5 504.5,-56.5 435.5,-56.5"/>
<text text-anchor="middle" x="470" y="-63.5" font-family="Helvetica,sans-Serif" font-size="10.00" fill="#000000">utility</text>
</a>
</g>
</g>
<!-- Node2&#45;&gt;Node10 -->
<g id="edge14" class="edge">
<title>Node2&#45;&gt;Node10</title>
<path fill="none" stroke="#191970" d="M311.8341,-112.3733C343.8695,-102.9807 392.7487,-88.6496 427.6855,-78.4064"/>
<polygon fill="#191970" stroke="#191970" points="428.9831,-81.6733 437.5944,-75.5011 427.0136,-74.9561 428.9831,-81.6733"/>
</g>
<!-- Node4 -->
<g id="node5" class="node">
<title>Node4</title>
<g id="a_node5"><a xlink:title=" ">
<polygon fill="none" stroke="#bfbfbf" points="270,-.5 270,-19.5 414,-19.5 414,-.5 270,-.5"/>
<text text-anchor="middle" x="342" y="-7.5" font-family="Helvetica,sans-Serif" font-size="10.00" fill="#000000">nlohmann/json.hpp</text>
</a>
</g>
</g>
<!-- Node3&#45;&gt;Node4 -->
<g id="edge4" class="edge">
<title>Node3&#45;&gt;Node4</title>
<path fill="none" stroke="#191970" d="M325.4837,-56.2455C328.1508,-48.7776 331.9133,-38.2427 335.1737,-29.1137"/>
<polygon fill="#191970" stroke="#191970" points="338.4889,-30.2373 338.5562,-19.6427 331.8967,-27.8829 338.4889,-30.2373"/>
</g>
<!-- Node3&#45;&gt;Node5 -->
<g id="edge5" class="edge">
<title>Node3&#45;&gt;Node5</title>
<path fill="none" stroke="#191970" d="M290.885,-56.3733C260.6571,-47.021 214.604,-32.7725 181.5261,-22.5385"/>
<polygon fill="#191970" stroke="#191970" points="182.2967,-19.1133 171.709,-19.5011 180.2277,-25.8005 182.2967,-19.1133"/>
</g>
<!-- Node3&#45;&gt;Node6 -->
<g id="edge6" class="edge">
<title>Node3&#45;&gt;Node6</title>
<path fill="none" stroke="#191970" d="M349.505,-56.3733C375.8802,-47.1419 415.8851,-33.1402 445.0358,-22.9375"/>
<polygon fill="#191970" stroke="#191970" points="446.5716,-26.1082 454.8539,-19.5011 444.2591,-19.5012 446.5716,-26.1082"/>
</g>
<!-- Node3&#45;&gt;Node7 -->
<g id="edge7" class="edge">
<title>Node3&#45;&gt;Node7</title>
<path fill="none" stroke="#191970" d="M304.4071,-56.2455C288.621,-47.4928 265.2361,-34.527 247.2413,-24.5496"/>
<polygon fill="#191970" stroke="#191970" points="248.8341,-21.4308 238.3913,-19.6427 245.4397,-27.5528 248.8341,-21.4308"/>
</g>
<!-- Node8&#45;&gt;Node5 -->
<g id="edge10" class="edge">
<title>Node8&#45;&gt;Node5</title>
<path fill="none" stroke="#191970" d="M127.787,-56.2455C129.8977,-48.8579 132.866,-38.4689 135.4547,-29.4087"/>
<polygon fill="#191970" stroke="#191970" points="138.863,-30.2195 138.245,-19.6427 132.1323,-28.2964 138.863,-30.2195"/>
</g>
<!-- Node8&#45;&gt;Node7 -->
<g id="edge11" class="edge">
<title>Node8&#45;&gt;Node7</title>
<path fill="none" stroke="#191970" d="M141.7219,-56.2455C156.5889,-47.5731 178.5466,-34.7645 195.5858,-24.825"/>
<polygon fill="#191970" stroke="#191970" points="197.5955,-27.7047 204.4697,-19.6427 194.0683,-21.6582 197.5955,-27.7047"/>
</g>
<!-- Node9 -->
<g id="node10" class="node">
<title>Node9</title>
<g id="a_node10"><a xlink:title=" ">
<polygon fill="none" stroke="#bfbfbf" points="0,-.5 0,-19.5 92,-19.5 92,-.5 0,-.5"/>
<text text-anchor="middle" x="46" y="-7.5" font-family="Helvetica,sans-Serif" font-size="10.00" fill="#000000">filesystem</text>
</a>
</g>
</g>
<!-- Node8&#45;&gt;Node9 -->
<g id="edge9" class="edge">
<title>Node8&#45;&gt;Node9</title>
<path fill="none" stroke="#191970" d="M111.2393,-56.2455C99.3448,-47.814 81.935,-35.4729 68.0915,-25.6598"/>
<polygon fill="#191970" stroke="#191970" points="69.7854,-22.5704 59.6031,-19.6427 65.7372,-28.2811 69.7854,-22.5704"/>
</g>
</g>
</svg>
