<?xml version="1.0" encoding="UTF-8" standalone="no"?>
<!DOCTYPE svg PUBLIC "-//W3C//DTD SVG 1.1//EN"
 "http://www.w3.org/Graphics/SVG/1.1/DTD/svg11.dtd">
<!-- Generated by graphviz version 2.40.1 (0)
 -->
<!-- Title: leitse/ugg.cpp Pages: 1 -->
<svg width="854pt" height="252pt"
 viewBox="0.00 0.00 854.00 252.00" xmlns="http://www.w3.org/2000/svg" xmlns:xlink="http://www.w3.org/1999/xlink">
<g id="graph0" class="graph" transform="scale(1 1) rotate(0) translate(4 248)">
<title>leitse/ugg.cpp</title>
<!-- Node0 -->
<g id="node1" class="node">
<title>Node0</title>
<g id="a_node1"><a xlink:title=" ">
<polygon fill="#bfbfbf" stroke="#000000" points="556.5,-224.5 556.5,-243.5 678.5,-243.5 678.5,-224.5 556.5,-224.5"/>
<text text-anchor="middle" x="617.5" y="-231.5" font-family="Helvetica,sans-Serif" font-size="10.00" fill="#000000">leitse/ugg.cpp</text>
</a>
</g>
</g>
<!-- Node1 -->
<g id="node2" class="node">
<title>Node1</title>
<g id="a_node2"><a xlink:href="ugg_8h.html" target="_top" xlink:title=" ">
<polygon fill="none" stroke="#000000" points="388.5,-168.5 388.5,-187.5 442.5,-187.5 442.5,-168.5 388.5,-168.5"/>
<text text-anchor="middle" x="415.5" y="-175.5" font-family="Helvetica,sans-Serif" font-size="10.00" fill="#000000">ugg.h</text>
</a>
</g>
</g>
<!-- Node0&#45;&gt;Node1 -->
<g id="edge1" class="edge">
<title>Node0&#45;&gt;Node1</title>
<path fill="none" stroke="#191970" d="M582.775,-224.3733C546.4808,-214.3115 489.744,-198.5825 452.5906,-188.2825"/>
<polygon fill="#191970" stroke="#191970" points="453.2355,-184.8294 442.6639,-185.5306 451.3654,-191.575 453.2355,-184.8294"/>
</g>
<!-- Node11 -->
<g id="node12" class="node">
<title>Node11</title>
<g id="a_node12"><a xlink:href="download_8h.html" target="_top" xlink:title=" ">
<polygon fill="none" stroke="#000000" points="443.5,-56.5 443.5,-75.5 535.5,-75.5 535.5,-56.5 443.5,-56.5"/>
<text text-anchor="middle" x="489.5" y="-63.5" font-family="Helvetica,sans-Serif" font-size="10.00" fill="#000000">download.h</text>
</a>
</g>
</g>
<!-- Node0&#45;&gt;Node11 -->
<g id="edge16" class="edge">
<title>Node0&#45;&gt;Node11</title>
<path fill="none" stroke="#191970" d="M558.0906,-224.4701C536.2651,-217.8915 513.4926,-206.7765 499.5,-188 477.166,-158.0304 480.7996,-111.6576 485.262,-85.5651"/>
<polygon fill="#191970" stroke="#191970" points="488.7016,-86.2121 487.1519,-75.7312 481.8274,-84.8909 488.7016,-86.2121"/>
</g>
<!-- Node12 -->
<g id="node13" class="node">
<title>Node12</title>
<g id="a_node13"><a xlink:title=" ">
<polygon fill="none" stroke="#bfbfbf" points="508,-168.5 508,-187.5 615,-187.5 615,-168.5 508,-168.5"/>
<text text-anchor="middle" x="561.5" y="-175.5" font-family="Helvetica,sans-Serif" font-size="10.00" fill="#000000">fmt/format.h</text>
</a>
</g>
</g>
<!-- Node0&#45;&gt;Node12 -->
<g id="edge19" class="edge">
<title>Node0&#45;&gt;Node12</title>
<path fill="none" stroke="#191970" d="M607.7455,-224.2455C599.6352,-216.1352 587.9075,-204.4075 578.2919,-194.7919"/>
<polygon fill="#191970" stroke="#191970" points="580.6887,-192.2389 571.1427,-187.6427 575.7389,-197.1887 580.6887,-192.2389"/>
</g>
<!-- Node13 -->
<g id="node14" class="node">
<title>Node13</title>
<g id="a_node14"><a xlink:title=" ">
<polygon fill="none" stroke="#bfbfbf" points="632.5,-168.5 632.5,-187.5 716.5,-187.5 716.5,-168.5 632.5,-168.5"/>
<text text-anchor="middle" x="674.5" y="-175.5" font-family="Helvetica,sans-Serif" font-size="10.00" fill="#000000">algorithm</text>
</a>
</g>
</g>
<!-- Node0&#45;&gt;Node13 -->
<g id="edge20" class="edge">
<title>Node0&#45;&gt;Node13</title>
<path fill="none" stroke="#191970" d="M627.4286,-224.2455C635.6838,-216.1352 647.6209,-204.4075 657.4082,-194.7919"/>
<polygon fill="#191970" stroke="#191970" points="660.0046,-197.1476 664.6851,-187.6427 655.0989,-192.1542 660.0046,-197.1476"/>
</g>
<!-- Node14 -->
<g id="node15" class="node">
<title>Node14</title>
<g id="a_node15"><a xlink:title=" ">
<polygon fill="none" stroke="#bfbfbf" points="734.5,-168.5 734.5,-187.5 788.5,-187.5 788.5,-168.5 734.5,-168.5"/>
<text text-anchor="middle" x="761.5" y="-175.5" font-family="Helvetica,sans-Serif" font-size="10.00" fill="#000000">array</text>
</a>
</g>
</g>
<!-- Node0&#45;&gt;Node14 -->
<g id="edge21" class="edge">
<title>Node0&#45;&gt;Node14</title>
<path fill="none" stroke="#191970" d="M642.2545,-224.3733C665.7849,-215.2226 701.3687,-201.3844 727.5426,-191.2057"/>
<polygon fill="#191970" stroke="#191970" points="729.0171,-194.3877 737.0685,-187.5011 726.4799,-187.8636 729.0171,-194.3877"/>
</g>
<!-- Node15 -->
<g id="node16" class="node">
<title>Node15</title>
<g id="a_node16"><a xlink:title=" ">
<polygon fill="none" stroke="#bfbfbf" points="807,-168.5 807,-187.5 846,-187.5 846,-168.5 807,-168.5"/>
<text text-anchor="middle" x="826.5" y="-175.5" font-family="Helvetica,sans-Serif" font-size="10.00" fill="#000000">set</text>
</a>
</g>
</g>
<!-- Node0&#45;&gt;Node15 -->
<g id="edge22" class="edge">
<title>Node0&#45;&gt;Node15</title>
<path fill="none" stroke="#191970" d="M658.8706,-224.4462C693.4493,-216.233 744.2262,-203.6459 797.328,-187.8721"/>
<polygon fill="#191970" stroke="#191970" points="798.3422,-191.222 806.9151,-184.9966 796.3311,-184.5171 798.3422,-191.222"/>
</g>
<!-- Node2 -->
<g id="node3" class="node">
<title>Node2</title>
<g id="a_node3"><a xlink:href="aggregator_8h.html" target="_top" xlink:title=" ">
<polygon fill="none" stroke="#000000" points="155,-112.5 155,-131.5 262,-131.5 262,-112.5 155,-112.5"/>
<text text-anchor="middle" x="208.5" y="-119.5" font-family="Helvetica,sans-Serif" font-size="10.00" fill="#000000">aggregator.h</text>
</a>
</g>
</g>
<!-- Node1&#45;&gt;Node2 -->
<g id="edge2" class="edge">
<title>Node1&#45;&gt;Node2</title>
<path fill="none" stroke="#191970" d="M388.4384,-170.679C354.2186,-161.4215 294.8114,-145.3499 253.6667,-134.219"/>
<polygon fill="#191970" stroke="#191970" points="254.4531,-130.806 243.8861,-131.573 252.6251,-137.5631 254.4531,-130.806"/>
</g>
<!-- Node4 -->
<g id="node5" class="node">
<title>Node4</title>
<g id="a_node5"><a xlink:title=" ">
<polygon fill="none" stroke="#bfbfbf" points="326.5,-.5 326.5,-19.5 470.5,-19.5 470.5,-.5 326.5,-.5"/>
<text text-anchor="middle" x="398.5" y="-7.5" font-family="Helvetica,sans-Serif" font-size="10.00" fill="#000000">nlohmann/json.hpp</text>
</a>
</g>
</g>
<!-- Node1&#45;&gt;Node4 -->
<g id="edge15" class="edge">
<title>Node1&#45;&gt;Node4</title>
<path fill="none" stroke="#191970" d="M414.5373,-168.4862C411.85,-141.9293 404.2239,-66.5651 400.5406,-30.1655"/>
<polygon fill="#191970" stroke="#191970" points="403.9836,-29.4247 399.4945,-19.8279 397.0191,-30.1295 403.9836,-29.4247"/>
</g>
<!-- Node3 -->
<g id="node4" class="node">
<title>Node3</title>
<g id="a_node4"><a xlink:href="data__dragon_8h.html" target="_top" xlink:title=" ">
<polygon fill="none" stroke="#000000" points="273.5,-56.5 273.5,-75.5 387.5,-75.5 387.5,-56.5 273.5,-56.5"/>
<text text-anchor="middle" x="330.5" y="-63.5" font-family="Helvetica,sans-Serif" font-size="10.00" fill="#000000">data_dragon.h</text>
</a>
</g>
</g>
<!-- Node2&#45;&gt;Node3 -->
<g id="edge3" class="edge">
<title>Node2&#45;&gt;Node3</title>
<path fill="none" stroke="#191970" d="M229.4725,-112.3733C249.0567,-103.3838 278.4961,-89.8706 300.551,-79.7471"/>
<polygon fill="#191970" stroke="#191970" points="302.1729,-82.8538 309.8011,-75.5011 299.2527,-76.4919 302.1729,-82.8538"/>
</g>
<!-- Node5 -->
<g id="node6" class="node">
<title>Node5</title>
<g id="a_node6"><a xlink:title=" ">
<polygon fill="none" stroke="#bfbfbf" points="246.5,-.5 246.5,-19.5 308.5,-19.5 308.5,-.5 246.5,-.5"/>
<text text-anchor="middle" x="277.5" y="-7.5" font-family="Helvetica,sans-Serif" font-size="10.00" fill="#000000">string</text>
</a>
</g>
</g>
<!-- Node2&#45;&gt;Node5 -->
<g id="edge12" class="edge">
<title>Node2&#45;&gt;Node5</title>
<path fill="none" stroke="#191970" d="M214.3829,-112.4509C225.8913,-93.7707 251.5488,-52.1238 266.3638,-28.0761"/>
<polygon fill="#191970" stroke="#191970" points="269.3666,-29.8747 271.632,-19.5249 263.4068,-26.203 269.3666,-29.8747"/>
</g>
<!-- Node7 -->
<g id="node8" class="node">
<title>Node7</title>
<g id="a_node8"><a xlink:title=" ">
<polygon fill="none" stroke="#bfbfbf" points="56.5,-.5 56.5,-19.5 118.5,-19.5 118.5,-.5 56.5,-.5"/>
<text text-anchor="middle" x="87.5" y="-7.5" font-family="Helvetica,sans-Serif" font-size="10.00" fill="#000000">vector</text>
</a>
</g>
</g>
<!-- Node2&#45;&gt;Node7 -->
<g id="edge14" class="edge">
<title>Node2&#45;&gt;Node7</title>
<path fill="none" stroke="#191970" d="M176.9708,-112.4271C157.4288,-105.126 132.9952,-93.3352 116.5,-76 104.1249,-62.9947 96.5132,-43.8433 92.212,-29.5159"/>
<polygon fill="#191970" stroke="#191970" points="95.5403,-28.4165 89.5441,-19.6817 88.7845,-30.2493 95.5403,-28.4165"/>
</g>
<!-- Node8 -->
<g id="node9" class="node">
<title>Node8</title>
<g id="a_node9"><a xlink:href="item__set_8h.html" target="_top" xlink:title=" ">
<polygon fill="none" stroke="#000000" points="125.5,-56.5 125.5,-75.5 217.5,-75.5 217.5,-56.5 125.5,-56.5"/>
<text text-anchor="middle" x="171.5" y="-63.5" font-family="Helvetica,sans-Serif" font-size="10.00" fill="#000000">item_set.h</text>
</a>
</g>
</g>
<!-- Node2&#45;&gt;Node8 -->
<g id="edge8" class="edge">
<title>Node2&#45;&gt;Node8</title>
<path fill="none" stroke="#191970" d="M202.0551,-112.2455C196.9618,-104.5367 189.7092,-93.5598 183.548,-84.2348"/>
<polygon fill="#191970" stroke="#191970" points="186.3038,-82.0566 177.8711,-75.6427 180.4635,-85.9155 186.3038,-82.0566"/>
</g>
<!-- Node10 -->
<g id="node11" class="node">
<title>Node10</title>
<g id="a_node11"><a xlink:title=" ">
<polygon fill="none" stroke="#bfbfbf" points="0,-56.5 0,-75.5 69,-75.5 69,-56.5 0,-56.5"/>
<text text-anchor="middle" x="34.5" y="-63.5" font-family="Helvetica,sans-Serif" font-size="10.00" fill="#000000">utility</text>
</a>
</g>
</g>
<!-- Node2&#45;&gt;Node10 -->
<g id="edge13" class="edge">
<title>Node2&#45;&gt;Node10</title>
<path fill="none" stroke="#191970" d="M178.5883,-112.3733C149.6548,-103.0613 105.6389,-88.8953 73.8707,-78.671"/>
<polygon fill="#191970" stroke="#191970" points="74.6128,-75.2331 64.0213,-75.5011 72.4682,-81.8965 74.6128,-75.2331"/>
</g>
<!-- Node3&#45;&gt;Node4 -->
<g id="edge4" class="edge">
<title>Node3&#45;&gt;Node4</title>
<path fill="none" stroke="#191970" d="M342.3447,-56.2455C352.388,-47.9746 366.9995,-35.9416 378.8004,-26.2232"/>
<polygon fill="#191970" stroke="#191970" points="381.2967,-28.7015 386.791,-19.6427 376.8467,-23.298 381.2967,-28.7015"/>
</g>
<!-- Node3&#45;&gt;Node5 -->
<g id="edge5" class="edge">
<title>Node3&#45;&gt;Node5</title>
<path fill="none" stroke="#191970" d="M321.2681,-56.2455C313.6683,-48.2155 302.7123,-36.6394 293.6632,-27.0781"/>
<polygon fill="#191970" stroke="#191970" points="296.042,-24.4998 286.6261,-19.6427 290.9579,-29.3115 296.042,-24.4998"/>
</g>
<!-- Node6 -->
<g id="node7" class="node">
<title>Node6</title>
<g id="a_node7"><a xlink:title=" ">
<polygon fill="none" stroke="#bfbfbf" points="489,-.5 489,-19.5 588,-19.5 588,-.5 489,-.5"/>
<text text-anchor="middle" x="538.5" y="-7.5" font-family="Helvetica,sans-Serif" font-size="10.00" fill="#000000">string_view</text>
</a>
</g>
</g>
<!-- Node3&#45;&gt;Node6 -->
<g id="edge6" class="edge">
<title>Node3&#45;&gt;Node6</title>
<path fill="none" stroke="#191970" d="M366.2565,-56.3733C401.4426,-46.9001 455.2881,-32.4032 493.3956,-22.1435"/>
<polygon fill="#191970" stroke="#191970" points="494.4639,-25.4806 503.2101,-19.5011 492.644,-18.7213 494.4639,-25.4806"/>
</g>
<!-- Node3&#45;&gt;Node7 -->
<g id="edge7" class="edge">
<title>Node3&#45;&gt;Node7</title>
<path fill="none" stroke="#191970" d="M287.2713,-56.4952C248.2996,-47.8614 189.1607,-34.5991 128.9834,-20.3201"/>
<polygon fill="#191970" stroke="#191970" points="129.4655,-16.8371 118.9268,-17.9265 127.8446,-23.6469 129.4655,-16.8371"/>
</g>
<!-- Node8&#45;&gt;Node5 -->
<g id="edge10" class="edge">
<title>Node8&#45;&gt;Node5</title>
<path fill="none" stroke="#191970" d="M189.9638,-56.2455C206.6074,-47.4527 231.2993,-34.4079 250.2192,-24.4125"/>
<polygon fill="#191970" stroke="#191970" points="252.0408,-27.4086 259.2478,-19.6427 248.7709,-21.2193 252.0408,-27.4086"/>
</g>
<!-- Node8&#45;&gt;Node7 -->
<g id="edge11" class="edge">
<title>Node8&#45;&gt;Node7</title>
<path fill="none" stroke="#191970" d="M156.8683,-56.2455C144.1006,-47.7337 125.3562,-35.2375 110.5701,-25.3801"/>
<polygon fill="#191970" stroke="#191970" points="112.226,-22.2775 101.964,-19.6427 108.3431,-28.1019 112.226,-22.2775"/>
</g>
<!-- Node9 -->
<g id="node10" class="node">
<title>Node9</title>
<g id="a_node10"><a xlink:title=" ">
<polygon fill="none" stroke="#bfbfbf" points="136.5,-.5 136.5,-19.5 228.5,-19.5 228.5,-.5 136.5,-.5"/>
<text text-anchor="middle" x="182.5" y="-7.5" font-family="Helvetica,sans-Serif" font-size="10.00" fill="#000000">filesystem</text>
</a>
</g>
</g>
<!-- Node8&#45;&gt;Node9 -->
<g id="edge9" class="edge">
<title>Node8&#45;&gt;Node9</title>
<path fill="none" stroke="#191970" d="M173.4161,-56.2455C174.8514,-48.9382 176.8636,-38.6944 178.6295,-29.7046"/>
<polygon fill="#191970" stroke="#191970" points="182.1127,-30.1298 180.6059,-19.6427 175.244,-28.7805 182.1127,-30.1298"/>
</g>
<!-- Node11&#45;&gt;Node5 -->
<g id="edge17" class="edge">
<title>Node11&#45;&gt;Node5</title>
<path fill="none" stroke="#191970" d="M453.0559,-56.3733C415.6716,-46.4982 357.6214,-31.1641 318.6177,-20.8613"/>
<polygon fill="#191970" stroke="#191970" points="319.2084,-17.3973 308.6461,-18.2273 317.4206,-24.1652 319.2084,-17.3973"/>
</g>
<!-- Node11&#45;&gt;Node6 -->
<g id="edge18" class="edge">
<title>Node11&#45;&gt;Node6</title>
<path fill="none" stroke="#191970" d="M498.0351,-56.2455C504.9912,-48.2958 514.9883,-36.8706 523.3051,-27.3656"/>
<polygon fill="#191970" stroke="#191970" points="526.1116,-29.4732 530.0627,-19.6427 520.8436,-24.8637 526.1116,-29.4732"/>
</g>
</g>
</svg>
