<?xml version="1.0" encoding="UTF-8" standalone="no"?>
<!DOCTYPE svg PUBLIC "-//W3C//DTD SVG 1.1//EN"
 "http://www.w3.org/Graphics/SVG/1.1/DTD/svg11.dtd">
<!-- Generated by graphviz version 2.40.1 (0)
 -->
<!-- Title: leitse/ugg.h Pages: 1 -->
<svg width="459pt" height="196pt"
 viewBox="0.00 0.00 458.50 196.00" xmlns="http://www.w3.org/2000/svg" xmlns:xlink="http://www.w3.org/1999/xlink">
<g id="graph0" class="graph" transform="scale(1 1) rotate(0) translate(4 192)">
<title>leitse/ugg.h</title>
<!-- Node0 -->
<g id="node1" class="node">
<title>Node0</title>
<g id="a_node1"><a xlink:title=" ">
<polygon fill="#bfbfbf" stroke="#000000" points="183.5,-168.5 183.5,-187.5 290.5,-187.5 290.5,-168.5 183.5,-168.5"/>
<text text-anchor="middle" x="237" y="-175.5" font-family="Helvetica,sans-Serif" font-size="10.00" fill="#000000">leitse/ugg.h</text>
</a>
</g>
</g>
<!-- Node1 -->
<g id="node2" class="node">
<title>Node1</title>
<g id="a_node2"><a xlink:href="aggregator_8h.html" target="_top" xlink:title=" ">
<polygon fill="none" stroke="#000000" points="183.5,-112.5 183.5,-131.5 290.5,-131.5 290.5,-112.5 183.5,-112.5"/>
<text text-anchor="middle" x="237" y="-119.5" font-family="Helvetica,sans-Serif" font-size="10.00" fill="#000000">aggregator.h</text>
</a>
</g>
</g>
<!-- Node0&#45;&gt;Node1 -->
<g id="edge1" class="edge">
<title>Node0&#45;&gt;Node1</title>
<path fill="none" stroke="#191970" d="M237,-168.2455C237,-160.9382 237,-150.6944 237,-141.7046"/>
<polygon fill="#191970" stroke="#191970" points="240.5001,-141.6426 237,-131.6427 233.5001,-141.6427 240.5001,-141.6426"/>
</g>
<!-- Node2 -->
<g id="node3" class="node">
<title>Node2</title>
<g id="a_node3"><a xlink:href="data__dragon_8h.html" target="_top" xlink:title=" ">
<polygon fill="none" stroke="#000000" points="59,-56.5 59,-75.5 173,-75.5 173,-56.5 59,-56.5"/>
<text text-anchor="middle" x="116" y="-63.5" font-family="Helvetica,sans-Serif" font-size="10.00" fill="#000000">data_dragon.h</text>
</a>
</g>
</g>
<!-- Node1&#45;&gt;Node2 -->
<g id="edge2" class="edge">
<title>Node1&#45;&gt;Node2</title>
<path fill="none" stroke="#191970" d="M216.1994,-112.3733C196.7757,-103.3838 167.5776,-89.8706 145.7036,-79.7471"/>
<polygon fill="#191970" stroke="#191970" points="147.0745,-76.5249 136.5292,-75.5011 144.1344,-82.8776 147.0745,-76.5249"/>
</g>
<!-- Node3 -->
<g id="node4" class="node">
<title>Node3</title>
<g id="a_node4"><a xlink:title=" ">
<polygon fill="none" stroke="#bfbfbf" points="0,-.5 0,-19.5 62,-19.5 62,-.5 0,-.5"/>
<text text-anchor="middle" x="31" y="-7.5" font-family="Helvetica,sans-Serif" font-size="10.00" fill="#000000">vector</text>
</a>
</g>
</g>
<!-- Node1&#45;&gt;Node3 -->
<g id="edge8" class="edge">
<title>Node1&#45;&gt;Node3</title>
<path fill="none" stroke="#191970" d="M183.219,-114.8444C134.9646,-107.3714 68.9172,-94.1917 50,-76 37.5353,-64.0133 33.0956,-44.4252 31.5888,-29.6958"/>
<polygon fill="#191970" stroke="#191970" points="35.0727,-29.3342 30.9239,-19.5855 28.0878,-29.7936 35.0727,-29.3342"/>
</g>
<!-- Node5 -->
<g id="node6" class="node">
<title>Node5</title>
<g id="a_node6"><a xlink:href="item__set_8h.html" target="_top" xlink:title=" ">
<polygon fill="none" stroke="#000000" points="191,-56.5 191,-75.5 283,-75.5 283,-56.5 191,-56.5"/>
<text text-anchor="middle" x="237" y="-63.5" font-family="Helvetica,sans-Serif" font-size="10.00" fill="#000000">item_set.h</text>
</a>
</g>
</g>
<!-- Node1&#45;&gt;Node5 -->
<g id="edge5" class="edge">
<title>Node1&#45;&gt;Node5</title>
<path fill="none" stroke="#191970" d="M237,-112.2455C237,-104.9382 237,-94.6944 237,-85.7046"/>
<polygon fill="#191970" stroke="#191970" points="240.5001,-85.6426 237,-75.6427 233.5001,-85.6427 240.5001,-85.6426"/>
</g>
<!-- Node6 -->
<g id="node7" class="node">
<title>Node6</title>
<g id="a_node7"><a xlink:title=" ">
<polygon fill="none" stroke="#bfbfbf" points="301,-56.5 301,-75.5 363,-75.5 363,-56.5 301,-56.5"/>
<text text-anchor="middle" x="332" y="-63.5" font-family="Helvetica,sans-Serif" font-size="10.00" fill="#000000">string</text>
</a>
</g>
</g>
<!-- Node1&#45;&gt;Node6 -->
<g id="edge6" class="edge">
<title>Node1&#45;&gt;Node6</title>
<path fill="none" stroke="#191970" d="M253.5477,-112.2455C268.2599,-103.5731 289.9888,-90.7645 306.8505,-80.825"/>
<polygon fill="#191970" stroke="#191970" points="308.8046,-83.736 315.6419,-75.6427 305.2498,-77.7057 308.8046,-83.736"/>
</g>
<!-- Node7 -->
<g id="node8" class="node">
<title>Node7</title>
<g id="a_node8"><a xlink:title=" ">
<polygon fill="none" stroke="#bfbfbf" points="381.5,-56.5 381.5,-75.5 450.5,-75.5 450.5,-56.5 381.5,-56.5"/>
<text text-anchor="middle" x="416" y="-63.5" font-family="Helvetica,sans-Serif" font-size="10.00" fill="#000000">utility</text>
</a>
</g>
</g>
<!-- Node1&#45;&gt;Node7 -->
<g id="edge7" class="edge">
<title>Node1&#45;&gt;Node7</title>
<path fill="none" stroke="#191970" d="M267.7712,-112.3733C297.665,-103.021 343.2093,-88.7725 375.9217,-78.5385"/>
<polygon fill="#191970" stroke="#191970" points="377.1315,-81.8273 385.6303,-75.5011 375.0414,-75.1466 377.1315,-81.8273"/>
</g>
<!-- Node2&#45;&gt;Node3 -->
<g id="edge3" class="edge">
<title>Node2&#45;&gt;Node3</title>
<path fill="none" stroke="#191970" d="M101.1941,-56.2455C88.2744,-47.7337 69.3069,-35.2375 54.3448,-25.3801"/>
<polygon fill="#191970" stroke="#191970" points="55.9124,-22.2216 45.6362,-19.6427 52.0613,-28.067 55.9124,-22.2216"/>
</g>
<!-- Node4 -->
<g id="node5" class="node">
<title>Node4</title>
<g id="a_node5"><a xlink:title=" ">
<polygon fill="none" stroke="#bfbfbf" points="80.5,-.5 80.5,-19.5 179.5,-19.5 179.5,-.5 80.5,-.5"/>
<text text-anchor="middle" x="130" y="-7.5" font-family="Helvetica,sans-Serif" font-size="10.00" fill="#000000">string_view</text>
</a>
</g>
</g>
<!-- Node2&#45;&gt;Node4 -->
<g id="edge4" class="edge">
<title>Node2&#45;&gt;Node4</title>
<path fill="none" stroke="#191970" d="M118.4386,-56.2455C120.2855,-48.8579 122.8828,-38.4689 125.1478,-29.4087"/>
<polygon fill="#191970" stroke="#191970" points="128.5594,-30.193 127.5893,-19.6427 121.7684,-28.4952 128.5594,-30.193"/>
</g>
</g>
</svg>
