<?xml version="1.0" encoding="UTF-8" standalone="no"?>
<!DOCTYPE svg PUBLIC "-//W3C//DTD SVG 1.1//EN"
 "http://www.w3.org/Graphics/SVG/1.1/DTD/svg11.dtd">
<!-- Generated by graphviz version 2.40.1 (0)
 -->
<!-- Title: leitse/ugg.cpp Pages: 1 -->
<svg width="921pt" height="252pt"
 viewBox="0.00 0.00 920.50 252.00" xmlns="http://www.w3.org/2000/svg" xmlns:xlink="http://www.w3.org/1999/xlink">
<g id="graph0" class="graph" transform="scale(1 1) rotate(0) translate(4 248)">
<title>leitse/ugg.cpp</title>
<!-- Node0 -->
<g id="node1" class="node">
<title>Node0</title>
<g id="a_node1"><a xlink:title=" ">
<polygon fill="#bfbfbf" stroke="#000000" points="623,-224.5 623,-243.5 745,-243.5 745,-224.5 623,-224.5"/>
<text text-anchor="middle" x="684" y="-231.5" font-family="Helvetica,sans-Serif" font-size="10.00" fill="#000000">leitse/ugg.cpp</text>
</a>
</g>
</g>
<!-- Node1 -->
<g id="node2" class="node">
<title>Node1</title>
<g id="a_node2"><a xlink:href="ugg_8h.html" target="_top" xlink:title=" ">
<polygon fill="none" stroke="#000000" points="392,-168.5 392,-187.5 446,-187.5 446,-168.5 392,-168.5"/>
<text text-anchor="middle" x="419" y="-175.5" font-family="Helvetica,sans-Serif" font-size="10.00" fill="#000000">ugg.h</text>
</a>
</g>
</g>
<!-- Node0&#45;&gt;Node1 -->
<g id="edge1" class="edge">
<title>Node0&#45;&gt;Node1</title>
<path fill="none" stroke="#191970" d="M631.0077,-224.4867C586.7141,-216.2791 521.681,-203.637 456.1631,-188.1539"/>
<polygon fill="#191970" stroke="#191970" points="456.6112,-184.6627 446.072,-185.7472 454.9872,-191.4717 456.6112,-184.6627"/>
</g>
<!-- Node11 -->
<g id="node12" class="node">
<title>Node11</title>
<g id="a_node12"><a xlink:href="download_8h.html" target="_top" xlink:title=" ">
<polygon fill="none" stroke="#000000" points="464,-168.5 464,-187.5 556,-187.5 556,-168.5 464,-168.5"/>
<text text-anchor="middle" x="510" y="-175.5" font-family="Helvetica,sans-Serif" font-size="10.00" fill="#000000">download.h</text>
</a>
</g>
</g>
<!-- Node0&#45;&gt;Node11 -->
<g id="edge16" class="edge">
<title>Node0&#45;&gt;Node11</title>
<path fill="none" stroke="#191970" d="M654.0883,-224.3733C625.1548,-215.0613 581.1389,-200.8953 549.3707,-190.671"/>
<polygon fill="#191970" stroke="#191970" points="550.1128,-187.2331 539.5213,-187.5011 547.9682,-193.8965 550.1128,-187.2331"/>
</g>
<!-- Node13 -->
<g id="node14" class="node">
<title>Node13</title>
<g id="a_node14"><a xlink:title=" ">
<polygon fill="none" stroke="#bfbfbf" points="574.5,-168.5 574.5,-187.5 681.5,-187.5 681.5,-168.5 574.5,-168.5"/>
<text text-anchor="middle" x="628" y="-175.5" font-family="Helvetica,sans-Serif" font-size="10.00" fill="#000000">fmt/format.h</text>
</a>
</g>
</g>
<!-- Node0&#45;&gt;Node13 -->
<g id="edge19" class="edge">
<title>Node0&#45;&gt;Node13</title>
<path fill="none" stroke="#191970" d="M674.2455,-224.2455C666.1352,-216.1352 654.4075,-204.4075 644.7919,-194.7919"/>
<polygon fill="#191970" stroke="#191970" points="647.1887,-192.2389 637.6427,-187.6427 642.2389,-197.1887 647.1887,-192.2389"/>
</g>
<!-- Node14 -->
<g id="node15" class="node">
<title>Node14</title>
<g id="a_node15"><a xlink:title=" ">
<polygon fill="none" stroke="#bfbfbf" points="699,-168.5 699,-187.5 783,-187.5 783,-168.5 699,-168.5"/>
<text text-anchor="middle" x="741" y="-175.5" font-family="Helvetica,sans-Serif" font-size="10.00" fill="#000000">algorithm</text>
</a>
</g>
</g>
<!-- Node0&#45;&gt;Node14 -->
<g id="edge20" class="edge">
<title>Node0&#45;&gt;Node14</title>
<path fill="none" stroke="#191970" d="M693.9286,-224.2455C702.1838,-216.1352 714.1209,-204.4075 723.9082,-194.7919"/>
<polygon fill="#191970" stroke="#191970" points="726.5046,-197.1476 731.1851,-187.6427 721.5989,-192.1542 726.5046,-197.1476"/>
</g>
<!-- Node15 -->
<g id="node16" class="node">
<title>Node15</title>
<g id="a_node16"><a xlink:title=" ">
<polygon fill="none" stroke="#bfbfbf" points="801,-168.5 801,-187.5 855,-187.5 855,-168.5 801,-168.5"/>
<text text-anchor="middle" x="828" y="-175.5" font-family="Helvetica,sans-Serif" font-size="10.00" fill="#000000">array</text>
</a>
</g>
</g>
<!-- Node0&#45;&gt;Node15 -->
<g id="edge21" class="edge">
<title>Node0&#45;&gt;Node15</title>
<path fill="none" stroke="#191970" d="M708.7545,-224.3733C732.2849,-215.2226 767.8687,-201.3844 794.0426,-191.2057"/>
<polygon fill="#191970" stroke="#191970" points="795.5171,-194.3877 803.5685,-187.5011 792.9799,-187.8636 795.5171,-194.3877"/>
</g>
<!-- Node16 -->
<g id="node17" class="node">
<title>Node16</title>
<g id="a_node17"><a xlink:title=" ">
<polygon fill="none" stroke="#bfbfbf" points="873.5,-168.5 873.5,-187.5 912.5,-187.5 912.5,-168.5 873.5,-168.5"/>
<text text-anchor="middle" x="893" y="-175.5" font-family="Helvetica,sans-Serif" font-size="10.00" fill="#000000">set</text>
</a>
</g>
</g>
<!-- Node0&#45;&gt;Node16 -->
<g id="edge22" class="edge">
<title>Node0&#45;&gt;Node16</title>
<path fill="none" stroke="#191970" d="M725.3706,-224.4462C759.9493,-216.233 810.7262,-203.6459 863.828,-187.8721"/>
<polygon fill="#191970" stroke="#191970" points="864.8422,-191.222 873.4151,-184.9966 862.8311,-184.5171 864.8422,-191.222"/>
</g>
<!-- Node2 -->
<g id="node3" class="node">
<title>Node2</title>
<g id="a_node3"><a xlink:href="aggregator_8h.html" target="_top" xlink:title=" ">
<polygon fill="none" stroke="#000000" points="157.5,-112.5 157.5,-131.5 264.5,-131.5 264.5,-112.5 157.5,-112.5"/>
<text text-anchor="middle" x="211" y="-119.5" font-family="Helvetica,sans-Serif" font-size="10.00" fill="#000000">aggregator.h</text>
</a>
</g>
</g>
<!-- Node1&#45;&gt;Node2 -->
<g id="edge2" class="edge">
<title>Node1&#45;&gt;Node2</title>
<path fill="none" stroke="#191970" d="M391.8076,-170.679C357.4226,-161.4215 297.7284,-145.3499 256.3849,-134.219"/>
<polygon fill="#191970" stroke="#191970" points="257.1231,-130.7932 246.557,-131.573 255.3033,-137.5525 257.1231,-130.7932"/>
</g>
<!-- Node4 -->
<g id="node5" class="node">
<title>Node4</title>
<g id="a_node5"><a xlink:title=" ">
<polygon fill="none" stroke="#bfbfbf" points="280,-.5 280,-19.5 424,-19.5 424,-.5 280,-.5"/>
<text text-anchor="middle" x="352" y="-7.5" font-family="Helvetica,sans-Serif" font-size="10.00" fill="#000000">nlohmann/json.hpp</text>
</a>
</g>
</g>
<!-- Node1&#45;&gt;Node4 -->
<g id="edge15" class="edge">
<title>Node1&#45;&gt;Node4</title>
<path fill="none" stroke="#191970" d="M421.7134,-168.42C427.2534,-146.8578 437.7555,-93.4741 418,-56 410.8196,-42.3795 397.584,-31.9594 384.84,-24.5092"/>
<polygon fill="#191970" stroke="#191970" points="386.2044,-21.2686 375.7409,-19.6058 382.8837,-27.4308 386.2044,-21.2686"/>
</g>
<!-- Node3 -->
<g id="node4" class="node">
<title>Node3</title>
<g id="a_node4"><a xlink:href="data__dragon_8h.html" target="_top" xlink:title=" ">
<polygon fill="none" stroke="#000000" points="295,-56.5 295,-75.5 409,-75.5 409,-56.5 295,-56.5"/>
<text text-anchor="middle" x="352" y="-63.5" font-family="Helvetica,sans-Serif" font-size="10.00" fill="#000000">data_dragon.h</text>
</a>
</g>
</g>
<!-- Node2&#45;&gt;Node3 -->
<g id="edge3" class="edge">
<title>Node2&#45;&gt;Node3</title>
<path fill="none" stroke="#191970" d="M235.2388,-112.3733C258.2789,-103.2226 293.1214,-89.3844 318.7501,-79.2057"/>
<polygon fill="#191970" stroke="#191970" points="320.0756,-82.4452 328.0775,-75.5011 317.4918,-75.9395 320.0756,-82.4452"/>
</g>
<!-- Node5 -->
<g id="node6" class="node">
<title>Node5</title>
<g id="a_node6"><a xlink:title=" ">
<polygon fill="none" stroke="#bfbfbf" points="190,-.5 190,-19.5 252,-19.5 252,-.5 190,-.5"/>
<text text-anchor="middle" x="221" y="-7.5" font-family="Helvetica,sans-Serif" font-size="10.00" fill="#000000">string</text>
</a>
</g>
</g>
<!-- Node2&#45;&gt;Node5 -->
<g id="edge12" class="edge">
<title>Node2&#45;&gt;Node5</title>
<path fill="none" stroke="#191970" d="M206.416,-112.1106C201.0148,-99.16 193.3313,-75.777 198,-56 200.2706,-46.3814 204.8775,-36.4809 209.3759,-28.3404"/>
<polygon fill="#191970" stroke="#191970" points="212.3973,-30.1071 214.4603,-19.7151 206.367,-26.5524 212.3973,-30.1071"/>
</g>
<!-- Node7 -->
<g id="node8" class="node">
<title>Node7</title>
<g id="a_node8"><a xlink:title=" ">
<polygon fill="none" stroke="#bfbfbf" points="110,-.5 110,-19.5 172,-19.5 172,-.5 110,-.5"/>
<text text-anchor="middle" x="141" y="-7.5" font-family="Helvetica,sans-Serif" font-size="10.00" fill="#000000">vector</text>
</a>
</g>
</g>
<!-- Node2&#45;&gt;Node7 -->
<g id="edge14" class="edge">
<title>Node2&#45;&gt;Node7</title>
<path fill="none" stroke="#191970" d="M205.0318,-112.4509C193.3567,-93.7707 167.3274,-52.1238 152.2976,-28.0761"/>
<polygon fill="#191970" stroke="#191970" points="155.2211,-26.1499 146.9531,-19.5249 149.2851,-29.8599 155.2211,-26.1499"/>
</g>
<!-- Node8 -->
<g id="node9" class="node">
<title>Node8</title>
<g id="a_node9"><a xlink:href="item__set_8h.html" target="_top" xlink:title=" ">
<polygon fill="none" stroke="#000000" points="21,-56.5 21,-75.5 113,-75.5 113,-56.5 21,-56.5"/>
<text text-anchor="middle" x="67" y="-63.5" font-family="Helvetica,sans-Serif" font-size="10.00" fill="#000000">item_set.h</text>
</a>
</g>
</g>
<!-- Node2&#45;&gt;Node8 -->
<g id="edge8" class="edge">
<title>Node2&#45;&gt;Node8</title>
<path fill="none" stroke="#191970" d="M186.2455,-112.3733C162.7151,-103.2226 127.1313,-89.3844 100.9574,-79.2057"/>
<polygon fill="#191970" stroke="#191970" points="102.0201,-75.8636 91.4315,-75.5011 99.4829,-82.3877 102.0201,-75.8636"/>
</g>
<!-- Node10 -->
<g id="node11" class="node">
<title>Node10</title>
<g id="a_node11"><a xlink:title=" ">
<polygon fill="none" stroke="#bfbfbf" points="207.5,-56.5 207.5,-75.5 276.5,-75.5 276.5,-56.5 207.5,-56.5"/>
<text text-anchor="middle" x="242" y="-63.5" font-family="Helvetica,sans-Serif" font-size="10.00" fill="#000000">utility</text>
</a>
</g>
</g>
<!-- Node2&#45;&gt;Node10 -->
<g id="edge13" class="edge">
<title>Node2&#45;&gt;Node10</title>
<path fill="none" stroke="#191970" d="M216.3998,-112.2455C220.6227,-104.617 226.6173,-93.7881 231.7441,-84.5267"/>
<polygon fill="#191970" stroke="#191970" points="234.881,-86.0867 236.6621,-75.6427 228.7568,-82.6965 234.881,-86.0867"/>
</g>
<!-- Node3&#45;&gt;Node4 -->
<g id="edge4" class="edge">
<title>Node3&#45;&gt;Node4</title>
<path fill="none" stroke="#191970" d="M352,-56.2455C352,-48.9382 352,-38.6944 352,-29.7046"/>
<polygon fill="#191970" stroke="#191970" points="355.5001,-29.6426 352,-19.6427 348.5001,-29.6427 355.5001,-29.6426"/>
</g>
<!-- Node3&#45;&gt;Node5 -->
<g id="edge5" class="edge">
<title>Node3&#45;&gt;Node5</title>
<path fill="none" stroke="#191970" d="M329.4803,-56.3733C308.2628,-47.3032 276.2724,-33.6279 252.5231,-23.4755"/>
<polygon fill="#191970" stroke="#191970" points="253.7967,-20.2136 243.2258,-19.5011 251.0452,-26.6502 253.7967,-20.2136"/>
</g>
<!-- Node6 -->
<g id="node7" class="node">
<title>Node6</title>
<g id="a_node7"><a xlink:title=" ">
<polygon fill="none" stroke="#bfbfbf" points="442.5,-.5 442.5,-19.5 541.5,-19.5 541.5,-.5 442.5,-.5"/>
<text text-anchor="middle" x="492" y="-7.5" font-family="Helvetica,sans-Serif" font-size="10.00" fill="#000000">string_view</text>
</a>
</g>
</g>
<!-- Node3&#45;&gt;Node6 -->
<g id="edge6" class="edge">
<title>Node3&#45;&gt;Node6</title>
<path fill="none" stroke="#191970" d="M376.0669,-56.3733C398.8428,-47.2629 433.2344,-33.5062 458.649,-23.3404"/>
<polygon fill="#191970" stroke="#191970" points="460.2623,-26.4648 468.2472,-19.5011 457.6625,-19.9654 460.2623,-26.4648"/>
</g>
<!-- Node3&#45;&gt;Node7 -->
<g id="edge7" class="edge">
<title>Node3&#45;&gt;Node7</title>
<path fill="none" stroke="#191970" d="M315.7278,-56.3733C278.628,-46.5269 221.0792,-31.2532 182.2628,-20.9513"/>
<polygon fill="#191970" stroke="#191970" points="182.8967,-17.4984 172.3334,-18.316 181.101,-24.2642 182.8967,-17.4984"/>
</g>
<!-- Node8&#45;&gt;Node5 -->
<g id="edge10" class="edge">
<title>Node8&#45;&gt;Node5</title>
<path fill="none" stroke="#191970" d="M93.4735,-56.3733C118.8597,-47.1419 157.3645,-33.1402 185.422,-22.9375"/>
<polygon fill="#191970" stroke="#191970" points="186.6701,-26.2079 194.8719,-19.5011 184.2778,-19.6293 186.6701,-26.2079"/>
</g>
<!-- Node8&#45;&gt;Node7 -->
<g id="edge11" class="edge">
<title>Node8&#45;&gt;Node7</title>
<path fill="none" stroke="#191970" d="M79.8898,-56.2455C90.9254,-47.8943 107.0292,-35.7076 119.9353,-25.9408"/>
<polygon fill="#191970" stroke="#191970" points="122.3959,-28.4681 128.2579,-19.6427 118.1717,-22.8862 122.3959,-28.4681"/>
</g>
<!-- Node9 -->
<g id="node10" class="node">
<title>Node9</title>
<g id="a_node10"><a xlink:title=" ">
<polygon fill="none" stroke="#bfbfbf" points="0,-.5 0,-19.5 92,-19.5 92,-.5 0,-.5"/>
<text text-anchor="middle" x="46" y="-7.5" font-family="Helvetica,sans-Serif" font-size="10.00" fill="#000000">filesystem</text>
</a>
</g>
</g>
<!-- Node8&#45;&gt;Node9 -->
<g id="edge9" class="edge">
<title>Node8&#45;&gt;Node9</title>
<path fill="none" stroke="#191970" d="M63.3421,-56.2455C60.5416,-48.7776 56.591,-38.2427 53.1676,-29.1137"/>
<polygon fill="#191970" stroke="#191970" points="56.4045,-27.777 49.616,-19.6427 49.8501,-30.2349 56.4045,-27.777"/>
</g>
<!-- Node11&#45;&gt;Node6 -->
<g id="edge18" class="edge">
<title>Node11&#45;&gt;Node6</title>
<path fill="none" stroke="#191970" d="M508.9807,-168.4862C506.1353,-141.9293 498.0606,-66.5651 494.1606,-30.1655"/>
<polygon fill="#191970" stroke="#191970" points="497.5985,-29.3981 493.053,-19.8279 490.6383,-30.1439 497.5985,-29.3981"/>
</g>
<!-- Node12 -->
<g id="node13" class="node">
<title>Node12</title>
<g id="a_node13"><a xlink:title=" ">
<polygon fill="none" stroke="#bfbfbf" points="520,-112.5 520,-131.5 642,-131.5 642,-112.5 520,-112.5"/>
<text text-anchor="middle" x="581" y="-119.5" font-family="Helvetica,sans-Serif" font-size="10.00" fill="#000000">cpr/response.h</text>
</a>
</g>
</g>
<!-- Node11&#45;&gt;Node12 -->
<g id="edge17" class="edge">
<title>Node11&#45;&gt;Node12</title>
<path fill="none" stroke="#191970" d="M522.3673,-168.2455C532.9554,-159.8943 548.4064,-147.7076 560.7893,-137.9408"/>
<polygon fill="#191970" stroke="#191970" points="563.0903,-140.5837 568.7745,-131.6427 558.7553,-135.0875 563.0903,-140.5837"/>
</g>
</g>
</svg>
