<?xml version="1.0" encoding="UTF-8" standalone="no"?>
<!DOCTYPE svg PUBLIC "-//W3C//DTD SVG 1.1//EN"
 "http://www.w3.org/Graphics/SVG/1.1/DTD/svg11.dtd">
<!-- Generated by graphviz version 2.40.1 (0)
 -->
<!-- Title: leitse/ugg.h Pages: 1 -->
<svg width="553pt" height="196pt"
 viewBox="0.00 0.00 553.00 196.00" xmlns="http://www.w3.org/2000/svg" xmlns:xlink="http://www.w3.org/1999/xlink">
<g id="graph0" class="graph" transform="scale(1 1) rotate(0) translate(4 192)">
<title>leitse/ugg.h</title>
<!-- Node0 -->
<g id="node1" class="node">
<title>Node0</title>
<g id="a_node1"><a xlink:title=" ">
<polygon fill="#bfbfbf" stroke="#000000" points="115.5,-168.5 115.5,-187.5 222.5,-187.5 222.5,-168.5 115.5,-168.5"/>
<text text-anchor="middle" x="169" y="-175.5" font-family="Helvetica,sans-Serif" font-size="10.00" fill="#000000">leitse/ugg.h</text>
</a>
</g>
</g>
<!-- Node1 -->
<g id="node2" class="node">
<title>Node1</title>
<g id="a_node2"><a xlink:href="aggregator_8h.html" target="_top" xlink:title=" ">
<polygon fill="none" stroke="#000000" points="244.5,-112.5 244.5,-131.5 351.5,-131.5 351.5,-112.5 244.5,-112.5"/>
<text text-anchor="middle" x="298" y="-119.5" font-family="Helvetica,sans-Serif" font-size="10.00" fill="#000000">aggregator.h</text>
</a>
</g>
</g>
<!-- Node0&#45;&gt;Node1 -->
<g id="edge1" class="edge">
<title>Node0&#45;&gt;Node1</title>
<path fill="none" stroke="#191970" d="M191.1759,-168.3733C211.9766,-159.3435 243.2917,-145.7494 266.6458,-135.6111"/>
<polygon fill="#191970" stroke="#191970" points="268.3343,-138.6938 276.1135,-131.5011 265.5468,-132.2727 268.3343,-138.6938"/>
</g>
<!-- Node3 -->
<g id="node4" class="node">
<title>Node3</title>
<g id="a_node4"><a xlink:title=" ">
<polygon fill="none" stroke="#bfbfbf" points="0,-.5 0,-19.5 144,-19.5 144,-.5 0,-.5"/>
<text text-anchor="middle" x="72" y="-7.5" font-family="Helvetica,sans-Serif" font-size="10.00" fill="#000000">nlohmann/json.hpp</text>
</a>
</g>
</g>
<!-- Node0&#45;&gt;Node3 -->
<g id="edge14" class="edge">
<title>Node0&#45;&gt;Node3</title>
<path fill="none" stroke="#191970" d="M159.6629,-168.4296C143.4352,-151.2928 109.9527,-113.6297 91,-76 83.625,-61.3573 78.6912,-43.404 75.7037,-29.9206"/>
<polygon fill="#191970" stroke="#191970" points="79.0706,-28.9145 73.6411,-19.8166 72.212,-30.3146 79.0706,-28.9145"/>
</g>
<!-- Node2 -->
<g id="node3" class="node">
<title>Node2</title>
<g id="a_node3"><a xlink:href="data__dragon_8h.html" target="_top" xlink:title=" ">
<polygon fill="none" stroke="#000000" points="100,-56.5 100,-75.5 214,-75.5 214,-56.5 100,-56.5"/>
<text text-anchor="middle" x="157" y="-63.5" font-family="Helvetica,sans-Serif" font-size="10.00" fill="#000000">data_dragon.h</text>
</a>
</g>
</g>
<!-- Node1&#45;&gt;Node2 -->
<g id="edge2" class="edge">
<title>Node1&#45;&gt;Node2</title>
<path fill="none" stroke="#191970" d="M273.7612,-112.3733C250.7211,-103.2226 215.8786,-89.3844 190.2499,-79.2057"/>
<polygon fill="#191970" stroke="#191970" points="191.5082,-75.9395 180.9225,-75.5011 188.9244,-82.4452 191.5082,-75.9395"/>
</g>
<!-- Node4 -->
<g id="node5" class="node">
<title>Node4</title>
<g id="a_node5"><a xlink:title=" ">
<polygon fill="none" stroke="#bfbfbf" points="373,-.5 373,-19.5 435,-19.5 435,-.5 373,-.5"/>
<text text-anchor="middle" x="404" y="-7.5" font-family="Helvetica,sans-Serif" font-size="10.00" fill="#000000">string</text>
</a>
</g>
</g>
<!-- Node1&#45;&gt;Node4 -->
<g id="edge11" class="edge">
<title>Node1&#45;&gt;Node4</title>
<path fill="none" stroke="#191970" d="M351.6144,-113.7476C393.2053,-106.1217 445.9144,-93.3479 459,-76 472.614,-57.9515 450.8269,-38.1388 430.7863,-24.9778"/>
<polygon fill="#191970" stroke="#191970" points="432.4663,-21.9011 422.1245,-19.5993 428.7736,-27.848 432.4663,-21.9011"/>
</g>
<!-- Node6 -->
<g id="node7" class="node">
<title>Node6</title>
<g id="a_node7"><a xlink:title=" ">
<polygon fill="none" stroke="#bfbfbf" points="293,-.5 293,-19.5 355,-19.5 355,-.5 293,-.5"/>
<text text-anchor="middle" x="324" y="-7.5" font-family="Helvetica,sans-Serif" font-size="10.00" fill="#000000">vector</text>
</a>
</g>
</g>
<!-- Node1&#45;&gt;Node6 -->
<g id="edge13" class="edge">
<title>Node1&#45;&gt;Node6</title>
<path fill="none" stroke="#191970" d="M300.7069,-112.1623C303.2302,-102.8706 307.0384,-88.53 310,-76 313.6626,-60.5042 317.383,-42.8553 320.0671,-29.7092"/>
<polygon fill="#191970" stroke="#191970" points="323.5049,-30.3667 322.054,-19.8717 316.6435,-28.9808 323.5049,-30.3667"/>
</g>
<!-- Node7 -->
<g id="node8" class="node">
<title>Node7</title>
<g id="a_node8"><a xlink:href="item__set_8h.html" target="_top" xlink:title=" ">
<polygon fill="none" stroke="#000000" points="358,-56.5 358,-75.5 450,-75.5 450,-56.5 358,-56.5"/>
<text text-anchor="middle" x="404" y="-63.5" font-family="Helvetica,sans-Serif" font-size="10.00" fill="#000000">item_set.h</text>
</a>
</g>
</g>
<!-- Node1&#45;&gt;Node7 -->
<g id="edge7" class="edge">
<title>Node1&#45;&gt;Node7</title>
<path fill="none" stroke="#191970" d="M316.4638,-112.2455C333.1074,-103.4527 357.7993,-90.4079 376.7192,-80.4125"/>
<polygon fill="#191970" stroke="#191970" points="378.5408,-83.4086 385.7478,-75.6427 375.2709,-77.2193 378.5408,-83.4086"/>
</g>
<!-- Node9 -->
<g id="node10" class="node">
<title>Node9</title>
<g id="a_node10"><a xlink:title=" ">
<polygon fill="none" stroke="#bfbfbf" points="232.5,-56.5 232.5,-75.5 301.5,-75.5 301.5,-56.5 232.5,-56.5"/>
<text text-anchor="middle" x="267" y="-63.5" font-family="Helvetica,sans-Serif" font-size="10.00" fill="#000000">utility</text>
</a>
</g>
</g>
<!-- Node1&#45;&gt;Node9 -->
<g id="edge12" class="edge">
<title>Node1&#45;&gt;Node9</title>
<path fill="none" stroke="#191970" d="M292.6002,-112.2455C288.3773,-104.617 282.3827,-93.7881 277.2559,-84.5267"/>
<polygon fill="#191970" stroke="#191970" points="280.2432,-82.6965 272.3379,-75.6427 274.119,-86.0867 280.2432,-82.6965"/>
</g>
<!-- Node2&#45;&gt;Node3 -->
<g id="edge3" class="edge">
<title>Node2&#45;&gt;Node3</title>
<path fill="none" stroke="#191970" d="M142.1941,-56.2455C129.2744,-47.7337 110.3069,-35.2375 95.3448,-25.3801"/>
<polygon fill="#191970" stroke="#191970" points="96.9124,-22.2216 86.6362,-19.6427 93.0613,-28.067 96.9124,-22.2216"/>
</g>
<!-- Node2&#45;&gt;Node4 -->
<g id="edge4" class="edge">
<title>Node2&#45;&gt;Node4</title>
<path fill="none" stroke="#191970" d="M201.4946,-56.4666C241.3347,-47.8508 301.5997,-34.6232 362.7562,-20.2543"/>
<polygon fill="#191970" stroke="#191970" points="363.6463,-23.6405 372.5761,-17.9389 362.0398,-16.8273 363.6463,-23.6405"/>
</g>
<!-- Node5 -->
<g id="node6" class="node">
<title>Node5</title>
<g id="a_node6"><a xlink:title=" ">
<polygon fill="none" stroke="#bfbfbf" points="162.5,-.5 162.5,-19.5 261.5,-19.5 261.5,-.5 162.5,-.5"/>
<text text-anchor="middle" x="212" y="-7.5" font-family="Helvetica,sans-Serif" font-size="10.00" fill="#000000">string_view</text>
</a>
</g>
</g>
<!-- Node2&#45;&gt;Node5 -->
<g id="edge5" class="edge">
<title>Node2&#45;&gt;Node5</title>
<path fill="none" stroke="#191970" d="M166.5803,-56.2455C174.5458,-48.1352 186.0641,-36.4075 195.5079,-26.7919"/>
<polygon fill="#191970" stroke="#191970" points="198.0195,-29.2297 202.5295,-19.6427 193.0253,-24.3247 198.0195,-29.2297"/>
</g>
<!-- Node2&#45;&gt;Node6 -->
<g id="edge6" class="edge">
<title>Node2&#45;&gt;Node6</title>
<path fill="none" stroke="#191970" d="M185.7083,-56.3733C213.3577,-47.1016 255.3576,-33.0178 285.8166,-22.804"/>
<polygon fill="#191970" stroke="#191970" points="287.2979,-25.9989 295.6663,-19.5011 285.0724,-19.3621 287.2979,-25.9989"/>
</g>
<!-- Node7&#45;&gt;Node4 -->
<g id="edge9" class="edge">
<title>Node7&#45;&gt;Node4</title>
<path fill="none" stroke="#191970" d="M404,-56.2455C404,-48.9382 404,-38.6944 404,-29.7046"/>
<polygon fill="#191970" stroke="#191970" points="407.5001,-29.6426 404,-19.6427 400.5001,-29.6427 407.5001,-29.6426"/>
</g>
<!-- Node7&#45;&gt;Node6 -->
<g id="edge10" class="edge">
<title>Node7&#45;&gt;Node6</title>
<path fill="none" stroke="#191970" d="M390.0651,-56.2455C377.9053,-47.7337 360.0536,-35.2375 345.9715,-25.3801"/>
<polygon fill="#191970" stroke="#191970" points="347.9747,-22.51 337.7752,-19.6427 343.9605,-28.2447 347.9747,-22.51"/>
</g>
<!-- Node8 -->
<g id="node9" class="node">
<title>Node8</title>
<g id="a_node9"><a xlink:title=" ">
<polygon fill="none" stroke="#bfbfbf" points="453,-.5 453,-19.5 545,-19.5 545,-.5 453,-.5"/>
<text text-anchor="middle" x="499" y="-7.5" font-family="Helvetica,sans-Serif" font-size="10.00" fill="#000000">filesystem</text>
</a>
</g>
</g>
<!-- Node7&#45;&gt;Node8 -->
<g id="edge8" class="edge">
<title>Node7&#45;&gt;Node8</title>
<path fill="none" stroke="#191970" d="M420.5477,-56.2455C435.2599,-47.5731 456.9888,-34.7645 473.8505,-24.825"/>
<polygon fill="#191970" stroke="#191970" points="475.8046,-27.736 482.6419,-19.6427 472.2498,-21.7057 475.8046,-27.736"/>
</g>
</g>
</svg>
