<?xml version="1.0" encoding="UTF-8" standalone="no"?>
<!DOCTYPE svg PUBLIC "-//W3C//DTD SVG 1.1//EN"
 "http://www.w3.org/Graphics/SVG/1.1/DTD/svg11.dtd">
<!-- Generated by graphviz version 2.40.1 (0)
 -->
<!-- Title: leitse/ugg.cpp Pages: 1 -->
<svg width="523pt" height="252pt"
 viewBox="0.00 0.00 522.50 252.00" xmlns="http://www.w3.org/2000/svg" xmlns:xlink="http://www.w3.org/1999/xlink">
<g id="graph0" class="graph" transform="scale(1 1) rotate(0) translate(4 248)">
<title>leitse/ugg.cpp</title>
<!-- Node0 -->
<g id="node1" class="node">
<title>Node0</title>
<g id="a_node1"><a xlink:title=" ">
<polygon fill="#bfbfbf" stroke="#000000" points="246,-224.5 246,-243.5 368,-243.5 368,-224.5 246,-224.5"/>
<text text-anchor="middle" x="307" y="-231.5" font-family="Helvetica,sans-Serif" font-size="10.00" fill="#000000">leitse/ugg.cpp</text>
</a>
</g>
</g>
<!-- Node1 -->
<g id="node2" class="node">
<title>Node1</title>
<g id="a_node2"><a xlink:href="ugg_8h.html" target="_top" xlink:title=" ">
<polygon fill="none" stroke="#000000" points="280,-168.5 280,-187.5 334,-187.5 334,-168.5 280,-168.5"/>
<text text-anchor="middle" x="307" y="-175.5" font-family="Helvetica,sans-Serif" font-size="10.00" fill="#000000">ugg.h</text>
</a>
</g>
</g>
<!-- Node0&#45;&gt;Node1 -->
<g id="edge1" class="edge">
<title>Node0&#45;&gt;Node1</title>
<path fill="none" stroke="#191970" d="M307,-224.2455C307,-216.9382 307,-206.6944 307,-197.7046"/>
<polygon fill="#191970" stroke="#191970" points="310.5001,-197.6426 307,-187.6427 303.5001,-197.6427 310.5001,-197.6426"/>
</g>
<!-- Node2 -->
<g id="node3" class="node">
<title>Node2</title>
<g id="a_node3"><a xlink:href="aggregator_8h.html" target="_top" xlink:title=" ">
<polygon fill="none" stroke="#000000" points="253.5,-112.5 253.5,-131.5 360.5,-131.5 360.5,-112.5 253.5,-112.5"/>
<text text-anchor="middle" x="307" y="-119.5" font-family="Helvetica,sans-Serif" font-size="10.00" fill="#000000">aggregator.h</text>
</a>
</g>
</g>
<!-- Node1&#45;&gt;Node2 -->
<g id="edge2" class="edge">
<title>Node1&#45;&gt;Node2</title>
<path fill="none" stroke="#191970" d="M307,-168.2455C307,-160.9382 307,-150.6944 307,-141.7046"/>
<polygon fill="#191970" stroke="#191970" points="310.5001,-141.6426 307,-131.6427 303.5001,-141.6427 310.5001,-141.6426"/>
</g>
<!-- Node3 -->
<g id="node4" class="node">
<title>Node3</title>
<g id="a_node4"><a xlink:href="data__dragon_8h.html" target="_top" xlink:title=" ">
<polygon fill="none" stroke="#000000" points="165,-56.5 165,-75.5 279,-75.5 279,-56.5 165,-56.5"/>
<text text-anchor="middle" x="222" y="-63.5" font-family="Helvetica,sans-Serif" font-size="10.00" fill="#000000">data_dragon.h</text>
</a>
</g>
</g>
<!-- Node2&#45;&gt;Node3 -->
<g id="edge3" class="edge">
<title>Node2&#45;&gt;Node3</title>
<path fill="none" stroke="#191970" d="M292.1941,-112.2455C279.2744,-103.7337 260.3069,-91.2375 245.3448,-81.3801"/>
<polygon fill="#191970" stroke="#191970" points="246.9124,-78.2216 236.6362,-75.6427 243.0613,-84.067 246.9124,-78.2216"/>
</g>
<!-- Node5 -->
<g id="node6" class="node">
<title>Node5</title>
<g id="a_node6"><a xlink:title=" ">
<polygon fill="none" stroke="#bfbfbf" points="0,-.5 0,-19.5 62,-19.5 62,-.5 0,-.5"/>
<text text-anchor="middle" x="31" y="-7.5" font-family="Helvetica,sans-Serif" font-size="10.00" fill="#000000">string</text>
</a>
</g>
</g>
<!-- Node2&#45;&gt;Node5 -->
<g id="edge9" class="edge">
<title>Node2&#45;&gt;Node5</title>
<path fill="none" stroke="#191970" d="M268.4453,-112.4285C237.5082,-104.2337 193.2484,-91.3438 156,-76 119.7832,-61.0812 80.1369,-39.1098 55.4157,-24.6793"/>
<polygon fill="#191970" stroke="#191970" points="57.1023,-21.6107 46.7101,-19.5484 53.5479,-27.6412 57.1023,-21.6107"/>
</g>
<!-- Node7 -->
<g id="node8" class="node">
<title>Node7</title>
<g id="a_node8"><a xlink:title=" ">
<polygon fill="none" stroke="#bfbfbf" points="360,-.5 360,-19.5 422,-19.5 422,-.5 360,-.5"/>
<text text-anchor="middle" x="391" y="-7.5" font-family="Helvetica,sans-Serif" font-size="10.00" fill="#000000">vector</text>
</a>
</g>
</g>
<!-- Node2&#45;&gt;Node7 -->
<g id="edge11" class="edge">
<title>Node2&#45;&gt;Node7</title>
<path fill="none" stroke="#191970" d="M307.7937,-112.1715C309.3246,-98.4525 313.7093,-73.3033 326,-56 335.2123,-43.0307 349.2757,-32.4266 361.9679,-24.6817"/>
<polygon fill="#191970" stroke="#191970" points="363.9564,-27.5757 370.8785,-19.5547 360.4653,-21.5083 363.9564,-27.5757"/>
</g>
<!-- Node8 -->
<g id="node9" class="node">
<title>Node8</title>
<g id="a_node9"><a xlink:href="item__set_8h.html" target="_top" xlink:title=" ">
<polygon fill="none" stroke="#000000" points="335,-56.5 335,-75.5 427,-75.5 427,-56.5 335,-56.5"/>
<text text-anchor="middle" x="381" y="-63.5" font-family="Helvetica,sans-Serif" font-size="10.00" fill="#000000">item_set.h</text>
</a>
</g>
</g>
<!-- Node2&#45;&gt;Node8 -->
<g id="edge8" class="edge">
<title>Node2&#45;&gt;Node8</title>
<path fill="none" stroke="#191970" d="M319.8898,-112.2455C330.9254,-103.8943 347.0292,-91.7076 359.9353,-81.9408"/>
<polygon fill="#191970" stroke="#191970" points="362.3959,-84.4681 368.2579,-75.6427 358.1717,-78.8862 362.3959,-84.4681"/>
</g>
<!-- Node9 -->
<g id="node10" class="node">
<title>Node9</title>
<g id="a_node10"><a xlink:title=" ">
<polygon fill="none" stroke="#bfbfbf" points="445.5,-56.5 445.5,-75.5 514.5,-75.5 514.5,-56.5 445.5,-56.5"/>
<text text-anchor="middle" x="480" y="-63.5" font-family="Helvetica,sans-Serif" font-size="10.00" fill="#000000">utility</text>
</a>
</g>
</g>
<!-- Node2&#45;&gt;Node9 -->
<g id="edge10" class="edge">
<title>Node2&#45;&gt;Node9</title>
<path fill="none" stroke="#191970" d="M336.7398,-112.3733C365.507,-103.0613 409.27,-88.8953 440.8556,-78.671"/>
<polygon fill="#191970" stroke="#191970" points="442.2122,-81.9107 450.6483,-75.5011 440.0564,-75.251 442.2122,-81.9107"/>
</g>
<!-- Node4 -->
<g id="node5" class="node">
<title>Node4</title>
<g id="a_node5"><a xlink:title=" ">
<polygon fill="none" stroke="#bfbfbf" points="80,-.5 80,-19.5 224,-19.5 224,-.5 80,-.5"/>
<text text-anchor="middle" x="152" y="-7.5" font-family="Helvetica,sans-Serif" font-size="10.00" fill="#000000">nlohmann/json.hpp</text>
</a>
</g>
</g>
<!-- Node3&#45;&gt;Node4 -->
<g id="edge4" class="edge">
<title>Node3&#45;&gt;Node4</title>
<path fill="none" stroke="#191970" d="M209.8069,-56.2455C199.3679,-47.8943 184.1345,-35.7076 171.926,-25.9408"/>
<polygon fill="#191970" stroke="#191970" points="174.0485,-23.1566 164.0533,-19.6427 169.6756,-28.6227 174.0485,-23.1566"/>
</g>
<!-- Node3&#45;&gt;Node5 -->
<g id="edge5" class="edge">
<title>Node3&#45;&gt;Node5</title>
<path fill="none" stroke="#191970" d="M189.1659,-56.3733C156.7422,-46.8668 107.0639,-32.3015 72.0503,-22.0357"/>
<polygon fill="#191970" stroke="#191970" points="72.7217,-18.5853 62.1408,-19.1303 70.7522,-25.3025 72.7217,-18.5853"/>
</g>
<!-- Node6 -->
<g id="node7" class="node">
<title>Node6</title>
<g id="a_node7"><a xlink:title=" ">
<polygon fill="none" stroke="#bfbfbf" points="242.5,-.5 242.5,-19.5 341.5,-19.5 341.5,-.5 242.5,-.5"/>
<text text-anchor="middle" x="292" y="-7.5" font-family="Helvetica,sans-Serif" font-size="10.00" fill="#000000">string_view</text>
</a>
</g>
</g>
<!-- Node3&#45;&gt;Node6 -->
<g id="edge6" class="edge">
<title>Node3&#45;&gt;Node6</title>
<path fill="none" stroke="#191970" d="M234.1931,-56.2455C244.6321,-47.8943 259.8655,-35.7076 272.074,-25.9408"/>
<polygon fill="#191970" stroke="#191970" points="274.3244,-28.6227 279.9467,-19.6427 269.9515,-23.1566 274.3244,-28.6227"/>
</g>
<!-- Node3&#45;&gt;Node7 -->
<g id="edge7" class="edge">
<title>Node3&#45;&gt;Node7</title>
<path fill="none" stroke="#191970" d="M251.0521,-56.3733C279.1543,-47.0613 321.9054,-32.8953 352.7607,-22.671"/>
<polygon fill="#191970" stroke="#191970" points="353.9355,-25.969 362.327,-19.5011 351.7336,-19.3243 353.9355,-25.969"/>
</g>
</g>
</svg>
