<?xml version="1.0" encoding="UTF-8" standalone="no"?>
<!DOCTYPE svg PUBLIC "-//W3C//DTD SVG 1.1//EN"
 "http://www.w3.org/Graphics/SVG/1.1/DTD/svg11.dtd">
<!-- Generated by graphviz version 2.40.1 (0)
 -->
<!-- Title: leitse/ugg.cpp Pages: 1 -->
<svg width="564pt" height="252pt"
 viewBox="0.00 0.00 564.00 252.00" xmlns="http://www.w3.org/2000/svg" xmlns:xlink="http://www.w3.org/1999/xlink">
<g id="graph0" class="graph" transform="scale(1 1) rotate(0) translate(4 248)">
<title>leitse/ugg.cpp</title>
<!-- Node0 -->
<g id="node1" class="node">
<title>Node0</title>
<g id="a_node1"><a xlink:title=" ">
<polygon fill="#bfbfbf" stroke="#000000" points="323.5,-224.5 323.5,-243.5 445.5,-243.5 445.5,-224.5 323.5,-224.5"/>
<text text-anchor="middle" x="384.5" y="-231.5" font-family="Helvetica,sans-Serif" font-size="10.00" fill="#000000">leitse/ugg.cpp</text>
</a>
</g>
</g>
<!-- Node1 -->
<g id="node2" class="node">
<title>Node1</title>
<g id="a_node2"><a xlink:href="ugg_8h.html" target="_top" xlink:title=" ">
<polygon fill="none" stroke="#000000" points="357.5,-168.5 357.5,-187.5 411.5,-187.5 411.5,-168.5 357.5,-168.5"/>
<text text-anchor="middle" x="384.5" y="-175.5" font-family="Helvetica,sans-Serif" font-size="10.00" fill="#000000">ugg.h</text>
</a>
</g>
</g>
<!-- Node0&#45;&gt;Node1 -->
<g id="edge1" class="edge">
<title>Node0&#45;&gt;Node1</title>
<path fill="none" stroke="#191970" d="M384.5,-224.2455C384.5,-216.9382 384.5,-206.6944 384.5,-197.7046"/>
<polygon fill="#191970" stroke="#191970" points="388.0001,-197.6426 384.5,-187.6427 381.0001,-197.6427 388.0001,-197.6426"/>
</g>
<!-- Node2 -->
<g id="node3" class="node">
<title>Node2</title>
<g id="a_node3"><a xlink:href="aggregator_8h.html" target="_top" xlink:title=" ">
<polygon fill="none" stroke="#000000" points="331,-112.5 331,-131.5 438,-131.5 438,-112.5 331,-112.5"/>
<text text-anchor="middle" x="384.5" y="-119.5" font-family="Helvetica,sans-Serif" font-size="10.00" fill="#000000">aggregator.h</text>
</a>
</g>
</g>
<!-- Node1&#45;&gt;Node2 -->
<g id="edge2" class="edge">
<title>Node1&#45;&gt;Node2</title>
<path fill="none" stroke="#191970" d="M384.5,-168.2455C384.5,-160.9382 384.5,-150.6944 384.5,-141.7046"/>
<polygon fill="#191970" stroke="#191970" points="388.0001,-141.6426 384.5,-131.6427 381.0001,-141.6427 388.0001,-141.6426"/>
</g>
<!-- Node3 -->
<g id="node4" class="node">
<title>Node3</title>
<g id="a_node4"><a xlink:href="data__dragon_8h.html" target="_top" xlink:title=" ">
<polygon fill="none" stroke="#000000" points="168.5,-56.5 168.5,-75.5 282.5,-75.5 282.5,-56.5 168.5,-56.5"/>
<text text-anchor="middle" x="225.5" y="-63.5" font-family="Helvetica,sans-Serif" font-size="10.00" fill="#000000">data_dragon.h</text>
</a>
</g>
</g>
<!-- Node2&#45;&gt;Node3 -->
<g id="edge3" class="edge">
<title>Node2&#45;&gt;Node3</title>
<path fill="none" stroke="#191970" d="M357.1669,-112.3733C330.9566,-103.1419 291.2016,-89.1402 262.2332,-78.9375"/>
<polygon fill="#191970" stroke="#191970" points="263.0712,-75.5219 252.4764,-75.5011 260.7458,-82.1244 263.0712,-75.5219"/>
</g>
<!-- Node5 -->
<g id="node6" class="node">
<title>Node5</title>
<g id="a_node6"><a xlink:title=" ">
<polygon fill="none" stroke="#bfbfbf" points="279.5,-.5 279.5,-19.5 341.5,-19.5 341.5,-.5 279.5,-.5"/>
<text text-anchor="middle" x="310.5" y="-7.5" font-family="Helvetica,sans-Serif" font-size="10.00" fill="#000000">string</text>
</a>
</g>
</g>
<!-- Node2&#45;&gt;Node5 -->
<g id="edge12" class="edge">
<title>Node2&#45;&gt;Node5</title>
<path fill="none" stroke="#191970" d="M368.5094,-112.4228C356.1391,-104.2247 339.4865,-91.3333 329.5,-76 320.3602,-61.9667 315.5302,-43.4653 313.0321,-29.6227"/>
<polygon fill="#191970" stroke="#191970" points="316.4835,-29.0391 311.4908,-19.6944 309.5663,-30.113 316.4835,-29.0391"/>
</g>
<!-- Node7 -->
<g id="node8" class="node">
<title>Node7</title>
<g id="a_node8"><a xlink:title=" ">
<polygon fill="none" stroke="#bfbfbf" points="359.5,-.5 359.5,-19.5 421.5,-19.5 421.5,-.5 359.5,-.5"/>
<text text-anchor="middle" x="390.5" y="-7.5" font-family="Helvetica,sans-Serif" font-size="10.00" fill="#000000">vector</text>
</a>
</g>
</g>
<!-- Node2&#45;&gt;Node7 -->
<g id="edge14" class="edge">
<title>Node2&#45;&gt;Node7</title>
<path fill="none" stroke="#191970" d="M402.7833,-112.4509C415.6858,-104.5902 431.9641,-92.1269 439.5,-76 448.2976,-57.1731 431.2326,-38.4098 414.8808,-25.7293"/>
<polygon fill="#191970" stroke="#191970" points="416.6874,-22.7162 406.5356,-19.6845 412.5811,-28.3853 416.6874,-22.7162"/>
</g>
<!-- Node8 -->
<g id="node9" class="node">
<title>Node8</title>
<g id="a_node9"><a xlink:href="item__set_8h.html" target="_top" xlink:title=" ">
<polygon fill="none" stroke="#000000" points="338.5,-56.5 338.5,-75.5 430.5,-75.5 430.5,-56.5 338.5,-56.5"/>
<text text-anchor="middle" x="384.5" y="-63.5" font-family="Helvetica,sans-Serif" font-size="10.00" fill="#000000">item_set.h</text>
</a>
</g>
</g>
<!-- Node2&#45;&gt;Node8 -->
<g id="edge8" class="edge">
<title>Node2&#45;&gt;Node8</title>
<path fill="none" stroke="#191970" d="M384.5,-112.2455C384.5,-104.9382 384.5,-94.6944 384.5,-85.7046"/>
<polygon fill="#191970" stroke="#191970" points="388.0001,-85.6426 384.5,-75.6427 381.0001,-85.6427 388.0001,-85.6426"/>
</g>
<!-- Node10 -->
<g id="node11" class="node">
<title>Node10</title>
<g id="a_node11"><a xlink:title=" ">
<polygon fill="none" stroke="#bfbfbf" points="487,-56.5 487,-75.5 556,-75.5 556,-56.5 487,-56.5"/>
<text text-anchor="middle" x="521.5" y="-63.5" font-family="Helvetica,sans-Serif" font-size="10.00" fill="#000000">utility</text>
</a>
</g>
</g>
<!-- Node2&#45;&gt;Node10 -->
<g id="edge13" class="edge">
<title>Node2&#45;&gt;Node10</title>
<path fill="none" stroke="#191970" d="M408.0511,-112.3733C430.3391,-103.2629 463.9937,-89.5062 488.8637,-79.3404"/>
<polygon fill="#191970" stroke="#191970" points="490.3239,-82.5247 498.2562,-75.5011 487.6753,-76.0451 490.3239,-82.5247"/>
</g>
<!-- Node4 -->
<g id="node5" class="node">
<title>Node4</title>
<g id="a_node5"><a xlink:title=" ">
<polygon fill="none" stroke="#bfbfbf" points="117.5,-.5 117.5,-19.5 261.5,-19.5 261.5,-.5 117.5,-.5"/>
<text text-anchor="middle" x="189.5" y="-7.5" font-family="Helvetica,sans-Serif" font-size="10.00" fill="#000000">nlohmann/json.hpp</text>
</a>
</g>
</g>
<!-- Node3&#45;&gt;Node4 -->
<g id="edge4" class="edge">
<title>Node3&#45;&gt;Node4</title>
<path fill="none" stroke="#191970" d="M219.2293,-56.2455C214.2736,-48.5367 207.217,-37.5598 201.2224,-28.2348"/>
<polygon fill="#191970" stroke="#191970" points="204.0506,-26.1618 195.6989,-19.6427 198.1624,-29.9471 204.0506,-26.1618"/>
</g>
<!-- Node3&#45;&gt;Node5 -->
<g id="edge5" class="edge">
<title>Node3&#45;&gt;Node5</title>
<path fill="none" stroke="#191970" d="M240.3059,-56.2455C253.2256,-47.7337 272.1931,-35.2375 287.1552,-25.3801"/>
<polygon fill="#191970" stroke="#191970" points="289.4387,-28.067 295.8638,-19.6427 285.5876,-22.2216 289.4387,-28.067"/>
</g>
<!-- Node6 -->
<g id="node7" class="node">
<title>Node6</title>
<g id="a_node7"><a xlink:title=" ">
<polygon fill="none" stroke="#bfbfbf" points="0,-.5 0,-19.5 99,-19.5 99,-.5 0,-.5"/>
<text text-anchor="middle" x="49.5" y="-7.5" font-family="Helvetica,sans-Serif" font-size="10.00" fill="#000000">string_view</text>
</a>
</g>
</g>
<!-- Node3&#45;&gt;Node6 -->
<g id="edge6" class="edge">
<title>Node3&#45;&gt;Node6</title>
<path fill="none" stroke="#191970" d="M195.2445,-56.3733C165.8517,-47.021 121.0708,-32.7725 88.9066,-22.5385"/>
<polygon fill="#191970" stroke="#191970" points="89.9512,-19.198 79.3607,-19.5011 87.8287,-25.8685 89.9512,-19.198"/>
</g>
<!-- Node3&#45;&gt;Node7 -->
<g id="edge7" class="edge">
<title>Node3&#45;&gt;Node7</title>
<path fill="none" stroke="#191970" d="M253.8645,-56.3733C281.1827,-47.1016 322.6796,-33.0178 352.7738,-22.804"/>
<polygon fill="#191970" stroke="#191970" points="354.161,-26.0294 362.5056,-19.5011 351.9113,-19.4008 354.161,-26.0294"/>
</g>
<!-- Node8&#45;&gt;Node5 -->
<g id="edge10" class="edge">
<title>Node8&#45;&gt;Node5</title>
<path fill="none" stroke="#191970" d="M371.6102,-56.2455C360.5746,-47.8943 344.4708,-35.7076 331.5647,-25.9408"/>
<polygon fill="#191970" stroke="#191970" points="333.3283,-22.8862 323.2421,-19.6427 329.1041,-28.4681 333.3283,-22.8862"/>
</g>
<!-- Node8&#45;&gt;Node7 -->
<g id="edge11" class="edge">
<title>Node8&#45;&gt;Node7</title>
<path fill="none" stroke="#191970" d="M385.5451,-56.2455C386.328,-48.9382 387.4256,-38.6944 388.3888,-29.7046"/>
<polygon fill="#191970" stroke="#191970" points="391.8815,-29.9587 389.4669,-19.6427 384.9214,-29.2129 391.8815,-29.9587"/>
</g>
<!-- Node9 -->
<g id="node10" class="node">
<title>Node9</title>
<g id="a_node10"><a xlink:title=" ">
<polygon fill="none" stroke="#bfbfbf" points="439.5,-.5 439.5,-19.5 531.5,-19.5 531.5,-.5 439.5,-.5"/>
<text text-anchor="middle" x="485.5" y="-7.5" font-family="Helvetica,sans-Serif" font-size="10.00" fill="#000000">filesystem</text>
</a>
</g>
</g>
<!-- Node8&#45;&gt;Node9 -->
<g id="edge9" class="edge">
<title>Node8&#45;&gt;Node9</title>
<path fill="none" stroke="#191970" d="M402.0929,-56.2455C417.879,-47.4928 441.2639,-34.527 459.2587,-24.5496"/>
<polygon fill="#191970" stroke="#191970" points="461.0603,-27.5528 468.1087,-19.6427 457.6659,-21.4308 461.0603,-27.5528"/>
</g>
</g>
</svg>
